<svg xmlns="http://www.w3.org/2000/svg" viewBox="0 0 8.77 9.987">
    <path d="M5.7,7.07a.486.486,0,1,0,.487-.486A.487.487,0,0,0,5.7,7.07Z" fill="#1a1a1a"/>
    <path d="M5.749,0H3.057A3.056,3.056,0,0,0,0,3.058V7.812A3.048,3.048,0,0,0,.909,9.987L2.416,7.925l.959-1.311L5.444,3.787a6.21,6.21,0,0,0,3.326-1.2A3.057,3.057,0,0,0,5.749,0Z" fill="#f7f3b9"/>
    <path d="M2.486,7.6v.2a.79.79,0,0,0,.79.789h.337a.215.215,0,0,0,.215-.215V6.958a.216.216,0,0,0-.215-.216H3.348A.862.862,0,0,0,2.486,7.6Z" fill="#cca77f"/>
</svg>
