<svg xmlns="http://www.w3.org/2000/svg" viewBox="0 0 20.97 83.06">
  <g>
    <g>
      <rect x="4.37" y="77.99" width="5.07" height="5.07" rx="0.82" fill="#b08de2"/>
      <rect x="11.53" y="77.99" width="5.07" height="5.07" rx="0.82" fill="#b08de2"/>
      <path d="M17,38.08V78.94c0,.74-.39,1.33-.87,1.33H11.78c-.48,0-.87-.59-.87-1.33V50.59c0-.38-.21-.69-.46-.69s-.46.31-.46.69V78.94c0,.74-.38,1.33-.86,1.33H4.73c-.48,0-.87-.59-.87-1.33V38.08c0-.74.39-1.33.87-1.33h4.4a.85.85,0,0,1,.22,0h2.21a.78.78,0,0,1,.22,0h4.39C16.65,36.75,17,37.34,17,38.08Z" fill="#9d75cb"/>
      <rect x="3.86" y="28.82" width="13.21" height="11.06" rx="2.02" fill="#62462b"/>
      <path d="M20.69,45.49v2.14a.89.89,0,0,1-.9.89h-.26a.9.9,0,0,1-.9-.89v-.87l0,.13a.23.23,0,0,1-.22.21h-.06a.3.3,0,0,1-.16-.35L18.55,45a.25.25,0,0,1,.17-.21V37.44a.82.82,0,0,0,.31.07h1.21a.71.71,0,0,0,.42-.14v7.9A.78.78,0,0,1,20.69,45.49Z" fill="#62462b"/>
      <path d="M2.7,46.94H2.64a.24.24,0,0,1-.22-.21l0-.13v.87a.89.89,0,0,1-.9.89H1.23a.89.89,0,0,1-.9-.89V45.34a.77.77,0,0,1,0-.15V37.42a.79.79,0,0,0,.35.09H2a.66.66,0,0,0,.32-.08v7.2a.23.23,0,0,1,.19.21l.39,1.75A.3.3,0,0,1,2.7,46.94Z" fill="#62462b"/>
      <path d="M21,17.3a2.45,2.45,0,0,1,0,.27.59.59,0,0,1,0,.14V36.8a.67.67,0,0,1-.31.57.71.71,0,0,1-.42.14H19a.82.82,0,0,1-.31-.07.71.71,0,0,1-.41-.64V19.94a.46.46,0,0,0-.45-.43.45.45,0,0,0-.41.27,2.82,2.82,0,0,1,0,3.59V36.76a.76.76,0,0,1-.35.63l-.13.06a.72.72,0,0,1-.29.06H4.32A.82.82,0,0,1,4,37.43l-.11-.06a.75.75,0,0,1-.31-.61V23.31a2.82,2.82,0,0,1,0-3.5.46.46,0,0,0-.43-.3.44.44,0,0,0-.44.43V36.83a.66.66,0,0,1-.38.6.66.66,0,0,1-.32.08H.7a.79.79,0,0,1-.35-.09A.68.68,0,0,1,0,36.83V17.68a.57.57,0,0,1,0-.13,2,2,0,0,1,0-.25v-.41a2.68,2.68,0,0,1,2.73-2.64h15.5A2.69,2.69,0,0,1,21,16.89Z" fill="#865ebf"/>
      <path d="M10.5,38.33l0,.09h0a.1.1,0,0,1-.1-.1.09.09,0,0,1,.1-.1.1.1,0,0,1,.1.1Z" fill="#e6e6e6"/>
      <path d="M10.49,38.68l0,.1h0a.1.1,0,1,1,0-.2.1.1,0,0,1,.1.1Z" fill="#e6e6e6"/>
    </g>
    <path d="M16.7,9a1.39,1.39,0,0,1-.41,1l-.07.06a1.78,1.78,0,0,0-.57-.36l-.08.22a1.36,1.36,0,0,1,.46.28,1.31,1.31,0,0,1-.71.2h-.09a3.77,3.77,0,0,1-2.31,2.21l-.23.06a3.77,3.77,0,0,1-1,.13h-.55V14a.61.61,0,0,1-.62.61H10A.61.61,0,0,1,9.35,14V12.76h-.5a4.05,4.05,0,0,1-.7-.07l-.23,0a3.77,3.77,0,0,1-2.57-2.28H5.24a1.31,1.31,0,0,1-.56-.12,1.62,1.62,0,0,1,.39-.3L5,9.73a1.87,1.87,0,0,0-.49.4A1.38,1.38,0,0,1,3.86,9,1.38,1.38,0,0,1,5.1,7.61V3.76A3.73,3.73,0,0,1,7.25.36,3.72,3.72,0,0,1,8.85,0h2.88A3.63,3.63,0,0,1,13,.21a3.76,3.76,0,0,1,2.52,3.55V7.61A1.39,1.39,0,0,1,16.7,9Z" fill="#62462b"/>
  </g>
</svg>
