<?xml version="1.0" standalone="no"?>
<!DOCTYPE svg PUBLIC "-//W3C//DTD SVG 20010904//EN"
 "http://www.w3.org/TR/2001/REC-SVG-20010904/DTD/svg10.dtd">
<svg version="1.0" xmlns="http://www.w3.org/2000/svg"
 width="16.000000pt" height="16.000000pt" viewBox="0 0 16.000000 16.000000"
 preserveAspectRatio="xMidYMid meet">
<metadata>
Created by potrace 1.11, written by Peter Selinger 2001-2013
</metadata>
<g transform="translate(0.000000,16.000000) scale(0.003200,-0.003200)"
fill="#000000" stroke="none">
<path d="M2925 4516 c-16 -7 -37 -22 -46 -32 -21 -24 -38 -77 -34 -101 2 -10
4 -26 4 -35 1 -9 11 -29 24 -44 l23 -27 -43 -161 c-24 -88 -55 -201 -68 -251
-77 -283 -129 -477 -142 -530 -7 -33 -17 -63 -21 -67 -7 -7 -17 -6 -187 40
-60 17 -162 44 -225 61 -63 16 -207 55 -319 85 -113 31 -206 55 -207 53 -9 -9
-31 -108 -26 -111 4 -3 50 -16 102 -29 52 -14 147 -39 210 -56 63 -16 165 -43
225 -59 213 -57 390 -105 393 -108 2 -1 -10 -52 -26 -113 l-30 -110 53 -16
c29 -8 55 -15 58 -15 2 0 17 50 32 110 16 61 33 110 38 110 6 0 121 -30 256
-66 282 -76 310 -83 446 -119 55 -14 130 -35 167 -46 37 -11 75 -19 85 -17 11
2 21 20 29 53 7 27 12 50 10 52 -1 1 -216 59 -477 129 -260 69 -478 130 -482
134 -5 4 23 126 62 271 39 145 94 350 122 454 75 281 79 295 92 295 24 0 77
47 93 82 53 118 -71 237 -191 184z"/>
<path d="M2184 3996 c-43 -19 -72 -60 -80 -111 -5 -37 -2 -52 20 -91 l26 -47
-25 -96 c-14 -53 -28 -103 -31 -113 -4 -13 7 -20 48 -32 29 -8 56 -12 60 -8 6
7 45 142 55 194 4 20 17 33 47 47 95 46 109 182 26 241 -37 27 -106 34 -146
16z"/>
<path d="M3365 3920 c-75 -37 -99 -132 -51 -203 l24 -36 -59 -221 c-32 -121
-59 -226 -59 -233 0 -11 99 -42 107 -33 5 4 101 356 109 396 10 51 16 61 52
78 110 52 109 213 -1 257 -50 20 -74 19 -122 -5z"/>
<path d="M1996 3169 c-6 -15 -34 -123 -41 -152 -11 -47 -17 -58 -32 -53 -8 3
-27 9 -41 12 -15 3 -142 37 -283 75 -141 38 -258 69 -261 69 -6 0 -31 -110
-26 -114 1 -2 32 -10 68 -19 36 -9 108 -28 160 -42 52 -14 156 -42 230 -62 74
-19 136 -37 137 -38 2 -1 -8 -39 -21 -86 -41 -146 -41 -137 1 -148 83 -21 71
-37 123 157 10 39 14 43 38 39 27 -5 179 -44 277 -72 28 -8 196 -54 375 -101
179 -47 326 -87 328 -89 4 -3 -13 -75 -37 -157 l-19 -68 41 -10 c23 -6 49 -13
58 -16 14 -4 22 16 45 106 20 74 33 110 43 110 8 0 44 -9 80 -19 144 -41 409
-111 422 -111 13 0 39 67 39 99 0 11 -122 46 -460 132 -25 7 -48 15 -52 18 -4
4 3 47 17 96 33 118 32 131 -4 138 -16 3 -40 9 -53 12 -24 6 -26 3 -53 -102
-15 -59 -29 -109 -31 -111 -1 -2 -69 15 -151 37 -81 22 -209 57 -283 76 -274
73 -545 146 -562 151 -15 4 -15 10 3 72 25 84 41 154 37 158 -2 1 -15 5 -28 7
-14 3 -37 8 -52 12 -20 5 -29 3 -32 -6z"/>
<path d="M1326 2628 c-32 -99 -31 -103 14 -112 14 -3 102 -26 195 -51 94 -26
186 -50 205 -55 33 -8 86 -22 450 -120 85 -23 156 -43 158 -44 1 -2 -11 -53
-27 -114 l-29 -112 41 -10 c23 -6 49 -13 58 -16 12 -3 18 4 23 28 18 93 49
188 61 188 7 0 166 -41 352 -91 186 -50 394 -105 463 -123 69 -19 179 -48 244
-65 65 -18 122 -29 126 -24 9 10 30 96 25 101 -2 3 -51 17 -107 32 -57 15
-319 85 -583 155 -264 70 -484 131 -489 136 -4 4 3 52 18 106 14 55 26 104 26
109 0 6 -23 16 -51 23 -62 16 -60 18 -89 -99 -12 -47 -24 -91 -28 -97 -5 -8
-55 2 -167 32 -88 23 -315 84 -505 135 -190 50 -353 94 -363 96 -9 3 -19 -1
-21 -8z"/>
<path d="M1755 2268 c-2 -7 -14 -49 -26 -93 -34 -126 -12 -119 -216 -64 -98
27 -181 49 -185 49 -9 0 -40 -101 -33 -108 4 -4 146 -45 195 -56 37 -9 108
-29 141 -39 l35 -12 -77 -289 c-70 -265 -85 -305 -114 -306 -20 0 -63 -50 -75
-85 -42 -127 103 -234 216 -160 58 38 76 138 33 197 -10 15 -19 33 -19 41 0
13 20 90 111 424 l42 151 46 -13 c57 -16 343 -93 690 -185 145 -38 266 -71
268 -74 2 -2 -1 -24 -7 -47 -7 -24 -14 -51 -16 -59 -9 -42 -63 -233 -66 -234
-87 -38 -112 -70 -112 -143 -2 -163 231 -194 273 -36 12 45 1 99 -27 128 -17
18 -17 22 4 100 12 44 31 116 43 160 12 44 23 85 25 91 3 7 73 -7 203 -42 109
-30 201 -54 205 -54 11 0 31 101 22 110 -5 4 -91 29 -191 55 -100 27 -187 51
-193 55 -11 7 5 79 46 221 3 13 -6 19 -40 28 -25 6 -51 11 -58 11 -9 0 -24
-39 -42 -107 -16 -60 -30 -111 -32 -115 -2 -3 -30 1 -62 9 -31 8 -66 17 -76
19 -10 2 -33 8 -50 13 -17 6 -202 56 -411 112 -209 56 -387 104 -397 106 -14
4 -13 15 13 111 16 59 29 110 29 113 0 6 -78 29 -100 29 -6 0 -13 -6 -15 -12z"/>
<path d="M2195 1668 c-4 -13 -193 -716 -224 -836 -14 -55 -21 -66 -47 -77 -34
-14 -84 -68 -85 -93 0 -9 -2 -28 -5 -40 -6 -35 24 -90 65 -118 42 -29 92 -31
140 -6 85 43 102 138 40 223 -10 13 4 75 66 305 43 159 97 362 121 452 24 89
44 166 44 171 0 8 -74 31 -100 31 -6 0 -13 -6 -15 -12z"/>
</g>
</svg>
