<svg xmlns="http://www.w3.org/2000/svg" viewBox="0 0 2500 2500">
  <g>
    <path d="M672.3,1121.3c1-79.4-11.9-62.8,66.3-64.7V990.4l150,1.1v8.9a16.4,16.4,0,0,1-16.4,16.5h-7.4v57.7a14.9,14.9,0,0,1-14.9,14.9H829.3c.4,4.9-1.4,9.4-6.8,9.6s-8.6-2.1-8.6-6.8v-2.8H707.3v31.8h21.3a10,10,0,0,1,10,10v20.3a10,10,0,0,1-10,10H633.1V1175a12.6,12.6,0,0,1-12.6,12.6H572.7v28.6H580a15,15,0,0,1,15,15v22.5a15,15,0,0,1-15,15H570v16.8a10.7,10.7,0,0,1-10.7,10.7h-3.6v6.9h44.8a10.5,10.5,0,0,1,10.4,10.4v13.2a10.5,10.5,0,0,1-10.4,10.4H579.1v19.4a12.5,12.5,0,0,1-12.4,12.4H527.8a12.5,12.5,0,0,1-12.4-12.4v-27.4H449.5a11.5,11.5,0,0,1-11.5-11.5v-21.4h-6.3v13.3c-.3,7.5-6.4,10.8-13.4,10.1,2.4,2.7.7,34.2,1.2,37.9a11.4,11.4,0,0,1-11.4,11.4h-8.8V1382a9,9,0,0,1-3.4,7.1,6.2,6.2,0,0,1-4.7,2H345.5c-4.8-.1-7.2-4.2-6.6-8.8a6.6,6.6,0,0,1,6.6-6.5h31.6v-6.9H335.5a8.3,8.3,0,0,1-8.2-8.3v-4.1a8.3,8.3,0,0,1,8.2-8.3h34.7v-23.6a5.7,5.7,0,0,1,.1-1.3H364a8.1,8.1,0,0,1-8.1-8.1v-4a8.1,8.1,0,0,1,8.1-8.1h27.9v-4.2H384c-9.2-.1-9.3-14.7,0-14.8h5.3V1149.4h-7.7a8.2,8.2,0,0,1-8.2-8.2V1138a8.2,8.2,0,0,1,8.2-8.2Z" fill="#6db7d2"/>
    <path d="M888.6,983v9a16.4,16.4,0,0,1-16.4,16.4h-7.4v57.8a14.9,14.9,0,0,1-14.9,14.8H829.3c.4,4.9-1.4,9.4-6.8,9.6s-8.6-2.1-8.6-6.8V1081H707.3v31.8h21.3a10,10,0,0,1,10,10v20.3a10,10,0,0,1-10,10H633.1v13.4a12.6,12.6,0,0,1-12.6,12.6H572.7v28.6H580a15,15,0,0,1,15,15v22.5a15,15,0,0,1-15,15H570V1277a10.7,10.7,0,0,1-10.7,10.8h-3.6v6.9h44.8a10.4,10.4,0,0,1,10.4,10.3v13.2a10.5,10.5,0,0,1-10.4,10.4H579.1V1348a12.4,12.4,0,0,1-12.4,12.4H527.8a12.4,12.4,0,0,1-12.4-12.4v-27.4H449.5a11.5,11.5,0,0,1-11.5-11.5v-21.3h-6.3V1301a10.1,10.1,0,0,1-10.1,10.1h-3.3a10.6,10.6,0,0,1,1.2,5V1349a11.4,11.4,0,0,1-11.4,11.4h-8.8v13.1a8.9,8.9,0,0,1-3.4,7.1,6.3,6.3,0,0,1-4.7,2.1H345.5c-4.8-.3-7.2-4.1-6.6-8.9a6.6,6.6,0,0,1,6.6-6.5h31.6v-6.9H335.5a8.3,8.3,0,0,1-8.2-8.3V1348a8.3,8.3,0,0,1,8.2-8.3h34.7v-23.6a5.7,5.7,0,0,1,.1-1.3H364a8.1,8.1,0,0,1-8.1-8.1v-3.9a8.1,8.1,0,0,1,8.1-8.1h27.9v-4.3H384a7.1,7.1,0,0,1-6.9-7.9c.6-7.4,6.4-7.1,12.2-6.9V1140.9h-7.7a8.2,8.2,0,0,1-8.2-8.2c-.6-5.8,1.7-11.1,8.2-11.4.1-.3,88.5.8,87.7-.4a7.5,7.5,0,0,1,7.6-7.5h5.6a7.5,7.5,0,0,1,7.5,7.5c-1,1,58.9.2,58.8.4v-4.5a10.4,10.4,0,0,1,10.4-10.3h13.5v-4.7a9.6,9.6,0,0,1,9.6-9.6h8.3a9.7,9.7,0,0,1,9.7,9.6v11h72v-51.9a12.7,12.7,0,0,1,12.8-12.7h53.5V981.9a14.9,14.9,0,0,1,14.9-14.8h14.8a9.5,9.5,0,0,1,9.5-10.1h6.4v-1.5a7.5,7.5,0,0,1,7.5-7.5h5.6a7.8,7.8,0,0,1,7.6,9h33.4a9.5,9.5,0,0,1,9.5,9.5h24.4A16.4,16.4,0,0,1,888.6,983Z" fill="#81c5dd"/>
  </g>
  <path d="M599.2,1596.9v11.4H619v-43.1H608.8v5.2a9.7,9.7,0,0,1-19.3,0v-5.2h-6.6a24.6,24.6,0,0,1-24.6-24.5v-16.1a24.6,24.6,0,0,1,24.6-24.6h13.4l37.5-64.1v-28c0-14.3,62.9-25.8,62.9-25.8v-11.4h-3.5a15.2,15.2,0,0,1-15.2-15.2v-33.7c0-8.4,209.9-51.9,209.9-51.9v153l15.8,14.9a6.5,6.5,0,0,1-6.6,6.6h-9.2v29.5l83.9,51.9v28.3c-.3,4.7-4,5.8-8.1,5.5a5.5,5.5,0,0,1-5.5-5.5v-7h-6.9a12.6,12.6,0,0,1-12.4,10.8H924.2V1574a17.3,17.3,0,0,1-17.4,17.3H875.9v138.1a14.4,14.4,0,0,1-14.4,14.5H807a14.5,14.5,0,0,1-14.4-14.5v-33.7H779.1a25.7,25.7,0,0,1-25.7-25.6v-23.2H646.8v29.9a13.9,13.9,0,0,1-15.3,13.8v23.9a18.1,18.1,0,0,1-18.1,18.1H586.1a18.1,18.1,0,0,1-18.1-18.1v-23.9H557.3a13.8,13.8,0,0,1-13.7-13.8v-36a13.7,13.7,0,0,1,13.7-13.7h6.1v-28.4H538a8,8,0,0,1-8-8v-7.2Z" fill="#7998b2"/>
  <rect x="739.3" y="1721.2" width="19.3" height="22.69" rx="7.7" fill="#7998b2"/>
  <path d="M971.8,1519v28.3a5.5,5.5,0,0,1-5.5,5.5h-2.6a5.5,5.5,0,0,1-5.5-5.5v-7h-6.9a12.6,12.6,0,0,1-12.4,10.8H924.2v16.1a17.3,17.3,0,0,1-17.4,17.3H875.9v138.1a14.4,14.4,0,0,1-14.4,14.5H807a14.5,14.5,0,0,1-14.4-14.5v-33.7H779.1a25.7,25.7,0,0,1-25.7-25.7v-23.1H646.8V1670a13.7,13.7,0,0,1-13.7,13.8h-1.6v23.9a18,18,0,0,1-18.1,18H586.1a18,18,0,0,1-18.1-18v-23.9H557.3a13.8,13.8,0,0,1-13.7-13.8v-36a13.7,13.7,0,0,1,13.7-13.7h6.1v-28.4H538a8,8,0,0,1-8-8v-7.2a8,8,0,0,1,8-8.1h35.6a8,8,0,0,1,8,8.1v1.6h5.8a11.8,11.8,0,0,1,11.8,11.8v11.4H619v-43.1H608.8v5.2a9.7,9.7,0,0,1-19.3,0v-5.2h-6.6a24.6,24.6,0,0,1-24.6-24.5v-16.1a24.6,24.6,0,0,1,24.6-24.6h13.4c.4-6.5-1.1-37.7,1.3-43.3a29.6,29.6,0,0,1,28.1-20.8h8.1v-28a25.8,25.8,0,0,1,25.8-25.9h37.1v-11.3h-3.5a15.3,15.3,0,0,1-15.2-15.2V1315a15.2,15.2,0,0,1,15.2-15.2h3.5c-2.1-19.2,11-36.8,31-36.8h44.5v-11.6a11.7,11.7,0,0,1,11.7-11.7h5.5a11.7,11.7,0,0,1,11.7,11.7V1263h10.8v-12.5a10.8,10.8,0,0,1,10.8-10.8h7.2a10.9,10.9,0,0,1,10.9,10.8V1263h24.9a8.2,8.2,0,0,1,8.1-8h6a8.1,8.1,0,0,1,8.1,8.1v153h9.2a6.6,6.6,0,0,1,6.6,6.7v8.2c-.6,8.8-9.9,6.3-15.8,6.6v29.5h18.9a17.4,17.4,0,0,1,17.4,17.3v9.4h14.7c8.7.1,13.4,7.6,12.5,15.9h11.1A9.3,9.3,0,0,1,971.8,1519Z" fill="#94b5dd"/>
  <rect x="739.3" y="1714.4" width="19.3" height="22.69" rx="7.7" fill="#94b5dd"/>
  <g>
    <path d="M1703.9,1204.8a13.3,13.3,0,0,0,13.3,13.2c4-.5,42.3,1.3,45.1-1.3a13.3,13.3,0,0,0,7.4-11.9v-20.6H1823a12.3,12.3,0,0,0,12.4-12.4v-42.7a12.4,12.4,0,0,0-4.1-9.3v-50.7h32.1a13,13,0,0,0,13-13v-13.8l-137.9-.9,37.7-253.9h7.1a15.2,15.2,0,0,0,15.2-15.2V744.4c0-5.5-150.8,18.5-150.8,18.5v9.4a15.2,15.2,0,0,0,15.1,15.2H1676v12.1h-88.3c-6.1.2-8.8,5.3-8.2,11a8.3,8.3,0,0,0,8.2,8.3h34.6v39.7a15.3,15.3,0,0,0,15.2,15.2h38.8a13.4,13.4,0,0,0,13.1,10.8h29.8a11.5,11.5,0,0,0-10.8,11.6v11.3c-11.8-1.1-22.4,7.7-22.3,19.7v62.5c-.1,12.6,11.3,21.2,23.4,19.7a10.9,10.9,0,0,0-.1,1.8v34.5c-.1,1.2-78.7,39.8-76.6,42.3v23a13.4,13.4,0,0,0,13.5,13.5h82.4v41.6Z" fill="#2b4e83"/>
    <path d="M1863.4,1017.9h-32.1v-53a14.7,14.7,0,0,0-16.3-14.5V921.2a19.6,19.6,0,0,0-5.2-13.3,20,20,0,0,0-9.3-5.7v-12a11.6,11.6,0,0,0-11.6-11.6h-25.1a13.6,13.6,0,0,0,12.4-13.4V781.5h7.1a15.2,15.2,0,0,0,15.2-15.2V738.4a10,10,0,0,0-10-10h-18.6c-7.6.3-10.7,6.3-10,13.3h-97.1a15.2,15.2,0,0,0-15.1,15.2v9.4a15.2,15.2,0,0,0,15.1,15.2H1676v12.1h-88.3c-6.1.2-8.9,5.3-8.2,11a8.3,8.3,0,0,0,8.2,8.3h34.6v39.7a15.3,15.3,0,0,0,8.5,13.6c3.2,2.9,40.9,1.1,45.5,1.6a13.4,13.4,0,0,0,13.1,10.8h29.8a11.5,11.5,0,0,0-10.8,11.6v11.3h-2.6a19.7,19.7,0,0,0-19.7,19.7v62.5c-.1,12.6,11.3,21.2,23.4,19.7a10.9,10.9,0,0,0-.1,1.8v26.5c-4.3.2-19.7-.7-23.6.9a19.3,19.3,0,0,0-13.2,18.3v11.5c-2.9.1-22.3-.4-24.8.5a19.7,19.7,0,0,0-15,17.8V1105a13.4,13.4,0,0,0,13.5,13.5h82.4v41.6c-8.9.2-19.6-2-23.8,8.2-2.1,4.7-.5,25.6-1,30.5a13.3,13.3,0,0,0,13.3,13.2h39.2a13.3,13.3,0,0,0,11.7-6.9c2.8-3.2,1.2-22.7,1.6-26.9H1823a12.3,12.3,0,0,0,12.2-9.9,19.5,19.5,0,0,0,.2-2.5v-42.7a12.3,12.3,0,0,0-4.2-9.3c.1.1,0-50.7.1-50.7h32.1a13,13,0,0,0,13-13c-.1-3.1,0-10.6,0-13.8v-5.4A13,13,0,0,0,1863.4,1017.9Z" fill="#3b66af"/>
  </g>
  <g>
    <path d="M1724,1535.9a10.4,10.4,0,0,1,10.3,10.8A10.3,10.3,0,0,1,1724,1557h-88.2c3.3,4.8,1.2,48.7,1.7,55a23.7,23.7,0,0,1-23.6,23.7h-32.7v45.7h32.9c20,.6,20.2,29.9,0,30.5h-33.2a25.6,25.6,0,0,1-26.7,21.2v1.1a18.2,18.2,0,0,1-18.3,18.2H1327.2A18.3,18.3,0,0,1,1309,1736c.1.2-17.5-.4-17.1.2a16.1,16.1,0,0,1-16.2,16.2h-93.1a16.2,16.2,0,0,1-16.3-16.2v-6.3a16.3,16.3,0,0,1,16.3-16.2h81.7v-56.9c0-11,326-111,336.8-111.9Z" fill="#4c998a"/>
    <path d="M1734.3,1535.7a10.4,10.4,0,0,1-10.3,10.8h-88.2c3.4,4.9,1.1,48.6,1.7,54.9a23.7,23.7,0,0,1-23.6,23.7h-32.7v45.8h32.9a15.3,15.3,0,0,1,0,30.5h-33.2a25.4,25.4,0,0,1-25,21.1h-1.7v1.1a18.3,18.3,0,0,1-18.3,18.3H1327.2a18.3,18.3,0,0,1-18.2-16.5h-17.1a16.3,16.3,0,0,1-16.2,16.5h-93.1a16.3,16.3,0,0,1-16.3-16.3v-6.2a16.3,16.3,0,0,1,16.3-16.3h81.7v-56.8a21.2,21.2,0,0,1,19.4-21.1v-8.1a11.4,11.4,0,0,1,11.3-11.4h69.7v-74.3a16.6,16.6,0,0,1,16.6-16.6h7.4v-19.7a24.9,24.9,0,0,1,24.9-24.9H1500a24.9,24.9,0,0,1,24.9,24.9v30.3H1724A10.3,10.3,0,0,1,1734.3,1535.7Z" fill="#5db7a8"/>
  </g>
  <g>
    <path d="M1337.9,892.4c.8,9.4-2.4,18.3-11.2,22.6-2.3,4.1-72.4,1.4-77.4,2.1v20.8a12.5,12.5,0,0,1-8.3,11.7c-2.2,1.1-10.8.5-13.4.7v42.2a10.2,10.2,0,0,1-8.2,10.1,7.5,7.5,0,0,1-2.1.2h-33.7v41.1a17.2,17.2,0,0,1-17.3,17.2H1018a17.3,17.3,0,0,1-17.3-17.2v-42.1a17.3,17.3,0,0,1,17.3-17.2h3.9V961.1H983.1a13.2,13.2,0,0,1-13.2-13.2V866.3H831v6.6a9.4,9.4,0,0,1-9.4,9.4H789.5a9.4,9.4,0,0,1-9.4-9.4V860.5H752.4A10.6,10.6,0,0,1,741.8,850v-9.2" fill="#5ea3d2"/>
    <path d="M1337.9,871v21.4c-1.2,5.2-3.7,10.2-8.2,13.4a20.3,20.3,0,0,1-12,3.9h-68.4v20.8a12.5,12.5,0,0,1-8.3,11.7c-2.2,1.1-10.8.5-13.4.6V985a10.3,10.3,0,0,1-10.1,10.4c-.1.2-33.7-.1-33.9,0-.4,3.6,1.1,44.7-1.1,47.2a17.3,17.3,0,0,1-16.2,11.1H1018a17.3,17.3,0,0,1-17.3-17.3v-42c.1-11.5,10.2-18.5,21.2-17.3V953.7c-3.5-.5-42.3,1.3-44.5-1.3a13.1,13.1,0,0,1-7.5-11.9V858.8H831v6.6a9.4,9.4,0,0,1-9.4,9.4H789.5a9.4,9.4,0,0,1-9.4-9.4V853.1H752.4a10.6,10.6,0,0,1-10.6-10.5v-9.3a10.6,10.6,0,0,1,10.6-10.5H779V811.2a18.1,18.1,0,0,1,18.1-18.1h222.5v-5.7a13.2,13.2,0,0,1,13.1-13.2h76a13.2,13.2,0,0,1,13.2,13.2v63.4H1318A20.3,20.3,0,0,1,1337.9,871Z" fill="#85c4ec"/>
  </g>
  <g>
    <path d="M2005.1,1330.1c5.7-1.6,5-7.4,4.9-12.2a6.7,6.7,0,0,0-6.7-6.7l-238-9.4-57.8-19.1v37.1a19.7,19.7,0,0,0,19.7,19.7h26.6a19.7,19.7,0,0,0,19.7-19.7v-7.1h12.4V1347a13.8,13.8,0,0,0,13.9,13.8c4.1.1,31-.3,35.8-.1v13.8a22.1,22.1,0,0,0,22.2,21.5h10.5v36.1a21.5,21.5,0,0,0,21.5,20.8h13.3v50.8a17.1,17.1,0,0,0-7.4,12.2c-6.3,2.4-10.1,9.2-9.5,16.2h-29.4a17.4,17.4,0,0,0-17.4,17.4c0,.3.1,5.3.1,5.5a17.3,17.3,0,0,0,17.3,16.8h43.3v28.3a23.6,23.6,0,0,0,23.1,23h35V1647c-4.4.9-57,23.5-57,24v6.8a16.8,16.8,0,0,0,16.7,16.2h34c5.3,4.7,16.9,2.8,23.3,3.1a20.4,20.4,0,0,0,16.8,10.4v19c-.5,6.9.9,14.1,6.5,18.5a17.8,17.8,0,0,0,11.6,4.2h86.5a18.1,18.1,0,0,0,18.2-18.1s-.1-49-.2-49.9-103.7,0-103.7-.1S2005.3,1331.2,2005.1,1330.1Z" fill="#65967d"/>
    <path d="M2114.8,1680.5c-.4-3.6-.1-40.8-.2-45.5a20.1,20.1,0,0,0-6.8-15.2v-14.6a17.4,17.4,0,0,0-17.5-17.4v-34.6a23.7,23.7,0,0,0-23.7-23.6h-9.9a4.6,4.6,0,0,0-.7-.7v-6.8a15.2,15.2,0,0,0-6.5-12.5,17.2,17.2,0,0,0-10.4-15.6v-40.4a20.5,20.5,0,0,0-11.9-17.4v-54.6a21.5,21.5,0,0,0-21.8-21.5c-.6-.8.6-37.2-.3-38,5.7-1.6,5-7.4,4.9-12.2a6.7,6.7,0,0,0-6.7-6.7h-16.1v-51.9a14.8,14.8,0,0,0-4.4-10.5c-5.6-6.2-17.1-5.6-22.1,1.1h-16.8a12.4,12.4,0,0,0-12.4,12.4v16.9h-44.8v-7.9a19.7,19.7,0,0,0-19.7-19.7h-20.7c-3.2-3.4-8.9-3.2-13.3-3.1a12.3,12.3,0,0,0-12.4,12.3v40.3h-1.9c1-8.6-5-16.8-13.9-16.7h-5a13.9,13.9,0,0,0-13.9,13.9v8.9h-12.4v-24.5a19.7,19.7,0,0,0-19.7-19.7h-26.6a19.7,19.7,0,0,0-19.7,19.7v37.1a19.7,19.7,0,0,0,19.7,19.7h26.6a19.7,19.7,0,0,0,19.7-19.7v-7.1h12.4V1339a13.8,13.8,0,0,0,13.9,13.8c3.9-.2,31.1-.1,35.8-.1v13.8a22.1,22.1,0,0,0,22.2,21.5h10.5v36.1a21.5,21.5,0,0,0,21.5,20.8h13.3v50.8a17.1,17.1,0,0,0-7.4,12.2c-6.3,2.4-10.1,9.2-9.5,16.2h-29.4a17.4,17.4,0,0,0-17.4,17.4v5a1.1,1.1,0,0,0,.1.5,17.3,17.3,0,0,0,17.3,16.8h43.3v28.3a23.6,23.6,0,0,0,23.1,23h35V1639a16,16,0,0,0-10.4,7.3h-29.9a16.7,16.7,0,0,0-16.7,16.7v6.8a16.8,16.8,0,0,0,16.7,16.2h34c5.2,4.8,16.9,2.7,23.3,3.1a20.4,20.4,0,0,0,16.8,10.4v23.6a18.1,18.1,0,0,0,18.1,18.1h86.5a18.1,18.1,0,0,0,18.2-18.1Z" fill="#79af95"/>
  </g>
  <g>
    <path d="M1038.8,1233.8v49.7a20,20,0,0,0,20,20h46.3v134.7a8.5,8.5,0,0,0,8.5,8.5h162.5v22.4a10.4,10.4,0,0,0,10.4,10.3h54.6c11-.1,10.8-11.5,10.3-19.6h44a9.2,9.2,0,0,0,9.2-9.3v-93.4" fill="#5c5a20"/>
    <path d="M1445.6,1222.8v49.7c0,.6-.1,1.2-.1,1.7a15.3,15.3,0,0,0-15.2-13.6h-87a15.3,15.3,0,0,0-13.3,7.7c-3.7,4.4-1.2,35.8-1.9,41.4h-8.5a17.6,17.6,0,0,0-17.7,17.6v86.3h-15.4a10.4,10.4,0,0,0-10.4,10.4v11.7H1113.6a8.5,8.5,0,0,1-8.5-8.5V1292.5h-46.3a20,20,0,0,1-20-20v-49.7a19.9,19.9,0,0,1,20-19.9h.9v10.9a19.2,19.2,0,0,0,19.3,19.3h123a19.3,19.3,0,0,0,19.3-19.3v-59.9a19.4,19.4,0,0,0-19.3-19.4h-16.3v-16.4a11,11,0,0,0-11-11h199a16.6,16.6,0,0,1,16.6,16.6v12H1406a23.2,23.2,0,0,1,23.2,23.2v44.3A20,20,0,0,1,1445.6,1222.8Z" fill="#adb65c"/>
    <path d="M1221.3,1153.9v59.9a19.3,19.3,0,0,1-19.3,19.3H1079a19.2,19.2,0,0,1-19.3-19.3v-59.9a19.3,19.3,0,0,1,19.3-19.4h26.9c.4-9.1-3.3-27.4,11-27.4h57.8c14.2-.1,10.6,18.3,11,27.4C1201.4,1133.9,1220.2,1133.1,1221.3,1153.9Z" fill="#828236"/>
    <path d="M1445.5,1274.2a15.3,15.3,0,0,0-15.2-13.6h-87c-22.8,0-13.4,35.5-15.2,49.1-12.7-1.4-25.9,2.8-26.2,17.6v86.3h-15.4a10.4,10.4,0,0,0-10.4,10.4v34.1a10.4,10.4,0,0,0,10.4,10.3h54.6c11-.1,10.8-11.5,10.3-19.6h44a9.2,9.2,0,0,0,9.2-9.3v-93.4c13.2-1,40.6,5.7,41-15.2C1445.5,1329.2,1445.7,1275.8,1445.5,1274.2Z" fill="#828236"/>
  </g>
  <g>
    <path d="M869.3,933.3H740.2a22.5,22.5,0,0,0-22.5,22.5v79.7H556a22.4,22.4,0,0,0-19.5,11.3H365.7a22.5,22.5,0,0,0-22.5,22.5v92.8a22.4,22.4,0,0,0,17.8,22v82.8H320.9a22.5,22.5,0,0,0-22.5,22.5v85.3a22.5,22.5,0,0,0,22.5,22.5h85.3a22.6,22.6,0,0,0,19.1-10.5H602.9a22.4,22.4,0,0,0,22.4-22.4h0V1192H727.5a22.5,22.5,0,0,0,22.5-22.5h0v-62.1H869.3a22.5,22.5,0,0,0,22.5-22.5h0V955.8A22.5,22.5,0,0,0,869.3,933.3Z" fill="none" stroke="#cfeaf5" stroke-miterlimit="10"/>
    <path d="M951.4,1417.8h-31c.1-1.1.2-2.2.2-3.3V1255.6a24.1,24.1,0,0,0-24.1-24.1H679.2a24.1,24.1,0,0,0-24.1,24.1v158.9c0,1.1.1,2.2.2,3.3H563.9a24.1,24.1,0,0,0-24.1,24.1v101.9h-3.1a24,24,0,0,0-24.1,23.9h0v153.5a23.9,23.9,0,0,0,24,24H645.7a24,24,0,0,0,24.1-23.9h0V1574.1h55v147.2a23.9,23.9,0,0,0,24,24H882.4a24,24,0,0,0,24.1-23.9h0V1614.9h3.6a24,24,0,0,0,24.1-24.1v-16.7h17.2a23.9,23.9,0,0,0,24-23.8V1441.9a24.1,24.1,0,0,0-23.9-24.1Z" fill="none" stroke="#cfeaf5" stroke-miterlimit="10"/>
    <path d="M1859.7,1006.4h-23.5V877.8a25.1,25.1,0,0,0-25.1-25.1h-8.9V808.5a23.2,23.2,0,0,0-.8-5.8V738.8a26,26,0,0,0-26-26H1655.8a26,26,0,0,0-26.1,25.9h0v41.7h-47.5a18.7,18.7,0,0,0-18.7,18.7v16.4a18.7,18.7,0,0,0,18.7,18.8h19.4v31.8a20.5,20.5,0,0,0,20.5,20.5h20.3v139.5a24.9,24.9,0,0,0-22.4,24.7v64a24.8,24.8,0,0,0,24.8,24.8h46.9v67.7a22.6,22.6,0,0,0,22.6,22.6h32.9l2.9-.2h75a25.4,25.4,0,0,0,25.4-25.4h0V1075.7h9.2a21.1,21.1,0,0,0,21.2-21.2v-26.8a21.3,21.3,0,0,0-21.1-21.3Z" fill="none" stroke="#cfeaf5" stroke-miterlimit="10"/>
    <path d="M1726.1,1495.6H1551.5v-27.8a19.7,19.7,0,0,0-19.7-19.7H1368.3a19.7,19.7,0,0,0-19.7,19.7v84.9h.5v38.8H1163.3a19.7,19.7,0,0,0-19.7,19.7v133.1a19.7,19.7,0,0,0,19.7,19.7h470.3a19.7,19.7,0,0,0,19.7-19.7V1576h72.8a19.7,19.7,0,0,0,19.7-19.7v-41A19.7,19.7,0,0,0,1726.1,1495.6Z" fill="none" stroke="#cfeaf5" stroke-miterlimit="10"/>
    <path d="M1329.2,826.3H1215.4v.5h-74.3V772.2a17.8,17.8,0,0,0-17.8-17.8H747A17.7,17.7,0,0,0,729.2,772v96.7A17.8,17.8,0,0,0,747,886.5H930.7v115.2a17.8,17.8,0,0,0,17.8,17.8h31.9v43.2a17.8,17.8,0,0,0,17.8,17.8h183.2a17.8,17.8,0,0,0,17.8-17.8h0v-43.2h19.2a17.8,17.8,0,0,0,17.8-17.8h0V980.6h17.3a17.8,17.8,0,0,0,17.8-17.8h0V922.3h57.9a17.8,17.8,0,0,0,17.8-17.8h0V844.1a17.8,17.8,0,0,0-17.8-17.8Z" fill="none" stroke="#cfeaf5" stroke-miterlimit="10"/>
    <path d="M2111.8,1493.3h-56.6V1348.2a12,12,0,0,0-12-12h-9.7v-97.8a12,12,0,0,0-12-12H1794a12,12,0,0,0-12,12v6.4h-72.1a12,12,0,0,0-12,12v103.5a12,12,0,0,0,12,12H1782v17.1a12,12,0,0,0,12,12h27.4v180.3a12,12,0,0,0,12,12h58v99.7a12,12,0,0,0,12,12h67.7v31.5a12,12,0,0,0,12,12h128.7a12,12,0,0,0,12-12V1505.3A12,12,0,0,0,2111.8,1493.3Z" fill="none" stroke="#cfeaf5" stroke-miterlimit="10"/>
  </g>
  <path d="M1465.6,1088.7h-414a33.5,33.5,0,0,0-33.4,33.4v69.6h-3.5a33.3,33.3,0,0,0-33.3,33.3v71.1a33.3,33.3,0,0,0,33.3,33.3h57.8v139.1a33.3,33.3,0,0,0,33.3,33.3H1339a33.3,33.3,0,0,0,33.3-33.3v-4.6h56.4a33.4,33.4,0,0,0,33.4-33.3V1226.4h3.5a33.3,33.3,0,0,0,33.3-33.3v-71A33.4,33.4,0,0,0,1465.6,1088.7Z" fill="none" stroke="#e52421" stroke-miterlimit="10"/>
</svg>
