<svg xmlns="http://www.w3.org/2000/svg" viewBox="0 0 441.8 504.2">
  <g>
    <g>
      <path d="M69.2,357.2v11.5H89V325.6H78.8v5.1a9.6,9.6,0,1,1-19.2,0v-5.1H52.9A24.6,24.6,0,0,1,28.4,301V284.9a24.6,24.6,0,0,1,24.5-24.6H66.4l37.4-64.1v-28c0-14.3,62.9-25.8,62.9-25.8V131h-3.5A15.2,15.2,0,0,1,148,115.8V82.1c0-8.4,209.9-51.9,209.9-51.9v153l15.9,3.1v11.8a6.7,6.7,0,0,1-6.7,6.7h-9.2v29.4l83.9,51.9v28.3c-.2,4.7-4,5.9-8.1,5.5a5.5,5.5,0,0,1-5.5-5.5v-7h-6.9a12.5,12.5,0,0,1-12.4,10.8H394.2v16.1a17.3,17.3,0,0,1-17.3,17.3H346V489.7a14.5,14.5,0,0,1-14.5,14.5H277.1a14.5,14.5,0,0,1-14.5-14.5V456H249.1a25.6,25.6,0,0,1-25.6-25.6V407.2H116.8v30c.1,8.2-7.2,14.4-15.3,13.7v23.9a18.1,18.1,0,0,1-18,18.1H56.1A18.1,18.1,0,0,1,38,474.8V450.9H27.4a13.8,13.8,0,0,1-13.8-13.7V401.1a13.7,13.7,0,0,1,13.8-13.7h6.1V359H8a8,8,0,0,1-8-8v-7.2Z" fill="#7998b2"/>
      <path d="M441.8,279.3v28.3a5.5,5.5,0,0,1-5.5,5.5h-2.6a5.5,5.5,0,0,1-5.5-5.5v-7h-6.9a12.5,12.5,0,0,1-12.4,10.8H394.2v16.1a17.3,17.3,0,0,1-17.3,17.3H346V482.9a14.5,14.5,0,0,1-14.5,14.5H277.1a14.5,14.5,0,0,1-14.5-14.5V449.2H249.1a25.6,25.6,0,0,1-25.6-25.6V400.4H116.8v29.9a13.7,13.7,0,0,1-13.7,13.8h-1.6V468a18.1,18.1,0,0,1-18,18.1H56.1A18.1,18.1,0,0,1,38,468V444.1H27.4a13.8,13.8,0,0,1-13.8-13.8v-36a13.7,13.7,0,0,1,13.8-13.7h6.1V352.2H8a8,8,0,0,1-8-8V337a8,8,0,0,1,8-8H43.6a8,8,0,0,1,8,8v1.6h5.8a11.8,11.8,0,0,1,11.8,11.8v11.5H89V318.7H78.8v5.2a9.6,9.6,0,1,1-19.2,0v-5.2H52.9a24.5,24.5,0,0,1-24.5-24.5V278.1a24.6,24.6,0,0,1,24.5-24.6H66.4c.3-6.4-1.2-37.6,1.2-43.3a29.6,29.6,0,0,1,28.1-20.8h8.1v-28a25.8,25.8,0,0,1,25.8-25.8h37.1V124.2h-3.5A15.3,15.3,0,0,1,148,109V75.3a15.2,15.2,0,0,1,15.2-15.2h3.5c-2.1-19.2,11-36.8,31-36.8h44.5V11.7A11.7,11.7,0,0,1,253.9,0h5.5a11.7,11.7,0,0,1,11.7,11.7V23.3h10.8V10.9A10.8,10.8,0,0,1,292.7,0H300a10.9,10.9,0,0,1,10.8,10.9V23.3h25a8,8,0,0,1,8-8h6a8.1,8.1,0,0,1,8.1,8.1v153h9.2a6.7,6.7,0,0,1,6.7,6.7v8.2c-.6,8.8-9.9,6.3-15.9,6.6v29.5h19a17.4,17.4,0,0,1,17.3,17.4v9.3h14.7c8.7.1,13.5,7.6,12.5,15.9h11.1A9.3,9.3,0,0,1,441.8,279.3Z" fill="#94b5dd"/>
    </g>
    <g>
      <g>
        <g>
          <path d="M373,329.1a1.8,1.8,0,0,1-1.7-1.8V242a1.7,1.7,0,0,1,1.7-1.6h20.5a14.2,14.2,0,0,0-1.4-3.6H373c-2.2,0-1.7-6.7-1.7-9.3h-3.6c0,2.9.5,9.5-1.8,9.4L289,235a1.3,1.3,0,0,1-1.3-1.3c-.2-8.8-1.2-59.7.7-61l69.5-55.3v-4l-17,13.5a1.8,1.8,0,0,1-2.9-1.4V81.4a5.9,5.9,0,0,1,2.1-4.5c6.7-5.5,11.7-9.8,17.8-15.3V57.1c-5,4.8-20.1,18.7-19.9,12.5l-.2-51.5a9.1,9.1,0,0,0-2,5.2h-1.4V72.2a6.5,6.5,0,0,1-2.4,5l-22.9,19a1.8,1.8,0,0,1-2.9-1.4V1.7A10.9,10.9,0,0,0,302.5.5V101.9a1.8,1.8,0,0,0,2.9,1.4l27.5-22a1.1,1.1,0,0,1,1.7.9l-.3,45.8a6.9,6.9,0,0,1-2.4,5.2c-8.8,7-37.7,30.6-41.4,33.5a1.8,1.8,0,0,1-2.9-1.4c-.7-.5,1.9-33.6-1.8-31.6a1.8,1.8,0,0,0-1.7,1.8V238.1a2.3,2.3,0,0,0,2.3,2.3h8a1.2,1.2,0,0,1,1.2,1.5l-17.6,85.2c0,1-.7,2.1-1.8,2h-8.7a2.7,2.7,0,0,0-2.7,2.7c.2,21.1,1.5,157.6,0,159.2a15.5,15.5,0,0,0,3.6,4.5V334.5a1.8,1.8,0,0,1,1.7-1.8h95.6c2.6.1,2,12.1,2,12.1h3.5s-.4-12.1,1.6-12.1h20.4a22.9,22.9,0,0,0,.7-3.6Zm-5.3-1.8a1.8,1.8,0,0,1-1,1.6c-.8.7-82.1-.1-83,.2-2.9-.1-1.3-3.8-1.1-5.4s15.4-75.9,15.9-78.5.3-5,2.5-4.8c0,0,65.8.1,66.1.4h0C368.8,241.7,367.1,326,367.7,327.3Z" fill="#6e493b"/>
          <path d="M250,116.9c-.1,0-69.9-88.2-69.9-88.2l-2.8,2.2L246,117.7l.6,196.8h3.9Z" fill="#6e493b"/>
          <path d="M111.9,276.4V440.9a12.9,12.9,0,0,0,3.2-4c.1-12.5-.3-38.3.4-40.8a1.8,1.8,0,0,1,1.8-1.8h98a2.8,2.8,0,0,0,2.8-2.4c3.7-23.5,13.3-64.7,15.4-73.9a2,2,0,0,0-1.3-2.4L115.5,275.2S112,274.4,111.9,276.4Zm6,3.4c8.8,3.2,111.4,38.6,111.4,38.6l-14.2,70.9a1.7,1.7,0,0,1-1.7,1.5H117.3a1.8,1.8,0,0,1-1.8-1.8V281.4A1.8,1.8,0,0,1,117.9,279.8Z" fill="#6e493b"/>
        </g>
        <path d="M369.6,248.5h24.5s0-5.3-.1-6.3H369.6a3.6,3.6,0,0,1-3.2-3.2V227.4h-6.3l-.2,11.4c0,1.6-2,3.2-3.2,3.2H285.5a3.2,3.2,0,0,1-3.2-3.2V188.5a1.1,1.1,0,0,1,.3-.7l75.1-60.4v-8.3l-23.3,19.2a.9.9,0,0,1-1.4-.7h0v-45a.9.9,0,0,1,.3-.7l24.6-20V63.6L333.9,83a.9.9,0,0,1-.8-.5c-.1-.1-.1-59.3-.1-59.3h-6.5V88.6a.9.9,0,0,1-.3.7l-23.3,18.6a.9.9,0,0,1-1.4-.7V0H295s-.1,114.2-.3,114.4l-18.4,14.5a1.6,1.6,0,0,0-.5,1.1v58.1a3.2,3.2,0,0,1-3.2,3.2s-25.8,0-26.2-.2a3.2,3.2,0,0,1-2-3V119.9a.9.9,0,0,0-.3-.6L176.3,31.9a33.9,33.9,0,0,0-4.1,5.1L207,81.9l30.8,114.7c.1.3.1,33,.1,33a3.2,3.2,0,0,1-3.2,3.3s-88.3-.1-88.5-.3S110,198.5,110,198.3V144.5a25.6,25.6,0,0,0-6.2,16.8v28.2s-1.2,2.3-1.7,1.8l-1.9-1.8a46.7,46.7,0,0,0-9.1.4l12.2,11.4c.2.1.3,58.1.3,58.1a3.3,3.3,0,0,1-3.3,3.3H33.8a25.8,25.8,0,0,0-3.6,6c.5.2,70.1.5,70.1.5a3.3,3.3,0,0,1,3.3,3.3V392.8a3.3,3.3,0,0,1-3.3,3.3H91.8c-1.8,0-2.4,6.7,0,6.5h8.5a3.3,3.3,0,0,1,3.3,3.3v38.3a14,14,0,0,0,6.4-1.8V405.9a3.2,3.2,0,0,1,1.9-3,47.5,47.5,0,0,1,5-.3v-1.1H223.5v1.2h29.8a3.3,3.3,0,0,1,3.2,3.3l-.2,43.3h6.4l.2-118.8a3.3,3.3,0,0,1,3.2-3.3h90.7a3.3,3.3,0,0,1,3.2,3.3v14.4h6.5V330.4a3.2,3.2,0,0,1,3.2-3.3h24.6v-6.5H369.6c-1.7.3-3.2-.8-3.2-3.3V251.8A3.2,3.2,0,0,1,369.6,248.5Zm-91.5,71,14.2-70.3a.8.8,0,0,1,.8-.7h63.6a3.2,3.2,0,0,1,3.2,3.3v65.5a3.2,3.2,0,0,1-3.2,3.3H278.9A.9.9,0,0,1,278.1,319.5Zm5.6-140.8a.9.9,0,0,1-1.4-.7V133a1.1,1.1,0,0,1,.3-.7l42.5-33.9a.9.9,0,0,1,1.4.7v45a.9.9,0,0,1-.3.7ZM111.9,395.8a3.2,3.2,0,0,1-1.9-3V272.3a.8.8,0,0,1,1.1-.8l124.8,43.4a1,1,0,0,1,.6,1l-16.1,79.5C220.3,395.8,112.3,396,111.9,395.8ZM110,209.6a.8.8,0,0,1,1.4-.7L144,239.4h90.7a3.2,3.2,0,0,1,3.2,3.3v66h0L110,263.6Zm126.2-43.8L218.4,99.4a.9.9,0,0,1,1.5-.8s18,23.3,18,23.5v43.5A.9.9,0,0,1,236.2,165.8Zm20.2,227a3.3,3.3,0,0,1-3.2,3.3H227.9a.9.9,0,0,1-.9-1.1l13.6-67.2a.9.9,0,0,1,.9-.7h11.7a3.3,3.3,0,0,1,3.2,3.3Zm14.2-72.2h-23a3.2,3.2,0,0,1-3.2-3.3V201.1a3.3,3.3,0,0,1,2-3l26.2-.2a3.2,3.2,0,0,1,3.2,3.2v44.2a3.2,3.2,0,0,0,3.2,3.2h5.8a.9.9,0,0,1,.8,1.1l-14.2,70.3A.8.8,0,0,1,270.6,320.6Z" fill="#999186"/>
        <g>
          <line x1="330" y1="27.3" x2="330" y2="146.1" fill="none" stroke="#fff" stroke-linecap="round" stroke-miterlimit="10"/>
          <line x1="279.6" y1="131" x2="279.6" y2="244.9" fill="none" stroke="#fff" stroke-linecap="round" stroke-miterlimit="10"/>
          <line x1="394.6" y1="244.9" x2="279.6" y2="244.9" fill="none" stroke="#fff" stroke-linecap="round" stroke-miterlimit="10"/>
          <line x1="279.6" y1="185.9" x2="356.8" y2="124.7" fill="none" stroke="#fff" stroke-linecap="round" stroke-miterlimit="10"/>
          <line x1="279.6" y1="194.6" x2="241.4" y2="194.6" fill="none" stroke="#fff" stroke-linecap="round" stroke-miterlimit="10"/>
          <line x1="241.4" y1="120.6" x2="241.4" y2="313.8" fill="none" stroke="#fff" stroke-linecap="round" stroke-miterlimit="10"/>
          <line x1="393.2" y1="323.3" x2="242.2" y2="323.3" fill="none" stroke="#fff" stroke-linecap="round" stroke-miterlimit="10"/>
          <line x1="290.4" y1="244.9" x2="274.5" y2="323.3" fill="none" stroke="#fff" stroke-linecap="round" stroke-miterlimit="10"/>
          <line x1="363.4" y1="229.9" x2="363.4" y2="342.7" fill="none" stroke="#fff" stroke-linecap="round" stroke-miterlimit="10"/>
          <line x1="241.4" y1="236.2" x2="146.5" y2="236.2" fill="none" stroke="#fff" stroke-linecap="round" stroke-miterlimit="10"/>
          <line x1="239.4" y1="185.6" x2="211.4" y2="84" fill="none" stroke="#fff" stroke-linecap="round" stroke-miterlimit="10"/>
          <line x1="259.7" y1="325.6" x2="259.7" y2="447" fill="none" stroke="#fff" stroke-linecap="round" stroke-miterlimit="10"/>
          <line x1="222.8" y1="399" x2="241.4" y2="313.8" fill="none" stroke="#fff" stroke-linecap="round" stroke-miterlimit="10"/>
          <line x1="107.4" y1="265.5" x2="241.4" y2="312.6" fill="none" stroke="#fff" stroke-linecap="round" stroke-miterlimit="10"/>
        </g>
      </g>
      <g>
        <g>
          <rect x="340.7" y="172.2" width="2.3" height="2.27" rx="0.7" fill="#23515c"/>
          <rect x="343.9" y="172.2" width="2.3" height="2.27" rx="0.7" fill="#23515c"/>
          <path d="M346.3,154.4v18.3c0,.3-.1.6-.4.6H344c-.2,0-.4-.3-.4-.6V160c0-.2-.1-.3-.2-.3s-.2.1-.2.3v12.7c0,.3-.2.6-.4.6h-2c-.2,0-.4-.3-.4-.6V154.4c0-.4.2-.6.4-.6h5.1C346.2,153.8,346.3,154,346.3,154.4Z" fill="#327584"/>
          <path d="M347,158.3h0a.1.1,0,0,0,.1-.1h0v.4a.4.4,0,0,0,.4.4h.1a.4.4,0,0,0,.4-.4v-1a.4.4,0,0,0-.4-.4h-.5l-.2.8A.1.1,0,0,0,347,158.3Z" fill="#63472c"/>
          <path d="M339.8,158.3h0a.1.1,0,0,1-.1-.1h0v.4a.4.4,0,0,1-.4.4h-.1a.4.4,0,0,1-.4-.4v-1a.4.4,0,0,1,.4-.4h.5l.2.8A.1.1,0,0,1,339.8,158.3Z" fill="#63472c"/>
          <path d="M348.1,145.5v.2h0v11.5c0,.3-.2.5-.3.5h-.6c-.2,0-.3-.2-.3-.5V147.1a.2.2,0,0,0-.2-.2l-.2.2v10.2c0,.3-.2.5-.3.5h-5.6c-.2,0-.3-.2-.3-.5V147.1l-.2-.2-.2.2v10.3a.4.4,0,0,1-.3.4H339c-.2,0-.3-.2-.3-.4V145.8h0v-.4c0-.9.5-1.6,1.2-1.6h7a1.5,1.5,0,0,1,1.2,1.6Z" fill="#2f6171"/>
          <circle cx="343.4" cy="138" r="4.5" fill="#aeadad"/>
          <path d="M346.7,141.2c0,.2,0,.4-.2.5s-.3.2-.5.2h0a2,2,0,0,1-1.9,1.3h-.2v.6c0,.2-.2.3-.4.3h-.3a.3.3,0,0,1-.3-.3v-.6h-.3a1.9,1.9,0,0,1-1.8-1.3h0a.8.8,0,0,1-.8-.7.8.8,0,0,1,.2-.5l.5-.2v-1.9h.7l2-.2,2,.2h.7v1.9C346.5,140.5,346.7,140.8,346.7,141.2Z" fill="#63472c"/>
          <circle cx="345.3" cy="142.2" r="0.1" fill="#52361e"/>
          <circle cx="342.1" cy="141.1" r="0.3" fill="#1a1a1a"/>
          <circle cx="344.6" cy="141.1" r="0.3" fill="#1a1a1a"/>
        </g>
        <g>
          <path d="M359.5,181.5V184a.9.9,0,0,1-.8.9h-8.8v8h-2.2V182.3a.9.9,0,0,1,.8-.8Z" fill="#327584"/>
          <rect x="347.2" y="192.5" width="2.4" height="1.35" rx="0.5" fill="#23515c"/>
          <path d="M355,170.2h2.8a2,2,0,0,1,2,2v9.2a.9.9,0,0,1-.9.9h-5a.9.9,0,0,1-.9-.9v-9.2A2,2,0,0,1,355,170.2Z" fill="#2f6171"/>
          <path d="M351.1,178.1h-.2a.5.5,0,0,0-.5.5h0c.1.3.3.5.5.5H352a.5.5,0,0,0,.4-.5h0a.4.4,0,0,0-.1-.3h0c0-.1,0-.2-.1-.2h-1.1Z" fill="#63472c"/>
          <rect x="355.7" y="171.6" width="1.3" height="7.75" rx="0.7" fill="#23515c"/>
          <rect x="353.6" y="176.1" width="1.3" height="5.15" rx="0.6" transform="translate(532.9 -175.7) rotate(90)" fill="#23515c"/>
          <rect x="350.2" y="188" width="0.7" height="6" fill="#bcbcbb"/>
          <rect x="349.2" y="184.9" width="12.6" height="5.01" rx="1.8" fill="#858585"/>
          <rect x="347" y="193.3" width="3.7" height="0.99" rx="0.4" fill="#919191"/>
          <path d="M353.9,179.6v.2h-.4v1.6a.6.6,0,0,1-.5.6h-.3a.6.6,0,0,1-.5-.6v-1.6h-.3c-.1,0-.2-.2-.2-.3v-.2h2A.3.3,0,0,1,353.9,179.6Z" fill="#919191"/>
          <rect x="352.3" y="179.3" width="7.9" height="1.92" fill="#919191"/>
          <rect x="360.2" y="173.6" width="1.3" height="15.37" rx="0.7" fill="#bcbcbb"/>
          <path d="M354.1,195.5a6.6,6.6,0,1,1,6.6-6.6A6.6,6.6,0,0,1,354.1,195.5Zm0-12.1a5.5,5.5,0,0,0,0,11,5.5,5.5,0,0,0,0-11Z" fill="#4e4d4d"/>
          <circle cx="354.1" cy="188.9" r="2.6" fill="#434342"/>
          <rect x="360.7" y="174.4" width="4.6" height="0.86" rx="0.4" fill="#a9a9aa"/>
          <path d="M358.9,164.7v3a2,2,0,0,1-2,2h-.4v.5a.4.4,0,0,1-.4.4h-.2a.4.4,0,0,1-.4-.4v-.5h-.3a2,2,0,0,1-1.9-2v-3a1.9,1.9,0,0,1,1.9-1.9h1.7A1.9,1.9,0,0,1,358.9,164.7Z" fill="#63472c"/>
          <path d="M355.3,167.3a.4.4,0,0,1-.7,0,.4.4,0,0,1,.4-.4A.4.4,0,0,1,355.3,167.3Z" fill="#1a1a1a"/>
          <path d="M357.6,167.2v.2a.5.5,0,0,1-.5.5h-.2a.2.2,0,0,1-.2-.2v-.9h.3A.6.6,0,0,1,357.6,167.2Z" fill="#523722"/>
          <path d="M356.7,164.8v1.4l-.2.3c-.8,1.5-1,.1-1,.1a2.2,2.2,0,0,1-1-1.9v-.2C354.9,163.8,356.7,164.2,356.7,164.8Z" fill="#d1b197"/>
          <path d="M358.1,163.7a1.8,1.8,0,0,0-2.3,0c-1.4,1-.3,1-.3,1l1,1.4a.6.6,0,0,0,.2.4c.2.2,1-.1,1.2-.1a2.3,2.3,0,0,0,.6-1.8A1.3,1.3,0,0,0,358.1,163.7Z" fill="#d1b197"/>
          <path d="M355.4,169.4c0-.1-.1-.2,0-.2s.2.1.2.1Z" fill="#d1b197"/>
          <path d="M354.3,165.5s-.2,0-.1.2,0,.1.1.1l.2-.2Z" fill="#d1b197"/>
          <path d="M358.8,169.4h0c-.1-.1-.2-.2-.1-.2a3.3,3.3,0,0,0-.1-2.4,2.2,2.2,0,0,0-1.2-1.1,3.2,3.2,0,0,0-1.7,0h-.2c-.1-.1,0-.2.1-.2a3.9,3.9,0,0,1,1.9,0,2.5,2.5,0,0,1,1.4,1.3,3.3,3.3,0,0,1,.1,2.6Z" fill="#141414"/>
          <path d="M358.8,168.6h0c-.1,0-.2-.1-.1-.2a2.9,2.9,0,0,0-1.2-3.2,3.1,3.1,0,0,0-2.1-.1l-.2-.2c-.1-.1,0-.2.1-.2a3.2,3.2,0,0,1,2.3.2,3,3,0,0,1,1.4,3.6Z" fill="#141414"/>
          <path d="M359.2,168.9h-.1c-.1,0-.2-.1-.1-.2a3.5,3.5,0,0,0-1.5-4,3.8,3.8,0,0,0-2.5-.2c-.1.1-.2,0-.3-.1s.1-.2.2-.3a4,4,0,0,1,2.8.2,3.9,3.9,0,0,1,1.7,4.5A.2.2,0,0,1,359.2,168.9Z" fill="#141414"/>
          <path d="M358.9,168.1h0c-.2,0-.2-.1-.2-.3a3.2,3.2,0,0,0-1.4-3.9,3.8,3.8,0,0,0-2.5-.2c-.2.1-.3,0-.3-.1s0-.3.1-.3a4.3,4.3,0,0,1,2.9.2,3.7,3.7,0,0,1,1.6,4.5Z" fill="#141414"/>
          <path d="M359.1,167.4H359c-.1-.1-.2-.2-.1-.3a3.2,3.2,0,0,0-1.6-3.9,3.6,3.6,0,0,0-2.7-.1c-.2,0-.3-.1-.3-.2a.4.4,0,0,1,.1-.3,4.9,4.9,0,0,1,3.1.2,3.6,3.6,0,0,1,1.8,4.4A.2.2,0,0,1,359.1,167.4Z" fill="#141414"/>
          <path d="M357.8,170.2h-.1c-.1-.1-.2-.2-.1-.3l1.3-2.8a.2.2,0,0,1,.3-.1c.1,0,.1.2.1.3l-1.3,2.8Z" fill="#141414"/>
          <path d="M358.4,170.4h-.1c-.1-.1-.2-.2-.1-.3l.8-2.8c0-.2.1-.2.2-.2s.2.2.2.3l-.8,2.8A.2.2,0,0,1,358.4,170.4Z" fill="#141414"/>
          <path d="M359,170.6h0c-.2,0-.3-.1-.2-.3v-2.8l.3-.2c.1,0,.2.1.2.3l-.2,2.8A.2.2,0,0,1,359,170.6Z" fill="#141414"/>
          <path d="M359.6,170.5l-.2-.2-.4-4a.3.3,0,0,1,.3-.3l.2.2.4,4.1c0,.1-.1.2-.3.2Z" fill="#141414"/>
          <path d="M360.1,169.7l-.2-.2-.9-3.1c-.1-.1,0-.2.1-.3s.3.1.3.2l1,3.1c0,.1-.1.3-.2.3Z" fill="#141414"/>
          <path d="M360.2,168.4H360l-1-1.7a.2.2,0,0,1,.1-.3c.1-.1.2-.1.3.1l1,1.7c.1.1.1.2-.1.3Z" fill="#141414"/>
        </g>
        <g>
          <rect x="327.9" y="179.8" width="2.4" height="2.5" rx="0.7" fill="#2f6171"/>
          <rect x="331.3" y="179.8" width="2.4" height="2.5" rx="0.7" fill="#2f6171"/>
          <path d="M333.9,165v15.4a.5.5,0,0,1-.4.5h-2.1a.5.5,0,0,1-.4-.5V169.7c0-.1-.1-.3-.2-.3s-.2.2-.2.3v10.7a.5.5,0,0,1-.4.5h-2.1a.5.5,0,0,1-.4-.5V165a.5.5,0,0,1,.4-.5h5.4A.5.5,0,0,1,333.9,165Z" fill="#327584"/>
          <path d="M334.6,168.6h.2v.5a.4.4,0,0,0,.4.4h.1a.4.4,0,0,0,.4-.4v-1.1a.4.4,0,0,0-.4-.4h-.6l-.2.8C334.5,168.5,334.5,168.6,334.6,168.6Z" fill="#b59679"/>
          <path d="M327.1,168.6h-.2v.5a.4.4,0,0,1-.4.4h-.1a.4.4,0,0,1-.4-.4v-1.1a.4.4,0,0,1,.4-.4h.4c.1-.1.2,0,.2.1l.2.8Z" fill="#b59679"/>
          <path d="M335.8,157.5v.2h0v9.8c0,.2-.2.3-.4.3h-.5c-.2,0-.4-.1-.4-.3v-8.6l-.2-.2a.2.2,0,0,0-.2.2v8.6c0,.2-.2.3-.4.3h-5.8c-.2,0-.4-.1-.4-.3v-8.6c0-.1,0-.2-.2-.2a.2.2,0,0,0-.2.2v8.6a.3.3,0,0,1-.3.3h-.6a.3.3,0,0,1-.3-.3v-9.8h0v-.4a1.3,1.3,0,0,1,1.3-1.3h7.3a1.3,1.3,0,0,1,1.3,1.3Z" fill="#23515c"/>
          <path d="M334.4,153.6c0,.2-.1.3-.3.5l-.5.2h0a2.1,2.1,0,0,1-1.9,1.3h-.3v.7l-.3.3h-.4l-.3-.3v-.7h-.3a1.9,1.9,0,0,1-1.8-1.3h-.1a.7.7,0,0,1-.7-.7.7.7,0,0,1,.2-.6.5.5,0,0,1,.4-.2v-1.9l.7-.2h2.1a7,7,0,0,1,2.1.1l.7.2v1.9A.8.8,0,0,1,334.4,153.6Z" fill="#b59679"/>
          <circle cx="328" cy="154.1" r="0.1" fill="#e7e6e6"/>
          <circle cx="329.7" cy="153.4" r="0.3" fill="#1a1a1a"/>
          <circle cx="332.2" cy="153.4" r="0.3" fill="#1a1a1a"/>
          <path d="M333.7,150.8h0l-.7-.2a7,7,0,0,0-2.1-.1h-2.1l-.7.2h0a2,2,0,0,1,.3-1.1,2.1,2.1,0,0,1,1.7-1h1.6A2,2,0,0,1,333.7,150.8Z"/>
          <path d="M328.8,150.7l-.7,1.5v-1.3Z" fill="#4e4d4d"/>
          <path d="M333.7,150.9v1.3l-.7-1.5Z" fill="#4e4d4d"/>
          <rect x="329" y="146.7" width="0.9" height="2.83" rx="0.4" transform="translate(-28.7 195.2) rotate(-31.7)"/>
          <rect x="329.7" y="146.4" width="0.9" height="2.83" rx="0.4" transform="translate(-23.9 73.6) rotate(-12.3)"/>
          <rect x="330.5" y="146.3" width="0.9" height="2.83" rx="0.4"/>
          <rect x="331.9" y="146.7" width="0.9" height="2.83" rx="0.4" transform="translate(537.4 448.7) rotate(-148.3)"/>
          <rect x="331.3" y="146.4" width="0.9" height="2.83" rx="0.4" transform="translate(624.3 362.7) rotate(-167.7)"/>
        </g>
        <g>
          <rect x="324.2" y="311.2" width="1" height="8.27" rx="0.5" transform="translate(649.3 630.7) rotate(180)" fill="#8b6f54"/>
          <rect x="325.4" y="311.3" width="1" height="8.17" rx="0.5" transform="translate(651.8 630.9) rotate(180)" fill="#8b6f54"/>
          <rect x="325.2" y="318.7" width="1.7" height="1.44" rx="0.5" transform="translate(652.1 638.8) rotate(-180)" fill="#23515c"/>
          <rect x="323.7" y="318.7" width="1.8" height="1.43" rx="0.5" transform="translate(649.1 638.8) rotate(-180)" fill="#23515c"/>
          <rect x="323.4" y="308.6" width="4.3" height="3.32" rx="0.9" transform="translate(651.1 620.5) rotate(-180)" fill="#2f6171"/>
          <path d="M324,299.2h3.1a.7.7,0,0,1,.7.7v7.6a1.5,1.5,0,0,1-1.5,1.5h-1.6a1.5,1.5,0,0,1-1.5-1.5v-7.6a.7.7,0,0,1,.7-.7Z" transform="translate(651.1 608.2) rotate(-180)" fill="#327584"/>
          <path d="M326,309.6h-.1v.4c0,.2-.2.3-.4.3h-.1c-.2,0-.4-.1-.4-.3V309a.4.4,0,0,1,.4-.4h.4a.1.1,0,0,1,.1.1l.2.7A.1.1,0,0,1,326,309.6Z" fill="#b59679"/>
          <rect x="324.9" y="300.1" width="1.1" height="8.97" rx="0.5" transform="translate(651 609.3) rotate(180)" fill="#23515c"/>
          <path d="M323.3,294.8v2.4a1.6,1.6,0,0,0,1.6,1.6h.3v.4a.3.3,0,0,0,.3.3h.2a.3.3,0,0,0,.3-.3v-.4h.3a1.6,1.6,0,0,0,1.5-1.6v-2.4a1.5,1.5,0,0,0-1.5-1.5h-1.4a1.4,1.4,0,0,0-1.5,1.3C323.3,294.7,323.3,294.7,323.3,294.8Z" fill="#8b6f54"/>
          <path d="M326.2,296.9c0,.1.1.2.3.2a.2.2,0,0,0,.2-.2c0-.2-.1-.3-.2-.3A.3.3,0,0,0,326.2,296.9Z" fill="#1a1a1a"/>
          <path d="M325,296.4l.8-1.6h2a1.5,1.5,0,0,0-1.5-1.5h-1.4a1.4,1.4,0,0,0-1.5,1.3l-1,4.7H325Z" fill="#715137"/>
          <path d="M324.5,296.9h0a.4.4,0,0,0,.4.4h.3v-.8a.1.1,0,0,0-.1-.1H325A.5.5,0,0,0,324.5,296.9Z" fill="#523722"/>
        </g>
        <g>
          <path d="M389.4,272.7h0a4.3,4.3,0,0,1,4.3,4.3v4.7a0,0,0,0,1,0,0H385a0,0,0,0,1,0,0V277A4.3,4.3,0,0,1,389.4,272.7Z" fill="#6e493b"/>
          <rect x="389.3" y="291.6" width="2.3" height="1.94" rx="1" fill="#2f6171"/>
          <rect x="391.9" y="291.6" width="2.3" height="1.94" rx="1" fill="#2f6171"/>
          <path d="M396.6,280.6c-1.3,2.7-2.7,5.4-4.1,8.1v2.8c0,.4-.2.7-.6.7h-2.7a.7.7,0,0,1-.6-.7v-3.2c-.9-2.5-1.9-5.1-2.9-7.7Z" fill="#23515c"/>
          <path d="M398.8,280.6c-1.3,2.7-2.7,5.5-4,8.3v2.9a.7.7,0,0,1-.7.6h-2.6a.7.7,0,0,1-.7-.6v-3.3l-2.8-7.9Z" fill="#327584"/>
          <path d="M399.2,281.3h0a.4.4,0,0,1-.4.4H385.1a.4.4,0,0,1-.4-.4h0c0-.1.1-.3.2-.3-2.4-4.5,1.6-10.5,1.6-10.5l1.3-2,.5-.7h0l.3-.4h0c.1-.3.2-.5.3-.5a1.1,1.1,0,0,1,.7-.3h4.9a1.3,1.3,0,0,1,.8.3c.1.1.1.3.2.5h0l3.3,13h0l.2.5h0C399.1,281.1,399.2,281.2,399.2,281.3Z" fill="#2f6171"/>
          <path d="M391.7,283.3h0c.1,0,.1-.1.1-.2h0v.5a.6.6,0,0,0,.6.5h.1a.5.5,0,0,0,.5-.5v-1.3a.5.5,0,0,0-.5-.5h-.1l-.4.2h-.2l-.2,1.1Z" fill="#b59679"/>
          <rect x="391.2" y="269.4" width="2.3" height="13.06" rx="1.1" fill="#327584"/>
          <path d="M391.2,263.5H391a.1.1,0,1,1,.2,0Z" fill="#9a9999"/>
          <path d="M390.8,263.3h0C390.9,263.2,390.9,263.3,390.8,263.3Z" fill="#9a9999"/>
          <path d="M394.4,261.4v3a2.2,2.2,0,0,1-.5,1.4,2.5,2.5,0,0,1-1.4.6h-.4v.5a.4.4,0,0,1-.4.4h-.2a.4.4,0,0,1-.4-.4v-.5h-.3a1.9,1.9,0,0,1-1.9-2v-3.3a1.9,1.9,0,0,1,1.9-1.6h1.7a2.3,2.3,0,0,1,1.1.3,2,2,0,0,1,.8,1.2Z" fill="#b59679"/>
          <path d="M390.8,263.9c0,.2-.1.4-.3.4a.4.4,0,0,1,0-.7A.3.3,0,0,1,390.8,263.9Z" fill="#1a1a1a"/>
          <path d="M394.4,261.4v3a2.2,2.2,0,0,1-.5,1.4l-1-1.3-.6-.8-1.3-1.8-.7-.9,3.3-1.2a2,2,0,0,1,.8,1.2Z" fill="#715137"/>
          <path d="M393.1,263.9v.2a.5.5,0,0,1-.5.5h-.2a.3.3,0,0,1-.1-.2v-.9h.3A.5.5,0,0,1,393.1,263.9Z" fill="#8f715b"/>
          <path d="M394.4,261a4.2,4.2,0,0,1-2.8.9H391a4,4,0,0,1-2.1-.8,1.9,1.9,0,0,1,1.9-1.6h1.7a2.3,2.3,0,0,1,1.1.3A2,2,0,0,1,394.4,261Z" fill="#816142"/>
          <ellipse cx="389.4" cy="285" rx="0.9" ry="2.1" transform="translate(-93.1 280.1) rotate(-35.6)" fill="#2f6171"/>
          <circle cx="390.9" cy="285.3" r="0.9" fill="#23515c"/>
          <ellipse cx="392.8" cy="285.5" rx="1.1" ry="1.1" fill="#23515c"/>
          <ellipse cx="393.9" cy="285.1" rx="0.3" ry="0.5" fill="#5b8571"/>
          <polygon points="395.3 286.5 394.4 285.8 393.3 286.1 393.7 285 393.1 284.1 394.3 284.2 395 283.3 395.2 284.4 396.3 284.8 395.3 285.4 395.3 286.5" fill="#2f6171"/>
          <path d="M388.3,285.7h7.3a0,0,0,0,1,0,0v2.2a1.5,1.5,0,0,1-1.5,1.5h-4.4a1.5,1.5,0,0,1-1.5-1.5v-2.2A0,0,0,0,1,388.3,285.7Z" fill="#2f6171"/>
          <rect x="387.5" y="285.2" width="9" height="0.99" rx="0.5" fill="#23515c"/>
          <path d="M395.5,285.9h-6.9v-1.6a1.6,1.6,0,0,1,1.6-1.6h3.6a1.7,1.7,0,0,1,1.7,1.6Zm-6.5-.4h6.1v-1.2a1.2,1.2,0,0,0-1.3-1.2h-3.6a1.2,1.2,0,0,0-1.2,1.2Z" fill="#264653"/>
        </g>
        <g>
          <rect x="212.9" y="148.6" width="1.8" height="1.82" rx="0.6" fill="#327584"/>
          <rect x="214.5" y="149.1" width="1.8" height="1.82" rx="0.6" fill="#327584"/>
          <path d="M214.3,140.1v9.6h-1.2a.4.4,0,0,1-.4-.3v-9.3Z" fill="#264653"/>
          <path d="M217.2,138.6V140h0l-.7,3.2v6.4a.4.4,0,0,1-.4.4h-1.5c-.2,0-.3-.2-.3-.4v-9.6h-1.6v-1.5Z" fill="#2f6171"/>
          <path d="M214.4,141.2h.2v.3a.3.3,0,0,0,.3.3h.1a.3.3,0,0,0,.3-.3v-.7c0-.2-.1-.4-.3-.4h-.5v.6Z" fill="#b59679"/>
          <path d="M209.8,147.9h-.1a3,3,0,0,1-2,1.3h-.3a3,3,0,0,1-1.8-.4h0l-.2-.2a2.4,2.4,0,0,1-1-1.4c-.1,0-.1-.1-.1-.2a3.2,3.2,0,0,1,.3-2.3h.1a3.1,3.1,0,0,1,1.8-1.2h.2a3.2,3.2,0,0,1,1.9.3h.2a2.6,2.6,0,0,1,1.2,1.5v.2a3.2,3.2,0,0,1-.3,2.3Z" fill="#2f6171"/>
          <path d="M208.8,143.8l-3.2,5.1h0l-.2-.2,3.2-5.1h.2Z" fill="#23515c"/>
          <path d="M209.8,147.9h-.1l-5.1-3.2h.1l5.1,3.2Z" fill="#23515c"/>
          <path d="M210.1,145.5a3.7,3.7,0,0,1-2.1-.5h-.2a4.2,4.2,0,0,1-1.3-1.5h.2a3.1,3.1,0,0,0,1.2,1.4h.2a3.8,3.8,0,0,0,1.9.5Z" fill="#23515c"/>
          <path d="M207.7,149.3h-.3a3,3,0,0,0-1.2-1.4H206a2.9,2.9,0,0,0-1.6-.5c-.1,0-.1-.1-.1-.2a3.5,3.5,0,0,1,1.8.5h.2A5,5,0,0,1,207.7,149.3Z" fill="#23515c"/>
        </g>
      </g>
    </g>
  </g>
</svg>
