<svg xmlns="http://www.w3.org/2000/svg" viewBox="0 0 444.4 506">
  <path d="M337.4,23.9H310.9C310.2,7.6,314.9.3,295.5.5,281,.6,283.2,14.2,283.3,23H272.5C272,7.3,272,1.3,254.4,1.3c-12.2,0-12,13.8-11.7,23.3H198.2c-20,0-31.8,17-31,36.9-14.3-.1-18.5,6.7-18.2,20.6v22.8c-.2,15.1-2.3,26.7,18.8,26.2v4.6c-24.3,1.2-63.2-5.4-63.2,25.9,0,5.9-.3,18.3-.3,29.2h0C58.9,190.2,67,224.2,67.1,254c-23-2-40.1,5.2-38.1,31.5-1.7,23.7,2.6,42.5,31.2,40.8-.9,6.8,1.7,15.1,9.8,14.8s10.5-8.1,9.6-14.8H89.8v36.4H69.9c.7-15.7-.2-24.6-17.6-23.3.6-5-2.9-9.7-8-9.7H8.5a8,8,0,0,0-8,8.1v14.1a8,8,0,0,0,8,8H34.1v21.6c-14.7-1.4-21.4,5.6-19.9,20.6v29.3c-1.6,19.1,8.1,21.7,24.4,20.7.9,13.4-5.8,41.1,18.2,42.1,15.5-.9,45.1,5.8,45.6-18.2-.1-5.2,0-18.4,0-23.9,12.3.7,16.6-10,15.3-20.7V408.2h107c.1-.1-.1,19.5,0,23.3.9,22.6,20.1,27.4,39.3,25.7v27c-1.3,10.2,2.6,21.2,14.5,21.3h54.6A14.5,14.5,0,0,0,347.6,491V352.5c15.3-1.4,47.9,7,48.4-17.4V318.9c9.4-.1,25.7,2.5,27.2-10.8h6.9v7c-.1,7.5,13.7,7.7,13.7,0,0-4.5-.1-23.5,0-28.4.5-8.4-.4-15.6-9.4-16.2H423.3c1.4-18.2-14.6-16.1-27.3-15.9,2.2-29-13.8-27.2-36.5-26.7V205.1c5.4-.1,16.1,1.6,16-6.7l-2.1-1.9c3-1.9,1.9-10,2.1-13.1.1-8.3-10.6-6.7-16-6.7,0-12.5-1.2-152.6-1.2-152.6" fill="none" stroke="#e52421" stroke-miterlimit="10"/>
</svg>
