<svg xmlns="http://www.w3.org/2000/svg" viewBox="0 0 2500 2500">
  <rect x="1.7" y="3.2" width="2500" height="2500" fill="#2b4e83"/>
  <g>
    <rect x="1247.4" y="-2.7" width="1250" height="1250" fill="none" stroke="#000" stroke-miterlimit="10" stroke-dasharray="12"/>
    <rect x="-2.6" y="1247.3" width="1250" height="1250" fill="none" stroke="#000" stroke-miterlimit="10" stroke-dasharray="12"/>
    <rect x="-2.6" y="-2.7" width="1250" height="1250" fill="none" stroke="#000" stroke-miterlimit="10" stroke-dasharray="12"/>
  </g>
  <g>
    <ellipse cx="1790.9" cy="374.3" rx="9.2" ry="5.6" transform="translate(571.3 1738.1) rotate(-60)" fill="#e5f4fb"/>
    <ellipse cx="1784.2" cy="374.3" rx="5.6" ry="9.2" transform="translate(-25.8 156.7) rotate(-5)" fill="#d1e8f1"/>
    <path d="M1798.3,381.8c0,3.2-2.6,5.9-6.4,7.4a17.7,17.7,0,0,1-6.3,1.1,19.1,19.1,0,0,1-5.4-.8c-4.3-1.4-7.2-4.3-7.2-7.7s2.9-6.4,7.2-7.8a19.1,19.1,0,0,1,5.4-.8,17.7,17.7,0,0,1,6.3,1.1C1795.7,375.8,1798.3,378.6,1798.3,381.8Z" fill="#fdd961"/>
    <path d="M1791.9,374.3v14.9a17.7,17.7,0,0,1-6.3,1.1,19.1,19.1,0,0,1-5.4-.8V374a19.1,19.1,0,0,1,5.4-.8A17.7,17.7,0,0,1,1791.9,374.3Z" fill="#00494a"/>
    <circle cx="1776.4" cy="379.4" r="0.9" fill="#1a1a1a"/>
  </g>
  <g>
    <ellipse cx="1843.3" cy="374.3" rx="5.6" ry="9.2" transform="matrix(0.87, -0.5, 0.5, 0.87, 59.81, 971.79)" fill="#e5f4fb"/>
    <ellipse cx="1850" cy="374.3" rx="9.2" ry="5.6" transform="translate(1316 2184.6) rotate(-85)" fill="#d1e8f1"/>
    <path d="M1835.9,381.8c0,3.2,2.5,5.9,6.4,7.4a17.1,17.1,0,0,0,6.2,1.1,19.2,19.2,0,0,0,5.5-.8c4.2-1.4,7.2-4.3,7.2-7.7s-3-6.4-7.2-7.8a19.2,19.2,0,0,0-5.5-.8,17.1,17.1,0,0,0-6.2,1.1C1838.4,375.8,1835.9,378.6,1835.9,381.8Z" fill="#fdd961"/>
    <path d="M1842.3,374.3v14.9a17.1,17.1,0,0,0,6.2,1.1,19.2,19.2,0,0,0,5.5-.8V374a19.2,19.2,0,0,0-5.5-.8A17.1,17.1,0,0,0,1842.3,374.3Z" fill="#00494a"/>
    <circle cx="1857.8" cy="379.4" r="0.9" fill="#1a1a1a"/>
  </g>
  <path d="M1457.1,1172.5c-6.2-195.3-171-55.3-217.1-55.3-43.1,0-73.4-55-127.1-54.3-163.6,2.2-138.8,178.7-59.3,208,51.5,18.9,85.9,2.5,142.1,7.3,53.2,4.5,115.3,53.5,165.1,45.5C1403.4,1316.8,1459.6,1250.8,1457.1,1172.5Z" fill="none" stroke="#e52421" stroke-miterlimit="10" stroke-width="3"/>
  <path d="M984,1336.9c26.4,193.7,176.3,139.9,222.2,135.1,42.8-4.4,166.7-50.7,216.6-70.7,51.7-20.9,91.1-45.4,63.9-87-56.4-86.4-378.3-101.7-427-88.5C1018.1,1237,973.5,1259.3,984,1336.9Z" fill="none" stroke="#e52421" stroke-miterlimit="10" stroke-width="3"/>
</svg>
