<svg xmlns="http://www.w3.org/2000/svg" viewBox="0 0 8.03 8.22">
    <circle cx="1.4" cy="7.18" r="0.29" fill="#1a1a1a"/>
    <path d="M3.25,6.66h.19a.5.5,0,0,1,.5.5v.16a.46.46,0,0,1-.46.46H3.25a.12.12,0,0,1-.12-.12V6.78A.12.12,0,0,1,3.25,6.66Z" fill="#523722"/>
    <path d="M8,4A4,4,0,0,1,5,7.91L5,8a.14.14,0,0,1-.12.07h0L4.79,8a.13.13,0,0,1,0-.18S5,7.48,5,7.44a.76.76,0,0,0,0-.15A1.09,1.09,0,0,0,3.88,6.2,1.11,1.11,0,0,0,3,6.63v.48a.14.14,0,0,1-.13.13.13.13,0,0,1-.14-.13V6.46C2.63,5.87,1.85,4.54.8,4.54a2,2,0,0,0-.74.15h0A3.71,3.71,0,0,1,0,4,4,4,0,1,1,8,4Z" fill="#aeadad"/>
    <circle cx="2" cy="8.16" r="0.06" fill="#52361e"/>
</svg>
