<svg xmlns="http://www.w3.org/2000/svg" viewBox="0 0 740.9 265.3">
    <path d="M46.9,43.5H9.4A3.4,3.4,0,0,0,6,47H6v.4H6v57.5a3.4,3.4,0,0,0,3.4,3.4h.2a3.4,3.4,0,0,0,3.4-3.4V50.5H44.7Z" fill="#af4141"/>
    <rect y="67.5" width="20" height="56" rx="7.8" transform="translate(20 191) rotate(-180)" fill="#e55555"/>
    <rect x="40.8" y="168.3" width="687.4" height="53.55" rx="9.6" fill="#af4141"/>
    <path d="M28.5,90.6c.5-6.5,4.7-53.9,42.6-77.2A82.1,82.1,0,0,1,104.3,2.1L679.9,0c26.6,0,48.3,21.9,48.3,48.9C728.2,48.9,28.4,98.6,28.5,90.6Z" fill="#e86767"/>
    <path d="M86.3,31.5H727a13.9,13.9,0,0,1,13.9,13.9V190.2A13.9,13.9,0,0,1,727,204H42a13.9,13.9,0,0,1-13.9-13.9V89.7A58.2,58.2,0,0,1,86.3,31.5Z" fill="#e55555"/>
    <rect x="624.3" y="46.6" width="84.7" height="90.11" rx="10.5" fill="#e86767"/>
    <path d="M709,57.1V89.9H624.3V57.1a10.5,10.5,0,0,1,10.5-10.5h63.7A10.5,10.5,0,0,1,709,57.1Z" fill="#af4141"/>
    <rect x="531.8" y="46.6" width="84.7" height="90.11" rx="10.5" fill="#e86767"/>
    <path d="M616.5,57.1V89.9H531.8V57.1a10.5,10.5,0,0,1,10.5-10.5H606A10.5,10.5,0,0,1,616.5,57.1Z" fill="#af4141"/>
    <rect x="437.9" y="46.6" width="84.7" height="90.11" rx="10.5" fill="#e86767"/>
    <path d="M522.6,57.1V89.9H437.9V57.1a10.5,10.5,0,0,1,10.5-10.5h63.7A10.5,10.5,0,0,1,522.6,57.1Z" fill="#af4141"/>
    <rect x="345.2" y="46.6" width="84.7" height="90.11" rx="10.5" fill="#e86767"/>
    <path d="M429.9,57.1V89.9H345.2V57.1a10.5,10.5,0,0,1,10.5-10.5h63.7A10.5,10.5,0,0,1,429.9,57.1Z" fill="#af4141"/>
    <path d="M323.4,55.3v69.1c0,5.8-8.5,10.5-19,10.5h-115c-10.5,0-19-4.7-19-10.5V55.3c0-5.8,8.5-10.5,19-10.5h115C314.9,44.8,323.4,49.5,323.4,55.3Z" fill="#af4141"/>
    <path d="M147.3,56.9v67.7c0,5.7-5.3,10.3-11.8,10.3H63.9l-27.8.6V85.1c.8-4.3,4.9-26.8,19.5-35.5a21.8,21.8,0,0,1,8.3-3h71.6C142,46.6,147.3,51.2,147.3,56.9Z" fill="#e86767"/>
    <rect x="13.2" y="147.5" width="43.3" height="53.55" rx="16" fill="#af4141"/>
    <circle cx="190.7" cy="221.9" r="43.4" fill="#e86767"/>
    <circle cx="190.7" cy="222" r="30.8" fill="#af4141"/>
    <circle cx="587.3" cy="221.9" r="43.4" fill="#e86767"/>
    <circle cx="587.3" cy="222" r="30.8" fill="#af4141"/>
</svg>
