<svg xmlns="http://www.w3.org/2000/svg" viewBox="0 0 90.6 83.9">
    <rect x="3.8" width="16.4" height="5.36" rx="1.9" fill="#855747"/>
    <polygon points="85.3 4 71.6 4 71.6 17.6 18.8 17.6 18.8 4 5.1 4 4.8 83.7 85.8 83.7 85.3 4" fill="#8e6558"/>
    <rect x="70.3" width="16.4" height="5.36" rx="1.9" fill="#855747"/>
    <path d="M8.5,24.4H22.9a1.8,1.8,0,0,1,1.8,1.8v7.7a0,0,0,0,1,0,0H6.7a0,0,0,0,1,0,0V26.2A1.8,1.8,0,0,1,8.5,24.4Z" fill="#6e493b"/>
    <path d="M38.8,24.5H53.2A1.8,1.8,0,0,1,55,26.3V34a0,0,0,0,1,0,0H37a0,0,0,0,1,0,0V26.3A1.8,1.8,0,0,1,38.8,24.5Z" fill="#6e493b"/>
    <path d="M86.8,17.7H4.9a2.5,2.5,0,0,0-2.5,2.5V51.5A2.5,2.5,0,0,0,4.9,54H86.8a2.5,2.5,0,0,0,2.5-2.5V20.2A2.5,2.5,0,0,0,86.8,17.7ZM24.7,43.6a2,2,0,0,1-2,2H8.7a2,2,0,0,1-2-2V26.4a2,2,0,0,1,2-2h14a2,2,0,0,1,2,2Zm30.3.1a2,2,0,0,1-2,2H39a2,2,0,0,1-2-2V26.5a2,2,0,0,1,2-2H53a2,2,0,0,1,2,2Zm28.7,0a2,2,0,0,1-2,2h-14a2,2,0,0,1-2-2V26.5a2,2,0,0,1,2-2h14a2,2,0,0,1,2,2Z" fill="#855747"/>
    <path d="M67.5,24.5H81.9a1.8,1.8,0,0,1,1.8,1.8V34a0,0,0,0,1,0,0h-18a0,0,0,0,1,0,0V26.3A1.8,1.8,0,0,1,67.5,24.5Z" fill="#6e493b"/>
    <path d="M11.6,53.9H34.9A2.1,2.1,0,0,1,37,56v6.2a0,0,0,0,1,0,0H9.5a0,0,0,0,1,0,0V56A2.1,2.1,0,0,1,11.6,53.9Z" fill="#855747"/>
    <path d="M87.3,49.3H4.4a2,2,0,0,0-2,2.1V81.9a2,2,0,0,0,2,2H87.3a2,2,0,0,0,2-2V51.4A2,2,0,0,0,87.3,49.3ZM37,83.8H9.5v-27a2.9,2.9,0,0,1,2.9-2.9H34.1A2.9,2.9,0,0,1,37,56.8Zm44.9.1H54.4v-27A2.9,2.9,0,0,1,57.3,54H79a2.9,2.9,0,0,1,2.9,2.9Z" fill="#6e493b"/>
    <path d="M56.5,54H79.8a2.1,2.1,0,0,1,2.1,2.1v6.2a0,0,0,0,1,0,0H54.4a0,0,0,0,1,0,0V56.1A2.1,2.1,0,0,1,56.5,54Z" fill="#855747"/>
    <path d="M56.5,54H79.8a2.1,2.1,0,0,1,2.1,2.1v6.2a0,0,0,0,1,0,0H54.4a0,0,0,0,1,0,0V56.1A2.1,2.1,0,0,1,56.5,54Z" fill="#855747"/>
    <path d="M11.6,53.9H34.9A2.1,2.1,0,0,1,37,56v6.2a0,0,0,0,1,0,0H9.5a0,0,0,0,1,0,0V56A2.1,2.1,0,0,1,11.6,53.9Z" fill="#855747"/>
    <path d="M5.3,15h80a5.3,5.3,0,0,1,5.3,5.3v.3a0,0,0,0,1,0,0H0a0,0,0,0,1,0,0v-.3A5.3,5.3,0,0,1,5.3,15Z" fill="#6e493b"/>
</svg>
