<svg xmlns="http://www.w3.org/2000/svg" viewBox="0 0 60.4 70.5">
    <path d="M28.4.6,1,23.6a2.7,2.7,0,0,0,1.7,4.8H57.6a2.7,2.7,0,0,0,1.8-4.8L31.9.6A2.9,2.9,0,0,0,28.4.6Z" fill="#855747"/>
    <path d="M47.9,23.9V6.5a2.1,2.1,0,0,0-2.1-2.1H44a2.2,2.2,0,0,0-2.1,2.1V23.9S5.4,26.1,5.4,28.7v37a4.9,4.9,0,0,0,4.9,4.8H49.1a4.9,4.9,0,0,0,4.8-4.8v-37C53.9,26.1,47.9,23.9,47.9,23.9Z" fill="#8e6558"/>
    <path d="M53,68.3H39.9V55.7a5.6,5.6,0,0,0-5.6-5.6H26a5.6,5.6,0,0,0-5.6,5.6V68.3H6.3a.7.7,0,0,0-.8.8v.5a.8.8,0,0,0,.8.9H53a.9.9,0,0,0,.8-.9v-.5A.8.8,0,0,0,53,68.3Z" fill="#6e493b"/>
    <path d="M46.2,35.7A.7.7,0,0,0,47,35V33.8a.7.7,0,0,0-.8-.7H13.1a.8.8,0,0,0-.8.7V35a.8.8,0,0,0,.8.7H14v7.2h-.9a.8.8,0,0,0-.8.7v1.2c0,.3.4.6.8.6H46.2c.5,0,.8-.3.8-.6V43.6a.7.7,0,0,0-.8-.7h-.8V35.7ZM17,35.7h2.6v7.2H17Zm5.7,0h2.6v7.2H22.7Zm5.6,0H31v7.2H28.3Zm5.7,0h2.7v7.2H34Zm8.4,7.2H39.7V35.7h2.7Z" fill="#fff"/>
    <path d="M28.4.6,1,23.6a2.7,2.7,0,0,0,1.7,4.8H57.6a2.7,2.7,0,0,0,1.8-4.8L31.9.6A2.9,2.9,0,0,0,28.4.6Z" fill="#855747"/>
</svg>
