<svg xmlns="http://www.w3.org/2000/svg" viewBox="0 0 86.2 69.2">
  <g>
    <rect x="17.7" y="14.9" width="53.6" height="52.65" fill="#8e6558"/>
    <path d="M84.5,23.4,45.7.5a3,3,0,0,0-3.4,0L19.6,13.9V8.1a2.2,2.2,0,0,0-2.2-2.2h-2a2.2,2.2,0,0,0-2.3,2.2v9.6L3.5,23.4a3.3,3.3,0,0,0,1.7,6.2H82.8A3.3,3.3,0,0,0,84.5,23.4Z" fill="#6e493b"/>
    <path d="M43.5,8.2,6.7,29.6H80.3Zm8.7,18.2H36a1.3,1.3,0,0,1-1.3-1.3v-9A1.2,1.2,0,0,1,36,14.9H52.2a1.2,1.2,0,0,1,1.2,1.2v9A1.2,1.2,0,0,1,52.2,26.4Z" fill="#855747"/>
    <path d="M41,36H52.5a1.4,1.4,0,0,1,1.4,1.4v6.2a0,0,0,0,1,0,0H39.6a0,0,0,0,1,0,0V37.5A1.4,1.4,0,0,1,41,36Z" fill="#6e493b"/>
    <path d="M6.8,29.2V67.5H21.3V42a3.2,3.2,0,0,1,3.1-3.2h7.2A3.2,3.2,0,0,1,34.7,42V67.5H80.3V29.2C68.6,29,18.5,29.6,6.8,29.2ZM53.9,51.4a1.5,1.5,0,0,1-1.5,1.5H41.2a1.6,1.6,0,0,1-1.6-1.5V37.6A1.6,1.6,0,0,1,41.2,36H52.4a1.6,1.6,0,0,1,1.5,1.6Zm17.6,0a1.6,1.6,0,0,1-1.6,1.5H58.7a1.6,1.6,0,0,1-1.6-1.5V37.6A1.6,1.6,0,0,1,58.7,36H69.9a1.6,1.6,0,0,1,1.6,1.6Z" fill="#855747"/>
    <path d="M58.6,36H70a1.4,1.4,0,0,1,1.4,1.4v6.2a0,0,0,0,1,0,0H57.1a0,0,0,0,1,0,0V37.5A1.4,1.4,0,0,1,58.6,36Z" fill="#6e493b"/>
    <g>
      <path d="M84.3,55.4c.7,0,1.2-.4,1.2-1V52.9c0-.6-.5-1-1.2-1H38.9c-.7,0-1.2.4-1.2,1v1.5c0,.6.5,1,1.2,1H40v9.9H38.9a1.1,1.1,0,0,0-1.2,1v1.6c0,.5.5.9,1.2.9H84.3c.7,0,1.2-.4,1.2-.9V66.3a1.1,1.1,0,0,0-1.2-1H83.2V55.4Zm-40.1,0h3.6v9.9H44.2Zm7.8,0h3.6v9.9H52Zm7.8,0h3.6v9.9H59.8Zm7.8,0h3.6v9.9H67.6ZM79,65.3H75.4V55.4H79Z" fill="#fff"/>
      <path d="M79.5,29.6H7.3a1.2,1.2,0,0,0-1.2,1.3v.7a1.2,1.2,0,0,0,1.2,1.2h.3V52.3H1.2c-.6,0-1.2.4-1.2.9v1.6a1.2,1.2,0,0,0,1.2,1H2.5v9.9H1.2a1.2,1.2,0,0,0-1.2,1v1.6c0,.5.6.9,1.2.9H15.9c.7,0,1.2-.4,1.2-.9V66.7a1.1,1.1,0,0,0-1.2-1H14.6V55.8h1.3a1.1,1.1,0,0,0,1.2-1V53.2c0-.5-.5-.9-1.2-.9H14V32.8H79.5a1.2,1.2,0,0,0,1.3-1.2v-.7A1.3,1.3,0,0,0,79.5,29.6ZM10,65.7H7.1V55.8H10Z" fill="#fff"/>
    </g>
    <path d="M33.3,36.5H22.9a3.8,3.8,0,0,0-3.8,3.8V67.4h2.2V42a3.2,3.2,0,0,1,3.1-3.2h7.2A3.2,3.2,0,0,1,34.7,42V67.4h2.4V40.3A3.8,3.8,0,0,0,33.3,36.5Z" fill="#6e493b"/>
  </g>
</svg>
