<svg xmlns="http://www.w3.org/2000/svg" viewBox="0 0 110.4 136.1">
    <rect x="42.5" width="7.7" height="20.14" rx="2.2" fill="#e55555"/>
    <rect x="47.5" y="46.3" width="59" height="80.02" fill="#ca5050"/>
    <path d="M68.2,10.8,33.3,44.5a2.3,2.3,0,0,0,1.6,3.9h69.7a2.3,2.3,0,0,0,1.6-3.9L71.4,10.8A2.2,2.2,0,0,0,68.2,10.8Z" fill="#b04342"/>
    <path d="M32.5.8,4.7,30.5a1.9,1.9,0,0,0,1.4,3.2H61.8a1.9,1.9,0,0,0,1.4-3.2L35.3.8A1.9,1.9,0,0,0,32.5.8Z" fill="#ca5050"/>
    <path d="M104.2,86.5H63.5V31H4.4V133.3a2.2,2.2,0,0,0,2.3,2.2h97.5a2.2,2.2,0,0,0,2.3-2.2V88.8A2.3,2.3,0,0,0,104.2,86.5ZM88.3,126.3H70.6V106.7H88.3Z" fill="#e55555"/>
    <path d="M79.2,100.4l-8.9,6.4a.6.6,0,0,0,.3,1H88.4a.6.6,0,0,0,.3-1l-8.9-6.4C79.6,100.2,79.3,100.2,79.2,100.4Z" fill="#b04342"/>
    <path d="M11.3,73.9c0,2.3.9,4.2,2.1,4.2H26.5c1.2,0,2.2-1.9,2.2-4.2V59.4H11.3Z" fill="#eb8383"/>
    <path d="M39.7,73.6c0,2.3.9,4.2,2.1,4.2H54.9c1.2,0,2.2-1.9,2.2-4.2V59.1H39.7Z" fill="#eb8383"/>
    <path d="M28.7,46.3V59.4H11.3V46.3c0-2.3.9-4.1,2.1-4.1H26.5C27.7,42.2,28.7,44,28.7,46.3Z" fill="#b04342"/>
    <path d="M57.1,46.1v13H39.7v-13c0-2.3.9-4.2,2.1-4.2H54.9C56.1,41.9,57.1,43.8,57.1,46.1Z" fill="#b04342"/>
    <path d="M26.9,105.6v10.3H13.2V105.6c0-1.8.8-3.3,1.7-3.3H25.2C26.1,102.3,26.9,103.8,26.9,105.6Z" fill="#b04342"/>
    <path d="M55.2,105.1v10.2H41.5V105.1c0-1.9.8-3.3,1.7-3.3H53.5C54.5,101.8,55.2,103.2,55.2,105.1Z" fill="#b04342"/>
    <rect x="70.6" y="126.3" width="17.7" height="9.25" fill="#eb8383"/>
    <path d="M13.2,127.3c0,1.8.8,3.3,1.7,3.3H25.2c.9,0,1.7-1.5,1.7-3.3V115.9H13.2Z" fill="#eb8383"/>
    <path d="M41.5,126.7c0,1.9.8,3.3,1.7,3.3H53.5c1,0,1.7-1.4,1.7-3.3V115.3H41.5Z" fill="#eb8383"/>
    <path d="M106.5,86.5H86.6V61.3a3.1,3.1,0,0,0-3.1-3.1H75.4a3.1,3.1,0,0,0-3.1,3.1V86.5H4.4L0,96.3c0,.6.7,1.1,1.6,1.1H3.3v37.8a.9.9,0,0,0,.9.9H63.1a.9.9,0,0,0,.9-.9V104.4a12.1,12.1,0,0,1,3.5-4.2,13.6,13.6,0,0,1,6.3-2.8H85.3a13.6,13.6,0,0,1,6.3,2.8,12.5,12.5,0,0,1,3.3,3.8v31.2a.9.9,0,0,0,.9.9h1a.9.9,0,0,0,.9-.9V104.4a12.9,12.9,0,0,1,3.4-4.2,13.9,13.9,0,0,1,6.4-2.8h1.3c.9,0,1.6-.5,1.6-1.1ZM12.4,97.4a14.6,14.6,0,0,0-3.3,2,14.9,14.9,0,0,0-3,3.3V97.4ZM7,133.2H6.1v-8.4H7Zm9.7,0H12.1v-8.4h4.6Zm9.7,0H21.8v-8.4h4.6Zm9.7,0H31.5v-8.4h4.6Zm9.7,0H41.2v-8.4h4.6Zm9.7,0H50.9v-8.4h4.6Zm5.7,0h-.6v-8.4h.6Zm0-11.3H6.1v-17a12.5,12.5,0,0,1,3.7-4.6,13.5,13.5,0,0,1,6.8-2.9h35a14.1,14.1,0,0,1,6.3,2.8,13,13,0,0,1,3.3,4ZM58.6,99.3a22.3,22.3,0,0,0-3.2-1.9h5.8v4.8A11.6,11.6,0,0,0,58.6,99.3Zm8.2,0a15.4,15.4,0,0,0-2.8,3V97.4h6A17.9,17.9,0,0,0,66.8,99.3Zm25.5,0a17.3,17.3,0,0,0-3.1-1.9h5.7V102A16.3,16.3,0,0,0,92.3,99.3Zm8.2,0a15.4,15.4,0,0,0-2.8,3V97.4h5.9A17.3,17.3,0,0,0,100.5,99.3Z" fill="#b04342"/>
</svg>
