<svg xmlns="http://www.w3.org/2000/svg" viewBox="0 0 602.6 589.8">
  <g>
    <g>
      <path d="M119.9,589.8A119.9,119.9,0,1,1,239.8,469.9,120.1,120.1,0,0,1,119.9,589.8Zm0-219.8a99.9,99.9,0,1,0,99.9,99.9A100,100,0,0,0,119.9,370Z" fill="#4e4d4d"/>
      <path d="M482.8,589.8a119.9,119.9,0,0,1,0-239.8c66.1,0,119.8,53.8,119.8,119.9S548.9,589.8,482.8,589.8Zm0-219.8a99.9,99.9,0,1,0,99.8,99.9A100,100,0,0,0,482.8,370Z" fill="#4e4d4d"/>
      <rect x="145" y="333.5" width="215" height="13.56" rx="5.1" fill="#bcbcbb"/>
      <path d="M333.5,473.9H481.4a5.5,5.5,0,0,1,5.4,5.5h0a5.4,5.4,0,0,1-5.4,5.4H333.5a5.4,5.4,0,0,1-5.4-5.4h0A5.5,5.5,0,0,1,333.5,473.9Z" fill="#bcbcbb"/>
      <rect x="250.7" y="394.6" width="173" height="12.88" rx="6.1" transform="translate(-140.9 615.6) rotate(-74.1)" fill="#858585"/>
      <circle cx="310.1" cy="475" r="27.5" fill="#434342"/>
      <rect x="24.9" y="366.7" width="230.4" height="13.83" rx="4.6" transform="translate(-257.6 406.1) rotate(-74.1)" fill="#858585"/>
      <rect x="429.2" y="305.1" width="12.9" height="191.77" rx="6.4" transform="translate(-142.1 271.6) rotate(-30)" fill="#858585"/>
      <rect x="336.9" y="310.5" width="67.1" height="14.92" rx="7.5" fill="#434342"/>
      <rect x="289.5" y="505.8" width="42.1" height="12.21" rx="5.5" fill="#bcbcbb"/>
      <rect x="163.3" y="261.6" width="55.6" height="12.21" rx="5.7" fill="#434342"/>
    </g>
    <rect x="294.4" y="475.7" width="35.8" height="30.75" rx="8.1" fill="#ddb94b"/>
    <path d="M399.3,266.8v27c0,10-7.7,18-17.2,18H330.5V478.9a9.8,9.8,0,0,1-9.6,10H300.4a9.8,9.8,0,0,1-9.6-10V295.3c0-8.1,6.3-14.7,14-14.7h26.3V266.8c0-10,7.7-18,17.3-18h33.7a16.9,16.9,0,0,1,13.7,7.1,18.4,18.4,0,0,1,3.5,10.9Z" fill="#ffe181"/>
    <path d="M382.3,279.8,346.9,286a22,22,0,0,1-25.5-17.8l-9.8-56.4-5.3-29.4L299.4,144l-2.1-11.8A21.9,21.9,0,0,1,315,106.7l35.4-6.4a22,22,0,0,1,24.5,14.1,23.4,23.4,0,0,1,1.7,5.3l13.6,77.9,9.9,55.1a16.6,16.6,0,0,1,.3,3.2h-.1a21.9,21.9,0,0,1-18,24Z" fill="#ffdc5e"/>
    <path d="M213.9,270.7l-.4-.5a2.3,2.3,0,0,1,.8-2.9l1.1-.9-7.6,3.9a8.8,8.8,0,0,1-11.8-3.9l-1.3-2.4a8.8,8.8,0,0,1,3.7-11.9l18.5-9.6a8.9,8.9,0,0,1,11.9,3.9l1.2,2.4a8.7,8.7,0,0,1,.7,6.5l.8.5c1,.9.8,2.4-.4,3.4l-13.4,11.3a2.9,2.9,0,0,1-3.8.2Z" fill="#63472c"/>
    <rect x="193.1" y="172.2" width="176.2" height="30.69" rx="9.2" transform="translate(-45.8 273.2) rotate(-48.4)" fill="#ddb94b"/>
    <path d="M360.1,27.7V70.9a27.7,27.7,0,0,1-27.7,27.7h-6.1v7.5a5.8,5.8,0,0,1-5.7,5.7h-2.7a5.7,5.7,0,0,1-5.7-5.7V98.6h-4.3a27.7,27.7,0,0,1-27.7-27.7V27.7A27.7,27.7,0,0,1,307.9,0h24.5A27.7,27.7,0,0,1,360.1,27.7Z" fill="#63472c"/>
  </g>
</svg>
