<svg xmlns="http://www.w3.org/2000/svg" viewBox="0 0 106.01 106.01">
  <circle class="fst-color" cx="53" cy="53" r="53" />
  <path class="trd-color" d="M105.94,50.43a53.36,53.36,0,0,0-2.94-15l-8.67,15H74L66.2,37l9.18-17L94,21.8l.91-1.26A53.46,53.46,0,0,0,63.41,1L71,17.66l-8.66,16H42v0L32.64,20,43.47,2.88l-1-1.82a52.75,52.75,0,0,0-31.64,19.8l16.76.67L39.25,38.48l-6.89,12H11.76L3,35.32A53,53,0,0,0,3,70.58l8.75-15.15h20.6l9.37,16.24L33.44,87,13.7,82.8l-2.51,2.78a53.46,53.46,0,0,0,29.86,19.07l-4.3-13.27L47.13,72.2H62.37l10.8,15.74L61.88,102l1.18,3A53,53,0,0,0,93.37,87.35L77.11,84.86,66.19,68.92,74,55.43H94.33L103,70.51A52.44,52.44,0,0,0,105.94,50.43Z" />
</svg>
