<svg xmlns="http://www.w3.org/2000/svg" viewBox="0 0 8.447 6.358">
    <path d="M2.769,1.734a.855.855,0,0,0-.2.144c-.044-.069-.085-.138-.134-.207C1.816.8.994.324.6.605S.4,1.818,1.02,2.687,2.465,4.033,2.857,3.753a.548.548,0,0,0,.194-.411.844.844,0,0,0,.5-.087.855.855,0,0,0-.783-1.521Z" class="scd-color"/>
    <path d="M7.364,1.491,7.106.454l-.667.835L5.373,1.214l.256.387a.99.99,0,0,0-.532-.16A1.055,1.055,0,0,0,4.07,2.522,1.055,1.055,0,0,0,5.1,3.6a1.026,1.026,0,0,0,.933-.634l.562-.155L7.41,3.5l.048-1.068.907-.566Z" class="trd-color"/>
    <path d="M7.474,2.882V1.54A1.541,1.541,0,0,0,5.934,0H2.512A1.541,1.541,0,0,0,.973,1.54V2.882H.72V5.611a.747.747,0,0,0,.747.747H6.89a.746.746,0,0,0,.746-.747V2.882ZM1.369,1.54A1.144,1.144,0,0,1,2.512.4H5.934A1.144,1.144,0,0,1,7.078,1.54V2.683H1.369Z" class="#trd-color"/>
    <rect y="2.414" width="8.447" height="0.937" rx="0.415" class="fst-color"/>
</svg>
