<svg xmlns="http://www.w3.org/2000/svg" viewBox="0 0 54 56.9">
  <g>
    <rect x="2.1" y="18.8" width="49.7" height="37.19" rx="2.6" fill="#db6d58"/>
    <path d="M49.2,18.8H4.7a2.6,2.6,0,0,0-2.6,2.6v32A2.5,2.5,0,0,0,4.7,56H49.2a2.6,2.6,0,0,0,2.6-2.6v-32A2.6,2.6,0,0,0,49.2,18.8ZM12,39.6H8.4c-.8,0-1.5-.5-1.5-1.1V29.8H12Zm0-10.7H6.9V26.1c0-.6.7-1.1,1.5-1.1H12Zm6.2,9.6c0,.6-.7,1.1-1.5,1.1H13.1V29.8h5.1Zm0-9.6H13.1V25h3.6c.8,0,1.5.5,1.5,1.1Zm7.7,23.7H22.3a1.4,1.4,0,0,1-1.5-1.2V42.7h5.1Zm0-10.8H20.8V39c0-.6.7-1.1,1.5-1.1h3.6Zm6.2,9.6a1.4,1.4,0,0,1-1.5,1.2H27V42.7h5.1Zm0-9.6H27V37.9h3.6c.8,0,1.5.5,1.5,1.1Zm7.7-2.1H36.2c-.8,0-1.5-.5-1.5-1.1V29.8h5.1Zm0-10.7H34.7V26.1c0-.6.7-1.1,1.5-1.1h3.6ZM46,38.6c0,.6-.7,1.1-1.5,1.1H40.9V29.8H46ZM46,29H40.9V25h3.6c.8,0,1.5.5,1.5,1.1Z" fill="#9c2e17"/>
    <path d="M25.5.5,1.9,18.5a2.2,2.2,0,0,0,1.4,4H50.5a2.2,2.2,0,0,0,1.4-4L28.3.5A2.1,2.1,0,0,0,25.5.5Z" fill="#cb3917"/>
    <path d="M52.7,46.3c.7,0,1.3-.3,1.3-.7V44.4c0-.4-.6-.8-1.3-.8H1.3c-.7,0-1.3.4-1.3.8v1.2c0,.4.6.7,1.3.7H2.6v7.9H1.3c-.7,0-1.3.3-1.3.7v1.3c0,.4.6.7,1.3.7H52.7c.7,0,1.3-.3,1.3-.7V54.9c0-.4-.6-.7-1.3-.7H51.4V46.3Zm-45.4,0h4.1v7.9H7.3Zm8.8,0h4.1v7.9H16.1Zm8.8,0h4.2v7.9H24.9Zm8.8,0h4.2v7.9H33.7Zm13,7.9H42.5V46.3h4.2Z" fill="#fff"/>
  </g>
</svg>
