<svg xmlns="http://www.w3.org/2000/svg" viewBox="0 0 49.8 45.8">
  <g>
    <rect x="5.7" y="11.4" width="37.5" height="33.49" rx="3.6" fill="#cb3917"/>
    <path d="M22.3,32.9h5.5a3.4,3.4,0,0,1,3.4,3.4v8.5a0,0,0,0,1,0,0H18.9a0,0,0,0,1,0,0V36.3A3.4,3.4,0,0,1,22.3,32.9Z" fill="#9c2e17"/>
    <path d="M48.6,14.4H1.2a1.3,1.3,0,0,1-.9-2.1L10.8.5a1.2,1.2,0,0,1,1-.5H37.9A1.4,1.4,0,0,1,39,.5L49.5,12.3A1.3,1.3,0,0,1,48.6,14.4Z" fill="#9c2e17"/>
    <path d="M14.9,16.6v3.9H11.1V17.4a.9.9,0,0,1,.8-.8Z" fill="#db6d58"/>
    <path d="M11.1,21.6h3.8v4h-3a.9.9,0,0,1-.8-.9Z" fill="#db6d58"/>
    <path d="M20.1,17.4v3.1H15.9V16.6h3.4A.9.9,0,0,1,20.1,17.4Z" fill="#db6d58"/>
    <path d="M15.9,21.6h4.2v3.1a.9.9,0,0,1-.8.9H15.9Z" fill="#db6d58"/>
    <path d="M32.5,16.6v3.9H28.8V17.4a.8.8,0,0,1,.8-.8Z" fill="#db6d58"/>
    <path d="M28.8,21.6h3.7v4H29.6a.8.8,0,0,1-.8-.8Z" fill="#db6d58"/>
    <path d="M37.7,17.4v3.1H33.6V16.6h3.3A.8.8,0,0,1,37.7,17.4Z" fill="#db6d58"/>
    <path d="M33.6,21.6h4.1v3.2a.8.8,0,0,1-.8.8H33.6Z" fill="#db6d58"/>
    <path d="M36.2,27.8H13.6c-.4,0-.6.3-.6.7v1.3a.5.5,0,0,0,.6.6h.3V44.9a.7.7,0,0,0,.7.6h1.3a.6.6,0,0,0,.6-.6V30.4H36.2a.6.6,0,0,0,.6-.6V28.5A.7.7,0,0,0,36.2,27.8Z" fill="#fff"/>
    <rect x="33.6" y="28.7" width="2.6" height="17.04" rx="0.6" fill="#fff"/>
  </g>
</svg>
