<svg xmlns="http://www.w3.org/2000/svg" viewBox="0 0 38.1 83.7">
  <g>
    <path d="M18.4,6.4,3.4,20.7c-.6.6-.2,11.7.7,11.7h30c.9,0,1.3-11.1.6-11.7L19.8,6.4A1.2,1.2,0,0,0,18.4,6.4Z" fill="#bf7736"/>
    <rect x="3.6" y="26.8" width="31.4" height="11.34" fill="#de8d3b"/>
    <path d="M35.1,24.5V21.7a1.4,1.4,0,0,0-1.4-1.4H4.4A1.4,1.4,0,0,0,3,21.7v2.8A2.7,2.7,0,0,0,.7,27.1V81a2.7,2.7,0,0,0,2.7,2.7H34.7A2.7,2.7,0,0,0,37.4,81V27.1A2.7,2.7,0,0,0,35.1,24.5Zm-15-3a.5.5,0,0,1,.5-.5h2.1a.5.5,0,0,1,.5.5v1.9a.5.5,0,0,1-.5.5H20.6a.5.5,0,0,1-.5-.5Zm-9.9,0a.5.5,0,0,1,.5-.5h2a.5.5,0,0,1,.5.5v1.9a.5.5,0,0,1-.5.5h-2a.5.5,0,0,1-.5-.5ZM7.9,39a.9.9,0,0,1-.9.9H5.2a.9.9,0,0,1-.9-.9V29.3a.9.9,0,0,1,.9-.9H7a.9.9,0,0,1,.9.9Zm.9-15.6a.5.5,0,0,1-.5.5h-2a.5.5,0,0,1-.5-.5V21.5a.5.5,0,0,1,.5-.5h2a.5.5,0,0,1,.5.5ZM13.6,39a.9.9,0,0,1-.9.9H10.8a.9.9,0,0,1-.9-.9V29.3a.9.9,0,0,1,.9-.9h1.9a.9.9,0,0,1,.9.9Zm1.5-17.5a.5.5,0,0,1,.5-.5h2.1a.5.5,0,0,1,.5.5v1.9a.5.5,0,0,1-.5.5H15.6a.5.5,0,0,1-.5-.5ZM23.5,39a1.3,1.3,0,0,1-1.3,1.4H16.5A1.3,1.3,0,0,1,15.2,39V31.6a1.3,1.3,0,0,1,1.3-1.4h5.7a1.3,1.3,0,0,1,1.3,1.4Zm1.6-15.6V21.5a.5.5,0,0,1,.5-.5h2a.5.5,0,0,1,.5.5v1.9a.5.5,0,0,1-.5.5h-2A.5.5,0,0,1,25.1,23.4Zm3.6,15.7a.8.8,0,0,1-.8.8H26.2a.9.9,0,0,1-.9-.8V29.3a.9.9,0,0,1,.9-.9h1.7a.8.8,0,0,1,.8.9ZM30,23.4V21.5a.5.5,0,0,1,.5-.5h2.1a.5.5,0,0,1,.5.5v1.9a.5.5,0,0,1-.5.5H30.5A.5.5,0,0,1,30,23.4Zm4.6,15.7a.9.9,0,0,1-.9.8H32a.9.9,0,0,1-.9-.8V29.3a.9.9,0,0,1,.9-.9h1.7a.9.9,0,0,1,.9.9Z" fill="#ef9b51"/>
    <path d="M35.5,38.1H2.7A2.7,2.7,0,0,0,0,40.8V81a2.7,2.7,0,0,0,2.7,2.7H35.5A2.7,2.7,0,0,0,38.1,81V40.8A2.7,2.7,0,0,0,35.5,38.1ZM19.2,40.4h6.6v3.4H19.2Zm0,4h6.6v3.3H19.2Zm0,3.9h6.6v3.1H19.2Zm0,3.7h6.6v3.3H19.2ZM12,40.4h6.6v3.4H12Zm0,4h6.6v3.3H12Zm0,3.9h6.6v3.1H12ZM12,52h6.6v3.3H12ZM5.2,40.7c0-.2.2-.3.4-.3h5.8v3.4H5.2Zm0,3.7h6.2v3.3H5.2Zm0,3.9h6.2v3.1H5.2Zm0,3.7h6.2v3.3H5.2Zm0,3.9h6.2v3.3H5.6a.4.4,0,0,1-.4-.4Zm6.6,25.6H5.2V78.2h6.6Zm0-3.9H5.2V74.3h6.6Zm0-3.9H5.2V70.5h6.6Zm0-3.8H5.2V66.6h6.6Zm0-3.9H5.2V62.6h6.6ZM12,55.9h6.6v3.3H12Zm6.7,25.6H12.4V78.2h6.3Zm0-3.9H12.4V74.3h6.3Zm0-3.9H12.4V70.5h6.3Zm0-3.8H12.4V66.6h6.3Zm0-3.9H12.4V62.6h6.3Zm.5-10.1h6.6v3.3H19.2Zm6.7,25.6H19.3V78.2h6.6Zm0-3.9H19.3V74.3h6.6Zm0-3.9H19.3V70.5h6.6Zm0-3.8H19.3V66.6h6.6Zm0-3.9H19.3V62.6h6.6Zm6.9,15.4H26.5V78.2h6.3Zm0-3.8H26.5V74.3h6.3Zm0-3.9H26.5V70.5h6.3Zm0-3.8H26.5V66.6h6.3Zm0-3.9H26.5V62.6h6.3Zm.1-6.8H26.4V55.9h6.5Zm0-3.9H26.4V52h6.5Zm0-3.9H26.4V48.3h6.5Zm0-3.7H26.4V44.4h6.5Zm0-3.9H26.4V40.4h6.5Z" fill="#d98341"/>
    <path d="M19.1,0a.5.5,0,0,0-.5.4V10.5h-.2L8.3,20.3H30L19.8,10.6h-.3V.4A.4.4,0,0,0,19.1,0Z" fill="#de8d3b"/>
  </g>
</svg>
