<svg xmlns="http://www.w3.org/2000/svg" viewBox="0 0 25.3 25.2">
    <ellipse cx="7.4" cy="9.2" rx="5.6" ry="9.2" transform="matrix(0.87, -0.5, 0.5, 0.87, -3.59, 4.93)" fill="#e5f4fb"/>
    <ellipse cx="14.1" cy="9.2" rx="9.2" ry="5.6" transform="translate(3.7 22.4) rotate(-85)" fill="#d1e8f1"/>
    <path d="M0,16.7c0,3.1,2.6,5.9,6.4,7.4a17.7,17.7,0,0,0,6.3,1.1,19.1,19.1,0,0,0,5.4-.8c4.3-1.4,7.2-4.3,7.2-7.7s-2.9-6.4-7.2-7.8a19.1,19.1,0,0,0-5.4-.8A17.7,17.7,0,0,0,6.4,9.2C2.6,10.7,0,13.5,0,16.7Z" fill="#fdd961"/>
    <path d="M6.4,9.2V24.1a17.7,17.7,0,0,0,6.3,1.1,19.1,19.1,0,0,0,5.4-.8V8.9a19.1,19.1,0,0,0-5.4-.8A17.7,17.7,0,0,0,6.4,9.2Z" fill="#00494a"/>
    <circle cx="21.9" cy="14.3" r="0.9" fill="#1a1a1a"/>
</svg>
