<svg xmlns="http://www.w3.org/2000/svg" viewBox="0 0 104.7 58.9">
    <path d="M103.3,8.3h-1.4V1.4A1.3,1.3,0,0,0,100.6,0a1.4,1.4,0,0,0-1.4,1.4V8.3h-7V1.4a1.4,1.4,0,0,0-2.8,0V8.3h-7V1.4A1.4,1.4,0,0,0,81,0a1.3,1.3,0,0,0-1.3,1.4V8.3H72.6V1.4A1.3,1.3,0,0,0,71.3,0a1.4,1.4,0,0,0-1.4,1.4V8.3H62.6V1.4A1.4,1.4,0,0,0,61.2,0a1.3,1.3,0,0,0-1.3,1.4V8.3h-7V1.4A1.4,1.4,0,0,0,51.5,0a1.4,1.4,0,0,0-1.4,1.4V8.3H43.6V1.4a1.4,1.4,0,0,0-2.8,0V8.3H34.6V1.4A1.4,1.4,0,0,0,33.2,0h0a1.4,1.4,0,0,0-1.4,1.4V8.3h-7V1.4A1.4,1.4,0,0,0,23.4,0,1.4,1.4,0,0,0,22,1.4V8.3h-.8a1.3,1.3,0,0,0-1.4,1.3A1.4,1.4,0,0,0,21.2,11H22v8.2a1.4,1.4,0,0,0,1.4,1.3,1.3,1.3,0,0,0,1.4-1.3V11h7v8.2a1.3,1.3,0,0,0,1.4,1.3h0a1.3,1.3,0,0,0,1.4-1.3V11h6.2v8.2a1.4,1.4,0,0,0,2.8,0V11h6.5v8.2a1.3,1.3,0,0,0,1.4,1.3,1.4,1.4,0,0,0,1.4-1.3V11h7v8.2a1.3,1.3,0,0,0,1.3,1.3,1.3,1.3,0,0,0,1.4-1.3V11h7.3v8.2a1.3,1.3,0,0,0,1.4,1.3,1.3,1.3,0,0,0,1.3-1.3V11h7.1v8.2A1.3,1.3,0,0,0,81,20.5a1.3,1.3,0,0,0,1.4-1.3V11h7v8.2a1.4,1.4,0,0,0,2.8,0V11h7v8.2a1.3,1.3,0,0,0,1.4,1.3,1.3,1.3,0,0,0,1.3-1.3V11h1.4a1.4,1.4,0,0,0,1.4-1.4A1.3,1.3,0,0,0,103.3,8.3Z" fill="#1c5e6a"/>
    <rect x="14.8" y="38.3" width="4" height="20.54" rx="1.7" fill="#37787d"/>
    <rect x="31.1" y="23.5" width="4" height="20.54" rx="1.7" fill="#37787d"/>
    <rect x="81.4" y="38.3" width="4" height="20.54" rx="1.7" fill="#37787d"/>
    <rect x="97.9" y="21.3" width="4" height="20.54" rx="1.7" fill="#37787d"/>
    <path d="M104.1,20,88,36.2H0L16.7,19.7A7.5,7.5,0,0,1,22,17.5h81.1A1.5,1.5,0,0,1,104.1,20Z" fill="#37787d"/>
    <path d="M0,36.1H0Z" fill="#1c5e6a"/>
    <path d="M49.1,36.1h0Z" fill="#1c5e6a"/>
    <path d="M87.9,36.1h0Z" fill="#1c5e6a"/>
    <path d="M104.2,23c-5.4,6-10.9,11.9-16.3,17.8V36.1l16.6-16.6Z" fill="#144850"/>
    <polygon points="49.5 17.5 33.8 36.1 9.8 36.1 25.5 17.5 49.5 17.5" fill="#3f8385"/>
    <path d="M87.9,36.2v4.6H2.1A2.1,2.1,0,0,1,0,38.7V36.1H87.9Z" fill="#1c5e6a"/>
    <polygon points="88.7 17.5 73 36.1 49.1 36.1 64.7 17.5 88.7 17.5" fill="#3f8385"/>
</svg>
