<svg xmlns="http://www.w3.org/2000/svg" viewBox="0 0 602.6 489.8">
    <g>
      <path d="M119.9,489.8A119.9,119.9,0,1,1,239.8,369.9,120.1,120.1,0,0,1,119.9,489.8Zm0-219.8a99.9,99.9,0,1,0,99.9,99.9A100,100,0,0,0,119.9,270Z" fill="#4e4d4d"/>
      <path d="M482.8,489.8a119.9,119.9,0,0,1,0-239.8c66.1,0,119.8,53.8,119.8,119.9S548.9,489.8,482.8,489.8Zm0-219.8a99.9,99.9,0,1,0,99.8,99.9A100,100,0,0,0,482.8,270Z" fill="#4e4d4d"/>
      <rect x="145" y="233.6" width="215" height="13.56" rx="5.1" fill="#bcbcbb"/>
      <path d="M333.5,374H481.4a5.4,5.4,0,0,1,5.4,5.4h0a5.4,5.4,0,0,1-5.4,5.4H333.5a5.4,5.4,0,0,1-5.4-5.4h0A5.4,5.4,0,0,1,333.5,374Z" fill="#bcbcbb"/>
      <rect x="250.7" y="294.6" width="173" height="12.88" rx="6.1" transform="translate(-44.7 543) rotate(-74.1)" fill="#858585"/>
      <circle cx="310.1" cy="375" r="27.5" fill="#434342"/>
      <rect x="24.9" y="266.7" width="230.4" height="13.83" rx="4.6" transform="translate(-161.4 333.4) rotate(-74.1)" fill="#858585"/>
      <rect x="429.2" y="205.2" width="12.9" height="191.77" rx="6.4" transform="translate(-92.2 258.2) rotate(-30)" fill="#858585"/>
      <rect x="336.9" y="210.5" width="67.1" height="14.92" rx="7.5" fill="#434342"/>
      <rect x="289.5" y="405.8" width="42.1" height="12.21" rx="5.5" fill="#bcbcbb"/>
      <rect x="163.3" y="161.7" width="55.6" height="12.21" rx="5.7" fill="#434342"/>
    </g>
    <rect class="fst-color" x="294.4" y="375.7" width="35.8" height="30.75" rx="8.1" />
    <path class="trd-color" d="M399.3,166.8v27.1c0,9.9-7.7,18-17.2,18H330.5v167a9.8,9.8,0,0,1-9.6,10H300.4a9.8,9.8,0,0,1-9.6-10V195.3c0-8.1,6.3-14.6,14-14.6h26.3V166.8c0-10,7.7-18,17.3-18h33.7a16.9,16.9,0,0,1,13.7,7.1,18.4,18.4,0,0,1,3.5,10.9Z" />
    <path class="scd-color" d="M382.3,179.8,346.9,186a22,22,0,0,1-25.5-17.8l-9.8-56.4-5.3-29.3L299.4,44l-2.1-11.8A21.9,21.9,0,0,1,315,6.7L350.4.4a21.8,21.8,0,0,1,24.5,14,23.4,23.4,0,0,1,1.7,5.3l13.6,78,9.9,55a17.3,17.3,0,0,1,.3,3.2h-.1a21.9,21.9,0,0,1-18,24Z" />
    <rect class="fst-color" x="193.1" y="72.2" width="176.2" height="30.69" rx="9.2" transform="translate(29 239.7) rotate(-48.4)" />
</svg>
