<svg xmlns="http://www.w3.org/2000/svg" viewBox="0 0 285.2 511.1">
    <rect class="fst-color" x="146.7" y="474.3" width="42.8" height="36.8" rx="1" />
    <path class="fst-color" d="M30.2,264.5q27,74,54.2,147.9v60.7A12.1,12.1,0,0,0,96.6,485h1.2v25.2a1,1,0,0,0,1,.9h40.9a1,1,0,0,0,1-.9V485H147a12,12,0,0,0,12.1-11.9V419l77.6-154.5Z" />
    <path class="trd-color" d="M278.7,264.5Q240,343.4,201.1,422.3v55.2A12.1,12.1,0,0,1,189,489.7H138.6a12.2,12.2,0,0,1-12.2-12.2V415.6Q99.3,340,72.2,264.5Z" />
    <path class="scd-color" d="M285.1,279.3a8,8,0,0,1-7.8,9.1H17.5c-8.3.3-10.7-12.5-3.6-16-49.6-113,47.3-219.3,75.9-267C95.4-.6,103.7.1,103.7.1s85.3.3,86.9,0c8.7-.5,21.7,0,24.3,14.3-.1-.4-.1-.7-.2-1.1h-.1c22,83.3,53.5,212.3,66.5,259.1A7.7,7.7,0,0,1,285.1,279.3Z" />
    <rect class="fst-color" x="132.9" y="52.1" width="43.2" height="247.99" rx="1.3" />
</svg>
