<svg xmlns="http://www.w3.org/2000/svg" viewBox="0 0 215.6 435.8">
    <rect class="fst-color" x="55.7" y="401.5" width="43.2" height="34.32" rx="0.6" />
    <rect class="fst-color" x="116.7" y="401.5" width="43.2" height="34.32" rx="0.6" />
    <path class="trd-color" d="M200.6,201.8l-34.5,113v93.9c0,3.6-3.4,6.5-7.7,6.5h-39c-4.3,0-7.8-2.9-7.8-6.5v-139c0-1.9-1.8-3.4-4-3.4s-4.1,1.5-4.1,3.4v139c0,3.6-3.4,6.5-7.7,6.5h-39c-4.3,0-7.8-2.9-7.8-6.5V314.8l-29.1-113H95.8l2,.2h19.6l2-.2Z" />
    <rect class="scd-color" y="16" width="30" height="216.86" rx="0.7" />
    <rect class="scd-color" x="185.6" y="16" width="30" height="216.86" rx="0.7" />
    <path class="fst-color" d="M215.6,54.5H172.1c7.8,18.2,55.5,134.7,23.8,178.4a2.7,2.7,0,0,1,2.5,2.8v.2a2.7,2.7,0,0,1-2.6,2.8H19.8a2.7,2.7,0,0,1-2.6-2.8v-.2a2.7,2.7,0,0,1,2.5-2.8C-12,189.2,35.8,72.7,43.6,54.5H0V17.2C0,7.7,7,0,15.7,0H200c8.6,0,15.6,7.7,15.6,17.2Z" />
</svg>
