<svg xmlns="http://www.w3.org/2000/svg" viewBox="0 0 28.46 65.1">
    <rect x="9.65" y="61.4" width="4.3" height="3.7" rx="0.97" class="trd-color"/>
    <rect x="14.55" y="61.4" width="4.3" height="3.7" rx="0.97" class="trd-color"/>
    <path d="M23.6,40.32,15.8,55.84v5.44a1.2,1.2,0,0,1-1.22,1.19H9.52A1.21,1.21,0,0,1,8.3,61.28v-6.1Q5.57,47.76,2.85,40.32Z" class="fst-color"/>
    <path d="M27.81,40.32Q23.92,48.26,20,56.17v5.55a1.22,1.22,0,0,1-1.22,1.22H13.74a1.22,1.22,0,0,1-1.22-1.22V55.5L7.07,40.32Z" class="scd-color"/>
    <path d="M28.46,41.81v.13a.79.79,0,0,1-.79.79H1.59a.79.79,0,0,1-.79-.79v-.13a.78.78,0,0,1,.42-.69c-.44-2-5.19-5.59,7.62-26.81a1.82,1.82,0,0,1,1.4-.53h9.33a1.85,1.85,0,0,1,1.44.56,4.23,4.23,0,0,1,.37.76h0a.49.49,0,0,1,0,.11l6.64,25.92a.57.57,0,0,1,.13.08A.8.8,0,0,1,28.46,41.81Z" class="trd-color"/>
    <path d="M14.13,45.48h.07a.26.26,0,0,0,.24-.23l0-.15v1a1,1,0,0,0,1,1h.29a1,1,0,0,0,1-1V43.72c0-.54-2.3-.72-2.34-.55L14,45.09A.33.33,0,0,0,14.13,45.48Z" />
    <rect x="13.17" y="18.99" width="4.34" height="24.9" rx="1.31" class="fst-color"/>
    <path d="M19.46,3.82V9.75a3.82,3.82,0,0,1-3.82,3.81h-.83v1a.79.79,0,0,1-.79.79h-.37a.79.79,0,0,1-.79-.79v-1h-.58A3.82,3.82,0,0,1,8.47,9.75V3.82A3.82,3.82,0,0,1,12.28,0h3.36A3.82,3.82,0,0,1,19.46,3.82Z" />
</svg>
