<svg xmlns="http://www.w3.org/2000/svg" viewBox="0 0 96.8 78">
  <g>
    <path d="M96.5,44.5l-5.8-2.9a.5.5,0,0,0-.7.4v5.8a.4.4,0,0,0,.7.4l5.8-2.9A.4.4,0,0,0,96.5,44.5Z" fill="#f0b225"/>
    <line x1="37.9" y1="77.4" x2="51.2" y2="69.8" fill="none" stroke="#f0b225" stroke-linecap="round" stroke-miterlimit="10" stroke-width="1.18"/>
    <ellipse cx="8.1" cy="57.6" rx="5.4" ry="1.5" fill="#b04342"/>
    <path d="M91.6,44.9c0,5.9-3.6,11.2-9.3,14.4C80.1,63.2,72.9,72,53,72.6c-25.5.9-42.4-6.9-43-7.2L5.2,63c-3-.4-5.2-1.4-5.2-2.6s3.7-2.8,8.2-2.8H9.8c7.4-2.1,17.7-14.3,23.1-18.2s10.6-7.2,15.3-9.2S60.6,27,66.9,26.9h1.3C81.1,26.9,91.6,35,91.6,44.9Z" fill="#e55555"/>
    <line x1="26.4" y1="76.9" x2="39.7" y2="69.3" fill="none" stroke="#f0b225" stroke-linecap="round" stroke-miterlimit="10" stroke-width="1.18"/>
    <path d="M62.1,14.8a28.9,28.9,0,0,1,2.4,13.5c2.3,7,2,18.2-4.9,22.8s-14.6,2-20.4-1.5h0c-4.3.1-9.7-1.8-14.7-5.5-8.8-6.4-13.2-16-9.9-21.3,1.8-2.7,5.2-3.8,9.3-3.3C22.2,14,22.7,9.1,25.7,6.7s7.8-1.8,12.7,1.1C39,4.1,40.8,1.3,43.6.4,49.6-1.6,57.8,4.8,62.1,14.8Z" fill="#b04342"/>
    <path d="M85.2,41.9A2.2,2.2,0,0,1,83,44a2.1,2.1,0,0,1-2.1-2.1A2.1,2.1,0,0,1,83,39.7,2.2,2.2,0,0,1,85.2,41.9Z" fill="#1a1a1a"/>
    <circle cx="52.3" cy="42.2" r="2.5" fill="#a6529a"/>
  </g>
</svg>
