<svg xmlns="http://www.w3.org/2000/svg" viewBox="0 0 4.6 5.231">
    <path d="M2.984,3.674a.253.253,0,0,0,.506,0A.253.253,0,0,0,2.984,3.674Z" fill="#1a1a1a"/>
    <path d="M1.078,3.664v.1a.41.41,0,0,0,.411.41h.175a.112.112,0,0,0,.112-.111V3.328a.112.112,0,0,0-.112-.112H1.526A.449.449,0,0,0,1.078,3.664Z" fill="#523722"/>
    <path d="M.021,1.588c.084,1.228-.306,3,.514,3.643l.5-.945c-.292-1.109.474-1.225.818-1.223v.583c0,.1.194.052.25.064.133.091.037-1.268.064-1.407h.4l.145-.288.086.279.251-.462.325.471H4.6V1.588A1.59,1.59,0,0,0,3.092,0H1.526c1.547,0,.06,0,.04,0A1.6,1.6,0,0,0,.021,1.588Z"/>
</svg>
