<svg xmlns="http://www.w3.org/2000/svg" viewBox="0 0 3.872 4.077">
  <g>
    <g>
      <path d="M2.281,3.146a.052.052,0,0,1-.1,0A.052.052,0,0,1,2.281,3.146Z" fill="#49301a"/>
      <path d="M.521,2.784a.052.052,0,0,1-.1,0A.052.052,0,0,1,.521,2.784Z" fill="#49301a"/>
      <path d="M.666,2.67a.051.051,0,0,1,.058-.085A.051.051,0,0,1,.666,2.67Z" fill="#49301a"/>
      <path d="M1.015,2.784a.052.052,0,0,1-.1,0A.052.052,0,0,1,1.015,2.784Z" fill="#49301a"/>
      <path d="M1.217,2.538a.052.052,0,0,1-.1,0A.052.052,0,0,1,1.217,2.538Z" fill="#49301a"/>
      <path d="M1.486,2.784a.052.052,0,0,1-.1,0A.052.052,0,0,1,1.486,2.784Z" fill="#49301a"/>
      <path d="M1.733,2.627a.052.052,0,0,1-.1,0A.052.052,0,0,1,1.733,2.627Z" fill="#49301a"/>
      <path d="M2,2.784a.052.052,0,0,1-.1,0A.052.052,0,0,1,2,2.784Z" fill="#49301a"/>
      <path d="M2.328,2.807a.052.052,0,0,1-.1,0A.052.052,0,0,1,2.328,2.807Z" fill="#49301a"/>
      <path d="M2.473,2.692a.051.051,0,0,1,.058-.085A.051.051,0,0,1,2.473,2.692Z" fill="#49301a"/>
      <path d="M2.823,2.807a.052.052,0,0,1-.1,0A.052.052,0,0,1,2.823,2.807Z" fill="#49301a"/>
      <path d="M3.024,2.56a.052.052,0,0,1-.1,0A.052.052,0,0,1,3.024,2.56Z" fill="#49301a"/>
      <path d="M3.293,2.807a.052.052,0,0,1-.1,0A.052.052,0,0,1,3.293,2.807Z" fill="#49301a"/>
      <path d="M3.54,2.65a.052.052,0,0,1-.1,0A.052.052,0,0,1,3.54,2.65Z" fill="#49301a"/>
      <path d="M.521,3.462a.052.052,0,0,1-.1,0A.052.052,0,0,1,.521,3.462Z" fill="#49301a"/>
      <path d="M.666,3.348a.052.052,0,0,1,.058-.086A.052.052,0,0,1,.666,3.348Z" fill="#49301a"/>
      <path d="M1.737,2.989a.052.052,0,0,1-.1,0A.052.052,0,0,1,1.737,2.989Z" fill="#49301a"/>
      <path d="M1.486,3.462a.052.052,0,0,1-.1,0A.052.052,0,0,1,1.486,3.462Z" fill="#49301a"/>
      <path d="M1.733,3.305a.052.052,0,0,1-.1,0A.052.052,0,0,1,1.733,3.305Z" fill="#49301a"/>
      <path d="M2,3.462a.052.052,0,0,1-.1,0A.052.052,0,0,1,2,3.462Z" fill="#49301a"/>
      <path d="M2.509,3.485a.052.052,0,0,1-.1,0A.052.052,0,0,1,2.509,3.485Z" fill="#49301a"/>
      <path d="M3.116,3.778a.052.052,0,0,1-.1,0A.052.052,0,0,1,3.116,3.778Z" fill="#49301a"/>
      <path d="M3.474,3.484a.052.052,0,0,1-.1,0A.052.052,0,0,1,3.474,3.484Z" fill="#49301a"/>
      <path d="M1.311,4.027a.052.052,0,0,1-.1,0A.052.052,0,0,1,1.311,4.027Z" fill="#49301a"/>
      <path d="M1.456,3.912a.052.052,0,0,1,.059-.085A.052.052,0,0,1,1.456,3.912Z" fill="#49301a"/>
      <path d="M1.806,4.027a.052.052,0,0,1-.1,0A.052.052,0,0,1,1.806,4.027Z" fill="#49301a"/>
      <path d="M2.008,3.78a.052.052,0,0,1-.1,0A.052.052,0,0,1,2.008,3.78Z" fill="#49301a"/>
      <path d="M2.277,4.027a.052.052,0,0,1-.1,0A.052.052,0,0,1,2.277,4.027Z" fill="#49301a"/>
      <path d="M2.523,3.87a.052.052,0,0,1-.1,0A.052.052,0,0,1,2.523,3.87Z" fill="#49301a"/>
      <path d="M2.792,4.027a.052.052,0,0,1-.1,0A.052.052,0,0,1,2.792,4.027Z" fill="#49301a"/>
      <path d="M1.424,2.355a.052.052,0,0,1-.1,0A.052.052,0,0,1,1.424,2.355Z" fill="#49301a"/>
      <path d="M1.569,2.24a.052.052,0,0,1,.059-.085A.052.052,0,0,1,1.569,2.24Z" fill="#49301a"/>
      <path d="M1.919,2.355a.052.052,0,0,1-.1,0A.052.052,0,0,1,1.919,2.355Z" fill="#49301a"/>
      <path d="M2.121,2.108a.052.052,0,0,1-.1,0A.052.052,0,0,1,2.121,2.108Z" fill="#49301a"/>
      <path d="M2.39,2.355a.052.052,0,0,1-.1,0A.052.052,0,0,1,2.39,2.355Z" fill="#49301a"/>
      <path d="M2.636,2.2a.052.052,0,0,1-.1,0A.052.052,0,0,1,2.636,2.2Z" fill="#49301a"/>
      <path d="M2.905,2.355a.052.052,0,0,1-.1,0A.052.052,0,0,1,2.905,2.355Z" fill="#49301a"/>
    </g>
    <path d="M1.273,3.185a.234.234,0,1,1-.233-.234A.234.234,0,0,1,1.273,3.185Z" fill="#1a1a1a"/>
    <path d="M3.037,3.185A.234.234,0,1,1,2.8,2.951.233.233,0,0,1,3.037,3.185Z" fill="#1a1a1a"/>
    <path d="M3.872,2.82v.329a.04.04,0,0,1-.039.04H3.707a.04.04,0,0,1-.04-.04V2H1.753l-.1-.25L1.59,2l-.178-.4L1.182,2H.205V3.1a.039.039,0,0,1-.039.039H.039A.039.039,0,0,1,0,3.1V2.817H.008V1.389c0-.042,0-.085.006-.126A1.373,1.373,0,0,1,.2.681,1.388,1.388,0,0,1,1.4,0H2.463A1.389,1.389,0,0,1,3.85,1.3q0,.043,0,.087V2.817Z"/>
  </g>
</svg>
