<svg xmlns="http://www.w3.org/2000/svg" viewBox="0 0 35.9 85.8">
    <rect y="4.6" width="35.9" height="81.24" rx="3.1" fill="#a9a9aa"/>
    <g fill="#7f8080">
        <path d="M28.1,4.5H7.6A2.2,2.2,0,0,1,9.8,2.3h2.5V1.4A1.4,1.4,0,0,1,13.7,0h8.1a1.4,1.4,0,0,1,1.4,1.4v.9h2.7A2.2,2.2,0,0,1,28.1,4.5Z"/>
        <rect x="3.1" y="8.3" width="4.1" height="4.1" rx="0.9"/>
        <rect x="9.4" y="8.3" width="4.1" height="4.1" rx="0.9"/>
        <rect x="15.8" y="8.3" width="4.1" height="4.1" rx="0.9"/>
        <rect x="22" y="8.3" width="4.1" height="4.1" rx="0.9"/>
        <rect x="28.3" y="8.3" width="4.1" height="4.1" rx="0.9"/>
        <rect x="3.1" y="13.8" width="4.1" height="4.1" rx="0.9"/>
        <rect x="9.4" y="13.8" width="4.1" height="4.1" rx="0.9"/>
        <rect x="15.8" y="13.8" width="4.1" height="4.1" rx="0.9"/>
        <rect x="22" y="13.8" width="4.1" height="4.1" rx="0.9"/>
        <rect x="28.3" y="13.8" width="4.1" height="4.1" rx="0.9"/>
        <rect x="3.1" y="19.4" width="4.1" height="4.1" rx="0.9"/>
        <rect x="9.4" y="19.4" width="4.1" height="4.1" rx="0.9"/>
        <rect x="15.8" y="19.4" width="4.1" height="4.1" rx="0.9"/>
        <rect x="22" y="19.4" width="4.1" height="4.1" rx="0.9"/>
        <rect x="28.3" y="19.4" width="4.1" height="4.1" rx="0.9"/>
        <rect x="3.1" y="24.9" width="4.1" height="4.1" rx="0.9"/>
        <rect x="9.4" y="24.9" width="4.1" height="4.1" rx="0.9"/>
        <rect x="15.8" y="24.9" width="4.1" height="4.1" rx="0.9"/>
        <rect x="22" y="24.9" width="4.1" height="4.1" rx="0.9"/>
        <rect x="28.3" y="24.9" width="4.1" height="4.1" rx="0.9"/>
        <rect x="3.1" y="30.4" width="4.1" height="4.1" rx="0.9"/>
        <rect x="9.4" y="30.4" width="4.1" height="4.1" rx="0.9"/>
        <rect x="15.8" y="30.4" width="4.1" height="4.1" rx="0.9"/>
        <rect x="22" y="30.4" width="4.1" height="4.1" rx="0.9"/>
        <rect x="28.3" y="30.4" width="4.1" height="4.1" rx="0.9"/>
        <rect x="3.1" y="36" width="4.1" height="4.1" rx="0.9"/>
        <rect x="9.4" y="36" width="4.1" height="4.1" rx="0.9"/>
        <rect x="15.8" y="36" width="4.1" height="4.1" rx="0.9"/>
        <rect x="22" y="36" width="4.1" height="4.1" rx="0.9"/>
        <rect x="28.3" y="36" width="4.1" height="4.1" rx="0.9"/>
        <rect x="3.1" y="41.5" width="4.1" height="4.1" rx="0.9"/>
        <rect x="9.4" y="41.5" width="4.1" height="4.1" rx="0.9"/>
        <rect x="15.8" y="41.5" width="4.1" height="4.1" rx="0.9"/>
        <rect x="22" y="41.5" width="4.1" height="4.1" rx="0.9"/>
        <rect x="28.3" y="41.5" width="4.1" height="4.1" rx="0.9"/>
        <rect x="3.1" y="47.1" width="4.1" height="4.1" rx="0.9"/>
        <rect x="9.4" y="47.1" width="4.1" height="4.1" rx="0.9"/>
        <rect x="15.8" y="47.1" width="4.1" height="4.1" rx="0.9"/>
        <rect x="22" y="47.1" width="4.1" height="4.1" rx="0.9"/>
        <rect x="28.3" y="47.1" width="4.1" height="4.1" rx="0.9"/>
        <rect x="3.1" y="52.6" width="4.1" height="4.1" rx="0.9"/>
        <rect x="9.4" y="52.6" width="4.1" height="4.1" rx="0.9"/>
        <rect x="15.8" y="52.6" width="4.1" height="4.1" rx="0.9"/>
        <rect x="22" y="52.6" width="4.1" height="4.1" rx="0.9"/>
        <rect x="28.3" y="52.6" width="4.1" height="4.1" rx="0.9"/>
        <rect x="3.1" y="58.1" width="4.1" height="4.1" rx="0.9"/>
        <rect x="9.4" y="58.1" width="4.1" height="4.1" rx="0.9"/>
        <rect x="15.8" y="58.1" width="4.1" height="4.1" rx="0.9"/>
        <rect x="22" y="58.1" width="4.1" height="4.1" rx="0.9"/>
        <rect x="28.3" y="58.1" width="4.1" height="4.1" rx="0.9"/>
        <rect x="3.1" y="63.7" width="4.1" height="4.1" rx="0.9"/>
        <rect x="9.4" y="63.7" width="4.1" height="4.1" rx="0.9"/>
        <rect x="15.8" y="63.7" width="4.1" height="4.1" rx="0.9"/>
        <rect x="22" y="63.7" width="4.1" height="4.1" rx="0.9"/>
        <rect x="28.3" y="63.7" width="4.1" height="4.1" rx="0.9"/>
        <rect x="3.1" y="69.2" width="4.1" height="4.1" rx="0.9"/>
        <rect x="9.4" y="69.2" width="4.1" height="4.1" rx="0.9"/>
        <rect x="15.8" y="69.2" width="4.1" height="4.1" rx="0.9"/>
        <rect x="22" y="69.2" width="4.1" height="4.1" rx="0.9"/>
        <rect x="28.3" y="69.2" width="4.1" height="4.1" rx="0.9"/>
        <path d="M6.6,75.8a2.3,2.3,0,0,0-2.3,2.3v7.7h6v-10Z"/>
        <path d="M14.7,75.8H11.1v10H17V78.1A2.3,2.3,0,0,0,14.7,75.8Z"/>
        <path d="M21.4,75.8a2.3,2.3,0,0,0-2.3,2.3v7.7H25v-10Z"/>
        <path d="M29.5,75.8H25.8v10h6V78.1A2.3,2.3,0,0,0,29.5,75.8Z"/>
    </g>
</svg>
