<svg xmlns="http://www.w3.org/2000/svg" viewBox="0 0 33.5 108">
  <g>
    <path d="M32,0H1.5A1.5,1.5,0,0,0,0,1.5v105A1.5,1.5,0,0,0,1.5,108H32a1.5,1.5,0,0,0,1.5-1.5V1.5A1.5,1.5,0,0,0,32,0Z" fill="#e8dfb8"/>
    <path d="M0,106.5A1.5,1.5,0,0,0,1.5,108H32a1.5,1.5,0,0,0,1.5-1.5v-2.2H0Z" fill="#cdc6ab"/>
    <path d="M0,2.2V83.8H33.5V2.2ZM29.4,42H27.5a.5.5,0,0,1-.5-.5V39.4a.5.5,0,0,1,.5-.5h1.9a.5.5,0,0,1,.5.5v2.1A.5.5,0,0,1,29.4,42Zm.5,2.1v2.2a.5.5,0,0,1-.5.5H27.5a.5.5,0,0,1-.5-.5V44.1a.5.5,0,0,1,.5-.5h1.9A.6.6,0,0,1,29.9,44.1Zm-.5-6.8H27.5a.5.5,0,0,1-.5-.5V34.6a.5.5,0,0,1,.5-.5h1.9a.5.5,0,0,1,.5.5v2.2A.6.6,0,0,1,29.4,37.3Zm0-4.6H27.5a.5.5,0,0,1-.5-.5V30a.5.5,0,0,1,.5-.4h1.9c.2,0,.5.2.5.4v2.2A.5.5,0,0,1,29.4,32.7Zm0-4.8H27.5a.5.5,0,0,1-.5-.4V25.3a.5.5,0,0,1,.5-.5h1.9a.5.5,0,0,1,.5.5v2.2C29.9,27.7,29.6,27.9,29.4,27.9Zm0-4.7H27.5a.5.5,0,0,1-.5-.5V20.5a.5.5,0,0,1,.5-.5h1.9a.5.5,0,0,1,.5.5v2.2A.6.6,0,0,1,29.4,23.2ZM27,6.3a.5.5,0,0,1,.5-.5h1.9a.5.5,0,0,1,.5.5V8.5c0,.2-.3.4-.5.4H27.5a.5.5,0,0,1-.5-.4ZM27,11a.5.5,0,0,1,.5-.4h1.9c.2,0,.5.2.5.4v2.2a.5.5,0,0,1-.5.5H27.5a.5.5,0,0,1-.5-.5Zm0,4.8a.5.5,0,0,1,.5-.5h1.9a.5.5,0,0,1,.5.5V18a.5.5,0,0,1-.5.5H27.5A.5.5,0,0,1,27,18Zm0,42.7a.5.5,0,0,1,.5-.5h1.9a.6.6,0,0,1,.5.5v2.2a.5.5,0,0,1-.5.5H27.5a.5.5,0,0,1-.5-.5Zm0,4.8a.5.5,0,0,1,.5-.5h1.9a.5.5,0,0,1,.5.5v2.2a.5.5,0,0,1-.5.5H27.5a.5.5,0,0,1-.5-.5ZM24.7,42H22.8a.5.5,0,0,1-.5-.5V39.4a.5.5,0,0,1,.5-.5h1.9a.5.5,0,0,1,.5.5v2.1A.5.5,0,0,1,24.7,42Zm.5,2.1v2.2a.5.5,0,0,1-.5.5H22.8a.5.5,0,0,1-.5-.5V44.1a.5.5,0,0,1,.5-.5h1.9A.5.5,0,0,1,25.2,44.1Zm-.5-6.8H22.8a.5.5,0,0,1-.5-.5V34.6a.5.5,0,0,1,.5-.5h1.9a.5.5,0,0,1,.5.5v2.2A.5.5,0,0,1,24.7,37.3Zm0-4.6H22.8a.5.5,0,0,1-.5-.5V30a.5.5,0,0,1,.5-.4h1.9a.5.5,0,0,1,.5.4v2.2A.5.5,0,0,1,24.7,32.7Zm0-4.8H22.8a.5.5,0,0,1-.5-.4V25.3a.5.5,0,0,1,.5-.5h1.9a.5.5,0,0,1,.5.5v2.2A.5.5,0,0,1,24.7,27.9Zm0-4.7H22.8a.5.5,0,0,1-.5-.5V20.5a.5.5,0,0,1,.5-.5h1.9a.5.5,0,0,1,.5.5v2.2A.5.5,0,0,1,24.7,23.2ZM22.3,6.3a.5.5,0,0,1,.5-.5h1.9a.5.5,0,0,1,.5.5V8.5a.5.5,0,0,1-.5.4H22.8a.5.5,0,0,1-.5-.4Zm0,4.7a.5.5,0,0,1,.5-.4h1.9a.5.5,0,0,1,.5.4v2.2a.5.5,0,0,1-.5.5H22.8a.5.5,0,0,1-.5-.5Zm0,4.8a.5.5,0,0,1,.5-.5h1.9a.5.5,0,0,1,.5.5V18a.5.5,0,0,1-.5.5H22.8a.5.5,0,0,1-.5-.5Zm0,42.7a.5.5,0,0,1,.5-.5h1.9a.5.5,0,0,1,.5.5v2.2a.5.5,0,0,1-.5.5H22.8a.5.5,0,0,1-.5-.5Zm0,4.8a.5.5,0,0,1,.5-.5h1.9a.5.5,0,0,1,.5.5v2.2a.5.5,0,0,1-.5.5H22.8a.5.5,0,0,1-.5-.5ZM20,42H18.1a.5.5,0,0,1-.5-.5V39.4a.5.5,0,0,1,.5-.5H20a.5.5,0,0,1,.5.5v2.1A.5.5,0,0,1,20,42Zm.5,2.1v2.2a.5.5,0,0,1-.5.5H18.1a.5.5,0,0,1-.5-.5V44.1a.5.5,0,0,1,.5-.5H20A.5.5,0,0,1,20.5,44.1ZM20,37.3H18.1a.5.5,0,0,1-.5-.5V34.6a.5.5,0,0,1,.5-.5H20a.5.5,0,0,1,.5.5v2.2A.5.5,0,0,1,20,37.3Zm0-4.6H18.1a.5.5,0,0,1-.5-.5V30a.5.5,0,0,1,.5-.4H20a.5.5,0,0,1,.5.4v2.2A.5.5,0,0,1,20,32.7Zm0-4.8H18.1a.5.5,0,0,1-.5-.4V25.3a.5.5,0,0,1,.5-.5H20a.5.5,0,0,1,.5.5v2.2A.5.5,0,0,1,20,27.9Zm0-4.7H18.1a.5.5,0,0,1-.5-.5V20.5a.5.5,0,0,1,.5-.5H20a.5.5,0,0,1,.5.5v2.2A.5.5,0,0,1,20,23.2ZM17.6,6.3a.5.5,0,0,1,.5-.5H20a.5.5,0,0,1,.5.5V8.5a.5.5,0,0,1-.5.4H18.1a.5.5,0,0,1-.5-.4Zm0,4.7a.5.5,0,0,1,.5-.4H20a.5.5,0,0,1,.5.4v2.2a.5.5,0,0,1-.5.5H18.1a.5.5,0,0,1-.5-.5Zm0,4.8a.5.5,0,0,1,.5-.5H20a.5.5,0,0,1,.5.5V18a.5.5,0,0,1-.5.5H18.1a.5.5,0,0,1-.5-.5Zm0,42.7a.5.5,0,0,1,.5-.5H20a.5.5,0,0,1,.5.5v2.2a.5.5,0,0,1-.5.5H18.1a.5.5,0,0,1-.5-.5Zm0,4.8a.5.5,0,0,1,.5-.5H20a.5.5,0,0,1,.5.5v2.2a.5.5,0,0,1-.5.5H18.1a.5.5,0,0,1-.5-.5ZM15.3,42H13.4a.5.5,0,0,1-.5-.5V39.4a.5.5,0,0,1,.5-.5h1.9a.5.5,0,0,1,.5.5v2.1A.5.5,0,0,1,15.3,42Zm.5,2.1v2.2a.5.5,0,0,1-.5.5H13.4a.5.5,0,0,1-.5-.5V44.1a.5.5,0,0,1,.5-.5h1.9A.6.6,0,0,1,15.8,44.1Zm-.5-6.8H13.4a.5.5,0,0,1-.5-.5V34.6a.5.5,0,0,1,.5-.5h1.9a.5.5,0,0,1,.5.5v2.2A.6.6,0,0,1,15.3,37.3Zm0-4.6H13.4a.5.5,0,0,1-.5-.5V30a.5.5,0,0,1,.5-.4h1.9c.2,0,.5.2.5.4v2.2A.5.5,0,0,1,15.3,32.7Zm0-4.8H13.4a.5.5,0,0,1-.5-.4V25.3a.5.5,0,0,1,.5-.5h1.9a.5.5,0,0,1,.5.5v2.2C15.8,27.7,15.5,27.9,15.3,27.9Zm0-4.7H13.4a.5.5,0,0,1-.5-.5V20.5a.5.5,0,0,1,.5-.5h1.9a.5.5,0,0,1,.5.5v2.2A.6.6,0,0,1,15.3,23.2ZM12.9,6.3a.5.5,0,0,1,.5-.5h1.9a.5.5,0,0,1,.5.5V8.5c0,.2-.3.4-.5.4H13.4a.5.5,0,0,1-.5-.4Zm0,4.7a.5.5,0,0,1,.5-.4h1.9c.2,0,.5.2.5.4v2.2a.5.5,0,0,1-.5.5H13.4a.5.5,0,0,1-.5-.5Zm0,4.8a.5.5,0,0,1,.5-.5h1.9a.5.5,0,0,1,.5.5V18a.5.5,0,0,1-.5.5H13.4a.5.5,0,0,1-.5-.5Zm0,42.7a.5.5,0,0,1,.5-.5h1.9a.6.6,0,0,1,.5.5v2.2a.5.5,0,0,1-.5.5H13.4a.5.5,0,0,1-.5-.5Zm0,4.8a.5.5,0,0,1,.5-.5h1.9a.5.5,0,0,1,.5.5v2.2a.5.5,0,0,1-.5.5H13.4a.5.5,0,0,1-.5-.5ZM10.6,42H8.7a.5.5,0,0,1-.5-.5V39.4a.5.5,0,0,1,.5-.5h1.9a.5.5,0,0,1,.5.5v2.1A.5.5,0,0,1,10.6,42Zm.5,2.1v2.2a.5.5,0,0,1-.5.5H8.7a.5.5,0,0,1-.5-.5V44.1a.5.5,0,0,1,.5-.5h1.9A.6.6,0,0,1,11.1,44.1Zm-.5-6.8H8.7a.5.5,0,0,1-.5-.5V34.6a.5.5,0,0,1,.5-.5h1.9a.5.5,0,0,1,.5.5v2.2A.6.6,0,0,1,10.6,37.3Zm0-4.6H8.7a.5.5,0,0,1-.5-.5V30a.5.5,0,0,1,.5-.4h1.9c.2,0,.5.2.5.4v2.2A.5.5,0,0,1,10.6,32.7Zm0-4.8H8.7a.5.5,0,0,1-.5-.4V25.3a.5.5,0,0,1,.5-.5h1.9a.5.5,0,0,1,.5.5v2.2C11.1,27.7,10.8,27.9,10.6,27.9Zm0-4.7H8.7a.5.5,0,0,1-.5-.5V20.5a.5.5,0,0,1,.5-.5h1.9a.5.5,0,0,1,.5.5v2.2A.6.6,0,0,1,10.6,23.2ZM8.2,6.3a.5.5,0,0,1,.5-.5h1.9a.5.5,0,0,1,.5.5V8.5c0,.2-.3.4-.5.4H8.7a.5.5,0,0,1-.5-.4Zm0,4.7a.5.5,0,0,1,.5-.4h1.9c.2,0,.5.2.5.4v2.2a.5.5,0,0,1-.5.5H8.7a.5.5,0,0,1-.5-.5Zm0,4.8a.5.5,0,0,1,.5-.5h1.9a.5.5,0,0,1,.5.5V18a.5.5,0,0,1-.5.5H8.7a.5.5,0,0,1-.5-.5Zm0,42.7a.5.5,0,0,1,.5-.5h1.9a.6.6,0,0,1,.5.5v2.2a.5.5,0,0,1-.5.5H8.7a.5.5,0,0,1-.5-.5Zm0,4.8a.5.5,0,0,1,.5-.5h1.9a.5.5,0,0,1,.5.5v2.2a.5.5,0,0,1-.5.5H8.7a.5.5,0,0,1-.5-.5ZM5.9,42H4a.5.5,0,0,1-.5-.5V39.4a.5.5,0,0,1,.5-.5H5.9a.5.5,0,0,1,.5.5v2.1A.5.5,0,0,1,5.9,42Zm.5,2.1v2.2a.5.5,0,0,1-.5.5H4a.5.5,0,0,1-.5-.5V44.1a.5.5,0,0,1,.5-.5H5.9A.5.5,0,0,1,6.4,44.1Zm-.5-6.8H4a.5.5,0,0,1-.5-.5V34.6a.5.5,0,0,1,.5-.5H5.9a.5.5,0,0,1,.5.5v2.2A.5.5,0,0,1,5.9,37.3Zm0-4.6H4a.5.5,0,0,1-.5-.5V30a.5.5,0,0,1,.5-.4H5.9a.5.5,0,0,1,.5.4v2.2A.5.5,0,0,1,5.9,32.7Zm0-4.8H4a.5.5,0,0,1-.5-.4V25.3a.5.5,0,0,1,.5-.5H5.9a.5.5,0,0,1,.5.5v2.2A.5.5,0,0,1,5.9,27.9Zm0-4.7H4a.5.5,0,0,1-.5-.5V20.5A.5.5,0,0,1,4,20H5.9a.5.5,0,0,1,.5.5v2.2A.5.5,0,0,1,5.9,23.2ZM3.5,6.3A.5.5,0,0,1,4,5.8H5.9a.5.5,0,0,1,.5.5V8.5c0,.2-.3.4-.5.4H4a.5.5,0,0,1-.5-.4Zm0,4.7a.5.5,0,0,1,.5-.4H5.9c.2,0,.5.2.5.4v2.2a.5.5,0,0,1-.5.5H4a.5.5,0,0,1-.5-.5Zm0,4.8a.5.5,0,0,1,.5-.5H5.9a.5.5,0,0,1,.5.5V18a.5.5,0,0,1-.5.5H4a.5.5,0,0,1-.5-.5Zm0,42.7A.5.5,0,0,1,4,58H5.9a.6.6,0,0,1,.5.5v2.2a.5.5,0,0,1-.5.5H4a.5.5,0,0,1-.5-.5Zm0,4.8a.5.5,0,0,1,.5-.5H5.9a.5.5,0,0,1,.5.5v2.2a.5.5,0,0,1-.5.5H4a.5.5,0,0,1-.5-.5Zm0,4.8a.5.5,0,0,1,.5-.5H5.9a.5.5,0,0,1,.5.5v2.2c0,.2-.3.4-.5.4H4a.5.5,0,0,1-.5-.4ZM6.4,79.7a.5.5,0,0,1-.5.5H4a.5.5,0,0,1-.5-.5V77.5A.5.5,0,0,1,4,77H5.9a.5.5,0,0,1,.5.5Zm0-4.8a.5.5,0,0,1-.5.5H4a.5.5,0,0,1-.5-.5V72.7a.5.5,0,0,1,.5-.4H5.9a.5.5,0,0,1,.5.4Zm0-19.1a.5.5,0,0,1-.5.5H4.1a.5.5,0,0,1-.5-.5V53.6a.5.5,0,0,1,.5-.4H5.9a.5.5,0,0,1,.5.4Zm0-4.7a.5.5,0,0,1-.5.4H4.1a.5.5,0,0,1-.5-.4V48.9a.5.5,0,0,1,.5-.5H5.9a.5.5,0,0,1,.5.5Zm1.8,17a.5.5,0,0,1,.5-.5h1.9a.5.5,0,0,1,.5.5v2.2c0,.2-.3.4-.5.4H8.7a.5.5,0,0,1-.5-.4Zm2.9,11.6a.5.5,0,0,1-.5.5H8.7a.5.5,0,0,1-.5-.5V77.5a.5.5,0,0,1,.5-.5h1.9a.6.6,0,0,1,.5.5Zm0-4.8a.5.5,0,0,1-.5.5H8.7a.5.5,0,0,1-.5-.5V72.7a.5.5,0,0,1,.5-.4h1.9c.2,0,.5.2.5.4Zm0-19.1a.5.5,0,0,1-.5.5H8.8a.5.5,0,0,1-.5-.5V53.6a.5.5,0,0,1,.5-.4h1.8a.5.5,0,0,1,.5.4Zm0-4.7a.5.5,0,0,1-.5.4H8.8a.5.5,0,0,1-.5-.4V48.9a.5.5,0,0,1,.5-.5h1.8a.5.5,0,0,1,.5.5Zm1.8,17a.5.5,0,0,1,.5-.5h1.9a.5.5,0,0,1,.5.5v2.2c0,.2-.3.4-.5.4H13.4a.5.5,0,0,1-.5-.4Zm2.9,11.6a.5.5,0,0,1-.5.5H13.4a.5.5,0,0,1-.5-.5V77.5a.5.5,0,0,1,.5-.5h1.9a.6.6,0,0,1,.5.5Zm0-4.8a.5.5,0,0,1-.5.5H13.4a.5.5,0,0,1-.5-.5V72.7a.5.5,0,0,1,.5-.4h1.9c.2,0,.5.2.5.4Zm0-19.1a.5.5,0,0,1-.5.5H13.5a.5.5,0,0,1-.5-.5V53.6a.5.5,0,0,1,.5-.4h1.8a.5.5,0,0,1,.5.4Zm0-4.7a.5.5,0,0,1-.5.4H13.5a.5.5,0,0,1-.5-.4V48.9a.5.5,0,0,1,.5-.5h1.8a.5.5,0,0,1,.5.5Zm1.8,17a.5.5,0,0,1,.5-.5H20a.5.5,0,0,1,.5.5v2.2a.5.5,0,0,1-.5.4H18.1a.5.5,0,0,1-.5-.4Zm2.9,11.6a.5.5,0,0,1-.5.5H18.1a.5.5,0,0,1-.5-.5V77.5a.5.5,0,0,1,.5-.5H20a.5.5,0,0,1,.5.5Zm0-4.8a.5.5,0,0,1-.5.5H18.1a.5.5,0,0,1-.5-.5V72.7a.5.5,0,0,1,.5-.4H20a.5.5,0,0,1,.5.4Zm0-19.1a.5.5,0,0,1-.4.5H18.2a.5.5,0,0,1-.5-.5V53.6a.5.5,0,0,1,.5-.4h1.9a.4.4,0,0,1,.4.4Zm0-4.7a.4.4,0,0,1-.4.4H18.2a.5.5,0,0,1-.5-.4V48.9a.5.5,0,0,1,.5-.5h1.9a.5.5,0,0,1,.4.5Zm1.8,17a.5.5,0,0,1,.5-.5h1.9a.5.5,0,0,1,.5.5v2.2a.5.5,0,0,1-.5.4H22.8a.5.5,0,0,1-.5-.4Zm2.9,11.6a.5.5,0,0,1-.5.5H22.8a.5.5,0,0,1-.5-.5V77.5a.5.5,0,0,1,.5-.5h1.9a.5.5,0,0,1,.5.5Zm0-4.8a.5.5,0,0,1-.5.5H22.8a.5.5,0,0,1-.5-.5V72.7a.5.5,0,0,1,.5-.4h1.9a.5.5,0,0,1,.5.4Zm0-19.1a.5.5,0,0,1-.5.5H22.9a.5.5,0,0,1-.5-.5V53.6a.5.5,0,0,1,.5-.4h1.8a.5.5,0,0,1,.5.4Zm0-4.7a.5.5,0,0,1-.5.4H22.9a.5.5,0,0,1-.5-.4V48.9a.5.5,0,0,1,.5-.5h1.8a.5.5,0,0,1,.5.5Zm1.8,17a.5.5,0,0,1,.5-.5h1.9a.5.5,0,0,1,.5.5v2.2c0,.2-.3.4-.5.4H27.5a.5.5,0,0,1-.5-.4Zm2.9,11.6a.5.5,0,0,1-.5.5H27.5a.5.5,0,0,1-.5-.5V77.5a.5.5,0,0,1,.5-.5h1.9a.6.6,0,0,1,.5.5Zm0-4.8a.5.5,0,0,1-.5.5H27.5a.5.5,0,0,1-.5-.5V72.7a.5.5,0,0,1,.5-.4h1.9c.2,0,.5.2.5.4Zm0-19.1a.5.5,0,0,1-.5.5H27.6a.5.5,0,0,1-.5-.5V53.6a.5.5,0,0,1,.5-.4h1.8a.5.5,0,0,1,.5.4Zm0-4.7a.5.5,0,0,1-.5.4H27.6a.5.5,0,0,1-.5-.4V48.9a.5.5,0,0,1,.5-.5h1.8a.5.5,0,0,1,.5.5Z" fill="#cdc6ab"/>
  </g>
</svg>
