<svg xmlns="http://www.w3.org/2000/svg" viewBox="0 0 43 127.8">
  <g>
    <path d="M43,4.3V123.5a4.3,4.3,0,0,1-4.3,4.3H4.3A4.3,4.3,0,0,1,0,123.5V4.3A4.3,4.3,0,0,1,4.3,0h.8V2.6H37.8V0h.9A4.3,4.3,0,0,1,43,4.3Z" fill="#a9a9aa"/>
    <g fill="#fff">
      <path d="M9.8,6.1V18H3.5V6.8a.7.7,0,0,1,.7-.7Z"/>
      <path d="M9.8,101.4v12.1H3.5V101.4Z"/>
      <rect x="11" y="101.4" width="6.3" height="12.15"/>
      <rect x="18.5" y="101.4" width="6.1" height="12.15"/>
      <rect x="25.7" y="101.4" width="6.3" height="12.15"/>
      <path d="M39.7,101.4v12.1H33.2V101.4Z"/>
      <rect x="3.5" y="87.6" width="6.3" height="12.62"/>
      <rect x="11" y="87.6" width="6.3" height="12.62"/>
      <rect x="18.5" y="87.6" width="6.1" height="12.62"/>
      <rect x="25.7" y="87.6" width="6.3" height="12.62"/>
      <rect x="33.2" y="87.6" width="6.5" height="12.62"/>
      <rect x="3.5" y="74.3" width="6.3" height="12.15"/>
      <rect x="11" y="74.3" width="6.3" height="12.15"/>
      <rect x="18.5" y="74.3" width="6.1" height="12.15"/>
      <rect x="25.7" y="74.3" width="6.3" height="12.15"/>
      <rect x="33.2" y="74.3" width="6.5" height="12.15"/>
      <rect x="3.5" y="60.5" width="6.3" height="12.62"/>
      <rect x="11" y="60.5" width="6.3" height="12.62"/>
      <rect x="18.5" y="60.5" width="6.1" height="12.62"/>
      <rect x="25.7" y="60.5" width="6.3" height="12.62"/>
      <rect x="33.2" y="60.5" width="6.5" height="12.62"/>
      <rect x="3.5" y="46.7" width="6.3" height="12.62"/>
      <rect x="11" y="46.7" width="6.3" height="12.62"/>
      <rect x="18.5" y="46.7" width="6.1" height="12.62"/>
      <rect x="25.7" y="46.7" width="6.3" height="12.62"/>
      <rect x="33.2" y="46.7" width="6.5" height="12.62"/>
      <rect x="3.5" y="32.9" width="6.3" height="12.62"/>
      <rect x="11" y="32.9" width="6.3" height="12.62"/>
      <rect x="18.5" y="32.9" width="6.1" height="12.62"/>
      <rect x="25.7" y="32.9" width="6.3" height="12.62"/>
      <rect x="33.2" y="32.9" width="6.5" height="12.62"/>
      <rect x="3.5" y="19.2" width="6.3" height="12.62"/>
      <rect x="11" y="19.2" width="6.3" height="12.62"/>
      <rect x="18.5" y="19.2" width="6.1" height="12.62"/>
      <rect x="25.7" y="19.2" width="6.3" height="12.62"/>
      <rect x="33.2" y="19.2" width="6.5" height="12.62"/>
      <rect x="11" y="6.1" width="6.3" height="11.92"/>
      <rect x="18.5" y="6.1" width="6.1" height="11.92"/>
      <rect x="25.7" y="6.1" width="6.3" height="11.92"/>
      <path d="M39.7,6.8V18H33.2V6.1H39A.7.7,0,0,1,39.7,6.8Z"/>
    </g>
    <g fill="#ddd">
      <rect x="3.5" y="116.6" width="6.3" height="6.31" rx="1.5"/>
      <rect x="11" y="116.6" width="6.3" height="6.31" rx="1.5"/>
      <rect x="18.5" y="116.6" width="6.3" height="6.31" rx="1.5"/>
      <rect x="25.9" y="116.6" width="6.3" height="6.31" rx="1.5"/>
      <rect x="33.4" y="116.6" width="6.3" height="6.31" rx="1.5"/>
    </g>
  </g>
</svg>
