<svg xmlns="http://www.w3.org/2000/svg" viewBox="0 0 62.7 157.4">
    <rect x="2.7" width="57.3" height="157.42" rx="3" fill="#fff"/>
    <path d="M57,0H5.7a3,3,0,0,0-3,3V154.4a3,3,0,0,0,3,3H57a2.9,2.9,0,0,0,3-3V3A2.9,2.9,0,0,0,57,0ZM49.7,9.8a1.1,1.1,0,0,1,1.1-1.1h4.4a1.1,1.1,0,0,1,1.1,1.1v5a1.1,1.1,0,0,1-1.1,1.1H50.8a1.1,1.1,0,0,1-1.1-1.1Zm0,10.9a1.1,1.1,0,0,1,1.1-1.1h4.4a1.1,1.1,0,0,1,1.1,1.1v5a1.1,1.1,0,0,1-1.1,1.1H50.8a1.1,1.1,0,0,1-1.1-1.1Zm0,10.9a1.1,1.1,0,0,1,1.1-1.1h4.4a1.1,1.1,0,0,1,1.1,1.1v5.1a1.1,1.1,0,0,1-1.1,1.1H50.8a1.1,1.1,0,0,1-1.1-1.1Zm-.1,47.8a1.1,1.1,0,0,1,1.1-1.1H55a1.1,1.1,0,0,1,1.1,1.1v5A1,1,0,0,1,55,85.5H50.7a1,1,0,0,1-1.1-1.1Zm0,11a1,1,0,0,1,1.1-1.1H55a1,1,0,0,1,1.1,1.1v5A1.1,1.1,0,0,1,55,96.5H50.7a1.1,1.1,0,0,1-1.1-1.1ZM39,9.8a1.1,1.1,0,0,1,1.1-1.1h4.3a1.1,1.1,0,0,1,1.1,1.1v5a1.1,1.1,0,0,1-1.1,1.1H40.1A1.1,1.1,0,0,1,39,14.8Zm0,10.9a1.1,1.1,0,0,1,1.1-1.1h4.3a1.1,1.1,0,0,1,1.1,1.1v5a1.1,1.1,0,0,1-1.1,1.1H40.1A1.1,1.1,0,0,1,39,25.7Zm0,10.9a1.1,1.1,0,0,1,1.1-1.1h4.3a1.1,1.1,0,0,1,1.1,1.1v5.1a1.1,1.1,0,0,1-1.1,1.1H40.1A1.1,1.1,0,0,1,39,36.7Zm-.1,47.8A1.1,1.1,0,0,1,40,78.3h4.3a1.1,1.1,0,0,1,1.1,1.1v5a1,1,0,0,1-1.1,1.1H40a1,1,0,0,1-1.1-1.1Zm0,11A1,1,0,0,1,40,89.3h4.3a1,1,0,0,1,1.1,1.1v5a1.1,1.1,0,0,1-1.1,1.1H40a1.1,1.1,0,0,1-1.1-1.1ZM28.1,9.5a1.1,1.1,0,0,1,1.1-1.1h4.4a1.1,1.1,0,0,1,1.1,1.1v5.1a1.1,1.1,0,0,1-1.1,1.1H29.2a1.1,1.1,0,0,1-1.1-1.1Zm0,11a1.1,1.1,0,0,1,1.1-1.1h4.4a1.1,1.1,0,0,1,1.1,1.1v5a1.1,1.1,0,0,1-1.1,1.1H29.2a1.1,1.1,0,0,1-1.1-1.1Zm0,10.9a1.1,1.1,0,0,1,1.1-1.1h4.4a1.1,1.1,0,0,1,1.1,1.1v5a1.1,1.1,0,0,1-1.1,1.1H29.2a1.1,1.1,0,0,1-1.1-1.1ZM28,79.2a1.1,1.1,0,0,1,1.1-1.1h4.3a1.1,1.1,0,0,1,1.2,1.1v5a1.1,1.1,0,0,1-1.2,1.1H29.1A1.1,1.1,0,0,1,28,84.2Zm0,10.9A1.1,1.1,0,0,1,29.1,89h4.3a1.1,1.1,0,0,1,1.2,1.1v5a1.1,1.1,0,0,1-1.2,1.1H29.1A1.1,1.1,0,0,1,28,95.1ZM17.4,9.5a1.1,1.1,0,0,1,1.1-1.1h4.3a1.1,1.1,0,0,1,1.1,1.1v5.1a1.1,1.1,0,0,1-1.1,1.1H18.5a1.1,1.1,0,0,1-1.1-1.1Zm0,11a1.1,1.1,0,0,1,1.1-1.1h4.3a1.1,1.1,0,0,1,1.1,1.1v5a1.1,1.1,0,0,1-1.1,1.1H18.5a1.1,1.1,0,0,1-1.1-1.1Zm0,10.9a1.1,1.1,0,0,1,1.1-1.1h4.3a1.1,1.1,0,0,1,1.1,1.1v5a1.1,1.1,0,0,1-1.1,1.1H18.5a1.1,1.1,0,0,1-1.1-1.1Zm-.1,47.8a1.1,1.1,0,0,1,1.1-1.1h4.3a1.1,1.1,0,0,1,1.1,1.1v5a1.1,1.1,0,0,1-1.1,1.1H18.4a1.1,1.1,0,0,1-1.1-1.1Zm0,10.9A1.1,1.1,0,0,1,18.4,89h4.3a1.1,1.1,0,0,1,1.1,1.1v5a1.1,1.1,0,0,1-1.1,1.1H18.4a1.1,1.1,0,0,1-1.1-1.1ZM6.6,9.5A1.1,1.1,0,0,1,7.7,8.4h4.4a1.1,1.1,0,0,1,1.1,1.1v5.1a1.1,1.1,0,0,1-1.1,1.1H7.7a1.1,1.1,0,0,1-1.1-1.1Zm0,11a1.1,1.1,0,0,1,1.1-1.1h4.4a1.1,1.1,0,0,1,1.1,1.1v5a1.1,1.1,0,0,1-1.1,1.1H7.7a1.1,1.1,0,0,1-1.1-1.1Zm0,10.9a1.1,1.1,0,0,1,1.1-1.1h4.4a1.1,1.1,0,0,1,1.1,1.1v5a1.1,1.1,0,0,1-1.1,1.1H7.7a1.1,1.1,0,0,1-1.1-1.1ZM6.5,79.2a1.1,1.1,0,0,1,1.1-1.1h4.3A1.1,1.1,0,0,1,13,79.2v5a1.1,1.1,0,0,1-1.1,1.1H7.6a1.1,1.1,0,0,1-1.1-1.1Zm0,10.9A1.1,1.1,0,0,1,7.6,89h4.3A1.1,1.1,0,0,1,13,90.1v5a1.1,1.1,0,0,1-1.1,1.1H7.6a1.1,1.1,0,0,1-1.1-1.1Zm0,11A1,1,0,0,1,7.6,100h4.3a1,1,0,0,1,1.1,1.1v5a1.1,1.1,0,0,1-1.1,1.1H7.6a1.1,1.1,0,0,1-1.1-1.1Zm6.6,27.1a1.1,1.1,0,0,1-1.1,1.1H7.6a1.1,1.1,0,0,1-1.1-1.1v-5a1.1,1.1,0,0,1,1.1-1.1H12a1.1,1.1,0,0,1,1.1,1.1Zm0-10.9a1.1,1.1,0,0,1-1.1,1.1H7.6a1.1,1.1,0,0,1-1.1-1.1v-5.1a1.1,1.1,0,0,1,1.1-1.1H12a1.1,1.1,0,0,1,1.1,1.1Zm.1-58.8a1,1,0,0,1-1.1,1.1H7.8a1,1,0,0,1-1.1-1.1v-5a1,1,0,0,1,1.1-1.1h4.3a1.1,1.1,0,0,1,1.1,1.1Zm0-10.9a1.1,1.1,0,0,1-1.1,1.1H7.8a1,1,0,0,1-1.1-1.1v-5a1,1,0,0,1,1.1-1.1h4.3a1.1,1.1,0,0,1,1.1,1.1Zm4.1,53.5a1,1,0,0,1,1.1-1.1h4.3a1,1,0,0,1,1.1,1.1v5a1.1,1.1,0,0,1-1.1,1.1H18.4a1.1,1.1,0,0,1-1.1-1.1Zm6.5,27.1a1.1,1.1,0,0,1-1.1,1.1H18.4a1.1,1.1,0,0,1-1.1-1.1v-5a1.1,1.1,0,0,1,1.1-1.1h4.3a1.1,1.1,0,0,1,1.1,1.1Zm0-10.9a1.1,1.1,0,0,1-1.1,1.1H18.4a1.1,1.1,0,0,1-1.1-1.1v-5.1a1.1,1.1,0,0,1,1.1-1.1h4.3a1.1,1.1,0,0,1,1.1,1.1Zm.1-58.8a1,1,0,0,1-1.1,1.1H18.5a1,1,0,0,1-1.1-1.1v-5a1.1,1.1,0,0,1,1.1-1.1h4.3a1.1,1.1,0,0,1,1.1,1.1Zm0-10.9a1.1,1.1,0,0,1-1.1,1.1H18.5a1.1,1.1,0,0,1-1.1-1.1v-5a1.1,1.1,0,0,1,1.1-1.1h4.3a1.1,1.1,0,0,1,1.1,1.1ZM28,101.1a1,1,0,0,1,1.1-1.1h4.3a1.1,1.1,0,0,1,1.2,1.1v5a1.1,1.1,0,0,1-1.2,1.1H29.1a1.1,1.1,0,0,1-1.1-1.1Zm6.6,27.4a1.1,1.1,0,0,1-1.1,1.1H29.1a1.1,1.1,0,0,1-1.1-1.1v-5a1.1,1.1,0,0,1,1.1-1.1h4.4a1.1,1.1,0,0,1,1.1,1.1Zm0-10.9a1.1,1.1,0,0,1-1.1,1.1H29.1a1.1,1.1,0,0,1-1.1-1.1v-5a1.1,1.1,0,0,1,1.1-1.1h4.4a1.1,1.1,0,0,1,1.1,1.1Zm.1-58.7A1.1,1.1,0,0,1,33.6,60H29.3a1.1,1.1,0,0,1-1.1-1.1v-5a1.1,1.1,0,0,1,1.1-1.1h4.3a1.1,1.1,0,0,1,1.1,1.1Zm0-10.9a1.1,1.1,0,0,1-1.1,1.1H29.3A1.1,1.1,0,0,1,28.2,48V42.9a1.1,1.1,0,0,1,1.1-1.1h4.3a1.1,1.1,0,0,1,1.1,1.1Zm4.2,53.3a1.1,1.1,0,0,1,1.1-1.1h4.3a1.1,1.1,0,0,1,1.1,1.1v5a1.1,1.1,0,0,1-1.1,1.1H40a1.1,1.1,0,0,1-1.1-1.1Zm6.5,27.1a1.1,1.1,0,0,1-1.1,1.1H40a1.1,1.1,0,0,1-1.1-1.1v-5a1.1,1.1,0,0,1,1.1-1.1h4.3a1.1,1.1,0,0,1,1.1,1.1Zm0-10.9a1.1,1.1,0,0,1-1.1,1.1H40a1.1,1.1,0,0,1-1.1-1.1v-5a1.1,1.1,0,0,1,1.1-1.1h4.3a1.1,1.1,0,0,1,1.1,1.1Zm.1-58.7a1.1,1.1,0,0,1-1.1,1.1H40.1A1.1,1.1,0,0,1,39,58.8v-5a1.1,1.1,0,0,1,1.1-1.1h4.3a1.1,1.1,0,0,1,1.1,1.1Zm0-11A1.1,1.1,0,0,1,44.4,49H40.1A1.1,1.1,0,0,1,39,47.8v-5a1.1,1.1,0,0,1,1.1-1.1h4.3a1.1,1.1,0,0,1,1.1,1.1Zm4.1,53.5a1.1,1.1,0,0,1,1.1-1.1H55a1.1,1.1,0,0,1,1.1,1.1v5a1.1,1.1,0,0,1-1.1,1.1H50.7a1.1,1.1,0,0,1-1.1-1.1Zm6.6,27.5a1.1,1.1,0,0,1-1.1,1.1H50.7a1.1,1.1,0,0,1-1.1-1.1v-5a1,1,0,0,1,1.1-1.1h4.4a1,1,0,0,1,1.1,1.1Zm0-11a1,1,0,0,1-1.1,1.1H50.7a1,1,0,0,1-1.1-1.1v-5a1.1,1.1,0,0,1,1.1-1.1h4.4a1.1,1.1,0,0,1,1.1,1.1Zm.1-58.7a1.1,1.1,0,0,1-1.1,1.1H50.8a1.1,1.1,0,0,1-1.1-1.1v-5A1.1,1.1,0,0,1,50.8,53h4.4a1.1,1.1,0,0,1,1.1,1.1Zm0-10.9a1.1,1.1,0,0,1-1.1,1.1H50.8a1.1,1.1,0,0,1-1.1-1.1v-5a1.1,1.1,0,0,1,1.1-1.1h4.4a1.1,1.1,0,0,1,1.1,1.1Z" fill="#bcbcbb"/>
      <path d="M18.3,136.1H31.1a0,0,0,0,1,0,0v21.4a0,0,0,0,1,0,0H15.4a0,0,0,0,1,0,0V139A2.9,2.9,0,0,1,18.3,136.1Z" fill="#d8d8d8"/>
      <path d="M32.1,136H47.8a0,0,0,0,1,0,0v21.4a0,0,0,0,1,0,0H35.1a2.9,2.9,0,0,1-2.9-2.9V136A0,0,0,0,1,32.1,136Z" fill="#d8d8d8"/>
    <rect y="66" width="62.7" height="6.03" rx="2" fill="#aeafaf"/>
</svg>
