<svg xmlns="http://www.w3.org/2000/svg" viewBox="0 0 54.9 102.7">
    <rect x="4.7" y="11.7" width="45" height="91.03" fill="#797269"/>
    <path d="M51.4,9.1a2.9,2.9,0,0,0,.2-.9v-6A2.2,2.2,0,0,0,49.4,0H5.3A2.2,2.2,0,0,0,3.1,2.2v6a2.9,2.9,0,0,0,.2.9H.9V99a3.7,3.7,0,0,0,3.8,3.7H7.1V94.9A1.9,1.9,0,0,1,9,93h6.3a2,2,0,0,1,2,1.9v7.8h5.1V94.9A1.9,1.9,0,0,1,24.3,93h6.3a2,2,0,0,1,2,1.9v7.8h5V94.9a2,2,0,0,1,2-1.9h6.3a1.9,1.9,0,0,1,1.9,1.9v7.8H50A3.7,3.7,0,0,0,53.8,99V9.1Zm-8,4.4a.9.9,0,0,1,1-1h2.7a1,1,0,0,1,1.1,1v2.7a1.1,1.1,0,0,1-1.1,1.1H44.4a1,1,0,0,1-1-1.1Zm0,13.1a1,1,0,0,1,1-1.1h2.7a1.1,1.1,0,0,1,1.1,1.1v2.7a1,1,0,0,1-1.1,1H44.4a.9.9,0,0,1-1-1Zm0,6.4a1,1,0,0,1,1-1.1h2.7A1.1,1.1,0,0,1,48.2,33v2.7a1.1,1.1,0,0,1-1.1,1.1H44.4a1,1,0,0,1-1-1.1Zm3.8,29.8H44.5a1.1,1.1,0,0,1-1.1-1.1V59.1A1.1,1.1,0,0,1,44.5,58h2.7a1.1,1.1,0,0,1,1,1.1v2.6A1.1,1.1,0,0,1,47.2,62.8Zm1,2.8v2.7a1.1,1.1,0,0,1-1,1.1H44.5a1.1,1.1,0,0,1-1.1-1.1V65.6a1.1,1.1,0,0,1,1.1-1.1h2.7A1.1,1.1,0,0,1,48.2,65.6Zm-37,22.1a1,1,0,0,1-1,1.1H7.5a1.1,1.1,0,0,1-1.1-1.1V85.1A1.1,1.1,0,0,1,7.5,84h2.7a1,1,0,0,1,1,1.1Zm0-6.5a1,1,0,0,1-1,1.1H7.5a1.1,1.1,0,0,1-1.1-1.1V78.5a1.1,1.1,0,0,1,1.1-1h2.7a1,1,0,0,1,1,1Zm0-6.5a1,1,0,0,1-1,1.1H7.5a1.1,1.1,0,0,1-1.1-1.1V72a1,1,0,0,1,1.1-1h2.7a.9.9,0,0,1,1,1Zm0-6.5a1,1,0,0,1-1,1.1H7.5a1.1,1.1,0,0,1-1.1-1.1V65.5a1,1,0,0,1,1.1-1h2.7a.9.9,0,0,1,1,1Zm0-6.5a1,1,0,0,1-1,1.1H7.5a1.1,1.1,0,0,1-1.1-1.1V59a1,1,0,0,1,1.1-1h2.7a.9.9,0,0,1,1,1Zm0-6.5a1,1,0,0,1-1,1.1H7.5a1.1,1.1,0,0,1-1.1-1.1V52.5a1.1,1.1,0,0,1,1.1-1.1h2.7a1,1,0,0,1,1,1.1Zm0-6.5a1,1,0,0,1-1,1.1H7.5a1.1,1.1,0,0,1-1.1-1.1V46a1.1,1.1,0,0,1,1.1-1.1h2.7a1,1,0,0,1,1,1.1Zm0-6.5a.9.9,0,0,1-1,1H7.5a1,1,0,0,1-1.1-1V39.5a1.1,1.1,0,0,1,1.1-1.1h2.7a1,1,0,0,1,1,1.1Zm0-6.5a.9.9,0,0,1-1,1H7.5a1,1,0,0,1-1.1-1V33a1.1,1.1,0,0,1,1.1-1.1h2.7a1,1,0,0,1,1,1.1Zm0-6.5a.9.9,0,0,1-1,1H7.5a1,1,0,0,1-1.1-1V26.5a1.1,1.1,0,0,1,1.1-1.1h2.7a1,1,0,0,1,1,1.1Zm0-6.5a1,1,0,0,1-1,1H7.5a1.1,1.1,0,0,1-1.1-1V20a1.1,1.1,0,0,1,1.1-1.1h2.7a1,1,0,0,1,1,1.1Zm0-6.6a1,1,0,0,1-1,1.1H7.5a1.1,1.1,0,0,1-1.1-1.1V13.5a1.1,1.1,0,0,1,1.1-1.1h2.7a1,1,0,0,1,1,1.1Zm7.5,71.6a1.1,1.1,0,0,1-1.1,1.1H15a1.1,1.1,0,0,1-1.1-1.1V85.1A1.1,1.1,0,0,1,15,84h2.6a1.1,1.1,0,0,1,1.1,1.1Zm0-6.5a1.1,1.1,0,0,1-1.1,1.1H15a1.1,1.1,0,0,1-1.1-1.1V78.5a1.1,1.1,0,0,1,1.1-1h2.6a1.1,1.1,0,0,1,1.1,1Zm0-6.5a1.1,1.1,0,0,1-1.1,1.1H15a1.1,1.1,0,0,1-1.1-1.1V72A1,1,0,0,1,15,71h2.6a1,1,0,0,1,1.1,1Zm0-6.5a1.1,1.1,0,0,1-1.1,1.1H15a1.1,1.1,0,0,1-1.1-1.1V65.5a1,1,0,0,1,1.1-1h2.6a1,1,0,0,1,1.1,1Zm0-6.5a1.1,1.1,0,0,1-1.1,1.1H15a1.1,1.1,0,0,1-1.1-1.1V59A1,1,0,0,1,15,58h2.6a1,1,0,0,1,1.1,1Zm0-6.5a1.1,1.1,0,0,1-1.1,1.1H15a1.1,1.1,0,0,1-1.1-1.1V52.5A1.1,1.1,0,0,1,15,51.4h2.6a1.1,1.1,0,0,1,1.1,1.1Zm0-6.5a1.1,1.1,0,0,1-1.1,1.1H15a1.1,1.1,0,0,1-1.1-1.1V46A1.1,1.1,0,0,1,15,44.9h2.6A1.1,1.1,0,0,1,18.7,46Zm0-6.5a1,1,0,0,1-1.1,1H15a1,1,0,0,1-1.1-1V39.5A1.1,1.1,0,0,1,15,38.4h2.6a1.1,1.1,0,0,1,1.1,1.1Zm0-6.5a1,1,0,0,1-1.1,1H15a1,1,0,0,1-1.1-1V33A1.1,1.1,0,0,1,15,31.9h2.6A1.1,1.1,0,0,1,18.7,33Zm0-6.5a1,1,0,0,1-1.1,1H15a1,1,0,0,1-1.1-1V26.5A1.1,1.1,0,0,1,15,25.4h2.6a1.1,1.1,0,0,1,1.1,1.1Zm0-6.5a1.1,1.1,0,0,1-1.1,1H15a1.1,1.1,0,0,1-1.1-1V20A1.1,1.1,0,0,1,15,18.9h2.6A1.1,1.1,0,0,1,18.7,20Zm0-6.6a1.1,1.1,0,0,1-1.1,1.1H15a1.1,1.1,0,0,1-1.1-1.1V13.5A1.1,1.1,0,0,1,15,12.4h2.6a1.1,1.1,0,0,1,1.1,1.1Zm7.5,71.6a1.1,1.1,0,0,1-1.1,1.1H22.4a1,1,0,0,1-1-1.1V85.1a1,1,0,0,1,1-1.1h2.7a1.1,1.1,0,0,1,1.1,1.1Zm0-6.5a1.1,1.1,0,0,1-1.1,1.1H22.4a1,1,0,0,1-1-1.1V78.5a1,1,0,0,1,1-1h2.7a1.1,1.1,0,0,1,1.1,1Zm0-6.5a1.1,1.1,0,0,1-1.1,1.1H22.4a1,1,0,0,1-1-1.1V72a.9.9,0,0,1,1-1h2.7a1,1,0,0,1,1.1,1Zm0-6.5a1.1,1.1,0,0,1-1.1,1.1H22.4a1,1,0,0,1-1-1.1V65.5a.9.9,0,0,1,1-1h2.7a1,1,0,0,1,1.1,1Zm0-6.5a1.1,1.1,0,0,1-1.1,1.1H22.4a1,1,0,0,1-1-1.1V59a.9.9,0,0,1,1-1h2.7a1,1,0,0,1,1.1,1Zm0-6.5a1.1,1.1,0,0,1-1.1,1.1H22.4a1,1,0,0,1-1-1.1V52.5a1,1,0,0,1,1-1.1h2.7a1.1,1.1,0,0,1,1.1,1.1Zm0-6.5a1.1,1.1,0,0,1-1.1,1.1H22.4a1,1,0,0,1-1-1.1V46a1,1,0,0,1,1-1.1h2.7A1.1,1.1,0,0,1,26.2,46Zm0-6.5a1,1,0,0,1-1.1,1H22.4a.9.9,0,0,1-1-1V39.5a1,1,0,0,1,1-1.1h2.7a1.1,1.1,0,0,1,1.1,1.1Zm0-6.5a1,1,0,0,1-1.1,1H22.4a.9.9,0,0,1-1-1V33a1,1,0,0,1,1-1.1h2.7A1.1,1.1,0,0,1,26.2,33Zm0-6.5a1,1,0,0,1-1.1,1H22.4a.9.9,0,0,1-1-1V26.5a1,1,0,0,1,1-1.1h2.7a1.1,1.1,0,0,1,1.1,1.1Zm0-6.5a1.1,1.1,0,0,1-1.1,1H22.4a1,1,0,0,1-1-1V20a1,1,0,0,1,1-1.1h2.7A1.1,1.1,0,0,1,26.2,20Zm0-6.6a1.1,1.1,0,0,1-1.1,1.1H22.4a1,1,0,0,1-1-1.1V13.5a1,1,0,0,1,1-1.1h2.7a1.1,1.1,0,0,1,1.1,1.1Zm7.2,71.6a1.1,1.1,0,0,1-1.1,1.1H29.7a1.1,1.1,0,0,1-1.1-1.1V85.1A1.1,1.1,0,0,1,29.7,84h2.6a1.1,1.1,0,0,1,1.1,1.1Zm0-6.5a1.1,1.1,0,0,1-1.1,1.1H29.7a1.1,1.1,0,0,1-1.1-1.1V78.5a1.1,1.1,0,0,1,1.1-1h2.6a1.1,1.1,0,0,1,1.1,1Zm0-6.5a1.1,1.1,0,0,1-1.1,1.1H29.7a1.1,1.1,0,0,1-1.1-1.1V72a1,1,0,0,1,1.1-1h2.6a1,1,0,0,1,1.1,1Zm0-6.5a1.1,1.1,0,0,1-1.1,1.1H29.7a1.1,1.1,0,0,1-1.1-1.1V65.5a1,1,0,0,1,1.1-1h2.6a1,1,0,0,1,1.1,1Zm0-6.5a1.1,1.1,0,0,1-1.1,1.1H29.7a1.1,1.1,0,0,1-1.1-1.1V59a1,1,0,0,1,1.1-1h2.6a1,1,0,0,1,1.1,1Zm0-6.5a1.1,1.1,0,0,1-1.1,1.1H29.7a1.1,1.1,0,0,1-1.1-1.1V52.5a1.1,1.1,0,0,1,1.1-1.1h2.6a1.1,1.1,0,0,1,1.1,1.1Zm0-6.5a1.1,1.1,0,0,1-1.1,1.1H29.7a1.1,1.1,0,0,1-1.1-1.1V46a1.1,1.1,0,0,1,1.1-1.1h2.6A1.1,1.1,0,0,1,33.4,46Zm0-6.5a1,1,0,0,1-1.1,1H29.7a1,1,0,0,1-1.1-1V39.5a1.1,1.1,0,0,1,1.1-1.1h2.6a1.1,1.1,0,0,1,1.1,1.1Zm0-6.5a1,1,0,0,1-1.1,1H29.7a1,1,0,0,1-1.1-1V33a1.1,1.1,0,0,1,1.1-1.1h2.6A1.1,1.1,0,0,1,33.4,33Zm0-6.5a1,1,0,0,1-1.1,1H29.7a1,1,0,0,1-1.1-1V26.5a1.1,1.1,0,0,1,1.1-1.1h2.6a1.1,1.1,0,0,1,1.1,1.1Zm0-6.5a1.1,1.1,0,0,1-1.1,1H29.7a1.1,1.1,0,0,1-1.1-1V20a1.1,1.1,0,0,1,1.1-1.1h2.6A1.1,1.1,0,0,1,33.4,20Zm0-6.6a1.1,1.1,0,0,1-1.1,1.1H29.7a1.1,1.1,0,0,1-1.1-1.1V13.5a1.1,1.1,0,0,1,1.1-1.1h2.6a1.1,1.1,0,0,1,1.1,1.1Zm7.5,71.6a1.1,1.1,0,0,1-1.1,1.1H37.1a1,1,0,0,1-1-1.1V85.1a1,1,0,0,1,1-1.1h2.7a1.1,1.1,0,0,1,1.1,1.1Zm0-6.5a1.1,1.1,0,0,1-1.1,1.1H37.1a1,1,0,0,1-1-1.1V78.5a1,1,0,0,1,1-1h2.7a1.1,1.1,0,0,1,1.1,1Zm0-6.5a1.1,1.1,0,0,1-1.1,1.1H37.1a1,1,0,0,1-1-1.1V72a.9.9,0,0,1,1-1h2.7a1,1,0,0,1,1.1,1Zm0-6.5a1.1,1.1,0,0,1-1.1,1.1H37.1a1,1,0,0,1-1-1.1V65.5a.9.9,0,0,1,1-1h2.7a1,1,0,0,1,1.1,1Zm0-6.5a1.1,1.1,0,0,1-1.1,1.1H37.1a1,1,0,0,1-1-1.1V59a.9.9,0,0,1,1-1h2.7a1,1,0,0,1,1.1,1Zm0-6.5a1.1,1.1,0,0,1-1.1,1.1H37.1a1,1,0,0,1-1-1.1V52.5a1,1,0,0,1,1-1.1h2.7a1.1,1.1,0,0,1,1.1,1.1Zm0-6.5a1.1,1.1,0,0,1-1.1,1.1H37.1a1,1,0,0,1-1-1.1V46a1,1,0,0,1,1-1.1h2.7A1.1,1.1,0,0,1,40.9,46Zm0-6.5a1,1,0,0,1-1.1,1H37.1a.9.9,0,0,1-1-1V39.5a1,1,0,0,1,1-1.1h2.7a1.1,1.1,0,0,1,1.1,1.1Zm0-6.5a1,1,0,0,1-1.1,1H37.1a.9.9,0,0,1-1-1V33a1,1,0,0,1,1-1.1h2.7A1.1,1.1,0,0,1,40.9,33Zm0-6.5a1,1,0,0,1-1.1,1H37.1a.9.9,0,0,1-1-1V26.5a1,1,0,0,1,1-1.1h2.7a1.1,1.1,0,0,1,1.1,1.1Zm0-6.5a1.1,1.1,0,0,1-1.1,1H37.1a1,1,0,0,1-1-1V20a1,1,0,0,1,1-1.1h2.7A1.1,1.1,0,0,1,40.9,20Zm0-6.6a1.1,1.1,0,0,1-1.1,1.1H37.1a1,1,0,0,1-1-1.1V13.5a1,1,0,0,1,1-1.1h2.7a1.1,1.1,0,0,1,1.1,1.1Zm2.4,62.5a1.1,1.1,0,0,1,1.1-1.1h2.7a1,1,0,0,1,1,1.1v2.6a1,1,0,0,1-1,1.1H44.4a1.1,1.1,0,0,1-1.1-1.1Zm4.9,9a1.1,1.1,0,0,1-1.1,1.1H44.5a1.1,1.1,0,0,1-1.1-1.1V85a1.1,1.1,0,0,1,1.1-1.1h2.6A1.1,1.1,0,0,1,48.2,85Zm.1-12.8a1.1,1.1,0,0,1-1.1,1.1H44.6a1.1,1.1,0,0,1-1.1-1.1V72.1a1,1,0,0,1,1.1-1h2.6a1,1,0,0,1,1.1,1Zm.1-19.6a1.1,1.1,0,0,1-1.1,1.1H44.6a1.1,1.1,0,0,1-1-1.1V52.6a1.1,1.1,0,0,1,1-1.1h2.7a1.1,1.1,0,0,1,1.1,1.1Zm0-6.5a1,1,0,0,1-1.1,1H44.6a1,1,0,0,1-1-1V46a1.1,1.1,0,0,1,1-1.1h2.7A1.1,1.1,0,0,1,48.4,46Zm0-6.6a1.1,1.1,0,0,1-1.1,1.1H44.7a1.1,1.1,0,0,1-1.1-1.1V39.4a1,1,0,0,1,1.1-1h2.6a1,1,0,0,1,1.1,1Zm0-19.5a1.1,1.1,0,0,1-1.1,1.1H44.7a1.1,1.1,0,0,1-1.1-1.1V20a1.1,1.1,0,0,1,1.1-1.1h2.6A1.1,1.1,0,0,1,48.4,20Z" fill="#999186"/>
    <rect y="7.3" width="54.9" height="2.44" rx="1.1" fill="#8d857b"/>
</svg>
