<svg xmlns="http://www.w3.org/2000/svg" viewBox="0 0 55.2 100.3">
    <rect x="6" width="43.5" height="6.63" rx="2.4" fill="#cec3d3"/>
    <rect y="3.8" width="55.2" height="96.55" rx="4.2" fill="#9b93a1"/>
    <path d="M51,3.8H4.2A4.2,4.2,0,0,0,0,8V96.1a4.2,4.2,0,0,0,4.2,4.2H51a4.2,4.2,0,0,0,4.2-4.2V8A4.2,4.2,0,0,0,51,3.8Zm-37.9,91A1.2,1.2,0,0,1,11.9,96H8.8a1.2,1.2,0,0,1-1.2-1.2V91.7a1.2,1.2,0,0,1,1.2-1.2h3.1a1.2,1.2,0,0,1,1.2,1.2Zm0-7.5a1.2,1.2,0,0,1-1.2,1.2H8.8a1.2,1.2,0,0,1-1.2-1.2V84.2A1.2,1.2,0,0,1,8.8,83h3.1a1.2,1.2,0,0,1,1.2,1.2Zm0-7.5A1.2,1.2,0,0,1,11.9,81H8.8a1.2,1.2,0,0,1-1.2-1.2V76.7a1.2,1.2,0,0,1,1.2-1.2h3.1a1.2,1.2,0,0,1,1.2,1.2Zm0-7.5a1.2,1.2,0,0,1-1.2,1.2H8.8a1.2,1.2,0,0,1-1.2-1.2V69.2A1.2,1.2,0,0,1,8.8,68h3.1a1.2,1.2,0,0,1,1.2,1.2Zm0-7.5A1.2,1.2,0,0,1,11.9,66H8.8a1.2,1.2,0,0,1-1.2-1.2V61.7a1.2,1.2,0,0,1,1.2-1.2h3.1a1.2,1.2,0,0,1,1.2,1.2Zm0-7.5a1.2,1.2,0,0,1-1.2,1.2H8.8a1.2,1.2,0,0,1-1.2-1.2V54.2A1.2,1.2,0,0,1,8.8,53h3.1a1.2,1.2,0,0,1,1.2,1.2Zm0-7.5A1.2,1.2,0,0,1,11.9,51H8.8a1.2,1.2,0,0,1-1.2-1.2V46.7a1.2,1.2,0,0,1,1.2-1.2h3.1a1.2,1.2,0,0,1,1.2,1.2Zm0-7.5a1.2,1.2,0,0,1-1.2,1.2H8.8a1.2,1.2,0,0,1-1.2-1.2V39.2A1.2,1.2,0,0,1,8.8,38h3.1a1.2,1.2,0,0,1,1.2,1.2Zm0-7.5A1.2,1.2,0,0,1,11.9,36H8.8a1.2,1.2,0,0,1-1.2-1.2V31.7a1.2,1.2,0,0,1,1.2-1.2h3.1a1.2,1.2,0,0,1,1.2,1.2Zm0-7.5a1.2,1.2,0,0,1-1.2,1.2H8.8a1.2,1.2,0,0,1-1.2-1.2V24.2A1.2,1.2,0,0,1,8.8,23h3.1a1.2,1.2,0,0,1,1.2,1.2Zm0-7.5A1.2,1.2,0,0,1,11.9,21H8.8a1.2,1.2,0,0,1-1.2-1.2V16.7a1.2,1.2,0,0,1,1.2-1.2h3.1a1.2,1.2,0,0,1,1.2,1.2Zm0-7.5a1.2,1.2,0,0,1-1.2,1.2H8.8a1.2,1.2,0,0,1-1.2-1.2V9.2A1.2,1.2,0,0,1,8.8,8h3.1a1.2,1.2,0,0,1,1.2,1.2Zm8.6,82.5A1.2,1.2,0,0,1,20.5,96H17.4a1.2,1.2,0,0,1-1.2-1.2V91.7a1.2,1.2,0,0,1,1.2-1.2h3.1a1.2,1.2,0,0,1,1.2,1.2Zm0-7.5a1.2,1.2,0,0,1-1.2,1.2H17.4a1.2,1.2,0,0,1-1.2-1.2V84.2A1.2,1.2,0,0,1,17.4,83h3.1a1.2,1.2,0,0,1,1.2,1.2Zm0-7.5A1.2,1.2,0,0,1,20.5,81H17.4a1.2,1.2,0,0,1-1.2-1.2V76.7a1.2,1.2,0,0,1,1.2-1.2h3.1a1.2,1.2,0,0,1,1.2,1.2Zm0-7.5a1.2,1.2,0,0,1-1.2,1.2H17.4a1.2,1.2,0,0,1-1.2-1.2V69.2A1.2,1.2,0,0,1,17.4,68h3.1a1.2,1.2,0,0,1,1.2,1.2Zm0-7.5A1.2,1.2,0,0,1,20.5,66H17.4a1.2,1.2,0,0,1-1.2-1.2V61.7a1.2,1.2,0,0,1,1.2-1.2h3.1a1.2,1.2,0,0,1,1.2,1.2Zm0-7.5a1.2,1.2,0,0,1-1.2,1.2H17.4a1.2,1.2,0,0,1-1.2-1.2V54.2A1.2,1.2,0,0,1,17.4,53h3.1a1.2,1.2,0,0,1,1.2,1.2Zm0-7.5A1.2,1.2,0,0,1,20.5,51H17.4a1.2,1.2,0,0,1-1.2-1.2V46.7a1.2,1.2,0,0,1,1.2-1.2h3.1a1.2,1.2,0,0,1,1.2,1.2Zm0-7.5a1.2,1.2,0,0,1-1.2,1.2H17.4a1.2,1.2,0,0,1-1.2-1.2V39.2A1.2,1.2,0,0,1,17.4,38h3.1a1.2,1.2,0,0,1,1.2,1.2Zm0-7.5A1.2,1.2,0,0,1,20.5,36H17.4a1.2,1.2,0,0,1-1.2-1.2V31.7a1.2,1.2,0,0,1,1.2-1.2h3.1a1.2,1.2,0,0,1,1.2,1.2Zm0-7.5a1.2,1.2,0,0,1-1.2,1.2H17.4a1.2,1.2,0,0,1-1.2-1.2V24.2A1.2,1.2,0,0,1,17.4,23h3.1a1.2,1.2,0,0,1,1.2,1.2Zm0-7.5A1.2,1.2,0,0,1,20.5,21H17.4a1.2,1.2,0,0,1-1.2-1.2V16.7a1.2,1.2,0,0,1,1.2-1.2h3.1a1.2,1.2,0,0,1,1.2,1.2Zm0-7.5a1.2,1.2,0,0,1-1.2,1.2H17.4a1.2,1.2,0,0,1-1.2-1.2V9.2A1.2,1.2,0,0,1,17.4,8h3.1a1.2,1.2,0,0,1,1.2,1.2Zm8.6,82.5A1.2,1.2,0,0,1,29.1,96H26a1.2,1.2,0,0,1-1.2-1.2V91.7A1.2,1.2,0,0,1,26,90.5h3.1a1.2,1.2,0,0,1,1.2,1.2Zm0-7.5a1.2,1.2,0,0,1-1.2,1.2H26a1.2,1.2,0,0,1-1.2-1.2V84.2A1.2,1.2,0,0,1,26,83h3.1a1.2,1.2,0,0,1,1.2,1.2Zm0-7.5A1.2,1.2,0,0,1,29.1,81H26a1.2,1.2,0,0,1-1.2-1.2V76.7A1.2,1.2,0,0,1,26,75.5h3.1a1.2,1.2,0,0,1,1.2,1.2Zm0-7.5a1.2,1.2,0,0,1-1.2,1.2H26a1.2,1.2,0,0,1-1.2-1.2V69.2A1.2,1.2,0,0,1,26,68h3.1a1.2,1.2,0,0,1,1.2,1.2Zm0-7.5A1.2,1.2,0,0,1,29.1,66H26a1.2,1.2,0,0,1-1.2-1.2V61.7A1.2,1.2,0,0,1,26,60.5h3.1a1.2,1.2,0,0,1,1.2,1.2Zm0-7.5a1.2,1.2,0,0,1-1.2,1.2H26a1.2,1.2,0,0,1-1.2-1.2V54.2A1.2,1.2,0,0,1,26,53h3.1a1.2,1.2,0,0,1,1.2,1.2Zm0-7.5A1.2,1.2,0,0,1,29.1,51H26a1.2,1.2,0,0,1-1.2-1.2V46.7A1.2,1.2,0,0,1,26,45.5h3.1a1.2,1.2,0,0,1,1.2,1.2Zm0-7.5a1.2,1.2,0,0,1-1.2,1.2H26a1.2,1.2,0,0,1-1.2-1.2V39.2A1.2,1.2,0,0,1,26,38h3.1a1.2,1.2,0,0,1,1.2,1.2Zm0-7.5A1.2,1.2,0,0,1,29.1,36H26a1.2,1.2,0,0,1-1.2-1.2V31.7A1.2,1.2,0,0,1,26,30.5h3.1a1.2,1.2,0,0,1,1.2,1.2Zm0-7.5a1.2,1.2,0,0,1-1.2,1.2H26a1.2,1.2,0,0,1-1.2-1.2V24.2A1.2,1.2,0,0,1,26,23h3.1a1.2,1.2,0,0,1,1.2,1.2Zm0-7.5A1.2,1.2,0,0,1,29.1,21H26a1.2,1.2,0,0,1-1.2-1.2V16.7A1.2,1.2,0,0,1,26,15.5h3.1a1.2,1.2,0,0,1,1.2,1.2Zm0-7.5a1.2,1.2,0,0,1-1.2,1.2H26a1.2,1.2,0,0,1-1.2-1.2V9.2A1.2,1.2,0,0,1,26,8h3.1a1.2,1.2,0,0,1,1.2,1.2Zm8.4,82.5A1.2,1.2,0,0,1,37.4,96H34.3a1.2,1.2,0,0,1-1.2-1.2V91.7a1.2,1.2,0,0,1,1.2-1.2h3.1a1.2,1.2,0,0,1,1.3,1.2Zm0-7.5a1.2,1.2,0,0,1-1.3,1.2H34.3a1.2,1.2,0,0,1-1.2-1.2V84.2A1.2,1.2,0,0,1,34.3,83h3.1a1.2,1.2,0,0,1,1.3,1.2Zm0-7.5A1.2,1.2,0,0,1,37.4,81H34.3a1.2,1.2,0,0,1-1.2-1.2V76.7a1.2,1.2,0,0,1,1.2-1.2h3.1a1.2,1.2,0,0,1,1.3,1.2Zm0-7.5a1.2,1.2,0,0,1-1.3,1.2H34.3a1.2,1.2,0,0,1-1.2-1.2V69.2A1.2,1.2,0,0,1,34.3,68h3.1a1.2,1.2,0,0,1,1.3,1.2Zm0-7.5A1.2,1.2,0,0,1,37.4,66H34.3a1.2,1.2,0,0,1-1.2-1.2V61.7a1.2,1.2,0,0,1,1.2-1.2h3.1a1.2,1.2,0,0,1,1.3,1.2Zm0-7.5a1.2,1.2,0,0,1-1.3,1.2H34.3a1.2,1.2,0,0,1-1.2-1.2V54.2A1.2,1.2,0,0,1,34.3,53h3.1a1.2,1.2,0,0,1,1.3,1.2Zm0-7.5A1.2,1.2,0,0,1,37.4,51H34.3a1.2,1.2,0,0,1-1.2-1.2V46.7a1.2,1.2,0,0,1,1.2-1.2h3.1a1.2,1.2,0,0,1,1.3,1.2Zm0-7.5a1.2,1.2,0,0,1-1.3,1.2H34.3a1.2,1.2,0,0,1-1.2-1.2V39.2A1.2,1.2,0,0,1,34.3,38h3.1a1.2,1.2,0,0,1,1.3,1.2Zm0-7.5A1.2,1.2,0,0,1,37.4,36H34.3a1.2,1.2,0,0,1-1.2-1.2V31.7a1.2,1.2,0,0,1,1.2-1.2h3.1a1.2,1.2,0,0,1,1.3,1.2Zm0-7.5a1.2,1.2,0,0,1-1.3,1.2H34.3a1.2,1.2,0,0,1-1.2-1.2V24.2A1.2,1.2,0,0,1,34.3,23h3.1a1.2,1.2,0,0,1,1.3,1.2Zm0-7.5A1.2,1.2,0,0,1,37.4,21H34.3a1.2,1.2,0,0,1-1.2-1.2V16.7a1.2,1.2,0,0,1,1.2-1.2h3.1a1.2,1.2,0,0,1,1.3,1.2Zm0-7.5a1.2,1.2,0,0,1-1.3,1.2H34.3a1.2,1.2,0,0,1-1.2-1.2V9.2A1.2,1.2,0,0,1,34.3,8h3.1a1.2,1.2,0,0,1,1.3,1.2Zm8.6,82.5A1.2,1.2,0,0,1,46,96H42.9a1.2,1.2,0,0,1-1.2-1.2V91.7a1.2,1.2,0,0,1,1.2-1.2H46a1.2,1.2,0,0,1,1.3,1.2Zm0-7.5A1.2,1.2,0,0,1,46,88.5H42.9a1.2,1.2,0,0,1-1.2-1.2V84.2A1.2,1.2,0,0,1,42.9,83H46a1.2,1.2,0,0,1,1.3,1.2Zm0-7.5A1.2,1.2,0,0,1,46,81H42.9a1.2,1.2,0,0,1-1.2-1.2V76.7a1.2,1.2,0,0,1,1.2-1.2H46a1.2,1.2,0,0,1,1.3,1.2Zm0-7.5A1.2,1.2,0,0,1,46,73.5H42.9a1.2,1.2,0,0,1-1.2-1.2V69.2A1.2,1.2,0,0,1,42.9,68H46a1.2,1.2,0,0,1,1.3,1.2Zm0-7.5A1.2,1.2,0,0,1,46,66H42.9a1.2,1.2,0,0,1-1.2-1.2V61.7a1.2,1.2,0,0,1,1.2-1.2H46a1.2,1.2,0,0,1,1.3,1.2Zm0-7.5A1.2,1.2,0,0,1,46,58.5H42.9a1.2,1.2,0,0,1-1.2-1.2V54.2A1.2,1.2,0,0,1,42.9,53H46a1.2,1.2,0,0,1,1.3,1.2Zm0-7.5A1.2,1.2,0,0,1,46,51H42.9a1.2,1.2,0,0,1-1.2-1.2V46.7a1.2,1.2,0,0,1,1.2-1.2H46a1.2,1.2,0,0,1,1.3,1.2Zm0-7.5A1.2,1.2,0,0,1,46,43.5H42.9a1.2,1.2,0,0,1-1.2-1.2V39.2A1.2,1.2,0,0,1,42.9,38H46a1.2,1.2,0,0,1,1.3,1.2Zm0-7.5A1.2,1.2,0,0,1,46,36H42.9a1.2,1.2,0,0,1-1.2-1.2V31.7a1.2,1.2,0,0,1,1.2-1.2H46a1.2,1.2,0,0,1,1.3,1.2Zm0-7.5A1.2,1.2,0,0,1,46,28.5H42.9a1.2,1.2,0,0,1-1.2-1.2V24.2A1.2,1.2,0,0,1,42.9,23H46a1.2,1.2,0,0,1,1.3,1.2Zm0-7.5A1.2,1.2,0,0,1,46,21H42.9a1.2,1.2,0,0,1-1.2-1.2V16.7a1.2,1.2,0,0,1,1.2-1.2H46a1.2,1.2,0,0,1,1.3,1.2Zm0-7.5A1.2,1.2,0,0,1,46,13.5H42.9a1.2,1.2,0,0,1-1.2-1.2V9.2A1.2,1.2,0,0,1,42.9,8H46a1.2,1.2,0,0,1,1.3,1.2Z" fill="#b6afba"/>
</svg>
