<svg xmlns="http://www.w3.org/2000/svg" viewBox="0 0 90.1 60.5">
    <path d="M4,0H86.1a4,4,0,0,1,4,4V22.7a0,0,0,0,1,0,0H0a0,0,0,0,1,0,0V4A4,4,0,0,1,4,0Z" fill="#8e8e8e"/>
    <rect x="6.6" width="15.8" height="13.91" fill="#979797"/>
    <rect x="36.8" width="15.8" height="13.91" fill="#979797"/>
    <rect x="67.7" width="15.8" height="13.91" fill="#979797"/>
    <path d="M0,7.7H90.1a0,0,0,0,1,0,0V56.5a4,4,0,0,1-4,4H4a4,4,0,0,1-4-4V7.7A0,0,0,0,1,0,7.7Z" fill="#aeafaf"/>
    <rect x="4.7" y="17.9" width="16.8" height="26.2" rx="2.3" fill="#d8d8d8"/>
    <rect x="68.6" y="17.9" width="16.8" height="26.2" rx="2.3" fill="#d8d8d8"/>
    <rect x="47.3" y="17.9" width="16.8" height="26.2" rx="2.3" fill="#d8d8d8"/>
    <rect x="26" y="17.9" width="16.8" height="26.2" rx="2.3" fill="#d8d8d8"/>
</svg>
