<svg xmlns="http://www.w3.org/2000/svg" viewBox="0 0 55.6 109.1">
    <rect x="4" width="47.8" height="8.55" rx="3.4" fill="#8e8e8e"/>
    <rect y="6" width="55.6" height="103.1" rx="4.3" fill="#aeafaf"/>
    <rect x="3.5" y="12.1" width="48.8" height="4.78" rx="2.4" fill="#8e8e8e"/>
    <rect x="3.5" y="29.7" width="48.8" height="4.78" rx="2.4" fill="#8e8e8e"/>
    <rect x="3.5" y="20.9" width="48.8" height="4.78" rx="2.4" fill="#8e8e8e"/>
    <rect x="3.5" y="38.5" width="48.8" height="4.78" rx="2.4" fill="#8e8e8e"/>
    <rect x="3.5" y="56.1" width="48.8" height="4.78" rx="2.4" fill="#8e8e8e"/>
    <rect x="3.5" y="47.3" width="48.8" height="4.78" rx="2.4" fill="#8e8e8e"/>
    <rect x="3.5" y="100.1" width="48.8" height="4.78" rx="2.4" fill="#8e8e8e"/>
    <rect x="3.5" y="91.3" width="48.8" height="4.78" rx="2.4" fill="#8e8e8e"/>
    <rect x="3.8" y="64.9" width="48.8" height="4.78" rx="2.4" fill="#8e8e8e"/>
    <rect x="3.8" y="82.5" width="48.8" height="4.78" rx="2.4" fill="#8e8e8e"/>
    <rect x="3.8" y="73.7" width="48.8" height="4.78" rx="2.4" fill="#8e8e8e"/>
</svg>
