<svg xmlns="http://www.w3.org/2000/svg" viewBox="0 0 39.8 109.4">
    <rect width="39.8" height="109.35" rx="2.1" fill="#fff"/>
    <path d="M37.7,0H2.1A2.1,2.1,0,0,0,0,2.1V107.3a2.1,2.1,0,0,0,2.1,2.1H37.7a2.1,2.1,0,0,0,2.1-2.1V2.1A2.1,2.1,0,0,0,37.7,0Zm-5,4a.7.7,0,0,1,.7-.7h3a.8.8,0,0,1,.8.7V7.5a.9.9,0,0,1-.8.8h-3a.8.8,0,0,1-.7-.8Zm0,7.6a.8.8,0,0,1,.7-.8h3a.9.9,0,0,1,.8.8v3.5a.9.9,0,0,1-.8.8h-3a.8.8,0,0,1-.7-.8Zm0,7.6a.8.8,0,0,1,.7-.8h3a.9.9,0,0,1,.8.8v3.5a.9.9,0,0,1-.8.8h-3a.8.8,0,0,1-.7-.8Zm-.1,23.3a.8.8,0,0,1,.7-.8h3a.8.8,0,0,1,.8.8V46a.7.7,0,0,1-.8.7h-3a.7.7,0,0,1-.7-.7Zm4.5,23.2v3.5a.7.7,0,0,1-.7.7h-3a.7.7,0,0,1-.8-.7V65.7a.8.8,0,0,1,.8-.8h3A.8.8,0,0,1,37.1,65.7ZM32.6,50.1a.7.7,0,0,1,.7-.8h3a.7.7,0,0,1,.8.8v3.5a.7.7,0,0,1-.8.7h-3a.7.7,0,0,1-.7-.7ZM25.2,4a.7.7,0,0,1,.8-.7h3a.7.7,0,0,1,.7.7V7.5a.8.8,0,0,1-.7.8H26a.8.8,0,0,1-.8-.8Zm0,7.6a.8.8,0,0,1,.8-.8h3a.8.8,0,0,1,.7.8v3.5a.8.8,0,0,1-.7.8H26a.8.8,0,0,1-.8-.8Zm0,7.6a.8.8,0,0,1,.8-.8h3a.8.8,0,0,1,.7.8v3.5a.8.8,0,0,1-.7.8H26a.8.8,0,0,1-.8-.8Zm-.1,23.3a.9.9,0,0,1,.8-.8h3a.8.8,0,0,1,.7.8V46a.7.7,0,0,1-.7.7h-3a.8.8,0,0,1-.8-.7Zm4.6,22.9v3.5a.9.9,0,0,1-.8.8h-3a.9.9,0,0,1-.8-.8V65.4a.8.8,0,0,1,.8-.7h3A.8.8,0,0,1,29.7,65.4ZM25.1,50.1a.8.8,0,0,1,.8-.8h3a.7.7,0,0,1,.7.8v3.5a.7.7,0,0,1-.7.7h-3a.8.8,0,0,1-.8-.7ZM17.7,3.9a.7.7,0,0,1,.7-.8h3a.7.7,0,0,1,.8.8V7.3a.7.7,0,0,1-.8.8h-3a.7.7,0,0,1-.7-.8Zm0,7.5a.7.7,0,0,1,.7-.7h3a.7.7,0,0,1,.8.7v3.5a.7.7,0,0,1-.8.8h-3a.7.7,0,0,1-.7-.8Zm0,7.6a.7.7,0,0,1,.7-.7h3a.7.7,0,0,1,.8.7v3.5a.7.7,0,0,1-.8.8h-3a.7.7,0,0,1-.7-.8Zm-.1,23.3a.8.8,0,0,1,.8-.8h2.9a.8.8,0,0,1,.8.8v3.5a.8.8,0,0,1-.8.8H18.4a.8.8,0,0,1-.8-.8Zm4.5,23.2V69a.8.8,0,0,1-.7.8h-3a.8.8,0,0,1-.8-.8V65.5a.8.8,0,0,1,.8-.8h3A.8.8,0,0,1,22.1,65.5ZM17.6,49.9a.8.8,0,0,1,.8-.8h2.9a.8.8,0,0,1,.8.8v3.5a.8.8,0,0,1-.8.8H18.4a.8.8,0,0,1-.8-.8Zm-7.4-46a.7.7,0,0,1,.8-.8h3a.7.7,0,0,1,.7.8V7.3a.7.7,0,0,1-.7.8H11a.7.7,0,0,1-.8-.8Zm0,7.5a.7.7,0,0,1,.8-.7h3a.7.7,0,0,1,.7.7v3.5a.7.7,0,0,1-.7.8H11a.7.7,0,0,1-.8-.8Zm0,7.6a.7.7,0,0,1,.8-.7h3a.7.7,0,0,1,.7.7v3.5a.7.7,0,0,1-.7.8H11a.7.7,0,0,1-.8-.8Zm-.1,23.3a.9.9,0,0,1,.8-.8h3a.8.8,0,0,1,.7.8v3.5a.8.8,0,0,1-.7.8h-3a.9.9,0,0,1-.8-.8Zm4.6,23v3.5a.8.8,0,0,1-.8.7h-3a.8.8,0,0,1-.8-.7V65.3a.8.8,0,0,1,.8-.8h3A.8.8,0,0,1,14.7,65.3ZM10.1,49.9a.9.9,0,0,1,.8-.8h3a.8.8,0,0,1,.7.8v3.5a.8.8,0,0,1-.7.8h-3a.9.9,0,0,1-.8-.8ZM2.7,3.9a.8.8,0,0,1,.8-.8h3a.8.8,0,0,1,.8.8V7.3a.8.8,0,0,1-.8.8h-3a.8.8,0,0,1-.8-.8Zm0,7.5a.8.8,0,0,1,.8-.7h3a.8.8,0,0,1,.8.7v3.5a.8.8,0,0,1-.8.8h-3a.8.8,0,0,1-.8-.8Zm0,7.6a.8.8,0,0,1,.8-.7h3a.8.8,0,0,1,.8.7v3.5a.8.8,0,0,1-.8.8h-3a.8.8,0,0,1-.8-.8ZM2.6,42.3a.9.9,0,0,1,.8-.8h3a.9.9,0,0,1,.8.8v3.5a.9.9,0,0,1-.8.8h-3a.9.9,0,0,1-.8-.8Zm4.6,23v3.5a.8.8,0,0,1-.8.7h-3a.7.7,0,0,1-.7-.7V65.3a.7.7,0,0,1,.7-.8h3A.8.8,0,0,1,7.2,65.3ZM2.6,49.9a.9.9,0,0,1,.8-.8h3a.9.9,0,0,1,.8.8v3.5a.9.9,0,0,1-.8.8h-3a.9.9,0,0,1-.8-.8Zm0,7.6a.9.9,0,0,1,.8-.8h3a.9.9,0,0,1,.8.8V61a.9.9,0,0,1-.8.8h-3a.9.9,0,0,1-.8-.8Zm.1,15.4a.7.7,0,0,1,.7-.8h3a.8.8,0,0,1,.8.8v3.4a.8.8,0,0,1-.8.8h-3a.7.7,0,0,1-.7-.8ZM7.2,91.2a.7.7,0,0,1-.7.8h-3a.7.7,0,0,1-.8-.8V87.8a.7.7,0,0,1,.8-.8h3a.7.7,0,0,1,.7.8Zm0-7.6a.7.7,0,0,1-.7.8h-3a.7.7,0,0,1-.8-.8V80.2a.7.7,0,0,1,.8-.8h3a.7.7,0,0,1,.7.8Zm.1-45.7a.9.9,0,0,1-.8.8h-3a.9.9,0,0,1-.8-.8V34.4a.9.9,0,0,1,.8-.8h3a.9.9,0,0,1,.8.8Zm0-7.6a.9.9,0,0,1-.8.8h-3a.9.9,0,0,1-.8-.8V26.8a.9.9,0,0,1,.8-.8h3a.9.9,0,0,1,.8.8Zm2.8,27.2a.9.9,0,0,1,.8-.8h3a.8.8,0,0,1,.7.8V61a.8.8,0,0,1-.7.8h-3a.9.9,0,0,1-.8-.8Zm0,15.4a.8.8,0,0,1,.8-.8h3a.8.8,0,0,1,.8.8v3.4a.8.8,0,0,1-.8.8h-3a.8.8,0,0,1-.8-.8Zm4.6,18.3a.7.7,0,0,1-.8.8h-3a.7.7,0,0,1-.7-.8V87.8a.7.7,0,0,1,.7-.8h3a.7.7,0,0,1,.8.8Zm0-7.6a.7.7,0,0,1-.8.8h-3a.7.7,0,0,1-.7-.8V80.2a.7.7,0,0,1,.7-.8h3a.7.7,0,0,1,.8.8Zm0-45.7a.8.8,0,0,1-.7.8H11a.8.8,0,0,1-.8-.8V34.4a.8.8,0,0,1,.8-.8h3a.8.8,0,0,1,.7.8Zm0-7.6a.8.8,0,0,1-.7.8H11a.8.8,0,0,1-.8-.8V26.8A.8.8,0,0,1,11,26h3a.8.8,0,0,1,.7.8Zm2.9,27.2a.8.8,0,0,1,.8-.8h2.9a.8.8,0,0,1,.8.8V61a.8.8,0,0,1-.8.8H18.4a.8.8,0,0,1-.8-.8Zm0,15.6a.8.8,0,0,1,.8-.8h3a.8.8,0,0,1,.7.8v3.5a.8.8,0,0,1-.7.8h-3a.8.8,0,0,1-.8-.8Zm4.6,18.4a.9.9,0,0,1-.8.8h-3a.9.9,0,0,1-.8-.8V88a.9.9,0,0,1,.8-.8h3a.9.9,0,0,1,.8.8Zm0-7.6a.9.9,0,0,1-.8.8h-3a.9.9,0,0,1-.8-.8V80.4a.9.9,0,0,1,.8-.8h3a.9.9,0,0,1,.8.8Zm0-45.8a.7.7,0,0,1-.8.8h-3a.7.7,0,0,1-.7-.8V34.7a.7.7,0,0,1,.7-.8h3a.7.7,0,0,1,.8.8Zm0-7.6a.7.7,0,0,1-.8.8h-3a.7.7,0,0,1-.7-.8V27.1a.7.7,0,0,1,.7-.8h3a.7.7,0,0,1,.8.8Zm2.9,27.2a.8.8,0,0,1,.8-.8h3a.7.7,0,0,1,.7.8v3.4a.7.7,0,0,1-.7.8h-3a.8.8,0,0,1-.8-.8Zm0,15.3a.8.8,0,0,1,.8-.7h3a.8.8,0,0,1,.8.7v3.5a.9.9,0,0,1-.8.8h-3a.9.9,0,0,1-.8-.8Zm4.6,18.4a.8.8,0,0,1-.8.8h-3a.8.8,0,0,1-.7-.8V87.9a.7.7,0,0,1,.7-.7h3a.7.7,0,0,1,.8.7Zm0-7.6a.8.8,0,0,1-.8.8h-3a.8.8,0,0,1-.7-.8V80.3a.7.7,0,0,1,.7-.7h3a.7.7,0,0,1,.8.7Zm0-45.7a.7.7,0,0,1-.7.7H26a.7.7,0,0,1-.8-.7V34.6a.7.7,0,0,1,.8-.8h3a.7.7,0,0,1,.7.8Zm0-7.6a.7.7,0,0,1-.7.7H26a.7.7,0,0,1-.8-.7V27a.8.8,0,0,1,.8-.8h3a.8.8,0,0,1,.7.8Zm2.9,27.2a.7.7,0,0,1,.7-.8h3a.7.7,0,0,1,.8.8v3.4a.7.7,0,0,1-.8.8h-3a.7.7,0,0,1-.7-.8Zm0,15.6a.7.7,0,0,1,.8-.8h3a.7.7,0,0,1,.7.8v3.5a.7.7,0,0,1-.7.7h-3a.7.7,0,0,1-.8-.7Zm4.6,18.3a.8.8,0,0,1-.8.8h-3a.8.8,0,0,1-.8-.8V88.2a.8.8,0,0,1,.8-.8h3a.8.8,0,0,1,.8.8Zm0-7.5a.8.8,0,0,1-.8.7h-3a.8.8,0,0,1-.8-.7V80.6a.8.8,0,0,1,.8-.8h3a.8.8,0,0,1,.8.8Zm0-45.8a.8.8,0,0,1-.8.8h-3a.8.8,0,0,1-.7-.8V34.8a.8.8,0,0,1,.7-.8h3a.8.8,0,0,1,.8.8Zm0-7.6a.8.8,0,0,1-.8.8h-3a.8.8,0,0,1-.7-.8V27.2a.7.7,0,0,1,.7-.7h3a.7.7,0,0,1,.8.7Z" fill="#cec3d3"/>
  <path d="M10.8,94.5h8.9a0,0,0,0,1,0,0v14.8a0,0,0,0,1,0,0H8.8a0,0,0,0,1,0,0V96.6A2,2,0,0,1,10.8,94.5Z" fill="#b6afba"/>
  <path d="M20.4,94.5H31.3a0,0,0,0,1,0,0v14.9a0,0,0,0,1,0,0H22.5a2,2,0,0,1-2-2V94.5A0,0,0,0,1,20.4,94.5Z" transform="translate(51.8 203.8) rotate(-180)" fill="#b6afba"/>
</svg>
