<svg xmlns="http://www.w3.org/2000/svg" viewBox="0 0 66.5 100.4">
  <rect x="3.9" y="6.6" width="59.6" height="88.56" fill="#fff"/>
  <path d="M0,97.9a2.5,2.5,0,0,0,2.5,2.5H63.9a2.6,2.6,0,0,0,2.6-2.5V3.3A3.3,3.3,0,0,0,63.2,0H59.1a3.3,3.3,0,0,0-3.3,3.3v.3H10.7V3.3A3.3,3.3,0,0,0,7.4,0H3.3A3.3,3.3,0,0,0,0,3.3m33.5,7.6H46.6v6.8H33.5Zm0,8H46.6v6.6H33.5Zm0,7.8H46.6V33H33.5Zm0,7.5H46.6v6.5H33.5ZM19.2,10.9H32.3v6.8H19.2Zm0,8H32.3v6.6H19.2Zm0,7.8H32.3V33H19.2Zm0,7.5H32.3v6.5H19.2ZM5.6,11.7a.7.7,0,0,1,.7-.8H17.9v6.8H5.6Zm0,7.2H17.9v6.6H5.6Zm0,7.8H17.9V33H5.6Zm0,7.5H17.9v6.5H5.6Zm0,7.8H17.9v6.5H6.3a.7.7,0,0,1-.7-.7ZM18.7,92.9H5.6V86.3H18.7Zm0-7.8H5.6V78.6H18.7Zm0-7.7H5.6V71.1H18.7Zm0-7.5H5.6V63.3H18.7Zm0-7.8H5.6V55.3H18.7ZM19.2,42H32.3v6.5H19.2ZM32.5,92.9H19.9V86.3H32.5Zm0-7.8H19.9V78.6H32.5Zm0-7.7H19.9V71.1H32.5Zm0-7.5H19.9V63.3H32.5Zm0-7.8H19.9V55.3H32.5Zm1-20.1H46.6v6.5H33.5ZM46.8,92.9H33.7V86.3H46.8Zm0-7.8H33.7V78.6H46.8Zm0-7.7H33.7V71.1H46.8Zm0-7.5H33.7V63.3H46.8Zm0-7.8H33.7V55.3H46.8ZM60.6,92.9H48V86.3H60.6Zm0-7.8H48V78.6H60.6Zm0-7.7H48V71.1H60.6Zm0-7.5H48V63.3H60.6Zm0-7.8H48V55.3H60.6Zm.3-13.6H47.8V42H60.9Zm0-7.8H47.8V34.2H60.9Zm0-7.7H47.8V26.7H60.9Zm0-7.5H47.8V18.9H60.9Zm0-7.8H47.8V10.9H60.9Z" fill="#a19991"/>
</svg>
