<svg xmlns="http://www.w3.org/2000/svg" viewBox="0 0 39 70.8">
  <g>
    <rect x="4.2" width="30.7" height="4.68" rx="1.7" fill="#b6af92"/>
    <rect x="4.2" width="30.7" height="70.83" rx="1.7" fill="#cdc6ab"/>
    <path d="M36,2.7H3a2.9,2.9,0,0,0-3,3V67.8a2.9,2.9,0,0,0,3,3H4.5V61.6a1.1,1.1,0,0,1,1.1-1.1h4a1.1,1.1,0,0,1,1.1,1.1v9.2h.5V61.6a1.1,1.1,0,0,1,1.1-1.1h4a1.1,1.1,0,0,1,1.1,1.1v9.2h3.7V61.6a1.1,1.1,0,0,1,1.1-1.1h4a1.1,1.1,0,0,1,1.1,1.1v9.2h.4V61.6a1.1,1.1,0,0,1,1.1-1.1h4a1.1,1.1,0,0,1,1.1,1.1v9.2H36a3,3,0,0,0,3-3V5.7A3,3,0,0,0,36,2.7ZM8.2,56.3a1.2,1.2,0,0,1-1.1,1.2H5.6a1.2,1.2,0,0,1-1.1-1.2V8.3A1.2,1.2,0,0,1,5.6,7.1H7.1A1.2,1.2,0,0,1,8.2,8.3Zm6.3,0a1.2,1.2,0,0,1-1.2,1.2H11.9a1.2,1.2,0,0,1-1.2-1.2V8.3a1.2,1.2,0,0,1,1.2-1.2h1.4a1.2,1.2,0,0,1,1.2,1.2Zm6.2,0a1.2,1.2,0,0,1-1.2,1.2H18.1a1.3,1.3,0,0,1-1.2-1.2V8.3a1.3,1.3,0,0,1,1.2-1.2h1.4a1.2,1.2,0,0,1,1.2,1.2Zm6.5,0A1.3,1.3,0,0,1,26,57.5H24.6a1.2,1.2,0,0,1-1.2-1.2V8.3a1.2,1.2,0,0,1,1.2-1.2H26a1.3,1.3,0,0,1,1.2,1.2Zm6.7,0a1.3,1.3,0,0,1-1.2,1.2H31.2a1.2,1.2,0,0,1-1.1-1.2V8.3a1.2,1.2,0,0,1,1.1-1.2h1.5a1.3,1.3,0,0,1,1.2,1.2Z" fill="#e8dfb8"/>
  </g>
</svg>
