<svg xmlns="http://www.w3.org/2000/svg" viewBox="0 0 70.1 140.4">
    <path d="M65.2,5.9H60.8V4.1A4.1,4.1,0,0,0,56.6,0H15a4.1,4.1,0,0,0-4.1,4.1V5.9h-6A4.9,4.9,0,0,0,0,10.8V135.5a4.9,4.9,0,0,0,4.9,4.9H65.2a4.9,4.9,0,0,0,4.9-4.9V10.8A4.9,4.9,0,0,0,65.2,5.9Z" fill="#e0d7d0"/>
    <path d="M65.2,5.7H4.9A4.9,4.9,0,0,0,0,10.6V135.3a4.9,4.9,0,0,0,4.9,4.9H65.2a4.9,4.9,0,0,0,4.9-4.9V10.6A4.9,4.9,0,0,0,65.2,5.7Zm-4,6.1a.8.8,0,0,1,.7-.8h1.9a.8.8,0,0,1,.7.8v1.8a.7.7,0,0,1-.7.7H61.9a.7.7,0,0,1-.7-.7Zm0,8.9a.7.7,0,0,1,.7-.7h1.9a.7.7,0,0,1,.7.7v1.9a.7.7,0,0,1-.7.7H61.9a.7.7,0,0,1-.7-.7Zm0,4.4a.7.7,0,0,1,.7-.7h1.9a.7.7,0,0,1,.7.7V27a.7.7,0,0,1-.7.7H61.9a.7.7,0,0,1-.7-.7Zm.1,26.8a.7.7,0,0,1,.7-.7h1.9a.7.7,0,0,1,.7.7v1.9a.7.7,0,0,1-.7.7H62a.7.7,0,0,1-.7-.7Zm-.1-2.6V47.5a.9.9,0,0,1,.8-.8h1.8a.8.8,0,0,1,.7.8v1.8a.7.7,0,0,1-.7.7H62A.8.8,0,0,1,61.2,49.3Zm3.3-4.5a.7.7,0,0,1-.7.7H62a.8.8,0,0,1-.8-.7V43a.9.9,0,0,1,.8-.8h1.8a.8.8,0,0,1,.7.8ZM61.2,56.3a.7.7,0,0,1,.7-.7h1.8a.8.8,0,0,1,.8.7v1.9a.8.8,0,0,1-.8.7H61.9a.7.7,0,0,1-.7-.7Zm3.3,4.4v1.9a.7.7,0,0,1-.7.7H61.9a.7.7,0,0,1-.7-.7V60.7a.7.7,0,0,1,.7-.7h1.9A.7.7,0,0,1,64.5,60.7Zm-3.4,4.6a.8.8,0,0,1,.8-.7h1.8a.7.7,0,0,1,.7.7v1.9a.7.7,0,0,1-.7.7H61.9a.8.8,0,0,1-.8-.7Zm0,9a.8.8,0,0,1,.8-.7h1.8a.7.7,0,0,1,.7.7v1.8a.8.8,0,0,1-.7.8H61.9a.9.9,0,0,1-.8-.8Zm0,4.4a.8.8,0,0,1,.8-.7h1.8a.7.7,0,0,1,.7.7v1.8a.8.8,0,0,1-.7.8H61.9a.9.9,0,0,1-.8-.8Zm2.6,20.4H61.9a.7.7,0,0,1-.7-.7V96.5a.7.7,0,0,1,.7-.7h1.8a.8.8,0,0,1,.8.7v1.9A.8.8,0,0,1,63.7,99.1Zm.8,1.9v1.9a.8.8,0,0,1-.8.7H61.9a.7.7,0,0,1-.7-.7V101a.7.7,0,0,1,.7-.7h1.8A.8.8,0,0,1,64.5,101ZM31,11.7a.7.7,0,0,1,.7-.7h1.8a.8.8,0,0,1,.8.7v1.9a.8.8,0,0,1-.8.7H31.7a.7.7,0,0,1-.7-.7Zm0,9a.7.7,0,0,1,.7-.7h1.8a.8.8,0,0,1,.8.7v1.8a.9.9,0,0,1-.8.8H31.7a.8.8,0,0,1-.7-.8Zm0,4.4a.7.7,0,0,1,.7-.7h1.8a.8.8,0,0,1,.8.7v1.8a.9.9,0,0,1-.8.8H31.7a.8.8,0,0,1-.7-.8Zm0,26.8a.8.8,0,0,1,.8-.7h1.8a.7.7,0,0,1,.7.7v1.8a.8.8,0,0,1-.7.8H31.8a.9.9,0,0,1-.8-.8Zm0-2.6V47.4a.7.7,0,0,1,.7-.7h1.8a.7.7,0,0,1,.8.7v1.9a.7.7,0,0,1-.8.7H31.7A.7.7,0,0,1,31,49.3Zm3.3-4.5a.7.7,0,0,1-.8.7H31.7a.7.7,0,0,1-.7-.7V42.9a.7.7,0,0,1,.7-.7h1.8a.7.7,0,0,1,.8.7ZM30.9,56.3a.8.8,0,0,1,.8-.7h1.8a.7.7,0,0,1,.7.7v1.8a.8.8,0,0,1-.7.8H31.7a.9.9,0,0,1-.8-.8Zm3.4,4.4v1.8a.9.9,0,0,1-.8.8H31.7a.8.8,0,0,1-.7-.8V60.7a.7.7,0,0,1,.7-.7h1.8A.8.8,0,0,1,34.3,60.7Zm-3.4,4.6a.7.7,0,0,1,.7-.7h1.9a.7.7,0,0,1,.7.7v1.8a.8.8,0,0,1-.7.8H31.6a.8.8,0,0,1-.7-.8Zm0,9a.8.8,0,0,1,.7-.8h1.9a.8.8,0,0,1,.7.8v1.8a.7.7,0,0,1-.7.7H31.6a.7.7,0,0,1-.7-.7Zm0,4.4a.8.8,0,0,1,.7-.8h1.9a.8.8,0,0,1,.7.8v1.8a.7.7,0,0,1-.7.7H31.6a.7.7,0,0,1-.7-.7Zm2.6,20.4H31.7a.7.7,0,0,1-.8-.7V96.5a.7.7,0,0,1,.8-.7h1.8a.7.7,0,0,1,.7.7v1.9A.7.7,0,0,1,33.5,99.1Zm.7,1.9v1.8a.7.7,0,0,1-.7.8H31.7a.7.7,0,0,1-.8-.8V101a.7.7,0,0,1,.8-.7h1.8A.7.7,0,0,1,34.2,101ZM8.9,116.2a.8.8,0,0,1-.8.7H6.3a.7.7,0,0,1-.7-.7v-1.9a.7.7,0,0,1,.7-.7H8.1a.8.8,0,0,1,.8.7Zm0-4.5a.8.8,0,0,1-.8.7H6.3a.7.7,0,0,1-.7-.7v-1.8a.8.8,0,0,1,.7-.8H8.1a.9.9,0,0,1,.8.8Zm0-4.5a.9.9,0,0,1-.8.8H6.3a.8.8,0,0,1-.7-.8v-1.8a.7.7,0,0,1,.7-.7H8.1a.8.8,0,0,1,.8.7Zm0-4.4a.8.8,0,0,1-.8.7H6.3a.7.7,0,0,1-.7-.7v-1.9a.7.7,0,0,1,.7-.7H8.1a.8.8,0,0,1,.8.7Zm0-4.5a.9.9,0,0,1-.8.8H6.3a.8.8,0,0,1-.7-.8V96.5a.7.7,0,0,1,.7-.7H8.1a.8.8,0,0,1,.8.7Zm0-4.4a.8.8,0,0,1-.8.7H6.3a.7.7,0,0,1-.7-.7V92a.7.7,0,0,1,.7-.7H8.1a.8.8,0,0,1,.8.7Zm0-4.5a.8.8,0,0,1-.8.7H6.3a.7.7,0,0,1-.7-.7V87.6a.8.8,0,0,1,.7-.8H8.1a.9.9,0,0,1,.8.8Zm0-4.5a.9.9,0,0,1-.8.8H6.3a.8.8,0,0,1-.7-.8V83.1a.7.7,0,0,1,.7-.7H8.1a.8.8,0,0,1,.8.7Zm0-4.4a.8.8,0,0,1-.8.7H6.3a.7.7,0,0,1-.7-.7V78.6a.7.7,0,0,1,.7-.7H8.1a.8.8,0,0,1,.8.7Zm0-4.5a.9.9,0,0,1-.8.8H6.3a.8.8,0,0,1-.7-.8V74.2a.7.7,0,0,1,.7-.7H8.1a.8.8,0,0,1,.8.7Zm0-4.4a.8.8,0,0,1-.8.7H6.3a.7.7,0,0,1-.7-.7V69.7a.7.7,0,0,1,.7-.7H8.1a.8.8,0,0,1,.8.7Zm0-4.5a.8.8,0,0,1-.8.7H6.3a.7.7,0,0,1-.7-.7V65.3a.8.8,0,0,1,.7-.8H8.1a.9.9,0,0,1,.8.8Zm0-4.5a.7.7,0,0,1-.7.7H6.4a.8.8,0,0,1-.8-.7V60.8a.8.8,0,0,1,.8-.8H8.2a.7.7,0,0,1,.7.8Zm0-4.5a.8.8,0,0,1-.7.8H6.4a.9.9,0,0,1-.8-.8V56.3a.8.8,0,0,1,.8-.7H8.2a.7.7,0,0,1,.7.7Zm0-4.4a.7.7,0,0,1-.7.7H6.4a.8.8,0,0,1-.8-.7V51.8a.8.8,0,0,1,.8-.7H8.2a.7.7,0,0,1,.7.7Zm0-4.5a.7.7,0,0,1-.7.7H6.4a.8.8,0,0,1-.8-.7V47.4a.9.9,0,0,1,.8-.8H8.2a.8.8,0,0,1,.7.8Zm0-4.5a.7.7,0,0,1-.7.8H6.4a.8.8,0,0,1-.8-.8V42.9a.8.8,0,0,1,.8-.7H8.2a.7.7,0,0,1,.7.7Zm0-4.4a.7.7,0,0,1-.7.7H6.4a.8.8,0,0,1-.8-.7V38.5a.8.8,0,0,1,.8-.8H8.2a.7.7,0,0,1,.7.8Zm0-4.5a.8.8,0,0,1-.7.8H6.4a.9.9,0,0,1-.8-.8V34a.8.8,0,0,1,.8-.7H8.2a.7.7,0,0,1,.7.7Zm0-4.4a.7.7,0,0,1-.7.7H6.4a.8.8,0,0,1-.8-.7V29.5a.8.8,0,0,1,.8-.7H8.2a.7.7,0,0,1,.7.7Zm0-4.5a.7.7,0,0,1-.7.7H6.4a.8.8,0,0,1-.8-.7V25.1a.9.9,0,0,1,.8-.8H8.2a.8.8,0,0,1,.7.8Zm0-4.5a.7.7,0,0,1-.7.8H6.4a.8.8,0,0,1-.8-.8V20.6a.8.8,0,0,1,.8-.7H8.2a.7.7,0,0,1,.7.7Zm0-4.4a.7.7,0,0,1-.7.7H6.4a.8.8,0,0,1-.8-.7V16.2a.8.8,0,0,1,.8-.8H8.2a.7.7,0,0,1,.7.8Zm0-4.5a.8.8,0,0,1-.7.8H6.4a.9.9,0,0,1-.8-.8V11.7a.8.8,0,0,1,.8-.7H8.2a.7.7,0,0,1,.7.7ZM14,116.2a.7.7,0,0,1-.7.7H11.4a.7.7,0,0,1-.7-.7v-1.9a.7.7,0,0,1,.7-.7h1.9a.7.7,0,0,1,.7.7Zm0-4.5a.7.7,0,0,1-.7.7H11.4a.7.7,0,0,1-.7-.7v-1.8a.8.8,0,0,1,.7-.8h1.9a.8.8,0,0,1,.7.8Zm0-4.5a.8.8,0,0,1-.7.8H11.4a.8.8,0,0,1-.7-.8v-1.8a.7.7,0,0,1,.7-.7h1.9a.7.7,0,0,1,.7.7Zm0-4.4a.7.7,0,0,1-.7.7H11.4a.7.7,0,0,1-.7-.7v-1.9a.7.7,0,0,1,.7-.7h1.9a.7.7,0,0,1,.7.7Zm0-4.5a.8.8,0,0,1-.7.8H11.4a.8.8,0,0,1-.7-.8V96.5a.7.7,0,0,1,.7-.7h1.9a.7.7,0,0,1,.7.7Zm0-4.4a.7.7,0,0,1-.7.7H11.4a.7.7,0,0,1-.7-.7V92a.7.7,0,0,1,.7-.7h1.9a.7.7,0,0,1,.7.7Zm0-4.5a.7.7,0,0,1-.7.7H11.4a.7.7,0,0,1-.7-.7V87.6a.8.8,0,0,1,.7-.8h1.9a.8.8,0,0,1,.7.8Zm0-4.5a.8.8,0,0,1-.7.8H11.4a.8.8,0,0,1-.7-.8V83.1a.7.7,0,0,1,.7-.7h1.9a.7.7,0,0,1,.7.7Zm0-4.4a.7.7,0,0,1-.7.7H11.4a.7.7,0,0,1-.7-.7V78.6a.7.7,0,0,1,.7-.7h1.9a.7.7,0,0,1,.7.7ZM14,76a.8.8,0,0,1-.7.8H11.4a.8.8,0,0,1-.7-.8V74.2a.7.7,0,0,1,.7-.7h1.9a.7.7,0,0,1,.7.7Zm0-4.4a.7.7,0,0,1-.7.7H11.4a.7.7,0,0,1-.7-.7V69.7a.7.7,0,0,1,.7-.7h1.9a.7.7,0,0,1,.7.7Zm0-4.5a.7.7,0,0,1-.7.7H11.4a.7.7,0,0,1-.7-.7V65.3a.8.8,0,0,1,.7-.8h1.9a.8.8,0,0,1,.7.8Zm.1-4.5a.8.8,0,0,1-.8.7H11.5a.8.8,0,0,1-.8-.7V60.8a.8.8,0,0,1,.8-.8h1.8a.8.8,0,0,1,.8.8Zm0-4.5a.9.9,0,0,1-.8.8H11.5a.9.9,0,0,1-.8-.8V56.3a.8.8,0,0,1,.8-.7h1.8a.8.8,0,0,1,.8.7Zm0-4.4a.8.8,0,0,1-.8.7H11.5a.8.8,0,0,1-.8-.7V51.8a.8.8,0,0,1,.8-.7h1.8a.8.8,0,0,1,.8.7Zm0-4.5a.8.8,0,0,1-.8.7H11.5a.8.8,0,0,1-.8-.7V47.4a.9.9,0,0,1,.8-.8h1.8a.9.9,0,0,1,.8.8Zm0-4.5a.8.8,0,0,1-.8.8H11.5a.8.8,0,0,1-.8-.8V42.9a.8.8,0,0,1,.8-.7h1.8a.8.8,0,0,1,.8.7Zm0-4.4a.8.8,0,0,1-.8.7H11.5a.8.8,0,0,1-.8-.7V38.5a.8.8,0,0,1,.8-.8h1.8a.8.8,0,0,1,.8.8Zm0-4.5a.9.9,0,0,1-.8.8H11.5a.9.9,0,0,1-.8-.8V34a.8.8,0,0,1,.8-.7h1.8a.8.8,0,0,1,.8.7Zm0-4.4a.8.8,0,0,1-.8.7H11.5a.8.8,0,0,1-.8-.7V29.5a.8.8,0,0,1,.8-.7h1.8a.8.8,0,0,1,.8.7Zm0-4.5a.8.8,0,0,1-.8.7H11.5a.8.8,0,0,1-.8-.7V25.1a.9.9,0,0,1,.8-.8h1.8a.9.9,0,0,1,.8.8Zm0-4.5a.8.8,0,0,1-.8.8H11.5a.8.8,0,0,1-.8-.8V20.6a.8.8,0,0,1,.8-.7h1.8a.8.8,0,0,1,.8.7Zm0-4.4a.8.8,0,0,1-.8.7H11.5a.8.8,0,0,1-.8-.7V16.2a.8.8,0,0,1,.8-.8h1.8a.8.8,0,0,1,.8.8Zm0-4.5a.9.9,0,0,1-.8.8H11.5a.9.9,0,0,1-.8-.8V11.7a.8.8,0,0,1,.8-.7h1.8a.8.8,0,0,1,.8.7Zm5,102.7a.7.7,0,0,1-.7.7H16.5a.7.7,0,0,1-.7-.7v-1.9a.7.7,0,0,1,.7-.7h1.9a.7.7,0,0,1,.7.7Zm0-4.5a.7.7,0,0,1-.7.7H16.5a.7.7,0,0,1-.7-.7v-1.8a.8.8,0,0,1,.7-.8h1.9a.8.8,0,0,1,.7.8Zm0-4.5a.8.8,0,0,1-.7.8H16.5a.8.8,0,0,1-.7-.8v-1.8a.7.7,0,0,1,.7-.7h1.9a.7.7,0,0,1,.7.7Zm0-4.4a.7.7,0,0,1-.7.7H16.5a.7.7,0,0,1-.7-.7v-1.9a.7.7,0,0,1,.7-.7h1.9a.7.7,0,0,1,.7.7Zm0-4.5a.8.8,0,0,1-.7.8H16.5a.8.8,0,0,1-.7-.8V96.5a.7.7,0,0,1,.7-.7h1.9a.7.7,0,0,1,.7.7Zm0-4.4a.7.7,0,0,1-.7.7H16.5a.7.7,0,0,1-.7-.7V92a.7.7,0,0,1,.7-.7h1.9a.7.7,0,0,1,.7.7Zm0-4.5a.7.7,0,0,1-.7.7H16.5a.7.7,0,0,1-.7-.7V87.6a.8.8,0,0,1,.7-.8h1.9a.8.8,0,0,1,.7.8Zm0-4.5a.8.8,0,0,1-.7.8H16.5a.8.8,0,0,1-.7-.8V83.1a.7.7,0,0,1,.7-.7h1.9a.7.7,0,0,1,.7.7Zm0-4.4a.7.7,0,0,1-.7.7H16.5a.7.7,0,0,1-.7-.7V78.6a.7.7,0,0,1,.7-.7h1.9a.7.7,0,0,1,.7.7Zm0-4.5a.8.8,0,0,1-.7.8H16.5a.8.8,0,0,1-.7-.8V74.2a.7.7,0,0,1,.7-.7h1.9a.7.7,0,0,1,.7.7Zm0-4.4a.7.7,0,0,1-.7.7H16.5a.7.7,0,0,1-.7-.7V69.7a.7.7,0,0,1,.7-.7h1.9a.7.7,0,0,1,.7.7Zm0-4.5a.7.7,0,0,1-.7.7H16.5a.7.7,0,0,1-.7-.7V65.3a.8.8,0,0,1,.7-.8h1.9a.8.8,0,0,1,.7.8Zm.1-4.5a.8.8,0,0,1-.8.7H16.6a.7.7,0,0,1-.7-.7V60.8a.7.7,0,0,1,.7-.8h1.8a.8.8,0,0,1,.8.8Zm0-4.5a.9.9,0,0,1-.8.8H16.6a.8.8,0,0,1-.7-.8V56.3a.7.7,0,0,1,.7-.7h1.8a.8.8,0,0,1,.8.7Zm0-4.4a.8.8,0,0,1-.8.7H16.6a.7.7,0,0,1-.7-.7V51.8a.7.7,0,0,1,.7-.7h1.8a.8.8,0,0,1,.8.7Zm0-4.5a.8.8,0,0,1-.8.7H16.6a.7.7,0,0,1-.7-.7V47.4a.8.8,0,0,1,.7-.8h1.8a.9.9,0,0,1,.8.8Zm0-4.5a.8.8,0,0,1-.8.8H16.6a.7.7,0,0,1-.7-.8V42.9a.7.7,0,0,1,.7-.7h1.8a.8.8,0,0,1,.8.7Zm0-4.4a.8.8,0,0,1-.8.7H16.6a.7.7,0,0,1-.7-.7V38.5a.7.7,0,0,1,.7-.8h1.8a.8.8,0,0,1,.8.8Zm0-4.5a.9.9,0,0,1-.8.8H16.6a.8.8,0,0,1-.7-.8V34a.7.7,0,0,1,.7-.7h1.8a.8.8,0,0,1,.8.7Zm0-4.4a.8.8,0,0,1-.8.7H16.6a.7.7,0,0,1-.7-.7V29.5a.7.7,0,0,1,.7-.7h1.8a.8.8,0,0,1,.8.7Zm0-4.5a.8.8,0,0,1-.8.7H16.6a.7.7,0,0,1-.7-.7V25.1a.8.8,0,0,1,.7-.8h1.8a.9.9,0,0,1,.8.8Zm0-4.5a.8.8,0,0,1-.8.8H16.6a.7.7,0,0,1-.7-.8V20.6a.7.7,0,0,1,.7-.7h1.8a.8.8,0,0,1,.8.7Zm0-4.4a.8.8,0,0,1-.8.7H16.6a.7.7,0,0,1-.7-.7V16.2a.7.7,0,0,1,.7-.8h1.8a.8.8,0,0,1,.8.8Zm0-4.5a.9.9,0,0,1-.8.8H16.6a.8.8,0,0,1-.7-.8V11.7a.7.7,0,0,1,.7-.7h1.8a.8.8,0,0,1,.8.7Zm4.9,102.7a.8.8,0,0,1-.8.7H21.5a.7.7,0,0,1-.7-.7v-1.9a.7.7,0,0,1,.7-.7h1.8a.8.8,0,0,1,.8.7Zm0-4.5a.8.8,0,0,1-.8.7H21.5a.7.7,0,0,1-.7-.7v-1.8a.8.8,0,0,1,.7-.8h1.8a.9.9,0,0,1,.8.8Zm0-4.5a.9.9,0,0,1-.8.8H21.5a.8.8,0,0,1-.7-.8v-1.8a.7.7,0,0,1,.7-.7h1.8a.8.8,0,0,1,.8.7Zm0-4.4a.8.8,0,0,1-.8.7H21.5a.7.7,0,0,1-.7-.7v-1.9a.7.7,0,0,1,.7-.7h1.8a.8.8,0,0,1,.8.7Zm0-4.5a.9.9,0,0,1-.8.8H21.5a.8.8,0,0,1-.7-.8V96.5a.7.7,0,0,1,.7-.7h1.8a.8.8,0,0,1,.8.7Zm0-4.4a.8.8,0,0,1-.8.7H21.5a.7.7,0,0,1-.7-.7V92a.7.7,0,0,1,.7-.7h1.8a.8.8,0,0,1,.8.7Zm0-4.5a.8.8,0,0,1-.8.7H21.5a.7.7,0,0,1-.7-.7V87.6a.8.8,0,0,1,.7-.8h1.8a.9.9,0,0,1,.8.8Zm0-4.5a.9.9,0,0,1-.8.8H21.5a.8.8,0,0,1-.7-.8V83.1a.7.7,0,0,1,.7-.7h1.8a.8.8,0,0,1,.8.7Zm0-4.4a.8.8,0,0,1-.8.7H21.5a.7.7,0,0,1-.7-.7V78.6a.7.7,0,0,1,.7-.7h1.8a.8.8,0,0,1,.8.7Zm0-4.5a.9.9,0,0,1-.8.8H21.5a.8.8,0,0,1-.7-.8V74.2a.7.7,0,0,1,.7-.7h1.8a.8.8,0,0,1,.8.7Zm0-4.4a.8.8,0,0,1-.8.7H21.5a.7.7,0,0,1-.7-.7V69.7a.7.7,0,0,1,.7-.7h1.8a.8.8,0,0,1,.8.7Zm0-4.5a.8.8,0,0,1-.8.7H21.5a.7.7,0,0,1-.7-.7V65.3a.8.8,0,0,1,.7-.8h1.8a.9.9,0,0,1,.8.8Zm0-4.5a.7.7,0,0,1-.7.7H21.6a.8.8,0,0,1-.8-.7V60.8a.8.8,0,0,1,.8-.8h1.8a.7.7,0,0,1,.7.8Zm0-4.5a.8.8,0,0,1-.7.8H21.6a.9.9,0,0,1-.8-.8V56.3a.8.8,0,0,1,.8-.7h1.8a.7.7,0,0,1,.7.7Zm0-4.4a.7.7,0,0,1-.7.7H21.6a.8.8,0,0,1-.8-.7V51.8a.8.8,0,0,1,.8-.7h1.8a.7.7,0,0,1,.7.7Zm0-4.5a.7.7,0,0,1-.7.7H21.6a.8.8,0,0,1-.8-.7V47.4a.9.9,0,0,1,.8-.8h1.8a.8.8,0,0,1,.7.8Zm0-4.5a.7.7,0,0,1-.7.8H21.6a.8.8,0,0,1-.8-.8V42.9a.8.8,0,0,1,.8-.7h1.8a.7.7,0,0,1,.7.7Zm0-4.4a.7.7,0,0,1-.7.7H21.6a.8.8,0,0,1-.8-.7V38.5a.8.8,0,0,1,.8-.8h1.8a.7.7,0,0,1,.7.8Zm0-4.5a.8.8,0,0,1-.7.8H21.6a.9.9,0,0,1-.8-.8V34a.8.8,0,0,1,.8-.7h1.8a.7.7,0,0,1,.7.7Zm0-4.4a.7.7,0,0,1-.7.7H21.6a.8.8,0,0,1-.8-.7V29.5a.8.8,0,0,1,.8-.7h1.8a.7.7,0,0,1,.7.7Zm0-4.5a.7.7,0,0,1-.7.7H21.6a.8.8,0,0,1-.8-.7V25.1a.9.9,0,0,1,.8-.8h1.8a.8.8,0,0,1,.7.8Zm0-4.5a.7.7,0,0,1-.7.8H21.6a.8.8,0,0,1-.8-.8V20.6a.8.8,0,0,1,.8-.7h1.8a.7.7,0,0,1,.7.7Zm0-4.4a.7.7,0,0,1-.7.7H21.6a.8.8,0,0,1-.8-.7V16.2a.8.8,0,0,1,.8-.8h1.8a.7.7,0,0,1,.7.8Zm0-4.5a.8.8,0,0,1-.7.8H21.6a.9.9,0,0,1-.8-.8V11.7a.8.8,0,0,1,.8-.7h1.8a.7.7,0,0,1,.7.7Zm5.1,102.7a.7.7,0,0,1-.7.7H26.6a.7.7,0,0,1-.7-.7v-1.9a.7.7,0,0,1,.7-.7h1.9a.7.7,0,0,1,.7.7Zm0-4.5a.7.7,0,0,1-.7.7H26.6a.7.7,0,0,1-.7-.7v-1.8a.8.8,0,0,1,.7-.8h1.9a.8.8,0,0,1,.7.8Zm0-4.5a.8.8,0,0,1-.7.8H26.6a.8.8,0,0,1-.7-.8v-1.8a.7.7,0,0,1,.7-.7h1.9a.7.7,0,0,1,.7.7Zm0-4.4a.7.7,0,0,1-.7.7H26.6a.7.7,0,0,1-.7-.7v-1.9a.7.7,0,0,1,.7-.7h1.9a.7.7,0,0,1,.7.7Zm0-4.5a.8.8,0,0,1-.7.8H26.6a.8.8,0,0,1-.7-.8V96.5a.7.7,0,0,1,.7-.7h1.9a.7.7,0,0,1,.7.7Zm0-4.4a.7.7,0,0,1-.7.7H26.6a.7.7,0,0,1-.7-.7V92a.7.7,0,0,1,.7-.7h1.9a.7.7,0,0,1,.7.7Zm0-4.5a.7.7,0,0,1-.7.7H26.6a.7.7,0,0,1-.7-.7V87.6a.8.8,0,0,1,.7-.8h1.9a.8.8,0,0,1,.7.8Zm0-4.5a.8.8,0,0,1-.7.8H26.6a.8.8,0,0,1-.7-.8V83.1a.7.7,0,0,1,.7-.7h1.9a.7.7,0,0,1,.7.7Zm0-4.4a.7.7,0,0,1-.7.7H26.6a.7.7,0,0,1-.7-.7V78.6a.7.7,0,0,1,.7-.7h1.9a.7.7,0,0,1,.7.7Zm0-4.5a.8.8,0,0,1-.7.8H26.6a.8.8,0,0,1-.7-.8V74.2a.7.7,0,0,1,.7-.7h1.9a.7.7,0,0,1,.7.7Zm0-4.4a.7.7,0,0,1-.7.7H26.6a.7.7,0,0,1-.7-.7V69.7a.7.7,0,0,1,.7-.7h1.9a.7.7,0,0,1,.7.7Zm0-4.5a.7.7,0,0,1-.7.7H26.6a.7.7,0,0,1-.7-.7V65.3a.8.8,0,0,1,.7-.8h1.9a.8.8,0,0,1,.7.8Zm.1-4.5a.8.8,0,0,1-.8.7H26.7a.8.8,0,0,1-.8-.7V60.8a.8.8,0,0,1,.8-.8h1.8a.8.8,0,0,1,.8.8Zm0-4.5a.9.9,0,0,1-.8.8H26.7a.9.9,0,0,1-.8-.8V56.3a.8.8,0,0,1,.8-.7h1.8a.8.8,0,0,1,.8.7Zm0-4.4a.8.8,0,0,1-.8.7H26.7a.8.8,0,0,1-.8-.7V51.8a.8.8,0,0,1,.8-.7h1.8a.8.8,0,0,1,.8.7Zm0-4.5a.8.8,0,0,1-.8.7H26.7a.8.8,0,0,1-.8-.7V47.4a.9.9,0,0,1,.8-.8h1.8a.9.9,0,0,1,.8.8Zm0-4.5a.8.8,0,0,1-.8.8H26.7a.8.8,0,0,1-.8-.8V42.9a.8.8,0,0,1,.8-.7h1.8a.8.8,0,0,1,.8.7Zm0-4.4a.8.8,0,0,1-.8.7H26.7a.8.8,0,0,1-.8-.7V38.5a.8.8,0,0,1,.8-.8h1.8a.8.8,0,0,1,.8.8Zm0-4.5a.9.9,0,0,1-.8.8H26.7a.9.9,0,0,1-.8-.8V34a.8.8,0,0,1,.8-.7h1.8a.8.8,0,0,1,.8.7Zm0-4.4a.8.8,0,0,1-.8.7H26.7a.8.8,0,0,1-.8-.7V29.5a.8.8,0,0,1,.8-.7h1.8a.8.8,0,0,1,.8.7Zm0-4.5a.8.8,0,0,1-.8.7H26.7a.8.8,0,0,1-.8-.7V25.1a.9.9,0,0,1,.8-.8h1.8a.9.9,0,0,1,.8.8Zm0-4.5a.8.8,0,0,1-.8.8H26.7a.8.8,0,0,1-.8-.8V20.6a.8.8,0,0,1,.8-.7h1.8a.8.8,0,0,1,.8.7Zm0-4.4a.8.8,0,0,1-.8.7H26.7a.8.8,0,0,1-.8-.7V16.2a.8.8,0,0,1,.8-.8h1.8a.8.8,0,0,1,.8.8Zm0-4.5a.9.9,0,0,1-.8.8H26.7a.9.9,0,0,1-.8-.8V11.7a.8.8,0,0,1,.8-.7h1.8a.8.8,0,0,1,.8.7Zm1.6,96.4a.8.8,0,0,1,.7-.8h1.8a.9.9,0,0,1,.8.8v1.8a.8.8,0,0,1-.8.7H31.6a.7.7,0,0,1-.7-.7Zm3.3,6.2a.7.7,0,0,1-.7.7H31.6a.7.7,0,0,1-.7-.7v-1.8a.8.8,0,0,1,.7-.8h1.9a.8.8,0,0,1,.7.8Zm.1-8.8a.8.8,0,0,1-.8.7H31.7a.7.7,0,0,1-.7-.7v-1.8a.8.8,0,0,1,.7-.8h1.8a.9.9,0,0,1,.8.8Zm0-13.4a.7.7,0,0,1-.7.7H31.8a.8.8,0,0,1-.8-.7V92.1a.9.9,0,0,1,.8-.8h1.8a.8.8,0,0,1,.7.8Zm0-4.5a.7.7,0,0,1-.7.7H31.8a.8.8,0,0,1-.8-.7V87.6a.9.9,0,0,1,.8-.8h1.8a.8.8,0,0,1,.7.8Zm0-4.5a.7.7,0,0,1-.7.7H31.8a.8.8,0,0,1-.8-.7V83.1a.9.9,0,0,1,.8-.8h1.8a.8.8,0,0,1,.7.8Zm0-13.4a.7.7,0,0,1-.7.8H31.8a.8.8,0,0,1-.8-.8V69.7a.8.8,0,0,1,.8-.7h1.8a.7.7,0,0,1,.7.7Zm.1-31.2a.7.7,0,0,1-.7.7H31.8a.7.7,0,0,1-.7-.7V38.5a.8.8,0,0,1,.7-.8h1.9a.8.8,0,0,1,.7.8Zm0-4.5a.8.8,0,0,1-.7.8H31.8a.8.8,0,0,1-.7-.8V34a.7.7,0,0,1,.7-.7h1.9a.7.7,0,0,1,.7.7Zm0-4.5a.8.8,0,0,1-.7.8H31.8a.8.8,0,0,1-.7-.8V29.5a.7.7,0,0,1,.7-.7h1.9a.7.7,0,0,1,.7.7Zm0-13.3a.7.7,0,0,1-.7.7H31.8a.7.7,0,0,1-.7-.7V16.1a.7.7,0,0,1,.7-.7h1.9a.7.7,0,0,1,.7.7Zm4.7,98.2a.7.7,0,0,1-.7.7H36.6a.7.7,0,0,1-.8-.7v-1.8a.8.8,0,0,1,.8-.8h1.8a.8.8,0,0,1,.7.8Zm0-4.5a.8.8,0,0,1-.7.8H36.6a.8.8,0,0,1-.8-.8v-1.8a.7.7,0,0,1,.8-.7h1.8a.7.7,0,0,1,.7.7Zm0-4.4a.7.7,0,0,1-.7.7H36.6a.7.7,0,0,1-.8-.7v-1.9a.7.7,0,0,1,.8-.7h1.8a.7.7,0,0,1,.7.7Zm0-4.5a.7.7,0,0,1-.7.7H36.6a.7.7,0,0,1-.8-.7V101a.8.8,0,0,1,.8-.8h1.8a.8.8,0,0,1,.7.8Zm0-4.4a.7.7,0,0,1-.7.7H36.6a.7.7,0,0,1-.8-.7V96.5a.7.7,0,0,1,.8-.7h1.8a.7.7,0,0,1,.7.7Zm0-4.5a.7.7,0,0,1-.7.7H36.6a.7.7,0,0,1-.8-.7V92.1a.8.8,0,0,1,.8-.8h1.8a.8.8,0,0,1,.7.8Zm0-4.5a.8.8,0,0,1-.7.8H36.6a.8.8,0,0,1-.8-.8V87.6a.7.7,0,0,1,.8-.7h1.8a.7.7,0,0,1,.7.7Zm0-4.4a.7.7,0,0,1-.7.7H36.6a.7.7,0,0,1-.8-.7V83.1a.7.7,0,0,1,.8-.7h1.8a.7.7,0,0,1,.7.7Zm0-4.5a.7.7,0,0,1-.7.7H36.6a.7.7,0,0,1-.8-.7V78.7a.8.8,0,0,1,.8-.8h1.8a.8.8,0,0,1,.7.8Zm0-4.4a.7.7,0,0,1-.7.7H36.6a.7.7,0,0,1-.8-.7V74.2a.7.7,0,0,1,.8-.7h1.8a.7.7,0,0,1,.7.7Zm0-4.5a.7.7,0,0,1-.7.7H36.6a.7.7,0,0,1-.8-.7V69.8a.8.8,0,0,1,.8-.8h1.8a.8.8,0,0,1,.7.8Zm0-4.5a.8.8,0,0,1-.7.8H36.6a.8.8,0,0,1-.8-.8V65.3a.7.7,0,0,1,.8-.7h1.8a.7.7,0,0,1,.7.7Zm.1-4.5a.7.7,0,0,1-.8.7H36.6a.7.7,0,0,1-.7-.7V60.8a.8.8,0,0,1,.7-.8h1.8a.8.8,0,0,1,.8.8Zm0-4.4a.7.7,0,0,1-.8.7H36.6a.7.7,0,0,1-.7-.7V56.3a.7.7,0,0,1,.7-.7h1.8a.7.7,0,0,1,.8.7Zm0-4.5a.7.7,0,0,1-.8.7H36.6a.7.7,0,0,1-.7-.7V51.9a.8.8,0,0,1,.7-.8h1.8a.8.8,0,0,1,.8.8Zm0-4.5a.8.8,0,0,1-.8.8H36.6a.8.8,0,0,1-.7-.8V47.4a.7.7,0,0,1,.7-.7h1.8a.7.7,0,0,1,.8.7Zm0-4.4a.7.7,0,0,1-.8.7H36.6a.7.7,0,0,1-.7-.7V42.9a.7.7,0,0,1,.7-.7h1.8a.7.7,0,0,1,.8.7Zm0-4.5a.7.7,0,0,1-.8.7H36.6a.7.7,0,0,1-.7-.7V38.5a.8.8,0,0,1,.7-.8h1.8a.8.8,0,0,1,.8.8Zm0-4.4a.7.7,0,0,1-.8.7H36.6a.7.7,0,0,1-.7-.7V34a.7.7,0,0,1,.7-.7h1.8a.7.7,0,0,1,.8.7Zm0-4.5a.7.7,0,0,1-.8.7H36.6a.7.7,0,0,1-.7-.7V29.6a.8.8,0,0,1,.7-.8h1.8a.8.8,0,0,1,.8.8Zm0-4.5a.8.8,0,0,1-.8.8H36.6a.8.8,0,0,1-.7-.8V25.1a.7.7,0,0,1,.7-.7h1.8a.7.7,0,0,1,.8.7Zm0-4.4a.7.7,0,0,1-.8.7H36.6a.7.7,0,0,1-.7-.7V20.6a.7.7,0,0,1,.7-.7h1.8a.7.7,0,0,1,.8.7Zm0-4.5a.8.8,0,0,1-.8.8H36.6a.8.8,0,0,1-.7-.8V16.2a.8.8,0,0,1,.7-.8h1.8a.8.8,0,0,1,.8.8Zm0-4.4a.7.7,0,0,1-.8.7H36.6a.7.7,0,0,1-.7-.7V11.7a.7.7,0,0,1,.7-.7h1.8a.7.7,0,0,1,.8.7Zm5,102.6a.7.7,0,0,1-.7.7H41.7a.8.8,0,0,1-.8-.7v-1.8a.9.9,0,0,1,.8-.8h1.8a.8.8,0,0,1,.7.8Zm0-4.5a.8.8,0,0,1-.7.8H41.7a.9.9,0,0,1-.8-.8v-1.8a.8.8,0,0,1,.8-.7h1.8a.7.7,0,0,1,.7.7Zm0-4.4a.7.7,0,0,1-.7.7H41.7a.8.8,0,0,1-.8-.7v-1.9a.8.8,0,0,1,.8-.7h1.8a.7.7,0,0,1,.7.7Zm0-4.5a.7.7,0,0,1-.7.7H41.7a.8.8,0,0,1-.8-.7V101a.9.9,0,0,1,.8-.8h1.8a.8.8,0,0,1,.7.8Zm0-4.4a.7.7,0,0,1-.7.7H41.7a.8.8,0,0,1-.8-.7V96.5a.8.8,0,0,1,.8-.7h1.8a.7.7,0,0,1,.7.7Zm0-4.5a.7.7,0,0,1-.7.7H41.7a.8.8,0,0,1-.8-.7V92.1a.9.9,0,0,1,.8-.8h1.8a.8.8,0,0,1,.7.8Zm0-4.5a.8.8,0,0,1-.7.8H41.7a.9.9,0,0,1-.8-.8V87.6a.8.8,0,0,1,.8-.7h1.8a.7.7,0,0,1,.7.7Zm0-4.4a.7.7,0,0,1-.7.7H41.7a.8.8,0,0,1-.8-.7V83.1a.8.8,0,0,1,.8-.7h1.8a.7.7,0,0,1,.7.7Zm0-4.5a.7.7,0,0,1-.7.7H41.7a.8.8,0,0,1-.8-.7V78.7a.9.9,0,0,1,.8-.8h1.8a.8.8,0,0,1,.7.8Zm0-4.4a.7.7,0,0,1-.7.7H41.7a.8.8,0,0,1-.8-.7V74.2a.8.8,0,0,1,.8-.7h1.8a.7.7,0,0,1,.7.7Zm0-4.5a.7.7,0,0,1-.7.7H41.7a.8.8,0,0,1-.8-.7V69.8a.9.9,0,0,1,.8-.8h1.8a.8.8,0,0,1,.7.8Zm0-4.5a.8.8,0,0,1-.7.8H41.7a.9.9,0,0,1-.8-.8V65.3a.8.8,0,0,1,.8-.7h1.8a.7.7,0,0,1,.7.7Zm.1-4.5a.7.7,0,0,1-.7.7H41.7a.7.7,0,0,1-.7-.7V60.8a.8.8,0,0,1,.7-.8h1.9a.8.8,0,0,1,.7.8Zm0-4.4a.7.7,0,0,1-.7.7H41.7a.7.7,0,0,1-.7-.7V56.3a.7.7,0,0,1,.7-.7h1.9a.7.7,0,0,1,.7.7Zm0-4.5a.7.7,0,0,1-.7.7H41.7a.7.7,0,0,1-.7-.7V51.9a.8.8,0,0,1,.7-.8h1.9a.8.8,0,0,1,.7.8Zm0-4.5a.8.8,0,0,1-.7.8H41.7a.8.8,0,0,1-.7-.8V47.4a.7.7,0,0,1,.7-.7h1.9a.7.7,0,0,1,.7.7Zm0-4.4a.7.7,0,0,1-.7.7H41.7a.7.7,0,0,1-.7-.7V42.9a.7.7,0,0,1,.7-.7h1.9a.7.7,0,0,1,.7.7Zm0-4.5a.7.7,0,0,1-.7.7H41.7a.7.7,0,0,1-.7-.7V38.5a.8.8,0,0,1,.7-.8h1.9a.8.8,0,0,1,.7.8Zm0-4.4a.7.7,0,0,1-.7.7H41.7a.7.7,0,0,1-.7-.7V34a.7.7,0,0,1,.7-.7h1.9a.7.7,0,0,1,.7.7Zm0-4.5a.7.7,0,0,1-.7.7H41.7a.7.7,0,0,1-.7-.7V29.6a.8.8,0,0,1,.7-.8h1.9a.8.8,0,0,1,.7.8Zm0-4.5a.8.8,0,0,1-.7.8H41.7a.8.8,0,0,1-.7-.8V25.1a.7.7,0,0,1,.7-.7h1.9a.7.7,0,0,1,.7.7Zm0-4.4a.7.7,0,0,1-.7.7H41.7a.7.7,0,0,1-.7-.7V20.6a.7.7,0,0,1,.7-.7h1.9a.7.7,0,0,1,.7.7Zm0-4.5a.8.8,0,0,1-.7.8H41.7A.8.8,0,0,1,41,18V16.2a.8.8,0,0,1,.7-.8h1.9a.8.8,0,0,1,.7.8Zm0-4.4a.7.7,0,0,1-.7.7H41.7a.7.7,0,0,1-.7-.7V11.7a.7.7,0,0,1,.7-.7h1.9a.7.7,0,0,1,.7.7Zm5.1,102.6a.8.8,0,0,1-.8.7H46.8a.7.7,0,0,1-.7-.7v-1.8a.8.8,0,0,1,.7-.8h1.8a.9.9,0,0,1,.8.8Zm0-4.5a.9.9,0,0,1-.8.8H46.8a.8.8,0,0,1-.7-.8v-1.8a.7.7,0,0,1,.7-.7h1.8a.8.8,0,0,1,.8.7Zm0-4.4a.8.8,0,0,1-.8.7H46.8a.7.7,0,0,1-.7-.7v-1.9a.7.7,0,0,1,.7-.7h1.8a.8.8,0,0,1,.8.7Zm0-4.5a.8.8,0,0,1-.8.7H46.8a.7.7,0,0,1-.7-.7V101a.8.8,0,0,1,.7-.8h1.8a.9.9,0,0,1,.8.8Zm0-4.4a.8.8,0,0,1-.8.7H46.8a.7.7,0,0,1-.7-.7V96.5a.7.7,0,0,1,.7-.7h1.8a.8.8,0,0,1,.8.7Zm0-4.5a.8.8,0,0,1-.8.7H46.8a.7.7,0,0,1-.7-.7V92.1a.8.8,0,0,1,.7-.8h1.8a.9.9,0,0,1,.8.8Zm0-4.5a.9.9,0,0,1-.8.8H46.8a.8.8,0,0,1-.7-.8V87.6a.7.7,0,0,1,.7-.7h1.8a.8.8,0,0,1,.8.7Zm0-4.4a.8.8,0,0,1-.8.7H46.8a.7.7,0,0,1-.7-.7V83.1a.7.7,0,0,1,.7-.7h1.8a.8.8,0,0,1,.8.7Zm0-4.5a.8.8,0,0,1-.8.7H46.8a.7.7,0,0,1-.7-.7V78.7a.8.8,0,0,1,.7-.8h1.8a.9.9,0,0,1,.8.8Zm0-4.4a.8.8,0,0,1-.8.7H46.8a.7.7,0,0,1-.7-.7V74.2a.7.7,0,0,1,.7-.7h1.8a.8.8,0,0,1,.8.7Zm0-4.5a.8.8,0,0,1-.8.7H46.8a.7.7,0,0,1-.7-.7V69.8a.8.8,0,0,1,.7-.8h1.8a.9.9,0,0,1,.8.8Zm0-4.5a.9.9,0,0,1-.8.8H46.8a.8.8,0,0,1-.7-.8V65.3a.7.7,0,0,1,.7-.7h1.8a.8.8,0,0,1,.8.7Zm0-4.5a.7.7,0,0,1-.7.7H46.9a.7.7,0,0,1-.8-.7V60.8a.8.8,0,0,1,.8-.8h1.8a.8.8,0,0,1,.7.8Zm0-4.4a.7.7,0,0,1-.7.7H46.9a.7.7,0,0,1-.8-.7V56.3a.7.7,0,0,1,.8-.7h1.8a.7.7,0,0,1,.7.7Zm0-4.5a.7.7,0,0,1-.7.7H46.9a.7.7,0,0,1-.8-.7V51.9a.8.8,0,0,1,.8-.8h1.8a.8.8,0,0,1,.7.8Zm0-4.5a.8.8,0,0,1-.7.8H46.9a.8.8,0,0,1-.8-.8V47.4a.7.7,0,0,1,.8-.7h1.8a.7.7,0,0,1,.7.7Zm0-4.4a.7.7,0,0,1-.7.7H46.9a.7.7,0,0,1-.8-.7V42.9a.7.7,0,0,1,.8-.7h1.8a.7.7,0,0,1,.7.7Zm0-4.5a.7.7,0,0,1-.7.7H46.9a.7.7,0,0,1-.8-.7V38.5a.8.8,0,0,1,.8-.8h1.8a.8.8,0,0,1,.7.8Zm0-4.4a.7.7,0,0,1-.7.7H46.9a.7.7,0,0,1-.8-.7V34a.7.7,0,0,1,.8-.7h1.8a.7.7,0,0,1,.7.7Zm0-4.5a.7.7,0,0,1-.7.7H46.9a.7.7,0,0,1-.8-.7V29.6a.8.8,0,0,1,.8-.8h1.8a.8.8,0,0,1,.7.8Zm0-4.5a.8.8,0,0,1-.7.8H46.9a.8.8,0,0,1-.8-.8V25.1a.7.7,0,0,1,.8-.7h1.8a.7.7,0,0,1,.7.7Zm0-4.4a.7.7,0,0,1-.7.7H46.9a.7.7,0,0,1-.8-.7V20.6a.7.7,0,0,1,.8-.7h1.8a.7.7,0,0,1,.7.7Zm0-4.5a.8.8,0,0,1-.7.8H46.9a.8.8,0,0,1-.8-.8V16.2a.8.8,0,0,1,.8-.8h1.8a.8.8,0,0,1,.7.8Zm0-4.4a.7.7,0,0,1-.7.7H46.9a.7.7,0,0,1-.8-.7V11.7a.7.7,0,0,1,.8-.7h1.8a.7.7,0,0,1,.7.7Zm4.9,102.6a.7.7,0,0,1-.7.7H51.7a.7.7,0,0,1-.7-.7v-1.8a.8.8,0,0,1,.7-.8h1.9a.8.8,0,0,1,.7.8Zm0-4.5a.8.8,0,0,1-.7.8H51.7a.8.8,0,0,1-.7-.8v-1.8a.7.7,0,0,1,.7-.7h1.9a.7.7,0,0,1,.7.7Zm0-4.4a.7.7,0,0,1-.7.7H51.7a.7.7,0,0,1-.7-.7v-1.9a.7.7,0,0,1,.7-.7h1.9a.7.7,0,0,1,.7.7Zm0-4.5a.7.7,0,0,1-.7.7H51.7a.7.7,0,0,1-.7-.7V101a.8.8,0,0,1,.7-.8h1.9a.8.8,0,0,1,.7.8Zm0-4.4a.7.7,0,0,1-.7.7H51.7a.7.7,0,0,1-.7-.7V96.5a.7.7,0,0,1,.7-.7h1.9a.7.7,0,0,1,.7.7Zm0-4.5a.7.7,0,0,1-.7.7H51.7a.7.7,0,0,1-.7-.7V92.1a.8.8,0,0,1,.7-.8h1.9a.8.8,0,0,1,.7.8Zm0-4.5a.8.8,0,0,1-.7.8H51.7a.8.8,0,0,1-.7-.8V87.6a.7.7,0,0,1,.7-.7h1.9a.7.7,0,0,1,.7.7Zm0-4.4a.7.7,0,0,1-.7.7H51.7A.7.7,0,0,1,51,85V83.1a.7.7,0,0,1,.7-.7h1.9a.7.7,0,0,1,.7.7Zm0-4.5a.7.7,0,0,1-.7.7H51.7a.7.7,0,0,1-.7-.7V78.7a.8.8,0,0,1,.7-.8h1.9a.8.8,0,0,1,.7.8Zm0-4.4a.7.7,0,0,1-.7.7H51.7a.7.7,0,0,1-.7-.7V74.2a.7.7,0,0,1,.7-.7h1.9a.7.7,0,0,1,.7.7Zm0-4.5a.7.7,0,0,1-.7.7H51.7a.7.7,0,0,1-.7-.7V69.8a.8.8,0,0,1,.7-.8h1.9a.8.8,0,0,1,.7.8Zm0-4.5a.8.8,0,0,1-.7.8H51.7a.8.8,0,0,1-.7-.8V65.3a.7.7,0,0,1,.7-.7h1.9a.7.7,0,0,1,.7.7Zm.1-4.5a.8.8,0,0,1-.8.7H51.8a.7.7,0,0,1-.7-.7V60.8a.8.8,0,0,1,.7-.8h1.8a.9.9,0,0,1,.8.8Zm0-4.4a.8.8,0,0,1-.8.7H51.8a.7.7,0,0,1-.7-.7V56.3a.7.7,0,0,1,.7-.7h1.8a.8.8,0,0,1,.8.7Zm0-4.5a.8.8,0,0,1-.8.7H51.8a.7.7,0,0,1-.7-.7V51.9a.8.8,0,0,1,.7-.8h1.8a.9.9,0,0,1,.8.8Zm0-4.5a.9.9,0,0,1-.8.8H51.8a.8.8,0,0,1-.7-.8V47.4a.7.7,0,0,1,.7-.7h1.8a.8.8,0,0,1,.8.7Zm0-4.4a.8.8,0,0,1-.8.7H51.8a.7.7,0,0,1-.7-.7V42.9a.7.7,0,0,1,.7-.7h1.8a.8.8,0,0,1,.8.7Zm0-4.5a.8.8,0,0,1-.8.7H51.8a.7.7,0,0,1-.7-.7V38.5a.8.8,0,0,1,.7-.8h1.8a.9.9,0,0,1,.8.8Zm0-4.4a.8.8,0,0,1-.8.7H51.8a.7.7,0,0,1-.7-.7V34a.7.7,0,0,1,.7-.7h1.8a.8.8,0,0,1,.8.7Zm0-4.5a.8.8,0,0,1-.8.7H51.8a.7.7,0,0,1-.7-.7V29.6a.8.8,0,0,1,.7-.8h1.8a.9.9,0,0,1,.8.8Zm0-4.5a.9.9,0,0,1-.8.8H51.8a.8.8,0,0,1-.7-.8V25.1a.7.7,0,0,1,.7-.7h1.8a.8.8,0,0,1,.8.7Zm0-4.4a.8.8,0,0,1-.8.7H51.8a.7.7,0,0,1-.7-.7V20.6a.7.7,0,0,1,.7-.7h1.8a.8.8,0,0,1,.8.7Zm0-4.5a.9.9,0,0,1-.8.8H51.8a.8.8,0,0,1-.7-.8V16.2a.8.8,0,0,1,.7-.8h1.8a.9.9,0,0,1,.8.8Zm0-4.4a.8.8,0,0,1-.8.7H51.8a.7.7,0,0,1-.7-.7V11.7a.7.7,0,0,1,.7-.7h1.8a.8.8,0,0,1,.8.7Zm5,102.6a.7.7,0,0,1-.7.7H56.9a.8.8,0,0,1-.8-.7v-1.8a.9.9,0,0,1,.8-.8h1.8a.8.8,0,0,1,.7.8Zm0-4.5a.8.8,0,0,1-.7.8H56.9a.9.9,0,0,1-.8-.8v-1.8a.8.8,0,0,1,.8-.7h1.8a.7.7,0,0,1,.7.7Zm0-4.4a.7.7,0,0,1-.7.7H56.9a.8.8,0,0,1-.8-.7v-1.9a.8.8,0,0,1,.8-.7h1.8a.7.7,0,0,1,.7.7Zm0-4.5a.7.7,0,0,1-.7.7H56.9a.8.8,0,0,1-.8-.7V101a.9.9,0,0,1,.8-.8h1.8a.8.8,0,0,1,.7.8Zm0-4.4a.7.7,0,0,1-.7.7H56.9a.8.8,0,0,1-.8-.7V96.5a.8.8,0,0,1,.8-.7h1.8a.7.7,0,0,1,.7.7Zm0-4.5a.7.7,0,0,1-.7.7H56.9a.8.8,0,0,1-.8-.7V92.1a.9.9,0,0,1,.8-.8h1.8a.8.8,0,0,1,.7.8Zm0-4.5a.8.8,0,0,1-.7.8H56.9a.9.9,0,0,1-.8-.8V87.6a.8.8,0,0,1,.8-.7h1.8a.7.7,0,0,1,.7.7Zm0-4.4a.7.7,0,0,1-.7.7H56.9a.8.8,0,0,1-.8-.7V83.1a.8.8,0,0,1,.8-.7h1.8a.7.7,0,0,1,.7.7Zm0-4.5a.7.7,0,0,1-.7.7H56.9a.8.8,0,0,1-.8-.7V78.7a.9.9,0,0,1,.8-.8h1.8a.8.8,0,0,1,.7.8Zm0-4.4a.7.7,0,0,1-.7.7H56.9a.8.8,0,0,1-.8-.7V74.2a.8.8,0,0,1,.8-.7h1.8a.7.7,0,0,1,.7.7Zm0-4.5a.7.7,0,0,1-.7.7H56.9a.8.8,0,0,1-.8-.7V69.8a.9.9,0,0,1,.8-.8h1.8a.8.8,0,0,1,.7.8Zm0-4.5a.8.8,0,0,1-.7.8H56.9a.9.9,0,0,1-.8-.8V65.3a.8.8,0,0,1,.8-.7h1.8a.7.7,0,0,1,.7.7Zm.1-4.5a.7.7,0,0,1-.7.7H56.9a.7.7,0,0,1-.7-.7V60.8a.8.8,0,0,1,.7-.8h1.9a.8.8,0,0,1,.7.8Zm0-4.4a.7.7,0,0,1-.7.7H56.9a.7.7,0,0,1-.7-.7V56.3a.7.7,0,0,1,.7-.7h1.9a.7.7,0,0,1,.7.7Zm0-4.5a.7.7,0,0,1-.7.7H56.9a.7.7,0,0,1-.7-.7V51.9a.8.8,0,0,1,.7-.8h1.9a.8.8,0,0,1,.7.8Zm0-4.5a.8.8,0,0,1-.7.8H56.9a.8.8,0,0,1-.7-.8V47.4a.7.7,0,0,1,.7-.7h1.9a.7.7,0,0,1,.7.7Zm0-4.4a.7.7,0,0,1-.7.7H56.9a.7.7,0,0,1-.7-.7V42.9a.7.7,0,0,1,.7-.7h1.9a.7.7,0,0,1,.7.7Zm0-4.5a.7.7,0,0,1-.7.7H56.9a.7.7,0,0,1-.7-.7V38.5a.8.8,0,0,1,.7-.8h1.9a.8.8,0,0,1,.7.8Zm0-4.4a.7.7,0,0,1-.7.7H56.9a.7.7,0,0,1-.7-.7V34a.7.7,0,0,1,.7-.7h1.9a.7.7,0,0,1,.7.7Zm0-4.5a.7.7,0,0,1-.7.7H56.9a.7.7,0,0,1-.7-.7V29.6a.8.8,0,0,1,.7-.8h1.9a.8.8,0,0,1,.7.8Zm0-4.5a.8.8,0,0,1-.7.8H56.9a.8.8,0,0,1-.7-.8V25.1a.7.7,0,0,1,.7-.7h1.9a.7.7,0,0,1,.7.7Zm0-4.4a.7.7,0,0,1-.7.7H56.9a.7.7,0,0,1-.7-.7V20.6a.7.7,0,0,1,.7-.7h1.9a.7.7,0,0,1,.7.7Zm0-4.5a.8.8,0,0,1-.7.8H56.9a.8.8,0,0,1-.7-.8V16.2a.8.8,0,0,1,.7-.8h1.9a.8.8,0,0,1,.7.8Zm0-4.4a.7.7,0,0,1-.7.7H56.9a.7.7,0,0,1-.7-.7V11.7a.7.7,0,0,1,.7-.7h1.9a.7.7,0,0,1,.7.7Zm1.6,96.3a.7.7,0,0,1,.7-.7h1.9a.7.7,0,0,1,.7.7v1.8a.8.8,0,0,1-.7.8H61.8a.8.8,0,0,1-.7-.8Zm3.4,6.2a.9.9,0,0,1-.8.8H61.9a.9.9,0,0,1-.8-.8v-1.8a.8.8,0,0,1,.8-.7h1.8a.8.8,0,0,1,.8.7Zm0-8.8a.8.8,0,0,1-.7.8H62a.8.8,0,0,1-.8-.8v-1.8a.7.7,0,0,1,.8-.7h1.8a.7.7,0,0,1,.7.7Zm.1-13.4a.8.8,0,0,1-.8.8H62a.8.8,0,0,1-.7-.8V92.1a.7.7,0,0,1,.7-.7h1.8a.7.7,0,0,1,.8.7Zm0-4.5a.8.8,0,0,1-.8.8H62a.8.8,0,0,1-.7-.8V87.6a.7.7,0,0,1,.7-.7h1.8a.7.7,0,0,1,.8.7Zm0-4.5a.8.8,0,0,1-.7.8H62a.8.8,0,0,1-.7-.8V83.1a.7.7,0,0,1,.7-.7h1.9a.7.7,0,0,1,.7.7Zm0-13.3a.7.7,0,0,1-.7.7H62a.7.7,0,0,1-.7-.7V69.7A.7.7,0,0,1,62,69h1.9a.7.7,0,0,1,.7.7Zm0-31.3a.8.8,0,0,1-.7.8H62.1a.9.9,0,0,1-.8-.8V38.5a.8.8,0,0,1,.8-.7h1.8a.7.7,0,0,1,.7.7Zm0-4.5a.7.7,0,0,1-.7.8H62.1a.8.8,0,0,1-.8-.8V34a.8.8,0,0,1,.8-.7h1.8a.7.7,0,0,1,.7.7Zm.1-4.4a.8.8,0,0,1-.8.7H62.1a.7.7,0,0,1-.7-.7V29.5a.7.7,0,0,1,.7-.7h1.8a.8.8,0,0,1,.8.7Zm0-13.4a.8.8,0,0,1-.8.7H62.1a.7.7,0,0,1-.7-.7V16.2a.8.8,0,0,1,.7-.8h1.8a.9.9,0,0,1,.8.8Z" fill="#c1b9b3"/>
    <path d="M13.4,128.9h3.9a1.4,1.4,0,0,1,1.4,1.4v9.9a0,0,0,0,1,0,0H12a0,0,0,0,1,0,0v-9.9A1.4,1.4,0,0,1,13.4,128.9Z" fill="#a9a29e"/>
    <path d="M53,128.9h3.9a1.4,1.4,0,0,1,1.4,1.4v9.9a0,0,0,0,1,0,0H51.6a0,0,0,0,1,0,0v-9.9A1.4,1.4,0,0,1,53,128.9Z" fill="#a9a29e"/>
    <path d="M43.4,128.9h3.9a1.4,1.4,0,0,1,1.4,1.4v9.9a0,0,0,0,1,0,0H42a0,0,0,0,1,0,0v-9.9A1.4,1.4,0,0,1,43.4,128.9Z" fill="#a9a29e"/>
    <path d="M33.6,128.9h3.9a1.4,1.4,0,0,1,1.4,1.4v9.9a0,0,0,0,1,0,0H32.2a0,0,0,0,1,0,0v-9.9A1.4,1.4,0,0,1,33.6,128.9Z" fill="#a9a29e"/>
    <path d="M23.5,128.9h3.9a1.4,1.4,0,0,1,1.4,1.4v9.9a0,0,0,0,1,0,0H22.1a0,0,0,0,1,0,0v-9.9A1.4,1.4,0,0,1,23.5,128.9Z" fill="#a9a29e"/>
</svg>
