<svg xmlns="http://www.w3.org/2000/svg" viewBox="0 0 51.4 87.1">
    <rect width="51.4" height="86.88" rx="3.1" fill="#e0d7d0"/>
    <path d="M48.3.2H3.1A3.1,3.1,0,0,0,0,3.3V84a3.1,3.1,0,0,0,3.1,3.1H48.3A3.1,3.1,0,0,0,51.4,84V3.3A3.1,3.1,0,0,0,48.3.2ZM14.2,9.7a1.5,1.5,0,0,1,1.5-1.5h2.2a1.5,1.5,0,0,1,1.5,1.5V66.8a1.5,1.5,0,0,1-1.5,1.5H15.7a1.5,1.5,0,0,1-1.5-1.5ZM5.8,66.8V9.7A1.5,1.5,0,0,1,7.3,8.2H9.4a1.5,1.5,0,0,1,1.5,1.5V66.8a1.5,1.5,0,0,1-1.5,1.5H7.3A1.5,1.5,0,0,1,5.8,66.8ZM13.4,87H6.9V78.9a1,1,0,0,1,1-1.1h4.4a1.1,1.1,0,0,1,1.1,1.1Zm7.1,0H13.9V78.9A1.1,1.1,0,0,1,15,77.8h4.4a1.1,1.1,0,0,1,1.1,1.1Zm7.3-20.2a1.5,1.5,0,0,1-1.5,1.5H24.2a1.5,1.5,0,0,1-1.5-1.5V9.7a1.5,1.5,0,0,1,1.5-1.5h2.1a1.5,1.5,0,0,1,1.5,1.5Zm8.8,0a1.5,1.5,0,0,1-1.5,1.5H32.9a1.5,1.5,0,0,1-1.5-1.5V9.7a1.5,1.5,0,0,1,1.5-1.5h2.2a1.5,1.5,0,0,1,1.5,1.5Zm9,0a1.5,1.5,0,0,1-1.5,1.5H42a1.5,1.5,0,0,1-1.5-1.5V9.7A1.5,1.5,0,0,1,42,8.2h2.1a1.5,1.5,0,0,1,1.5,1.5Z" fill="#a9a29e"/>
</svg>
