<svg xmlns="http://www.w3.org/2000/svg" viewBox="0 0 42.1 97.8">
    <rect x="20.5" y="84.6" width="1" height="12.96" fill="#e0d7d0"/>
    <path d="M38.5,2.7H27c.1-1.1-.2-2.7-1.6-2.7H16.6c-1.4,0-1.7,1.6-1.5,2.7H3.8A3.8,3.8,0,0,0,.1,6.4V94.1a3.8,3.8,0,0,0,3.7,3.7H38.5a3.7,3.7,0,0,0,3.6-3.7V6.4A3.7,3.7,0,0,0,38.5,2.7Z" fill="#c1b9b3"/>
    <path d="M38.4,2.5H3.7A3.7,3.7,0,0,0,0,6.2V93.9a3.7,3.7,0,0,0,3.7,3.7h7V91.2a5.4,5.4,0,0,1,5.4-5.4h4.4V97.6h1V85.8h4.4a5.4,5.4,0,0,1,5.4,5.4v6.4h7.1A3.7,3.7,0,0,0,42,93.9V6.2A3.7,3.7,0,0,0,38.4,2.5ZM8.6,81.1a1.8,1.8,0,0,1-1.8,1.8H5.6a1.8,1.8,0,0,1-1.8-1.8V79.9a1.8,1.8,0,0,1,1.8-1.8H6.8a1.8,1.8,0,0,1,1.8,1.8Zm0-6.4a1.8,1.8,0,0,1-1.8,1.8H5.6a1.8,1.8,0,0,1-1.8-1.8V73.5a1.8,1.8,0,0,1,1.8-1.8H6.8a1.8,1.8,0,0,1,1.8,1.8Zm0-6.5A1.8,1.8,0,0,1,6.8,70H5.6a1.8,1.8,0,0,1-1.8-1.8V67a1.8,1.8,0,0,1,1.8-1.8H6.8A1.8,1.8,0,0,1,8.6,67Zm0-6.5a1.8,1.8,0,0,1-1.8,1.8H5.6a1.8,1.8,0,0,1-1.8-1.8V60.5a1.8,1.8,0,0,1,1.8-1.8H6.8a1.8,1.8,0,0,1,1.8,1.8Zm0-6.5A1.8,1.8,0,0,1,6.8,57H5.6a1.8,1.8,0,0,1-1.8-1.8V54a1.8,1.8,0,0,1,1.8-1.8H6.8A1.8,1.8,0,0,1,8.6,54Zm0-6.5a1.8,1.8,0,0,1-1.8,1.8H5.6a1.8,1.8,0,0,1-1.8-1.8V47.5a1.8,1.8,0,0,1,1.8-1.8H6.8a1.8,1.8,0,0,1,1.8,1.8Zm0-6.4a1.9,1.9,0,0,1-1.8,1.8H5.6a1.9,1.9,0,0,1-1.8-1.8V41.1a1.8,1.8,0,0,1,1.8-1.8H6.8a1.8,1.8,0,0,1,1.8,1.8Zm0-6.5a1.8,1.8,0,0,1-1.8,1.8H5.6a1.8,1.8,0,0,1-1.8-1.8V34.6a1.8,1.8,0,0,1,1.8-1.8H6.8a1.8,1.8,0,0,1,1.8,1.8Zm0-6.5a1.8,1.8,0,0,1-1.8,1.8H5.6a1.8,1.8,0,0,1-1.8-1.8V28.1a1.8,1.8,0,0,1,1.8-1.8H6.8a1.8,1.8,0,0,1,1.8,1.8Zm0-6.5a1.8,1.8,0,0,1-1.8,1.8H5.6a1.8,1.8,0,0,1-1.8-1.8V21.6a1.8,1.8,0,0,1,1.8-1.8H6.8a1.8,1.8,0,0,1,1.8,1.8Zm0-6.5a1.8,1.8,0,0,1-1.8,1.8H5.6a1.8,1.8,0,0,1-1.8-1.8V15.1a1.8,1.8,0,0,1,1.8-1.8H6.8a1.8,1.8,0,0,1,1.8,1.8Zm0-6.5a1.8,1.8,0,0,1-1.8,1.8H5.6A1.8,1.8,0,0,1,3.8,9.8V8.7A1.9,1.9,0,0,1,5.6,6.8H6.8A1.9,1.9,0,0,1,8.6,8.7Zm7.5,71.3a1.8,1.8,0,0,1-1.8,1.8H13.1a1.8,1.8,0,0,1-1.8-1.8V79.9a1.8,1.8,0,0,1,1.8-1.8h1.2a1.8,1.8,0,0,1,1.8,1.8Zm0-6.4a1.8,1.8,0,0,1-1.8,1.8H13.1a1.8,1.8,0,0,1-1.8-1.8V73.5a1.8,1.8,0,0,1,1.8-1.8h1.2a1.8,1.8,0,0,1,1.8,1.8Zm0-6.5A1.8,1.8,0,0,1,14.3,70H13.1a1.8,1.8,0,0,1-1.8-1.8V67a1.8,1.8,0,0,1,1.8-1.8h1.2A1.8,1.8,0,0,1,16.1,67Zm0-6.5a1.8,1.8,0,0,1-1.8,1.8H13.1a1.8,1.8,0,0,1-1.8-1.8V60.5a1.8,1.8,0,0,1,1.8-1.8h1.2a1.8,1.8,0,0,1,1.8,1.8Zm0-6.5A1.8,1.8,0,0,1,14.3,57H13.1a1.8,1.8,0,0,1-1.8-1.8V54a1.8,1.8,0,0,1,1.8-1.8h1.2A1.8,1.8,0,0,1,16.1,54Zm0-6.5a1.8,1.8,0,0,1-1.8,1.8H13.1a1.8,1.8,0,0,1-1.8-1.8V47.5a1.8,1.8,0,0,1,1.8-1.8h1.2a1.8,1.8,0,0,1,1.8,1.8Zm0-6.4a1.9,1.9,0,0,1-1.8,1.8H13.1a1.9,1.9,0,0,1-1.8-1.8V41.1a1.8,1.8,0,0,1,1.8-1.8h1.2a1.8,1.8,0,0,1,1.8,1.8Zm0-6.5a1.8,1.8,0,0,1-1.8,1.8H13.1a1.8,1.8,0,0,1-1.8-1.8V34.6a1.8,1.8,0,0,1,1.8-1.8h1.2a1.8,1.8,0,0,1,1.8,1.8Zm0-6.5a1.8,1.8,0,0,1-1.8,1.8H13.1a1.8,1.8,0,0,1-1.8-1.8V28.1a1.8,1.8,0,0,1,1.8-1.8h1.2a1.8,1.8,0,0,1,1.8,1.8Zm0-6.5a1.8,1.8,0,0,1-1.8,1.8H13.1a1.8,1.8,0,0,1-1.8-1.8V21.6a1.8,1.8,0,0,1,1.8-1.8h1.2a1.8,1.8,0,0,1,1.8,1.8Zm0-6.5a1.8,1.8,0,0,1-1.8,1.8H13.1a1.8,1.8,0,0,1-1.8-1.8V15.1a1.8,1.8,0,0,1,1.8-1.8h1.2a1.8,1.8,0,0,1,1.8,1.8Zm0-6.5a1.8,1.8,0,0,1-1.8,1.8H13.1a1.8,1.8,0,0,1-1.8-1.8V8.7a1.9,1.9,0,0,1,1.8-1.9h1.2a1.9,1.9,0,0,1,1.8,1.9Zm7.4,71.3a1.8,1.8,0,0,1-1.8,1.8H20.5a1.8,1.8,0,0,1-1.8-1.8V79.9a1.8,1.8,0,0,1,1.8-1.8h1.2a1.8,1.8,0,0,1,1.8,1.8Zm0-6.4a1.8,1.8,0,0,1-1.8,1.8H20.5a1.8,1.8,0,0,1-1.8-1.8V73.5a1.8,1.8,0,0,1,1.8-1.8h1.2a1.8,1.8,0,0,1,1.8,1.8Zm0-6.5A1.8,1.8,0,0,1,21.7,70H20.5a1.8,1.8,0,0,1-1.8-1.8V67a1.8,1.8,0,0,1,1.8-1.8h1.2A1.8,1.8,0,0,1,23.5,67Zm0-6.5a1.8,1.8,0,0,1-1.8,1.8H20.5a1.8,1.8,0,0,1-1.8-1.8V60.5a1.8,1.8,0,0,1,1.8-1.8h1.2a1.8,1.8,0,0,1,1.8,1.8Zm0-6.5A1.8,1.8,0,0,1,21.7,57H20.5a1.8,1.8,0,0,1-1.8-1.8V54a1.8,1.8,0,0,1,1.8-1.8h1.2A1.8,1.8,0,0,1,23.5,54Zm0-6.5a1.8,1.8,0,0,1-1.8,1.8H20.5a1.8,1.8,0,0,1-1.8-1.8V47.5a1.8,1.8,0,0,1,1.8-1.8h1.2a1.8,1.8,0,0,1,1.8,1.8Zm0-6.4a1.9,1.9,0,0,1-1.8,1.8H20.5a1.9,1.9,0,0,1-1.8-1.8V41.1a1.8,1.8,0,0,1,1.8-1.8h1.2a1.8,1.8,0,0,1,1.8,1.8Zm0-6.5a1.8,1.8,0,0,1-1.8,1.8H20.5a1.8,1.8,0,0,1-1.8-1.8V34.6a1.8,1.8,0,0,1,1.8-1.8h1.2a1.8,1.8,0,0,1,1.8,1.8Zm0-6.5a1.8,1.8,0,0,1-1.8,1.8H20.5a1.8,1.8,0,0,1-1.8-1.8V28.1a1.8,1.8,0,0,1,1.8-1.8h1.2a1.8,1.8,0,0,1,1.8,1.8Zm0-6.5a1.8,1.8,0,0,1-1.8,1.8H20.5a1.8,1.8,0,0,1-1.8-1.8V21.6a1.8,1.8,0,0,1,1.8-1.8h1.2a1.8,1.8,0,0,1,1.8,1.8Zm0-6.5a1.8,1.8,0,0,1-1.8,1.8H20.5a1.8,1.8,0,0,1-1.8-1.8V15.1a1.8,1.8,0,0,1,1.8-1.8h1.2a1.8,1.8,0,0,1,1.8,1.8Zm0-6.5a1.8,1.8,0,0,1-1.8,1.8H20.5a1.8,1.8,0,0,1-1.8-1.8V8.7a1.9,1.9,0,0,1,1.8-1.9h1.2a1.9,1.9,0,0,1,1.8,1.9Zm7.2,71.3a1.8,1.8,0,0,1-1.8,1.8H27.7a1.8,1.8,0,0,1-1.8-1.8V79.9a1.8,1.8,0,0,1,1.8-1.8h1.2a1.8,1.8,0,0,1,1.8,1.8Zm0-6.4a1.8,1.8,0,0,1-1.8,1.8H27.7a1.8,1.8,0,0,1-1.8-1.8V73.5a1.8,1.8,0,0,1,1.8-1.8h1.2a1.8,1.8,0,0,1,1.8,1.8Zm0-6.5A1.8,1.8,0,0,1,28.9,70H27.7a1.8,1.8,0,0,1-1.8-1.8V67a1.8,1.8,0,0,1,1.8-1.8h1.2A1.8,1.8,0,0,1,30.7,67Zm0-6.5a1.8,1.8,0,0,1-1.8,1.8H27.7a1.8,1.8,0,0,1-1.8-1.8V60.5a1.8,1.8,0,0,1,1.8-1.8h1.2a1.8,1.8,0,0,1,1.8,1.8Zm0-6.5A1.8,1.8,0,0,1,28.9,57H27.7a1.8,1.8,0,0,1-1.8-1.8V54a1.8,1.8,0,0,1,1.8-1.8h1.2A1.8,1.8,0,0,1,30.7,54Zm0-6.5a1.8,1.8,0,0,1-1.8,1.8H27.7a1.8,1.8,0,0,1-1.8-1.8V47.5a1.8,1.8,0,0,1,1.8-1.8h1.2a1.8,1.8,0,0,1,1.8,1.8Zm0-6.4a1.9,1.9,0,0,1-1.8,1.8H27.7a1.9,1.9,0,0,1-1.8-1.8V41.1a1.8,1.8,0,0,1,1.8-1.8h1.2a1.8,1.8,0,0,1,1.8,1.8Zm0-6.5a1.8,1.8,0,0,1-1.8,1.8H27.7a1.8,1.8,0,0,1-1.8-1.8V34.6a1.8,1.8,0,0,1,1.8-1.8h1.2a1.8,1.8,0,0,1,1.8,1.8Zm0-6.5a1.8,1.8,0,0,1-1.8,1.8H27.7a1.8,1.8,0,0,1-1.8-1.8V28.1a1.8,1.8,0,0,1,1.8-1.8h1.2a1.8,1.8,0,0,1,1.8,1.8Zm0-6.5a1.8,1.8,0,0,1-1.8,1.8H27.7a1.8,1.8,0,0,1-1.8-1.8V21.6a1.8,1.8,0,0,1,1.8-1.8h1.2a1.8,1.8,0,0,1,1.8,1.8Zm0-6.5a1.8,1.8,0,0,1-1.8,1.8H27.7a1.8,1.8,0,0,1-1.8-1.8V15.1a1.8,1.8,0,0,1,1.8-1.8h1.2a1.8,1.8,0,0,1,1.8,1.8Zm0-6.5a1.8,1.8,0,0,1-1.8,1.8H27.7a1.8,1.8,0,0,1-1.8-1.8V8.7a1.9,1.9,0,0,1,1.8-1.9h1.2a1.9,1.9,0,0,1,1.8,1.9Zm7.5,71.3a1.8,1.8,0,0,1-1.8,1.8H35.2a1.8,1.8,0,0,1-1.8-1.8V79.9a1.8,1.8,0,0,1,1.8-1.8h1.2a1.8,1.8,0,0,1,1.8,1.8Zm0-6.4a1.8,1.8,0,0,1-1.8,1.8H35.2a1.8,1.8,0,0,1-1.8-1.8V73.5a1.8,1.8,0,0,1,1.8-1.8h1.2a1.8,1.8,0,0,1,1.8,1.8Zm0-6.5A1.8,1.8,0,0,1,36.4,70H35.2a1.8,1.8,0,0,1-1.8-1.8V67a1.8,1.8,0,0,1,1.8-1.8h1.2A1.8,1.8,0,0,1,38.2,67Zm0-6.5a1.8,1.8,0,0,1-1.8,1.8H35.2a1.8,1.8,0,0,1-1.8-1.8V60.5a1.8,1.8,0,0,1,1.8-1.8h1.2a1.8,1.8,0,0,1,1.8,1.8Zm0-6.5A1.8,1.8,0,0,1,36.4,57H35.2a1.8,1.8,0,0,1-1.8-1.8V54a1.8,1.8,0,0,1,1.8-1.8h1.2A1.8,1.8,0,0,1,38.2,54Zm0-6.5a1.8,1.8,0,0,1-1.8,1.8H35.2a1.8,1.8,0,0,1-1.8-1.8V47.5a1.8,1.8,0,0,1,1.8-1.8h1.2a1.8,1.8,0,0,1,1.8,1.8Zm0-6.4a1.9,1.9,0,0,1-1.8,1.8H35.2a1.9,1.9,0,0,1-1.8-1.8V41.1a1.8,1.8,0,0,1,1.8-1.8h1.2a1.8,1.8,0,0,1,1.8,1.8Zm0-6.5a1.8,1.8,0,0,1-1.8,1.8H35.2a1.8,1.8,0,0,1-1.8-1.8V34.6a1.8,1.8,0,0,1,1.8-1.8h1.2a1.8,1.8,0,0,1,1.8,1.8Zm0-6.5a1.8,1.8,0,0,1-1.8,1.8H35.2a1.8,1.8,0,0,1-1.8-1.8V28.1a1.8,1.8,0,0,1,1.8-1.8h1.2a1.8,1.8,0,0,1,1.8,1.8Zm0-6.5a1.8,1.8,0,0,1-1.8,1.8H35.2a1.8,1.8,0,0,1-1.8-1.8V21.6a1.8,1.8,0,0,1,1.8-1.8h1.2a1.8,1.8,0,0,1,1.8,1.8Zm0-6.5a1.8,1.8,0,0,1-1.8,1.8H35.2a1.8,1.8,0,0,1-1.8-1.8V15.1a1.8,1.8,0,0,1,1.8-1.8h1.2a1.8,1.8,0,0,1,1.8,1.8Zm0-6.5a1.8,1.8,0,0,1-1.8,1.8H35.2a1.8,1.8,0,0,1-1.8-1.8V8.7a1.9,1.9,0,0,1,1.8-1.9h1.2a1.9,1.9,0,0,1,1.8,1.9Z" fill="#e0d7d0"/>
</svg>
