<svg xmlns="http://www.w3.org/2000/svg" viewBox="0 0 718.4 231.8">
    <path d="M6,90.6c.5-6.5,4.8-53.9,43.3-77.2A84.7,84.7,0,0,1,83.2,2.1L669.2,0a49.1,49.1,0,0,1,49.2,48.9" fill="#a0525f"/>
    <rect x="131.2" y="49.4" width="555.4" height="77.05" rx="20.1" fill="#8e2a32"/>
    <path d="M704.5,31.5H63.8A58.3,58.3,0,0,0,5.6,89.7V178a25.9,25.9,0,0,0,26,26H692.4a26,26,0,0,0,26-26V45.4A13.9,13.9,0,0,0,704.5,31.5ZM320.1,49.4H405v77.1H320.1Zm-7.7,77.1h-91V49.4h91ZM412.7,49.4h86v77.1h-86Zm93.8,0h89.1v77.1H506.5Zm-375.3,57V69.6a20.2,20.2,0,0,1,20.1-20.2h62.3v77.1H151.3A20.1,20.1,0,0,1,131.2,106.4Zm555.3,0a20.1,20.1,0,0,1-20.1,20.1H603.3V49.4h63.1a20.2,20.2,0,0,1,20.1,20.2Z" fill="#99414c"/>
    <path d="M124.8,56.9v67.7c0,5.7-5.3,10.3-11.8,10.3,0,0-90.1.4-99.4.6V85.1c.8-4.3,4.9-26.8,19.4-35.5a23,23,0,0,1,8.4-3H113C119.5,46.6,124.8,51.2,124.8,56.9Z" fill="#a0525f"/>
    <rect y="99.7" width="22.9" height="53.55" rx="11.4" fill="#8e2a32"/>
    <circle cx="174.6" cy="188.4" r="43.4" fill="#8e2a32"/>
    <circle cx="174.5" cy="188.5" r="30.8" fill="#a0525f"/>
    <circle cx="571.2" cy="188.4" r="43.4" fill="#8e2a32"/>
    <circle cx="571.1" cy="188.5" r="30.8" fill="#a0525f"/>
</svg>
