<svg xmlns="http://www.w3.org/2000/svg" viewBox="0 0 34.7 49">
  <path d="M31,22a8.5,8.5,0,0,0,.4-2.3,6.5,6.5,0,0,0-4.8-6.3c0-.3.1-.7.1-1a5.9,5.9,0,0,0-4.6-5.7h0a4.1,4.1,0,0,0,.3-1.6h0A5.2,5.2,0,0,0,17.3,0a5.1,5.1,0,0,0-5.1,4.9h0a5.9,5.9,0,0,0,.2,1.4h0a6,6,0,0,0-4.5,5.7c0,.4.1.7.1,1.1a6.5,6.5,0,0,0-4.8,6.3A6,6,0,0,0,3.7,22,6.6,6.6,0,0,0,0,27.9a6.5,6.5,0,0,0,6.5,6.5h5.4l3.5,2.9V47.7A1.3,1.3,0,0,0,16.8,49h1a1.3,1.3,0,0,0,1.4-1.3V37.6L23,34.4h5.4a6.4,6.4,0,0,0,6.3-6.5A6.6,6.6,0,0,0,31,22ZM13.2,34.4h2.2v1.8Zm6,2.1V34.4h2.4Z" fill="#f0b225"/>
</svg>
