<svg xmlns="http://www.w3.org/2000/svg" viewBox="0 0 6.385 5.387">
    <circle cx="3.821" cy="0.595" r="0.595" class="fst-color"/>
    <path d="M3.1,4.849a.271.271,0,1,1-.27-.271A.27.27,0,0,1,3.1,4.849Z" fill="#1a1a1a"/>
    <path d="M5.14,4.838v.11a.439.439,0,0,1-.44.439H4.512a.119.119,0,0,1-.119-.119V4.479a.119.119,0,0,1,.119-.12H4.66A.479.479,0,0,1,5.14,4.838Z" fill="#523722"/>
    <path d="M6.271,2.616V5.154L1.393,2.338C1.526,1.53,6.271,1.676,6.271,2.616Z"/>
    <rect y="2.318" width="6.385" height="0.476" rx="0.181" class="fst-color"/>
    <path d="M6.273,2.085v.246H1.288C1.272-.427,6.271-.2,6.273,2.085Z" class="scd-color"/>
</svg>
