<svg xmlns="http://www.w3.org/2000/svg" viewBox="0 0 145.4 101.5">
    <path d="M144,64.5h-1.5V61a2,2,0,0,0-2-2H128.9l-10-31.4h7v3.8h-.5a1,1,0,0,0-1,1V42.7a1,1,0,0,0,1,1h2.4a1,1,0,0,0,1-1V32.4a1,1,0,0,0-1-1h-.3V26.9h0a.4.4,0,0,0-.1-.3.8.8,0,0,0-.7-.4h-8.3l-.9-2.9V21.6a1.7,1.7,0,0,0,.7-1.4V19.1a1.6,1.6,0,0,0-1.6-1.6H91.7V13.7h3.2a1.2,1.2,0,0,0,1.2-1.2V1.2A1.2,1.2,0,0,0,94.9,0H22.7a1.2,1.2,0,0,0-1.3,1.2V12.5a1.2,1.2,0,0,0,1.3,1.2h3.1v3.8H2.1A1.7,1.7,0,0,0,.4,19.1v1.1a1.8,1.8,0,0,0,1.7,1.7h.6V69.8H1.3a.9.9,0,0,0-.9.8v3.9a.8.8,0,0,0,.9.8H2.7v7.6H1.4A1.4,1.4,0,0,0,0,84.3v3.3A1.4,1.4,0,0,0,1.4,89H18.8a12.8,12.8,0,0,0,25.6,0h59.8A12.9,12.9,0,0,0,117,101.5,12.8,12.8,0,0,0,129.8,89h13.3a1.4,1.4,0,0,0,1.4-1.4V84.3a1.4,1.4,0,0,0-1.4-1.4h-.6V81.1h.8a.5.5,0,0,0,.5-.5V75.9a.6.6,0,0,0-.5-.6h-.8V73.8H144a1.4,1.4,0,0,0,1.4-1.4V65.9A1.4,1.4,0,0,0,144,64.5ZM28.5,13.7H89v3.8H28.5Z" fill="#185357"/>
    <path d="M140.5,59H128.9l-10-31.4-.5-1.5-.9-2.9V21.6a1.4,1.4,0,0,1-.9.3H2.7V69.8H3.8a.8.8,0,0,1,.8.8v3.9a.7.7,0,0,1-.8.8H2.7v7.6H20.2a12.7,12.7,0,0,1,22.8,0h62.6a12.9,12.9,0,0,1,8.8-6.8l2.6-.2h.5a12.6,12.6,0,0,1,10.9,7h14.1V61A2,2,0,0,0,140.5,59ZM76,66.8a1,1,0,0,1-1.1,1H13a1,1,0,0,1-1.1-1V58.1A1.1,1.1,0,0,1,13,57H74.9A1.1,1.1,0,0,1,76,58.1Zm37.9-40.7c-.2.2-.4.3-.5.5S113.6,26.2,113.9,26.1Zm9.3,28.3H109.3a1.3,1.3,0,0,1-1.2-1.7L115,29.2a1.3,1.3,0,0,1,2.4,0l7,23.5A1.4,1.4,0,0,1,123.2,54.4Z" fill="#3f8385"/>
    <rect x="79.5" y="26.1" width="25.2" height="60.54" rx="0.9" fill="#144850"/>
    <rect x="81.7" y="28.3" width="21" height="35.79" rx="0.7" fill="#1c5e6a"/>
    <g>
      <circle cx="31.6" cy="88.6" r="12.8" fill="#1c5e6a"/>
      <circle cx="31.6" cy="88.6" r="9.1" fill="#144850"/>
      <path d="M129.9,88.7a12.9,12.9,0,0,1-25.7,0h0a12.9,12.9,0,0,1,10.2-12.5l2.6-.2h.5a12.8,12.8,0,0,1,12.4,12.7Z" fill="#1c5e6a"/>
      <circle cx="117" cy="88.7" r="9.1" fill="#144850"/>
    </g>
    <rect x="10.8" y="28.1" width="66.1" height="29.38" fill="#144850"/>
    <rect x="9.7" y="55.7" width="68.3" height="3.76" rx="0.9" fill="#1c5e6a"/>
    <path d="M78,28.9h-.5V27a.8.8,0,0,0-.8-.9H10.6a.9.9,0,0,0-.9.9v1.9H9.1a.9.9,0,0,0-.9.9v2a.9.9,0,0,0,.9.9H78a.9.9,0,0,0,.9-.9v-2A.9.9,0,0,0,78,28.9Z" fill="#1c5e6a"/>
</svg>
