<svg xmlns="http://www.w3.org/2000/svg" viewBox="0 0 50.8 47">
    <path d="M43.1,33.3a11.3,11.3,0,0,1,.5,3.2A10.5,10.5,0,0,1,33.1,47a10.2,10.2,0,0,1-7.8-3.5A10.2,10.2,0,0,1,17.5,47,10.5,10.5,0,0,1,7,36.5a11.3,11.3,0,0,1,.5-3.2,10.5,10.5,0,0,1-.1-20.1A8.4,8.4,0,0,1,7,10.5,10.5,10.5,0,0,1,17.5,0a10.2,10.2,0,0,1,7.8,3.5A10.2,10.2,0,0,1,33.1,0,10.5,10.5,0,0,1,43.6,10.5a8.4,8.4,0,0,1-.4,2.7,10.4,10.4,0,0,1,7.6,10A10.5,10.5,0,0,1,43.1,33.3Z" fill="#437a96"/>
    <circle cx="24.7" cy="19.3" r="1.4" fill="#ccc3d2"/>
    <circle cx="20.3" cy="23.4" r="1.4" fill="#ccc3d2"/>
    <circle cx="24.7" cy="27.7" r="1.4" fill="#ccc3d2"/>
    <circle cx="28.4" cy="23.4" r="1.4" fill="#ccc3d2"/>
</svg>
