<svg xmlns="http://www.w3.org/2000/svg" viewBox="0 0 2500 2500">
  <g>
    <g>
      <path d="M1207.3,1215.6c0,.3.1.6.1.9,0,7.4-4.5,13.3-10,13.3h-1.3c-2,6-6.6,10.1-11.8,10.1s-8.5-3-10.8-7.7c-1.8,3.4-4.7,5.7-8,5.7-5.4,0-9.7-5.8-9.7-12.9a26.4,26.4,0,0,1,.2-2.8,8,8,0,0,1-4.7,1.5c-5.9,0-10.7-6.4-10.7-14.3s4.8-14.2,10.7-14.2a5.5,5.5,0,0,1,1.8.2c.8-6.3,4.9-11,9.9-11a9.2,9.2,0,0,1,7.6,4.7c1.7-6.5,6.3-11.2,11.8-11.2s9.5,4.2,11.4,10.2a7.2,7.2,0,0,1,2.9-.6c4.7,0,8.5,4.5,9.2,10.4l1.1-.2c3.7,0,6.7,4.1,6.7,9S1210.9,1215.4,1207.3,1215.6Z" fill="#638d68"/>
      <path d="M1209.6,1238.9v.9c0,7.3-4.4,13.2-9.9,13.2h-1.3c-2,6-6.6,10.2-11.8,10.2s-8.5-3.1-10.9-7.8c-1.7,3.5-4.6,5.7-8,5.7-5.3,0-9.6-5.8-9.6-12.9a24.5,24.5,0,0,1,.2-2.7,8.6,8.6,0,0,1-4.7,1.4c-6,0-10.7-6.3-10.7-14.2s4.7-14.3,10.7-14.3l1.8.2c.8-6.3,4.9-11,9.8-11,3.1,0,5.8,1.8,7.7,4.7,1.7-6.5,6.3-11.1,11.7-11.1s9.6,4.1,11.5,10.1a7.2,7.2,0,0,1,2.9-.6c4.6,0,8.5,4.5,9.2,10.4h1c3.8,0,6.8,4,6.8,9S1213.2,1238.6,1209.6,1238.9Z" fill="#7d9f82"/>
    </g>
    <g>
      <path d="M1160.8,1372.1a41.4,41.4,0,0,1-2,12.8h-16.9a41.5,41.5,0,0,1-1.9-12.8c0-12.2,4.6-22.1,10.4-22.1S1160.8,1359.9,1160.8,1372.1Z" fill="#90913f"/>
      <path d="M1184.5,1372.1a41.5,41.5,0,0,1-1.9,12.8h-17a41.5,41.5,0,0,1-1.9-12.8c0-12.2,4.7-22.1,10.4-22.1S1184.5,1359.9,1184.5,1372.1Z" fill="#808636"/>
      <path d="M1208.6,1372.1a41.4,41.4,0,0,1-2,12.8h-16.9a41.5,41.5,0,0,1-1.9-12.8c0-12.2,4.6-22.1,10.4-22.1S1208.6,1359.9,1208.6,1372.1Z" fill="#90913f"/>
      <path d="M1162.2,1333a42,42,0,0,1-1.9,12.8h-16.9a42,42,0,0,1-1.9-12.8c0-12.2,4.6-22.1,10.4-22.1S1162.2,1320.8,1162.2,1333Z" fill="#808636"/>
      <path d="M1186,1333a42,42,0,0,1-1.9,12.8h-17a42,42,0,0,1-1.9-12.8c0-12.2,4.7-22.1,10.4-22.1S1186,1320.8,1186,1333Z" fill="#828242"/>
      <path d="M1210,1333a42,42,0,0,1-1.9,12.8h-16.9C1181.8,1317.7,1206.6,1290.1,1210,1333Z" fill="#808636"/>
    </g>
    <g>
      <g fill="#556940">
        <path d="M1326.5,1341.7a1.3,1.3,0,0,1-1.5-1.2l-.7-77.8a1.3,1.3,0,0,1,1.5-1.3,1.3,1.3,0,0,1,1.2,1.2l.8,77.9A1.3,1.3,0,0,1,1326.5,1341.7Z"/>
        <path d="M1351,1343a1.1,1.1,0,0,1-1.3-1.2l-.8-79.2a1.2,1.2,0,0,1,1.3-1.2,1.2,1.2,0,0,1,1.2,1.2l.8,79.2A1.2,1.2,0,0,1,1351,1343Z"/>
        <path d="M1374.6,1343a1.2,1.2,0,0,1-1.4-1.2l-.8-79.1a1.3,1.3,0,0,1,1.4-1.3,1.3,1.3,0,0,1,1.3,1.2l.7,79.2A1.2,1.2,0,0,1,1374.6,1343Z"/>
      </g>
      <g fill="#bb4528">
        <path d="M1321.4,1270.6c3,4.7-.9,7.2-3.9,2.4S1318.4,1265.8,1321.4,1270.6Z"/>
        <path d="M1320,1303c3.1,4.7-.8,7.2-3.8,2.5S1317,1298.3,1320,1303Z"/>
        <path d="M1345.2,1284.9c3,4.7-.9,7.2-3.9,2.4S1342.2,1280.1,1345.2,1284.9Z"/>
        <path d="M1345.2,1318.7c3,4.7-.9,7.2-3.9,2.4S1342.2,1313.9,1345.2,1318.7Z"/>
        <path d="M1356.2,1318.7c-3.1,4.7.8,7.2,3.8,2.4S1359.2,1313.9,1356.2,1318.7Z"/>
        <path d="M1367.4,1302.2c3.1,4.7-.8,7.2-3.8,2.5S1364.4,1297.5,1367.4,1302.2Z"/>
        <path d="M1331.4,1303c-3,4.7.9,7.2,3.9,2.5S1334.4,1298.3,1331.4,1303Z"/>
        <path d="M1330.6,1270.5c-3,4.7.9,7.2,3.8,2.4S1333.6,1265.7,1330.6,1270.5Z"/>
        <path d="M1354.9,1284.9c-3,4.7.9,7.2,3.9,2.4S1357.9,1280.1,1354.9,1284.9Z"/>
        <path d="M1379.7,1301.8c-3.1,4.7.8,7.2,3.8,2.4S1382.7,1297,1379.7,1301.8Z"/>
        <path d="M1367.2,1260.4c3.1,4.7-.8,7.2-3.8,2.4S1364.2,1255.6,1367.2,1260.4Z"/>
        <path d="M1379.5,1260c-3.1,4.7.8,7.2,3.8,2.4S1382.5,1255.2,1379.5,1260Z"/>
        <path d="M1369.1,1324c3.1,4.7-.8,7.2-3.8,2.4S1366.1,1319.2,1369.1,1324Z"/>
        <path d="M1381.4,1323.6c-3.1,4.7.8,7.2,3.8,2.4S1384.4,1318.8,1381.4,1323.6Z"/>
      </g>
    </g>
    <g>
      <g>
        <path d="M1448.4,1121.1c-1.9-1.4-6.7,1.5-10.8,6.6s-6,10.3-4.2,11.9Z" fill="#556940"/>
        <path d="M1444.6,1133.4c4.1-5.1,6-10.3,4.3-11.9l-15.1,18.5C1435.7,1141.3,1440.5,1138.4,1444.6,1133.4Z" fill="#556940"/>
        <path d="M1406.4,1165.5c4,2,7.7,2.5,8.4,1l-14.5-7.4C1399.8,1160.7,1402.5,1163.5,1406.4,1165.5Z" fill="#556940"/>
        <path d="M1408.8,1159.7c-4-2-7.7-2.4-8.4-1l14.5,7.4C1415.4,1164.6,1412.7,1161.7,1408.8,1159.7Z" fill="#556940"/>
        <path d="M1400.5,1179.2c1,1.3,4.8.7,8.8-1.4s6.3-4.8,5.5-6.2Z" fill="#556940"/>
        <path d="M1400.3,1178.9l14.3-7.7c-1-1.3-4.9-.7-8.8,1.4S1399.5,1177.5,1400.3,1178.9Z" fill="#556940"/>
        <path d="M1448.3,1210.3c4,2,7.7,2.4,8.4.9l-14.5-7.4C1441.7,1205.4,1444.4,1208.2,1448.3,1210.3Z" fill="#556940"/>
        <path d="M1450.7,1204.4c-4-2-7.7-2.4-8.4-.9l14.5,7.4C1457.3,1209.3,1454.6,1206.5,1450.7,1204.4Z" fill="#556940"/>
        <path d="M1444.7,1175.5c-4.2,5-6.2,10.2-4.5,11.9l15.5-18.2C1453.8,1167.8,1448.9,1170.6,1444.7,1175.5Z" fill="#556940"/>
        <path d="M1451.6,1181.4c4.2-4.9,6.2-10.2,4.5-11.8l-15.5,18.1C1442.5,1189.2,1447.4,1186.4,1451.6,1181.4Z" fill="#556940"/>
        <path d="M1402.7,1220.1c4.2,4.9,9,7.7,10.9,6.3l-15.4-18.2C1396.5,1209.9,1398.4,1215.1,1402.7,1220.1Z" fill="#556940"/>
        <path d="M1398.6,1207.9l15.5,18.1c1.7-1.6-.3-6.8-4.6-11.8S1400.5,1206.4,1398.6,1207.9Z" fill="#556940"/>
        <path d="M1426.7,1159.5c0-1.7-.1-3.7-.2-6a20.8,20.8,0,0,0,2.9-1.9c5.5-4.8,5-13-4-16.7-.1-.5-.1-.9-.2-1.3h-.1c.2-1.9.5-3.9.8-5.9h.2c3-1.7,5.6-9,6.2-17.9s-.9-16.2-3.6-18.4l1.6-5.2a.7.7,0,0,0-.4-.8c-.4-.2-.9-.2-1,.3l-1.1,3.3c-.1-.5.8-4.2-.3-4.2s-1,0-1,.6l-.2,3.3-.8-3c-.2-.5-.7-.5-1.1-.4a.6.6,0,0,0-.4.8l1.4,5.3c-2.2,1.6-4.2,6.2-5.3,12.1h0c-8.6-8.2-23.1-10.4-36.3-4a.8.8,0,0,0,.6,1.4c16.8-6.6,32.4,6.6,35.6,32-5.6-2.5-5.2-7.4-2.7-11.5-.2-.5-.3-1-.5-1.4-3.3,4.7-4.1,11.3,3.5,14.3h.1c0,.8.1,1.7.2,2.7-8.5-8.2-28.7-20.6-36.2,1.1,3.5-6.3,18.4-15.7,37,8.5h0c.2,2.8.4,5.8.6,8.9a37.4,37.4,0,0,0-2.5,2.9c-3.6,4.5-3,12.1-2.4,14.2a16.4,16.4,0,0,0,6.1,8.4c.1,1,.1,1.9.2,2.9h.1c.4,7.7.6,15.6.6,22.7-1.6-5.4-7.1-18.6-19.9-6.5.3-.3,12.5-8.9,19.9,10.8.1,8.1-.6,20.9-2.3,23.4a.8.8,0,0,0,.7,1.1h4.5a.7.7,0,0,0,.7-.8c.1-10.9-.1-36.9-.4-51.8a17.6,17.6,0,0,0,4,.7c4.6.4,8.5,5.2,9,11.2.8,7.9-4.6,14-12.6,16.8v1.2l1.8-.8a17.8,17.8,0,0,0,9.4-7.5c3.4-5.3,3-13.3-.8-18.1a9.8,9.8,0,0,0-6.8-3.9,17.7,17.7,0,0,1-4-.8h-.1c0-4.9,0-11-.3-14.6h0v-.1c15.2-29.6,34-14.5,39.6-8.7l.5-.4C1450.4,1129.2,1432.3,1151.4,1426.7,1159.5Zm5-16.5a8.3,8.3,0,0,1-3,7.7l-2.2,1.5c-.3-5.6-.6-11.9-1-16C1429.9,1138.2,1431.3,1140.9,1431.7,1143Zm-13.8,29.4c-.6-2.2-.9-9,2.1-13l2.1-2.3c.4,7.4.7,15.3,1.1,22.8A15.1,15.1,0,0,1,1417.9,1172.4Z" fill="#556940"/>
        <path d="M1417.8,1222.2q1.4-4.2,6.3-6.9v-1.4c-12.6,6.4-7.5,19-3.7,23.9l.9-.7S1415.4,1229.2,1417.8,1222.2Z" fill="#556940"/>
      </g>
      <g>
        <path d="M1113.3,1292.1c-4.1-5-8.9-7.9-10.8-6.6l15.1,18.5C1119.3,1302.4,1117.4,1297.2,1113.3,1292.1Z" fill="#556940"/>
        <path d="M1117.1,1304.4l-15-18.5c-1.8,1.6.1,6.9,4.2,11.9S1115.2,1305.8,1117.1,1304.4Z" fill="#556940"/>
        <path d="M1136.2,1330.9c.7,1.5,4.4,1.1,8.3-1s6.7-4.8,6.2-6.4Z" fill="#556940"/>
        <path d="M1142.2,1324.1c-4,2-6.7,4.9-6.2,6.5l14.5-7.4C1149.8,1321.7,1146.1,1322.1,1142.2,1324.1Z" fill="#556940"/>
        <path d="M1141.7,1342.3c3.9,2.1,7.8,2.7,8.8,1.3l-14.4-7.6C1135.3,1337.4,1137.8,1340.2,1141.7,1342.3Z" fill="#556940"/>
        <path d="M1145.1,1337c-3.9-2.1-7.8-2.7-8.8-1.4l14.4,7.7C1151.5,1341.9,1149,1339.1,1145.1,1337Z" fill="#556940"/>
        <path d="M1094.3,1375.7c.7,1.4,4.4,1,8.3-1s6.7-4.9,6.2-6.4Z" fill="#556940"/>
        <path d="M1100.3,1368.9c-4,2-6.7,4.8-6.2,6.4l14.5-7.4C1107.9,1366.4,1104.2,1366.9,1100.3,1368.9Z" fill="#556940"/>
        <path d="M1106.2,1340c-4.2-5-9.1-7.8-10.9-6.4l15.4,18.2C1112.4,1350.2,1110.4,1344.9,1106.2,1340Z" fill="#556940"/>
        <path d="M1094.8,1334c-1.7,1.6.3,6.9,4.5,11.8s9.1,7.8,11,6.4Z" fill="#556940"/>
        <path d="M1137.3,1390.8c1.9,1.4,6.8-1.4,11-6.3s6.2-10.2,4.5-11.8Z" fill="#556940"/>
        <path d="M1141.4,1378.6c-4.2,5-6.2,10.2-4.5,11.9l15.4-18.2C1150.5,1370.9,1145.6,1373.7,1141.4,1378.6Z" fill="#556940"/>
        <path d="M1166.5,1265.3a.8.8,0,0,0,.6-1.4c-13.3-7-28.3-3.1-36.3,3.9-1-5.9-3-10.5-5.2-12.1l1.4-5.3a.9.9,0,0,0-.5-.8h-.3c-.3-.1-.7.1-.7.4l-.8,3.1-.3-3.4a.6.6,0,0,0-.6-.6h-.3a.7.7,0,0,0-.6.7l.2,3.6-1-3.4a.7.7,0,0,0-.8-.4h-.3a.7.7,0,0,0-.4.8l1.7,5.2c-2.7,2.2-4.3,9.7-3.7,18.5s3.3,16.1,6.3,17.8a55.8,55.8,0,0,0,1.3,5.6v.4a3.6,3.6,0,0,0-.2,1.1c-5.7,2.3-7.4,5.6-7.9,8.1a9.5,9.5,0,0,0,3.4,8.8l2.9,2c-.1,1.9-.1,3.9-.2,6-5.5-8.2-23.6-30.3-40.4-1.4-.1.3.3.6.5.3,5.6-5.7,24.3-21,39.7,8.7v.4h0c-.1,4.6-.2,9.5-.3,14.4a16.7,16.7,0,0,1-4,.7,9.6,9.6,0,0,0-6.7,3.9,14.5,14.5,0,0,0-3.1,8.3,16.5,16.5,0,0,0,2.2,9.8,18.2,18.2,0,0,0,9.4,7.5l1.8.8v22a.7.7,0,0,0,.7.7h4.5a.8.8,0,0,0,.7-1.1c-1.4-2.8-2.1-10-2.2-19.3,3.2,1.8,5.3,4.1,6.2,6.9,2.4,7.1-3.4,14.9-3.5,15l.9.7c.3-.4,6.3-8.4,3.7-16-1-3.3-3.5-5.9-7.4-7.9v-2.7h0c7.5-19.8,19.6-11.1,20-10.9-12.9-12.1-18.4,1.1-20,6.5.1-7.6.3-16.1.7-24.4v-1.1a16.1,16.1,0,0,0,2.8-2.4,15.4,15.4,0,0,0,3.5-6.2c.6-2.1,1.2-9.6-2.3-14.2l-2.6-2.9a1.3,1.3,0,0,1,.1-.6c.2-3.2.3-5.9.5-8.3h0c20.8-25.9,33.1-13.9,37-8.5.2.2.5,0,.4-.3-9.9-23-30.1-6.8-36.6-.8a28.9,28.9,0,0,1,.4-2.9c3-1.2,4.8-3,5.5-5.3s-1-7.3-2.1-9C1142.1,1261.5,1157.4,1262.4,1166.5,1265.3Zm-44.3,49.8a8.2,8.2,0,0,1-2.9-7.7c.3-2.1,1.8-4.9,6.4-6.9-.5,3.5-.9,9.2-1.2,16.2Zm1.4,33c-.2,9.8-.3,19.7-.3,28.1l-1.6-.7c-7.5-2.9-11.7-8.9-11.1-16.1s4.4-10.8,9-11.1a23.8,23.8,0,0,0,4-.7Zm7.3-24.2c3,3.9,2.7,10.7,2.1,12.9a14.6,14.6,0,0,1-3.2,5.7,13,13,0,0,1-2.2,1.9c.3-8.2.8-16.2,1.2-22.9A25.7,25.7,0,0,1,1130.9,1323.9Zm4.2-30.8c-.5,1.8-1.9,3.2-4.2,4.3a90.9,90.9,0,0,1,2.7-11.6C1134.7,1287.6,1135.9,1290.5,1135.1,1293.1Z" fill="#556940"/>
      </g>
    </g>
    <g>
      <path d="M1434.7,1230.5a7.6,7.6,0,0,0-2.1.3,4.5,4.5,0,0,0-1.6-.3l.2-2.1a2.5,2.5,0,0,0-2.5.6l.5,1.6h-.4l-1.8-.2a7,7,0,0,0,0,14,5.2,5.2,0,0,0,1.8-.3,5.7,5.7,0,0,0,1.8.3,6.4,6.4,0,0,0,2-.3,7.6,7.6,0,0,0,2.1.3,7,7,0,0,0,0-14Z" fill="#e3a647"/>
      <path d="M1406.1,1234.5a10.2,10.2,0,0,0-3.5.5,8.6,8.6,0,0,0-2.7-.5l.3-3.5c-2.3-1-4.2,1-4.2,1l.8,2.7h-.6a15.3,15.3,0,0,0-3-.3,11.8,11.8,0,0,0,0,23.6,15.3,15.3,0,0,0,3-.3,13.9,13.9,0,0,0,3,.3,9.7,9.7,0,0,0,3.4-.5,10.2,10.2,0,0,0,3.5.5,11.8,11.8,0,1,0,0-23.6Z" fill="#e3a647"/>
      <path d="M1123.9,1394.9l-1.8.2h-.4l.5-1.6a2.4,2.4,0,0,0-2.5-.5l.3,2-1.7.3a6.4,6.4,0,0,0-2-.3,7,7,0,1,0,0,14,6.4,6.4,0,0,0,2-.3,7.6,7.6,0,0,0,2.1.3l1.7-.2,1.8.2a7,7,0,0,0,0-14Z" fill="#e3a647"/>
    </g>
    <g>
      <path d="M1038.3,1211.8v-.5c0-3.6,3.3-6.5,7.4-6.5h.9a9.8,9.8,0,0,1,8.8-5,10.2,10.2,0,0,1,8.1,3.8,7.2,7.2,0,0,1,5.9-2.8c3.9,0,7.1,2.8,7.1,6.3a6.1,6.1,0,0,1-.1,1.4,7.8,7.8,0,0,1,3.5-.7c4.4,0,7.9,3.1,7.9,7s-3.5,7-7.9,7h-1.3a7.7,7.7,0,0,1-13,3.1,9.3,9.3,0,0,1-8.7,5.5,9.1,9.1,0,0,1-8.5-5,7.8,7.8,0,0,1-2.2.3c-3.4,0-6.3-2.2-6.8-5.1h-.8a4.5,4.5,0,1,1-.3-8.9Z" fill="#9ab152"/>
      <path d="M1288.3,1436.7v.6a8.9,8.9,0,0,1-8.9,8.9h-1.1a11.6,11.6,0,0,1-10.6,6.8,11.4,11.4,0,0,1-9.7-5.2,8.7,8.7,0,0,1-7.2,3.8,8.6,8.6,0,0,1-8.6-8.6,12.3,12.3,0,0,1,.2-1.9,8.8,8.8,0,0,1-4.3,1,9.6,9.6,0,0,1,0-19.1h1.7a8.9,8.9,0,0,1,8.8-7.4,8.7,8.7,0,0,1,6.8,3.2,11.3,11.3,0,0,1,10.6-7.5,11.1,11.1,0,0,1,10.2,6.8,7.5,7.5,0,0,1,2.6-.4,8.2,8.2,0,0,1,8.2,7h1a6.1,6.1,0,0,1,.3,12.1Z" fill="#9ab152"/>
      <path d="M1349.6,1469.3v.4a6.2,6.2,0,0,1-6.2,6.2h-.8a8.1,8.1,0,0,1-7.4,4.7,8.2,8.2,0,0,1-6.8-3.6,6,6,0,0,1-11-3.4,5.7,5.7,0,0,1,.1-1.3,6,6,0,0,1-3,.7,6.7,6.7,0,0,1,0-13.4h1.2a6.2,6.2,0,0,1,10.9-3,7.8,7.8,0,0,1,14.6-.4,4.8,4.8,0,0,1,1.8-.3,5.7,5.7,0,0,1,5.7,4.9h.7a4.2,4.2,0,0,1,4.2,4.2A4.4,4.4,0,0,1,1349.6,1469.3Z" fill="#9ab152"/>
    </g>
    <g>
      <path d="M1240.2,1399.4a4.2,4.2,0,0,0-3-4.1c0-.4.1-.7.1-1.1a4.3,4.3,0,0,0-4.3-4.3,4.7,4.7,0,0,0-3.2,1.4,4.2,4.2,0,0,0-7.4,2.9,3.7,3.7,0,0,0,.1,1.1,4.4,4.4,0,0,0-3,4.1,4.3,4.3,0,0,0,3.1,4.1,5.1,5.1,0,0,0-.2,1.3,4.2,4.2,0,0,0,7.4,2.9,4.7,4.7,0,0,0,3.2,1.4,4.3,4.3,0,0,0,4.3-4.3,5.1,5.1,0,0,0-.2-1.3A4.3,4.3,0,0,0,1240.2,1399.4Z" fill="#ccc3d2"/>
      <path d="M1240.6,1374.5a4.4,4.4,0,0,0-3-4.1,3.7,3.7,0,0,0,.1-1.1,4.2,4.2,0,0,0-4.3-4.2,4.3,4.3,0,0,0-3.2,1.4,4,4,0,0,0-3.1-1.4,4.2,4.2,0,0,0-4.3,4.2,4.9,4.9,0,0,0,.1,1.2,4.2,4.2,0,0,0,.1,8.1,5.9,5.9,0,0,0-.2,1.3,4.3,4.3,0,0,0,4.3,4.3,4,4,0,0,0,3.1-1.4,4.3,4.3,0,0,0,3.2,1.4,4.3,4.3,0,0,0,4.3-4.3,5,5,0,0,0-.2-1.2A4.4,4.4,0,0,0,1240.6,1374.5Z" fill="#ccc3d2"/>
      <path d="M1240.6,1348.9a4.2,4.2,0,0,0-3-4.1,4.1,4.1,0,0,0,.1-1.1,4.3,4.3,0,0,0-4.3-4.3,4.3,4.3,0,0,0-3.2,1.4,4,4,0,0,0-3.1-1.4,4.3,4.3,0,0,0-4.3,4.3,4.1,4.1,0,0,0,.1,1.1,4.2,4.2,0,0,0-3,4.1,4.4,4.4,0,0,0,3.1,4.1,5.1,5.1,0,0,0-.2,1.3,4.2,4.2,0,0,0,4.3,4.2,4,4,0,0,0,3.1-1.4,4.3,4.3,0,0,0,3.2,1.4,4.2,4.2,0,0,0,4.3-4.2,5.1,5.1,0,0,0-.2-1.3A4.3,4.3,0,0,0,1240.6,1348.9Z" fill="#ccc3d2"/>
      <path d="M1240.3,1324.7a4.2,4.2,0,0,0-3-4.1,4.1,4.1,0,0,0,.1-1.1,4.3,4.3,0,0,0-4.3-4.3,4.3,4.3,0,0,0-3.2,1.4,4,4,0,0,0-3.1-1.4,4.3,4.3,0,0,0-4.3,4.3,4.1,4.1,0,0,0,.1,1.1,4.2,4.2,0,0,0-3,4.1,4.4,4.4,0,0,0,3.1,4.1,5.1,5.1,0,0,0-.2,1.3,4.2,4.2,0,0,0,4.3,4.2,4,4,0,0,0,3.1-1.4,4.3,4.3,0,0,0,3.2,1.4,4.2,4.2,0,0,0,4.3-4.2,5.1,5.1,0,0,0-.2-1.3A4.3,4.3,0,0,0,1240.3,1324.7Z" fill="#ccc3d2"/>
    </g>
    <g>
      <path d="M1262.7,1371.2c-12.8,4.3-17.7,15.3-15.2,20.1s17.9,10,24.2,7.8,18.9-6.3,18.6-12.2-3.8-14.5-10.5-15.7S1262.7,1371.2,1262.7,1371.2Z" fill="#ccc3d2"/>
      <path d="M1264.9,1342.1c-8.8,3.2-12.1,11.4-10.4,15s12.3,7.4,16.6,5.7,12.9-4.6,12.7-9-2.6-10.8-7.2-11.7S1264.9,1342.1,1264.9,1342.1Z" fill="#ccc3d2"/>
      <path d="M1288.2,1333c-5.5,1.8-7.5,6.2-6.5,8.2s7.7,4,10.4,3.1,8.1-2.5,8-4.9-1.6-5.9-4.5-6.4A33.5,33.5,0,0,0,1288.2,1333Z" fill="#ccc3d2"/>
      <path d="M1271.8,1310.8c-9,3.1-12.4,11-10.7,14.4s12.6,7.1,17,5.6,13.2-4.6,13.1-8.7-2.7-10.4-7.4-11.3S1271.8,1310.8,1271.8,1310.8Z" fill="#ccc3d2"/>
      <path d="M1276.1,1292.6c-4.3,1.8-6,6.3-5.1,8.2s6,4.1,8.1,3.2,6.4-2.6,6.3-5-1.3-5.9-3.5-6.4A20.6,20.6,0,0,0,1276.1,1292.6Z" fill="#ccc3d2"/>
    </g>
    <g>
    </g>
    <g>
      <circle cx="1257.3" cy="1349" r="12.6" fill="#305d69"/>
      <circle cx="1257.7" cy="1349" r="8.4" fill="#9ab4da"/>
      <path d="M1343.5,1302.2a1.4,1.4,0,0,0-1.8.7l-18.7,41.7h-55.4a1.4,1.4,0,0,0-1.4,1.4,1.5,1.5,0,0,0,1.4,1.5h38.3l11.3,10.8a1.4,1.4,0,0,0,.9.3,1.2,1.2,0,0,0,.9-.4,1.2,1.2,0,0,0-.1-1.7l-9.4-9h14.4a1.4,1.4,0,0,0,1-.5.9.9,0,0,0,.3-.5l19.1-42.4A1.4,1.4,0,0,0,1343.5,1302.2Z" fill="#a3d2f2"/>
      <g>
        <line x1="1260.4" y1="1338.8" x2="1274.3" y2="1326.5" fill="#a3d2f2"/>
        <path d="M1260.4,1340.3a1.6,1.6,0,0,1-1.1-.5,1.4,1.4,0,0,1,.1-2l14-12.4a1.4,1.4,0,1,1,1.9,2.1l-14,12.4A1.5,1.5,0,0,1,1260.4,1340.3Z" fill="#a3d2f2"/>
      </g>
      <rect x="1341.4" y="1300.5" width="15.4" height="3.96" rx="2" transform="translate(2698.1 2605) rotate(180)" fill="#83b2df"/>
      <path d="M1329.6,1328.7h-17.9a2,2,0,0,0-2,2V1344a2,2,0,1,0,3.9,0v-11.4h16a1.8,1.8,0,0,0,1.9-1.9A1.9,1.9,0,0,0,1329.6,1328.7Z" fill="#9ab4da"/>
      <path d="M1328.7,1307.2h-66.2a2.5,2.5,0,0,0-2,3.8c22.9,38.8,7.7,25.7,59.6,27.9a5,5,0,0,0,4.7-3.5l7.6-22.7A4.1,4.1,0,0,0,1328.7,1307.2Z" fill="#83b2df"/>
    </g>
    <g>
      <path d="M1301.9,1263.3a.8.8,0,0,0-1.2.1l-7.5,8.7h-.2l-1.9,2a1.1,1.1,0,0,0,0,1.8l4.5,4.6a1.4,1.4,0,0,0,1.9,0l2-2a1.4,1.4,0,0,0,0-1.9l-4.4-4.3,6.8-8A.8.8,0,0,0,1301.9,1263.3Z" fill="#979187"/>
      <path d="M1283.4,1270l8.8-4.2a1,1,0,0,0,.5-1.3,1.1,1.1,0,0,0-1.4-.5l-8.8,4.2-1.2-2.5a1.9,1.9,0,0,0-3-.6l-11.5,9.7a1.9,1.9,0,0,0,1.6,3.4l14.9-2.8a2,2,0,0,0,1.4-2.8Z" fill="#979187"/>
    </g>
  </g>
</svg>
