<svg xmlns="http://www.w3.org/2000/svg" viewBox="0 0 40.9 40.9">
    <path d="M40.9,14.9V26a5.8,5.8,0,0,1-8.8,5l-2.5-1.4L31,32.1a5.8,5.8,0,0,1-5,8.8H14.9a5.9,5.9,0,0,1-5.1-8.8l1.5-2.5L8.8,31.1A5.9,5.9,0,0,1,0,26V14.9a5.8,5.8,0,0,1,8.8-5l2.5,1.4L9.8,8.8A5.9,5.9,0,0,1,14.9,0H26a5.8,5.8,0,0,1,5,8.8l-1.5,2.5,2.6-1.4A5.8,5.8,0,0,1,40.9,14.9Z" fill="#f7da74"/>
    <ellipse cx="20.5" cy="32.1" rx="1.7" ry="5.3" fill="#e9b549"/>
    <ellipse cx="20.5" cy="9.6" rx="1.7" ry="5.3" fill="#e9b549"/>
    <ellipse cx="31.7" cy="20.9" rx="5.3" ry="1.7" fill="#e9b549"/>
    <ellipse cx="9.2" cy="20.9" rx="5.3" ry="1.7" fill="#e9b549"/>
</svg>
