<svg xmlns="http://www.w3.org/2000/svg" viewBox="0 0 58.5 149.4">
    <rect x="26.3" y="74.4" width="4" height="75" rx="2" fill="#f7da74"/>
    <rect x="15.7" y="2.6" width="1" height="34.68" fill="#d77074"/>
    <rect x="41.8" y="2.6" width="1" height="34.68" fill="#d77074"/>
    <rect x="28.9" y="2.6" width="1" height="34.68" fill="#d77074"/>
    <path d="M58.5,39.5v.8c0,23.3-13.1,42.1-29.2,42.1S0,63.6,0,40.3V38.7a42.8,42.8,0,0,1,1.1-9.9h0C2.8,21.9,6,17.2,9.8,17.2s4.7,2,6.4,5.3c1.8-3.3,4-5.3,6.5-5.3s4.8,2.1,6.6,5.6c1.7-3.5,4-5.6,6.5-5.6s4.8,2,6.5,5.3c1.7-3.3,4-5.3,6.4-5.3s7.1,4.7,8.7,11.5h0a42.8,42.8,0,0,1,1.1,9.9Z" fill="#bb4528"/>
    <ellipse cx="42.2" cy="4.1" rx="3.9" ry="4.1" fill="#833235"/>
    <ellipse cx="29.4" cy="4.1" rx="3.9" ry="4.1" fill="#833235"/>
    <ellipse cx="16.2" cy="4.1" rx="3.9" ry="4.1" fill="#833235"/>
</svg>
