<svg xmlns="http://www.w3.org/2000/svg" viewBox="0 0 40.1 41.2">
  <path d="M30.3,23.3a28.7,28.7,0,0,1-5.5-.5,45.8,45.8,0,0,1,4.5,3.9c4,3.9,6.6,8,5.8,9s-4.8-1.3-8.9-5.3a36.5,36.5,0,0,1-3.9-4.5c.1,1.4.2,2.9.2,4.6,0,5.9-1,10.7-2.3,10.7s-2.3-4.8-2.3-10.7a32.5,32.5,0,0,1,.4-5.7,38.8,38.8,0,0,1-4.5,5.4c-4,4-7.9,6.5-8.8,5.5s1.7-5.1,5.7-9.2c1.4-1.4,2.8-2.6,4-3.6a24.3,24.3,0,0,1-4.9.4C4.4,23.3,0,22.2,0,20.8s4.4-2.5,9.8-2.5a34.3,34.3,0,0,1,4.8.3,46,46,0,0,1-3.5-3.1c-4.1-4-6.7-8-5.8-9s4.8,1.3,8.8,5.3a42,42,0,0,1,4.2,4.7,33.7,33.7,0,0,1-.4-5.8c0-5.9,1-10.7,2.3-10.7s2.3,4.8,2.3,10.7c0,1.6-.1,3.1-.2,4.5a35.7,35.7,0,0,1,3.3-3.8c4-4.1,7.9-6.5,8.8-5.5S32.7,11,28.8,15a32.7,32.7,0,0,1-4.2,3.7,31.8,31.8,0,0,1,5.7-.4c5.4,0,9.8,1.1,9.8,2.5S35.7,23.3,30.3,23.3Z" fill="#af92bf"/>
</svg>
