<svg xmlns="http://www.w3.org/2000/svg" viewBox="0 0 119.55 77.24">
    <path d="M29.51,15.41,15.66.31a1,1,0,0,0-1.43,0L.38,15.41" fill="#a05360"/>
    <path d="M29.61,19.84,15.75,4.74a1,1,0,0,0-1.42,0L.48,19.84" fill="#b36673"/>
    <path d="M59.77,11.05v6.42c0,1.1-.56,2-1.27,2H32.32v0a.44.44,0,0,1-.16,0h-1c-.7,0-1.27-.89-1.27-2V11.05c0-1.1.57-2,1.27-2h1c.7,0,1.27.89,1.27,2v1.48h22.8V11.05c0-1.1.57-2,1.27-2h1C59.21,9.06,59.77,10,59.77,11.05Z" fill="#a05360"/>
    <rect x="89.66" y="12.38" width="29.89" height="9.3" rx="2.3" fill="#a05360"/>
    <path d="M94.92,27.92,85.36,6.37A1.53,1.53,0,0,0,84,5.46H65.47a1.52,1.52,0,0,0-1.39.91L54.51,27.92" fill="#a05360"/>
    <path d="M29.89,16.91v57.8a2.35,2.35,0,0,1-2.13,2.53H2.13A2.35,2.35,0,0,1,0,74.71V16.91a2.36,2.36,0,0,1,2.13-2.54H27.76A2.36,2.36,0,0,1,29.89,16.91Z" fill="#8f2a32"/>
    <rect x="59.77" y="14.37" width="29.89" height="62.87" rx="2.42" fill="#8f2b33"/>
    <path d="M59.77,16.91v57.8a2.35,2.35,0,0,1-2.12,2.53H32a2.35,2.35,0,0,1-2.12-2.53V16.91A2.36,2.36,0,0,1,32,14.37H57.65A2.36,2.36,0,0,1,59.77,16.91Z" fill="#9a424e"/>
    <rect x="89.66" y="14.37" width="29.89" height="62.87" rx="2.42" fill="#9a424e"/>
    <path d="M7.31,31.64V44.92H3.59a1.38,1.38,0,0,1-1.38-1.38V31.64Z" fill="#b36673"/>
    <path d="M13.5,31.64v11.9a1.37,1.37,0,0,1-1.37,1.38H8.41V31.64Z" fill="#b36673"/>
    <path d="M7.31,25.22v5.31H2.21V26.59a1.37,1.37,0,0,1,1.38-1.37Z" fill="#b36673"/>
    <path d="M13.5,26.59v3.94H8.41V25.22h3.72A1.37,1.37,0,0,1,13.5,26.59Z" fill="#b36673"/>
    <path d="M16.38,31.64h5.09V44.92h-3.6a1.49,1.49,0,0,1-1.49-1.49Z" fill="#b36673"/>
    <path d="M27.67,31.64V43.43a1.49,1.49,0,0,1-1.48,1.49H22.58V31.64Z" fill="#b36673"/>
    <path d="M17.87,25.22h3.6v5.31H16.38V26.71A1.49,1.49,0,0,1,17.87,25.22Z" fill="#b36673"/>
    <path d="M27.67,26.71v3.82H22.58V25.22h3.61A1.48,1.48,0,0,1,27.67,26.71Z" fill="#b36673"/>
    <path d="M13.21,62.85h3.24A4.58,4.58,0,0,1,21,67.43v9.81a0,0,0,0,1,0,0H8.63a0,0,0,0,1,0,0V67.43A4.58,4.58,0,0,1,13.21,62.85Z" fill="#b36673"/>
    <path d="M36.53,34.07v4.11h-4V35a.89.89,0,0,1,.88-.88Z" fill="#b36673"/>
    <path d="M32.54,39.41h4v4.18H33.42a.88.88,0,0,1-.88-.88Z" fill="#b36673"/>
    <path d="M42.06,35v3.23H37.64V34.07h3.54A.88.88,0,0,1,42.06,35Z" fill="#b36673"/>
    <path d="M37.64,39.41h4.42v3.3a.87.87,0,0,1-.88.88H37.64Z" fill="#b36673"/>
    <path d="M52.26,34.52V38.2H48V35.4a.87.87,0,0,1,.88-.88Z" fill="#b36673"/>
    <path d="M48,39.42h4.22V44H48.92a.88.88,0,0,1-.88-.88Z" fill="#b36673"/>
    <path d="M57.56,35.4v2.8H53.37V34.52h3.31A.87.87,0,0,1,57.56,35.4Z" fill="#b36673"/>
    <path d="M53.37,39.42h4.19v3.74a.88.88,0,0,1-.88.88H53.37Z" fill="#b36673"/>
    <path d="M36.53,46v4.16h-4V46.91a.88.88,0,0,1,.88-.88Z" fill="#b36673"/>
    <path d="M36.53,51.41v4.14H33.42a.89.89,0,0,1-.88-.88V51.41Z" fill="#b36673"/>
    <path d="M42.06,46.91v3.28H37.64V46h3.54A.87.87,0,0,1,42.06,46.91Z" fill="#b36673"/>
    <path d="M42.06,51.41v3.26a.88.88,0,0,1-.88.88H37.64V51.41Z" fill="#b36673"/>
    <path d="M52.26,51.43V56H48.92a.87.87,0,0,1-.88-.88V51.43Z" fill="#b36673"/>
    <path d="M57.56,51.43v3.68a.87.87,0,0,1-.88.88H53.37V51.43Z" fill="#b36673"/>
    <path d="M52.26,46.47V50.2H48V47.35a.88.88,0,0,1,.88-.88Z" fill="#b36673"/>
    <path d="M57.56,47.35V50.2H53.37V46.47h3.31A.88.88,0,0,1,57.56,47.35Z" fill="#b36673"/>
    <path d="M42.65,59.53h4.14a5.68,5.68,0,0,1,5.68,5.68v12a0,0,0,0,1,0,0H37a0,0,0,0,1,0,0v-12A5.68,5.68,0,0,1,42.65,59.53Z" fill="#b36673"/>
    <path d="M73,62.85h3.24a4.58,4.58,0,0,1,4.58,4.58v9.81a0,0,0,0,1,0,0H68.41a0,0,0,0,1,0,0V67.43A4.58,4.58,0,0,1,73,62.85Z" fill="#b36673"/>
    <path d="M104.06,54.44h.87a5.76,5.76,0,0,1,5.76,5.76v17a0,0,0,0,1,0,0H98.3a0,0,0,0,1,0,0v-17A5.76,5.76,0,0,1,104.06,54.44Z" fill="#b36673"/>
    <path d="M36.46,22.27v4.11h-4V23.15a.89.89,0,0,1,.88-.88Z" fill="#b36673"/>
    <path d="M32.47,27.61h4v4.18H33.35a.88.88,0,0,1-.88-.88Z" fill="#b36673"/>
    <path d="M42,23.15v3.23H37.56V22.27h3.55A.88.88,0,0,1,42,23.15Z" fill="#b36673"/>
    <path d="M37.56,27.61H42v3.3a.87.87,0,0,1-.88.88H37.56Z" fill="#b36673"/>
    <path d="M52.19,22.72V26.4H48V23.59a.87.87,0,0,1,.88-.87Z" fill="#b36673"/>
    <path d="M48,27.62h4.22v4.62H48.85a.88.88,0,0,1-.88-.88Z" fill="#b36673"/>
    <path d="M57.49,23.59V26.4H53.3V22.72h3.31A.88.88,0,0,1,57.49,23.59Z" fill="#b36673"/>
    <path d="M53.3,27.62h4.19v3.74a.89.89,0,0,1-.88.88H53.3Z" fill="#b36673"/>
    <rect x="68.85" y="23.45" width="11.73" height="24.57" rx="1.27" fill="#9a424e"/>
    <path d="M85.58,41.16a.54.54,0,0,0,.54-.54v-.91a.54.54,0,0,0-.54-.54H63.63a.54.54,0,0,0-.54.54v.91a.54.54,0,0,0,.54.54h.57v5.75h-.57a.55.55,0,0,0-.54.54v.92a.55.55,0,0,0,.54.54H85.58a.54.54,0,0,0,.54-.54v-.92a.54.54,0,0,0-.54-.54H85V41.16Zm-19.39,0H68v5.75H66.19Zm3.77,0h1.77v5.75H70Zm3.76,0h1.77v5.75H73.72Zm3.76,0h1.78v5.75H77.48ZM83,46.91H81.25V41.16H83Z" fill="#b36673"/>
    <path d="M103.39,28.54v-3a1.62,1.62,0,0,0-1.62-1.62H95.26a1.61,1.61,0,0,0-1.61,1.62v3Z" fill="#b36673"/>
    <path d="M93.65,30.31v7.9a1.62,1.62,0,0,0,1.61,1.62h6.51a1.63,1.63,0,0,0,1.62-1.62v-7.9Z" fill="#b36673"/>
    <path d="M106,30.31V38a1.63,1.63,0,0,0,1.62,1.62h6.51A1.62,1.62,0,0,0,115.78,38V30.31Z" fill="#b36673"/>
    <path d="M115.78,28.54V25.29a1.61,1.61,0,0,0-1.61-1.62h-6.51A1.62,1.62,0,0,0,106,25.29v3.25Z" fill="#b36673"/>
</svg>
