<svg xmlns="http://www.w3.org/2000/svg" viewBox="0 0 179.5 152.1">
  <path d="M163.8,92.8a16.2,16.2,0,0,1,.1,2.2c0,18-10.9,32.5-24.4,32.5l-3.1-.2c-5.1,14.6-16.2,24.8-29.1,24.8-11.1,0-20.9-7.5-26.6-18.9-4.3,8.4-11.4,13.9-19.6,13.9-13.1,0-23.7-14.1-23.7-31.6a38.2,38.2,0,0,1,.6-6.8,20.6,20.6,0,0,1-11.7,3.7C11.8,112.4,0,96.7,0,77.3s11.8-35,26.3-35a21.2,21.2,0,0,1,4.4.5c2.1-15.4,12.1-27,24.2-27,7.6,0,14.3,4.5,18.8,11.5C77.8,11.4,89.2,0,102.5,0s23.6,10.3,28.2,24.9a17.1,17.1,0,0,1,7.1-1.5c11.4,0,20.8,11,22.5,25.5a10.9,10.9,0,0,1,2.6-.3c9.2,0,16.6,9.9,16.6,22.1S172.6,92.2,163.8,92.8Z" fill="#7d9f82"/>
</svg>
