<svg xmlns="http://www.w3.org/2000/svg" viewBox="0 0 133.1 75">
  <path d="M11.6,29.3V28.2c0-8.9,8.1-16.1,18.1-16.1l2.3.2C35.7,5,44,0,53.6,0A24.7,24.7,0,0,1,73.3,9.3,18.2,18.2,0,0,1,87.8,2.5c9.7,0,17.6,7,17.6,15.5a18.6,18.6,0,0,1-.4,3.4,22,22,0,0,1,8.6-1.8c10.8,0,19.5,7.7,19.5,17.3s-8.7,17.2-19.5,17.2a18.3,18.3,0,0,1-3.3-.2c-1.5,7.6-8.9,13.3-17.9,13.3a19,19,0,0,1-13.9-5.7C75.4,69.4,67,75,57.1,75S39.6,69.9,36.2,62.7a18.4,18.4,0,0,1-5.3.8c-8.4,0-15.4-5.5-16.6-12.6h-2C5.5,51,0,46.2,0,40.1S5.2,29.6,11.6,29.3Z" fill="#9ab152"/>
</svg>
