<svg xmlns="http://www.w3.org/2000/svg" viewBox="0 0 113.6 44.4">
  <path d="M113.6,34c0,5.5-3.5,10-7.8,10.3H8.3C3.7,44.4,0,39.7,0,34S3.7,23.6,8.3,23.6a6.9,6.9,0,0,1,3.4.9,11.5,11.5,0,0,1-.6-3.7c0-5.8,3.7-10.4,8.3-10.4a7.9,7.9,0,0,1,6.9,4.7v-.8c0-5.8,3.7-10.4,8.3-10.4a7.9,7.9,0,0,1,6.5,4C42,3.4,45.3,0,49.1,0s7,3.2,8,7.6C58.3,3.7,61.3.9,64.8.9s6.6,2.9,7.8,6.8A7.7,7.7,0,0,1,79,3.9c4.6,0,8.3,4.6,8.3,10.4v.8a7.9,7.9,0,0,1,6.9-4.7c4.6,0,8.3,4.6,8.3,10.4a11.5,11.5,0,0,1-.6,3.7,6.9,6.9,0,0,1,3.4-.9C109.9,23.6,113.6,28.2,113.6,34Z" fill="#e6dfbc"/>
</svg>
