<svg xmlns="http://www.w3.org/2000/svg" viewBox="0 0 205.3 375.9">
    <g>
      <path d="M120,61.5c-1.5,21.8-8,39.7-15.4,43.8a6.2,6.2,0,0,1-3.5.8c-8.7-.6-14.4-21.5-12.7-46.8.4-4.6.9-9.1,1.6-13.3,3.3-18.6,10.3-31.8,17.4-31.3C116.1,15.3,121.8,36.2,120,61.5Z" fill="#f7da74"/>
      <g>
        <path d="M99,29.3c-.3,5.5-3.2,5.3-2.8-.2S99.4,23.8,99,29.3Z" fill="#e4c260"/>
        <path d="M101.6,39.9c-.3,5.5-3.2,5.3-2.8-.2S102,34.4,101.6,39.9Z" fill="#e4c260"/>
        <path d="M95.5,39.4c-.3,5.5-3.3,5.3-2.8-.2S95.9,33.9,95.5,39.4Z" fill="#e4c260"/>
        <path d="M113.2,22.7c-.3,5.5-3.2,5.3-2.8-.2S113.6,17.2,113.2,22.7Z" fill="#e4c260"/>
        <path d="M102.3,22.9c-.3,5.5-3.2,5.3-2.8-.2S102.7,17.4,102.3,22.9Z" fill="#e4c260"/>
        <path d="M107.7,20.9c-.4,5.5-3.3,5.3-2.9-.2S108.1,15.4,107.7,20.9Z" fill="#e4c260"/>
        <path d="M116,30.4c-.3,5.5-3.2,5.3-2.8-.2S116.4,24.9,116,30.4Z" fill="#e4c260"/>
        <path d="M110.3,30c-.3,5.5-3.2,5.3-2.8-.1S110.8,24.6,110.3,30Z" fill="#e4c260"/>
        <path d="M104.7,29.7c-.4,5.5-3.3,5.3-2.8-.2S105.1,24.2,104.7,29.7Z" fill="#e4c260"/>
        <path d="M92.8,50.6c-.3,5.5-3.2,5.3-2.8-.2S93.2,45.1,92.8,50.6Z" fill="#e4c260"/>
        <path d="M97.1,50c-.3,5.5-3.2,5.3-2.8-.2S97.5,44.5,97.1,50Z" fill="#e4c260"/>
        <path d="M102.3,50.3c-.3,5.5-3.2,5.3-2.8-.2S102.7,44.8,102.3,50.3Z" fill="#e4c260"/>
        <path d="M108.4,51.2c-.3,5.5-3.2,5.3-2.8-.2S108.8,45.7,108.4,51.2Z" fill="#e4c260"/>
        <path d="M114.1,51.1c-.3,5.5-3.2,5.3-2.8-.2S114.5,45.6,114.1,51.1Z" fill="#e4c260"/>
        <path d="M118.8,51.9c-.4,5.5-3.3,5.3-2.8-.2S119.2,46.4,118.8,51.9Z" fill="#e4c260"/>
        <path d="M118.1,40.5c-.3,5.5-3.2,5.3-2.8-.2S118.6,35,118.1,40.5Z" fill="#e4c260"/>
        <path d="M113,40.2c-.4,5.5-3.3,5.3-2.9-.2S113.4,34.7,113,40.2Z" fill="#e4c260"/>
        <path d="M107.3,40.3c-.4,5.5-3.3,5.3-2.9-.2S107.7,34.8,107.3,40.3Z" fill="#e4c260"/>
        <path d="M109.5,90.1c.4-5.5,3.3-5.3,2.9.2S109.1,95.6,109.5,90.1Z" fill="#e4c260"/>
        <path d="M106.9,79.5c.4-5.5,3.3-5.3,2.9.2S106.5,85,106.9,79.5Z" fill="#e4c260"/>
        <path d="M113.1,80c.3-5.5,3.2-5.3,2.8.1S112.7,85.4,113.1,80Z" fill="#e4c260"/>
        <path d="M95.3,96.7c.4-5.5,3.3-5.3,2.9.2S94.9,102.2,95.3,96.7Z" fill="#e4c260"/>
        <path d="M106.2,96.5c.4-5.5,3.3-5.3,2.9.2S105.8,102,106.2,96.5Z" fill="#e4c260"/>
        <path d="M100.9,98.5c.3-5.5,3.2-5.3,2.8.2S100.5,104,100.9,98.5Z" fill="#e4c260"/>
        <path d="M92.6,89c.3-5.5,3.2-5.3,2.8.2S92.1,94.5,92.6,89Z" fill="#e4c260"/>
        <path d="M98.2,89.3c.4-5.5,3.3-5.3,2.8.2S97.8,94.8,98.2,89.3Z" fill="#e4c260"/>
        <path d="M103.9,89.7c.3-5.5,3.2-5.3,2.8.2S103.5,95.2,103.9,89.7Z" fill="#e4c260"/>
        <path d="M115.7,68.8c.4-5.5,3.3-5.3,2.9.2S115.3,74.3,115.7,68.8Z" fill="#e4c260"/>
        <path d="M111.4,69.4c.4-5.5,3.3-5.3,2.8.2S111,74.9,111.4,69.4Z" fill="#e4c260"/>
        <path d="M106.2,69.1c.4-5.5,3.3-5.3,2.9.2S105.8,74.6,106.2,69.1Z" fill="#e4c260"/>
        <path d="M100.1,68.2c.4-5.5,3.3-5.3,2.9.2S99.7,73.7,100.1,68.2Z" fill="#e4c260"/>
        <path d="M94.5,68.3c.3-5.5,3.2-5.3,2.8.2S94,73.7,94.5,68.3Z" fill="#e4c260"/>
        <path d="M89.8,67.5c.3-5.5,3.2-5.3,2.8.2S89.4,73,89.8,67.5Z" fill="#e4c260"/>
        <path d="M90.4,78.9c.4-5.5,3.3-5.3,2.8.2S90,84.4,90.4,78.9Z" fill="#e4c260"/>
        <path d="M95.6,79.2c.3-5.5,3.2-5.3,2.8.2S95.2,84.7,95.6,79.2Z" fill="#e4c260"/>
        <path d="M101.3,79.1c.3-5.5,3.2-5.3,2.8.2S100.9,84.6,101.3,79.1Z" fill="#e4c260"/>
        <path d="M115.8,60.1c.3-4.1,3.2-3.9,2.9.2S115.5,64.3,115.8,60.1Z" fill="#e4c260"/>
        <path d="M111.6,60.6c.2-4.2,3.1-4,2.8.1S111.2,64.7,111.6,60.6Z" fill="#e4c260"/>
        <path d="M106.4,60.2c.2-4.1,3.1-3.9,2.8.2S106.1,64.3,106.4,60.2Z" fill="#e4c260"/>
        <path d="M100.3,59.4c.2-4.1,3.1-3.9,2.8.2S100,63.5,100.3,59.4Z" fill="#e4c260"/>
        <path d="M94.6,59.4c.2-4.1,3.1-3.9,2.8.2S94.3,63.5,94.6,59.4Z" fill="#e4c260"/>
        <path d="M89.9,58.7c.3-4.1,3.1-3.9,2.8.2S89.6,62.8,89.9,58.7Z" fill="#e4c260"/>
      </g>
      <path d="M114.1,1.5c-1-.4-2.3-.4-2.7.7l-2.6,8.3c-.3-1.4,2-10.6-.7-10.4-1-.2-2.3,0-2.4,1.3l-.6,8.3-2-7.5c-.3-1.2-1.6-1.3-2.6-.9a1.4,1.4,0,0,0-1,1.8L103,16.7c.4,1.6,2.6,1.3,3.4.3a3.3,3.3,0,0,0,1,0c.8.9,3,1.3,3.4-.2l4.3-13.4A1.6,1.6,0,0,0,114.1,1.5Z" fill="#808636"/>
    </g>
    <path d="M107.7,240.1a56.8,56.8,0,0,1-9.6-3.1c0-1-.1-2.1-.1-3.1a22,22,0,0,0,2.5,1.7,41.2,41.2,0,0,0,7.1,3.1h.1Z" fill="#808636"/>
    <path d="M93.2,152.3h0c-.9-12.6-1.5-20.4-1.5-20.4s-.2-2-.4-3c3.3,3,5.1,5,5.1,5l-.9,21.3Z" fill="#808636"/>
    <path d="M95.3,123.5c-1.8-.5-3.4-1.1-5-1.7-.1-1.2-.3-2.3-.5-3.4a46,46,0,0,0,6.3,2.4,55.7,55.7,0,0,1,5.8,2l.6,3.3A65.5,65.5,0,0,0,95.3,123.5Z" fill="#808636"/>
    <path d="M106.9,203.4l-.2-.8c.1,0,.1-.1.1-.2Z" fill="#808636"/>
    <path d="M107.7,241.6h0a34.1,34.1,0,0,1-7.1-2.9l-2.5-1.5V237a56.8,56.8,0,0,0,9.6,3.1Z" fill="#808636"/>
    <path d="M96.4,133.9l-.9,21.3C48.6,92,11,115.5,2.4,131.4,22.5,72.9,80.2,115.3,96.4,133.9Z" fill="#808636"/>
    <g>
      <g>
        <path d="M159.5,89.4l-37,45.4c-4.2-3.9.4-16.9,10.4-29.3S154.8,86,159.5,89.4Z" fill="#556940"/>
        <path d="M123.6,135.7l37-45.4c4.2,3.9-.4,16.8-10.4,29.2S128.3,139.1,123.6,135.7Z" fill="#556940"/>
      </g>
      <g>
        <path d="M41.3,182.6l35.6,18.2c-1.7,3.6-10.8,2.5-20.5-2.4S40,186.4,41.3,182.6Z" fill="#556940"/>
        <path d="M77.2,199.9,41.7,181.7c1.7-3.6,10.8-2.5,20.5,2.4S78.5,196.1,77.2,199.9Z" fill="#556940"/>
      </g>
      <g>
        <path d="M41.8,232,77,213.2c2,3.5-4.1,10.3-13.7,15.4S44.2,235.2,41.8,232Z" fill="#556940"/>
        <path d="M76.5,212.4,41.3,231.2c-2-3.5,4-10.4,13.6-15.5S74.1,209.1,76.5,212.4Z" fill="#556940"/>
      </g>
      <g>
        <path d="M144.2,292.4l35.5,18.2c-1.7,3.6-10.8,2.6-20.5-2.4S142.9,296.3,144.2,292.4Z" fill="#556940"/>
        <path d="M180.1,309.7l-35.6-18.2c1.7-3.6,10.8-2.5,20.5,2.4S181.4,305.9,180.1,309.7Z" fill="#556940"/>
      </g>
      <g>
        <path d="M177.3,207.5l-38,44.5c-4.2-4,.7-16.9,11.1-29S172.7,204,177.3,207.5Z" fill="#556940"/>
        <path d="M140.3,252.9l38.1-44.5c4.1,4-.8,16.9-11.1,29S145,256.4,140.3,252.9Z" fill="#556940"/>
      </g>
      <g>
        <path d="M36.1,303.2,74,347.8c-4.6,3.5-16.5-3.4-26.8-15.5S31.9,307.2,36.1,303.2Z" fill="#556940"/>
        <path d="M75.1,346.9,37.2,302.3c4.6-3.5,16.5,3.4,26.9,15.6S79.3,342.9,75.1,346.9Z" fill="#556940"/>
      </g>
    </g>
    <path d="M106.3,183.7c-.6-17.7-2-51.8-3.8-63.6h-.3c1.6-16.9,8.5-40.2-.1-57.6C85.3,29.6,40.6,17,1,36.4a1.9,1.9,0,0,0,1.5,3.4c41.2-16.2,79.4,16.3,87.3,78.6l.6.3c.6,10,3.5,34.5,2.8,33.6,1.9,26.7,3.4,61.9,4.8,91.6l.4.3c.8,19,1.3,38.2,1.4,55.8-3.9-13.4-17.4-45.8-48.9-16,.9-.7,30.7-21.8,48.9,26.6.2,19.7-1.6,51.1-5.5,57.3a1.8,1.8,0,0,0,1.6,2.7h11a1.8,1.8,0,0,0,1.8-1.8c.1-26.8-.2-90.6-1-127.2h-.2c-.2-12.5-.2-29.3-.8-39,37.5-72.9,83.6-35.8,97.5-21.5l1.1-.8C164.2,109.3,119.8,163.7,106.3,183.7Z" fill="#808636"/>
    <g>
      <path d="M112.9,164.2c-2.3,1.7-4.7,3.2-7.2,4.8-.1-1.1-.1-2.2-.2-3.2,2-1.3,3.9-2.5,5.7-3.9a20.6,20.6,0,0,0,7.2-18.9c-1-5.2-4.6-11.9-15.9-16.9-3.5-1.7-8.5-2.8-12.2-4.3-18.5-7.4-16.5-23.5-8.4-35.2l1.2,3.5c-6.1,10.2-7.1,22.1,6.7,28.3,3.5,1.8,8.5,2.9,12.1,4.4C124.9,131.6,126.6,152.3,112.9,164.2Z" fill="#556940"/>
      <path d="M84.3,337.5c-5.8,17.3,8.5,36.5,8.7,36.6l-2.3,1.8c-9.3-12.2-21.7-43.2,9.1-58.7-.1,1.1-.1,2.2-.1,3.3C91.7,325,86.6,330.7,84.3,337.5Z" fill="#556940"/>
      <path d="M136.1,294.6c-5,8.2-12.7,14.4-23.1,18.3l-4.4,2v-3c19.7-6.7,32.8-21.7,31-41.3-1.3-14.7-10.8-26.4-22.2-27.2a50.4,50.4,0,0,1-9.7-1.8h0c-13-3.6-22.2-15.2-25-25.3-1.5-5.2-3-23.7,5.7-34.9a64.6,64.6,0,0,1,6.3-7.1c.1,1.1.1,2.2.2,3.3h0a62,62,0,0,0-5.1,5.9c-7.4,9.6-6.7,26.4-5.1,31.8,2.5,9.3,11.1,20,22.9,23.4h.1a37.9,37.9,0,0,0,9.8,1.8c6.2.5,12.1,3.9,16.5,9.5C143.5,262,144.3,281.5,136.1,294.6Z" fill="#556940"/>
    </g>
</svg>
