<svg xmlns="http://www.w3.org/2000/svg" viewBox="0 0 203.2 375.9">
    <path class="corn-leaf" d="M95.5,133.9l-1,21.3C47.6,92,10,115.5,1.4,131.4,21.5,72.9,79.3,115.3,95.5,133.9Z" fill="#808636"/>
    <g class="corn-cob">
      <path d="M113.1,1.5c-.9-.4-2.3-.4-2.6.7l-2.6,8.3c-.4-1.4,2-10.6-.8-10.4-1-.2-2.3,0-2.4,1.3l-.6,8.3-1.9-7.5c-.3-1.2-1.7-1.3-2.6-.9a1.5,1.5,0,0,0-1.1,1.8L102,16.7c.4,1.6,2.6,1.3,3.5.3s.7.1.9,0,3,1.3,3.4-.2l4.3-13.4A1.6,1.6,0,0,0,113.1,1.5Z" fill="#808636"/>
      <path d="M120,59.5c-2.5,23.4-6.8,42.3-18.9,44.6S85.3,63.9,90.1,44C99.4-7.5,124.4,11.8,120,59.5Z" fill="#e4c260"/>
      <path d="M88.5,57.6c-4.2,62.2,28.7,58.4,31.6,2.2C124-5.4,90.3,5,88.5,57.6Zm29.6-18c-.3,5.5-3.2,5.3-2.8-.2S118.5,34.1,118.1,39.6ZM116,29.5c-.4,5.5-3.3,5.3-2.9-.2S116.4,24,116,29.5ZM111.2,50c.4-5.5,3.3-5.3,2.9.2S110.8,55.5,111.2,50Zm-1.1-10.9c.3-5.5,3.2-5.3,2.8.2S109.7,44.6,110.1,39.1Zm1.4,20.5c.3-4.1,3.2-3.9,2.9.2S111.2,63.8,111.5,59.6Zm-1.1-38c.3-5.5,3.2-5.3,2.8.2S109.9,27.1,110.4,21.6Zm-.1,7.5c-.3,5.5-3.2,5.3-2.8-.2S110.7,23.6,110.3,29.1Zm-4.7,21c.3-5.5,3.2-5.3,2.8.2S105.1,55.6,105.6,50.1Zm-1.2-11c.4-5.5,3.3-5.3,2.8.2S104,44.6,104.4,39.1Zm4.8,20.4c-.3,4.1-3.2,3.9-2.9-.2S109.5,55.3,109.2,59.5Zm-3,8.6c.4-5.5,3.3-5.3,2.8.2S105.8,73.6,106.2,68.1Zm.7,10.5c.4-5.5,3.3-5.3,2.8.2S106.5,84.1,106.9,78.6Zm-2.1-58.8c.3-5.5,3.2-5.3,2.8.1S104.4,25.2,104.8,19.8Zm-.1,8.9c-.4,5.5-3.3,5.3-2.9-.2S105.1,23.2,104.7,28.7ZM99.5,49.2c.3-5.5,3.2-5.3,2.8.2S99,54.7,99.5,49.2Zm-.7-10.4c.3-5.5,3.2-5.3,2.8.1S98.3,44.2,98.8,38.8Zm4.3,19.9c-.3,4.1-3.2,3.9-2.9-.2S103.4,54.6,103.1,58.7Zm-3,8.6c.4-5.5,3.3-5.3,2.8.1S99.7,72.7,100.1,67.3Zm1.2,10.9c.3-5.5,3.2-5.3,2.8.2S100.8,83.7,101.3,78.2ZM99.5,21.8c.3-5.5,3.2-5.3,2.8.1S99,27.2,99.5,21.8Zm-3.3,6.4c.3-5.5,3.2-5.3,2.8.2S95.8,33.7,96.2,28.2Zm1.1,39.3c-.4,5.5-3.3,5.3-2.9-.2S97.7,62,97.3,67.5Zm-2.7-9c.2-4.2,3.1-4,2.8.2S94.2,62.6,94.6,58.5Zm1,19.8c.3-5.5,3.2-5.3,2.8.2S95.2,83.8,95.6,78.3Zm1.5-29.2c-.3,5.5-3.2,5.3-2.8-.2S97.5,43.6,97.1,49.1ZM92.6,38.3c.4-5.5,3.3-5.3,2.9.2S92.2,43.8,92.6,38.3ZM90,49.5c.3-5.5,3.2-5.3,2.8.2S89.6,55,90,49.5Zm-.1,8.3c.2-4.1,3.1-3.9,2.8.2S89.6,61.9,89.9,57.8Zm-.2,8.7c.4-5.5,3.3-5.3,2.9.2S89.3,72,89.7,66.5ZM90.4,78c.3-5.5,3.2-5.3,2.8.1S90,83.4,90.4,78Zm2.1,10c.4-5.5,3.3-5.3,2.9.2S92.1,93.5,92.5,88Zm5.6,8c-.3,5.5-3.2,5.3-2.8-.2S98.6,90.5,98.1,96Zm.1-7.6c.3-5.5,3.2-5.3,2.8.2S97.8,93.9,98.2,88.4Zm5.5,9.4c-.3,5.5-3.2,5.3-2.8-.2S104.1,92.3,103.7,97.8Zm.1-9c.4-5.5,3.3-5.3,2.9.2S103.4,94.3,103.8,88.8Zm5.2,7c-.3,5.5-3.2,5.3-2.8-.2S109.5,90.3,109,95.8Zm3.3-6.4c-.3,5.5-3.2,5.3-2.8-.2S112.7,83.9,112.3,89.4Zm-.9-20.9c.3-5.5,3.2-5.3,2.8.2S111,74,111.4,68.5Zm4.5,10.7c-.4,5.5-3.3,5.3-2.9-.2S116.3,73.7,115.9,79.2ZM118.5,68c-.3,5.5-3.2,5.3-2.8-.1S118.9,62.6,118.5,68Zm.1-8.6c-.2,4.1-3.1,3.9-2.8-.2S119,55.3,118.6,59.4Zm.2-8.4c-.4,5.5-3.3,5.3-2.9-.2S119.2,45.5,118.8,51Z" fill="#f7da74"/>
    </g>
    <g class="beans" fill="#556940">
      <g>
        <path d="M159.5,89.4l-37,45.4c-4.2-3.9.4-16.9,10.4-29.3S154.8,86,159.5,89.4Z"/>
        <path d="M123.6,135.7l37-45.4c4.2,3.9-.4,16.8-10.4,29.2S128.3,139.1,123.6,135.7Z"/>
      </g>
      <g>
        <path d="M41.3,182.6l35.6,18.2c-1.7,3.6-10.8,2.5-20.5-2.4S40,186.4,41.3,182.6Z"/>
        <path d="M77.2,199.9,41.7,181.7c1.7-3.6,10.8-2.5,20.5,2.4S78.5,196.1,77.2,199.9Z"/>
      </g>
      <g>
        <path d="M41.8,232,77,213.2c2,3.5-4.1,10.3-13.7,15.4S44.2,235.2,41.8,232Z"/>
        <path d="M76.5,212.4,41.3,231.2c-2-3.5,4-10.4,13.6-15.5S74.1,209.1,76.5,212.4Z"/>
      </g>
      <g>
        <path d="M144.2,292.4l35.5,18.2c-1.7,3.6-10.8,2.6-20.5-2.4S142.9,296.3,144.2,292.4Z"/>
        <path d="M180.1,309.7l-35.6-18.2c1.7-3.6,10.8-2.5,20.5,2.4S181.4,305.9,180.1,309.7Z"/>
      </g>
      <g>
        <path d="M177.3,207.5l-38,44.5c-4.2-4,.7-16.9,11.1-29S172.7,204,177.3,207.5Z"/>
        <path d="M140.3,252.9l38.1-44.5c4.1,4-.8,16.9-11.1,29S145,256.4,140.3,252.9Z"/>
      </g>
      <g>
        <path d="M36.1,303.2,74,347.8c-4.6,3.5-16.5-3.4-26.8-15.5S31.9,307.2,36.1,303.2Z"/>
        <path d="M75.1,346.9,37.2,302.3c4.6-3.5,16.5,3.4,26.9,15.6S79.3,342.9,75.1,346.9Z"/>
      </g>
    </g>
    <path class="corn-stem" d="M106.3,183.7c-.6-17.7-2-51.8-3.8-63.6h-.3c1.6-16.9,8.5-40.2-.1-57.6C85.3,29.6,40.6,17,1,36.4a1.9,1.9,0,0,0,1.5,3.4c41.2-16.2,79.4,16.3,87.3,78.6l.6.3c.6,10,3.5,34.5,2.8,33.6,1.9,26.7,3.4,61.9,4.8,91.6l.4.3c.8,19,1.3,38.2,1.4,55.8-3.9-13.4-17.4-45.8-48.9-16,.9-.7,30.7-21.8,48.9,26.6.2,19.7-1.6,51.1-5.5,57.3a1.8,1.8,0,0,0,1.6,2.7h11a1.8,1.8,0,0,0,1.8-1.8c.1-26.8-.2-90.6-1-127.2h-.2c-.2-12.5-.2-29.3-.8-39,37.5-72.9,83.6-35.8,97.5-21.5l1.1-.8C164.2,109.3,119.8,163.7,106.3,183.7Z" fill="#808636"/>
    <g class="corn-curve" fill="#556940">
      <path d="M112.9,164.2c-2.3,1.7-4.7,3.2-7.2,4.8-.1-1.1-.1-2.2-.2-3.2,2-1.3,3.9-2.5,5.7-3.9a20.6,20.6,0,0,0,7.2-18.9c-1-5.2-4.6-11.9-15.9-16.9-3.5-1.7-8.5-2.8-12.2-4.3-18.5-7.4-16.5-23.5-8.4-35.2l1.2,3.5c-6.1,10.2-7.1,22.1,6.7,28.3,3.5,1.8,8.5,2.9,12.1,4.4C124.9,131.6,126.6,152.3,112.9,164.2Z"/>
      <path d="M84.3,337.5c-5.8,17.3,8.5,36.5,8.7,36.6l-2.3,1.8c-9.3-12.2-21.7-43.2,9.1-58.7-.1,1.1-.1,2.2-.1,3.3C91.7,325,86.6,330.7,84.3,337.5Z"/>
      <path d="M136.1,294.6c-5,8.2-12.7,14.4-23.1,18.3l-4.4,2v-3c19.7-6.7,32.8-21.7,31-41.3-1.3-14.7-10.8-26.4-22.2-27.2a50.4,50.4,0,0,1-9.7-1.8h0c-13-3.6-22.2-15.2-25-25.3-1.5-5.2-3-23.7,5.7-34.9a64.6,64.6,0,0,1,6.3-7.1c.1,1.1.1,2.2.2,3.3h0a62,62,0,0,0-5.1,5.9c-7.4,9.6-6.7,26.4-5.1,31.8,2.5,9.3,11.1,20,22.9,23.4h.1a37.9,37.9,0,0,0,9.8,1.8c6.2.5,12.1,3.9,16.5,9.5C143.5,262,144.3,281.5,136.1,294.6Z"/>
    </g>
</svg>
