<svg xmlns="http://www.w3.org/2000/svg" viewBox="0 0 132.8 132.8">
    <path d="M132.8,17.2H44.7V96.8a4.1,4.1,0,0,0-1.9-.4H36.4V17.2H8.9V10.9H36.5a2.3,2.3,0,0,1,1.2-1.5V4.2a.8.8,0,0,1,.6-.9h3.8a.9.9,0,0,1,.7.9V9.1a2.9,2.9,0,0,1,1.8,1.8h81.8A6.3,6.3,0,0,1,132.8,17.2Z" fill="#8f2a32"/>
    <line x1="118.5" y1="65.8" x2="118.5" y2="63.9" fill="none" stroke="#8f2a32" stroke-miterlimit="10" stroke-width="0.49"/>
    <path d="M118.1,65.8c.9.2,1.4.8,1.3,1.5a1.4,1.4,0,0,1-1.3,1" fill="none" stroke="#8f2a32" stroke-linecap="round" stroke-linejoin="round" stroke-width="0.49"/>
    <path d="M36.4,17.2l7.9,7.9a.8.8,0,0,1,0,.9l-7.7,9a.5.5,0,0,0,0,.5l7.9,9.3a.4.4,0,0,1,0,.5l-7.9,9.5a.6.6,0,0,0,0,.6l7.9,9.2a.4.4,0,0,1,0,.5L36.6,75a.5.5,0,0,0,0,.5L44.4,84a.5.5,0,0,1,.1.6L36.4,94" fill="none" stroke="#a45352" stroke-linecap="round" stroke-miterlimit="10" stroke-width="0.12"/>
    <path d="M44.7,17.2,37,25.1a.6.6,0,0,0-.1.9l7.6,9a.4.4,0,0,1,0,.5l-7.7,9.2c-.1.2-.2.4,0,.6l7.7,9.4a.6.6,0,0,1,0,.6l-7.7,9.2a.3.3,0,0,0,0,.5l7.7,9.9a.5.5,0,0,1,0,.5l-7.7,8.5a.6.6,0,0,0,0,.6l7.9,9.4" fill="none" stroke="#a45352" stroke-linecap="round" stroke-miterlimit="10" stroke-width="0.12"/>
    <path d="M9.1,16.9l5.7-5.6a.6.6,0,0,1,.7-.1l6.4,5.6h.4L29,11.1h.4l6.8,5.7h.4l6.7-5.7h.3l7.2,5.7h.4l6.1-5.7h.4l6.8,5.8" fill="none" stroke="#a45352" stroke-linecap="round" stroke-miterlimit="10" stroke-width="0.12"/>
    <path d="M9.1,11l5.7,5.5a.5.5,0,0,0,.7,0l6.4-5.4h.4l6.6,5.6c.2.1.3.1.4,0l6.9-5.6h.4l6.6,5.6a.3.3,0,0,0,.4,0l7.1-5.6h.4l6.1,5.5a.2.2,0,0,0,.4.1L64.4,11" fill="none" stroke="#a45352" stroke-linecap="round" stroke-miterlimit="10" stroke-width="0.12"/>
    <path d="M72.9,17.2l5.7-5.7a.5.5,0,0,1,.7,0L85.7,17c.2.1.3.1.4,0l6.7-5.7a.3.3,0,0,1,.4,0L100,17a.3.3,0,0,0,.4,0l6.7-5.7c.1-.1.2-.1.4,0l7.1,5.7a.3.3,0,0,0,.4,0l6.1-5.6a.2.2,0,0,1,.4-.1l6.8,5.9" fill="none" stroke="#a45352" stroke-linecap="round" stroke-miterlimit="10" stroke-width="0.12"/>
    <path d="M72.9,11.2l5.7,5.5a.6.6,0,0,0,.7.1l6.4-5.5a.3.3,0,0,1,.4,0l6.7,5.6a.2.2,0,0,0,.3,0l6.9-5.6a.3.3,0,0,1,.4,0l6.6,5.6a.3.3,0,0,0,.4,0l7.1-5.6a.3.3,0,0,1,.4,0l6.1,5.6a.3.3,0,0,0,.4,0l6.8-5.7" fill="none" stroke="#a45352" stroke-linecap="round" stroke-miterlimit="10" stroke-width="0.12"/>

    <g fill="#9a424e">
      <path d="M51.7,127.3v4a1.5,1.5,0,0,1-1.5,1.5H30.3a1.6,1.6,0,0,1-1.6-1.5v-4a1.6,1.6,0,0,1,1.6-1.5h1.6V101.9a5.6,5.6,0,0,1,4.5-5.4h6.4a4.1,4.1,0,0,1,1.9.4,5.7,5.7,0,0,1,3.8,5.4v23.6h1.7A1.5,1.5,0,0,1,51.7,127.3Z"/>
      <path d="M120.7,60.6V64a.5.5,0,0,1-.5.5h-2.8a.5.5,0,0,1-.5-.5V60.6a.6.6,0,0,1,.5-.6h.7V17.2h1.3V60h.8A.6.6,0,0,1,120.7,60.6Z"/>
      <path d="M8.9,11.2v6.3A2.9,2.9,0,0,1,6,20.4H2.9A2.9,2.9,0,0,1,0,17.5V11.2A2.9,2.9,0,0,1,2.9,8.3H6a2.8,2.8,0,0,1,2.9,2.6Z"/>
      <path d="M42.1,1.5V3.3H38.3V1.5A1.5,1.5,0,0,1,39.8,0h.9A1.5,1.5,0,0,1,42.1,1.5Z"/>
      <rect x="63.9" y="10.2" width="9.6" height="7.66" rx="0.9"/>
      <rect x="35.8" y="18.5" width="9.6" height="3.19" rx="1"/>
    </g>
</svg>
