<svg xmlns="http://www.w3.org/2000/svg" viewBox="0 0 118.4 118.4">

      <path d="M39.9,86.3,32.5,86V9.7a2.6,2.6,0,0,1,1-1.3V3.7a.8.8,0,0,1,.6-.8h3.4a.9.9,0,0,1,.5.8V8.1a2.2,2.2,0,0,1,1.6,1.6Z" fill="blue"/>
      <path d="M37.6,1.3V2.9H34.2V1.3A1.3,1.3,0,0,1,35.5,0h.7a1.3,1.3,0,0,1,1.4,1.2Z" fill="orange"/>
      <path d="M46.1,113.5V117a1.4,1.4,0,0,1-1.4,1.4H27a1.4,1.4,0,0,1-1.4-1.4h0v-3.5a1.3,1.3,0,0,1,1.3-1.3h1.6V90.8a4.8,4.8,0,0,1,4-4.8h5.7l1.7.3a5.2,5.2,0,0,1,3.4,4.8v21.1h1.4a1.3,1.3,0,0,1,1.4,1.2Z" fill="orange"/>
      <rect x="31.9" y="16.5" width="8.5" height="2.85" rx="0.9" fill="orange"/>
    <g class="crane-horizontal">
      <path d="M118.4,15.4H8V9.7H112.7a5.6,5.6,0,0,1,5.7,5.5Z" fill="blue"/>
      <path d="M8,10v5.6a2.6,2.6,0,0,1-2.6,2.6H2.6A2.6,2.6,0,0,1,0,15.6H0V10A2.6,2.6,0,0,1,2.6,7.4H5.4A2.7,2.7,0,0,1,8,9.7Z" fill="orange"/>
      <rect x="66.9" y="9.1" width="8.5" height="6.83" rx="0.8" fill="orange"/>
    </g>
  <path class="crane-hook" d="M107.1,53.5h-2.4a.5.5,0,0,0-.5.5v3a.5.5,0,0,0,.5.5h.6v.9c-.1-.1-.2,0-.2.1s0,.3.1.3a1.4,1.4,0,0,1,1.1,1.1,1.6,1.6,0,0,1-1,.8c-.2,0-.3.1-.2.2s.1.3.2.3h0a1.7,1.7,0,0,0,1.4-1.2,1.4,1.4,0,0,0-.9-1.5v-1h1.3a.5.5,0,0,0,.5-.5V54A.5.5,0,0,0,107.1,53.5Z" fill="orange"/>
      <path class="crane-hook-line" d="M105.3,53.5V15.4h1.2V53.5" fill="orange"/>
</svg>
