<svg xmlns="http://www.w3.org/2000/svg" viewBox="0 0 137.7 451.3">
    <rect class="fst-color" x="28.8" y="418.1" width="33.2" height="33.24" rx="0.8" />
    <rect class="fst-color" x="75.7" y="418.1" width="33.2" height="33.24" rx="0.8" />
    <path class="scd-color" d="M111.9,156.3V424.4c0,4.8-2.6,8.7-5.7,8.7H77.3c-3.1,0-5.6-3.9-5.6-8.7v-186c0-5.9-6.1-5.9-6,0v186c0,4.8-2.6,8.7-5.7,8.7H31.1c-3.1,0-5.6-3.9-5.6-8.7V156.3c0-4.8,2.5-8.7,5.6-8.7,11.3,0,35.3.5,46.2,0h28.9C109.3,147.6,111.9,151.5,111.9,156.3Z" />
    <path class="trd-color" d="M137.6,20V148a4.5,4.5,0,0,1-2,3.7c-1.6,1.7-8.6.5-10.6.9a4.8,4.8,0,0,1-4.8-4.7V37.3c.1-3-4.6-3.8-5.6-1,5.5,6.2,5.4,17.4-.2,23.5v87.9a4.9,4.9,0,0,1-2.3,4.1,5.4,5.4,0,0,1-2.8.8H28.4a5,5,0,0,1-5-4.9V59.5c-5.3-6.1-5.4-16.9-.2-23-.8-3-5.7-2.3-5.6.8V148.1c0,6.2-9.2,4.1-12.9,4.5a4.6,4.6,0,0,1-4.6-4.5V20A17.9,17.9,0,0,1,18,0H119.7A17.9,17.9,0,0,1,137.6,20Z" />
</svg>
