<svg xmlns="http://www.w3.org/2000/svg" viewBox="0 0 20.97 83.08">
    <rect x="4.37" y="78.01" width="5.07" height="5.07" rx="0.82" fill="#a78dc1"/>
    <rect x="11.53" y="78.01" width="5.07" height="5.07" rx="0.82" fill="#a78dc1"/>
    <path d="M17,38.1V79c0,.73-.39,1.33-.87,1.33H11.78c-.48,0-.87-.6-.87-1.33V50.62c0-.38-.21-.7-.46-.7s-.46.32-.46.7V79c0,.73-.38,1.33-.86,1.33H4.73c-.48,0-.87-.6-.87-1.33V38.1C3.86,37.37,17,37.37,17,38.1Z" fill="#9575b3"/>
    <path d="M15.05,39.9H5.89a2,2,0,0,1-2-2v-7c0-1.12,13.21-1.12,13.21,0v7A2,2,0,0,1,15.05,39.9Z" fill="#63472c"/>
    <path d="M20.69,44.52v2.13a.9.9,0,0,1-.9.9h-.26a.9.9,0,0,1-.9-.9v-.86l0,.13a.23.23,0,0,1-.22.21h-.06a.31.31,0,0,1-.16-.36L18.55,44a.24.24,0,0,1,.17-.2V36.47a9.75,9.75,0,0,0,1.94-.07v7.89A.91.91,0,0,1,20.69,44.52Z" fill="#63472c63472c"/>
    <path d="M2.7,46H2.64a.24.24,0,0,1-.22-.21l0-.14v.87a.9.9,0,0,1-.9.9H1.23a.9.9,0,0,1-.9-.9V44.37a.61.61,0,0,1,0-.15V36.44a11.32,11.32,0,0,0,1.93,0v7.19a.26.26,0,0,1,.19.21l.39,1.75A.31.31,0,0,1,2.7,46Z" fill="#63472c"/>
    <path d="M21,36.83a.68.68,0,0,1-.31.57,9.75,9.75,0,0,1-1.94.07.71.71,0,0,1-.41-.64V20a.45.45,0,0,0-.86-.16,2.81,2.81,0,0,1,0,3.58v13.4a.73.73,0,0,1-.35.62s-13.17,0-13.21,0a.72.72,0,0,1-.31-.6V23.34a2.82,2.82,0,0,1,0-3.5.46.46,0,0,0-.43-.3.44.44,0,0,0-.44.43V36.86a.66.66,0,0,1-.38.6,11.32,11.32,0,0,1-1.93,0A.67.67,0,0,1,0,36.86V16.91a2.69,2.69,0,0,1,2.73-2.64h15.5A2.7,2.7,0,0,1,21,16.91Z" fill="#7c5ea5"/>
    <path d="M10.5,38.35l0,.1h0a.1.1,0,0,1-.1-.11.1.1,0,0,1,.1-.1.11.11,0,0,1,.1.1Z" fill="#e7e6e6"/>
    <path d="M10.49,38.71l0,.09h0a.1.1,0,0,1-.1-.1.09.09,0,0,1,.1-.1.1.1,0,0,1,.1.1Z" fill="#e7e6e6"/>
    <path d="M16.7,9a1.33,1.33,0,0,1-1.47,1.38,3.87,3.87,0,0,1-4.05,2.39c-.06,1.1.36,2-1.21,1.86-.89,0-.56-1.34-.62-1.86a3.87,3.87,0,0,1-4-2.39c-1.59.12-2.27-2.48-.25-2.75.11-1.37-.35-4.62.52-5.77C6.74-.34,9.68,0,11.73,0c4.46.3,3.74,4.38,3.76,7.61C16.17,7.72,16.7,7.94,16.7,9Z" fill="#63472c"/>
</svg>
