<svg xmlns="http://www.w3.org/2000/svg" viewBox="0 0 2500 2500">
  <g>
  </g>
  <g>
    <path d="M2025.3,1640.9a6.5,6.5,0,0,0-3.1.8l-1.7-2.8c.2-.1.3-.2.3-.4a.5.5,0,0,0-.4-.5h-.5a1,1,0,0,0,.7-.9v-1.5h-.1a1.3,1.3,0,0,0,.1-.6h0v-.2l-.6-3.2-.7-4.4a.4.4,0,0,1-.1-.3,1.3,1.3,0,0,0-1.4-.8l-2,.4a1.2,1.2,0,0,0-1,1.4v.7l.4,2.2.3,1.7.5,3.1a2,2,0,0,0,.4.8h-1.3a.8.8,0,0,0-.8.8v2.2h-7.5l1-3.4h2.1c.2,0,.3-.2.3-.4h0a.3.3,0,0,0-.3-.3h-2.7v.2h0l-1.6,5.4h-.9a6.2,6.2,0,0,0-6.2,6.2,6.2,6.2,0,0,0,12.4,0,6.2,6.2,0,0,0-4.5-6l.3-1h7.7v6.2a1.4,1.4,0,0,0-.5,1.1,1.4,1.4,0,0,0,.7,1.2h0c0,.2.1.4.3.4h-.3a.5.5,0,0,0-.3.3h0a.3.3,0,0,0,.3.3h1.8a.3.3,0,0,0,.3-.3h0a.3.3,0,0,0-.3-.3h0c.1,0,.2-.2.2-.4v-.3a.5.5,0,0,0,.3-.5h2.2a6.2,6.2,0,1,0,6.2-7Zm-8.7-2.8h.6a.5.5,0,0,0-.2.4.4.4,0,0,0,.4.4h.5l-.2.5h-1.1Zm.9,2-.9,3.1v-3.1Zm1.6,7v.2H2017a1.3,1.3,0,0,0-.4-1v-.4l2-7h1.2l1.8,3.1A5.9,5.9,0,0,0,2019.1,1647.1Z"/>
    <path d="M2010.8,1635c-.2-.1-.7-.5-.7-.8s-1.5.6-1.1,1.2.7.4,1.1.1.8-.2.9-.4Z" fill="#63472c"/>
    <path d="M2018.5,1625.1a2,2,0,0,1-1.7.9h-.2v.6a.3.3,0,0,1-.3.3h-.3a.5.5,0,0,1-.3-.3v-.6h-.1a1.9,1.9,0,0,1-2-1.9,20.1,20.1,0,0,1,.1-2.4h0c.2-.1,1.9-1.3,2.2-1.2C2020.5,1621.9,2018.4,1625.1,2018.5,1625.1Z" fill="#63472c"/>
    <path d="M2015.3,1624.2a.3.3,0,0,1-.6,0A.3.3,0,0,1,2015.3,1624.2Z" fill="#1a1a1a"/>
    <path d="M2016.9,1623.7h.1a.6.6,0,0,1,.6.6v0a.5.5,0,0,1-.5.5h-.2a.1.1,0,0,1-.1-.1v-.8A.1.1,0,0,1,2016.9,1623.7Z" fill="#523722"/>
    <path d="M2021.6,1621.1a4,4,0,0,1-3,3.8c0,.3-.4.2-.3,0l.3-.4a1.1,1.1,0,0,0-2-.8c0,.1,0,.9-.3.5s-1.1-3.2-2.6-2.5C2012.8,1616.1,2021.5,1615.4,2021.6,1621.1Z" fill="#aeadad"/>
    <path d="M2015.6,1625.2c.1,0,0,.1,0,0S2015.6,1625.1,2015.6,1625.2Z" fill="#52361e"/>
  </g>
  <g>
    <path d="M1172.9,903.6a6.4,6.4,0,0,0-2.8.7l-1.5-2.5c.2-.1.3-.2.3-.4s-.2-.3-.4-.3h-.3a1.6,1.6,0,0,0,.9-1.4,1.4,1.4,0,0,0-.5-1.1c0-.1,0-.2-.1-.2v-.2h0V898l-.4-2.7-.6-3.9c0-.1-.1-.1-.1-.2a1,1,0,0,0-1.1-.7l-1.6.3a1.1,1.1,0,0,0-.8,1h-.2a1.8,1.8,0,0,0-.6,2.5,1.5,1.5,0,0,0,1.3.7l.2.9.4,2.8a.8.8,0,0,0,.2.4v.3h-1.4a.8.8,0,0,0-.7.8v1.9h-6.7l.8-3h2a.3.3,0,0,0,.3-.3h0a.3.3,0,0,0-.3-.3h-2.6l-1.4,4.8h-.8a5.6,5.6,0,1,0,1.5.2l.3-.9h6.9v5.5a2.1,2.1,0,0,0-.4,1,1.4,1.4,0,0,0,.6,1.2h0c0,.2.1.4.3.4h-.3a.3.3,0,0,0-.3.3h0c0,.1.2.2.3.2h1.6c.2,0,.3-.1.3-.2h0a.3.3,0,0,0-.3-.3h0c.1,0,.2-.2.2-.4v-.2l.3-.5h2a5.5,5.5,0,0,0,5.5,4.9,5.6,5.6,0,0,0,0-11.2Zm-7.8-2.5h.5a.4.4,0,0,0,.3.7h.3v.4h-1Zm.8,1.8-.8,2.8v-2.8Zm-.4,6.5a1,1,0,0,0-.4-.9v-.4l1.8-6.3h1l1.7,2.8a5.4,5.4,0,0,0-2.3,4.5v.2Z"/>
    <path d="M1159.3,897.6l-.9.5c-.7.5.3,1.3.9.7s.7-.2.8-.4S1159.3,897.9,1159.3,897.6Z" fill="#8b6f54"/>
    <path d="M1167.2,885.8h-.4c0-.1,0-.1-.1-.1h-.1a.1.1,0,0,0-.1-.1h-2.6l-.4.2a1.7,1.7,0,0,0-.5,1.2v2.2a1.5,1.5,0,0,0,1.4,1.5h.2v.4a.5.5,0,0,0,.3.3h.2l.3-.2h.3v1.6a.2.2,0,1,0,.4,0v-1.7h.2v1.8a.2.2,0,0,0,.2.2h0a.2.2,0,0,0,.2-.2v-2.6l.2-.2h0v2.6c0,.2.1.3.2.3s.2-.1.2-.3v-6.3A.1.1,0,0,0,1167.2,885.8Zm-1.5,4.8h-.3v-.4h.3v.4Zm.6-.2h-.2v-.4c.1,0,.2,0,.2-.1h0v.4Z" fill="#f0b225"/>
  </g>
  <g>
    <path d="M1508.5,1559.9a5.2,5.2,0,0,0-3,.8l-1.6-2.7a.5.5,0,0,0,.3-.4h0a.4.4,0,0,0-.4-.4h-.4a1.1,1.1,0,0,0,.5-.9v-1.5h0a.7.7,0,0,0,.1-.5h0v-.2l-.6-2.9-.7-4.3a.4.4,0,0,0-.1-.3,1.1,1.1,0,0,0-1.3-.7l-1.9.3a1.2,1.2,0,0,0-1,1.4v.6l.4,2.1.3,1.6.5,3.1a2.5,2.5,0,0,0,.4.7h-1.3a.7.7,0,0,0-.7.7v2.1h-7.2l.9-3.2h2a.4.4,0,0,0,.4-.3h0a.4.4,0,0,0-.4-.3h-2.5c-.1,0-.1,0-.1.1h0l-1.5,5.2h-.9a5.9,5.9,0,0,0-6,5.9,6,6,0,0,0,6,6,6,6,0,0,0,1.6-11.7l.3-.9h7.4v5.8a1.6,1.6,0,0,0-.5,1.1,1.7,1.7,0,0,0,.6,1.2h0l.3.4h-.2a.3.3,0,0,0-.3.3h0a.3.3,0,0,0,.3.3h1.7a.3.3,0,0,0,.3-.3h0a.3.3,0,0,0-.3-.3h-.1a.5.5,0,0,0,.3-.4v-.3l.3-.5h2.1a6,6,0,0,0,5.9,5.2,5.9,5.9,0,0,0,5.9-6A5.8,5.8,0,0,0,1508.5,1559.9Zm-8.3-2.7h.5c-.1.1-.1.2-.1.4h0a.4.4,0,0,0,.4.4h.4l-.2.4h-1Zm.8,2-.8,2.9v-2.9Zm-.4,6.8a1.5,1.5,0,0,0-.4-.9v-.5l1.9-6.6h1.1l1.7,2.9a6.3,6.3,0,0,0-2.4,4.8v.2Z"/>
    <path d="M1494,1553.5l-1,.5c-.7.6.4,1.4,1,.8s-.2.1-.1.2h0c.1.2.8-.6.9-.6S1493.9,1553.8,1494,1553.5Z" fill="#63472c"/>
    <path d="M1501.8,1541.8v2.4a1.5,1.5,0,0,1-1.5,1.5h-.3v.4a.3.3,0,0,1-.3.3h-.2a.3.3,0,0,1-.3-.3v-.4h-.2a1.5,1.5,0,0,1-1.5-1.5v-2.4a1.5,1.5,0,0,1,1.5-1.5h1.3A1.5,1.5,0,0,1,1501.8,1541.8Z" fill="#63472c"/>
    <path d="M1499,1543.8a.3.3,0,0,1-.5,0A.3.3,0,0,1,1499,1543.8Z" fill="#1a1a1a"/>
    <path d="M1500.8,1543.8c.1.4-.5.7-.6.4v-.7C1500.3,1543.2,1500.9,1543.5,1500.8,1543.8Z" fill="#523722"/>
    <path d="M1501.5,1541.7c-.2-1-1.2-1.3-2.5-.3s.1,2.1.2,1.9.3.9.8-.2C1500.7,1543.7,1501.7,1542.7,1501.5,1541.7Z" fill="#d1b197"/>
    <path d="M1499.1,1545.5c-.1-.2.2-.3.2-.1Z" fill="#d1b197"/>
    <path d="M1498.3,1542.5c-.2-.1-.2.2,0,.2S1498.5,1542.5,1498.3,1542.5Z" fill="#d1b197"/>
    <path d="M1502.9,1544.7h0c.1-.1.2-.2.1-.2l-.7-1.2v-.3h0a2.5,2.5,0,0,0-1.5-2.6,3.5,3.5,0,0,0-2.4-.2c-.1.1-.2.2-.1.2l.2.2a3.1,3.1,0,0,1,2.1.1,2,2,0,0,1,1.2,1.2,2.7,2.7,0,0,0-1.1-1,3,3,0,0,0-2.2-.2.4.4,0,0,0-.1.3h.2a2.8,2.8,0,0,1,2,.1l.4.3h-.1a3,3,0,0,0-2.2-.2c-.1,0-.1.1-.1.2s.1.2.2.1a3,3,0,0,1,2,.2,2.2,2.2,0,0,1,.9,1h.1a2.2,2.2,0,0,0-1-.9,3.1,3.1,0,0,0-1.8-.2c0,.1-.1.1-.1.2h.2a2.3,2.3,0,0,1,1.6.1,1,1,0,0,1,.6.5l-.6-.3a2.1,2.1,0,0,0-1.4,0c-.1,0-.2.1-.1.1h1.4a1.8,1.8,0,0,1,1,.9.4.4,0,0,1,.1.3h0l-.9,2a.4.4,0,0,0,.1.3h.2l.4-.7-.3.7a.2.2,0,0,0,.2.2h0c.1,0,.2,0,.2-.1l.2-.6v.7a.2.2,0,0,0,.2.2h0l.2-.2v0h.2a.2.2,0,0,0,.2-.2v-.5c0,.1.1.1.2.1h0c.1,0,.2-.1.1-.2l-.2-.9h0C1502.7,1544.7,1502.8,1544.7,1502.9,1544.7Z" fill="#141414"/>
  </g>
  <g>
    <path d="M783.3,1057.8a7.4,7.4,0,0,0-3.3.9l-1.7-2.9a.5.5,0,0,0,.3-.4h0a.5.5,0,0,0-.4-.5h-.5a1,1,0,0,0,.7-1v-1.6h-.1a.7.7,0,0,0,.1-.5h0v-.2l-.6-3.2-.8-4.7a.4.4,0,0,0-.1-.3,1.3,1.3,0,0,0-1.4-.8l-2.1.4a1.3,1.3,0,0,0-1.1,1.5l.2.7.4,2.3.3,1.7.6,3.3a1.2,1.2,0,0,0,.4.8h-1.4a.8.8,0,0,0-.9.8v2.3h-7.8l1-3.5h2.3a.4.4,0,0,0,.3-.4h0a.4.4,0,0,0-.3-.4h-3l-1.6,5.7h-1a6.5,6.5,0,1,0,6.5,6.5,6.5,6.5,0,0,0-4.7-6.2l.3-1h8v6.4a1.7,1.7,0,0,0,.3,2.5h0a.8.8,0,0,0,.2.5h-.2a.3.3,0,0,0-.3.3h0a.3.3,0,0,0,.3.3H774a.3.3,0,0,0,.3-.3h0a.3.3,0,0,0-.3-.3h0a.9.9,0,0,0,.3-.5v-.3l.3-.5h2.3a6.4,6.4,0,0,0,6.4,5.6,6.5,6.5,0,0,0,0-13Zm-9-2.8h.6a.5.5,0,0,0-.2.4h0a.4.4,0,0,0,.4.4h.5l-.2.5h-1.1Zm.9,2.1-.9,3.2v-3.2Zm-.5,7.5a2.1,2.1,0,0,0-.4-1.1v-.5l2-7.2h1.2l1.9,3.2a6.5,6.5,0,0,0-2.6,5.2v.3Z" fill="#425aa5"/>
    <path d="M767.5,1051c-.4.2-1.6.5-1.2,1.2s.8.4,1.2.1-.2.2-.1.3h0c.2.2.9-.6,1-.7S767.5,1051.3,767.5,1051Z" fill="#63472c"/>
    <path d="M776.6,1037.4c0-.3-5.3-.7-5.3,0h0v2.9a1.8,1.8,0,0,0,1.8,1.8h.3v.5a.4.4,0,0,0,.4.4h.2a.4.4,0,0,0,.4-.4v-.5h.4a1.9,1.9,0,0,0,1.6-.9,2.9,2.9,0,0,0,.2-.9h0v-2.9Z" fill="#63472c"/>
    <path d="M773.2,1039.9a.3.3,0,0,1-.3.3.3.3,0,0,1-.3-.3.3.3,0,0,1,.3-.3A.5.5,0,0,1,773.2,1039.9Z" fill="#1a1a1a"/>
    <path d="M776.6,1037.6h0v2.8h0l-3.2-2.5-1.4-1.1.9-.9h2.7l.3.2a1,1,0,0,1,.5.6.8.8,0,0,1,.2.7Z" fill="#4e4d4d"/>
    <path d="M778,1035.1c-.2-.5-.8,0-1.1.1s.8-.7.4-1-.8.2-1,.5.6-.9,0-1.1-.6.5-.7.7.4-1-.2-1-.5.6-.6.8v-.6c0-.5-.8-.4-.8.1a13.6,13.6,0,0,0,.2,2c-1.2-.2-2.9.3-2.8,1.8a9.5,9.5,0,0,0,5.3,0,1.3,1.3,0,0,0-.2-.9C776.6,1036.2,778.4,1035.6,778,1035.1Z"/>
    <path d="M775.4,1039.9c.1.4-.6.9-.8.5s-.1-1,.1-1A.5.5,0,0,1,775.4,1039.9Z" fill="#523722"/>
  </g>
</svg>
