<svg xmlns="http://www.w3.org/2000/svg" viewBox="0 0 10.436 10.983">
    <g>
      <circle cx="3.19" cy="5.448" r="0.065" fill="#ead5c5"/>
      <circle cx="0.963" cy="4.991" r="0.065" fill="#ead5c5"/>
      <circle cx="1.248" cy="4.792" r="0.065" fill="#ead5c5"/>
      <circle cx="1.589" cy="4.991" r="0.065" fill="#ead5c5"/>
      <circle cx="1.844" cy="4.679" r="0.065" fill="#ead5c5"/>
      <circle cx="2.497" cy="4.792" r="0.065" fill="#ead5c5"/>
      <circle cx="2.837" cy="4.991" r="0.065" fill="#ead5c5"/>
      <circle cx="3.25" cy="5.02" r="0.065" fill="#ead5c5"/>
      <circle cx="0.963" cy="5.849" r="0.065" fill="#ead5c5"/>
      <circle cx="1.248" cy="5.65" r="0.065" fill="#ead5c5"/>
      <circle cx="2.502" cy="5.251" r="0.065" fill="#ead5c5"/>
      <circle cx="2.185" cy="5.849" r="0.065" fill="#ead5c5"/>
      <circle cx="2.497" cy="5.65" r="0.065" fill="#ead5c5"/>
      <circle cx="2.837" cy="5.849" r="0.065" fill="#ead5c5"/>
      <circle cx="2.106" cy="4.448" r="0.065" fill="#ead5c5"/>
      <circle cx="2.392" cy="4.249" r="0.065" fill="#ead5c5"/>
    </g>
    <path d="M2.355,5.171a.279.279,0,1,1-.279-.278A.279.279,0,0,1,2.355,5.171Z" fill="#1a1a1a"/>
    <polygon points="3.941 5.461 3.937 5.462 3.937 5.45 3.941 5.461" fill="#de9652"/>
    <path d="M10.006,9.078a.908.908,0,0,0,.29-.655,1.018,1.018,0,0,0-.777-.937.934.934,0,0,0,.343-.708,1.087,1.087,0,0,0-1.072-1,.981.981,0,0,0,.324-.715,1.089,1.089,0,0,0-.8-1,.951.951,0,0,0,.369-.737A1.121,1.121,0,0,0,7.479,2.3a1.374,1.374,0,0,0-.194.013c0-.024,0-.048,0-.073A1.428,1.428,0,0,0,5.853.928a1.119,1.119,0,0,0-1-.552A1.245,1.245,0,0,0,4.4.466,1.114,1.114,0,0,0,3.517,0a1.115,1.115,0,0,0-.862.437A1.027,1.027,0,0,0,2.263.346a1.148,1.148,0,0,0-1.009.7.954.954,0,0,0-.85.982,1.107,1.107,0,0,0,.023.128A.861.861,0,0,0,0,2.926a.8.8,0,0,0,.735.85.687.687,0,0,0,.531-.268.748.748,0,0,0,.593.268A.821.821,0,0,0,2.3,3.645a.856.856,0,0,0,.333.245.869.869,0,0,0,.881-.16.661.661,0,0,0,.173.046.657.657,0,0,0,.2-.054l.024.945h.044a.458.458,0,0,1,.112.013.45.45,0,0,1,.121.045.488.488,0,0,1,.226.254.432.432,0,0,1,.028.1.425.425,0,0,1,.007.08v.113a.451.451,0,0,1-.227.392.333.333,0,0,1-.05.025A.446.446,0,0,1,4,5.726H3.944l.012.456v.055l0,.118v.012a.555.555,0,0,0-.271.566c0,.025.009.045.012.069l-.006,0a1.325,1.325,0,0,0-.64,1.179,1.84,1.84,0,0,0,.037.324,2.449,2.449,0,0,0,.114.386,1.1,1.1,0,0,0,.049.115l.005.009a1.206,1.206,0,0,0-.292.783,1.145,1.145,0,0,0,.952,1.148v.022c.021,0,.04-.007.061-.009a.841.841,0,0,0,.1.021,1.071,1.071,0,0,0,.837-.428,1.118,1.118,0,0,0,1.8-.079,1.062,1.062,0,0,0,.93.495,1.035,1.035,0,0,0,.979-.6,1.117,1.117,0,0,0,.778.3.968.968,0,0,0,1.035-.882A.85.85,0,0,0,10.006,9.078Z" fill="#4e4d4d"/>
    <path d="M4.455,5.16v.113a.451.451,0,0,1-.227.392.333.333,0,0,1-.05.025A.446.446,0,0,1,4,5.726H3.809a.1.1,0,0,1-.03,0,.326.326,0,0,1,.158-.26h0l0-.011-.014-.04a.357.357,0,0,0-.194.286A.123.123,0,0,1,3.686,5.6V4.79a.123.123,0,0,1,.123-.123h.152a.458.458,0,0,1,.112.013.45.45,0,0,1,.121.045.488.488,0,0,1,.226.254.432.432,0,0,1,.028.1A.425.425,0,0,1,4.455,5.16Z" fill="#e5c9b2"/>
    <path d="M4.246,5.819c0,.235-.116.42-.264.42l-.025,0c-.136-.019-.239-.2-.239-.418A.7.7,0,0,1,3.729,5.7a.357.357,0,0,1,.194-.286l.014.04,0,.011h0a.326.326,0,0,0-.158.26.614.614,0,0,0-.008.1c0,.183.082.34.185.363a.109.109,0,0,0,.026,0c.114,0,.21-.168.21-.366a.6.6,0,0,0-.014-.129.333.333,0,0,0,.05-.025A.649.649,0,0,1,4.246,5.819Z" fill="#e7e6e6"/>
</svg>
