<svg xmlns="http://www.w3.org/2000/svg" viewBox="0 0 5.77 12.259">
    <path d="M4.074,4.134a.284.284,0,0,0,.567,0A.284.284,0,0,0,4.074,4.134Z" fill="#1a1a1a"/>
    <path d="M4.108.011c-.814.035-2.24-.2-2.824.517C.69-.432-.315.849.276,1.55A.979.979,0,0,0,.2,2.524.971.971,0,0,0,.168,3.663.965.965,0,0,0,.232,4.835a.789.789,0,0,0,.028.788.78.78,0,0,0,0,.9A.978.978,0,0,0,.291,7.581.967.967,0,0,0,.354,8.753a.791.791,0,0,0,.029.789.759.759,0,0,0,.123,1.02.507.507,0,0,0,.006.527.479.479,0,0,0,.128.674c-.317.645.527.676.227.008a.473.473,0,0,0,.156-.668.507.507,0,0,0,.009-.552.761.761,0,0,0,.134-.977.786.786,0,0,0,.043-.837.951.951,0,0,0,.079-1.1,2.479,2.479,0,0,0,.368-1.525,1.835,1.835,0,0,0,.3.143,18.852,18.852,0,0,0,.884-2.594c.289.284.511-.334.275-.517a.454.454,0,0,0,.188-.356A2.827,2.827,0,0,0,5.77,1.145,1.785,1.785,0,0,0,4.108.011Z" fill="#010101"/>
    <path d="M2.139,4.387c-.014.5.755.878.784.451.013-.183.12-.98-.126-.954A.54.54,0,0,0,2.139,4.387Z" fill="#8f715b"/>
</svg>
