<svg xmlns="http://www.w3.org/2000/svg" viewBox="0 0 2500 2500">
  <rect x="1.69" y="3.2" width="2500" height="2500" fill="#2b4e83"/>
  <g>
    <rect x="1247.43" y="-2.7" width="1250" height="1250" fill="none" stroke="#000" stroke-miterlimit="10" stroke-dasharray="12"/>
    <rect x="-2.57" y="1247.3" width="1250" height="1250" fill="none" stroke="#000" stroke-miterlimit="10" stroke-dasharray="12"/>
    <rect x="-2.57" y="-2.7" width="1250" height="1250" fill="none" stroke="#000" stroke-miterlimit="10" stroke-dasharray="12"/>
  </g>
  <g>
    <g>
      <line x1="1787.26" y1="1321.59" x2="1790.76" y2="1321.59" fill="none" stroke="#fff" stroke-linecap="round" stroke-miterlimit="10"/>
      <line x1="1797.97" y1="1321.59" x2="1996.28" y2="1321.59" fill="none" stroke="#fff" stroke-linecap="round" stroke-miterlimit="10" stroke-dasharray="7.21 7.21"/>
      <line x1="1999.88" y1="1321.59" x2="2003.38" y2="1321.59" fill="none" stroke="#fff" stroke-linecap="round" stroke-miterlimit="10"/>
    </g>
    <g>
      <line x1="1895.06" y1="1271.83" x2="1895.06" y2="1275.33" fill="none" stroke="#fff" stroke-linecap="round" stroke-miterlimit="10"/>
      <line x1="1895.06" y1="1282.46" x2="1895.06" y2="1435.66" fill="none" stroke="#fff" stroke-linecap="round" stroke-miterlimit="10" stroke-dasharray="7.13 7.13"/>
      <line x1="1895.06" y1="1439.23" x2="1895.06" y2="1442.73" fill="none" stroke="#fff" stroke-linecap="round" stroke-miterlimit="10"/>
    </g>
    <g>
      <line x1="1899.63" y1="1504.26" x2="1902.88" y2="1502.96" fill="none" stroke="#fff" stroke-linecap="round" stroke-miterlimit="10"/>
      <line x1="1909.55" y1="1500.29" x2="2013.01" y2="1458.9" fill="none" stroke="#fff" stroke-linecap="round" stroke-miterlimit="10" stroke-dasharray="7.19 7.19"/>
      <line x1="2016.35" y1="1457.57" x2="2019.6" y2="1456.27" fill="none" stroke="#fff" stroke-linecap="round" stroke-miterlimit="10"/>
    </g>
    <g>
      <line x1="2019.93" y1="1418.77" x2="2019.93" y2="1422.27" fill="none" stroke="#fff" stroke-linecap="round" stroke-miterlimit="10"/>
      <line x1="2019.93" y1="1428.37" x2="2019.93" y2="1449.72" fill="none" stroke="#fff" stroke-linecap="round" stroke-miterlimit="10" stroke-dasharray="6.1 6.1"/>
      <line x1="2019.93" y1="1452.77" x2="2019.93" y2="1456.27" fill="none" stroke="#fff" stroke-linecap="round" stroke-miterlimit="10"/>
    </g>
    <g>
      <line x1="2113.32" y1="1671.52" x2="2111.93" y2="1668.31" fill="none" stroke="#fff" stroke-linecap="round" stroke-miterlimit="10"/>
      <line x1="2109.18" y1="1661.98" x2="2022.69" y2="1462.64" fill="none" stroke="#fff" stroke-linecap="round" stroke-miterlimit="10" stroke-dasharray="6.9 6.9"/>
      <line x1="2021.32" y1="1459.48" x2="2019.93" y2="1456.27" fill="none" stroke="#fff" stroke-linecap="round" stroke-miterlimit="10"/>
    </g>
    <g>
      <line x1="2010.19" y1="1460.03" x2="2010.19" y2="1463.53" fill="none" stroke="#fff" stroke-linecap="round" stroke-miterlimit="10"/>
      <line x1="2010.19" y1="1470.77" x2="2010.19" y2="1640.83" fill="none" stroke="#fff" stroke-linecap="round" stroke-miterlimit="10" stroke-dasharray="7.24 7.24"/>
      <line x1="2010.19" y1="1644.45" x2="2010.19" y2="1647.95" fill="none" stroke="#fff" stroke-linecap="round" stroke-miterlimit="10"/>
    </g>
    <g>
      <line x1="1983.01" y1="1647.95" x2="1986.51" y2="1647.95" fill="none" stroke="#fff" stroke-linecap="round" stroke-miterlimit="10"/>
      <line x1="1993.86" y1="1647.95" x2="2049.03" y2="1647.95" fill="none" stroke="#fff" stroke-linecap="round" stroke-miterlimit="10" stroke-dasharray="7.36 7.36"/>
      <line x1="2052.71" y1="1647.95" x2="2056.21" y2="1647.95" fill="none" stroke="#fff" stroke-linecap="round" stroke-miterlimit="10"/>
    </g>
    <g>
      <line x1="1871.68" y1="1428.25" x2="1875.18" y2="1428.25" fill="none" stroke="#fff" stroke-linecap="round" stroke-miterlimit="10"/>
      <line x1="1882.23" y1="1428.25" x2="1991.61" y2="1428.25" fill="none" stroke="#fff" stroke-linecap="round" stroke-miterlimit="10" stroke-dasharray="7.06 7.06"/>
      <line x1="1995.14" y1="1428.25" x2="1998.64" y2="1428.25" fill="none" stroke="#fff" stroke-linecap="round" stroke-miterlimit="10"/>
    </g>
    <g>
      <line x1="1822.53" y1="1281.5" x2="1826.03" y2="1281.5" fill="none" stroke="#fff" stroke-linecap="round" stroke-miterlimit="10"/>
      <line x1="1834.51" y1="1281.5" x2="1847.23" y2="1281.5" fill="none" stroke="#fff" stroke-linecap="round" stroke-miterlimit="10" stroke-dasharray="8.48 8.48"/>
      <line x1="1851.47" y1="1281.5" x2="1854.97" y2="1281.5" fill="none" stroke="#fff" stroke-linecap="round" stroke-miterlimit="10"/>
    </g>
    <g>
      <line x1="1854.97" y1="1281.5" x2="1857.45" y2="1283.97" fill="none" stroke="#fff" stroke-linecap="round" stroke-miterlimit="10"/>
      <line x1="1862.57" y1="1289.09" x2="1993.14" y2="1419.67" fill="none" stroke="#fff" stroke-linecap="round" stroke-miterlimit="10" stroke-dasharray="7.24 7.24"/>
      <line x1="1995.71" y1="1422.23" x2="1998.18" y2="1424.71" fill="none" stroke="#fff" stroke-linecap="round" stroke-miterlimit="10"/>
    </g>
    <g>
      <line x1="1959.78" y1="1634.46" x2="1963.28" y2="1634.46" fill="none" stroke="#fff" stroke-linecap="round" stroke-miterlimit="10"/>
      <line x1="1970.12" y1="1634.46" x2="2089.88" y2="1634.46" fill="none" stroke="#fff" stroke-linecap="round" stroke-miterlimit="10" stroke-dasharray="6.84 6.84"/>
      <line x1="2093.3" y1="1634.46" x2="2096.8" y2="1634.46" fill="none" stroke="#fff" stroke-linecap="round" stroke-miterlimit="10"/>
    </g>
    <g>
      <line x1="1983.01" y1="1647.95" x2="1983.01" y2="1651.45" fill="none" stroke="#fff" stroke-linecap="round" stroke-miterlimit="10"/>
      <line x1="1983.01" y1="1659.44" x2="1983.01" y2="1687.42" fill="none" stroke="#fff" stroke-linecap="round" stroke-miterlimit="10" stroke-dasharray="7.99 7.99"/>
      <line x1="1983.01" y1="1691.42" x2="1983.01" y2="1694.92" fill="none" stroke="#fff" stroke-linecap="round" stroke-miterlimit="10"/>
    </g>
    <g>
      <line x1="2056.52" y1="1647.95" x2="2056.52" y2="1651.45" fill="none" stroke="#fff" stroke-linecap="round" stroke-miterlimit="10"/>
      <line x1="2056.52" y1="1658.65" x2="2056.52" y2="1727.05" fill="none" stroke="#fff" stroke-linecap="round" stroke-miterlimit="10" stroke-dasharray="7.2 7.2"/>
      <line x1="2056.52" y1="1730.65" x2="2056.52" y2="1734.15" fill="none" stroke="#fff" stroke-linecap="round" stroke-miterlimit="10"/>
    </g>
    <line x1="1895.06" y1="1509.86" x2="1895.06" y2="1561.93" fill="none" stroke="#fff" stroke-linecap="round" stroke-miterlimit="10" stroke-dasharray="7"/>
  </g>
</svg>
