<svg xmlns="http://www.w3.org/2000/svg" viewBox="0 0 62.3 65.3">
    <rect x="7.1" y="19" width="47" height="45.18" rx="4.7" fill="#aa8b7a"/>
    <path d="M27.1,44.4h8.1a5.4,5.4,0,0,1,5.4,5.4V64.2a0,0,0,0,1,0,0h-19a0,0,0,0,1,0,0V49.8A5.4,5.4,0,0,1,27.1,44.4Z" fill="#70594e"/>
    <path d="M60.8,23.1H1.5A1.7,1.7,0,0,1,.4,20.3l13.1-16a1.7,1.7,0,0,1,1.3-.7H47.5a1.7,1.7,0,0,1,1.3.7l13.1,16A1.7,1.7,0,0,1,60.8,23.1Z" fill="#80665c"/>
    <rect x="42.7" width="5.9" height="13.64" rx="2" fill="#977d6c"/>
    <path d="M55.8,38.4v1.5a1.1,1.1,0,0,1-1.1,1H48.6a1,1,0,0,0-1.1,1V63.1a1,1,0,0,1-1,1.1h-2a1.1,1.1,0,0,1-1.1-1.1V41.9a.9.9,0,0,0-1-1H20.1a.9.9,0,0,0-1,1V63.1a1.1,1.1,0,0,1-1,1.1H16a1,1,0,0,1-1-1.1V41.9a1,1,0,0,0-1.1-1H6.7a1.1,1.1,0,0,1-1-1V38.4a1,1,0,0,1,1-1h48A1,1,0,0,1,55.8,38.4Z" fill="#fff"/>
    <rect x="6.7" y="63.1" width="47.8" height="2.17" rx="0.8" fill="#80665c"/>
</svg>
