<svg xmlns="http://www.w3.org/2000/svg" viewBox="0 0 30.6 41.7">
  <path d="M28.2,24.5a2.1,2.1,0,0,0-2.1,2.1,1.6,1.6,0,0,0,.3.9l-4.5,3.2,6-13.3h.7a2,2,0,0,0,2-2,2,2,0,0,0-2-2.1,2.1,2.1,0,0,0-2.1,2.1,2.2,2.2,0,0,0,.9,1.7l-10.3,23V16.1l2.8-5.5h.8a2,2,0,0,0,2-2,2,2,0,0,0-2-2.1,2,2,0,0,0-1.1,3.8l-2.5,4.8V4.1a2.1,2.1,0,0,0,1.9-2A2.1,2.1,0,0,0,16.9,0a2,2,0,0,0-2,2.1,2,2,0,0,0,1.7,2V23.9l-4.1-8a1.9,1.9,0,0,0,.9-1.7,2,2,0,0,0-2-2,2,2,0,0,0-2.1,2,2.1,2.1,0,0,0,2.1,2.1h.7l4.4,8.7a.1.1,0,0,0,.1.1V40.3L3,13.7a1.9,1.9,0,0,0,1.1-1.8,2.1,2.1,0,0,0-2-2.1,2.1,2.1,0,0,0,0,4.2h.4l8.9,17.4L6.7,28.1a1.7,1.7,0,0,0,.3-1,2,2,0,0,0-2.1-2,2,2,0,0,0-2,2,2,2,0,0,0,2,2.1,2,2,0,0,0,1.5-.7l5.5,3.8,4.6,9.1h.1a.2.2,0,0,0,.2.2c.2,0,.3-.1.3-.2s0-.1.1-.1l4.3-9.8h.1L26.7,28a2,2,0,0,0,1.5.6,2.1,2.1,0,1,0,0-4.1Z" fill="#fff"/>
</svg>
