<svg xmlns="http://www.w3.org/2000/svg" viewBox="0 0 79.4 58">
    <rect x="5.1" y="20" width="39.3" height="37.82" rx="3.9" fill="#977d6c"/>
    <path d="M38.7,19.4H70.2a3.9,3.9,0,0,1,3.9,3.9V57.3a0,0,0,0,1,0,0H38.7a3.9,3.9,0,0,1-3.9-3.9v-30A3.9,3.9,0,0,1,38.7,19.4Z" fill="#aa8b7a"/>
    <path d="M58.8,2.6,43.3,22.8V23H2.6A2.6,2.6,0,0,1,.8,18.5l17-16.6A6.7,6.7,0,0,1,22.2.1H55.6l.7.4Z" fill="#70594e"/>
    <path d="M77.2,23.1H32.6a2.2,2.2,0,0,1-1.4-3.9L53.5.5l.7-.4h1.4l.7.4,2.5,2.1L78.6,19.2A2.2,2.2,0,0,1,77.2,23.1Z" fill="#80665c"/>
    <rect x="38" y="3.5" width="4.9" height="11.21" rx="1.7" fill="#977d6c"/>
    <path d="M73.8,55.5H71.3V44.3a4.6,4.6,0,0,0-4.6-4.5H59.9a4.5,4.5,0,0,0-4.5,4.5V55.5H35.5a.7.7,0,0,0-.7.7v.4a.7.7,0,0,0,.7.7H73.8a.7.7,0,0,0,.7-.7v-.4A.7.7,0,0,0,73.8,55.5Z" fill="#70594e"/>
    <path d="M39.2,32.8h5.2V43H40.7a1.4,1.4,0,0,1-1.5-1.2Z" fill="#80665c"/>
    <path d="M50.9,32.8v9A1.5,1.5,0,0,1,49.3,43H45.6V32.8Z" fill="#80665c"/>
    <path d="M40.7,27.9h3.7V32H39.2V29.1A1.4,1.4,0,0,1,40.7,27.9Z" fill="#80665c"/>
    <path d="M50.9,29.1V32H45.6V27.9h3.7C50.2,27.9,50.9,28.4,50.9,29.1Z" fill="#80665c"/>
    <path d="M51.4,46.8c.6,0,1.2-.4,1.2-.8V44.7c0-.5-.6-.8-1.2-.8H2.9c-.7,0-1.2.3-1.2.8V46c0,.4.5.8,1.2.8H4.2v8.3H2.9c-.7,0-1.2.3-1.2.8v1.3c0,.4.5.8,1.2.8H51.4c.6,0,1.2-.4,1.2-.8V55.9c0-.5-.6-.8-1.2-.8H50.1V46.8Zm-42.8,0h3.9v8.3H8.6Zm8.3,0h3.9v8.3H16.9Zm8.3,0h3.9v8.3H25.2Zm8.3,0h3.9v8.3H33.5Zm12.2,8.3H41.8V46.8h3.9Z" fill="#fff"/>
    <path d="M8.6,32h5.2V42.1H10.1c-.8,0-1.5-.5-1.5-1.1Z" fill="#aa8b7a"/>
    <path d="M20.2,32v9c0,.6-.6,1.1-1.5,1.1H15V32Z" fill="#aa8b7a"/>
    <path d="M10.1,27.1h3.7v4.1H8.6V28.3A1.4,1.4,0,0,1,10.1,27.1Z" fill="#aa8b7a"/>
    <path d="M20.2,28.3v2.9H15V27.1h3.7C19.6,27.1,20.2,27.6,20.2,28.3Z" fill="#aa8b7a"/>
    <path d="M71.9,21.2H39.6a1.6,1.6,0,0,1-1-2.9L54.7,4.7l.5-.3a1.1,1.1,0,0,1,1.1,0c.2,0,.3.1.5.3l1.8,1.5L73,18.3A1.7,1.7,0,0,1,71.9,21.2Z" fill="#aa8b7a"/>
</svg>
