<svg xmlns="http://www.w3.org/2000/svg" viewBox="0 0 746.8 233.8">
    <path d="M46.9,22.7H11.4A3.5,3.5,0,0,0,7.9,26V83.1c0,1.9,7,1.9,7,0V29h30Z" fill="#fdd961"/>
    <rect y="46.7" width="20" height="56" rx="7.8" fill="#ffe18d"/>
    <rect x="37.8" y="136.8" width="687.4" height="53.55" rx="9.6" fill="#fdd961"/>
    <path d="M83.3,0H724a13.9,13.9,0,0,1,13.9,13.9V158.7A13.9,13.9,0,0,1,724,172.5H39a13.9,13.9,0,0,1-13.9-13.9V58.2A58.2,58.2,0,0,1,83.3,0Z" fill="#e5bf55"/>
    <rect x="575.1" y="23.7" width="84.7" height="90.11" rx="10.5" fill="#ffe18d"/>
    <path d="M659.8,34.2V66.9H575.1V34.2a10.5,10.5,0,0,1,10.5-10.5h63.7A10.5,10.5,0,0,1,659.8,34.2Z" fill="#fdd961"/>
    <rect x="482.6" y="23.7" width="84.7" height="90.11" rx="10.5" fill="#ffe18d"/>
    <path d="M567.3,34.2V66.9H482.6V34.2a10.5,10.5,0,0,1,10.5-10.5h63.7A10.5,10.5,0,0,1,567.3,34.2Z" fill="#fdd961"/>
    <rect x="222.5" y="23.7" width="84.7" height="90.11" rx="10.5" fill="#ffe18d"/>
    <path d="M307.2,34.2V66.9H222.5V34.2A10.5,10.5,0,0,1,233,23.7h63.7A10.5,10.5,0,0,1,307.2,34.2Z" fill="#fdd961"/>
    <rect x="129.8" y="23.7" width="84.7" height="90.11" rx="10.5" fill="#ffe18d"/>
    <path d="M214.5,34.2V66.9H129.8V34.2a10.5,10.5,0,0,1,10.5-10.5H204A10.5,10.5,0,0,1,214.5,34.2Z" fill="#fdd961"/>
    <rect x="648.5" y="117.8" width="98.3" height="41.88" rx="20.9" fill="#fdd961"/>
    <circle cx="187.7" cy="190.4" r="43.4" fill="#ffe18d"/>
    <circle cx="187.7" cy="190.5" r="30.8" fill="#fdd961"/>
    <circle cx="584.3" cy="190.4" r="43.4" fill="#ffe18d"/>
    <circle cx="584.3" cy="190.5" r="30.8" fill="#fdd961"/>
    <path d="M343.9,26.2h33.4a16,16,0,0,1,16,16V172.5a0,0,0,0,1,0,0H327.9a0,0,0,0,1,0,0V42.2A16,16,0,0,1,343.9,26.2Z" fill="#ffe18d"/>
    <path d="M412.4,26.2h33.4a16,16,0,0,1,16,16V172.5a0,0,0,0,1,0,0H396.4a0,0,0,0,1,0,0V42.2A16,16,0,0,1,412.4,26.2Z" fill="#ffe18d"/>
    <rect x="336.9" y="38.4" width="47.6" height="58.55" rx="8.2" fill="#fdd961"/>
    <rect x="405.3" y="38.4" width="47.6" height="58.55" rx="8.2" fill="#fdd961"/>
    <path d="M119.7,33.1v69.1a10.5,10.5,0,0,1-10.5,10.5H45.5A10.5,10.5,0,0,1,35,102.2V62.3A39.8,39.8,0,0,1,74.8,22.6h34.4A10.5,10.5,0,0,1,119.7,33.1Z" fill="#ffe18d"/>
</svg>
