<svg xmlns="http://www.w3.org/2000/svg" viewBox="0 0 43.2 19.8">
    <path d="M43.2,19.8H0a4.4,4.4,0,0,1,3.9-4.4A6.4,6.4,0,0,1,3.5,13a7.4,7.4,0,0,1,7.4-7.4h.8A5.6,5.6,0,0,1,22,2.5a12.3,12.3,0,0,1,5.4-1.3A11.4,11.4,0,0,1,38.7,12.5a9.7,9.7,0,0,1-.4,2.9h.4A4.5,4.5,0,0,1,43.2,19.8Z" fill="#ba7c41"/>
    <circle cx="10.3" cy="12.7" r="1.4" fill="#af6c29"/>
    <circle cx="17.5" cy="16.6" r="1.4" fill="#af6c29"/>
    <circle cx="26.4" cy="16.6" r="1.4" fill="#af6c29"/>
    <circle cx="34.1" cy="13.2" r="1.4" fill="#af6c29"/>
    <circle cx="21.6" cy="10.7" r="1.4" fill="#af6c29"/>
    <circle cx="15.2" cy="5.8" r="1.4" fill="#af6c29"/>
    <circle cx="28.1" cy="5.8" r="1.4" fill="#af6c29"/>
</svg>
