<svg xmlns="http://www.w3.org/2000/svg" viewBox="0 0 235.5 189.6">
    <path d="M233.6,42.7,208.3,68a6.2,6.2,0,0,1-8.9,0,6.4,6.4,0,0,1,0-8.9l25.3-25.3C230.4,28,239.5,37,233.6,42.7Z" fill="#63472c"/>
    <path d="M190.4,129.5v48.3H177.6c-6.7,0-6.8,10.5,0,10.4h26.6V129.5Z" fill="#715137"/>
    <path d="M70.8,104.6v73.2H58c-6.7,0-6.7,10.5,0,10.4H84.6V104.6Z" fill="#715137"/>
    <path d="M224.9,128v61.6H198.3c-6.7.1-6.7-10.5,0-10.4h12.8V139.1H158.2a23,23,0,0,1-22.5-17.9H102.6v68.4H76c-6.8.1-6.8-10.5,0-10.4H88.8v-58c-53.1,5.3-37.9-31.6-40.1-67.1-6.1.6-12.6-1.2-16.2-6.2H11.2C3.4,48-.7,40.4.3,33.3c-.3-14.6,20-10.4,29-11C26.6-4.4,49.4.4,67.4.2,90.5-.1,81.6,35.7,83.2,49.3H189.9a23.2,23.2,0,0,1,23.3,23.2v48.7C218.2,120.6,225,121.6,224.9,128Z" fill="#8b6f54"/>
    <path d="M84.3,14.7V46.8a8.1,8.1,0,0,1-8.1,8.1A8.2,8.2,0,0,1,68,46.8V14.7C67.9,4.1,84.5,4.1,84.3,14.7Z" fill="#63472c"/>
    <path d="M7.1,28.8c-2.6.1-7.2.5-7.1-3.3s4.5-3.3,7.1-3.2C11.3,22.2,11.3,28.9,7.1,28.8Z" fill="#63472c"/>
    <path d="M43.8,18.6c.1,6-9.4,6-9.3,0S43.9,12.6,43.8,18.6Z" fill="#1a1a1a"/>
</svg>
