<svg xmlns="http://www.w3.org/2000/svg" viewBox="0 0 214.1 185.5">
    <path d="M11.7,41.1l22.9,26c2.3,2.7,5.9,1.5,7.6-1.2a5.6,5.6,0,0,0,0-7.5l-22.9-26C14.4,27.2,7.2,36.6,11.7,41.1Z" fill="#8b6f54"/>
    <path d="M14.9,160.8,43,125.7l-8.8-9.1L0,159.2,3.8,163h0L17,176.7c4.7,4.6,10.3-3.6,6.1-7.5Z" fill="#8b6f54"/>
    <path d="M133.7,169.6l-10.6-3.8,19.3-68.3-11.3-4.1-22.1,78,11.4,4.1h0l10.5,3.8C136.7,181.3,139,171.3,133.7,169.6Z" fill="#8b6f54"/>
    <path d="M19.7,125.3v60.2h23c5.7.1,5.9-10.1,0-10.1H31.6V136.1H77.3c9.6,0,17.5-7.5,19.6-17.6h28.6v67h23c5.7.1,5.9-10.1,0-10.1H137.4V118.5H152c11.1,0,20.1-10.1,20.1-22.7V52.9c5.4.5,10.9-1.2,13.9-6.1h18.4c5.3,0,9.5-4.8,9.5-10.7,1.2-18.4-13-13.7-25.1-14.3C190.2-4.3,174.3.5,155.8.1c-7.5,0-13.6,7-13.6,15.5V48.2H49.9C38.8,48.2,29.8,58.4,29.8,71v47.5C24.9,118.1,19.9,118.9,19.7,125.3Z" fill="#b59679"/>
    <path d="M141.3,13.4V46.6c0,9.2,14,9.2,14,0V13.4C155.3,4.2,141.3,4.1,141.3,13.4Z" fill="#63472c"/>
    <path d="M208.4,28.2c2.4.2,5.7-.1,5.7-3.3s-3.3-3.4-5.7-3.2C204.2,21.7,204.2,28.2,208.4,28.2Z" fill="#63472c"/>
    <path d="M176.3,18.2a4,4,0,1,0,8,0A4,4,0,1,0,176.3,18.2Z" fill="#1a1a1a"/>
</svg>
