<svg xmlns="http://www.w3.org/2000/svg" viewBox="0 0 5.219 7.157">
    <g fill="#d1b197">
      <path d="M5.166,2.125c.3.953-.723,3.358-1.184,1.771C3.033,3.453,2.6.955,4.329.565A1.87,1.87,0,0,1,5.166,2.125Z"/>
      <path d="M.54,4c.646-1.106,1.889-.116,2.029.446,1.01.6-.467,1.672-1.175,1.659C.53,6.123-.493,4.105.54,4Z"/>
      <path d="M.784,2.654c-.309-.7.81-1,.793-.213.051.373-.935,1.274-1.068.549C.52,2.837.677,2.614.784,2.654Z"/>
      <path d="M1.821,2.959c-.18-.223-.536.4-.183.4.5.241.523-.662.13-.379Z"/>
      <path d="M2.887,2.606c-.218-.077-.165.335,0,.3C3.055,2.817,3.151,2.709,2.887,2.606Z"/>
      <path d="M4.261,6.223c-.226-.194.174-.32.152-.092Z"/>
    </g>
    <path d="M4.081,4.558a.32.32,0,0,1-.639,0A.32.32,0,0,1,4.081,4.558Z" fill="#1a1a1a"/>
    <path d="M1.666,4.558a.32.32,0,0,1-.639,0A.32.32,0,0,1,1.666,4.558Z" fill="#1a1a1a"/>
    <g fill="#010101">
      <path d="M3.835,6.23c.286-.165.627.586.346.714C3.9,7.108,3.555,6.357,3.835,6.23Z"/>
      <path d="M3.311,6.371c.311-.109.507.693.208.766C3.207,7.246,3.011,6.444,3.311,6.371Z"/>
      <path d="M1.675,6.363c.329-.028.321.8.013.794C1.359,7.185,1.367,6.36,1.675,6.363Z"/>
      <path d="M1.166,6.2c.328.03.174.84-.129.782C.708,6.948.863,6.137,1.166,6.2Z"/>
      <path d="M1.984.794C1.656.827,1.654,0,1.962,0,2.291-.032,2.293.793,1.984.794Z"/>
      <path d="M2.594.794C2.266.827,2.264,0,2.572,0,2.9-.032,2.9.793,2.594.794Z"/>
      <path d="M3.2.794C2.876.827,2.874,0,3.182,0,3.511-.032,3.513.793,3.2.794Z"/>
      <path d="M3.741.881C3.412.852,3.563.041,3.866.1,4.2.126,4.044.937,3.741.881Z"/>
      <path d="M4.212,1.069C3.9.96,4.247.211,4.527.34,4.839.449,4.492,1.2,4.212,1.069Z"/>
      <path d="M4.607,1.431c-.287-.163.188-.838.44-.66C5.334.934,4.859,1.609,4.607,1.431Z"/>
      <path d="M1.4.881C1.724.852,1.573.041,1.27.1.942.126,1.093.937,1.4.881Z"/>
      <path d="M.924,1.069C1.235.96.889.211.609.34.3.449.644,1.2.924,1.069Z"/>
      <path d="M.529,1.431C.816,1.268.341.593.089.771-.2.934.277,1.609.529,1.431Z"/>
    </g>
</svg>
