<svg xmlns="http://www.w3.org/2000/svg" viewBox="0 0 6.33 8.16">
    <path d="M1.1,4.83a.31.31,0,1,1-.31-.31A.31.31,0,0,1,1.1,4.83Z" fill="#1a1a1a"/>
    <path d="M3.45,4.81v.13a.51.51,0,0,1-.51.51H2.73a.14.14,0,0,1-.14-.14V4.4a.14.14,0,0,1,.14-.14h.16A.56.56,0,0,1,3.45,4.81Z" fill="#523722"/>
    <path d="M1.28,7c-.25-.19.19-.33.15-.09Z" fill="#d1b197"/>
      <path d="M4.39,2.15C3.85-.91-1.69,2.32,1.3,4.21c0,.29.5,1.14,1.15-.33C3.31,4.72,4.57,3.43,4.39,2.15Z" fill="#d1b197"/>
      <path d="M.15,3.08C-.08,3,0,3.43.15,3.39S.43,3.19.15,3.08Z" fill="#d1b197"/>
    <path d="M5.41,4.35l0-.55v0a3.47,3.47,0,0,0-2-3.41A4.63,4.63,0,0,0,.29.18.22.22,0,0,0,.12.46.23.23,0,0,0,.4.62,4.36,4.36,0,0,1,3.17.77,3,3,0,0,1,4.68,2.39,3.2,3.2,0,0,0,3.32,1.05,4,4,0,0,0,.47.85a.22.22,0,0,0,.12.43,3.62,3.62,0,0,1,2.53.16,2.79,2.79,0,0,1,.59.43l-.13-.09A4,4,0,0,0,.72,1.59a.21.21,0,0,0-.15.27A.21.21,0,0,0,.84,2a3.57,3.57,0,0,1,2.53.17A2.8,2.8,0,0,1,4.64,3.54l0,.1A2.68,2.68,0,0,0,3.48,2.43a3.35,3.35,0,0,0-2.35-.16A.19.19,0,0,0,1,2.5a.19.19,0,0,0,.23.12,3,3,0,0,1,2.09.13,2.34,2.34,0,0,1,.79.67A2.77,2.77,0,0,0,3.34,3,3.63,3.63,0,0,0,1.43,3a.17.17,0,1,0,.07.33,3.29,3.29,0,0,1,1.73,0,2.16,2.16,0,0,1,1.4,1.53v0L3.44,7.45a.24.24,0,0,0,.12.31l.09,0a.23.23,0,0,0,.21-.14l.41-.89L4,7.68A.23.23,0,0,0,4.17,8h.06a.23.23,0,0,0,.22-.17L4.67,7l-.06.89a.23.23,0,0,0,.22.24h0A.23.23,0,0,0,5.07,8l.09-1.21.1,1.15a.23.23,0,0,0,.23.21h0a.23.23,0,0,0,.21-.25L5.6,6.55l.18.58A.23.23,0,0,0,6,7.3h.07A.23.23,0,0,0,6.22,7Z" fill="#141414"/>
    <path d="M6.1,6a.23.23,0,0,1-.2-.11l-1-1.74A.23.23,0,0,1,5,3.84a.24.24,0,0,1,.32.09l1,1.73A.23.23,0,0,1,6.21,6,.2.2,0,0,1,6.1,6Z" fill="#141414"/>
</svg>
