<svg xmlns="http://www.w3.org/2000/svg" viewBox="0 0 5.61 7.54">
    <circle cx="1.5" cy="7.15" r=".4" fill="#1a1a1a"/>
    <circle cx="4" cy="7.15" r=".4" fill="#1a1a1a"/>
    <path d="M.7,4.5,0,5.94V4.65Z" fill="#4e4d4d"/>
    <path d="M5.61,4.65V5.94L4.9,4.51Z" fill="#4e4d4d"/>
    <path d="M4.27,2.63l.9-1.46C5.45.74,4.7.28,4.44.71l-.37.59c0-.31.39-1-.13-1.14s-.62.56-.7.91C3.23.71,3.37-.1,2.75,0s-.35.78-.38,1.1C2.28.75,2.25-.07,1.67.17S1.49,1,1.53,1.31C1.34,1.06,1.09.32.65.6a.4.4,0,0,0-.22.58l.9,1.45A2,2,0,0,0,0,4.65a12.22,12.22,0,0,1,5.61,0A2,2,0,0,0,4.27,2.63Z"/>
</svg>
