<svg xmlns="http://www.w3.org/2000/svg" viewBox="0 0 6.776 7.408">
    <path d="M1.9,6.737a.3.3,0,1,1-.3-.3A.3.3,0,0,1,1.9,6.737Z" fill="#1a1a1a"/>
    <path d="M5.383,7.252.764,3.665s4.62.388,4.62.655C5.384,4.32,5.383,7.233,5.383,7.252Z" fill="#4e4d4d"/>
    <path d="M6.724,1.913c-.214-.546-.791-.042-1.087.126.166-.247.762-.7.373-1.007-.377-.436-.748.2-.968.461C5.189,1.185,5.647.58,5.09.4c-.437-.238-.621.5-.781.751C4.387.822,4.71.129,4.125.076c-.474-.139-.5.612-.6.89L3.474.324c-.03-.473-.848-.408-.8.063.023.087.123,1.953.179,2.025C1.6,2.248-.083,2.73,0,4.261a11.331,11.331,0,0,0,5.381,0,1.541,1.541,0,0,0-.264-.972C5.339,3.035,7.1,2.447,6.724,1.913Z"/>
    <path d="M4.142,6.725c.039.6-.829.921-.82.471a2.966,2.966,0,0,1,.09-.99C3.632,5.928,4.148,6.338,4.142,6.725Z" fill="#523722"/>
</svg>
