<svg xmlns="http://www.w3.org/2000/svg" viewBox="0 0 5.11 10.76">
    <path d="M3.63,7.57a.31.31,0,1,0,.31-.31A.31.31,0,0,0,3.63,7.57Z" fill="#1a1a1a"/>
    <path d="M5.11,3.71a1.94,1.94,0,0,0-1.45-.64H2A2,2,0,0,0,0,5v3A1.94,1.94,0,0,0,.86,9.66c0-.15,0-.32,0-.5,0-2.78,1-2.41,1-2.41l.37-.35a.27.27,0,0,0,.21.15.28.28,0,0,0,.23-.18.36.36,0,0,0,.08-.24.47.47,0,0,0,0-.17l0,0,.13-.12a.25.25,0,0,0,0,.07.25.25,0,0,0,.16.06.26.26,0,0,0,.18-.07.24.24,0,0,0,.07-.17.14.14,0,0,0,0-.11.24.24,0,0,0-.05-.14l.12-.11a.21.21,0,0,0,.13,0,.25.25,0,0,0,.11,0,.29.29,0,0,0,.18-.07.26.26,0,0,0,0-.34L3.79,5l.11-.1H4a.36.36,0,0,0,.25-.11.34.34,0,0,0,.1-.28ZM3.53,5.32a.16.16,0,0,1,0-.07L3.74,5a.17.17,0,0,1,0,.12.21.21,0,0,1-.07.15.2.2,0,0,1-.14.06Zm-.21.26a.2.2,0,0,1-.06.15.25.25,0,0,1-.16.06h0a.17.17,0,0,1-.12,0l.24-.23s.06,0,.08,0A.08.08,0,0,1,3.32,5.58Zm-.62.76a.19.19,0,0,1-.15.08.22.22,0,0,1-.16-.11l.27-.26h0a.29.29,0,0,1,.05.17A.37.37,0,0,1,2.7,6.34Zm-.2.17a.23.23,0,0,1-.18-.14l0,0a.24.24,0,0,0,.19.13.12.12,0,0,0,.09,0A.17.17,0,0,1,2.5,6.51Zm.26-.29A.43.43,0,0,0,2.7,6l0,0a.28.28,0,0,1,0,.13S2.76,6.19,2.76,6.22Zm.52-.39a.2.2,0,0,1-.28,0,.13.13,0,0,1,0-.07.2.2,0,0,0,.14.06h0a.25.25,0,0,0,.18-.08.23.23,0,0,0,.06-.12.11.11,0,0,1,0,0A.21.21,0,0,1,3.28,5.83Zm0-.33,0,0h0A.06.06,0,0,1,3.29,5.5Zm.17-.22,0,0,0,0Zm.36,0a.21.21,0,0,1-.18.05.21.21,0,0,0,.1-.06.23.23,0,0,0,.08-.17.28.28,0,0,0,0-.13s0,0,.05,0A.19.19,0,0,1,3.82,5.31Zm.35-.58A.31.31,0,0,1,4,4.82H4a.25.25,0,0,0,.12-.08.44.44,0,0,0,.08-.11l.11-.11A.31.31,0,0,1,4.17,4.73Z" fill="#782a2a"/>
    <path d="M.08,3.09a.62.62,0,0,0,1,.48,1,1,0,0,0,1.46,0c.65.6,1.5-.52.75-1a.63.63,0,0,0-.19-1.18.63.63,0,0,0-.5-1A1,1,0,0,0,1,.38H1a.63.63,0,0,0-.48,1A.63.63,0,0,0,.36,2.56.63.63,0,0,0,.08,3.09Z" fill="#5c1919"/>
    <path d="M1.3,7.56a.52.52,0,0,0,.5.63c.12,0,.35,0,.35-.16V7.15C2.15,7,2,7,1.84,7A.55.55,0,0,0,1.3,7.56Z" fill="#73523c"/>
    <path d="M2.15,7.88a1.41,1.41,0,1,1-.69.18" fill="none" stroke="#b4b4b4" stroke-miterlimit="10" stroke-width="0.1"/>
</svg>
