<svg xmlns="http://www.w3.org/2000/svg" viewBox="0 0 6.449 10.285">
    <path d="M2.271,7.552a.315.315,0,0,1-.629,0A.315.315,0,0,1,2.271,7.552Z" fill="#1a1a1a"/>
    <path d="M4.647,7.552a.315.315,0,0,1-.629,0A.315.315,0,0,1,4.647,7.552Z" fill="#1a1a1a"/>
    <path d="M6.436,9.293a1.068,1.068,0,0,1-2.083.242L4.464,9.5a.952.952,0,0,0,1.858-.226,1,1,0,0,0-.542-1.11l.042-.107A1.115,1.115,0,0,1,6.436,9.293Z" fill="#b4b4b4"/>
    <path d="M2.1,9.564c-.8,1.67-2.8.019-1.842-1.254l.015-.018a.851.851,0,0,1,.245-.2l.054.1a1,1,0,0,0-.4,1.169.949.949,0,0,0,1.814.172C2.021,9.548,2.059,9.556,2.1,9.564Z" fill="#b4b4b4"/>
    <path d="M4.714,3.461a.6.6,0,0,0,0-1.009.6.6,0,0,0-.18-1.131A.6.6,0,0,0,4.081.365h0a.978.978,0,0,0-1.523,0,.6.6,0,0,0-.485.957.6.6,0,0,0-.18,1.131.605.605,0,0,0-.1.929c-.049.018-.1.038-.143.06L5.741,5.8A2.2,2.2,0,0,0,4.714,3.461Z" fill="#5c1919"/>
    <path d="M4.238,3.534.582,5.946A2.244,2.244,0,0,1,1.793,3.381a.6.6,0,0,0,.823.019.962.962,0,0,0,1.392.014A.59.59,0,0,0,4.238,3.534Z" fill="#782a2a"/>
    <g>
      <path d="M2.269,4.833a.247.247,0,0,1-.254.28.243.243,0,0,1-.124-.031l-.073.049a.273.273,0,0,0,.259.148.313.313,0,0,0,.255-.487Zm-.192.4a.241.241,0,0,1-.221-.124.294.294,0,0,0,.159.044.291.291,0,0,0,.3-.3A.266.266,0,0,1,2.077,5.236Z" fill="#8f2a32"/>
      <path d="M2.912,4.409a.251.251,0,0,1-.252.305.242.242,0,0,1-.144-.044l-.063.041a.274.274,0,0,0,.268.169.314.314,0,0,0,.243-.506Zm-.191.428a.238.238,0,0,1-.22-.124.3.3,0,0,0,.461-.255A.266.266,0,0,1,2.721,4.837Z" fill="#8f2a32"/>
      <path d="M3.765,4.662a.238.238,0,0,1-.154.052.248.248,0,0,1-.253-.287L3.3,4.391a.312.312,0,0,0,.253.489A.276.276,0,0,0,3.824,4.7Zm-.216.175a.266.266,0,0,1-.24-.379.291.291,0,0,0,.3.3.294.294,0,0,0,.159-.044A.239.239,0,0,1,3.549,4.837Z" fill="#8f2a32"/>
      <path d="M4.609,5.15a.369.369,0,0,1-.155.031.352.352,0,0,1-.367-.333l-.061-.035a.414.414,0,0,0,.428.429.447.447,0,0,0,.2-.041.344.344,0,0,1-.288.133.375.375,0,0,1-.345-.526l-.052-.03a.435.435,0,0,0,.4.617.4.4,0,0,0,.356-.182Z" fill="#8f2a32"/>
      <path d="M5.32,5.56a.219.219,0,0,1-.083.013.237.237,0,0,1-.246-.2l-.048-.028a.282.282,0,0,0,.294.275A.325.325,0,0,0,5.3,5.6a.265.265,0,0,1-.127.031.251.251,0,0,1-.251-.3l-.041-.023a.3.3,0,0,0,.292.37.267.267,0,0,0,.2-.085Z" fill="#8f2a32"/>
      <g>
        <path d="M1.559,5.3,1.5,5.339a.346.346,0,0,1-.361.3.3.3,0,0,1-.076-.014l-.071.047a.423.423,0,0,0,.147.028A.4.4,0,0,0,1.559,5.3Z" fill="#8f2a32"/>
        <path d="M1.589,5.282a.368.368,0,0,1-.356.482.349.349,0,0,1-.24-.089L.94,5.709a.388.388,0,0,0,.293.116.428.428,0,0,0,.407-.577Z" fill="#8f2a32"/>
      </g>
    </g>
</svg>
