<svg xmlns="http://www.w3.org/2000/svg" viewBox="0 0 6.45 10.29">
    <path d="M2.27,7.55a.32.32,0,0,1-.63,0A.32.32,0,0,1,2.27,7.55Z" fill="#1a1a1a"/>
    <path d="M4.65,7.55a.32.32,0,0,1-.63,0A.32.32,0,0,1,4.65,7.55Z" fill="#1a1a1a"/>
    <path d="M6.44,9.29a1.07,1.07,0,0,1-2.09.24.35.35,0,0,0,.11,0,1,1,0,0,0,1.86-.22,1,1,0,0,0-.54-1.11l0-.11A1.11,1.11,0,0,1,6.44,9.29Z" fill="#b4b4b4"/>
    <path d="M2.1,9.56c-.8,1.67-2.81,0-1.84-1.25v0A.79.79,0,0,1,.52,8.1l0,.1a1,1,0,0,0-.4,1.17A1,1,0,0,0,2,9.54Z" fill="#b4b4b4"/>
    <path d="M4.71,3.46a.6.6,0,0,0,0-1,.6.6,0,0,0-.18-1.13.6.6,0,0,0-.45-1h0a1,1,0,0,0-1.52,0,.61.61,0,0,0-.49,1,.6.6,0,0,0-.18,1.13.61.61,0,0,0-.1.93l-.14.06L5.74,5.8A2.18,2.18,0,0,0,4.71,3.46Z" fill="#5c1919"/>
    <path d="M4.24,3.53.58,6A2.25,2.25,0,0,1,1.79,3.38a.61.61,0,0,0,.83,0A1,1,0,0,0,4,3.41.46.46,0,0,0,4.24,3.53Z" fill="#782a2a"/>
    <g>
      <path d="M2.27,4.83c0,.14-.07.29-.25.28a.28.28,0,0,1-.13,0l-.07,0a.27.27,0,0,0,.26.15.31.31,0,0,0,.25-.49Zm-.19.41a.24.24,0,0,1-.22-.13.25.25,0,0,0,.16,0,.3.3,0,0,0,.3-.3A.27.27,0,0,1,2.08,5.24Z" fill="#8f2a32"/>
      <path d="M2.91,4.41a.24.24,0,0,1-.25.3.17.17,0,0,1-.14,0l-.07,0a.28.28,0,0,0,.27.17A.32.32,0,0,0,3,4.37Zm-.19.43a.24.24,0,0,1-.22-.13.28.28,0,0,0,.16,0,.29.29,0,0,0,.3-.3A.27.27,0,0,1,2.72,4.84Z" fill="#8f2a32"/>
      <path d="M3.76,4.66a.18.18,0,0,1-.15,0,.24.24,0,0,1-.25-.28l-.06,0a.31.31,0,0,0,.25.49.28.28,0,0,0,.27-.18Zm-.21.18a.27.27,0,0,1-.24-.38.29.29,0,0,0,.3.3.25.25,0,0,0,.16,0A.24.24,0,0,1,3.55,4.84Z" fill="#8f2a32"/>
      <path d="M4.61,5.15a.41.41,0,0,1-.16,0,.35.35,0,0,1-.36-.33L4,4.81a.4.4,0,0,0,.42.43.42.42,0,0,0,.2,0,.32.32,0,0,1-.29.13A.37.37,0,0,1,4,4.81l0,0a.44.44,0,0,0,.39.62.41.41,0,0,0,.36-.19Z" fill="#8f2a32"/>
      <path d="M5.32,5.56H5.24A.23.23,0,0,1,5,5.37l0,0a.29.29,0,0,0,.3.28l.06,0a.16.16,0,0,1-.12,0,.25.25,0,0,1-.26-.3l0,0a.3.3,0,0,0,.3.37.27.27,0,0,0,.2-.09Z" fill="#8f2a32"/>
      <g>
        <path d="M1.56,5.3l-.06,0a.34.34,0,0,1-.36.3H1.06L1,5.67a.37.37,0,0,0,.15,0A.4.4,0,0,0,1.56,5.3Z" fill="#8f2a32"/>
        <path d="M1.59,5.28a.37.37,0,0,1-.36.48A.32.32,0,0,1,1,5.67l-.05,0a.39.39,0,0,0,.29.12.43.43,0,0,0,.41-.58Z" fill="#8f2a32"/>
      </g>
    </g>
</svg>
