<svg xmlns="http://www.w3.org/2000/svg" viewBox="0 0 19.94 65.59">
    <rect x="4.16" y="60.77" width="4.82" height="4.82" rx="0.78" class="trd-color"/>
    <rect x="10.97" y="60.77" width="4.82" height="4.82" rx="0.78" class="trd-color"/>
    <path d="M16.21,32.21V62a.9.9,0,0,1-.83,1H11.2a.9.9,0,0,1-.82-1V41.33a.48.48,0,0,0-.44-.51.47.47,0,0,0-.43.51V62a.9.9,0,0,1-.83,1H4.5a.9.9,0,0,1-.82-1V32.21C3.68,31.68,16.21,31.68,16.21,32.21Z" class="scd-color"/>
    <path d="M17.57,39.24h.05a.22.22,0,0,0,.21-.21l0-.12v.82a.85.85,0,0,0,.85.85H19a.85.85,0,0,0,.85-.85v-2c0-.47-2-.63-2-.48l-.36,1.66A.29.29,0,0,0,17.57,39.24Z" />
    <path d="M2.43,39.23H2.37a.24.24,0,0,1-.21-.2l0-.13v.82a.87.87,0,0,1-.86.86H1a.86.86,0,0,1-.85-.86v-2c0-.47,2-.62,2-.48l.36,1.67A.29.29,0,0,1,2.43,39.23Z" />
    <path d="M19.94,18.26v18.8a.69.69,0,0,1-.69.69H18.11a.69.69,0,0,1-.7-.69V20.46a.42.42,0,1,0-.84,0V37a.73.73,0,0,1-.73.73H4.11A.73.73,0,0,1,3.37,37V20.46a.42.42,0,1,0-.84,0V37.09a.66.66,0,0,1-.67.66H.67A.66.66,0,0,1,0,37.09V17.46a2.59,2.59,0,0,1,2.6-2.6H17.35a2.59,2.59,0,0,1,2.59,2.6Z" class="fst-color"/>
    <path d="M16.31,9.54a1.49,1.49,0,0,1-.43,1,1.51,1.51,0,0,1-1,.43h-.09A4,4,0,0,1,11,13.55h-.59v1.32a.66.66,0,0,1-.65.66H9.15a.66.66,0,0,1-.65-.66V13.55H8A4,4,0,0,1,4.25,11H4.13a1.47,1.47,0,0,1-1-2.5A1.5,1.5,0,0,1,4,8.08V4a3.89,3.89,0,0,1,.56-2A4,4,0,0,1,8,0H11a3.92,3.92,0,0,1,2.21.67A4,4,0,0,1,15,4v4.1A1.47,1.47,0,0,1,16.31,9.54Z" fill="#63472c"/>
</svg>
