<svg xmlns="http://www.w3.org/2000/svg" viewBox="0 0 141.6 148.5">
  <g>
    <g>
      <path d="M102.3,145H100L76,74.4a11.8,11.8,0,1,0-10.4,0L41.5,145H40.2a1.8,1.8,0,0,0-1.8,1.7,1.8,1.8,0,0,0,1.8,1.8h62.1a1.8,1.8,0,0,0,1.8-1.8A1.8,1.8,0,0,0,102.3,145Zm-33.4,0H44.7L68.4,75.4h.5ZM73,75.4h.2L96.8,145H73Z" fill="#fff"/>
      <line x1="26.1" y1="21.2" x2="26.1" y2="21.2" fill="#fff" stroke="#e11073" stroke-miterlimit="10"/>
      <path d="M70.8,0a63.8,63.8,0,1,0,63.7,63.7A63.8,63.8,0,0,0,70.8,0Zm59.7,62.7H119.9a48.7,48.7,0,0,0-13.7-32.9l7.5-7.6A59.3,59.3,0,0,1,130.5,62.7ZM104.8,28.3a48.9,48.9,0,0,0-33-13.6V4a59.6,59.6,0,0,1,40.5,16.8ZM69.8,96a32.8,32.8,0,0,1-21.1-8.8L69.8,66.1Zm2-29.9L92.9,87.2A32.4,32.4,0,0,1,71.8,96Zm0-34.6a31.8,31.8,0,0,1,21.1,8.7L71.8,61.3Zm-2,29.8L48.7,40.2a32.2,32.2,0,0,1,21.1-8.7Zm0-31.8a33.7,33.7,0,0,0-22.5,9.3l-9-9A46.5,46.5,0,0,1,69.8,16.7ZM68.4,62.7H38.6a32.2,32.2,0,0,1,8.7-21.1Zm0,2L47.3,85.8a31.8,31.8,0,0,1-8.7-21.1ZM47.3,88.6A34.3,34.3,0,0,0,69.8,98v12.8A46.9,46.9,0,0,1,38.3,97.7ZM71.8,98a34.3,34.3,0,0,0,22.5-9.4l9.1,9.1a47.4,47.4,0,0,1-31.6,13.1Zm1.4-33.3h29.9a32.4,32.4,0,0,1-8.8,21.1Zm0-2L94.3,41.6a32.8,32.8,0,0,1,8.8,21.1ZM94.3,38.8a33.7,33.7,0,0,0-22.5-9.3V16.7a46.9,46.9,0,0,1,31.6,13.1ZM69.8,14.7A48.6,48.6,0,0,0,36.9,28.3l-7.6-7.5A59.8,59.8,0,0,1,69.8,4ZM45.9,40.2a33.7,33.7,0,0,0-9.3,22.5H23.8A46.5,46.5,0,0,1,36.9,31.2ZM36.6,64.7a33.7,33.7,0,0,0,9.3,22.5l-9,9.1A46.7,46.7,0,0,1,23.8,64.7Zm.3,34.4a48.7,48.7,0,0,0,32.9,13.7v10.6a59.3,59.3,0,0,1-40.5-16.8Zm34.9,13.7a49,49,0,0,0,33-13.7l7.5,7.5a59.2,59.2,0,0,1-40.5,16.8ZM95.7,87.2a34.3,34.3,0,0,0,9.4-22.5h12.8a47.2,47.2,0,0,1-13.1,31.6Zm9.4-24.5a34.3,34.3,0,0,0-9.4-22.5l9.1-9a46.9,46.9,0,0,1,13.1,31.5ZM27.9,22.2l7.5,7.6A48.6,48.6,0,0,0,21.8,62.7H11.1A59.8,59.8,0,0,1,27.9,22.2ZM11.1,64.7H21.8a48.9,48.9,0,0,0,13.6,33l-7.5,7.5A59.6,59.6,0,0,1,11.1,64.7Zm102.6,40.5-7.5-7.5a49,49,0,0,0,13.7-33h10.6A59.2,59.2,0,0,1,113.7,105.2Z" fill="#fff"/>
      <g>
        <path d="M74.3,5.2h0c0-1.6-1.5-2.9-3.5-2.9s-3.5,1.3-3.5,2.9h0C64,6.3,61.7,9,61.7,12.1s4.1,7.4,9.1,7.4,9.1-3.3,9.1-7.4S77.6,6.3,74.3,5.2Z" fill="#ddd"/>
        <path d="M30.7,23.2V23c0-1.5-1.6-2.8-3.5-2.8s-3.5,1.3-3.5,2.8v.2c-3.3,1.1-5.6,3.7-5.6,6.8s4.1,7.5,9.1,7.5,9.1-3.3,9.1-7.5S34,24.3,30.7,23.2Z" fill="#ddd"/>
        <path d="M117.7,23.2V23c0-1.5-1.6-2.8-3.5-2.8s-3.5,1.3-3.5,2.8v.2c-3.3,1.1-5.6,3.7-5.6,6.8s4.1,7.5,9.1,7.5,9.1-3.3,9.1-7.5S121,24.3,117.7,23.2Z" fill="#ddd"/>
        <path d="M30.7,110.2V110c0-1.5-1.6-2.8-3.5-2.8s-3.5,1.3-3.5,2.8v.2c-3.3,1.1-5.6,3.7-5.6,6.8s4.1,7.5,9.1,7.5,9.1-3.3,9.1-7.5S34,111.3,30.7,110.2Z" fill="#ddd"/>
        <path d="M117.7,110.2V110c0-1.5-1.6-2.8-3.5-2.8s-3.5,1.3-3.5,2.8v.2c-3.3,1.1-5.6,3.7-5.6,6.8s4.1,7.5,9.1,7.5,9.1-3.3,9.1-7.5S121,111.3,117.7,110.2Z" fill="#ddd"/>
        <path d="M74.3,128.4h0c0-1.6-1.5-2.8-3.5-2.8s-3.5,1.2-3.5,2.8h0c-3.3,1.2-5.6,3.8-5.6,6.9s4.1,7.5,9.1,7.5,9.1-3.4,9.1-7.5S77.6,129.6,74.3,128.4Z" fill="#ddd"/>
        <path d="M12.6,66.9h0c0-1.6-1.6-2.9-3.5-2.9s-3.5,1.3-3.5,2.9h0C2.3,68,0,70.7,0,73.8s4.1,7.4,9.1,7.4,9.1-3.3,9.1-7.4S15.9,68,12.6,66.9Z" fill="#ddd"/>
        <path d="M136,66.9h.1c0-1.6-1.6-2.9-3.6-2.9s-3.5,1.3-3.5,2.9h.1c-3.3,1.1-5.6,3.8-5.6,6.9s4,7.4,9,7.4,9.1-3.3,9.1-7.4S139.3,68,136,66.9Z" fill="#ddd"/>
      </g>
    </g>
    <circle cx="70.8" cy="63.7" r="11.5" fill="#7d802e"/>
  </g>
</svg>
