<svg xmlns="http://www.w3.org/2000/svg" viewBox="0 0 177.1 490.3">
    <rect class="fst-color" x="41.4" y="455.3" width="42.2" height="35.01" rx="0.5" />
    <rect class="fst-color" x="88.6" y="455.6" width="43.5" height="34.72" rx="0.5" />
    <rect class="trd-color" x="24.9" y="210.9" width="128.3" height="80.7" rx="1" />
    <path class="scd-color" d="M177,29.6V218.8c0,9-10.7,6.6-16.3,6.8-3.4,0-6.1-3-6.1-6.8V55.2a3.8,3.8,0,1,0-7.5,0V218.4c0,4-2.9,7.2-6.5,7.2H36.7c-3.6,0-6.5-3.2-6.5-7.2V55.2a3.8,3.8,0,1,0-7.5,0V219.1c.3,8.8-11.2,6.2-16.5,6.5-3.3,0-5.9-2.9-5.9-6.5V33.3C-1.7,17.4,6.7-.1,23.3,0H154C168.3-.2,178.6,14.6,177,29.6Z" />
</svg>
