<svg xmlns="http://www.w3.org/2000/svg" viewBox="0 0 75.9 349.9">
    <path class="fst-color" d="M68.9,326l-53.4-.2a.4.4,0,0,0-.4.4v23.3a.4.4,0,0,0,.4.4H68.9a.5.5,0,0,0,.5-.4v-23A.5.5,0,0,0,68.9,326Z" />
    <rect class="trd-color" x="1.7" y="156.7" width="72.5" height="55.54" rx="0.8" fill="#a78dc1"/>
    <path class="fst-color" d="M1.3,0H74.6a1.3,1.3,0,0,1,1.3,1.3v162a.6.6,0,0,1-.6.6H.6a.6.6,0,0,1-.6-.6V1.3A1.3,1.3,0,0,1,1.3,0Z" />
    <rect class="scd-color" x="30.2" y="15.6" width="18.1" height="150.2" rx="0.7" fill="#9575b3"/>
</svg>
