<svg xmlns="http://www.w3.org/2000/svg" viewBox="0 0 14.1 51.24">
  <g>
    <rect x="4.34" y="34.23" width="1.9" height="15.86" fill="#b59679"/>
    <rect x="7.66" y="33.96" width="1.9" height="16.06" fill="#b59679"/>
    <rect x="3.28" y="48.45" width="3.36" height="2.79" rx="0.5" fill="#526eb3"/>
    <rect x="7.05" y="48.47" width="3.47" height="2.77" rx="0.5" fill="#526eb3"/>
    <path d="M2,31.43H2c-.09,0-.21-.27-.21-.27v.67a.72.72,0,0,1-.76.68H.76A.72.72,0,0,1,0,31.84V30.2a.73.73,0,0,1,.76-.68s1,.18,1.05.3l.33,1.34A.24.24,0,0,1,2,31.43Z" fill="#b59679"/>
    <path d="M12.1,31.4h.05c.08,0,.21-.27.21-.27v.67a.73.73,0,0,0,.76.68h.22a.73.73,0,0,0,.76-.68V30.17a.72.72,0,0,0-.76-.68s-1,.18-1.05.3L12,31.13A.22.22,0,0,0,12.1,31.4Z" fill="#b59679"/>
    <rect x="1.97" y="28.95" width="10.23" height="6.44" rx="1.05" fill="#425aa5"/>
    <path d="M14.1,29.58a.52.52,0,0,1-.49.54H12.8a.52.52,0,0,1-.49-.54v-13a.31.31,0,0,0-.3-.33.32.32,0,0,0-.3.33v13a.54.54,0,0,1-.51.57H2.91a.54.54,0,0,1-.52-.57v-13a.32.32,0,0,0-.3-.33.32.32,0,0,0-.3.33V29.6a.49.49,0,0,1-.47.52H.47A.49.49,0,0,1,0,29.6V14.17a2,2,0,0,1,1.84-2.05H12.26a2,2,0,0,1,1.84,2.05Z" fill="#334d94"/>
    <path d="M12.6,7.79A1.21,1.21,0,0,1,11.33,9a3.38,3.38,0,0,1-3.51,2.07c0,.91.26,1.79-1.06,1.61-.77,0-.48-1.16-.53-1.61A3.35,3.35,0,0,1,2.77,9,1.2,1.2,0,0,1,2.55,6.6C2.54,3.87,2,.05,5.8,0A11.82,11.82,0,0,1,9.91.44h0c2.17,1,1.57,4.27,1.64,6.16A1.21,1.21,0,0,1,12.6,7.79Z" fill="#b6977a"/>
    <path d="M5.54,7.26a.54.54,0,0,1-1.08,0,.54.54,0,1,1,1.08,0Z" fill="#1a1a1a"/>
    <path d="M9.64,7.26a.54.54,0,0,1-1.08,0,.54.54,0,1,1,1.08,0Z" fill="#1a1a1a"/>
  </g>
</svg>
