<svg xmlns="http://www.w3.org/2000/svg" viewBox="0 0 11.87 23.61">
    <path d="M2.9,10.62a.73.73,0,0,1-1.46,0A.73.73,0,0,1,2.9,10.62Z" fill="#1a1a1a"/>
    <path d="M11.64,10.47v3.32l-.86.69L0,1A4.8,4.8,0,0,1,3.28,0C5.84,3.2,9.12,7.31,11.64,10.47Z" fill="#c7c6c6"/>
    <path d="M11.46,7.31C9.88,5.34,7.23,2,5.62,0H3.28C4.6,1.65,7.63,5.46,8.9,7v16a.55.55,0,0,0,.62.53.52.52,0,0,0,.53-.53V8.49h0c.49.6,1.11,1.38,1.59,2V7.54Z" fill="#a5a4a4"/>
    <path d="M11.7,2.26a.55.55,0,0,0-.41-.19.65.65,0,0,0-.2,0,.69.69,0,0,0-.24.21A4.59,4.59,0,0,0,6.87,0H5.62L7,1.74V23a.58.58,0,0,0,1.15,0V3.18l2.56,3.2V23a.61.61,0,0,0,.57.65.62.62,0,0,0,.58-.65V2.73A.73.73,0,0,0,11.7,2.26Z" fill="#8e8e8e"/>
    <path d="M8.16,9.83A1.52,1.52,0,0,0,6.71,9.3a.32.32,0,0,0-.32.32v2.13c0,.34.37.34.62.33C8.26,12.24,8.79,10.74,8.16,9.83Z" fill="#73523c"/>
    <path d="M10.13,14.69c0,.1,0,.19,0,.29s0,.28-.07.41a3.35,3.35,0,0,1-1.89,2.34A3.41,3.41,0,0,1,7,18H6.8a3.52,3.52,0,0,1-1-.15,3.33,3.33,0,0,1,.57-6.48,2.73,2.73,0,0,1,.41,0h.12v.24H6.8a2.73,2.73,0,0,0-.41,0,3.1,3.1,0,0,0-.53,6,3.24,3.24,0,0,0,.94.14H7a3.16,3.16,0,0,0,1.15-.31A3.48,3.48,0,0,0,8.9,17a3.1,3.1,0,0,0,.95-1.73,3.27,3.27,0,0,0,0-.54,3.07,3.07,0,0,0-1-2.27,2.87,2.87,0,0,0-.74-.51.88.88,0,0,0-.2-.09l.1-.09.08-.09h0a3,3,0,0,1,.69.42.1.1,0,0,1,.05,0,3.22,3.22,0,0,1,.91,1.16,2.83,2.83,0,0,1,.24.71A3.36,3.36,0,0,1,10.13,14.69Z" fill="#f0b225"/>
</svg>
