<svg xmlns="http://www.w3.org/2000/svg" viewBox="0 0 5.711 10.215">
    <path d="M4,4.192a.287.287,0,0,0,.574,0A.287.287,0,0,0,4,4.192Z" fill="#1a1a1a"/>
    <path d="M0,3.535a.745.745,0,0,0,.2.518.658.658,0,0,0,.023.655.648.648,0,0,0,0,.749.81.81,0,0,0,.024.875A.8.8,0,0,0,.3,7.3a.657.657,0,0,0,.024.655.63.63,0,0,0,.1.847.421.421,0,0,0,0,.438A.4.4,0,0,0,.533,9.8c-.262.535.438.56.189.007a.393.393,0,0,0,.13-.555A.42.42,0,0,0,.859,8.8.631.631,0,0,0,.97,7.986a.653.653,0,0,0,.036-.695.8.8,0,0,0,.04-.959.76.76,0,0,0,.14-.4C1.023,5.773.277,1.448,1.124.587c-.4-.96-1.431.078-.893.74a.817.817,0,0,0-.061.809.8.8,0,0,0-.028.945A.767.767,0,0,0,0,3.535Z" fill="#6f995b"/>
    <path d="M.634,1.823c.113,1.3-.541,4.036,1.222,4.516a3.675,3.675,0,0,0,.638-1.457c-.69-.034-.549-1.192.13-1.091a5.891,5.891,0,0,0-.018-.625.366.366,0,0,0,.116.067c-.333.8.751.642.306-.042a.456.456,0,0,0,.191-.36A2.859,2.859,0,0,0,5.711,1.165C5.272-.185,3.569,0,2.44.017A1.81,1.81,0,0,0,.634,1.823Z" fill="#89b077"/>
    <path d="M2.043,4.3c-.015.6.576.831.793.456V3.918C2.659,3.563,2.028,3.859,2.043,4.3Z" fill="#8f715b"/>
    <path d="M2.533,4.934c-.075.007-.072-.376,0-.376S2.6,4.935,2.533,4.934Z" fill="#f0b225"/>
    <path d="M2.7,5.111c-.1.009-.1-.5-.005-.5S2.787,5.112,2.7,5.111Z" fill="#f0b225"/>
    <circle cx="4.652" cy="4.956" r="0.068" fill="#eac8b5"/>
    <path d="M4.91,4.806a.068.068,0,0,1,.076-.112C5.059,4.743,4.981,4.857,4.91,4.806Z" fill="#eac8b5"/>
    <circle cx="5.3" cy="4.956" r="0.068" fill="#eac8b5"/>
    <circle cx="5.565" cy="4.633" r="0.068" fill="#eac8b5"/>
</svg>
