<svg xmlns="http://www.w3.org/2000/svg" viewBox="0 0 6.294 11.595">
    <circle cx="1.953" cy="4.601" r="0.314" fill="#1a1a1a"/>
    <circle cx="4.329" cy="4.601" r="0.314" fill="#1a1a1a"/>
    <circle cx="2.09" cy="5.45" r="0.073" fill="#775c46"/>
    <circle cx="2.412" cy="5.227" r="0.073" fill="#775c46"/>
    <circle cx="2.794" cy="5.45" r="0.073" fill="#775c46"/>
    <circle cx="3.081" cy="5.099" r="0.073" fill="#775c46"/>
    <circle cx="3.464" cy="5.45" r="0.073" fill="#775c46"/>
    <circle cx="3.815" cy="5.227" r="0.073" fill="#775c46"/>
    <circle cx="4.198" cy="5.45" r="0.073" fill="#775c46"/>
    <rect x="0.2" y="5.204" width="0.096" height="0.408" rx="0.036" fill="#f0b225"/>
    <rect x="0.36" y="5.26" width="0.128" height="0.545" rx="0.049" fill="#f0b225"/>
    <rect x="5.991" y="5.244" width="0.096" height="0.408" rx="0.036" transform="translate(12.077 10.897) rotate(-180)" fill="#f0b225"/>
    <rect x="5.798" y="5.3" width="0.128" height="0.545" rx="0.049" transform="translate(11.725 11.145) rotate(180)" fill="#f0b225"/>
    <path d="M6.285,3.161a.416.416,0,0,1-.122.3c.569.859-.934.865-.367,0a.446.446,0,0,1-.016-.59.394.394,0,0,1-.072-.115A2.393,2.393,0,0,1,3.159.585,2.393,2.393,0,0,1,.582,2.757.394.394,0,0,1,.5,2.89a.446.446,0,0,1-.015.59c.253.207.073.8-.278.663V4.12l-.025.012A.432.432,0,0,1,.12,3.48.445.445,0,0,1,.1,2.89a.425.425,0,0,1,.118-.653C.458-.742,5.8-.744,6.063,2.222a.425.425,0,0,1,.116.652A.419.419,0,0,1,6.285,3.161Z" fill="#89b077"/>
    <path d="M2.281,6.72a2.058,2.058,0,0,1-1.014-.355c-.192.183-.264.52-.011,1.012A.873.873,0,0,0,1.3,8.419a.708.708,0,0,0,.039.755.687.687,0,0,0,.12.882.457.457,0,0,0,.008.5.427.427,0,0,0,.142.6c-.271.6.49.573.2-.008a.432.432,0,0,0,.116-.608.456.456,0,0,0,0-.475.684.684,0,0,0,.112-.92.715.715,0,0,0,.026-.712.811.811,0,0,0,.211-.562.834.834,0,0,0-.154-.494A1.157,1.157,0,0,0,2.281,6.72Z" fill="#89b077"/>
</svg>
