<svg xmlns="http://www.w3.org/2000/svg" viewBox="0 0 5.78 6.22">
    <path d="M4.24,3.87a.29.29,0,0,1-.57,0A.29.29,0,0,1,4.24,3.87Z" fill="#1a1a1a"/>
    <path d="M2.08,3.87a.29.29,0,0,1-.57,0A.29.29,0,0,1,2.08,3.87Z" fill="#1a1a1a"/>
    <path d="M2.81,0H2.05A1.69,1.69,0,0,0,.79.82a1.65,1.65,0,0,0-.22.69.92.92,0,0,0,0,.16v.1L2.38.35l.3-.24L2.81,0Z" fill="#8e8e8e"/>
    <path d="M3.63.26,3.36.47,3.18.62,2.87.86.56,2.67v-1a.92.92,0,0,1,0-.16L2.24.21,2.5,0h.93l0,.05h0Z" fill="#a5a4a4"/>
    <g>
      <path d="M4.09.1A1.57,1.57,0,0,0,3.66,0,1.57,1.57,0,0,1,4.09.1Z" fill="#8e8e8e"/>
      <path d="M5.19,1.57A1.68,1.68,0,0,0,4.47.3h0L4,.63H4L5.19,1.82Z" fill="#8e8e8e"/>
    </g>
    <path d="M5.19,1.57l-1-1h0L3.73.85,3.54,1h0l1.65,1.7Z" fill="#a5a4a4"/>
    <g>
      <path d="M2.14,0h0Z" fill="#c7c6c6"/>
      <path d="M5.19,2.35,3.73.85h0L4.47.3A1.62,1.62,0,0,0,3.66,0H3.42L.56,2.15V3.24l2.67-2,2,2Z" fill="#c7c6c6"/>
    </g>
    <path d="M1.87,5.64A1,1,0,0,1,1,6.17a1,1,0,0,1-1-1,1,1,0,0,1,.53-.86" fill="none" stroke="#f0b225" stroke-miterlimit="10" stroke-width="0.1"/>
    <path d="M5.18,4.33a.94.94,0,0,1,.55.86,1,1,0,0,1-1.82.43" fill="none" stroke="#f0b225" stroke-miterlimit="10" stroke-width="0.1"/>
</svg>
