<svg xmlns="http://www.w3.org/2000/svg" viewBox="0 0 264.1 457.4">
  <g>
    <path d="M58.2,5.6A89.1,89.1,0,0,0,0,89.1V227.4a88.9,88.9,0,0,0,88.9,88.9h13.6v24a18.4,18.4,0,0,0,18.4,18.5h8.5a18.6,18.6,0,0,0,17.5-12.6,17.1,17.1,0,0,0,.9-4.5V316.3h22.1a90.4,90.4,0,0,0,22.3-3.6,82.1,82.1,0,0,0,14.5-5.6A89.3,89.3,0,0,0,225,295l4-3.6,1.2-1.2a92,92,0,0,0,10.5-12.7,70.6,70.6,0,0,0,4-6.5,88.2,88.2,0,0,0,9-22.7,89.9,89.9,0,0,0,2.4-20.9" fill="#8b6f54"/>
    <path d="M90.4,205.8c.2,18.3-28.6,18.3-28.3,0S90.6,187.5,90.4,205.8Z" fill="#1a1a1a"/>
    <path d="M259.7,202.9v64.3L243,280.5,34.2,19C51.9,4.7,74.9-1.1,97.8.2Z" fill="#c7c6c6"/>
    <path d="M256.1,141.7C225.6,103.4,174.2,39,143.1.2H97.8L206.7,136.5V447c-.1,6.4,5.7,11,12,10.3A10.3,10.3,0,0,0,229,447V164.4h0l30.7,38.5V146.1Z" fill="#a5a4a4"/>
    <path d="M260.8,43.8a10.4,10.4,0,0,0-7.9-3.7,8.9,8.9,0,0,0-3.9.9,12.5,12.5,0,0,0-4.6,4A88.7,88.7,0,0,0,167.2.2H143.1L170,33.7V446.1a11.1,11.1,0,1,0,22.2,0V61.6l49.6,62.1V444.6c0,7,5,12.7,11.1,12.7s11.2-5.7,11.2-12.7V52.8A13.8,13.8,0,0,0,260.8,43.8Z" fill="#8e8e8e"/>
    <path d="M192.2,190.5c-5.8-9-17.6-11.2-28-10.3a6.3,6.3,0,0,0-6.2,6.2v41.3c-.1,6.5,7.2,6.6,12,6.2C194.1,237.2,204.5,208.1,192.2,190.5Z" fill="#73523c"/>
    <path d="M230.4,284.6c0,1.9-.1,3.7-.2,5.6s-.7,5.4-1.2,7.9a65,65,0,0,1-22.3,36.4,61.4,61.4,0,0,1-14.5,8.9,63,63,0,0,1-22.3,5.5h-4a66.1,66.1,0,0,1-19-2.8A64.5,64.5,0,0,1,158,220.6a68.4,68.4,0,0,1,7.9-.5h2.4l-.2,4.6h-2.2a51.6,51.6,0,0,0-7.9.6,59.9,59.9,0,0,0,7.9,119.3h4a60,60,0,0,0,36.8-103.9,60.6,60.6,0,0,0-14.5-9.8l-3.9-1.8,2-1.7,1.5-1.7.4.2a65.3,65.3,0,0,1,13.5,8.1l1,.7A64.4,64.4,0,0,1,224.3,257a66.9,66.9,0,0,1,4.7,13.9A68.4,68.4,0,0,1,230.4,284.6Z" fill="#f0b225"/>
  </g>
</svg>
