<svg xmlns="http://www.w3.org/2000/svg" viewBox="0 0 5.64 9.73">
  <g>
    <path d="M4,4.48a.35.35,0,0,0,.69,0A.35.35,0,0,0,4,4.48Z" fill="#1a1a1a"/>
    <path d="M1.46,2.15H5.64V2.06A2.06,2.06,0,0,0,3.92,0C1.71-.11,1.54,1.31,1.46,2.15Z" fill="#23515c"/>
    <path d="M1.87,7.28v.49A.3.3,0,0,0,2,8V9.47a.26.26,0,0,0,.25.26h.44a.26.26,0,0,0,.26-.26V8.11h.43a.34.34,0,0,0,.34-.34V7.28A3.17,3.17,0,0,1,1.87,7.28Z" fill="#23515c"/>
    <path d="M0,2.06v2.8A2.06,2.06,0,0,0,1.87,6.91v.37a.34.34,0,0,0,.34.33H3.36a.34.34,0,0,0,.34-.33V6.91a2,2,0,0,0,.42-.07,9.56,9.56,0,0,1-.71-3.43,10.12,10.12,0,0,1,0-1.26A9.26,9.26,0,0,0,3.58,0H2.06A2.06,2.06,0,0,0,0,2.06Z" fill="#2f6171"/>
  </g>
</svg>
