<svg xmlns="http://www.w3.org/2000/svg" viewBox="0 0 6.46 9.04">
    <polygon points="2.39 7.03 2.39 6.4 4.13 6.4 4.13 7.12 2.39 7.03" fill="#a78dc1"/>
    <circle cx="2.05" cy="4.26" r=".35" fill="#1a1a1a"/>
    <circle cx="4.4" cy="4.26" r=".35" fill="#1a1a1a"/>
    <path d="M5.85,2.26H.61C2.39-.84,5.85,2.26,5.85,2.26Z" fill="#7c5ea5"/>
    <path d="M6.46,4.53a.69.69,0,0,1-.74.69A1.8,1.8,0,0,1,5,6.13a.9.9,0,0,0,.22-.6V3.13A1.92,1.92,0,0,0,3.28,1.21,1.93,1.93,0,0,0,1.22,3.13c.05.62-.15,2.66.17,2.94a1.89,1.89,0,0,1-.65-.85A.69.69,0,0,1,.61,3.84C.67,3.15.44,1.51.88.93A1.88,1.88,0,0,1,2.51,0H4A1.89,1.89,0,0,1,5.85,1.89v2A.69.69,0,0,1,6.46,4.53Z" fill="#9575b3"/>
    <path d="M3.81,7H2.71c-.24,0-.32-.3-.32-.3v.45a.33.33,0,0,0,.32.33h.41V8.65a.39.39,0,0,0,.4.39h.13A.39.39,0,0,0,4,8.65V7.5a.29.29,0,0,0,0-.09.31.31,0,0,0,.12-.24V6.71S4.07,7,3.81,7Z" fill="#9575b3"/>
</svg>
