<svg xmlns="http://www.w3.org/2000/svg" viewBox="0 0 47.9 46.4">
  <rect fill="#bca48f" x="2.9" y="10.1" width="42.1" height="34.67" rx="3.6"/>
  <g fill="#d1b79b">
    <path d="M46.8,15H1.2a1.4,1.4,0,0,1-.9-2.2L10.4.5a1.2,1.2,0,0,1,1-.5H36.6a1.6,1.6,0,0,1,1,.5l10,12.3A1.3,1.3,0,0,1,46.8,15Z"/>
    <path d="M8,22.3h4.8v9.3H9.4c-.8,0-1.4-.4-1.4-1Z"/>
    <path d="M18.7,22.3v8.3c0,.6-.6,1-1.4,1H13.9V22.3Z"/>
    <path d="M9.4,17.9h3.4v3.7H8V18.9C8,18.3,8.6,17.9,9.4,17.9Z"/>
    <path d="M18.7,18.9v2.7H13.9V17.9h3.4C18.1,17.9,18.7,18.3,18.7,18.9Z"/>
    <path d="M29.2,22.4h4.9v9.3H30.6c-.7,0-1.4-.5-1.4-1.1Z"/>
    <path d="M40,22.4v8.2c0,.6-.7,1.1-1.5,1.1H35.1V22.4Z"/>
    <path d="M30.6,17.9h3.5v3.7H29.2V18.9C29.2,18.3,29.9,17.9,30.6,17.9Z"/>
    <path d="M40,18.9v2.7H35.1V17.9h3.4C39.3,17.9,40,18.3,40,18.9Z"/>
  </g>
  <path fill="#fff" d="M46.3,36.1c.6,0,1-.3,1-.7V34.2c0-.4-.4-.7-1-.7H1.7c-.6,0-1.1.3-1.1.7v1.2c0,.4.5.7,1.1.7H2.9v7.7H1.7c-.6,0-1.1.3-1.1.7v1.2c0,.4.5.7,1.1.7H46.3c.6,0,1-.3,1-.7V44.5c0-.4-.4-.7-1-.7H45.1V36.1Zm-39.4,0h3.6v7.7H6.9Zm7.7,0h3.5v7.7H14.6Zm7.6,0h3.6v7.7H22.2Zm7.6,0h3.6v7.7H29.8Zm11.3,7.7H37.5V36.1h3.6Z" />
</svg>
