<svg xmlns="http://www.w3.org/2000/svg" viewBox="0 0 42.4 49.5">
  <rect fill="#d1b79b" x="3.8" y="16.8" width="34" height="32.7" rx="3.4"/>
  <g fill="#bca48f">
    <path d="M20,.4.7,16.6A1.9,1.9,0,0,0,1.9,20H40.5a1.9,1.9,0,0,0,1.2-3.4L22.4.4A2.1,2.1,0,0,0,20,.4Z" />
    <path d="M18.3,35.2h5.9a3.9,3.9,0,0,1,3.9,3.9V49.5a0,0,0,0,1,0,0H14.3a0,0,0,0,1,0,0V39.1A3.9,3.9,0,0,1,18.3,35.2Z" />
  </g>
  <rect fill="#d1b79b" x="29.5" y="3.1" width="4.2" height="9.69" rx="1.5"/>
  <path fill="#fff" d="M39,30.9v1a.8.8,0,0,1-.7.8H33.8a.7.7,0,0,0-.7.7V48.8a.8.8,0,0,1-.8.7H30.8a.7.7,0,0,1-.7-.7V33.4a.7.7,0,0,0-.7-.7H13.2a.7.7,0,0,0-.7.7V48.8a.8.8,0,0,1-.8.7H10.3a.7.7,0,0,1-.8-.7V33.4a.7.7,0,0,0-.7-.7H3.6a.8.8,0,0,1-.8-.8v-1a.8.8,0,0,1,.8-.8H38.3A.8.8,0,0,1,39,30.9Z"/>
</svg>
