<svg xmlns="http://www.w3.org/2000/svg" viewBox="0 0 4.324 4.834">
  <g>
    <path d="M.451,3.062v.9a.1.1,0,0,1-.094.112s-.346,0-.357-.007V2.957C.011,2.952.451,3,.451,3.062Z" fill="#1a1a1a"/>
    <path d="M4.324,2.954V4.071c-.008,0-.349,0-.349,0a.1.1,0,0,1-.094-.112v-.9C3.881,3,4.316,2.951,4.324,2.954Z" fill="#1a1a1a"/>
    <path d="M4.324,2.6v.527H0V2.6A1.568,1.568,0,0,1,1.563,1.04h1.2A1.564,1.564,0,0,1,4.324,2.6Z" fill="#b1423e"/>
    <circle cx="2.166" cy="1.081" r="1.081" fill="#a43737"/>
    <circle cx="2.171" cy="4.224" r="0.084" fill="#8f2a32"/>
    <circle cx="1.166" cy="4.571" r="0.263" fill="#1a1a1a"/>
    <circle cx="3.148" cy="4.571" r="0.263" fill="#1a1a1a"/>
  </g>
</svg>
