<svg xmlns="http://www.w3.org/2000/svg" viewBox="0 0 5.766 7.231">
    <circle cx="4.558" cy="1.208" r="1.208" fill="#9575b3"/>
    <path d="M1.8,5.129a.282.282,0,1,1-.283-.283A.282.282,0,0,1,1.8,5.129Z" fill="#1a1a1a"/>
    <path d="M2.568,3.405V4.658c0,.086.048.156.108.156,0,0,.4,0,.407-.011V4.6s1.271-.355.847,1.087V7.231A1.775,1.775,0,0,0,5.11,5.559V3.1A25.324,25.324,0,0,0,2.568,3.405Z" fill="#1a1a1a"/>
    <path d="M3.93,5.117v.115a.458.458,0,0,1-.458.458h-.2a.125.125,0,0,1-.125-.125V4.742a.125.125,0,0,1,.125-.125H3.43A.5.5,0,0,1,3.93,5.117Z" fill="#8f715b"/>
    <path d="M5.11,2.8v.682H0V2.8A1.774,1.774,0,0,1,1.774,1.026H3.336A1.775,1.775,0,0,1,5.11,2.8Z" fill="#7c5ea5"/>
    <path d="M.076,4.917a.1.1,0,0,1-.076,0V4.736a.1.1,0,0,1,.128.052A.1.1,0,0,1,.076,4.917Z" fill="#8f2a32"/>
</svg>
