<svg xmlns="http://www.w3.org/2000/svg" viewBox="0 0 4.32 4.83">
    <circle cx="2.17" cy="1.08" r="1.08" fill="#a43737"/>
    <path d="M.45,3.06V4c0,.07,0,.12-.09.12H0V3S.45,3,.45,3.06Z" fill="#1a1a1a"/>
    <path d="M4.32,3V4.07H4c-.06,0-.1,0-.1-.12v-.9C3.88,3,4.32,3,4.32,3Z" fill="#1a1a1a"/>
    <path d="M4.32,2.6v.53H0V2.6A1.57,1.57,0,0,1,1.56,1h1.2A1.56,1.56,0,0,1,4.32,2.6Z" fill="#b1423e"/>
    <circle cx="2.17" cy="4.22" r="0.08" fill="#8f2a32"/>
    <circle cx="1.17" cy="4.57" r="0.26" fill="#1a1a1a"/>
    <circle cx="3.15" cy="4.57" r="0.26" fill="#1a1a1a"/>
</svg>
