<svg xmlns="http://www.w3.org/2000/svg" viewBox="0 0 740.9 236.5">
    <path d="M46.9,41H9.4A3.5,3.5,0,0,0,6,44.5H6V102a3.4,3.4,0,0,0,3.4,3.4h.1A3.4,3.4,0,0,0,13,102V48H44.7Z" fill="#12484f"/>
    <path d="M721.1,89.1H460.9c0-6.2.1-12.5.1-18.7s1.9-41.8,17-59.9c4.9-5.7,9.7-7.9,13.3-8.8L721.1,0c10.6,0,19.3,17,19.3,37.9V51.1c0,21-8.7,38-19.3,38Z" fill="#3d8284"/>
    <rect y="56.6" width="20" height="56" rx="7.8" fill="#3d8284"/>
    <rect x="30.2" y="115.6" width="687.4" height="15.35" rx="5.2" fill="#7f7f7f"/>
    <rect x="40.8" y="157.4" width="687.4" height="53.55" rx="9.6" fill="#12484f"/>
    <path d="M381,103.9H49.4c.1-7.3.2-14.6.2-21.8S52,33.2,71.3,12.2C77.4,5.4,83.5,2.9,88.2,1.9L381,0c13.6,0,24.6,19.8,24.6,44.2V59.6c0,24.5-11,44.3-24.6,44.3Z" fill="#3d8284"/>
    <path d="M86.3,20.6H727a13.8,13.8,0,0,1,13.9,13.8V179.2A13.9,13.9,0,0,1,727,193.1H42a13.9,13.9,0,0,1-13.9-13.9V78.8A58.3,58.3,0,0,1,86.3,20.6Z" fill="#1c5e6a"/>
    <rect x="641.8" y="41.4" width="72.8" height="77.48" rx="9" fill="#3d8284"/>
    <path d="M714.7,50.4V78.6H641.8V50.4a9.1,9.1,0,0,1,9.1-9h54.7A9,9,0,0,1,714.7,50.4Z" fill="#12484f"/>
    <rect x="562.3" y="41.4" width="72.8" height="77.48" rx="9" fill="#3d8284"/>
    <path d="M635.1,50.4V78.6H562.3V50.4a9,9,0,0,1,9-9h54.8A9,9,0,0,1,635.1,50.4Z" fill="#12484f"/>
    <path d="M413.8,39.4h33.4a16,16,0,0,1,16,16V185.8a0,0,0,0,1,0,0H397.8a0,0,0,0,1,0,0V55.4A16,16,0,0,1,413.8,39.4Z" fill="#3d8284"/>
    <path d="M482.2,39.4h33.4a16,16,0,0,1,16,16V185.8a0,0,0,0,1,0,0H466.2a0,0,0,0,1,0,0V55.4A16,16,0,0,1,482.2,39.4Z" fill="#3d8284"/>
    <rect x="406.7" y="51.6" width="47.6" height="58.55" rx="8.2" fill="#12484f"/>
    <rect x="475.1" y="51.6" width="47.6" height="58.55" rx="8.2" fill="#12484f"/>
    <path d="M65.4,39.4H98.9a16,16,0,0,1,16,16V185.8a0,0,0,0,1,0,0H49.4a0,0,0,0,1,0,0V55.4A16,16,0,0,1,65.4,39.4Z" fill="#3d8284"/>
    <path d="M133.8,39.4h33.4a16,16,0,0,1,16,16V185.8a0,0,0,0,1,0,0H117.8a0,0,0,0,1,0,0V55.4A16,16,0,0,1,133.8,39.4Z" fill="#3d8284"/>
    <rect x="58.3" y="51.6" width="47.6" height="58.55" rx="8.2" fill="#12484f"/>
    <rect x="126.8" y="51.6" width="47.6" height="58.55" rx="8.2" fill="#12484f"/>
    <circle cx="256.3" cy="193.1" r="43.4" fill="#3d8284"/>
    <circle cx="256.3" cy="193.2" r="30.8" fill="#12484f"/>
    <circle cx="605.7" cy="193.1" r="43.4" fill="#3d8284"/>
    <circle cx="605.7" cy="193.2" r="30.8" fill="#12484f"/>
    <rect x="299" y="41.4" width="72.8" height="77.48" rx="9" fill="#3d8284"/>
    <path d="M371.8,50.4V78.6H299V50.4a9,9,0,0,1,9-9h54.8A9,9,0,0,1,371.8,50.4Z" fill="#12484f"/>
    <rect x="218.2" y="41.4" width="72.8" height="77.48" rx="9" fill="#3d8284"/>
    <path d="M291,50.4V78.6H218.2V50.4a9,9,0,0,1,9-9H282A9,9,0,0,1,291,50.4Z" fill="#12484f"/>
</svg>
