<svg xmlns="http://www.w3.org/2000/svg" viewBox="0 0 61.4 57.9">
    <path d="M59.9,18.6H1.8A1.6,1.6,0,0,1,.7,15.9L13.5.6A1.6,1.6,0,0,1,14.8,0H46.9a1.8,1.8,0,0,1,1.3.6L61,15.9A1.6,1.6,0,0,1,59.9,18.6Z" fill="#b0c465"/>
    <path d="M56,17.6,46.3,4.5a2,2,0,0,0-1.2-.6H16.6a1.7,1.7,0,0,0-1.1.6L5.7,17.6H.9V56.7H61V17.6Z" fill="#94b241"/>
    <path d="M11.2,26.9h8.2a3.7,3.7,0,0,1,3.7,3.7V56.7a0,0,0,0,1,0,0H7.5a0,0,0,0,1,0,0V30.5A3.7,3.7,0,0,1,11.2,26.9Z" fill="#b0c465"/>
    <path d="M30.1,33h5.7V44H31.7c-.9,0-1.6-.5-1.6-1.2Z" fill="#839936"/>
    <path d="M42.7,33v9.8c0,.7-.8,1.2-1.7,1.2H37V33Z" fill="#839936"/>
    <path d="M31.7,27.6h4.1V32H30.1V28.8A1.5,1.5,0,0,1,31.7,27.6Z" fill="#839936"/>
    <path d="M42.7,28.8V32H37V27.6h4C41.9,27.6,42.7,28.2,42.7,28.8Z" fill="#839936"/>
    <rect y="55.9" width="61.4" height="1.95" rx="0.9" fill="#839936"/>
</svg>
