<svg xmlns="http://www.w3.org/2000/svg" viewBox="0 0 90.2 50.5">
    <rect x="3.9" y="12.5" width="81.7" height="36.12" fill="#b0c465"/>
    <path d="M38.8,25.7H51.2A1.3,1.3,0,0,1,52.5,27V48.6a0,0,0,0,1,0,0h-15a0,0,0,0,1,0,0V27A1.3,1.3,0,0,1,38.8,25.7Z" fill="#94b241"/>
    <g>
      <path d="M38.2,36.7H34.1V14.2H28.8V36.7H.9a.8.8,0,0,0-.9.7v1.3a.8.8,0,0,0,.9.8h1v8.2H.9a.8.8,0,0,0-.9.7v1.3a.8.8,0,0,0,.9.8H38.2a.8.8,0,0,0,.9-.8V48.4a.8.8,0,0,0-.9-.7h-1V39.5h1a.8.8,0,0,0,.9-.8V37.4A.8.8,0,0,0,38.2,36.7ZM8.3,47.7h-3V39.5h3Zm6.4,0h-3V39.5h3Zm6.4,0H18V39.5h3.1Zm6.3,0h-3V39.5h3Zm6.4,0h-3V39.5h3Z" fill="#fff"/>
      <path d="M89.3,39.5a.8.8,0,0,0,.9-.7V37.5a.8.8,0,0,0-.9-.8h-28V14.2H56V36.7H52a.8.8,0,0,0-.9.8v1.3a.8.8,0,0,0,.9.7h1v8.2H52a.8.8,0,0,0-.9.8v1.3a.8.8,0,0,0,.9.7H89.3a.8.8,0,0,0,.9-.7V48.5a.8.8,0,0,0-.9-.8h-1V39.5ZM59.4,47.7h-3V39.5h3Zm6.4,0h-3V39.5h3Zm6.4,0h-3V39.5h3Zm6.4,0H75.5V39.5h3.1Zm6.3,0h-3V39.5h3Z" fill="#fff"/>
    </g>
    <path d="M84.7,14.1H4.9c-1.8,0-2.7-1.2-1.5-2L21,.5A3.2,3.2,0,0,1,22.8,0h44a3.5,3.5,0,0,1,1.8.5L86.2,12.1C87.4,12.9,86.5,14.1,84.7,14.1Z" fill="#839936"/>
    <rect x="10.4" y="18.4" width="11.9" height="13.99" rx="1.3" fill="#94b241"/>
    <path d="M11.6,18.4h9.5a1.2,1.2,0,0,1,1.2,1.2v5.1a0,0,0,0,1,0,0H10.4a0,0,0,0,1,0,0V19.6A1.2,1.2,0,0,1,11.6,18.4Z" fill="#839936"/>
    <rect x="67.7" y="18.5" width="11.9" height="13.99" rx="1.3" fill="#94b241"/>
    <path d="M68.9,18.5h9.5a1.2,1.2,0,0,1,1.2,1.2v5.1a0,0,0,0,1,0,0H67.7a0,0,0,0,1,0,0V19.7A1.2,1.2,0,0,1,68.9,18.5Z" fill="#839936"/>
</svg>
