<svg xmlns="http://www.w3.org/2000/svg" viewBox="0 0 44.6 57.2">
    <rect x="1.6" y="16.8" width="41.4" height="39.82" rx="4.1" fill="#839936"/>
    <path d="M9.7,22.5h1.1a2.7,2.7,0,0,1,2.7,2.7v9a0,0,0,0,1,0,0H7.1a0,0,0,0,1,0,0v-9A2.7,2.7,0,0,1,9.7,22.5Z" fill="#b0c465"/>
    <path d="M34.7,22.5h1.1a2.7,2.7,0,0,1,2.7,2.7v9a0,0,0,0,1,0,0H32.1a0,0,0,0,1,0,0v-9A2.7,2.7,0,0,1,34.7,22.5Z" fill="#b0c465"/>
    <path d="M21,.5.7,17.1A2,2,0,0,0,2,20.7H42.6a2,2,0,0,0,1.2-3.6L23.6.5A1.9,1.9,0,0,0,21,.5Z" fill="#94b241"/>
    <path d="M44.5,34v1.2a1,1,0,0,1-.9,1H38.2a.9.9,0,0,0-.9.9V55.8a1,1,0,0,1-1,.9H34.5a.9.9,0,0,1-.9-.9V37.1a.9.9,0,0,0-.9-.9H13.1a.9.9,0,0,0-.9.9V55.8a.9.9,0,0,1-.9.9H9.5a.9.9,0,0,1-.9-.9V37.1a1,1,0,0,0-1-.9H1.3a1,1,0,0,1-.9-1V34a.9.9,0,0,1,.9-.9H43.6A.9.9,0,0,1,44.5,34Z" fill="#fff"/>
    <path d="M42.3,55.4H31.9V42a3.4,3.4,0,0,0-3.4-3.4H26.9A3.4,3.4,0,0,0,23.6,42V55.4H22.1V42a3.4,3.4,0,0,0-3.4-3.3H17.2A3.4,3.4,0,0,0,13.8,42V55.4H2.4a.7.7,0,0,0-.7.7v.4a.7.7,0,0,0,.7.7H42.3a.7.7,0,0,0,.7-.7v-.4A.7.7,0,0,0,42.3,55.4Z" fill="#94b241"/>
</svg>
