<svg xmlns="http://www.w3.org/2000/svg" viewBox="0 0 30.4 37.1">
  <g>
    <path d="M17.2,25.8H12.9s-2.8,9.9-2.5,10.6a1.6,1.6,0,0,0,2.2.3c.5-.7.9-.8,1.2-.6s.5,1,1.3,1h0c.8,0,.9-.7,1.2-1s.8-.1,1.3.6,1.8.3,2.1-.3S17.2,25.8,17.2,25.8ZM13,33.5c-.6,3-2,2.8-1.4-.2S13.5,30.5,13,33.5Zm2,2.2c-1.3.1-1.3-5.8,0-5.7S16.3,35.8,15,35.7Zm3.3,0c-.9.3-1.7-4.5-.8-4.6S19.2,35.6,18.3,35.7Z" fill="#144850"/>
    <path d="M13.7,28.2c-7,1-13.8-4.3-13.7-11S6.7,5.1,13.7,6.2C.1,8.2.1,26.2,13.7,28.2Z" fill="#185357"/>
    <path d="M30.4,17.2c.1,6.7-6.5,11.9-13.5,11C30.7,26.4,30.7,8,16.9,6.1,23.9,5.2,30.5,10.5,30.4,17.2Z" fill="#185357"/>
    <path d="M15.2,27.9l-1.5.3c-13.6-2-13.6-20,0-22l1.5.2C3.7,9.5,3.7,24.8,15.2,27.9Z" fill="#3f8385"/>
    <path d="M23.9,17.2a11.3,11.3,0,0,1-8.7,10.7h0C3.7,24.8,3.7,9.5,15.2,6.4h0A11.5,11.5,0,0,1,23.9,17.2Z" fill="#1c5e6a"/>
    <path d="M27.4,17.2c0,5.6-4.6,10.3-10.5,11h0a5.1,5.1,0,0,1-1.7-.3c11.5-3.1,11.5-18.4,0-21.5l1.7-.3h0C22.8,6.8,27.4,11.5,27.4,17.2Z" fill="#3f8385"/>
    <path d="M15.2,27.9a5.1,5.1,0,0,0,1.7.3,11.4,11.4,0,0,1-3.2,0l1.5-.3Z" fill="#3f8385"/>
    <path d="M15.2,6.4l-1.5-.2a11.5,11.5,0,0,1,3.2-.1l-1.7.3Z" fill="#3f8385"/>
    <path d="M15.6,4.2V.6a.6.6,0,0,0-1.2,0V4.2c-3.8.5-3,3.7.7,3.7S19.6,4.6,15.6,4.2Z" fill="#144850"/>
  </g>
</svg>
