<svg xmlns="http://www.w3.org/2000/svg" viewBox="0 0 33.6 102.6">
  <g>
    <path d="M33.1,96l-.4-2.5V93l-.2-1.5V91l-.2-1.4V89l-.2-1.5v-.6l-.2-1.4v-.6l-.2-1.2v-.6l-.2-1.3v-.6l-.3-1.4v-.6l-.3-1.5v-.5L30,75.7v-.5l-.3-1.5v-.5l-.3-1.4v-.6l-.3-1.4v-.6l-.2-1.4v-.6l-.2-1.3v-.5L28.3,64v-.5L28,62v-.5L27.7,60v-.6L27.4,58v-.6L27.1,56v-.6L26.8,54v-.5l-.2-1.7v-.7l-.3-1.9v-.7l-.3-1.9v-.7L25.3,44v-.8l-.3-1.8v-.8L24.6,39l-.2-.8-.2-1.7v-.7l-.3-1.9v-.7l-.3-2v-.7L23,28.6v-.7L22.6,26v-.7l-.3-1.9v-.7l-.2-1.9-.2-.7-.2-1.9v-.7l-.3-1.7v-.7l-.3-1.8v-.7l-.2-1.9-.2-.7L20,8.1l-.2-.8-.2-1.8V4.7l-.3-1.8V1.4A1.5,1.5,0,0,0,18.2.3a1.1,1.1,0,0,0-.8-.3,1.2,1.2,0,0,0-.9.3,1.4,1.4,0,0,0-.7,1.1V2.9l-.3,1.8v.8l-.3,1.8v.8L14.5,10v.7l-.3,1.9v.7l-.3,1.8v.7l-.2,1.7v.7L13,20.1v.7l-.3,1.9v.7l-.3,1.9V26l-.3,1.9v.7l-.3,1.9v.7l-.3,2v.7l-.2,1.9-.2.7-.2,1.7V39l-.3,1.6v.8l-.3,1.8V44l-.3,1.9v.7l-.2,1.9-.2.7-.2,1.9v.7L8,53.5V54l-.2,1.4V56l-.2,1.4V58l-.2,1.4V60l-.2,1.5V62l-.2,1.5V64l-.2,1.4v.5L6,67.2v.6l-.2,1.4v.6l-.2,1.4v.6l-.2,1.4v.5l-.2,1.5v.5l-.2,1.5v.5l-.2,1.5v.6l-.2,1.4v.6l-.2,1.3v.6l-.2,1.2v.6L3,86.9v.6L2.7,89v.6L2.4,91v.5L2.1,93v.5L1.7,96A1.4,1.4,0,0,0,2,97.3a1.6,1.6,0,0,0,1.3.6H31.5a1.6,1.6,0,0,0,1.2-.6A1.8,1.8,0,0,0,33.1,96ZM17.3,2.9h.1l.3,1.8H17Zm-.4,2.6h.9l.3,1.8H16.6Zm-.4,2.6h1.7l.3,1.9H16.2Zm-.4,2.6h2.5l.3,1.9h-3Zm-.4,2.6H19l.2,1.8H15.5Zm-.3,2.5h4l.2,1.7H15.1ZM15,18.2h4.7l.3,1.9H14.7Zm-.4,2.6h5.5l.3,1.9h-6Zm-.4,2.6h6.3l.3,1.9H14ZM13.9,26h7l.3,1.9H13.6Zm-.4,2.6h7.8l.2,1.9H13.2Zm-.4,2.6h8.6l.2,2H12.8Zm-.4,2.7h9.4l.2,1.9H12.4Zm-.4,2.6H22.4l.3,1.7H12ZM11.9,39H22.8l.3,1.6H11.7Zm-.3,2.4H23.2l.2,1.8H11.3ZM11.2,44H23.6l.2,1.9H10.9Zm-.4,2.6H24l.2,1.9H10.5Zm-.4,2.6H24.3l.3,1.9H10.1ZM10,51.8H24.7l.3,1.7H9.8ZM9.7,54H25.1l.2,1.4H9.5Zm-.3,2H25.3l.3,1.4H9.2Zm-.3,2H25.6l.3,1.4H8.9Zm-.3,2H25.9l.3,1.5H8.6Zm-.3,2H26.2l.3,1.5H8.3Zm-.3,2H26.5l.2,1.4H8Zm-.3,1.9H26.8l.2,1.3H7.7Zm-.3,1.9H27.1l.2,1.4H7.4Zm-.3,2H27.4l.2,1.4H7.1Zm-.3,2H27.7l.2,1.4H6.8Zm-.3,1.9H28l.2,1.5H6.5Zm-.3,2H28.3l.2,1.5H6.2Zm-.3,2H28.6l.2,1.5H5.9Zm-.3,2.1H28.9l.2,1.4H5.6Zm-.3,2H29.2l.2,1.3H5.3Zm-.2,1.9H29.5l.2,1.2H5.1ZM5,85.5H29.7l.3,1.4H4.8Zm-.3,2H30l.3,1.5H4.5Zm-.3,2.1H30.3l.3,1.4H4.2Zm-.3,1.9H30.6l.3,1.5H3.9Zm-.7,4.7.4-2.7H30.9l.4,2.7Z" fill="#1c5e6a"/>
    <rect y="94.9" width="33.6" height="7.7" rx="2.2" fill="#3f8385"/>
  </g>
</svg>
