<svg xmlns="http://www.w3.org/2000/svg" viewBox="0 0 187.2 476">
    <path class="fst-color" d="M84.2,450.3c1.3,34.7-1.9,23.6-37.9,25.4C35,476,40,456.5,39,450.1,42.2,451.6,80.7,451.2,84.2,450.3Z" />
    <path class="fst-color" d="M148,449.7c-1,6.5,4.1,26.3-7.3,26-35.9-1.8-39.2,9.3-37.9-25.2C106.6,450.8,144.9,452,148,449.7Z" />
    <path class="trd-color" d="M152,162.7V441.8a9.3,9.3,0,0,1-4,7.9c-1.1.8-108,.9-109,.4a9.3,9.3,0,0,1-4.5-8.3V162.7C34.5,157.7,152,157.7,152,162.7Z" />
    <path class="scd-color" d="M187,28.2v180a6.5,6.5,0,0,1-6.5,6.5c-5.4-.5-17.4,2.3-17.2-6.5V52.5c-1-6.4-9.4-4.9-7.9,3.4,4.3,14.6,13.6,28.4,0,34.5V207.8a6.9,6.9,0,0,1-6.9,6.9H38.5a6.9,6.9,0,0,1-6.9-6.9V90.2c-13.7-6.1-4.3-20.1,0-34.7,1.5-7.6-6.8-9.6-7.9-3V208.4c.2,8.6-12.3,5.9-17.4,6.3A6.3,6.3,0,0,1,0,208.4V31.7c.1-2.2,0-5.2,0-7.3A24.4,24.4,0,0,1,24.4,0H162.7C177.8-.1,188.6,13.5,187,28.2Z" />
</svg>
