<svg xmlns="http://www.w3.org/2000/svg" viewBox="0 0 18.15 68.77">
    <path d="M18.06,36.85v2.32a.91.91,0,0,1-.84,1H17a.91.91,0,0,1-.85-1v-.94l0,.15c0,.13-.11.23-.2.23l-.06,0c-.12,0-.18-.22-.15-.39L16,36.75a.59.59,0,0,0,.4.15H17.5a.64.64,0,0,0,.53-.29A.93.93,0,0,1,18.06,36.85Z" />
    <path d="M2.21,39.31h0c-.09,0-.17-.08-.19-.21l0-.13v.86a.83.83,0,0,1-.77.89H.94a.84.84,0,0,1-.78-.89V37.71a.77.77,0,0,1,0-.15.56.56,0,0,0,.43.21H1.7a.58.58,0,0,0,.39-.17L2.35,39A.32.32,0,0,1,2.21,39.31Z" />
    <rect x="3.98" y="44.96" width="2.48" height="20.81" />
    <rect x="11.5" y="43.67" width="1.94" height="22.68" fill="#bcbcbb"/>
    <path d="M13.83,63.31H11.11L10.53,57a1,1,0,0,1,1-1h1.78a1,1,0,0,1,1,1C14.17,59.12,14,61.22,13.83,63.31Z" fill="#a9a9aa"/>
    <rect x="9.82" y="44.57" width="5.23" height="7.63" rx="0.76" fill="#858585"/>
    <rect x="10.53" y="65.09" width="3.94" height="3.68" rx="0.62" fill="#434342"/>
    <rect x="3.23" y="65.06" width="3.94" height="3.68" rx="0.62" class="fst-color"/>
    <line x1="3.84" y1="65.51" x2="6.56" y2="65.51" fill="none" stroke="#fff" stroke-linecap="round" stroke-miterlimit="10" stroke-width="0.06"/>
    <line x1="3.83" y1="65.74" x2="6.56" y2="65.74" fill="none" stroke="#fff" stroke-linecap="round" stroke-miterlimit="10" stroke-width="0.06"/>
    <path d="M18.15,37a.83.83,0,0,1-.14.45.62.62,0,0,1-.5.28h-1a.65.65,0,0,1-.37-.14.78.78,0,0,1-.26-.59V19.65a.38.38,0,1,0-.76,0v1.52c.46.41.79.84.63,1.14a1.68,1.68,0,0,1-.63.61v8.21a1.09,1.09,0,0,1,.36.83V46.27a.3.3,0,0,1,.17.27.29.29,0,0,1-.09.21.28.28,0,0,1-.2.08H2.81a.29.29,0,0,1-.28-.29.28.28,0,0,1,.08-.2.25.25,0,0,1,.12-.08V32a1.09,1.09,0,0,1,.34-.82v-8.2a1.71,1.71,0,0,1-.66-.61c-.15-.31.19-.75.66-1.16V19.65a.42.42,0,0,0-.38-.44.42.42,0,0,0-.39.44V37.07a.75.75,0,0,1-.21.53.58.58,0,0,1-.39.17H.61a.56.56,0,0,1-.43-.21A.76.76,0,0,1,0,37.07V16.5a2.56,2.56,0,0,1,2.36-2.72H15.78a2.56,2.56,0,0,1,2.37,2.72Z" class="scd-color"/>
    <path d="M15.53,8.68A1.34,1.34,0,0,1,14.12,10a3.77,3.77,0,0,1-3.92,2.31c0,1,.3,2-1.17,1.79-.85,0-.54-1.29-.59-1.79A3.74,3.74,0,0,1,4.58,10a1.34,1.34,0,0,1-.24-2.66C4.34,4.31,3.69.06,8,0a13.34,13.34,0,0,1,4.58.48h0C15,1.61,14.28,5.25,14.36,7.35A1.33,1.33,0,0,1,15.53,8.68Z" />
    <path d="M7.67,8.08a.6.6,0,1,1-1.2,0,.6.6,0,0,1,1.2,0Z" fill="#1a1a1a"/>
    <path d="M12.24,8.08a.61.61,0,1,1-1.21,0,.61.61,0,0,1,1.21,0Z" fill="#1a1a1a"/>
</svg>
