<svg xmlns="http://www.w3.org/2000/svg" viewBox="0 0 14.98 64.98">
    <rect x="4.17" y="39.09" width="2.99" height="22.41"/>
    <rect x="2.84" y="60.52" width="4.91" height="3.34" rx="0.66" class="fst-color"/>
    <rect x="6.44" y="16.25" width="2.58" height="21.37" rx="0.96" fill="#5b8571"/>
    <rect x="9.06" y="39.92" width="1.89" height="22.1" fill="#bcbcbb"/>
    <path d="M11.33,59.06H8.68l-.56-6.12a1,1,0,0,1,1-1h1.73a1,1,0,0,1,1,1Q11.58,56,11.33,59.06Z" fill="#a9a9aa"/>
    <rect x="7.42" y="40.8" width="5.1" height="7.43" rx="0.74" fill="#858585"/>
    <path d="M14.75,44.56h.05V36.37a1.87,1.87,0,0,0-.43-1.18v-19a2.07,2.07,0,0,0-2.07-2.07h-9a2.07,2.07,0,0,0-2.07,2.07v1.64c-.63.95-1.79,2.9-.89,3a3.77,3.77,0,0,0,.89,0V36a2.21,2.21,0,0,0,0,.37v8.16h0a.32.32,0,1,0,0,.63h13.5a.32.32,0,0,0,.32-.32A.31.31,0,0,0,14.75,44.56Z" class="fst-color"/>
    <rect x="6.92" y="61.5" width="4.91" height="3.48" rx="0.67" fill="#434342"/>
    <path d="M6.48,38.88h.06a.22.22,0,0,0,.21-.2l0-.13v.84a.86.86,0,0,0,.87.86h.26a.85.85,0,0,0,.86-.86V37.32a.86.86,0,0,0-.86-.86s-1.18.23-1.21.38l-.37,1.69A.29.29,0,0,0,6.48,38.88Z"/>
    <rect x="6.4" y="15.77" width="2.58" height="21.37" rx="0.96" class="scd-color"/>
    <path d="M2.21,3.62V9.25a3.62,3.62,0,0,0,3.62,3.62h.79v1a.75.75,0,0,0,.75.75h.34a.76.76,0,0,0,.76-.75v-1H9a3.62,3.62,0,0,0,3.62-3.62V3.62A3.62,3.62,0,0,0,9,0H5.83A3.62,3.62,0,0,0,2.21,3.62Z"/>
</svg>
