<svg xmlns="http://www.w3.org/2000/svg" viewBox="0 0 12.78 63.6">
  <g>
<!--    <rect x="7" y="38.46" width="2.9" height="21.77" transform="translate(16.91 98.68) rotate(-180)" fill="#ecc89b"/>-->
<!--    <rect x="6.43" y="59.28" width="4.77" height="3.24" rx="0.64" transform="translate(17.64 121.8) rotate(-180)" fill="#ffe181"/>-->
<!--    <polyline points="3.33 60.73 5.16 60.73 5.16 39.27 3.33 39.27" fill="#bcbcbb"/>-->
<!--    <path d="M3,57.85H5.53l.55-5.94a1,1,0,0,0-1-1H3.44a1,1,0,0,0-1,1C2.63,53.89,2.8,55.87,3,57.85Z" fill="#a9a9aa"/>-->
<!--    <rect x="1.8" y="40.12" width="4.95" height="7.22" rx="0.72" transform="translate(8.55 87.46) rotate(-180)" fill="#858585"/>-->
<!--    <rect x="2.47" y="60.22" width="4.77" height="3.38" rx="0.65" transform="translate(9.7 123.82) rotate(-180)" fill="#ffe181"/>-->
    <path d="M12,42.46V35.12H5.77v7.3h0a.3.3,0,0,0,0,.6h6.15a.3.3,0,0,0,.31-.3A.28.28,0,0,0,12,42.46Z" fill="#ddb94b"/>
    <path d="M7.32,43.38V35.12H1.1v8.26a.29.29,0,0,0-.27.29.3.3,0,0,0,.31.3H7.29a.3.3,0,0,0,0-.59Z" fill="#ffdc5e"/>
<!--    <path d="M.94,14.24H11.83a.94.94,0,0,1,.94.94v19.7a2,2,0,0,1-2,2H2a2,2,0,0,1-2-2V15.19a.94.94,0,0,1,.94-.94Z" transform="translate(12.78 51.14) rotate(-180)" fill="#ffe181"/>-->
<!--    <path d="M7.67,38.25l-.06,0c-.1,0-.24-.33-.24-.33v.82a.84.84,0,0,1-.84.84H6.28a.85.85,0,0,1-.84-.84v-2a.85.85,0,0,1,.84-.84s1.14.22,1.17.37l.37,1.65A.29.29,0,0,1,7.67,38.25Z" fill="#ecc89b"/>-->
<!--    <rect x="5.25" y="15.81" width="2.5" height="20.75" rx="0.93" transform="translate(12.99 52.37) rotate(-180)" fill="#ddb94b"/>-->
<!--    <path d="M1.18,3.62V9.25A3.62,3.62,0,0,0,4.8,12.87h.79v1a.76.76,0,0,0,.75.75h.35a.76.76,0,0,0,.75-.75v-1H8a3.62,3.62,0,0,0,3.62-3.62V3.62A3.62,3.62,0,0,0,8,0H4.8A3.62,3.62,0,0,0,1.18,3.62Z" fill="#ecc89b"/>-->
  </g>
</svg>
