<svg xmlns="http://www.w3.org/2000/svg" viewBox="0 0 83.1 117.1">
    <path d="M49.5,94.7H48.4l7.9-25.5-.9-.3L47.5,94.7H44.3l3.9-17.8-.9-.2-4,18h-3V73.3h-.9V94.7H36.6L32.5,76.2l-.9.2,4,18.3H32.5L24.4,68.4l-.9.3,8,26h-.9a2,2,0,0,0-2.1,2v18.4a2,2,0,0,0,2.1,2H49.5a2,2,0,0,0,2.1-2V96.7A2,2,0,0,0,49.5,94.7Z" fill="#9c2e17"/>
    <path d="M72.6,13.9h-62l.4-.6,2.6-2.5a41.6,41.6,0,0,1,59,3.1Z" fill="#e55555"/>
    <path d="M71.6,70.3a41.3,41.3,0,0,1-30,12.8A41.7,41.7,0,0,1,14.1,72.8l-2.6-2.5Z" fill="#a388be"/>
    <path d="M80.5,56.2a40.7,40.7,0,0,1-8.9,14.1H11.4A26.9,26.9,0,0,1,8.7,67L6.8,64.4,4.9,61.2a33.9,33.9,0,0,1-1.8-3.9,11.7,11.7,0,0,0-.5-1.1Z" fill="#3b66af"/>
    <path d="M83.1,42.1a41.5,41.5,0,0,1-2.6,14.1H2.6l-.9-2.7-.3-1.2A38.6,38.6,0,0,1,0,42.1Z" fill="#adb65c"/>
    <path d="M83.1,41.6v.5H0v-.5a43.7,43.7,0,0,1,1.1-9.7,6.5,6.5,0,0,1,.4-1.3A19.8,19.8,0,0,1,2.3,28H80.9A43.1,43.1,0,0,1,83.1,41.6Z" fill="#fdd961"/>
    <path d="M80.9,28H2.3l.6-1.7a27.6,27.6,0,0,1,1.8-3.9,19.2,19.2,0,0,1,1.8-3.1,26.1,26.1,0,0,1,1.9-2.7,19.9,19.9,0,0,1,2.2-2.7h62A42.4,42.4,0,0,1,80.9,28Z" fill="#f6a353"/>
    <path d="M53.8,42h0L35.6,56.2,17.4,70.3l-3.3,2.5-2.6-2.5h-.1A26.9,26.9,0,0,1,8.7,67L6.8,64.4,4.9,61.2a33.9,33.9,0,0,1-1.8-3.9,11.7,11.7,0,0,0-.5-1.1l-.9-2.7-.3-1.2A38.6,38.6,0,0,1,0,42.1v-.5a43.7,43.7,0,0,1,1.1-9.7,6.5,6.5,0,0,1,.4-1.3A19.8,19.8,0,0,1,2.3,28l.6-1.7a27.6,27.6,0,0,1,1.8-3.9,19.2,19.2,0,0,1,1.8-3.1,26.1,26.1,0,0,1,1.9-2.7,19.9,19.9,0,0,1,2.2-2.7l.4-.6,2.6-2.5,3.9,3.1L35.7,28Z" fill="#1d2023"/>
    <path d="M47.9,41.9l-.2.2L29.5,56.2l-18.1,14A26.9,26.9,0,0,1,8.7,67L6.8,64.4,4.9,61.2a33.9,33.9,0,0,1-1.8-3.9,11.7,11.7,0,0,0-.5-1.1l-.9-2.7-.3-1.2A38.6,38.6,0,0,1,0,42.1v-.5a43.7,43.7,0,0,1,1.1-9.7,6.5,6.5,0,0,1,.4-1.3A19.8,19.8,0,0,1,2.3,28l.6-1.7a27.6,27.6,0,0,1,1.8-3.9,19.2,19.2,0,0,1,1.8-3.1,26.1,26.1,0,0,1,1.9-2.7,19.9,19.9,0,0,1,2.2-2.7l.4-.6.7.6L29.9,28Z" fill="#6e493b"/>
    <path d="M41.1,41.9l-.2.2L22.7,56.2,8.7,67,6.8,64.4,4.9,61.2a33.9,33.9,0,0,1-1.8-3.9,11.7,11.7,0,0,0-.5-1.1l-.9-2.7-.3-1.2A38.6,38.6,0,0,1,0,42.1v-.5a43.7,43.7,0,0,1,1.1-9.7,6.5,6.5,0,0,1,.4-1.3A19.8,19.8,0,0,1,2.3,28l.6-1.7a27.6,27.6,0,0,1,1.8-3.9,19.2,19.2,0,0,1,1.8-3.1,26.1,26.1,0,0,1,1.9-2.7L23.1,28Z" fill="#94b5dd"/>
    <path d="M35.7,42h-.1L17.4,56.2,6.8,64.4,4.9,61.2a33.9,33.9,0,0,1-1.8-3.9,11.7,11.7,0,0,0-.5-1.1l-.9-2.7-.3-1.2A38.6,38.6,0,0,1,0,42.1v-.5a43.7,43.7,0,0,1,1.1-9.7,6.5,6.5,0,0,1,.4-1.3A19.8,19.8,0,0,1,2.3,28l.6-1.7a27.6,27.6,0,0,1,1.8-3.9,19.2,19.2,0,0,1,1.8-3.1L17.7,28Z" fill="#f5c3ce"/>
    <path d="M29.8,41.8l-.3.3L11.3,56.2l-6.4,5a33.9,33.9,0,0,1-1.8-3.9,11.7,11.7,0,0,0-.5-1.1l-.9-2.7-.3-1.2A38.6,38.6,0,0,1,0,42.1v-.5a43.7,43.7,0,0,1,1.1-9.7,6.5,6.5,0,0,1,.4-1.3A19.8,19.8,0,0,1,2.3,28l.6-1.7a27.6,27.6,0,0,1,1.8-3.9L11.9,28Z" fill="#fff"/>
    <path d="M23,41.8l-.3.3L4.5,56.2,3.1,57.3a11.7,11.7,0,0,0-.5-1.1l-.9-2.7-.3-1.2A38.6,38.6,0,0,1,0,42.1v-.5a43.7,43.7,0,0,1,1.1-9.7,6.5,6.5,0,0,1,.4-1.3A19.8,19.8,0,0,1,2.3,28l.6-1.7L5.1,28Z" fill="#fcec61"/>
    <path d="M7.3,42.1h0c0,5.2-2.3,9.6-5.6,11.3l-.3-1.2c2.9-1.5,5-5.5,5-10.1h0c-.1-4.8-2.2-8.8-5.3-10.2a6.5,6.5,0,0,1,.4-1.3C4.8,32.3,7.3,36.8,7.3,42.1Z" fill="#b263a4"/>
</svg>
