<svg xmlns="http://www.w3.org/2000/svg" viewBox="0 0 56 122.1">
  <g>
    <rect x="3.5" y="3.1" width="52.5" height="38.36" fill="#e5f4fb"/>
    <rect x="3.5" y="3.1" width="52.5" height="6.39" fill="#e55555"/>
    <rect x="3.5" y="35.1" width="52.5" height="6.39" fill="#a388be"/>
    <rect x="3.5" y="28.7" width="52.5" height="6.39" fill="#3b66af"/>
    <rect x="3.5" y="22.3" width="52.5" height="6.39" fill="#adb65c"/>
    <rect x="3.5" y="15.9" width="52.5" height="6.39" fill="#fdd961"/>
    <rect x="3.5" y="9.5" width="52.5" height="6.39" fill="#f6a353"/>
    <polygon points="3.5 41.5 3.5 3.1 33.4 22.3 3.5 41.5" fill="#1d2023"/>
    <polygon points="3.5 39.3 3.5 5.1 30.1 22.2 3.5 39.3" fill="#6e493b"/>
    <polygon points="3.5 36.9 3.5 7.5 26.4 22.2 3.5 36.9" fill="#94b5dd"/>
    <polygon points="3.5 35.1 3.5 9.4 23.5 22.2 3.5 35.1" fill="#f5c3ce"/>
    <polygon points="3.5 33 3.5 11.4 20.3 22.2 3.5 33" fill="#fff"/>
    <polygon points="3.5 30.6 3.5 13.8 16.5 22.2 3.5 30.6" fill="#fcec61"/>
    <path d="M3.5,27.8v-.5c2.2-.2,3.9-2.4,3.9-5a4.7,4.7,0,0,0-3.9-4.9v-.6C6,17,8,19.4,8,22.3S6,27.7,3.5,27.8Z" fill="#b263a4"/>
    <rect width="3.7" height="122.13" rx="0.6" fill="#6e493b"/>
  </g>
</svg>
