<svg xmlns="http://www.w3.org/2000/svg" viewBox="0 0 6.38 16.22">
  <g>
    <path d="M2.87,15.35V16a.25.25,0,0,1-.25.25h-1A.25.25,0,0,1,1.33,16v-.62S2.84,15.37,2.87,15.35Z" fill="#334d94"/>
    <path d="M5.05,15.33V16a.25.25,0,0,1-.25.25h-1A.25.25,0,0,1,3.51,16v-.61S5,15.36,5.05,15.33Z" fill="#334d94"/>
    <rect x="1.6" y="15.07" width="1" height="0.81" rx="0.4" fill="#e0be9d"/>
    <rect x="3.78" y="15.07" width="1" height="0.81" rx="0.4" fill="#e0be9d"/>
    <path d="M5.18,5.55v9.52a.3.3,0,0,1-.13.26s-3.69,0-3.72,0a.32.32,0,0,1-.15-.28V5.55A15.75,15.75,0,0,1,5.18,5.55Z" fill="#425aa5"/>
    <path d="M5.62,7.79h0s.07-.11.07-.11V8A.27.27,0,0,0,6,8.23h.08A.28.28,0,0,0,6.34,8V7.31c0-.15-.64-.2-.65-.16l-.12.54A.08.08,0,0,0,5.62,7.79Z" fill="#e0be9d"/>
    <path d="M.78,7.79h0S.68,7.69.68,7.69V8a.28.28,0,0,1-.27.28H.33A.28.28,0,0,1,.06,8V7.3c0-.15.64-.2.65-.15l.12.53A.1.1,0,0,1,.78,7.79Z" fill="#e0be9d"/>
    <path d="M6.38,7.1a.22.22,0,0,1-.22.22H5.79a.22.22,0,0,1-.22-.22V1.79a.13.13,0,0,0-.14-.13.13.13,0,0,0-.13.13v.12a2.29,2.29,0,0,1,.23.94.35.35,0,0,1-.23.23v4a.23.23,0,0,1-.24.23H1.31a.23.23,0,0,1-.23-.23v-4a.38.38,0,0,1-.24-.24,2.6,2.6,0,0,1,.24-.95v-.1a.13.13,0,0,0-.14-.13.13.13,0,0,0-.13.13V7.11a.21.21,0,0,1-.21.21H.21A.21.21,0,0,1,0,7.11V.83A.83.83,0,0,1,.83,0H5.55a.83.83,0,0,1,.83.83Z" fill="#526eb3"/>
  </g>
</svg>
