<svg xmlns="http://www.w3.org/2000/svg" viewBox="0 0 35.78 115.1">
  <g>
    <g>
      <path d="M16.1,110v3.65a1.41,1.41,0,0,1-1.41,1.4H9.09a1.4,1.4,0,0,1-1.61-1.16,1,1,0,0,1,0-.24V110.2S15.93,110.14,16.1,110Z" fill="#334e95"/>
      <path d="M28.32,109.92v3.76a1.4,1.4,0,0,1-1.4,1.4H21.31a1.42,1.42,0,0,1-1.61-1.16,1,1,0,0,1,0-.24v-3.42S28,110.09,28.32,109.92Z" fill="#334e95"/>
      <rect x="8.97" y="108.46" width="5.61" height="4.54" rx="2.24" fill="#e0be9d"/>
      <rect x="21.2" y="108.46" width="5.61" height="4.54" rx="2.24" fill="#e0be9d"/>
      <path d="M29.05,55.07v53.39a1.67,1.67,0,0,1-.73,1.46H7.46a1.79,1.79,0,0,1-.84-1.57V55.07A88.62,88.62,0,0,1,29.05,55.07Z" fill="#435ba6"/>
      <path d="M31.52,67.63h0l.39-.61v1.79a1.51,1.51,0,0,0,1.71,1.29h.48a1.57,1.57,0,0,0,1.46-1.29V64.94c0-.84-3.59-1.12-3.65-.9l-.67,3A.44.44,0,0,0,31.52,67.63Z" fill="#e0be9d"/>
      <path d="M4.37,67.63h0l-.56-.56v1.74A1.57,1.57,0,0,1,2.3,70.38H1.85A1.57,1.57,0,0,1,.34,68.81V64.88C.34,64,3.93,63.76,4,64l.67,3A.54.54,0,0,1,4.37,67.63Z" fill="#e0be9d"/>
      <path d="M35.78,63.76A1.24,1.24,0,0,1,34.55,65H32.47a1.24,1.24,0,0,1-1.23-1.24V34a.73.73,0,0,0-.73-.73h-.06a.73.73,0,0,0-.73.73h0v.68A12.83,12.83,0,0,1,31,39.93a2,2,0,0,1-1.29,1.29V63.65a1.28,1.28,0,0,1-1.28,1.29H7.35a1.29,1.29,0,0,1-1.29-1.29h0V41.22a2.13,2.13,0,0,1-1.35-1.35,14.56,14.56,0,0,1,1.35-5.33V34a.73.73,0,0,0-.73-.73H5.27a.73.73,0,0,0-.73.73V63.82A1.17,1.17,0,0,1,3.37,65H1.18A1.18,1.18,0,0,1,0,63.82H0V28.6a4.66,4.66,0,0,1,4.65-4.66H31.13a4.66,4.66,0,0,1,4.65,4.66Z" fill="#546eb4"/>
    </g>
    <path d="M29.11,15.81a2.32,2.32,0,0,1-2.57,2.42,6.83,6.83,0,0,1-7.12,4.2c-.09,1.93.64,3.56-2.13,3.26-1.56,0-1-2.35-1.08-3.26a6.77,6.77,0,0,1-7-4.2c-2.8.21-4-4.34-.45-4.83.19-2.39-.6-8.09.92-10.12C11.64-.59,16.79,0,20.39.05,28.21.59,27,7.75,27,13.41,28.18,13.55,29.11,13.93,29.11,15.81Z" fill="#63472c"/>
  </g>
</svg>
