<svg xmlns="http://www.w3.org/2000/svg" viewBox="0 0 6.4 16.2">
    <path d="M2.9,15.4V16c0,.1-.1.2-.3.2h-1c-.2,0-.3-.1-.3-.2v-.7Z" class="fst-color"/>
    <path d="M5,15.3V16a.2.2,0,0,1-.2.2h-1c-.2,0-.3-.1-.3-.2v-.6Z" class="fst-color"/>
    <rect x="1.6" y="15.1" width="1" height="0.81" rx="0.4" />
    <rect x="3.8" y="15.1" width="1" height="0.81" rx="0.4" />
    <path d="M5.2,5.5v9.6l-.2.2H1.3c-.1,0-.1-.1-.1-.2V5.5Z" class="scd-color"/>
    <path d="M5.6,7.8h.1V8c0,.1.1.2.3.2h.1L6.3,8V7.3c0-.1-.6-.2-.6-.1v.5Z" />
    <path d="M.8,7.8H.7V8c0,.1-.1.2-.3.2H.3L.1,8V7.3c0-.1.6-.2.6-.1v.5Z" />
    <path d="M6.4,7.1a.2.2,0,0,1-.2.2H5.8a.2.2,0,0,1-.2-.2V1.8c0-.1-.1-.1-.2-.1a.1.1,0,0,0-.1.1h0c.1.4.3.8.2,1s-.1.1-.2.2v4a.2.2,0,0,1-.2.2H1.3a.2.2,0,0,1-.2-.2v-4C1,3,.9,3,.8,2.8a2.3,2.3,0,0,1,.3-.9h0c0-.1-.1-.1-.2-.1a.1.1,0,0,0-.1.1V7.1a.2.2,0,0,1-.2.2H.2A.2.2,0,0,1,0,7.1V.8A.9.9,0,0,1,.8,0H5.5a.9.9,0,0,1,.9.8Z" class="trd-color"/>
</svg>
