<svg xmlns="http://www.w3.org/2000/svg" viewBox="0 0 6.309 12.76">
    <path d="M4.8,6.508A1.954,1.954,0,0,1,3.8,6.755a1.215,1.215,0,0,0,.115.893,1.241,1.241,0,0,0,.044,1.264,1.015,1.015,0,0,0,.039.916A.962.962,0,0,0,4.114,10.9a.654.654,0,0,0,.007.6c-.131.207-.067.643.142.73-.275.725.5.689.205-.009a.6.6,0,0,0,.116-.737.66.66,0,0,0,.005-.577A.958.958,0,0,0,4.7,9.793a1.025,1.025,0,0,0,.026-.863,1.237,1.237,0,0,0,.057-1.282A1.222,1.222,0,0,0,4.8,6.508Z" fill="#010101"/>
    <circle cx="1.956" cy="4.609" r="0.315" fill="#1a1a1a"/>
    <circle cx="4.336" cy="4.609" r="0.315" fill="#1a1a1a"/>
    <path d="M6.3,3.166a.414.414,0,0,1-.122.3c.588.842-.953.849-.368,0a.447.447,0,0,1-.015-.591.36.36,0,0,1-.073-.114A2.4,2.4,0,0,1,3.164.586,2.4,2.4,0,0,1,.583,2.761a.384.384,0,0,1-.08.133.447.447,0,0,1-.016.591c.254.208.074.8-.278.665V4.127l-.024.012A.434.434,0,0,1,.12,3.485.447.447,0,0,1,.1,2.894a.425.425,0,0,1,.119-.653C.458-.744,5.81-.745,6.072,2.225a.426.426,0,0,1,.117.653A.424.424,0,0,1,6.3,3.166Z" fill="#010101"/>
</svg>
