<svg xmlns="http://www.w3.org/2000/svg" viewBox="0 0 743.6 264.8">
    <path d="M46.9,43.5H9.5A3.4,3.4,0,0,0,6,47v58.1c-.1,4.4,7.1,4.5,7,0V50.5H44.7Z" fill="#c0fff3"/>
    <path d="M7.8,123.5c5.4.7,12.3-1.1,12.2-7.8V75.3a7.8,7.8,0,0,0-7.8-7.8C6.8,66.8-.1,68.6,0,75.3v40.4A7.8,7.8,0,0,0,7.8,123.5Z" fill="#59e2cf"/>
    <rect x="40.8" y="168.3" width="687.4" height="53.55" rx="9.6" fill="#c0fff3"/>
    <path d="M730.2,31.9C726.5,16.8,719.3,6.6,711,6.6L577.2,7.7C573.8,2.8,569.7,0,565.4,0L304.3,2.1C294.2,3.8,283.5,19.9,280,31.5H41.1a13,13,0,0,0-13,13V190.2A13.8,13.8,0,0,0,42,204H727a13.8,13.8,0,0,0,13.9-13.8V45.4A13.8,13.8,0,0,0,730.2,31.9Z" fill="#59e2cf"/>
    <rect x="582" y="50.4" width="84.7" height="90.11" rx="10.5" fill="#44b2a2"/>
    <rect x="489.5" y="50.4" width="84.7" height="90.11" rx="10.5" fill="#44b2a2"/>
    <rect x="395.5" y="50.4" width="84.7" height="90.11" rx="10.5" fill="#44b2a2"/>
    <rect x="302.8" y="50.4" width="84.7" height="90.11" rx="10.5" fill="#44b2a2"/>
    <path d="M140.9,61v69.1c0,5.8-5.5,10.5-12.4,10.5H53.2c-6.8,0-12.4-4.7-12.4-10.5V61c0-5.9,5.6-10.6,12.4-10.6h75.3C135.4,50.4,140.9,55.1,140.9,61Z" fill="#44b2a2"/>
    <path d="M47.4,193.6c-7.2.5-17,.5-17.2-9.1.6-7.8-3.3-24.9,9.2-24.9,7.2-.4,17-.4,17.1,9.2C56,176.5,59.9,193.7,47.4,193.6Z" fill="#c0fff3"/>
    <path d="M237,222c-1,57.1-85.8,57.1-86.8,0C151.2,164.9,236,165,237,222Z" fill="#44b2a2"/>
    <path d="M224.4,222.2c-.7,40.5-61,40.5-61.7,0S223.7,181.6,224.4,222.2Z" fill="#c0fff3"/>
    <path d="M633.6,222c-1,57.1-85.8,57.1-86.8,0C547.8,164.9,632.7,165,633.6,222Z" fill="#44b2a2"/>
    <path d="M621,222.2c-.7,40.5-61,40.5-61.7,0S620.3,181.6,621,222.2Z" fill="#c0fff3"/>
    <rect x="208.1" y="50.4" width="84.7" height="90.11" rx="10.5" fill="#44b2a2"/>
    <path d="M739.8,153.9c-3.8-4.1-715,8-713.3-4.2-.9-11.1,709.5,0,713.3-3.8C744.7,145.8,745,154,739.8,153.9Z" fill="#c0fff3"/>
</svg>
