<svg xmlns="http://www.w3.org/2000/svg" viewBox="0 0 27.4 34">
  <g>
    <path d="M3.3,4.1A3.3,3.3,0,0,0,0,7.4a3.2,3.2,0,0,0,2.6,3.2V27.1c0,.4.3.6.7.6a.6.6,0,0,0,.6-.6V10.6A3.2,3.2,0,0,0,6.5,7.4,3.2,3.2,0,0,0,3.3,4.1Z" fill="#fff"/>
    <path d="M11.2,12.6a3.3,3.3,0,0,0-.6,6.5V33.3a.6.6,0,0,0,.6.6.6.6,0,0,0,.6-.6V19.1a3.3,3.3,0,0,0-.6-6.5Z" fill="#fff"/>
    <path d="M17.6,0a3.2,3.2,0,0,0-3.2,3.3A3.2,3.2,0,0,0,17,6.5v18a.6.6,0,0,0,.6.6c.4,0,.7-.2.7-.6V6.5a3.2,3.2,0,0,0,2.6-3.2A3.3,3.3,0,0,0,17.6,0Z" fill="#fff"/>
    <path d="M27.4,16a3.2,3.2,0,0,0-3.2-3.3A3.3,3.3,0,0,0,20.9,16a3.2,3.2,0,0,0,2.6,3.2V33.3a.7.7,0,0,0,.7.7.7.7,0,0,0,.6-.7V19.2A3.2,3.2,0,0,0,27.4,16Z" fill="#fff"/>
  </g>
</svg>
