<svg xmlns="http://www.w3.org/2000/svg" viewBox="0 0 66.5 60.7">
    <rect x="8.2" y="13.5" width="49.1" height="47.18" rx="4.9" fill="#f0818f"/>
    <path d="M29,40.1h8.5a5.7,5.7,0,0,1,5.7,5.7v15a0,0,0,0,1,0,0H23.3a0,0,0,0,1,0,0v-15A5.7,5.7,0,0,1,29,40.1Z" fill="#d14f5b"/>
    <path d="M59,33.8v1.5a1.1,1.1,0,0,1-1.1,1.1H51.5a1.1,1.1,0,0,0-1.1,1.1V59.6a1.1,1.1,0,0,1-1.1,1.1H47.2a1.1,1.1,0,0,1-1.1-1.1V37.5A1.1,1.1,0,0,0,45,36.4H21.7a1.1,1.1,0,0,0-1,1.1V59.6a1.1,1.1,0,0,1-1.1,1.1H17.5a1.1,1.1,0,0,1-1.1-1.1V37.5a1.1,1.1,0,0,0-1.1-1.1H7.8a1.1,1.1,0,0,1-1.1-1.1V33.8a1.1,1.1,0,0,1,1.1-1.1H57.9A1.1,1.1,0,0,1,59,33.8Z" fill="#fff"/>
    <rect x="8.2" y="58.5" width="49" height="2.23" rx="0.8" fill="#e76871"/>
    <path d="M64.9,19.6H1.6A1.7,1.7,0,0,1,.4,16.8L14.4.7A1.7,1.7,0,0,1,15.8,0H50.7a1.7,1.7,0,0,1,1.4.7l14,16.1A1.7,1.7,0,0,1,64.9,19.6Z" fill="#e76871"/>
</svg>
