<svg xmlns="http://www.w3.org/2000/svg" viewBox="0 0 102.9 83.8">
    <rect x="56.7" y="44.1" width="40.9" height="39.29" rx="4.1" transform="translate(154.3 127.4) rotate(-180)" fill="#d45c68"/>
    <path d="M11.9,33.6H58a0,0,0,0,1,0,0V77.7a5.1,5.1,0,0,1-5.1,5.1h-41a5.1,5.1,0,0,1-5.1-5.1v-39a5.1,5.1,0,0,1,5.1-5.1Z" transform="translate(64.8 116.4) rotate(-180)" fill="#e76871"/>
    <path d="M41.7,26,57.9,47h42.2a2.7,2.7,0,0,0,2-4.6L84.4,25.3a6.6,6.6,0,0,0-4.6-1.9H45.1l-.7.4Z" fill="#bd4457"/>
    <path d="M2.9,38.3H60.8a2.9,2.9,0,0,0,1.9-5.1L33.7,9l-.9-.5a3.1,3.1,0,0,0-1.9,0L30,9l-3.2,2.7L1,33.2A2.9,2.9,0,0,0,2.9,38.3Z" fill="#d14f5b"/>
    <path d="M10.8,35.2h42a2.1,2.1,0,0,0,1.4-3.7L33.1,13.8l-.6-.4a1.7,1.7,0,0,0-1.4,0l-.6.4-2.4,2L9.4,31.5A2.1,2.1,0,0,0,10.8,35.2Z" fill="#e76871"/>
    <path d="M18.4,49.6H47a0,0,0,0,1,0,0V72.8a8.5,8.5,0,0,1-8.5,8.5H26.9a8.5,8.5,0,0,1-8.5-8.5V49.6A0,0,0,0,1,18.4,49.6Z" transform="translate(65.4 130.9) rotate(-180)" fill="#d14f5b"/>
    <rect x="30.3" width="3.1" height="11.65" rx="1.4" transform="translate(63.6 11.6) rotate(-180)" fill="#f0818f"/>
    <path d="M36.6,24.8H32.2v6.5h3.1c.7,0,1.3-.3,1.3-.7Z" fill="#f0818f"/>
    <path d="M26.9,24.8v5.8c0,.4.6.7,1.3.7h3.1V24.8Z" fill="#f0818f"/>
    <path d="M35.3,21.7H32.2v2.6h4.4V22.4C36.6,22,36,21.7,35.3,21.7Z" fill="#f0818f"/>
    <path d="M26.9,22.4v1.9h4.4V21.7H28.2C27.5,21.7,26.9,22,26.9,22.4Z" fill="#f0818f"/>
    <path d="M90.1,56.5H84.6V67h3.9c.8,0,1.6-.5,1.6-1.1Z" fill="#f0818f"/>
    <path d="M77.9,56.5v9.4c0,.6.7,1.1,1.6,1.1h3.9V56.5Z" fill="#f0818f"/>
    <path d="M88.5,51.4H84.6v4.3h5.5V52.6C90.1,52,89.3,51.4,88.5,51.4Z" fill="#f0818f"/>
    <path d="M77.9,52.6v3.1h5.5V51.4H79.5A1.5,1.5,0,0,0,77.9,52.6Z" fill="#f0818f"/>
    <path d="M60.9,62.9H74.1a0,0,0,0,1,0,0V77.4a4.4,4.4,0,0,1-4.4,4.4H65.4a4.4,4.4,0,0,1-4.4-4.4V62.9a0,0,0,0,1,0,0Z" transform="translate(135.1 144.7) rotate(-180)" fill="#bd4457"/>
    <path d="M93.7,47.3V81.9H58.3v-.3c0-.5-.6-.8-1.3-.8H55.7V72.1H57c.7,0,1.3-.3,1.3-.8V69.9c0-.4-.5-.7-1.1-.8V38.4H50.4V69.1H14.6V38.4H7.8V69.1H6.7c-.7,0-1.3.4-1.3.8v1.4c0,.5.6.8,1.3.8H8v8.7H6.7c-.7,0-1.3.3-1.3.8V83c0,.4.6.8,1.3.8H98.3a2.2,2.2,0,0,0,2.2-2.2V47.3ZM16.6,80.8H12.5V72.1h4.1Zm8.6,0h-4V72.1h4Zm8.7,0H29.8V72.1h4.1Zm8.6,0h-4V72.1h4Zm8.7,0H47.1V72.1h4.1Z" fill="#fff"/>
</svg>
