<svg xmlns="http://www.w3.org/2000/svg" xmlns:xlink="http://www.w3.org/1999/xlink" viewBox="0 0 2500 2500">
  <g>
    <rect x="1419" y="1506.2" width="7.6" height="316.86" transform="translate(-241.9 3087.4) rotate(-90)" fill="#b6afba"/>
    <g>
      <ellipse cx="1410.1" cy="1677.3" rx="9.5" ry="9.9" fill="#e76871"/>
      <path d="M1430.3,1670.1h-12.2v2.8h3.8l-3,3.6,2.2,1.8,4.5-5.4h4.7a.9.9,0,0,0,.9-.9v-1A.9.9,0,0,0,1430.3,1670.1Z" fill="#f0818f"/>
      <path d="M1409.7,1665.8a11.5,11.5,0,1,0,11.5,11.5A11.5,11.5,0,0,0,1409.7,1665.8Zm0,20.6a9.1,9.1,0,0,1,0-18.2,9.1,9.1,0,0,1,0,18.2Z" fill="#d14f5b"/>
      <rect x="1425.5" y="1679.3" width="17.5" height="17.03" fill="#d14f5b"/>
      <path d="M1449.8,1669.2h-14.9a.9.9,0,0,0-.8.8v8.7h2.9v-6.6h12.8a1.1,1.1,0,0,0,1-1v-.8A1.1,1.1,0,0,0,1449.8,1669.2Z" fill="#e76871"/>
      <path d="M1445.9,1693.6v-11.4c.4-.3.9-.9.4-1.4l-4.5-4.5a.9.9,0,0,0-1.3.2h-11.6a.7.7,0,0,0-1.1-.1l-4.5,4.5a.7.7,0,0,0,0,1.1v11.6a.8.8,0,0,0-.2,1.2l4.5,4.5a.8.8,0,0,0,1.2-.1h11.6a.9.9,0,0,0,1.3.2l4.5-4.5C1446.6,1694.5,1446.3,1693.9,1445.9,1693.6Zm-19.7.2V1682l2.7-2.7h11.9l2.2,2.3c.1.1,0,12.2.1,12.3l-2.5,2.5h-11.9Z" fill="#f0818f"/>
      <rect x="1451.5" y="1678.5" width="17" height="19.39" fill="#e76871"/>
      <path d="M1447.5,1708.9h23.6a1.3,1.3,0,0,1,1.3,1.3v.2a1.3,1.3,0,0,1-1.3,1.3h-23.6a0,0,0,0,1,0,0v-2.9A0,0,0,0,1,1447.5,1708.9Z" transform="translate(3170.3 250.4) rotate(90)" fill="#f0818f"/>
      <path d="M1469.5,1677h-18.6a1.2,1.2,0,0,0-1.3,1.2V1698a1.2,1.2,0,0,0,1.3,1.2h18.6a1.2,1.2,0,0,0,1.2-1.2h0v-19.8h0A1.2,1.2,0,0,0,1469.5,1677Zm-17,2.8h15.3v16.6h-15.3Z" fill="#d14f5b"/>
      <path d="M1483.7,1678.8c-10,4.8-11.9,14.7-.7,19.5C1485.7,1698.1,1483.4,1680.3,1483.7,1678.8Z" fill="#f0818f"/>
      <path d="M1483.8,1699.7c-6.4-1.8-10.5-6.9-9.8-12.2s4.5-8.2,9.9-9.7l.6,2.4c-4.4,1.2-7.6,4.2-8,7.6s2.8,8.1,8,9.6Z" fill="#d14f5b"/>
      <path d="M1489.6,1679.7h-3.7v-1a1.2,1.2,0,0,0-1.3-1.2h-.4a1.2,1.2,0,0,0-1.2,1.2v20a1.3,1.3,0,0,0,1.2,1.2h.4a1.3,1.3,0,0,0,1.3-1.2v-16.2h3.7a.6.6,0,0,0,.6-.6v-1.6A.6.6,0,0,0,1489.6,1679.7Z" fill="#e76871"/>
    </g>
    <path d="M1538.8,1634.7h-1.4v-1.4a2.4,2.4,0,0,0-2.4-2.4h-38.8a2.4,2.4,0,0,0-2.4,2.4v1.4h-1.7a4.2,4.2,0,0,0-4.3,4.2V1727a4.2,4.2,0,0,0,4.3,4.2h46.7a4.2,4.2,0,0,0,4.3-4.2v-88.1A4.2,4.2,0,0,0,1538.8,1634.7Z" fill="#9b93a1"/>
    <path d="M1414.8,1506.5h-35.6a2.1,2.1,0,0,0-2.1,2.1v105.1a2.1,2.1,0,0,0,2.1,2.1h35.6a2.1,2.1,0,0,0,2.1-2.1V1508.6A2.1,2.1,0,0,0,1414.8,1506.5Z" fill="#fff"/>
    <path d="M1532.1,1568.6a2.7,2.7,0,0,0,2-4.6l-17.7-17.3a6.8,6.8,0,0,0-4.6-1.9h-28.9l-17.2-14.4-.4-.2v-7.4a1.3,1.3,0,0,0-1.3-1.4h-.4a1.3,1.3,0,0,0-1.3,1.4v7.5h-.3l-3.3,2.8-25.7,21.5a2.9,2.9,0,0,0,1.9,5.1h4c0,.1-.1.2-.1.3v30.4h-.1c-.7,0-1.3.4-1.3.9v1.3c0,.5.6.8,1.3.8h.1v8.7h-.1c-.7,0-1.3.4-1.3.8v1.4c0,.4.6.8,1.3.8h91.6a2.2,2.2,0,0,0,2.2-2.2v-34.3h-.4Zm-43.2,33.6a.1.1,0,0,1,.1-.1h-.1Z" fill="#fff"/>
    <path d="M1599.2,1552.4l-14-16.2a1.8,1.8,0,0,0-1.4-.6h-34.9a2,2,0,0,0-1.4.6l-14,16.2a1.7,1.7,0,0,0,1.2,2.8h6.6v13.1h-.4a1.1,1.1,0,0,0-1.1,1.1v1.5a1.1,1.1,0,0,0,1.1,1.1h.4v19.4a5,5,0,0,0,.8,2.7.9.9,0,0,0-.8.8v.6a.9.9,0,0,0,.8.8h47.4a.9.9,0,0,0,.8-.8v-.6a.8.8,0,0,0-.7-.8,5,5,0,0,0,.8-2.7V1572h.6a1.1,1.1,0,0,0,1.1-1.1v-1.5a1.1,1.1,0,0,0-1.1-1.1h-.6v-13.1h7.6A1.7,1.7,0,0,0,1599.2,1552.4Z" fill="#e76871"/>
    <path d="M1378.5,1690.7l-14-16.1a1.9,1.9,0,0,0-1.4-.7h-34.9a2.1,2.1,0,0,0-1.4.7l-14,16.1a1.8,1.8,0,0,0,1.2,2.9h6.6v13.1h-.4a1.1,1.1,0,0,0-1.1,1.1v1.5a1,1,0,0,0,1.1,1h.4v19.5a4.5,4.5,0,0,0,.8,2.6,1,1,0,0,0-.8.9v.5a.9.9,0,0,0,.9.9h47.3a.9.9,0,0,0,.8-.9v-.5a.9.9,0,0,0-.7-.9,4.5,4.5,0,0,0,.8-2.6v-19.5h.6a1,1,0,0,0,1.1-1v-1.5a1.1,1.1,0,0,0-1.1-1.1h-.6v-13.1h7.6A1.8,1.8,0,0,0,1378.5,1690.7Z" fill="#e76871"/>
    <g>
      <path d="M1185.5,1667.1a19.9,19.9,0,0,0-19,13.9l16.6,25.7v20.6a1.6,1.6,0,0,0,1.7,1.6h1.3a1.7,1.7,0,0,0,1.7-1.6v-20.6l16.7-25.7A19.8,19.8,0,0,0,1185.5,1667.1Z" fill="#af6c29"/>
      <path d="M1483.8,1459.3a19.9,19.9,0,0,0-19,14l16.5,25.6v20.6a1.8,1.8,0,0,0,1.7,1.7h1.3a1.7,1.7,0,0,0,1.7-1.7v-20.6l16.8-25.6A20,20,0,0,0,1483.8,1459.3Z" fill="#af6c29"/>
      <path d="M1435.6,1459.5a19.9,19.9,0,0,0-19,13.9l16.6,25.7v20.6a1.8,1.8,0,0,0,1.7,1.7h1.3a1.8,1.8,0,0,0,1.7-1.7v-20.6l16.7-25.7A19.8,19.8,0,0,0,1435.6,1459.5Z" fill="#af6c29"/>
    </g>
    <g>
      <path d="M1536.6,1522.2l-8.5-13.7h1.5a2.7,2.7,0,0,0,2.4-3.8l-11.6-25a2.8,2.8,0,0,0-4.9,0l-11.7,25a2.7,2.7,0,0,0,2.5,3.8h1.3l-8.5,13.7a3.2,3.2,0,0,0,2.7,4.9H1516v7.8a1.1,1.1,0,0,0,1,1h1.6a1.1,1.1,0,0,0,1-1v-7.8h14.3A3.2,3.2,0,0,0,1536.6,1522.2Z" fill="#975a22"/>
      <path d="M1237.9,1714.2l-8.6-13.7h1.5a2.6,2.6,0,0,0,2.4-3.8l-11.6-25a2.7,2.7,0,0,0-4.9,0l-11.6,25a2.7,2.7,0,0,0,2.4,3.8h1.3l-8.5,13.7a3.2,3.2,0,0,0,2.8,4.9h14.2v7.7a.9.9,0,0,0,.9,1h1.6a.9.9,0,0,0,1-1v-7.7h14.3A3.3,3.3,0,0,0,1237.9,1714.2Z" fill="#975a22"/>
      <path d="M1370.5,1601.5l-8.5-13.7h1.4a2.6,2.6,0,0,0,2.4-3.8l-11.6-25a2.8,2.8,0,0,0-4.9,0l-11.6,25a2.7,2.7,0,0,0,2.4,3.8h1.4l-8.5,13.7a3.2,3.2,0,0,0,2.7,4.9h14.2v7.8a1,1,0,0,0,1,1h1.5a1,1,0,0,0,1-1v-7.8h14.4A3.2,3.2,0,0,0,1370.5,1601.5Z" fill="#975a22"/>
    </g>
    <path d="M1231.1,1726.4h-.4a9.2,9.2,0,0,0,.4-2.9,11.4,11.4,0,0,0-11.3-11.3,11.1,11.1,0,0,0-5.4,1.4,5.6,5.6,0,0,0-10.3,3.1h-.8a7.5,7.5,0,0,0-7.4,7.5,8.5,8.5,0,0,0,.3,2.3,4.5,4.5,0,0,0-3.8,4.4h43.2A4.5,4.5,0,0,0,1231.1,1726.4Z" fill="#af6c29"/>
    <path d="M1723.3,1532.9h-.5a9.2,9.2,0,0,0,.4-2.9,11.3,11.3,0,0,0-11.3-11.3,11.9,11.9,0,0,0-5.3,1.3,5.7,5.7,0,0,0-4.7-2.5,5.6,5.6,0,0,0-5.7,5.6h-.8a7.4,7.4,0,0,0-7.4,7.4,6.1,6.1,0,0,0,.4,2.4,4.5,4.5,0,0,0-3.9,4.4h43.2A4.4,4.4,0,0,0,1723.3,1532.9Z" fill="#af6c29"/>
    <g>
      <path d="M1654.6,1512.2a3.3,3.3,0,0,0-3.3,3.3,3.4,3.4,0,0,0,2.7,3.2v16.5a.6.6,0,1,0,1.2,0v-16.5a3.4,3.4,0,0,0,2.7-3.2A3.3,3.3,0,0,0,1654.6,1512.2Z" fill="#fff"/>
      <path d="M1662.5,1520.7a3.3,3.3,0,0,0-.6,6.5v14.1a.7.7,0,0,0,.6.7c.4,0,.6-.3.6-.7v-14.1a3.2,3.2,0,0,0,2.7-3.2A3.3,3.3,0,0,0,1662.5,1520.7Z" fill="#fff"/>
      <path d="M1669,1508.1a3.2,3.2,0,0,0-.7,6.4v18.1a.7.7,0,0,0,.7.6.6.6,0,0,0,.6-.6v-18.1a3.2,3.2,0,0,0,2.6-3.2A3.2,3.2,0,0,0,1669,1508.1Z" fill="#fff"/>
      <path d="M1678.8,1524a3.3,3.3,0,0,0-6.6,0,3.3,3.3,0,0,0,2.7,3.2v14.2a.6.6,0,0,0,1.2,0v-14.2A3.3,3.3,0,0,0,1678.8,1524Z" fill="#fff"/>
    </g>
    <g>
      <path d="M1244.4,1700.5a3.3,3.3,0,0,0-.6,6.5v16.5a.7.7,0,0,0,.6.7.7.7,0,0,0,.7-.7V1707a3.2,3.2,0,0,0,2.6-3.2A3.3,3.3,0,0,0,1244.4,1700.5Z" fill="#fff"/>
      <path d="M1252.4,1709.1a3.2,3.2,0,0,0-.7,6.4v14.2a.7.7,0,0,0,.7.6.6.6,0,0,0,.6-.6v-14.2a3.2,3.2,0,0,0,2.6-3.2A3.2,3.2,0,0,0,1252.4,1709.1Z" fill="#fff"/>
      <path d="M1258.8,1696.4a3.3,3.3,0,0,0-.6,6.5v18a.7.7,0,0,0,.6.7c.4,0,.6-.3.6-.7v-18a3.3,3.3,0,0,0-.6-6.5Z" fill="#fff"/>
      <path d="M1268.6,1712.4a3.3,3.3,0,0,0-3.3-3.3,3.3,3.3,0,0,0-.6,6.5v14.1a.7.7,0,0,0,.6.7.7.7,0,0,0,.7-.7v-14.1A3.2,3.2,0,0,0,1268.6,1712.4Z" fill="#fff"/>
    </g>
  </g>
  <g>
    <path d="M1733.2,1534.7v.3a10.4,10.4,0,0,1-10.4,10.4h-88.2a24.9,24.9,0,0,1,1.8,9v46a23.7,23.7,0,0,1-23.7,23.7H1580v45.7h32.9a15.3,15.3,0,0,1,15.2,15.3,15.5,15.5,0,0,1-4.4,10.8,15.2,15.2,0,0,1-10.8,4.5h-33.2a25.4,25.4,0,0,1-25,21.1H1553v1.1a18.2,18.2,0,0,1-7.6,14.8,17.1,17.1,0,0,1-5.6,2.7l-2,.5a15.5,15.5,0,0,1-3.1.3H1325.9l-2.4-.2a20,20,0,0,1-6-1.9,18.3,18.3,0,0,1-9.7-14.4h-17.1v.2a16.3,16.3,0,0,1-16.2,16.3h-93.2a16.3,16.3,0,0,1-16.2-16.3v-6.2a22.8,22.8,0,0,1,.2-2.6,16.2,16.2,0,0,1,16-13.7h81.8v-56.9a21.1,21.1,0,0,1,19.4-21V1616a11.4,11.4,0,0,1,11.3-11.3h69.7v-74.4a16.2,16.2,0,0,1,5.3-12.1,14.4,14.4,0,0,1,5.8-3.5,16.2,16.2,0,0,1,5.4-1h7.5V1494a25,25,0,0,1,5.7-15.8,26.6,26.6,0,0,1,5.9-5.2l2.1-1.2a16.9,16.9,0,0,1,2.8-1.2,26.5,26.5,0,0,1,8.4-1.5h86.4a25,25,0,0,1,24.9,24.9v30.3h199.1A10.4,10.4,0,0,1,1733.2,1534.7Z" fill="none" stroke="#5eb8a8" stroke-miterlimit="10"/>
    <g>
      <path d="M1374.3,1514.7v98.5a2.9,2.9,0,0,1-2.9,2.9h-17.5a2.9,2.9,0,0,0-2.9,2.9v29.9a2.9,2.9,0,0,1-2.9,2.9h-73.6a2.9,2.9,0,0,0-2.9,2.9v64a2.9,2.9,0,0,1-2.9,3H1164.9v-3.2a11.4,11.4,0,0,1,.2-2.6h97.8a2.9,2.9,0,0,0,2.9-2.9v-64a2.9,2.9,0,0,1,2.9-3h73.6a2.9,2.9,0,0,0,2.9-2.9v-29.8a2.9,2.9,0,0,1,2.9-2.9h17.5a2.9,2.9,0,0,0,2.9-3v-89.1A15.1,15.1,0,0,1,1374.3,1514.7Z" fill="#84b8e2"/>
      <path d="M1600.1,1700.4h4.8l-70.8-51.3a1.4,1.4,0,0,1-.5-1.1v-24.2a1.5,1.5,0,0,1,1.8-1l44.4,14.1v-3l-45.3-14.3a1.4,1.4,0,0,1-.9-1.3v-52.8a1.7,1.7,0,0,1,.5-1.2l53.4-40h-4.7l-55.1,41.3a1.3,1.3,0,0,1-1.9-.2l-24.7-29.7h-82.9l-13.7-7.9a1.4,1.4,0,0,1-.7-1.2v-55.9a13.9,13.9,0,0,0-2.8,1.2V1529h0l13.7,7.9a1.4,1.4,0,0,1,.7,1.2v40.8a1.5,1.5,0,0,1-1.4,1.5h-50.8v2.8h.1a1.4,1.4,0,0,1,1.4,1.4v68.6h.2l17.3,12.6a1.4,1.4,0,0,1,.3,2l-.5.6-3.6,4.6-52.8,67.8h3.6l51.5-66.1,3.6-4.7.5-.6a1.5,1.5,0,0,1,2-.3l20,14.6,6.2,4.5,1.2.9a1.4,1.4,0,0,1,.6,1.1v50.6h2.8v-46.5h0a1.4,1.4,0,0,1,2.2-1.1l9.7,7a1.4,1.4,0,0,1,.6,1.2v39.4h2.8V1700a1.3,1.3,0,0,0-.6-1.1l-14.1-10.3a1.4,1.4,0,0,1-.6-1.2v-29.3a1.4,1.4,0,0,1,1.4-1.4h34.9a1.6,1.6,0,0,1,1,.5l1.3,1.4,5.6,5.9,72.1,76.4h.6a16.3,16.3,0,0,0,3.1-.3l-71.9-76.1-5.1-5.4a1.4,1.4,0,0,1,1-2.4h57.9a1.4,1.4,0,0,0,1.4-.9,1.6,1.6,0,0,0-.4-1.5,1.5,1.5,0,0,0-1-.4h-63.2a1.5,1.5,0,0,1-1-.4L1418,1614a1.3,1.3,0,0,0-1-.4h-.8a1.4,1.4,0,0,0-1.4,1.4v68.3a1.5,1.5,0,0,1-1.8,1.4l-.5-.2-5.4-4-39-28.3a1.4,1.4,0,0,1-.6-1.2v-66.4a1.5,1.5,0,0,1,1.5-1.4h45a1.4,1.4,0,0,1,1.4,1.4v5.4a1.4,1.4,0,0,0,1.4,1.4h18.5l4.8-17.8a1.5,1.5,0,0,1,1.3-1.1h69.9a1.4,1.4,0,0,0,1.5-1.3,1.5,1.5,0,0,0-.4-1.1,1.8,1.8,0,0,0-1-.4h-72.1a1.5,1.5,0,0,0-1.4,1.1l-4.5,16.7a1.4,1.4,0,0,1-1.3,1.1h-12.5a1.5,1.5,0,0,1-1.4-1.5v-47.2a1.4,1.4,0,0,1,1.4-1.4h79.5a1.6,1.6,0,0,1,1.1.5l24.2,29.1.8,1.2a1.5,1.5,0,0,0,2,.3l1.3-1a1.4,1.4,0,0,1,2.2.8v47.1a1.4,1.4,0,0,1-1.8,1.3h-.4l-5.9-1.9-75.7-24a1.4,1.4,0,0,0-1.7.9h0a1.3,1.3,0,0,0,.9,1.8l76.2,24.2,6.2,2,1.3.3a1.6,1.6,0,0,1,.9,1.4v27.7h0Zm-182.5-79.2a1.3,1.3,0,0,1,2.4-.9l29.6,31.2a1.4,1.4,0,0,1-1.1,2.4H1419a1.4,1.4,0,0,1-1.4-1.4Z" fill="#b6afba"/>
      <path d="M1528.5,1649.8v-18.5a2.2,2.2,0,0,1,2.2-2.1h.6l2.3.7,46.2,14.5v-6.2l-46.2-14.5-2.9-.9-.7-.2a2.1,2.1,0,0,1-1.5-2v-41.2a2.2,2.2,0,0,1,.9-1.7l1.3-1,2.9-2.1,66.5-50.4h-9.8l-56.7,43-2.9,2.1-3.3,2.5a2.1,2.1,0,0,1-2.9-.3l-26-30.8h-81.4a2,2,0,0,1-1.1-.3l-.6-.4-15.5-8.9a2.1,2.1,0,0,1-1.1-1.8V1473a26.6,26.6,0,0,0-5.9,5.2V1534h0l13.1,7.6a1.9,1.9,0,0,1,1.1,1.8v26.5a2.9,2.9,0,0,1-2.9,2.9h-41v5.9h41a3,3,0,0,1,2.6,1.7,2.8,2.8,0,0,1,.3,1.3v100.9a2.7,2.7,0,0,1-.3,1.2,2.2,2.2,0,0,1-3.1.5l-19.4-14.2-2.3-1.6-19.6-14.3a2.1,2.1,0,0,1-.8-1.7v-47.8h-5.9v51.8h0L1370,1667a2.2,2.2,0,0,1,.4,3l-53.1,68.8a19.4,19.4,0,0,0,5.9,1.9l52-67.3a2.2,2.2,0,0,1,3-.4h.2l2.3,1.7,25.5,18.6a2.1,2.1,0,0,1,.9,1.7v45.8h5.9v-39.5a1.5,1.5,0,0,1,1.8-1.5l.7.3,2.1,1.5,3.8,2.8a2,2,0,0,1,.9,1.7v34.7h5.9v-38.8h0l-10.6-7.7-2.8-2.1-.9-.6a2,2,0,0,1-.9-1.7v-22.6a2.9,2.9,0,0,1,1.8-2.7l1.2-.2h51.1a2.2,2.2,0,0,1,1.5.6l71,75a15.7,15.7,0,0,0,5.5-2.7l-65.6-69.4a2.1,2.1,0,0,1,1.5-3.5h44.6a3,3,0,0,0,2.9-3h0a1.6,1.6,0,0,1,2.6-1.3l55.3,40.3h10l-67-48.9A2.2,2.2,0,0,1,1528.5,1649.8Zm-5.9-66.7v34.4a2.4,2.4,0,0,1-.3,1.2,2.2,2.2,0,0,1-2.4.8l-76-23.8a2,2,0,0,1-1.4-2.6l3.4-11.4a2.1,2.1,0,0,1,2-1.5h71.8A2.9,2.9,0,0,1,1522.6,1583.1ZM1413,1549.6a3,3,0,0,1,2.4-2.9h79.4a2,2,0,0,1,1.6.7l19.7,23.4a2.1,2.1,0,0,1-1.6,3.5h-71.9a.8.8,0,0,0-.8.6c-1.7,5.7-3.5,11.4-5.2,17.1a2.8,2.8,0,0,1-2.8,2.1H1416a2.9,2.9,0,0,1-3-2.9Zm3,109a2.1,2.1,0,0,1-1.2-.3,2.8,2.8,0,0,1-1.8-2.7v-44a2.1,2.1,0,0,1,3.6-1.4l41.4,43.7,1,1.1a2.1,2.1,0,0,1-1.5,3.6Zm106.6-3a3,3,0,0,1-2.9,3h-48.3a2.3,2.3,0,0,1-1.5-.7l-1.1-1.2-2.7-2.8-47.6-50.3a2.1,2.1,0,0,1,1.5-3.6h18.1l83.1,26a2.2,2.2,0,0,1,1.4,2Z" fill="#cec3d3"/>
      <g>
        <line x1="1395.9" y1="1479.7" x2="1395.9" y2="1531.2" fill="none" stroke="#fff" stroke-linecap="round" stroke-miterlimit="10" stroke-width="2" stroke-dasharray="12"/>
        <line x1="1415.5" y1="1543.7" x2="1395.9" y2="1531.2" fill="none" stroke="#fff" stroke-linecap="round" stroke-miterlimit="10" stroke-width="2" stroke-dasharray="12"/>
        <line x1="1497.1" y1="1543.7" x2="1415.5" y2="1543.7" fill="none" stroke="#fff" stroke-linecap="round" stroke-miterlimit="10" stroke-width="2" stroke-dasharray="12"/>
        <line x1="1410.1" y1="1540.3" x2="1410.1" y2="1735.9" fill="none" stroke="#fff" stroke-linecap="round" stroke-miterlimit="10" stroke-width="2" stroke-dasharray="12"/>
        <line x1="1360.4" y1="1656.5" x2="1425.7" y2="1704.1" fill="none" stroke="#fff" stroke-linecap="round" stroke-miterlimit="10" stroke-width="2" stroke-dasharray="12"/>
        <line x1="1410.1" y1="1735.9" x2="1410.1" y2="1739.4" fill="none" stroke="#fff" stroke-linecap="round" stroke-miterlimit="10" stroke-width="2" stroke-dasharray="12"/>
        <line x1="1425.2" y1="1739.4" x2="1425.2" y2="1703.9" fill="none" stroke="#fff" stroke-linecap="round" stroke-miterlimit="10" stroke-width="2" stroke-dasharray="12"/>
        <line x1="1321" y1="1737.7" x2="1373.9" y2="1669.9" fill="none" stroke="#fff" stroke-linecap="round" stroke-miterlimit="10" stroke-width="2" stroke-dasharray="12"/>
        <line x1="1358.6" y1="1607" x2="1358.6" y2="1654.7" fill="none" stroke="#fff" stroke-linecap="round" stroke-miterlimit="10" stroke-width="2" stroke-dasharray="12"/>
        <line x1="1365" y1="1575.8" x2="1410.1" y2="1575.8" fill="none" stroke="#fff" stroke-linecap="round" stroke-miterlimit="10" stroke-width="2" stroke-dasharray="12"/>
        <line x1="1497.1" y1="1543.7" x2="1524.9" y2="1577.2" fill="none" stroke="#fff" stroke-linecap="round" stroke-miterlimit="10" stroke-width="2" stroke-dasharray="12"/>
        <line x1="1591.7" y1="1527.2" x2="1524.9" y2="1577.2" fill="none" stroke="#fff" stroke-linecap="round" stroke-miterlimit="10" stroke-width="2" stroke-dasharray="12"/>
        <line x1="1525.6" y1="1661.5" x2="1525.6" y2="1580.5" fill="none" stroke="#fff" stroke-linecap="round" stroke-miterlimit="10" stroke-width="2" stroke-dasharray="12"/>
        <line x1="1444" y1="1577.2" x2="1525.6" y2="1577.2" fill="none" stroke="#fff" stroke-linecap="round" stroke-miterlimit="10" stroke-width="2" stroke-dasharray="12"/>
        <line x1="1438.6" y1="1597.1" x2="1444" y2="1577.2" fill="none" stroke="#fff" stroke-linecap="round" stroke-miterlimit="10" stroke-width="2" stroke-dasharray="12"/>
        <line x1="1410.1" y1="1597" x2="1438.2" y2="1597" fill="none" stroke="#fff" stroke-linecap="round" stroke-miterlimit="10" stroke-width="2" stroke-dasharray="12"/>
        <line x1="1577.9" y1="1641.3" x2="1438.6" y2="1597.1" fill="none" stroke="#fff" stroke-linecap="round" stroke-miterlimit="10" stroke-width="2" stroke-dasharray="12"/>
        <line x1="1413" y1="1601.4" x2="1542" y2="1737.9" fill="none" stroke="#fff" stroke-linecap="round" stroke-miterlimit="10" stroke-width="2" stroke-dasharray="12"/>
        <line x1="1527.6" y1="1654.1" x2="1589.3" y2="1698.7" fill="none" stroke="#fff" stroke-linecap="round" stroke-miterlimit="10" stroke-width="2" stroke-dasharray="12"/>
        <line x1="1410.1" y1="1661.5" x2="1525.6" y2="1661.5" fill="none" stroke="#fff" stroke-linecap="round" stroke-miterlimit="10" stroke-width="2" stroke-dasharray="12"/>
      </g>
    </g>
    <g>
      <path d="M1422.3,1536.4h1.8c.2,0,.3-.2.3-.4v-.3c0-.2-.1-.4-.3-.4h-4.5a4.7,4.7,0,0,0-3.5-1.7,4.5,4.5,0,1,0,4.4,4.9Zm-1.5,0-.4.5-.2-.5Z"/>
      <path d="M1430.3,1539.9c.1-.2.1-.3,0-.4l-1.8-1.8a.3.3,0,0,0-.4,0h-1.4v-1.7h4.9a.4.4,0,0,0,.4-.4v-.3c0-.3-.1-.4-.4-.4h-5.7a.3.3,0,0,0-.3.3v2.5h-2.1a.2.2,0,0,0-.4,0l-1.8,1.7a.3.3,0,0,0,0,.4h.1v4.5h-.1a.3.3,0,0,0,0,.4l1.7,1.8h.5l.3-.4a.3.3,0,0,0,0-.4l-.3-.4h4.6l-.4.4a.3.3,0,0,0,0,.4l.4.4h.4l1.7-1.8a.2.2,0,0,0,0-.4h-.1V1540Zm-1.3,4.6h0Z"/>
      <path d="M1439.3,1538h-7.2a.5.5,0,0,0-.5.5v7.6a.5.5,0,0,0,.5.5h3v8.7a.5.5,0,0,0,.5.5h.1a.5.5,0,0,0,.5-.5v-8.7h3.1a.5.5,0,0,0,.5-.4h0v-7.4h0A.5.5,0,0,0,1439.3,1538Z"/>
      <path d="M1447.1,1539h-1.4v-.3a.5.5,0,0,0-.5-.5h-.2l-.4.2a4.7,4.7,0,0,0-3.5,3.7c-.3,2,1.2,3.9,3.6,4.7h.5a.5.5,0,0,0,.5-.5v-6.3h1.4l.3-.2v-.6A.3.3,0,0,0,1447.1,1539Z"/>
    </g>
    <g>
      <path d="M1608,1592.6h-5.1v2.8c0,.2-.2.3-.4.3h-.5c-.2,0-.4-.1-.4-.3v-2.8h-5a1.2,1.2,0,0,1-1-1.8l3-4.8h-.4a1,1,0,0,1-.9-1.4l4.1-8.9a1,1,0,0,1,1.8,0l4.1,8.9a1,1,0,0,1-.8,1.4h-.6l3.1,4.8A1.2,1.2,0,0,1,1608,1592.6Z" fill="#8f5322"/>
      <path d="M1621.7,1580.1h-5.1v2.7c0,.2-.1.4-.3.4h-.6c-.2,0-.3-.2-.3-.4v-2.7h-5.1a1.2,1.2,0,0,1-1-1.8l3.1-4.8h-.5a1,1,0,0,1-.9-1.4l4.2-8.9a.9.9,0,0,1,1.7,0l4.2,8.9a1.1,1.1,0,0,1-.9,1.4h-.5l3,4.8A1.2,1.2,0,0,1,1621.7,1580.1Z" fill="#8f5322"/>
      <path d="M1483.2,1477.4h-5.1v2.8c0,.2-.2.3-.4.3h-.5c-.2,0-.4-.1-.4-.3v-2.8h-5a1.1,1.1,0,0,1-1-1.7l3-4.9h-.5a.9.9,0,0,1-.8-1.4l4.1-8.9a1,1,0,0,1,1.8,0l4.1,8.9a.9.9,0,0,1-.8,1.4h-.6l3.1,4.9A1.2,1.2,0,0,1,1483.2,1477.4Z" fill="#8f5322"/>
      <path d="M1450.8,1477.8h-5.1v2.7a.4.4,0,0,1-.4.4h-.6c-.2,0-.3-.2-.3-.4v-2.7h-5.1a1.2,1.2,0,0,1-1-1.8l3.1-4.9h-.5a.9.9,0,0,1-.9-1.3l4.2-8.9a.9.9,0,0,1,1.7,0l4.2,8.9a.9.9,0,0,1-.9,1.3h-.5l3,4.9A1.1,1.1,0,0,1,1450.8,1477.8Z" fill="#8f5322"/>
      <path d="M1292.9,1673.2h-5.1v2.8c0,.2-.2.3-.4.3h-.5c-.2,0-.4-.1-.4-.3v-2.8h-5a1.1,1.1,0,0,1-1-1.7l3-4.9h-.4a1,1,0,0,1-.9-1.4l4.1-8.9a1,1,0,0,1,1.8,0l4.1,8.9a.9.9,0,0,1-.8,1.4h-.6l3.1,4.9A1.1,1.1,0,0,1,1292.9,1673.2Z" fill="#8f5322"/>
      <path d="M1609,1682.1h-5.1v2.8c0,.2-.2.3-.4.3h-.5c-.2,0-.4-.1-.4-.3v-2.8h-5.1a1.2,1.2,0,0,1-.9-1.8l3-4.8h-.5a1,1,0,0,1-.8-1.4l4.1-8.9a1,1,0,0,1,1.8,0l4.1,8.9a1,1,0,0,1-.9,1.4h-.5l3.1,4.8A1.2,1.2,0,0,1,1609,1682.1Z" fill="#8f5322"/>
      <path d="M1307.3,1684.3h-5.1v2.7c0,.2-.1.4-.3.4h-.6c-.2,0-.3-.2-.3-.4v-2.7h-5.1a1.2,1.2,0,0,1-1-1.8l3.1-4.9h-.5a.9.9,0,0,1-.9-1.3l4.2-8.9a.9.9,0,0,1,1.7,0l4.1,8.9a.9.9,0,0,1-.8,1.3h-.5l3,4.9A1.2,1.2,0,0,1,1307.3,1684.3Z" fill="#8f5322"/>
      <path d="M1627.3,1602.5h-5.1v2.8c0,.2-.2.3-.4.3h-.5c-.2,0-.4-.1-.4-.3v-2.8h-5a1.1,1.1,0,0,1-1-1.7l3-4.9h-.5a1,1,0,0,1-.8-1.4l4.1-8.9a1,1,0,0,1,1.8,0l4.1,8.9a1,1,0,0,1-.8,1.4h-.6l3.1,4.9A1.2,1.2,0,0,1,1627.3,1602.5Z" fill="#8f5322"/>
      <path d="M1371.2,1576.2h-5.1v2.8a.4.4,0,0,1-.3.4h-.6a.4.4,0,0,1-.4-.4v-2.8h-5a1.1,1.1,0,0,1-1-1.7l3-4.9h-.4a.9.9,0,0,1-.9-1.3l4.1-9a1,1,0,0,1,1.8,0l4.1,9a.9.9,0,0,1-.8,1.3h-.5l3,4.9A1.1,1.1,0,0,1,1371.2,1576.2Z" fill="#8f5322"/>
      <path d="M1371.2,1553.1h-5.1v2.8a.3.3,0,0,1-.3.3h-.6c-.2,0-.4-.1-.4-.3v-2.8h-5a1.1,1.1,0,0,1-1-1.7l3-4.9h-.4a1,1,0,0,1-.9-1.4l4.1-8.9a1,1,0,0,1,1.8,0l4.1,8.9a1,1,0,0,1-.8,1.4h-.5l3,4.9A1.1,1.1,0,0,1,1371.2,1553.1Z" fill="#8f5322"/>
      <path d="M1371.2,1528.1h-5.1v2.7a.4.4,0,0,1-.3.4h-.6a.4.4,0,0,1-.4-.4v-2.7h-5a1.2,1.2,0,0,1-1-1.8l3-4.8h-.4a1,1,0,0,1-.9-1.4l4.1-8.9a1,1,0,0,1,1.8,0l4.1,8.9a1,1,0,0,1-.8,1.4h-.5l3,4.8A1.2,1.2,0,0,1,1371.2,1528.1Z" fill="#8f5322"/>
      <path d="M1477.9,1565h-5.1v2.8a.3.3,0,0,1-.3.3h-.6c-.2,0-.4-.1-.4-.3V1565h-5a1.1,1.1,0,0,1-1-1.7l3-4.9h-.4a1,1,0,0,1-.9-1.4l4.1-8.9a1,1,0,0,1,1.8,0l4.1,8.9a.9.9,0,0,1-.8,1.4h-.5l3,4.9A1.1,1.1,0,0,1,1477.9,1565Z" fill="#8f5322"/>
      <path d="M1491.6,1560h-5.1v2.8c0,.2-.1.4-.3.4h-.6c-.2,0-.3-.2-.3-.4V1560h-5.1a1.1,1.1,0,0,1-1-1.7l3.1-4.9h-.5a1,1,0,0,1-.9-1.4l4.2-8.9a1,1,0,0,1,1.7,0l4.2,8.9a1,1,0,0,1-.9,1.4h-.5l3,4.9A1.1,1.1,0,0,1,1491.6,1560Z" fill="#8f5322"/>
    </g>
    <g>
      <path d="M1607.3,1603.7l-4.4,6.8v5.4a.5.5,0,0,1-.5.5h-.3a.5.5,0,0,1-.5-.5v-5.4l-4.3-6.8a5.2,5.2,0,0,1,5-3.7A5.4,5.4,0,0,1,1607.3,1603.7Z" fill="#af6c29"/>
      <path d="M1488.1,1475.9l-4.4,6.7v5.5a.4.4,0,0,1-.4.4h-.4a.4.4,0,0,1-.4-.4v-5.5l-4.4-6.7a5.3,5.3,0,0,1,5-3.7A5.1,5.1,0,0,1,1488.1,1475.9Z" fill="#af6c29"/>
      <path d="M1597.7,1596.9l-4.5,6.8v5.5a.4.4,0,0,1-.4.4h-.4a.4.4,0,0,1-.4-.4v-5.5l-4.4-6.8a5.3,5.3,0,0,1,10.1,0Z" fill="#af6c29"/>
      <path d="M1631.6,1564.2l-4.4,6.8v5.4a.5.5,0,0,1-.5.4h-.3a.4.4,0,0,1-.4-.4V1571l-4.4-6.8a5.1,5.1,0,0,1,5-3.7A5.2,5.2,0,0,1,1631.6,1564.2Z" fill="#af6c29"/>
      <path d="M1443.2,1484.7l-4.4,6.8v5.4a.4.4,0,0,1-.4.4h-.4a.4.4,0,0,1-.4-.4v-5.4l-4.4-6.8a5.3,5.3,0,0,1,5-3.7A5.1,5.1,0,0,1,1443.2,1484.7Z" fill="#af6c29"/>
      <path d="M1214.4,1699.3l-4.4,6.8v5.4a.5.5,0,0,1-.5.4h-.3a.5.5,0,0,1-.5-.4v-5.4l-4.3-6.8a5.1,5.1,0,0,1,5-3.7A5.3,5.3,0,0,1,1214.4,1699.3Z" fill="#af6c29"/>
      <path d="M1201.6,1699.4l-4.4,6.8v5.4a.5.5,0,0,1-.5.5h-.3a.5.5,0,0,1-.5-.5v-5.4l-4.3-6.8a5.2,5.2,0,0,1,5-3.7A5.4,5.4,0,0,1,1201.6,1699.4Z" fill="#af6c29"/>
      <path d="M1189.3,1699.3l-4.4,6.8v5.4a.5.5,0,0,1-.5.4h-.3a.5.5,0,0,1-.5-.4v-5.4l-4.3-6.8a5.1,5.1,0,0,1,5-3.7A5.3,5.3,0,0,1,1189.3,1699.3Z" fill="#af6c29"/>
      <path d="M1665.2,1521.4l-4.5,6.8v5.4a.5.5,0,0,1-.4.5h-.3a.5.5,0,0,1-.5-.5v-5.4l-4.4-6.8a5.3,5.3,0,0,1,10.1,0Z" fill="#af6c29"/>
      <path d="M1316,1612.3l-4.5,6.8v5.4a.5.5,0,0,1-.4.5h-.3a.5.5,0,0,1-.5-.5v-5.4l-4.4-6.8a5.3,5.3,0,0,1,10.1,0Z" fill="#af6c29"/>
      <path d="M1302.2,1612.3l-4.4,6.8v5.4a.5.5,0,0,1-.5.5h-.3a.5.5,0,0,1-.4-.5v-5.4l-4.4-6.8a5.2,5.2,0,0,1,5-3.7A5.4,5.4,0,0,1,1302.2,1612.3Z" fill="#af6c29"/>
      <path d="M1622.1,1678.6l-4.5,6.8v5.4a.5.5,0,0,1-.4.5h-.4a.5.5,0,0,1-.4-.5v-5.4l-4.4-6.8a5.3,5.3,0,0,1,10.1,0Z" fill="#af6c29"/>
      <path d="M1464.6,1490.5l-4.4,6.8v5.4a.5.5,0,0,1-.4.5h-.4a.5.5,0,0,1-.4-.5v-5.4l-4.4-6.8a5.4,5.4,0,0,1,5-3.7A5.2,5.2,0,0,1,1464.6,1490.5Z" fill="#af6c29"/>
      <path d="M1619.2,1596.9l-4.4,6.8v5.5a.5.5,0,0,1-.5.4h-.3a.5.5,0,0,1-.5-.4v-5.5l-4.4-6.8a5.3,5.3,0,0,1,10.1,0Z" fill="#af6c29"/>
      <path d="M1507.5,1552.9l-4.5,6.8v5.4a.5.5,0,0,1-.4.5h-.4a.5.5,0,0,1-.4-.5v-5.4l-4.4-6.8a5.3,5.3,0,0,1,10.1,0Z" fill="#af6c29"/>
      <path d="M1462,1549.6l-4.4,6.8v5.4a.5.5,0,0,1-.5.5h-.3a.5.5,0,0,1-.4-.5v-5.4l-4.4-6.8a5.2,5.2,0,0,1,5-3.7A5.4,5.4,0,0,1,1462,1549.6Z" fill="#af6c29"/>
    </g>
    <g>
      <path d="M1464,1483h-.1a4.3,4.3,0,0,0-4-5.2,3.8,3.8,0,0,0-1.9.5,2.3,2.3,0,0,0-1.8-.9,2,2,0,0,0-2,2h-.3a2.7,2.7,0,0,0-2.7,2.7c0,.3.1.6.1.9a1.8,1.8,0,0,0-1.4,1.6h15.7A1.6,1.6,0,0,0,1464,1483Z" fill="#af6c29"/>
      <path d="M1329.1,1622.8h-.2a3.1,3.1,0,0,0,.1-1,4.1,4.1,0,0,0-4.1-4.1,4.1,4.1,0,0,0-1.9.5,2,2,0,0,0-1.7-.9,2,2,0,0,0-2.1,2h-.3a2.8,2.8,0,0,0-2.7,2.7,1.9,1.9,0,0,0,.2.8,1.7,1.7,0,0,0-1.4,1.6h15.7A1.6,1.6,0,0,0,1329.1,1622.8Z" fill="#af6c29"/>
      <path d="M1622,1618.7h-15.7a1.6,1.6,0,0,1,1.4-1.6,2.2,2.2,0,0,1-.1-.8,2.7,2.7,0,0,1,2.7-2.7h.3a2,2,0,0,1,2-2.1,2.1,2.1,0,0,1,1.7.9,4.5,4.5,0,0,1,2-.4,4.1,4.1,0,0,1,4.1,4.1,3.6,3.6,0,0,1-.2,1h.2A1.6,1.6,0,0,1,1622,1618.7Z" fill="#ba7c41"/>
      <path d="M1680.9,1534.8h-15.7a1.6,1.6,0,0,1,1.4-1.6,2.9,2.9,0,0,1-.2-.9,2.8,2.8,0,0,1,2.7-2.7h.3a2.1,2.1,0,0,1,2.1-2.1,2.2,2.2,0,0,1,1.7.9,4.1,4.1,0,0,1,6,3.7,3.4,3.4,0,0,1-.1,1h.1A1.7,1.7,0,0,1,1680.9,1534.8Z" fill="#ba7c41"/>
      <path d="M1693.8,1542.8h-15.7a1.6,1.6,0,0,1,1.4-1.6,1.9,1.9,0,0,1-.2-.8,2.7,2.7,0,0,1,2.7-2.7h.3a2.1,2.1,0,0,1,2.1-2.1,2.1,2.1,0,0,1,1.7,1,4.1,4.1,0,0,1,1.9-.5,4.1,4.1,0,0,1,4.1,4.1,3.4,3.4,0,0,1-.1,1h.1A1.7,1.7,0,0,1,1693.8,1542.8Z" fill="#ba7c41"/>
    </g>
    <g>
      <g>
        <path d="M1417.2,1474.6a1.4,1.4,0,0,0-1.4,1.4,1.3,1.3,0,0,0,1.1,1.3v7a.3.3,0,0,0,.3.3c.1,0,.2-.2.2-.3v-7a1.2,1.2,0,0,0,1.1-1.3A1.3,1.3,0,0,0,1417.2,1474.6Z" fill="#fff"/>
        <path d="M1420.5,1478.2a1.4,1.4,0,0,0-1.4,1.4,1.4,1.4,0,0,0,1.1,1.3v6l.3.2.3-.2v-6a1.4,1.4,0,0,0,1.1-1.3A1.4,1.4,0,0,0,1420.5,1478.2Z" fill="#fff"/>
        <path d="M1423.2,1472.9a1.4,1.4,0,0,0-.2,2.7v7.6c0,.1.1.3.2.3a.3.3,0,0,0,.3-.3v-7.6a1.4,1.4,0,0,0,1.1-1.4A1.3,1.3,0,0,0,1423.2,1472.9Z" fill="#fff"/>
        <path d="M1427.3,1479.6a1.3,1.3,0,0,0-1.3-1.4,1.4,1.4,0,0,0-1.4,1.4,1.3,1.3,0,0,0,1.1,1.3v6a.3.3,0,0,0,.3.3c.1,0,.2-.1.2-.3v-6A1.2,1.2,0,0,0,1427.3,1479.6Z" fill="#fff"/>
      </g>
      <g>
        <path d="M1469.2,1485.2a1.3,1.3,0,0,0-1.4,1.3,1.4,1.4,0,0,0,1.1,1.4v6.9a.3.3,0,0,0,.6,0v-6.9a1.4,1.4,0,0,0,1.1-1.4A1.3,1.3,0,0,0,1469.2,1485.2Z" fill="#fff"/>
        <path d="M1472.5,1488.7a1.4,1.4,0,0,0-1.3,1.4,1.4,1.4,0,0,0,1.1,1.4v5.9c0,.2.1.3.2.3a.3.3,0,0,0,.3-.3v-5.9a1.5,1.5,0,0,0,1.1-1.4A1.4,1.4,0,0,0,1472.5,1488.7Z" fill="#fff"/>
        <path d="M1475.3,1483.4a1.4,1.4,0,0,0-1.4,1.4,1.3,1.3,0,0,0,1.1,1.3v7.6a.3.3,0,0,0,.3.3c.1,0,.2-.1.2-.3v-7.6a1.3,1.3,0,0,0,1.1-1.3A1.3,1.3,0,0,0,1475.3,1483.4Z" fill="#fff"/>
        <path d="M1479.4,1490.2a1.4,1.4,0,1,0-2.8,0,1.4,1.4,0,0,0,1.1,1.3v6l.3.2.3-.2v-6A1.4,1.4,0,0,0,1479.4,1490.2Z" fill="#fff"/>
      </g>
      <g>
        <path d="M1218.3,1701.1a1.3,1.3,0,0,0-1.4,1.3,1.4,1.4,0,0,0,1.1,1.4v6.9a.3.3,0,0,0,.3.3c.1,0,.2-.1.2-.3v-6.9a1.4,1.4,0,0,0-.2-2.7Z" fill="#fff"/>
        <path d="M1221.6,1704.6a1.5,1.5,0,0,0-1.4,1.4,1.5,1.5,0,0,0,1.2,1.4v5.9c0,.2.1.3.2.3a.3.3,0,0,0,.3-.3v-5.9a1.5,1.5,0,0,0,1.1-1.4A1.4,1.4,0,0,0,1221.6,1704.6Z" fill="#fff"/>
        <path d="M1224.3,1699.3a1.3,1.3,0,0,0-1.3,1.4,1.2,1.2,0,0,0,1.1,1.3v7.6c0,.2.1.3.2.3a.3.3,0,0,0,.3-.3V1702a1.3,1.3,0,0,0,1.1-1.3A1.4,1.4,0,0,0,1224.3,1699.3Z" fill="#fff"/>
        <path d="M1228.5,1706a1.4,1.4,0,0,0-1.4-1.3,1.3,1.3,0,0,0-1.4,1.3,1.4,1.4,0,0,0,1.1,1.4v6c0,.1.1.2.3.2l.2-.2v-6A1.4,1.4,0,0,0,1228.5,1706Z" fill="#fff"/>
      </g>
      <g>
        <path d="M1667.2,1528.7a1.4,1.4,0,0,0-.2,2.7v7l.2.2c.2,0,.3-.1.3-.2v-7a1.4,1.4,0,0,0,1.1-1.4A1.3,1.3,0,0,0,1667.2,1528.7Z" fill="#fff"/>
        <path d="M1670.6,1532.3a1.3,1.3,0,0,0-1.4,1.3,1.4,1.4,0,0,0,1.1,1.4v5.9a.3.3,0,0,0,.3.3c.1,0,.2-.1.2-.3V1535a1.4,1.4,0,0,0,1.1-1.4A1.3,1.3,0,0,0,1670.6,1532.3Z" fill="#fff"/>
        <path d="M1673.3,1526.9a1.4,1.4,0,0,0-1.4,1.4,1.5,1.5,0,0,0,1.1,1.4v7.6c0,.1.1.2.3.2a.2.2,0,0,0,.2-.2v-7.6a1.4,1.4,0,0,0,1.1-1.4A1.3,1.3,0,0,0,1673.3,1526.9Z" fill="#fff"/>
        <path d="M1677.4,1533.7a1.4,1.4,0,0,0-1.4-1.4,1.4,1.4,0,0,0-1.4,1.4,1.4,1.4,0,0,0,1.2,1.3v6l.2.2c.2,0,.3-.1.3-.2v-6A1.4,1.4,0,0,0,1677.4,1533.7Z" fill="#fff"/>
      </g>
      <g>
        <path d="M1583.2,1578.5a1.5,1.5,0,0,0-1.4,1.4,1.5,1.5,0,0,0,1.2,1.4v6.9c0,.2.1.3.2.3a.3.3,0,0,0,.3-.3v-6.9a1.5,1.5,0,0,0,1.1-1.4A1.4,1.4,0,0,0,1583.2,1578.5Z" fill="#fff"/>
        <path d="M1586.6,1582.1a1.4,1.4,0,0,0-1.4,1.4,1.5,1.5,0,0,0,1.1,1.4v5.9h0c0,.1,0,.2.1.2h.3c.1,0,.1-.1.1-.2h0v-5.9a1.4,1.4,0,0,0,1.1-1.4A1.3,1.3,0,0,0,1586.6,1582.1Z" fill="#fff"/>
        <path d="M1590.5,1577.6a1.3,1.3,0,0,0-1.2-.8h-.6a1.3,1.3,0,0,0-.8,1.3,1.4,1.4,0,0,0,1.1,1.3v7.6h0c0,.1,0,.2.1.2s.1.1.2.1.2-.1.2-.3v-7.6h.5l.3-.3v-.2a1,1,0,0,0,.2-.7A1.3,1.3,0,0,0,1590.5,1577.6Z" fill="#fff"/>
        <path d="M1593.4,1583.5a1.3,1.3,0,0,0-1.4-1.3,1.3,1.3,0,0,0-1.3,1.1v.2a1.3,1.3,0,0,0,.4.9,1.6,1.6,0,0,0,.8.5v5.9c0,.2.1.3.2.3a.3.3,0,0,0,.3-.3h0v-5.9l.4-.2.4-.3A1.2,1.2,0,0,0,1593.4,1583.5Z" fill="#fff"/>
      </g>
    </g>
    <g>
      <path d="M1475.4,1592.1h-8.9v-5.2h-51.1v5.2h-7.7a1.6,1.6,0,0,0-1.6,1.6v9.4H1477v-9.4A1.6,1.6,0,0,0,1475.4,1592.1Z" fill="#c6e5e4"/>
      <path d="M1451.1,1564.3h-1.9v-2.9a1.2,1.2,0,0,0-1.2-1.2h-12.9a1.1,1.1,0,0,0-1.1,1.2v2.9h-2.1a1.1,1.1,0,0,0-1.1,1.2v2.9h21.5v-2.9A1.2,1.2,0,0,0,1451.1,1564.3Z" fill="#c6e5e4"/>
      <path d="M1433.4,1568.4h16.3a3.9,3.9,0,0,1,3.9,3.9v30.8a0,0,0,0,1,0,0h-24.1a0,0,0,0,1,0,0v-30.8A3.9,3.9,0,0,1,1433.4,1568.4Z" fill="#75c5c0"/>
      <path d="M1468.1,1585h-14.4v-15a1.6,1.6,0,0,0-1.6-1.6h-.9v-2.5a.6.6,0,0,0-.6-.5h-.9a.5.5,0,0,0-.5.5v2.5h.1a1.6,1.6,0,0,0-1.6,1.6v15h-12.3v-15a1.6,1.6,0,0,0-1.6-1.6h.2v-2.5a.6.6,0,0,0-.6-.5h-.9a.6.6,0,0,0-.6.5v2.5h-.9a1.6,1.6,0,0,0-1.6,1.6v15h-14.5a1.9,1.9,0,0,0-1.8,1.9v16.2H1470v-16.2A1.9,1.9,0,0,0,1468.1,1585Zm-50.2,12.3a.3.3,0,0,1-.3.3h-1.3a.3.3,0,0,1-.3-.3v-1.2a.3.3,0,0,1,.3-.3h1.3a.3.3,0,0,1,.3.3Zm0-3.7a.5.5,0,0,1-.3.3h-1.3a.3.3,0,0,1-.3-.3v-1.2a.3.3,0,0,1,.3-.3h1.3a.3.3,0,0,1,.3.3Zm0-3.6a.5.5,0,0,1-.3.3h-1.3a.3.3,0,0,1-.3-.3v-1.2a.3.3,0,0,1,.3-.3h1.3a.3.3,0,0,1,.3.3Zm3.1,7.3c0,.2-.2.3-.4.3h-1.2a.3.3,0,0,1-.3-.3v-1.2a.3.3,0,0,1,.3-.3h1.2c.2,0,.4.1.4.3Zm0-3.7a.4.4,0,0,1-.4.3h-1.2a.3.3,0,0,1-.3-.3v-1.2a.3.3,0,0,1,.3-.3h1.2c.2,0,.4.1.4.3Zm0-3.6a.4.4,0,0,1-.4.3h-1.2a.3.3,0,0,1-.3-.3v-1.2a.3.3,0,0,1,.3-.3h1.2c.2,0,.4.1.4.3Zm3,7.3a.3.3,0,0,1-.3.3h-1.2c-.2,0-.4-.1-.4-.3v-1.2c0-.2.2-.3.4-.3h1.2a.3.3,0,0,1,.3.3Zm0-3.7a.3.3,0,0,1-.3.3h-1.2a.4.4,0,0,1-.4-.3v-1.2c0-.2.2-.3.4-.3h1.2a.3.3,0,0,1,.3.3Zm.2-3.5a.5.5,0,0,1-.3.3h-1.3a.5.5,0,0,1-.3-.3V1589a.3.3,0,0,1,.3-.3h1.3a.3.3,0,0,1,.3.3Zm2.9,7a.3.3,0,0,1-.3.3h-1.2a.3.3,0,0,1-.3-.3V1596a.3.3,0,0,1,.3-.3h1.2a.3.3,0,0,1,.3.3Zm0-3.6a.3.3,0,0,1-.3.3h-1.2a.3.3,0,0,1-.3-.3v-1.1a.3.3,0,0,1,.3-.3h1.2a.3.3,0,0,1,.3.3Zm0-3.4a.3.3,0,0,1-.3.3h-1.2a.3.3,0,0,1-.3-.3V1589a.3.3,0,0,1,.3-.3h1.2a.3.3,0,0,1,.3.3Zm28.8-1.2a.3.3,0,0,1,.3-.3h1.3a.3.3,0,0,1,.3.3v1.1a.3.3,0,0,1-.3.3h-1.3a.3.3,0,0,1-.3-.3Zm1.9,8.5a.3.3,0,0,1-.3.3h-1.3a.5.5,0,0,1-.3-.3v-1.2a.3.3,0,0,1,.3-.3h1.3a.3.3,0,0,1,.3.3Zm0-3.8a.3.3,0,0,1-.3.3h-1.3a.3.3,0,0,1-.3-.3v-1.1a.3.3,0,0,1,.3-.3h1.3a.3.3,0,0,1,.3.3Zm1.2-4.7a.3.3,0,0,1,.3-.3h1.3a.3.3,0,0,1,.3.3v1.1a.3.3,0,0,1-.3.3h-1.3a.3.3,0,0,1-.3-.3Zm1.9,8.5a.3.3,0,0,1-.3.3h-1.3l-.3-.3v-1.2a.3.3,0,0,1,.3-.3h1.3a.3.3,0,0,1,.3.3Zm0-3.8a.3.3,0,0,1-.3.3h-1.3a.3.3,0,0,1-.3-.3v-1.1a.3.3,0,0,1,.3-.3h1.3a.3.3,0,0,1,.3.3Zm1.2-4.7a.3.3,0,0,1,.3-.3h1.3a.3.3,0,0,1,.3.3v1.1a.3.3,0,0,1-.3.3h-1.3a.3.3,0,0,1-.3-.3Zm1.9,8.5a.3.3,0,0,1-.3.3h-1.3a.5.5,0,0,1-.3-.3v-1.2a.3.3,0,0,1,.3-.3h1.3a.3.3,0,0,1,.3.3Zm0-3.8a.3.3,0,0,1-.3.3h-1.3a.3.3,0,0,1-.3-.3v-1.1a.3.3,0,0,1,.3-.3h1.3a.3.3,0,0,1,.3.3Z" fill="#53bbb3"/>
      <rect x="1407.4" y="1595.2" width="1.7" height="3.31" rx="0.8" fill="#54bcb4"/>
      <rect x="1410.2" y="1595.2" width="1.7" height="3.31" rx="0.8" fill="#54bcb4"/>
      <rect x="1474.4" y="1595.1" width="1.9" height="3.64" rx="0.9" transform="translate(2950.6 3193.8) rotate(180)" fill="#54bcb4"/>
      <rect x="1471.3" y="1595.1" width="1.9" height="3.64" rx="0.9" transform="matrix(-1, 0, 0, -1, 2944.49, 3193.82)" fill="#54bcb4"/>
      <path d="M1439.3,1561.7h4a2.7,2.7,0,0,1,2.7,2.7v4.1a0,0,0,0,1,0,0h-9.4a0,0,0,0,1,0,0v-4.1A2.7,2.7,0,0,1,1439.3,1561.7Z" fill="#54bcb4"/>
      <rect x="1438.1" y="1571.8" width="1.9" height="5.21" rx="0.9" fill="#a0d5d1"/>
      <rect x="1442.1" y="1571.9" width="1.9" height="5.21" rx="0.9" fill="#a0d5d1"/>
    </g>
    <g>
      <path d="M1390.5,1588h-.6v-.6a.9.9,0,0,0-.9-.9h-15.2a.9.9,0,0,0-.9.9v.6h-.7a1.6,1.6,0,0,0-1.7,1.6v34.6a1.7,1.7,0,0,0,1.7,1.7h18.3a1.8,1.8,0,0,0,1.7-1.7v-34.6A1.7,1.7,0,0,0,1390.5,1588Z" fill="#9b93a1"/>
      <path d="M1477,1590.5h-.6v-.6a.9.9,0,0,0-.9-.9h-15.2a1,1,0,0,0-1,.9v.6h-.7a1.6,1.6,0,0,0-1.6,1.6v34.6a1.7,1.7,0,0,0,1.6,1.7H1477a1.8,1.8,0,0,0,1.7-1.7v-34.6A1.7,1.7,0,0,0,1477,1590.5Z" fill="#9b93a1"/>
      <path d="M1404.1,1519.3h-.6v-.5a.9.9,0,0,0-.9-1h-15.2a.9.9,0,0,0-1,1v.5h-.7a1.7,1.7,0,0,0-1.6,1.7v34.5a1.6,1.6,0,0,0,1.6,1.7h18.4a1.6,1.6,0,0,0,1.6-1.7V1521A1.7,1.7,0,0,0,1404.1,1519.3Z" fill="#9b93a1"/>
    </g>
    <g>
      <path d="M1403.2,1585h-13.8a.9.9,0,0,0-.8.8v40.6a.8.8,0,0,0,.8.8h13.8a.8.8,0,0,0,.8-.8v-40.6A.9.9,0,0,0,1403.2,1585Z" fill="#fff"/>
      <path d="M1395.6,1523.3h-15.2a.9.9,0,0,0-.9.9v44.9a.9.9,0,0,0,.9.9h15.2a.9.9,0,0,0,.9-.9v-44.9A.9.9,0,0,0,1395.6,1523.3Z" fill="#fff"/>
      <path d="M1454,1575.4h-15.2a.9.9,0,0,0-.9.9v44.9a.9.9,0,0,0,.9.9H1454a.9.9,0,0,0,.9-.9v-44.9A.9.9,0,0,0,1454,1575.4Z" fill="#fff"/>
    </g>
    <g>
      <path d="M1522.3,1513.6h-25.5a.7.7,0,0,0-.7.7v.3a.7.7,0,0,0,.7.7h0v18.1h0a.6.6,0,0,0,.6.6H1522a.6.6,0,0,0,.6-.6h0v-18.1a.8.8,0,0,0,.4-.7v-.3A.7.7,0,0,0,1522.3,1513.6Z" fill="#cec3d3"/>
      <path d="M1397.6,1632H1372c-.3,0-.7.3-.7.6v.3a.8.8,0,0,0,.7.7h.1v18.1h0a.6.6,0,0,0,.6.6h24.5a.6.6,0,0,0,.6-.6h0v-18.1a.7.7,0,0,0,.4-.7v-.3A.6.6,0,0,0,1397.6,1632Z" fill="#cec3d3"/>
      <path d="M1577.1,1562.9h-25.5a.7.7,0,0,0-.7.7v.3a.7.7,0,0,0,.7.7h0v18h0a.6.6,0,0,0,.6.6h24.6a.6.6,0,0,0,.6-.6h0v-18.1a.7.7,0,0,0,.4-.6v-.3A.7.7,0,0,0,1577.1,1562.9Z" fill="#cec3d3"/>
    </g>
    <g>
      <path d="M1448.7,1520.8a.9.9,0,0,0,.7-1.5l-5.8-5.6a2.5,2.5,0,0,0-1.4-.6h-9.4l-5.6-4.6h-.1V1506a.4.4,0,0,0-.4-.4h-.1a.5.5,0,0,0-.5.4v2.4h-.1l-1,.9-8.3,6.9a1,1,0,0,0,.6,1.7h1.2v9.8h0a.4.4,0,0,0-.4.3v.4c0,.2.2.3.4.3h0v2.8h0c-.2,0-.4.1-.4.3v.4c0,.2.2.3.4.3h29.6a.8.8,0,0,0,.8-.7v-11.1h-.2Zm-13.9,10.9Z" fill="#fff"/>
      <path d="M1500.5,1622.7a.9.9,0,0,0,.7-1.5l-5.7-5.6a2.2,2.2,0,0,0-1.5-.6h-9.4l-5.5-4.7h-.2v-2.3a.5.5,0,0,0-.4-.5h-.1a.5.5,0,0,0-.5.5v2.4h0l-1.1.9-8.3,7a.9.9,0,0,0,.6,1.6h1.3v9.9h-.1c-.2,0-.4.1-.4.2v.5a.4.4,0,0,0,.4.3h.1v2.8h-.1c-.2,0-.4.1-.4.2v.5c0,.1.2.2.4.2H1500a.7.7,0,0,0,.7-.7v-11.1h-.2Zm-13.9,10.8h0Z" fill="#fff"/>
      <path d="M1401.5,1688.8a.9.9,0,0,0,.7-1.5l-5.8-5.6a2,2,0,0,0-1.5-.6h-9.3l-5.6-4.6h-.1V1674a.4.4,0,0,0-.4-.4h-.1a.5.5,0,0,0-.5.4v2.4h-.1l-1,.9-8.3,6.9a1,1,0,0,0,.6,1.7h1.2v9.8h0a.4.4,0,0,0-.4.3v.4c0,.2.2.3.4.3h0v2.8h0c-.2,0-.4.1-.4.3v.4c0,.2.2.3.4.3h29.6a.8.8,0,0,0,.8-.7v-11.1h-.2Zm-13.9,10.9Z" fill="#fff"/>
      <path d="M1343.3,1630l-5.8-5.6a2,2,0,0,0-1.5-.6h-9.3l-5.6-4.7h-.1v-2.4a.5.5,0,0,0-.4-.5h-.1a.5.5,0,0,0-.5.5v2.4h-.1l-1,.9-8.3,7a.9.9,0,0,0,.6,1.6h1.2v9.9h0c-.2,0-.4.1-.4.3v.4a.4.4,0,0,0,.4.3h0v2.8h0l-.4.2v.5c0,.1.2.2.4.2H1342a.8.8,0,0,0,.8-.7v-11.1h-.2A.9.9,0,0,0,1343.3,1630Zm-14.6,12.3h0Z" fill="#fff"/>
      <path d="M1569.5,1588.2a.9.9,0,0,0,.6-1.5l-5.7-5.6a2,2,0,0,0-1.5-.6h-9.3l-5.6-4.7h-.1v-2.3a.5.5,0,0,0-.5-.5h-.1a.5.5,0,0,0-.4.5v2.4h-.1l-1.1.9-8.3,7a.9.9,0,0,0,.6,1.6h1.3v9.9h-.1c-.2,0-.4.1-.4.2v.5a.4.4,0,0,0,.4.3h.1v2.8h-.1l-.4.2v.5c0,.1.2.2.4.2h29.7a.7.7,0,0,0,.7-.7v-11.1h-.1Zm-14,10.8h0Z" fill="#fff"/>
      <path d="M1545.3,1529.9l-5.8-5.6a2,2,0,0,0-1.4-.6h-9.4l-5.6-4.7h-.1v-2.3a.5.5,0,0,0-.4-.5h-.1a.5.5,0,0,0-.5.5v2.4h-.1l-1,.9-8.3,7a.9.9,0,0,0,.6,1.6h1.2v9.9h0c-.2,0-.4.1-.4.3v.4a.4.4,0,0,0,.4.3h0v2.8h0c-.2,0-.4.1-.4.2v.5c0,.1.2.2.4.2h29.2a.2.2,0,0,0,.2-.2h0c0-.2-.1-.3-.2-.3h-.1a1.1,1.1,0,0,0,.3-.8v-10.4h.8A.9.9,0,0,0,1545.3,1529.9Zm-14.6,12.3h0Z" fill="#bd4457"/>
      <path d="M1483.6,1693.5a.8.8,0,0,0,.6-1.4l-5.7-5.6a2,2,0,0,0-1.5-.6h-9.3l-5.6-4.7a.1.1,0,0,1-.1-.1v-2.4a.5.5,0,0,0-.5-.4h-.1a.4.4,0,0,0-.4.4v2.5h-.1l-1.1.9-8.3,7a.9.9,0,0,0,.6,1.6h1.3v9.9h-.1c-.2,0-.4.1-.4.2v.5l.4.2h.1v2.8h-.1a.4.4,0,0,0-.4.3v.4c0,.2.2.3.4.3H1483a.7.7,0,0,0,.7-.7v-11.1h-.1Zm-14,10.9Z" fill="#fff"/>
      <path d="M1448.7,1641a.8.8,0,0,0,.7-1.4l-5.8-5.6a2,2,0,0,0-1.4-.6h-9.4l-5.6-4.7h-.1v-2.4a.4.4,0,0,0-.4-.4h-.1a.5.5,0,0,0-.5.4v2.5h-.1l-1,.9-8.3,7a.9.9,0,0,0,.6,1.6h1.2v9.9h0c-.2,0-.4.1-.4.2v.5l.4.2h0v2.8h0a.4.4,0,0,0-.4.3v.4c0,.2.2.3.4.3h29.6a.8.8,0,0,0,.8-.7v-11.1h-.2Zm-13.9,10.9Z" fill="#fff"/>
      <path d="M1386.9,1700.9l-5.7-5.6a2.2,2.2,0,0,0-1.5-.6h-9.4l-5.5-4.7h-.2v-2.4c0-.3-.1-.5-.4-.5h-.1a.5.5,0,0,0-.4.5v2.4h-.1l-1.1.9-8.3,7a.9.9,0,0,0,.6,1.6h1.3v9.9h-.1c-.2,0-.4.1-.4.3v.4a.4.4,0,0,0,.4.3h.1v2.8h-.1c-.2,0-.4.1-.4.2v.5c0,.1.2.2.4.2h29.2c.1,0,.2-.2.2-.3h0c0-.1-.1-.3-.2-.3h-.1a1.1,1.1,0,0,0,.3-.8v-10.4h.9A.9.9,0,0,0,1386.9,1700.9Zm-14.6,12.3h0Z" fill="#fff"/>
      <path d="M1372.2,1717.6a.9.9,0,0,0,.6-1.5l-5.7-5.5a2.2,2.2,0,0,0-1.5-.6h-9.4l-5.5-4.7h-.2v-2.4a.4.4,0,0,0-.4-.4h-.1a.5.5,0,0,0-.5.4v2.4h0l-1.1.9-8.3,6.9a1,1,0,0,0,.6,1.7h1.3v9.9h-.1c-.2,0-.4.1-.4.2v.5c0,.1.2.2.4.2h.1v2.8h-.1c-.2,0-.4.1-.4.3v.4c0,.2.2.3.4.3h29.7a.7.7,0,0,0,.7-.7v-11.1h-.1Zm-14,10.9Z" fill="#fff"/>
      <path d="M1482.8,1509.1a.8.8,0,0,0,.7-1.4l-5.8-5.6a2,2,0,0,0-1.4-.6h-9.4l-5.6-4.7h-.1v-2.4a.4.4,0,0,0-.4-.4h-.1a.5.5,0,0,0-.5.4v2.4h-.1l-1,.9-8.3,6.9a1,1,0,0,0,.6,1.7h1.2v9.9h0l-.4.2v.5l.4.2h0v2.8h0a.4.4,0,0,0-.4.3v.4c0,.2.2.3.4.3h29.6a.8.8,0,0,0,.8-.7v-11.1h-.2Zm-13.9,10.9Z" fill="#fff"/>
      <path d="M1571.6,1639.2a.9.9,0,0,0,.6-1.5l-5.7-5.6a2,2,0,0,0-1.5-.6h-9.3l-5.6-4.6h-.1v-2.4a.5.5,0,0,0-.5-.5h-.1a.5.5,0,0,0-.4.5v2.4c-.1,0-.1,0-.1.1l-1.1.8-8.3,7a1,1,0,0,0,.6,1.7h1.3v9.8h-.1c-.2,0-.4.1-.4.3v.4c0,.2.2.3.4.3h.1v2.8h-.1c-.2,0-.4.1-.4.2v.5a.4.4,0,0,0,.4.3H1571a.8.8,0,0,0,.7-.8v-11.1h-.1Zm-14,10.9Z" fill="#fff"/>
    </g>
    <g>
      <path d="M1584.7,1545.6l-5.1-5.8a.5.5,0,0,0-.5-.3h-12.7a.5.5,0,0,0-.5.3l-5.1,5.8c-.3.4-.1,1.1.4,1.1h2.4v4.7h-.1a.4.4,0,0,0-.4.4v.6a.4.4,0,0,0,.4.4h.1v7a1.7,1.7,0,0,0,.3,1,.3.3,0,0,0-.3.3v.2a.3.3,0,0,0,.3.3h17.2a.3.3,0,0,0,.3-.3v-.2c0-.2-.1-.3-.2-.3a1.7,1.7,0,0,0,.3-1v-7h.2a.4.4,0,0,0,.4-.4v-.6a.4.4,0,0,0-.4-.4h-.2v-4.7h2.7A.7.7,0,0,0,1584.7,1545.6Z" fill="#e76871"/>
      <path d="M1426.5,1493.6l-5.1-5.9-.5-.2h-12.7l-.5.2-5.1,5.9a.6.6,0,0,0,.5,1h2.3v4.8h-.1a.4.4,0,0,0-.4.4v.5a.4.4,0,0,0,.4.4h.1v7.1a1.9,1.9,0,0,0,.3,1,.3.3,0,0,0-.3.3v.2a.5.5,0,0,0,.3.3H1423a.5.5,0,0,0,.3-.3v-.2a.3.3,0,0,0-.3-.3,1.9,1.9,0,0,0,.3-1v-7.1h.2a.4.4,0,0,0,.4-.4v-.5a.4.4,0,0,0-.4-.4h-.2v-4.8h2.8A.6.6,0,0,0,1426.5,1493.6Z" fill="#e76871"/>
      <path d="M1496,1514.2l-5.1-5.9-.5-.2h-12.7l-.5.2-5.1,5.9a.6.6,0,0,0,.4,1h2.4v4.8h-.1a.4.4,0,0,0-.4.4v.5a.4.4,0,0,0,.4.4h.1v7.1a1.7,1.7,0,0,0,.3,1,.3.3,0,0,0-.3.3v.2a.5.5,0,0,0,.3.3h17.2a.3.3,0,0,0,.3-.3v-.2c0-.2-.1-.3-.2-.3a1.7,1.7,0,0,0,.3-1v-7.1h.2a.4.4,0,0,0,.4-.4v-.5a.4.4,0,0,0-.4-.4h-.2v-4.8h2.7A.6.6,0,0,0,1496,1514.2Z" fill="#e76871"/>
      <path d="M1512.6,1489.1l-5.1-5.9-.5-.2h-12.7l-.5.2-5.1,5.9a.6.6,0,0,0,.5,1h2.4v4.8h-.2a.4.4,0,0,0-.4.4v.5a.4.4,0,0,0,.4.4h.2v7.1a2.4,2.4,0,0,0,.2.9l-.2.3v.2c0,.2.1.4.3.4h17.2a.4.4,0,0,0,.3-.4v-.2l-.3-.3a1.4,1.4,0,0,0,.3-.9v-7.1h.2a.4.4,0,0,0,.4-.4v-.5a.4.4,0,0,0-.4-.4h-.2v-4.8h2.8A.6.6,0,0,0,1512.6,1489.1Z" fill="#e76871"/>
      <path d="M1487.4,1634.7l-5.1-5.8a.5.5,0,0,0-.5-.3h-12.7a.5.5,0,0,0-.5.3l-5.1,5.8c-.3.4-.1,1.1.4,1.1h2.4v4.7h-.1a.4.4,0,0,0-.4.4v.6a.4.4,0,0,0,.4.4h.1v7a1.7,1.7,0,0,0,.3,1,.5.5,0,0,0-.3.3v.2a.3.3,0,0,0,.3.3h17.2a.3.3,0,0,0,.3-.3v-.2c0-.1-.1-.3-.2-.3a1.7,1.7,0,0,0,.3-1v-7h.2a.4.4,0,0,0,.4-.4v-.6a.4.4,0,0,0-.4-.4h-.2v-4.7h2.7A.7.7,0,0,0,1487.4,1634.7Z" fill="#e76871"/>
      <path d="M1333.6,1689.6l-5.1-5.8a.5.5,0,0,0-.5-.3h-12.7a.5.5,0,0,0-.5.3l-5.1,5.8c-.3.4-.1,1.1.4,1.1h2.4v4.7h-.1a.4.4,0,0,0-.4.4v.6a.4.4,0,0,0,.4.4h.1v7a1.7,1.7,0,0,0,.3,1,.3.3,0,0,0-.3.3v.2a.3.3,0,0,0,.3.3H1330a.3.3,0,0,0,.3-.3v-.2c0-.2-.1-.3-.2-.3a1.7,1.7,0,0,0,.3-1v-7h.2a.4.4,0,0,0,.4-.4v-.6a.4.4,0,0,0-.4-.4h-.2v-4.7h2.7A.7.7,0,0,0,1333.6,1689.6Z" fill="#e76871"/>
      <path d="M1399.9,1714.3l-5.1-5.8a.5.5,0,0,0-.5-.3h-12.7c-.2,0-.3.1-.5.3l-5.1,5.8a.7.7,0,0,0,.5,1.1h2.4v4.7h-.2a.4.4,0,0,0-.4.4v.6a.4.4,0,0,0,.4.4h.2v7a1.7,1.7,0,0,0,.3,1,.3.3,0,0,0-.3.3v.2a.3.3,0,0,0,.3.3h17.2a.3.3,0,0,0,.3-.3v-.2a.3.3,0,0,0-.3-.3,1.7,1.7,0,0,0,.3-1v-7h.2a.4.4,0,0,0,.4-.4v-.6a.4.4,0,0,0-.4-.4h-.2v-4.7h2.8A.6.6,0,0,0,1399.9,1714.3Z" fill="#e76871"/>
      <path d="M1461.1,1706.1l-5-5.9a.6.6,0,0,0-.5-.2h-12.7c-.2,0-.4,0-.5.2l-5.1,5.9a.6.6,0,0,0,.4,1h2.4v4.8h-.1c-.3,0-.4.1-.4.4v.5a.4.4,0,0,0,.4.4h.1v7.1a1.4,1.4,0,0,0,.3.9.3.3,0,0,0-.3.3v.2a.3.3,0,0,0,.3.3h17.2a.3.3,0,0,0,.3-.3v-.2l-.2-.3a2.4,2.4,0,0,0,.2-.9v-7.1h.3a.4.4,0,0,0,.4-.4v-.5a.4.4,0,0,0-.4-.4h-.3v-4.8h2.8A.6.6,0,0,0,1461.1,1706.1Z" fill="#e76871"/>
      <path d="M1494.6,1720.3l-5.1-5.9-.5-.2h-12.7l-.5.2-5.1,5.9a.6.6,0,0,0,.4,1h2.4v4.8h-.1a.4.4,0,0,0-.4.4v.5c0,.3.1.4.4.4h.1v7.1a1.7,1.7,0,0,0,.3,1,.3.3,0,0,0-.3.3v.2a.3.3,0,0,0,.3.3H1491a.3.3,0,0,0,.3-.3v-.2c0-.2-.1-.3-.2-.3a3,3,0,0,0,.2-1v-7.1h.3a.4.4,0,0,0,.4-.4v-.5a.4.4,0,0,0-.4-.4h-.3v-4.8h2.8A.6.6,0,0,0,1494.6,1720.3Z" fill="#e76871"/>
      <path d="M1611.4,1536.7l-5.1-5.8a.5.5,0,0,0-.5-.3h-12.7a.5.5,0,0,0-.5.3l-5.1,5.8a.7.7,0,0,0,.5,1.1h2.4v4.7h-.2a.4.4,0,0,0-.4.4v.6a.4.4,0,0,0,.4.4h.2v7a3,3,0,0,0,.2,1c-.1,0-.2.1-.2.3v.2a.3.3,0,0,0,.3.3h17.2a.3.3,0,0,0,.3-.3v-.2a.3.3,0,0,0-.3-.3,1.7,1.7,0,0,0,.3-1v-7h.2a.4.4,0,0,0,.4-.4v-.6a.4.4,0,0,0-.4-.4h-.2v-4.7h2.8A.6.6,0,0,0,1611.4,1536.7Z" fill="#e76871"/>
      <path d="M1429.8,1559l-5.1-5.8a.5.5,0,0,0-.5-.3h-12.7a.5.5,0,0,0-.5.3l-5.1,5.8a.7.7,0,0,0,.5,1.1h2.3v4.7h-.1a.4.4,0,0,0-.4.4v.6a.4.4,0,0,0,.4.4h.1v7a2.9,2.9,0,0,0,.3,1c-.1,0-.2.1-.2.3v.2a.3.3,0,0,0,.3.3h17.2a.3.3,0,0,0,.3-.3v-.2a.3.3,0,0,0-.3-.3,1.7,1.7,0,0,0,.3-1v-7h.2a.4.4,0,0,0,.4-.4v-.6a.4.4,0,0,0-.4-.4h-.2v-4.7h2.8C1429.9,1560.1,1430.1,1559.4,1429.8,1559Z" fill="#e76871"/>
      <path d="M1514.4,1589.2l-5.1-5.9c-.1-.2-.3-.2-.5-.2h-12.7c-.2,0-.4,0-.5.2l-5.1,5.9a.6.6,0,0,0,.4,1h2.4v4.8h-.1a.4.4,0,0,0-.4.4v.5a.4.4,0,0,0,.4.4h.1v7.1a1.6,1.6,0,0,0,.3.9l-.3.3v.2a.3.3,0,0,0,.3.3h17.2a.3.3,0,0,0,.3-.3v-.2l-.2-.3a1.4,1.4,0,0,0,.3-.9v-7.1h.2a.4.4,0,0,0,.4-.4v-.5a.4.4,0,0,0-.4-.4h-.2v-4.8h2.7A.6.6,0,0,0,1514.4,1589.2Z" fill="#e76871"/>
      <path d="M1524.7,1593.4l-5.1-5.8a.5.5,0,0,0-.5-.3h-12.7a.5.5,0,0,0-.5.3l-5.1,5.8a.7.7,0,0,0,.5,1.1h2.3v4.7h-.1a.4.4,0,0,0-.4.4v.6a.4.4,0,0,0,.4.4h.1v7a2.9,2.9,0,0,0,.3,1c-.1,0-.2.1-.2.3v.2a.3.3,0,0,0,.3.3h17.2a.3.3,0,0,0,.3-.3v-.2a.3.3,0,0,0-.3-.3,1.7,1.7,0,0,0,.3-1v-7h.2a.4.4,0,0,0,.4-.4v-.6a.4.4,0,0,0-.4-.4h-.2v-4.7h2.8C1524.8,1594.5,1525,1593.8,1524.7,1593.4Z" fill="#e76871"/>
      <path d="M1580.5,1650.1l-5.1-5.8a.5.5,0,0,0-.5-.3h-12.7a.5.5,0,0,0-.5.3l-5.1,5.8a.6.6,0,0,0,.4,1.1h2.4v4.7h-.1a.4.4,0,0,0-.4.4v.6a.4.4,0,0,0,.4.4h.1v7a1.7,1.7,0,0,0,.3,1,.3.3,0,0,0-.3.3v.2a.3.3,0,0,0,.3.3h17.2a.3.3,0,0,0,.3-.3v-.2c0-.1-.1-.3-.2-.3a1.7,1.7,0,0,0,.3-1v-7h.2a.4.4,0,0,0,.4-.4v-.6a.4.4,0,0,0-.4-.4h-.2v-4.7h2.7A.7.7,0,0,0,1580.5,1650.1Z" fill="#e76871"/>
      <path d="M1452,1492.8l-5-5.9-.6-.2h-12.6l-.6.2-5,5.9a.6.6,0,0,0,.4,1h2.4v4.8h-.2a.4.4,0,0,0-.4.4v.5a.4.4,0,0,0,.4.4h.2v7.1a1.9,1.9,0,0,0,.3,1,.3.3,0,0,0-.3.3v.2a.3.3,0,0,0,.3.3h17.2a.3.3,0,0,0,.3-.3v-.2a.3.3,0,0,0-.3-.3,1.9,1.9,0,0,0,.3-1v-7.1h.3a.4.4,0,0,0,.4-.4v-.5a.4.4,0,0,0-.4-.4h-.3v-4.8h2.8A.6.6,0,0,0,1452,1492.8Z" fill="#e76871"/>
      <path d="M1406.3,1647.7l-5.1-5.9-.5-.2H1388l-.5.2-5.1,5.9a.6.6,0,0,0,.4,1h2.4v4.8h-.1a.4.4,0,0,0-.4.4v.5a.4.4,0,0,0,.4.4h.1v7.1a1.9,1.9,0,0,0,.3,1,.3.3,0,0,0-.3.3v.2l.3.3h17.2a.3.3,0,0,0,.3-.3v-.2c0-.2-.1-.3-.2-.3a1.9,1.9,0,0,0,.3-1v-7.1h.2a.4.4,0,0,0,.4-.4v-.5a.4.4,0,0,0-.4-.4h-.2v-4.8h2.7A.6.6,0,0,0,1406.3,1647.7Z" fill="#e76871"/>
      <path d="M1308.3,1627.2l-5.1-5.8a.5.5,0,0,0-.5-.3H1290c-.2,0-.3.1-.5.3l-5.1,5.8a.7.7,0,0,0,.5,1.1h2.4v4.7h-.2a.4.4,0,0,0-.4.4v.6a.4.4,0,0,0,.4.4h.2v7a1.7,1.7,0,0,0,.3,1,.3.3,0,0,0-.3.3v.2a.3.3,0,0,0,.3.3h17.2a.3.3,0,0,0,.3-.3v-.2a.3.3,0,0,0-.3-.3,1.7,1.7,0,0,0,.3-1v-7h.2a.4.4,0,0,0,.4-.4v-.6a.4.4,0,0,0-.4-.4h-.2v-4.7h2.8A.6.6,0,0,0,1308.3,1627.2Z" fill="#e76871"/>
      <path d="M1520.2,1632.5l-5.1-5.9-.5-.2h-12.7l-.5.2-5.1,5.9a.6.6,0,0,0,.5,1h2.4v4.8h-.2a.4.4,0,0,0-.4.4v.5a.4.4,0,0,0,.4.4h.2v7.1a1.7,1.7,0,0,0,.3,1,.3.3,0,0,0-.3.3v.2a.3.3,0,0,0,.3.3h17.2a.3.3,0,0,0,.3-.3v-.2a.3.3,0,0,0-.3-.3,1.7,1.7,0,0,0,.3-1v-7.1h.2c.3,0,.4-.1.4-.4v-.5a.4.4,0,0,0-.4-.4h-.2v-4.8h2.8A.6.6,0,0,0,1520.2,1632.5Z" fill="#e76871"/>
    </g>
    <path d="M1569.6,1708.9l4.9-10h-4.1l-.5.3c-1.8,1.3-7.6,6.3-7.8,6.5h-4.9l9.1-12-6.6.2a5.3,5.3,0,0,0-2.9,1l-3.8,2.9h-5.1a1.7,1.7,0,0,0,.1,3.4h.3l-6.4,4.8-10.6.2h-.3a3.3,3.3,0,0,0-2.3.9l-1.3,1.2-2.5,2.5-.5.5a2.9,2.9,0,0,0-.5,2,3.3,3.3,0,0,0,3.3,3.3l18.5-.4,5.6,3.8h-.7a1.7,1.7,0,0,0-1.5,1.7,1.6,1.6,0,0,0,1.5,1.7h5.5l1.7,1.2a5.2,5.2,0,0,0,3,.8h6.6l-7.7-9.3h3.6a5.7,5.7,0,0,0,4.3-3.2h0a2.5,2.5,0,0,0,1.6.6,2.2,2.2,0,0,0,1.5-.6,2.3,2.3,0,0,0,0-3.1Z" fill="#cec3d3"/>
    <g>
      <path d="M1466.2,1564c-2.1-5.5,2.2-11.2,2.3-16.5a12.3,12.3,0,0,0-2.6-6.9c-.1-.2-.1-.4.1-.5,3.8,2.8,3.8,8.9,2.1,12.8a21.2,21.2,0,0,0-1.6,6.7C1466.1,1560.8,1467.1,1563.4,1466.2,1564Z" fill="#53bbb3"/>
      <path d="M1468.1,1564.3c-3.1-7.6,4.6-13.6,7.7-20.1a33.6,33.6,0,0,0,2.7-8.3c.1-.3.3-.5.6-.4s-1.8,7.3-2.5,9.1c-2.7,5.9-7.2,8.9-8.1,15.3C1468.1,1561,1469.2,1564,1468.1,1564.3Z" fill="#53bbb3"/>
      <path d="M1470.6,1564.9a.7.7,0,0,1-.7-.6c-.3-4.8.7-8.8,3-11.9,5.3-6,11.7-7.9,12.6-17.3a.7.7,0,1,1,1.3.2c-1.4,15.1-17,12.9-15.5,28.9A.7.7,0,0,1,1470.6,1564.9Z" fill="#53bbb3"/>
      <path d="M1502.4,1564c-.8-.5.1-3.2-.3-4.3a25.6,25.6,0,0,0-1.5-6.8c-1.7-3.9-1.7-9.9,2-12.8.2.1.2.3.1.5a12.2,12.2,0,0,0-2.5,6.9C1500.3,1552.8,1504.6,1558.5,1502.4,1564Z" fill="#53bbb3"/>
      <path d="M1500.5,1564.4c-1.1-.4.1-3.4-.4-4.5-.9-6.4-5.4-9.4-8.1-15.3-.7-1.8-3.6-7.5-2.5-9.1a.4.4,0,0,1,.6.4,33.8,33.8,0,0,0,2.8,8.3C1495.9,1550.8,1503.6,1556.8,1500.5,1564.4Z" fill="#53bbb3"/>
      <path d="M1498,1565a.8.8,0,0,1-.7-.7c1.5-16.1-14-13.9-15.5-29a.7.7,0,0,1,1.3-.2c1,9.5,7.3,11.3,12.7,17.3,2.2,3.1,3.2,7.1,2.9,11.9A.7.7,0,0,1,1498,1565Z" fill="#53bbb3"/>
      <path d="M1502.8,1567.8h-5.4a.9.9,0,0,1-.9-.9c.2-.8-.6-3.7.9-3.6h5.4a.9.9,0,0,1,.9.8C1503.5,1564.9,1504.2,1567.8,1502.8,1567.8Z" fill="#c6e5e4"/>
      <path d="M1471.2,1567.8h-5.5a.9.9,0,0,1-.8-.9c.2-.8-.6-3.7.8-3.6h5.5a.9.9,0,0,1,.8.8C1471.8,1564.9,1472.6,1567.8,1471.2,1567.8Z" fill="#c6e5e4"/>
    </g>
    <g>
      <rect x="1457.8" y="1526" width="1.5" height="7.77" rx="0.8" fill="#c6e5e4"/>
      <rect x="1480.4" y="1525.2" width="1.5" height="7.77" rx="0.8" fill="#c6e5e4"/>
      <rect x="1456.5" y="1508.5" width="26.7" height="18.34" rx="2.1" fill="#54bcb4"/>
      <rect x="1457.6" y="1509.5" width="24.5" height="16.4" rx="1.9" fill="#75c5c0"/>
      <rect x="1457.6" y="1512.7" width="24.5" height="3.24" fill="#90cfcb"/>
      <rect x="1457.6" y="1519.4" width="24.5" height="3.24" fill="#90cfcb"/>
    </g>
    <g>
      <path d="M1531.6,1692.3h14.7a1.6,1.6,0,0,0,1.5-1.1l.6-2.1a1.7,1.7,0,0,0-.2-1.2l-1.1-1.9a.4.4,0,0,1-.1-.3l-2-6v-.2l-.9-2a1.5,1.5,0,0,0-1.4-.9H1539l-.8.2-4.1,2.5a1.3,1.3,0,0,0-.7.9l-2.1,7.1a.1.1,0,0,0-.1.1l-.9,2.1v1A1.6,1.6,0,0,0,1531.6,1692.3Z" fill="#c6e5e4"/>
      <path d="M1545,1661.6h-3.7a1.2,1.2,0,0,0-1.3,1.2v1.9a1.3,1.3,0,0,0,1.3,1.3h1.4v17.6h1.1V1666h1.2a1.3,1.3,0,0,0,1.3-1.3v-1.9A1.2,1.2,0,0,0,1545,1661.6Zm.6,3.1a.5.5,0,0,1-.6.6h-3.7a.5.5,0,0,1-.6-.6v-1.9a.6.6,0,0,1,.6-.6h3.7a.6.6,0,0,1,.6.6Z" fill="#53bbb3"/>
      <path d="M1541.7,1686.2a.3.3,0,0,1,.5-.1l1.2.5h2.4v-2.8a1.2,1.2,0,0,0-1.2-1.2H1542a1.3,1.3,0,0,0-1.3,1.2v3.2Z" fill="#90cfcb"/>
    </g>
    <g>
      <path d="M1464.2,1623l-2.1-2.2h-2.6v-.3h1.4a.2.2,0,0,0,.2-.2l-.2-.2h-1.4v-.3h1.3a.2.2,0,0,0,.2-.2l-.2-.2h-1.3v-1a.2.2,0,0,0-.4,0v1h-7v-1a.2.2,0,1,0-.4,0v1h-3.6v-1a.2.2,0,1,0-.4,0v1h-7.2v-1a.2.2,0,0,0-.4,0v1h-1.2l-.2.2a.2.2,0,0,0,.2.2h1.2v.3h-1.3c-.1,0-.1.1-.1.2s0,.2.1.2h1.3v.3h-1a1.1,1.1,0,0,0-1,1v46.6a1.1,1.1,0,0,0,1,1h24.2a1.3,1.3,0,0,0,1.3-1.3v-44.2A1.1,1.1,0,0,0,1464.2,1623Zm-12.1-3.2h7v.3h-7Zm7,.7v.3h-7v-.3Zm-11-.7h3.6v.3h-3.6Zm3.6.7v.3h-3.6v-.3Zm-11.2-.7h7.2v.3h-7.2Zm0,.7h7.2v.3h-7.2Z" fill="#c6e5e4"/>
      <path d="M1439.1,1620.8a1.1,1.1,0,0,0-1,1v46.6a1.1,1.1,0,0,0,1,1h23v-48.6Z" fill="#90cfcb"/>
      <path d="M1447.1,1625.1h15v-4.3h-23a1.1,1.1,0,0,0-1,1v46.6a1.1,1.1,0,0,0,1,1h23v-8.7h-14.5a1,1,0,0,1-1-.9v-14.3a1,1,0,0,1,1-.9h14.5v-15.5h-15a.5.5,0,0,1-.5-.4v-3.2A.5.5,0,0,1,1447.1,1625.1Zm-6.7-1.3a.6.6,0,0,1,.6-.6h2.7a.6.6,0,0,1,.6.6v4.2a.6.6,0,0,1-.6.6H1441a.6.6,0,0,1-.6-.6Zm3.9,19.4a.6.6,0,0,1-.6.6H1441a.6.6,0,0,1-.6-.6V1639a.6.6,0,0,1,.6-.6h2.7a.6.6,0,0,1,.6.6Zm0-7.6a.6.6,0,0,1-.6.6H1441a.6.6,0,0,1-.6-.6v-4.2a.6.6,0,0,1,.6-.6h2.7a.6.6,0,0,1,.6.6Zm11.9,26.8a.6.6,0,0,1,.6-.6h2.7a.6.6,0,0,1,.6.6v4.2a.6.6,0,0,1-.6.6h-2.7a.6.6,0,0,1-.6-.6Zm-4.8,0a.6.6,0,0,1,.6-.6h2.7a.6.6,0,0,1,.6.6v4.2a.6.6,0,0,1-.6.6H1452a.6.6,0,0,1-.6-.6Zm-4.2-.6h2.7a.6.6,0,0,1,.6.6v4.2a.6.6,0,0,1-.6.6h-2.7a.6.6,0,0,1-.6-.6v-4.2A.6.6,0,0,1,1447.2,1661.8Zm3.3-19.9a.6.6,0,0,1-.6.6h-2.7a.6.6,0,0,1-.6-.6v-4.2a.6.6,0,0,1,.6-.6h2.7a.6.6,0,0,1,.6.6Zm5.7-10.5a.6.6,0,0,1,.6-.6h2.7a.6.6,0,0,1,.6.6v4.2a.6.6,0,0,1-.6.6h-2.7a.6.6,0,0,1-.6-.6Zm0,6.3a.6.6,0,0,1,.6-.6h2.7a.6.6,0,0,1,.6.6v4.2a.6.6,0,0,1-.6.6h-2.7a.6.6,0,0,1-.6-.6Zm-4.8-6.3a.6.6,0,0,1,.6-.6h2.7a.6.6,0,0,1,.6.6v4.2a.6.6,0,0,1-.6.6H1452a.6.6,0,0,1-.6-.6Zm0,6.3a.6.6,0,0,1,.6-.6h2.7a.6.6,0,0,1,.6.6v4.2a.6.6,0,0,1-.6.6H1452a.6.6,0,0,1-.6-.6Zm-4.2-6.9h2.7a.6.6,0,0,1,.6.6v4.2a.6.6,0,0,1-.6.6h-2.7a.6.6,0,0,1-.6-.6v-4.2A.6.6,0,0,1,1447.2,1630.8Z" fill="#54bcb4"/>
    </g>
    <g>
      <path d="M1394.1,1629.2h-33.4a2.2,2.2,0,0,1-1.8-3.4l10.5-16.1,6.2-9.5a2.1,2.1,0,0,1,3.6,0l6.2,9.5,10.5,16.1A2.2,2.2,0,0,1,1394.1,1629.2Z" fill="#90cfcb"/>
      <path d="M1385.4,1609.7h-16l6.2-9.5a2.1,2.1,0,0,1,3.6,0Z" fill="#54bcb4"/>
      <path d="M1381.5,1625.9v3.3h-8.2v-3.3a2.2,2.2,0,0,1,2.3-2.2h3.6A2.2,2.2,0,0,1,1381.5,1625.9Z" fill="#54bcb4"/>
      <ellipse cx="1377.4" cy="1616.4" rx="4.8" ry="2.1" fill="#54bcb4"/>
      <g>
        <path d="M1396.3,1622.4a8,8,0,0,0-7,4.4h0a4,4,0,0,0-4,4.1h0v.2h18.5a.3.3,0,0,0,.3-.3h0A8.2,8.2,0,0,0,1396.3,1622.4Z" fill="#c6e5e4"/>
        <path d="M1365.6,1626.8h-.1a7.8,7.8,0,0,0-6.9-4.4,8.2,8.2,0,0,0-7.9,8.4h0c0,.2.1.3.2.3h18.6A4,4,0,0,0,1365.6,1626.8Z" fill="#c6e5e4"/>
      </g>
    </g>
    <g>
      <path d="M1524.5,1636.9c0-.1-.1-.3-.1-.4s-.3-.3-.5-.3h-2.3v-1.3a.6.6,0,0,0-.1-.4h-.4a.6.6,0,0,0-.6.5v1.3h-34.9v-1.3a.8.8,0,0,0-.2-.4h-.3a.6.6,0,0,0-.6.5v1.3h-1.8a.5.5,0,0,0-.4.2.7.7,0,0,0-.2.6c0,.4.3.8.6.8h1.8v17.6l-.4.2c-.1.1-.1.2-.1.4a.5.5,0,0,0,.5.5h1.5a.6.6,0,0,0,.1-.4H1520a.5.5,0,0,0,.5.5h1.5l.2-.4a.6.6,0,0,0-.6-.6v-17.6h2.6v-.2c.2-.1.2-.3.2-.5Zm-4,18.4-1.9-1,1-2.2.9.5v2.7Zm-10.8-.2.8-1.7,1.8.9-.6,1.1h-1.4Zm-20.7.2-2.3-1,.8-1.6,2.3,1Zm-3.4-3.9.7-1.4,1.8.8-.7,1.5-1.8-.7Zm3.5-13.6-.5,1.1-1.9-.9.2-.2Zm2.8,0h0l-1.1,2.3-2-1,.7-1.3Zm4.9,0,1,.4-.9,1.8-2.2-1.1.5-1.1Zm4,0-.6,1.2-2-.9.2-.3Zm1.5,0,.9.4-.9,1.9-1.9-.9.8-1.4Zm4.2,0-.7,1.3-2.2-1.1v-.2Zm1.1,0,1.5.7-.9,1.7-2.1-1,.7-1.4Zm4.5,0-.7,1.3-1.8-.8.2-.5Zm5.7,0-.8,1.7-2.3-1,.3-.7Zm2.7,3.5v1.9l-1.8-.8.8-1.5Zm-.9-.7.9-1.7v2.1Zm-34,8.7v-2.5l1.5.7-1,2.1Zm.4.6-.4.8v-1Zm.3-5.6,2,.9-1,2-1.7-.7v-.6Zm-.7.8V1644l.5.2Zm20.4-5.6,2.1,1-1,1.9-2.1-1,1-1.9Zm-15.5,6.8-1,2-1.9-.9.9-2Zm-1.8-1.2,1.1-2.3,2,1-1.2,2.2Zm2.1,1.3,2.2,1.1-1,2-2.3-1.1Zm.1-.2,1.2-2.3,2.2,1.2-1.1,2.1Zm4.8-3.2,2,1-1,1.9-2-1Zm-1.3,1.8-2.2-1.1,1-2,2.2,1.1Zm.1.4,2,1-1.1,2.1-2-.9Zm2.3,1.1,2,1.1-1,2-2.1-.9Zm.1-.2,1-2,1.9,1-.9,2Zm4.4-3.4,2.2,1.1-1.1,2.3-2.1-1.2Zm-1.3,2.1-1.9-1,1.1-2.2,1.9.9Zm.1.4,2.2,1.1-1,2-2.1-1.1Zm2.5,1.3,1.9,1-1,1.9-1.9-.9Zm.1-.3,1.1-2.2,2,1-1.1,2.2Zm4.6-3.4,1.8.9-1.1,2.1-1.8-.9Zm-1.4,1.9h0l-2-1,1-2,2.1,1Zm.2.4,1.8,1-1.1,2.2-1.9-.9Zm2.1,1.1,2,1-1.1,2.3-2.1-1.1Zm.1-.3,1.1-2,1.9.9-1,2.2Zm6.7-2.4-2.2-1.1.9-1.9,2.3,1-1,2Zm-.1.3-1,1.9-2.2-1,1-2Zm-3.4.7-2-.9,1-1.9,1.9.9Zm.1.5,2.2,1-1.1,2.2-2.1-1.1Zm2.5,1.1,1.9,1-1.2,2.2-1.8-.9Zm.1-.2,1-2,1.9.9-1,2Zm3.2-.9,2.2,1-1.1,2-2.1-1.1Zm-2.1-1.4,1-1.9,2,.9-1,1.9Zm-1.4-3.4.7-1.5,2.3,1-.8,1.5Zm-.3-.1-1.9-.8.7-1.5,1.9.8Zm-2-.6,1.8.9-.9,1.9-1.9-.9,1-1.9Zm-1.3,1.7-1.8-.8.9-1.8,1.9.8Zm-.1.3-1,2-1.8-.9,1-2Zm-5.4-.2-2.3-1.1.9-1.9,2.3,1.1Zm-.2.3-.9,1.9-2.2-1.1.9-1.9Zm-3.4.7-1.8-1,.9-1.8,1.8.8Zm-2.1-1.1-2-1,1-1.8,1.9.9Zm-.2.2-1.1,2.3-2-1,1.2-2.3Zm-3.3,1.1-2.2-1.1,1.1-2.3,2.2,1.2Zm-2.5-1.2-2.1-1.1,1.2-2.3,2.1,1.1Zm-.2.2-1,2-2-1,1-2Zm-3.3.9-1.9-1,1-2,1.9,1Zm-.1.2-1.1,2.3-1.9-.9,1.1-2.3Zm-2.1,5.1,1.9.8-1,2-1.9-.8Zm2.2,1,2.3,1-1,2-2.3-1.1Zm2.6,1.2,2,.9-1,1.9-2-.9Zm.1-.3,1-2,2,1-1,1.9Zm3.3-.9,2,1-.9,2-2.1-1Zm2.3,1.1,2.2,1.1-1,1.9-2.1-1Zm2.3.8-2.2-1,1-2.1,2.2,1.1-1,2Zm1.3-1.9,1.9,1-1,2-1.9-1Zm2.2,1.2,1.8.9-1,1.9-1.8-.9Zm.1-.3,1-2,1.8,1-1,1.9Zm3.1-.9,2.1,1.1-1,1.9-2.1-1.1Zm2.3,1.2,2.1,1.1-.9,1.9-2.1-1Zm.2-.3,1-2.2,2.2,1.1-1.1,2.2Zm3.4-1,1.9,1-1.1,2.2-1.8-1Zm2.2,1.1,2.1,1.1-1.1,2.2-2.1-1.1Zm.1-.2,1.2-2.3,2.1,1.1-1.2,2.3Zm3.6-1.1,1.8.9-1.1,2.4-1.9-1Zm1.8,1.5v2.4l-.8-.5Zm-1.7-1.8,1-2,.7.3v2.6Zm1.2-2.3.5-1v1.3Zm-.3-.1-2.1-1,1-2,1.9.9v.5Zm-1.3-3.4-2-.9.7-1.5,2.1.9Zm-4-4-1.3-.5h1.6Zm-5.1-.1-1-.4h1.2Zm-6-.3h0Zm-5.4.1-.4-.2h.5Zm-3.5.7-1.9-.9h2.4Zm-7.9-.8h0Zm1.9,1.3-.9,2-1.8-.9.9-2Zm-1.1,2.3-1.1,2.4-.6-.3v-3Zm-1.7,10.4,1.6.7-.8,1.6-.8-.3Zm2,.5.8-1.5,2.3,1-.7,1.5Zm3.4-.3,2.1.9-.8,1.4-2-.8Zm2.3,1,2.2.9-.6,1.4h-.2l-2.1-.8Zm.2-.3.9-1.8,2.2.9-.9,1.9Zm3.3-.7,2.2,1-.9,1.7-2.1-.9Zm2.5,1.1,1.9.9-.7,1.3h-1l-1.1-.4Zm.1-.3.9-1.9,2,.9-1,1.9Zm3.1-.8,1.9.8-1,1.9-1.8-.8Zm2.2,1,2.2,1-.7,1.3h-1.5l-1-.5Zm.1-.3,1-1.9,2.1,1.1-.9,1.8Zm3.4-.7h0l2,1.1-.8,1.8-2.1-1Zm2.5,1,.9-2,1.8,1-.9,1.9Zm3-.9,2.1,1.1-1,1.9-2.1-1.1Zm1.4,3.2,1-2,2.1,1.1-.4.9h-2.7Zm1.1-2.3,1.2-2.1,1.9,1-1,2.2Zm4.3-14.9-1.1,2.3-2.1-.9.9-1.8h2.3Zm-34.9-.4.7.4-.7,1.6Zm0,16.4.6.3-.5.9h-.1Zm.5,1.2.4-.8,1.9.8Zm4-1.6,2.1.9-.4.7h-2.5Zm2.1,1.6.3-.6,1.4.6Zm3.6-1.2,2.2.9-.2.3h-2.6Zm2.4,1.2v-.2l.4.2Zm3.2-1.2,1.9.9-.2.3h-2.3Zm2,1.2.2-.2.4.2Zm3.7-1.1,2.1,1h-2.6Zm2.4,1.1Zm3.1-1,2,1h-2.5Zm5.9.2,1.5.8h-1.9Z" fill="#54bcb4"/>
      <g>
        <rect x="1503.6" y="1640.6" width="16.3" height="11.46" fill="#fff"/>
        <rect x="1503.8" y="1640.7" width="16" height="11.15" fill="#1d2023"/>
        <polygon points="1519.7 1647.2 1519.7 1651.9 1503.8 1651.9 1503.8 1645.2 1506.3 1640.7 1516 1640.7 1519.7 1647.2" fill="#6e493b"/>
        <polygon points="1519.7 1650.2 1519.7 1651.9 1503.8 1651.9 1503.8 1648.2 1508.1 1640.7 1514.3 1640.7 1519.7 1650.2" fill="#94b5dd"/>
        <polygon points="1519.4 1651.9 1503.8 1651.9 1503.8 1650.5 1509.4 1640.7 1512.9 1640.7 1519.4 1651.9" fill="#f5c3ce"/>
        <polygon points="1517.8 1651.9 1504.5 1651.9 1510.9 1640.7 1511.4 1640.7 1517.8 1651.9" fill="#fff"/>
        <polygon points="1516.1 1651.9 1506.2 1651.9 1511.1 1643.3 1516.1 1651.9" fill="#fcec61"/>
        <path d="M1514.6,1651.9h-.5a3.8,3.8,0,0,0-2.9-1.3,3.7,3.7,0,0,0-2.8,1.3h-.5a3.9,3.9,0,0,1,3.3-1.8A4,4,0,0,1,1514.6,1651.9Z" fill="#b263a4"/>
      </g>
      <g>
        <rect x="1485.9" y="1637.9" width="17" height="17.2" fill="#fff"/>
        <path d="M1497.1,1641c.2,5.5-6,9.6-11,7.3v-10.2h10.5A9.3,9.3,0,0,1,1497.1,1641Z" fill="#e55555"/>
        <path d="M1495.9,1640.9a6.7,6.7,0,0,1-9.8,6v-8.8h9.2A6.4,6.4,0,0,1,1495.9,1640.9Z" fill="#f6a353"/>
        <path d="M1494.6,1640.7a5.5,5.5,0,0,1-8.5,4.6v-7.2h7.8A5.9,5.9,0,0,1,1494.6,1640.7Z" fill="#fdd961"/>
        <path d="M1493.8,1640.8a4.6,4.6,0,0,1-7.7,3.4v-6.1h6.8A4.2,4.2,0,0,1,1493.8,1640.8Z" fill="#adb65c"/>
        <path d="M1493.1,1640.7c.1,3.7-4.9,5.3-7,2.5.1-.1-.2-5.3.2-5.1h5.7A3.6,3.6,0,0,1,1493.1,1640.7Z" fill="#3b66af"/>
        <path d="M1492.3,1640.6c.1,3.6-5.3,4.3-6.2,1-.1-1.2,0-2.9,1.1-3.5S1492.2,1637.2,1492.3,1640.6Z" fill="#a388be"/>
        <path d="M1502.8,1645h0v10h-14.6C1487.3,1647.3,1496.1,1641.3,1502.8,1645Z" fill="#e55555"/>
        <path d="M1502.8,1646.9v8.1h-13a7,7,0,0,1,.3-3.5C1491.6,1646.3,1498.3,1643.8,1502.8,1646.9Z" fill="#f6a353"/>
        <path d="M1502.8,1649.2v5.8h-11.5a7.8,7.8,0,0,1,.5-3.4A7,7,0,0,1,1502.8,1649.2Z" fill="#fdd961"/>
        <path d="M1502.8,1650.7v4.3h-10.4C1491.5,1649.3,1499.4,1646,1502.8,1650.7Z" fill="#adb65c"/>
        <path d="M1502.8,1652.6v2.4h-9.6C1492.3,1649.3,1501,1647.2,1502.8,1652.6Z" fill="#3b66af"/>
        <path d="M1502.1,1655h-8C1493.5,1649.1,1502.7,1649.1,1502.1,1655Z" fill="#a388be"/>
        <path d="M1495.4,1655h-9.3v-9.7C1491.6,1644,1496.9,1649.5,1495.4,1655Z" fill="#e55555"/>
        <path d="M1494.4,1653a6.9,6.9,0,0,1-.3,2h-8v-8.5C1490.1,1645.5,1494.5,1648.9,1494.4,1653Z" fill="#f6a353"/>
        <path d="M1492.5,1655h-6.4v-7.2C1490.1,1646.6,1494.2,1651,1492.5,1655Z" fill="#fdd961"/>
        <path d="M1491.7,1655h-5.6v-6.4a4.7,4.7,0,0,1,5.7,3A4.5,4.5,0,0,1,1491.7,1655Z" fill="#adb65c"/>
        <path d="M1491.3,1653a3.5,3.5,0,0,1-.5,2h-4.7v-5.7C1488.5,1648.4,1491.5,1650.4,1491.3,1653Z" fill="#3b66af"/>
        <path d="M1490.1,1654.4l-.3.6h-3.7v-4.9a3.1,3.1,0,0,1,4,1.4A3,3,0,0,1,1490.1,1654.4Z" fill="#a388be"/>
        <path d="M1502.8,1645h0v2.4a7.9,7.9,0,0,1-7.8-9.3h7.8v6.9Z" fill="#e55555"/>
        <path d="M1502.8,1645h0v1.2a6.7,6.7,0,0,1-6.5-8.1h6.5v6.9Z" fill="#f6a353"/>
        <path d="M1502.8,1645a5.5,5.5,0,0,1-5-6.9h5v6.9Z" fill="#fdd961"/>
        <path d="M1502.8,1638.1v6.1a4.6,4.6,0,0,1-4.1-6.1Z" fill="#adb65c"/>
        <path d="M1502.8,1638.1v5.4a3.9,3.9,0,0,1-3.3-5.4Z" fill="#3b66af"/>
        <path d="M1502.8,1638.1v4.6a3.2,3.2,0,0,1-2.4-4.6Z" fill="#a388be"/>
      </g>
    </g>
    <path d="M1625.3,1544.7h-1.5v-.4a.8.8,0,0,0-.7-.9H1622a1,1,0,0,0-.7.4c-.1.1-.2.2-.2.3v2h-5.2l-.7.2-1-1.1a.2.2,0,0,0-.4,0h0a.4.4,0,0,0,0,.5l1.1,1.2a.7.7,0,0,0-.1.5v2.7h-.2c-.2,0-.4.1-.4.3v.6l-1.1,1.4.2.2h0l.8.8h.1v.5h1.3a.3.3,0,0,0,.3-.3v-.2h-.8v-2l.2-.2h2.4a1.3,1.3,0,0,0,1.1-1h1.5l-.8,3h.3l.6.2v.5h1.3a.3.3,0,0,0,.3-.3c0-.1,0-.2-.1-.2h-.8V1550h.8a1.2,1.2,0,0,0,1.2-1.3v-2.5h.2l.6-.3h1a.6.6,0,0,0,.6-.6v-.2c0-.1-.1-.2-.1-.3Zm-11.1,7.9-.3-.2.3-.4Zm5.9,0v.1Z" fill="#1a1a1a"/>
    <g>
      <path d="M1335,1682.5h-3.8l3.3-1.8a8.5,8.5,0,0,0-3.1,0v-.5h-14v-.4a.9.9,0,0,0-1-1h-.1a.9.9,0,0,0-.9,1v48.1a.8.8,0,0,0,.8.9h.9a.9.9,0,0,0,.8-.9v-21.2a1,1,0,0,0-.5-.8v-15.8l12.6-7c0,.1-.1.3-.1.4v17.2a1,1,0,0,0,1,.9h4.1a.9.9,0,0,0,1-.9v-17.2A.9.9,0,0,0,1335,1682.5Zm-17.6,6.8v-8.2h11.9C1326,1681.9,1321.6,1684,1317.4,1689.3Z" fill="#efa32b"/>
      <path d="M1585.7,1518.7h-.1a.9.9,0,0,0-1,1v.4h-14v.5a11.7,11.7,0,0,0-3,0l3.2,1.8H1567a1,1,0,0,0-1,1v17.2a1.1,1.1,0,0,0,1,1h4.1a1.1,1.1,0,0,0,1-1v-17.2a.4.4,0,0,0-.1-.3l12.6,6.9v15.9a.8.8,0,0,0-.5.7v21.3a.9.9,0,0,0,.9.8h.8a.8.8,0,0,0,.8-.8v-48.2A.9.9,0,0,0,1585.7,1518.7Zm-12.9,2.3h11.8v8.2C1580.4,1523.9,1576,1521.8,1572.8,1521Z" fill="#efa32b"/>
    </g>
    <g>
      <g>
        <rect x="1312.4" y="1668.9" width="2.1" height="2.25" rx="0.8" fill="#ffe181"/>
        <rect x="1315.4" y="1668.9" width="2.1" height="2.25" rx="0.8" fill="#ffe181"/>
        <path d="M1317.7,1655.5v13.9c0,.3-.1.5-.3.5h-1.9c-.2,0-.3-.2-.3-.5v-9.6c0-.1-.1-.3-.2-.3s-.2.2-.2.3v9.6a.5.5,0,0,1-.4.5h-1.8a.5.5,0,0,1-.4-.5v-13.9a.4.4,0,0,1,.4-.4h4.8C1317.6,1655.1,1317.7,1655.3,1317.7,1655.5Z" fill="#ffdc5e"/>
        <path d="M1318.3,1658.8h.2v.3c0,.3.1.4.3.4h.1c.3,0,.4-.1.4-.4v-.9a.4.4,0,0,0-.4-.4h-.4a.1.1,0,0,0-.1.1v.7A.1.1,0,0,0,1318.3,1658.8Z" fill="#b59679"/>
        <path d="M1311.7,1658.8h-.2v.3c0,.3-.1.4-.3.4h-.2c-.2,0-.3-.1-.3-.4v-.9c0-.2.1-.4.3-.4h.6v.9Z" fill="#b59679"/>
        <path d="M1319.4,1648.8v.2h0v8.8a.3.3,0,0,1-.3.3h-.5a.3.3,0,0,1-.3-.3V1650a.2.2,0,0,0-.4,0v7.8a.3.3,0,0,1-.3.3h-5.2a.3.3,0,0,1-.3-.3V1650a.2.2,0,0,0-.4,0v7.8a.3.3,0,0,1-.3.3h-.5a.3.3,0,0,1-.3-.3V1649h0v-.2a1.2,1.2,0,0,1,1.1-1.2h6.5a1.2,1.2,0,0,1,1.2,1.2Z" fill="#ddb94b"/>
        <path d="M1318.2,1645.2l-.2.4c-.1.2-.3.2-.5.2h0a1.8,1.8,0,0,1-1.8,1.2h-.3v.7a.3.3,0,0,1-.3.3h-.3a.3.3,0,0,1-.3-.3v-.7h-.2a1.8,1.8,0,0,1-1.8-1.2h-.1c-.3,0-.7-.3-.7-.6a.8.8,0,0,1,.2-.5l.5-.2v-1.9h.6l1.9-.2,2,.2h.7v1.9A.7.7,0,0,1,1318.2,1645.2Z" fill="#b59679"/>
        <circle cx="1312.3" cy="1645.6" r="0.1" fill="#e7e6e6"/>
        <circle cx="1313.8" cy="1645" r="0.3" fill="#1a1a1a"/>
        <circle cx="1316.2" cy="1645" r="0.3" fill="#1a1a1a"/>
        <path d="M1317.6,1642.5h-.7l-2-.2-1.9.2h-.6a2.4,2.4,0,0,1,.2-.9,2.1,2.1,0,0,1,1.7-1h1.4A2,2,0,0,1,1317.6,1642.5Z"/>
        <path d="M1313,1642.5l-.6,1.3v-1.2Z" fill="#4e4d4d"/>
        <path d="M1317.6,1642.6v1.2l-.7-1.3Z" fill="#4e4d4d"/>
        <rect x="1313.2" y="1638.7" width="0.8" height="2.65" rx="0.4" transform="translate(-665.7 934.7) rotate(-31.7)"/>
        <rect x="1313.8" y="1638.4" width="0.8" height="2.65" rx="0.4" transform="matrix(0.98, -0.21, 0.21, 0.98, -318.79, 317.17)"/>
        <rect x="1314.6" y="1638.3" width="0.8" height="2.65" rx="0.4"/>
        <rect x="1315.9" y="1638.7" width="0.8" height="2.65" rx="0.4" transform="translate(1574.7 3727) rotate(-148.3)"/>
        <rect x="1315.3" y="1638.4" width="0.8" height="2.65" rx="0.4" transform="translate(2252.4 3521.9) rotate(-167.7)"/>
      </g>
      <g>
        <rect x="1407.6" y="1523.7" width="1.9" height="1.52" rx="0.6" fill="#ddb94b"/>
        <rect x="1410.3" y="1523.7" width="1.9" height="1.52" rx="0.6" fill="#ddb94b"/>
        <path d="M1413.8,1516.8h.1v.3a.4.4,0,0,0,.3.4h.1c.2,0,.3-.2.3-.4v-.7c0-.2-.1-.4-.3-.4h-.4v.6Z" fill="#63472c"/>
        <path d="M1414,1514.9l-1.5,5v4.1a.3.3,0,0,1-.3.3h-1.8a.3.3,0,0,1-.3-.3v-6.1a.2.2,0,0,0-.4,0v6.1a.3.3,0,0,1-.3.3h-1.7c-.2,0-.4-.1-.4-.3v-4.1l-1.3-5h8Z" fill="#ffdc5e"/>
        <path d="M1406.1,1516.8h-.1v.3a.3.3,0,0,1-.3.3h-.1a.3.3,0,0,1-.3-.3v-.7c0-.2.1-.4.3-.4h.4v.6Z" fill="#63472c"/>
        <rect x="1405.2" y="1506.7" width="1.3" height="9.58" rx="0.7" fill="#ffe181"/>
        <rect x="1413.4" y="1506.7" width="1.3" height="9.58" rx="0.7" fill="#ffe181"/>
        <path d="M1414.7,1508.4h-1.9c.3.8,2.4,5.9,1,7.9.1,0,.1,0,.1.1h-8a.1.1,0,0,1,.1-.1c-1.4-2,.7-7.1,1.1-7.9h-1.9v-1.6c0-.5.3-.8.6-.8h8.2a.7.7,0,0,1,.7.8Z" fill="#ddb94b"/>
        <path d="M1412.6,1504.1a.4.4,0,0,1-.2.4.5.5,0,0,1-.4.2h0a1.5,1.5,0,0,1-1.5,1h-.2v.5a.3.3,0,0,1-.3.3h-.3c-.1,0-.2-.1-.2-.3v-.5h-.2a1.5,1.5,0,0,1-1.5-1h-.1a.6.6,0,0,1-.6-.6.5.5,0,0,1,.2-.4l.3-.2v-1.7a1.3,1.3,0,0,1,.3-.8l.3-.4a2.1,2.1,0,0,1,1.1-.4h1.2a1.8,1.8,0,0,1,1,.4,1.4,1.4,0,0,1,.6,1.2v1.7A.6.6,0,0,1,1412.6,1504.1Z" fill="#63472c"/>
        <path d="M1409.1,1503.9a.3.3,0,0,1-.3.3c-.1,0-.2-.1-.2-.3a.2.2,0,0,1,.2-.2C1409,1503.7,1409.1,1503.8,1409.1,1503.9Z" fill="#1a1a1a"/>
        <path d="M1411.2,1503.9a.3.3,0,0,1-.3.3.3.3,0,0,1-.3-.3c0-.1.1-.2.3-.2S1411.2,1503.8,1411.2,1503.9Z" fill="#1a1a1a"/>
        <path d="M1412.1,1501.8v1.1l-.6-.8h-.1l-.6-.9.7-.5A1.4,1.4,0,0,1,1412.1,1501.8Z" fill="#1a1a1a"/>
        <path d="M1409,1501.2l-.6.8h-.1l-.7.8v-1.1a1.3,1.3,0,0,1,.3-.8l.3-.4Z" fill="#1a1a1a"/>
        <path d="M1410,1500.6h-.3c-.1,0-.2-.2-.2-.3h0a.2.2,0,0,1,.2-.2h.3a.2.2,0,0,1,.2.2h0C1410.2,1500.4,1410.1,1500.6,1410,1500.6Zm-.3-.4Z" fill="#79af95"/>
        <path d="M1412.2,1501.8v.2h-4.6v-.2a2.9,2.9,0,0,1,.2-.9c.1-.1.2-.3.4-.4a1.3,1.3,0,0,1,1-.4h1.3a1.5,1.5,0,0,1,1.1.4A2,2,0,0,1,1412.2,1501.8Z" fill="#67957e"/>
        <path d="M1407.3,1502.4h-.2c0-.1,0-.2.1-.2a8.7,8.7,0,0,1,5.3,0c.1,0,.1.1.1.2s-.1.2-.2.1a8.9,8.9,0,0,0-5.1,0Z" fill="#79af95"/>
        <circle cx="1407.6" cy="1504.5" r="0.1" fill="#e7e6e6"/>
        <circle cx="1412.1" cy="1504.5" r="0.1" fill="#e7e6e6"/>
      </g>
      <g>
        <rect x="1524.5" y="1556.2" width="1.8" height="1.84" rx="0.7" fill="#ffe181"/>
        <rect x="1527.1" y="1556.2" width="1.8" height="1.84" rx="0.7" fill="#ffe181"/>
        <path d="M1529.1,1545.3v11.4a.4.4,0,0,1-.3.4h-1.6c-.2,0-.3-.2-.3-.4v-7.9l-.2-.2a.2.2,0,0,0-.2.2v7.9c0,.2-.1.4-.3.4h-1.6c-.2,0-.3-.2-.3-.4v-11.4c0-.2.1-.4.3-.4h4.2A.4.4,0,0,1,1529.1,1545.3Z" fill="#ddb94b"/>
        <path d="M1529.6,1548h.1v.3a.3.3,0,0,0,.3.3h.1c.2,0,.4-.1.4-.3v-.8c0-.2-.2-.3-.4-.3h-.3c-.1-.1-.1,0-.1,0l-.2.7Z" fill="#ecc89b"/>
        <path d="M1523.8,1548h-.1v.3a.3.3,0,0,1-.3.3h-.1a.3.3,0,0,1-.3-.3v-.8a.3.3,0,0,1,.3-.3h.3c.1-.1.1,0,.1,0l.2.7Z" fill="#ecc89b"/>
        <path d="M1530.5,1539.8h0v7.2c0,.1-.1.2-.3.2h-.4l-.3-.2v-6.4h-.3v6.4c0,.1-.1.2-.3.2h-4.4c-.2,0-.3-.1-.3-.2v-6.4h-.3v6.4l-.3.2h-.5l-.2-.2V1540h0a.9.9,0,0,1,1-1h5.6a.9.9,0,0,1,1,1Z" fill="#ffdc5e"/>
        <path d="M1528.3,1536.1a.1.1,0,0,1-.1.1h.1Z" fill="#9a9999"/>
        <path d="M1528,1536h-.1c.1-.1.1-.1.1,0Z" fill="#9a9999"/>
        <path d="M1528,1536.4c0,.2-.1.3-.2.3a.3.3,0,0,1-.3-.3.3.3,0,0,1,.3-.3C1527.9,1536.1,1528,1536.3,1528,1536.4Z" fill="#1a1a1a"/>
        <path d="M1525.9,1536.4c0,.2-.1.3-.2.3a.3.3,0,0,1-.3-.3.3.3,0,0,1,.3-.3C1525.8,1536.1,1525.9,1536.3,1525.9,1536.4Z" fill="#1a1a1a"/>
        <path d="M1525.1,1534.1h0l-.6,1.9v-2.1h0Z" fill="#715137"/>
        <path d="M1528.9,1534.3v1.6l-.6-1.8h0l.6-.2h0Z" fill="#715137"/>
        <path d="M1528.9,1533.9l-.6.2-1.6.2-1.6-.2-.6-.2h0c.1-.2.1-.3.2-.4a1.6,1.6,0,0,1,1.4-.8h1.2a1.8,1.8,0,0,1,1.6,1.1Z" fill="#816142"/>
        <path d="M1529.1,1536h-.2l-.6-1.8-1.6.2-1.6-.2-.6,1.9h0l-.4.2a.5.5,0,0,0-.2.4.6.6,0,0,0,.6.6h.1a1.5,1.5,0,0,0,1.5,1h.2v.5a.3.3,0,0,0,.3.3h.2a.3.3,0,0,0,.3-.3v-.5h.2a1.5,1.5,0,0,0,1.5-1h.1l.4-.2a.8.8,0,0,0,.2-.4A.7.7,0,0,0,1529.1,1536Zm-3.4.7a.3.3,0,0,1-.3-.3.3.3,0,0,1,.3-.3c.1,0,.2.2.2.3S1525.8,1536.7,1525.7,1536.7Zm2.2-.8c.1-.1.1-.1.1,0h-.1Zm-.1.8a.3.3,0,0,1-.3-.3.3.3,0,0,1,.3-.3c.1,0,.2.2.2.3S1527.9,1536.7,1527.8,1536.7Zm.4-.5h.1A.1.1,0,0,1,1528.2,1536.2Z" fill="#e0be9d"/>
      </g>
      <g>
        <path d="M1616.6,1539.8v.9c0,.2-.1.4-.3.4h-1.5a.4.4,0,0,1-.4-.4v-.9h2.2Z" fill="#ddb94b"/>
        <path d="M1619.7,1539.8v.9c0,.2-.1.4-.3.4h-1.5a.4.4,0,0,1-.4-.4v-.9h2.2Z" fill="#ddb94b"/>
        <rect x="1614.8" y="1539.4" width="1.4" height="1.15" rx="0.6" fill="#8b6f54"/>
        <rect x="1617.9" y="1539.4" width="1.4" height="1.15" rx="0.6" fill="#8b6f54"/>
        <path d="M1619.9,1525.9v13.5a.5.5,0,0,1-.2.4h-5.3a.5.5,0,0,1-.2-.4v-13.5a.5.5,0,0,1,.4-.5h4.9A.5.5,0,0,1,1619.9,1525.9Z" fill="#ffe181"/>
        <path d="M1620.5,1529.1h.2v.4a.4.4,0,0,0,.4.4h.1a.4.4,0,0,0,.4-.4v-.9a.4.4,0,0,0-.4-.4h-.4c-.1,0-.2,0-.2.1v.7A.1.1,0,0,0,1620.5,1529.1Z" fill="#8b6f54"/>
        <path d="M1613.7,1529.1h-.2v.4a.4.4,0,0,1-.4.4h-.1a.4.4,0,0,1-.4-.4v-.9a.4.4,0,0,1,.4-.4h.6v.9Z" fill="#8b6f54"/>
        <path d="M1621.6,1519.4h0v8.5a.3.3,0,0,1-.3.3h-.5a.3.3,0,0,1-.3-.3v-7.6h-.4v.2a2.7,2.7,0,0,1,.3,1.4c0,.1-.2.2-.3.3v5.7c0,.2-.2.3-.4.3h-5.3a.3.3,0,0,1-.3-.3v-5.7c-.2-.1-.3-.2-.3-.4a2.6,2.6,0,0,1,.3-1.3v-.2h-.4v7.6a.3.3,0,0,1-.3.3h-.5a.3.3,0,0,1-.3-.3v-8.6h0v-.2a1.1,1.1,0,0,1,1.1-1.2h6.7a1.2,1.2,0,0,1,1.2,1.2Z" fill="#ffdc5e"/>
        <rect x="1614.7" y="1512.4" width="0.4" height="6.9" rx="0.2" fill="#8e8e8e"/>
        <rect x="1615.4" y="1512.4" width="0.4" height="6.9" rx="0.2" fill="#a5a4a4"/>
        <rect x="1616" y="1512.4" width="0.4" height="6.9" rx="0.2" fill="#c7c6c6"/>
        <rect x="1616.6" y="1512.4" width="0.4" height="6.9" rx="0.2" fill="#8e8e8e"/>
        <rect x="1617.2" y="1512.4" width="0.4" height="6.9" rx="0.2" fill="#a5a4a4"/>
        <rect x="1617.8" y="1512.4" width="0.4" height="6.9" rx="0.2" fill="#c7c6c6"/>
        <rect x="1618.4" y="1512.4" width="0.4" height="6.9" rx="0.2" fill="#a5a4a4"/>
        <rect x="1619.2" y="1512.4" width="0.4" height="6.9" rx="0.2" fill="#8e8e8e"/>
        <path d="M1620,1515.6a.8.8,0,0,1-.2.4h-.5a1.7,1.7,0,0,1-1,1h-.8v.5a.3.3,0,0,1-.3.3h-.2a.3.3,0,0,1-.3-.3v-.5h-.6a1.5,1.5,0,0,1-1.2-1h-.1l-.2.2h-.1a.9.9,0,0,1-.3-.5c0-.2.1-.3.2-.5h.4v-1.8h0a1.4,1.4,0,0,1,.2-.7,1.7,1.7,0,0,1,1.3-.8h1.6a1.1,1.1,0,0,1,.8.3,1.5,1.5,0,0,1,.7,1.2h0v1.8A.6.6,0,0,1,1620,1515.6Z" fill="#8b6f54"/>
        <path d="M1618.5,1515.4a.3.3,0,0,1-.3.3.3.3,0,0,1-.3-.3c0-.1.1-.2.3-.2S1618.5,1515.3,1618.5,1515.4Z" fill="#1a1a1a"/>
        <path d="M1616.3,1515.4a.3.3,0,0,1-.3.3.3.3,0,0,1-.3-.3c0-.1.2-.2.3-.2S1616.3,1515.3,1616.3,1515.4Z" fill="#1a1a1a"/>
        <path d="M1620,1517a1,1,0,0,1-1,.9h0a1,1,0,0,1-.8-.7h.1a1,1,0,0,0,.8.6.9.9,0,0,0,.8-.8.9.9,0,0,0-.2-.9h.1A1.2,1.2,0,0,1,1620,1517Z" fill="#f0b225"/>
        <path d="M1616.2,1517.2a1.1,1.1,0,0,1-.7.6h0a.9.9,0,0,1-1.1-.7,1.1,1.1,0,0,1,.1-1h.1l.2-.2h-.2a.8.8,0,0,0-.1.8c.1.4.5.8.9.7s.5-.2.7-.5Z" fill="#f0b225"/>
        <path d="M1619.4,1513.2v.2l-1.1-1.2-.4-.4-.2-.2h.2a1.1,1.1,0,0,1,.8.3,1.5,1.5,0,0,1,.7,1.2Z" fill="#8e8e8e"/>
        <path d="M1619.4,1513.2v1.1l-1.6-1.7h-.1l-.3-.3-.2-.2h0l-.3-.2h1l.5.5,1,1Z" fill="#a5a4a4"/>
        <path d="M1619.4,1513.9v.9l-2-2-.3-.4-.2-.2-.3-.3h-.1l-.2-.2h.8l.3.3h.2l.3.4Z" fill="#c7c6c6"/>
        <path d="M1617.1,1511.6h-.2l-.3.2-1.8,1.4h0a1.4,1.4,0,0,1,.2-.7,1.7,1.7,0,0,1,1.3-.8h.8Z" fill="#8e8e8e"/>
        <path d="M1617.9,1511.8l-.3.2-.2.2-.3.2-2.3,1.8v-1h0l1.7-1.3.2-.2h1Z" fill="#a5a4a4"/>
        <path d="M1618.7,1511.9h0l-.3.2h-.1l-.3.2h0l-.2.2-.3.2-2.7,2v-1.1l2.1-1.5.3-.3h.7A1.1,1.1,0,0,1,1618.7,1511.9Z" fill="#c7c6c6"/>
      </g>
      <g>
        <rect x="1306.2" y="1659" width="1.2" height="9.35" transform="translate(2613.6 3327.4) rotate(-180)" fill="#ecc89b"/>
        <rect x="1305.9" y="1668" width="2" height="1.39" rx="0.6" transform="translate(2613.9 3337.3) rotate(-180)" fill="#ffe181"/>
        <rect x="1305.4" y="1649.5" width="1.1" height="8.91" rx="0.5" transform="translate(2611.9 3307.9) rotate(-180)" fill="#5b8571"/>
        <rect x="1304.6" y="1659.4" width="0.8" height="9.22" transform="translate(2610 3327.9) rotate(-180)" fill="#bcbcbb"/>
        <path d="M1304.5,1667.3h1.1l.2-2.5a.4.4,0,0,0-.4-.4h-.7a.5.5,0,0,0-.5.4Z" fill="#a9a9aa"/>
        <rect x="1304" y="1659.7" width="2.1" height="3.1" rx="0.7" transform="translate(2610 3322.5) rotate(-180)" fill="#858585"/>
        <rect x="1304.2" y="1668.4" width="2" height="1.45" rx="0.7" transform="translate(2610.5 3338.2) rotate(-180)" fill="#ffe181"/>
        <rect x="1303.6" y="1661.3" width="2.9" height="0.26" rx="0.1" transform="translate(2610 3322.9) rotate(180)" fill="#ffdc5e"/>
        <rect x="1305.5" y="1660.9" width="2.9" height="0.26" rx="0.1" transform="translate(2614 3322.1) rotate(180)" fill="#ddb94b"/>
        <rect x="1305.7" y="1657.8" width="2.7" height="3.19" transform="translate(2614 3318.7) rotate(-180)" fill="#ddb94b"/>
        <rect x="1303.7" y="1657.8" width="2.7" height="3.6" transform="translate(2610 3319.1) rotate(-180)" fill="#ffdc5e"/>
        <path d="M1304.1,1648.6h3.6a.9.9,0,0,1,.9.9v6.8a2,2,0,0,1-2,2h-1.5a2,2,0,0,1-2-2v-6.8a.9.9,0,0,1,.9-.9Z" transform="translate(2611.9 3306.9) rotate(-180)" fill="#ffe181"/>
        <path d="M1306.5,1658.9h0c-.1,0-.1,0-.1-.1h0v.3a.4.4,0,0,1-.4.4h-.1a.4.4,0,0,1-.4-.4v-.8a.4.4,0,0,1,.4-.4h.5v.7C1306.6,1658.8,1306.5,1658.9,1306.5,1658.9Z" fill="#ecc89b"/>
        <rect x="1305.4" y="1649.3" width="1.1" height="8.91" rx="0.5" transform="translate(2612 3307.5) rotate(-180)" fill="#ddb94b"/>
        <path d="M1303.7,1644v2.5a1.5,1.5,0,0,0,1.5,1.5h.4v.4c0,.2.1.4.3.4h.2a.4.4,0,0,0,.3-.4v-.4h.2a1.6,1.6,0,0,0,1.6-1.5V1644a1.6,1.6,0,0,0-1.6-1.5h-1.4A1.5,1.5,0,0,0,1303.7,1644Z" fill="#ecc89b"/>
        <path d="M1306.6,1646.1a.2.2,0,0,0,.2.2c.2,0,.3-.1.3-.2a.3.3,0,0,0-.3-.3C1306.7,1645.8,1306.6,1645.9,1306.6,1646.1Z" fill="#1a1a1a"/>
        <circle cx="1307.4" cy="1643.1" r="0.1" fill="#c69f74"/>
        <circle cx="1307.1" cy="1642.9" r="0.1" fill="#c69f74"/>
        <circle cx="1306.8" cy="1643.1" r="0.1" fill="#c69f74"/>
        <circle cx="1306.6" cy="1642.8" r="0.1" fill="#c69f74"/>
        <circle cx="1306.3" cy="1643.1" r="0.1" fill="#c69f74"/>
        <circle cx="1306" cy="1642.9" r="0.1" fill="#c69f74"/>
        <circle cx="1305.7" cy="1643.1" r="0.1" fill="#c69f74"/>
        <circle cx="1305.4" cy="1642.8" r="0.1" fill="#c69f74"/>
        <circle cx="1305.1" cy="1643.1" r="0.1" fill="#c69f74"/>
        <circle cx="1304.8" cy="1642.9" r="0.1" fill="#c69f74"/>
        <circle cx="1304.5" cy="1643.1" r="0.1" fill="#c69f74"/>
        <path d="M1304.8,1646.3a.1.1,0,0,0,.1.1h0v.2h.2a.2.2,0,0,0,.2.2h.1a.2.2,0,0,0,.2.2h1.4a1.2,1.2,0,0,0-.5-.9l-.5-.3a1.4,1.4,0,0,1-.6-1.1h-.6a.1.1,0,0,0,.1.1h0Z" fill="#1b1b1b"/>
        <path d="M1304.7,1646.1h0a.4.4,0,0,0,.4.4h.3v-.8a.1.1,0,0,0-.1-.1h-.1A.5.5,0,0,0,1304.7,1646.1Z" fill="#cda880"/>
      </g>
      <g>
        <path d="M1435.2,1601.6v1.7a.6.6,0,0,1-.6.6h-6.5v5.6h-1.7v-7.3a.6.6,0,0,1,.6-.6Z" fill="#ffdc5e"/>
        <rect x="1426.1" y="1609.2" width="1.8" height="0.94" rx="0.5" fill="#ddb94b"/>
        <path d="M1432.1,1593.7h1.5a1.8,1.8,0,0,1,1.8,1.8v5.8a.8.8,0,0,1-.8.8h-3.4a.8.8,0,0,1-.8-.8v-5.8A1.8,1.8,0,0,1,1432.1,1593.7Z" fill="#ddb94b"/>
        <path d="M1429,1599.3h-.2a.3.3,0,0,0-.3.3h0a.3.3,0,0,0,.3.3h.8c.2,0,.3-.2.3-.4h0a.4.4,0,0,0-.1-.3h-.8Z" fill="#63472c"/>
        <rect x="1432.4" y="1594.7" width="1" height="5.38" rx="0.5" fill="#ffe181"/>
        <rect x="1430.9" y="1597.7" width="0.9" height="3.82" rx="0.5" transform="translate(3030.9 168.3) rotate(90)" fill="#ffe181"/>
        <rect x="1428.3" y="1606.1" width="0.5" height="4.17" fill="#bcbcbb"/>
        <rect x="1427.6" y="1603.9" width="9.4" height="3.48" rx="1.6" fill="#858585"/>
        <rect x="1425.9" y="1609.8" width="2.8" height="0.69" rx="0.3" fill="#919191"/>
        <path d="M1431,1600.2v.2h-.3v1.2a.4.4,0,0,1-.4.4h-.2a.4.4,0,0,1-.4-.4v-1.2h-.2c-.1,0-.2,0-.2-.2a.1.1,0,0,1,.1-.1h1.4A.2.2,0,0,1,1431,1600.2Z" fill="#919191"/>
        <rect x="1429.8" y="1600" width="5.8" height="1.33" fill="#919191"/>
        <rect x="1435.7" y="1596.1" width="1" height="10.67" rx="0.5" fill="#bcbcbb"/>
        <path d="M1431.2,1612.6a5,5,0,0,1-4.9-5,4.9,4.9,0,0,1,9.8,0A5,5,0,0,1,1431.2,1612.6Zm0-9a4.1,4.1,0,1,0,4.1,4A4.1,4.1,0,0,0,1431.2,1603.6Z" fill="#4e4d4d"/>
        <circle cx="1431.2" cy="1607.6" r="1.9" fill="#434342"/>
        <rect x="1436.1" y="1596.7" width="3.3" height="0.61" rx="0.3" fill="#a9a9aa"/>
        <path d="M1435,1589.3v2.5a1.6,1.6,0,0,1-1.6,1.6h-.4v.5a.3.3,0,0,1-.3.3h-.2a.3.3,0,0,1-.3-.3v-.5h-.3a1.6,1.6,0,0,1-1.6-1.6v-2.5a1.6,1.6,0,0,1,1.6-1.6h1.5a1.7,1.7,0,0,1,1.6,1.4Z" fill="#63472c"/>
        <path d="M1432,1591.4a.3.3,0,1,1-.6,0c0-.1.2-.2.3-.2S1432,1591.3,1432,1591.4Z" fill="#1a1a1a"/>
        <path d="M1433.2,1591l-.8-1.7h-2.1a1.6,1.6,0,0,1,1.6-1.6h1.5a1.7,1.7,0,0,1,1.6,1.4l1,4.9h-2.8Z" fill="#715137"/>
        <path d="M1433.7,1591.5h0a.4.4,0,0,1-.4.4h-.3v-.8h.3A.5.5,0,0,1,1433.7,1591.5Z" fill="#523722"/>
      </g>
      <g>
        <g>
          <path d="M1487,1572a6.5,6.5,0,0,1-6.5-6.5,6.5,6.5,0,1,1,13,0A6.5,6.5,0,0,1,1487,1572Zm0-11.9a5.4,5.4,0,1,0,5.4,5.4A5.4,5.4,0,0,0,1487,1560.1Z" fill="#4e4d4d"/>
          <path d="M1506.7,1572a6.5,6.5,0,0,1-6.5-6.5,6.5,6.5,0,1,1,13,0A6.5,6.5,0,0,1,1506.7,1572Zm0-11.9a5.4,5.4,0,1,0,5.4,5.4A5.4,5.4,0,0,0,1506.7,1560.1Z" fill="#4e4d4d"/>
          <rect x="1488.4" y="1558.1" width="11.7" height="0.74" rx="0.3" fill="#bcbcbb"/>
          <path d="M1498.6,1565.7h8.1c.1,0,.2.1.2.3h0c0,.2-.1.3-.2.3h-8.1a.3.3,0,0,1-.3-.3h0A.3.3,0,0,1,1498.6,1565.7Z" fill="#bcbcbb"/>
          <rect x="1494.1" y="1561.4" width="9.4" height="0.7" rx="0.3" transform="translate(-413.4 2576) rotate(-74.1)" fill="#858585"/>
          <circle cx="1497.3" cy="1565.8" r="1.5" fill="#434342"/>
          <rect x="1481.9" y="1559.9" width="12.5" height="0.75" rx="0.2" transform="translate(-419.8 2564.6) rotate(-74.1)" fill="#858585"/>
          <rect x="1503.8" y="1556.5" width="0.7" height="10.41" rx="0.3" transform="translate(-579.3 961.3) rotate(-30)" fill="#858585"/>
          <rect x="1498.8" y="1556.8" width="3.6" height="0.81" rx="0.4" fill="#434342"/>
          <rect x="1496.2" y="1567.4" width="2.3" height="0.66" rx="0.3" fill="#bcbcbb"/>
          <rect x="1489.4" y="1554.2" width="3" height="0.66" rx="0.3" fill="#434342"/>
        </g>
        <rect x="1496.5" y="1565.8" width="1.9" height="1.67" rx="0.4" fill="#ddb94b"/>
        <path d="M1502.2,1554.4v1.5a.9.9,0,0,1-.9,1h-2.8v9.1a.6.6,0,0,1-.6.5h-1.1a.5.5,0,0,1-.5-.5v-10a.8.8,0,0,1,.8-.8h1.4v-.8a.9.9,0,0,1,.9-.9h1.9a.8.8,0,0,1,.7.4.8.8,0,0,1,.2.5Z" fill="#ffe181"/>
        <path d="M1501.3,1555.2l-2,.3a1.1,1.1,0,0,1-1.3-1l-.6-3-.3-1.6-.3-2.1v-.7a1.2,1.2,0,0,1,.9-1.4l1.9-.3a1.2,1.2,0,0,1,1.4.8.4.4,0,0,0,.1.3l.7,4.2.5,3a.3.3,0,0,1,.1.2h-.1a1.2,1.2,0,0,1-.9,1.4Z" fill="#ffdc5e"/>
        <path d="M1492.1,1554.7h.1l-.4.2c-.2.2-.5.1-.7-.2h0a.5.5,0,0,1,.2-.7l1-.5a.5.5,0,0,1,.6.2v.2a.2.2,0,0,1,0,.3h.1v.2l-.8.6c0,.1-.1.1-.2.1Z" fill="#63472c"/>
        <rect x="1491" y="1549.3" width="9.6" height="1.67" rx="0.5" transform="translate(-656.5 1638.8) rotate(-48.4)" fill="#ddb94b"/>
        <path d="M1500.1,1541.5v2.3a1.5,1.5,0,0,1-1.5,1.5h-.4v.4a.3.3,0,0,1-.3.3h-.1a.3.3,0,0,1-.3-.3v-.4h-.3a1.5,1.5,0,0,1-1.5-1.5v-2.3a1.5,1.5,0,0,1,1.5-1.5h1.4A1.5,1.5,0,0,1,1500.1,1541.5Z" fill="#63472c"/>
        <path d="M1497.3,1543.4a.3.3,0,0,1-.3.3c-.1,0-.2-.1-.2-.3a.2.2,0,0,1,.2-.2C1497.1,1543.2,1497.3,1543.3,1497.3,1543.4Z" fill="#1a1a1a"/>
        <path d="M1499.1,1543.4h0a.4.4,0,0,1-.4.4h-.2c-.1,0-.1,0-.1-.1v-.7h.2A.5.5,0,0,1,1499.1,1543.4Z" fill="#523722"/>
        <path d="M1498.4,1541.5v1.1l-.2.2c-.6,1.2-.8.2-.8.2a1.8,1.8,0,0,1-.7-1.5v-.2C1497,1540.7,1498.4,1541.1,1498.4,1541.5Z" fill="#d1b197"/>
        <path d="M1499.4,1540.7a1.4,1.4,0,0,0-1.8,0c-1,.7-.1.8-.1.8l.7,1a.6.6,0,0,0,.2.4c.2.1.7-.1.9-.2a1.8,1.8,0,0,0,.5-1.3A1.1,1.1,0,0,0,1499.4,1540.7Z" fill="#d1b197"/>
        <path d="M1497.4,1545.1c0-.1-.1-.1,0-.2h0Z" fill="#d1b197"/>
        <path d="M1496.5,1542.1a.1.1,0,0,0-.1.1h.1c.1,0,.2-.1.1-.1S1496.7,1542.1,1496.5,1542.1Z" fill="#d1b197"/>
        <path d="M1500,1545.1h0c-.1,0-.1-.1-.1-.2a2.8,2.8,0,0,0,0-1.8,1.6,1.6,0,0,0-1-.8,1.9,1.9,0,0,0-1.3,0h-.2c0-.1,0-.2.1-.2a2.5,2.5,0,0,1,1.5,0,1.8,1.8,0,0,1,1.1,1,2.3,2.3,0,0,1,0,2Z" fill="#141414"/>
        <path d="M1500,1544.5h0c-.1,0-.1-.1-.1-.2a2.2,2.2,0,0,0-.9-2.5,3.4,3.4,0,0,0-1.7-.1c0,.1-.1,0-.1-.1h.1a2.3,2.3,0,0,1,1.8.1,2.5,2.5,0,0,1,1.1,2.8Z" fill="#141414"/>
        <path d="M1500.3,1544.7h-.1v-.2a2.4,2.4,0,0,0-3-3.2h-.3c0-.1.1-.2.2-.3a3,3,0,0,1,2.2.2,3,3,0,0,1,1.3,3.5Z" fill="#141414"/>
        <path d="M1500.1,1544.1h-.1v-.2a2.6,2.6,0,0,0-1.1-3.1,2.5,2.5,0,0,0-1.9-.1h-.3l.2-.2a3.4,3.4,0,0,1,2.2.1,3.1,3.1,0,0,1,1.3,3.5Z" fill="#141414"/>
        <path d="M1500.2,1543.5h0a.2.2,0,0,1-.2-.2,2.3,2.3,0,0,0-1.2-3,3.1,3.1,0,0,0-2.1-.1c-.1,0-.2,0-.2-.1s0-.2.1-.2a2.9,2.9,0,0,1,2.4.1,2.8,2.8,0,0,1,1.4,3.4Z" fill="#141414"/>
        <path d="M1499.2,1545.7h-.1s-.1-.2,0-.2l1-2.2h.2a.4.4,0,0,1,.1.3l-1,2.1C1499.4,1545.7,1499.3,1545.7,1499.2,1545.7Z" fill="#141414"/>
        <path d="M1499.7,1545.9h-.1a.4.4,0,0,1-.1-.3l.6-2.1.2-.2.2.3-.7,2.1Z" fill="#141414"/>
        <path d="M1500.1,1546h0c-.1,0-.1-.1-.1-.2v-2.1a.2.2,0,0,1,.4,0l-.2,2.1A.2.2,0,0,1,1500.1,1546Z" fill="#141414"/>
        <path d="M1500.6,1546c-.1,0-.1-.1-.1-.2l-.3-3.1c0-.1,0-.2.1-.2h.2l.3,3.2a.2.2,0,0,1-.2.2Z" fill="#141414"/>
        <path d="M1501,1545.3h-.1l-.8-2.4c0-.1,0-.2.1-.2s.2,0,.3.1l.7,2.4c0,.1,0,.2-.1.2Z" fill="#141414"/>
        <path d="M1501.1,1544.3h-.1l-.8-1.4c-.1-.1-.1-.2,0-.2s.2,0,.3,0l.8,1.4c0,.1,0,.2-.1.2Z" fill="#141414"/>
      </g>
      <g>
        <rect x="1629.5" y="1542.5" width="0.8" height="6.9" rx="0.4" fill="#b59679"/>
        <rect x="1628.5" y="1542.6" width="0.8" height="6.81" rx="0.4" fill="#b59679"/>
        <rect x="1628" y="1548.8" width="1.4" height="1.2" rx="0.5" fill="#ddb94b"/>
        <rect x="1629.2" y="1548.8" width="1.5" height="1.19" rx="0.5" fill="#ddb94b"/>
        <rect x="1627.4" y="1540.3" width="3.6" height="2.77" rx="0.9" fill="#ffe181"/>
        <path d="M1628.8,1532.5h.7a1.5,1.5,0,0,1,1.5,1.5v5.9a.7.7,0,0,1-.7.7H1628a.7.7,0,0,1-.7-.7v-5.9a1.5,1.5,0,0,1,1.5-1.5Z" fill="#ffdc5e"/>
        <path d="M1628.8,1541.2h.1v.3a.3.3,0,0,0,.3.3h.1a.3.3,0,0,0,.3-.3v-.7a.3.3,0,0,0-.3-.3h-.4l-.2.6C1628.7,1541.2,1628.7,1541.2,1628.8,1541.2Z" fill="#b59679"/>
        <rect x="1628.8" y="1533.3" width="0.9" height="7.48" rx="0.5" fill="#ddb94b"/>
        <path d="M1630.7,1529v2a1.1,1.1,0,0,1-.3.8,1.4,1.4,0,0,1-1,.5h-.3v.3c0,.2-.1.3-.2.3h-.2c-.1,0-.2-.1-.2-.3v-.3h-.2a1.3,1.3,0,0,1-1.3-1.3v-2a1.4,1.4,0,0,1,.2-.6,1.1,1.1,0,0,1,1.1-.6h1.1A1.2,1.2,0,0,1,1630.7,1529Z" fill="#b59679"/>
        <path d="M1628.3,1530.7a.2.2,0,0,1-.2.2l-.2-.2a.2.2,0,1,1,.4,0Z" fill="#1a1a1a"/>
        <path d="M1630.7,1529v2a1.1,1.1,0,0,1-.3.8l-.7-.7-.4-.5-.3-.2h0l-.3-.3h-.1l-1.4-1.5a1.1,1.1,0,0,1,1.1-.6h1.1A1.2,1.2,0,0,1,1630.7,1529Z" fill="#816142"/>
        <path d="M1631.2,1528.3v4.2a.3.3,0,0,1-.3.3v0h-.5a.3.3,0,0,1-.3-.3v-4.2a.5.5,0,0,1,.5-.5h.2A.5.5,0,0,1,1631.2,1528.3Z" fill="#816142"/>
        <rect x="1629.9" y="1527.8" width="0.4" height="0.37" rx="0.2" transform="translate(-384.8 2493.5) rotate(-68.8)" fill="#70a28a"/>
        <path d="M1629.8,1531h0c0,.2-.2.3-.4.3h-.2v-.6h.2C1629.6,1530.7,1629.8,1530.8,1629.8,1531Z" fill="#8f715b"/>
      </g>
      <g>
        <rect x="1534.3" y="1698.1" width="1.8" height="1.83" rx="0.7" transform="translate(3070.4 3398) rotate(-180)" fill="#6d7b72"/>
        <rect x="1532.7" y="1698.5" width="1.8" height="1.83" rx="0.7" transform="translate(3067.2 3398.8) rotate(-180)" fill="#7a877e"/>
        <path d="M1534.7,1689.4v9.7h1.2c.2,0,.4-.1.4-.3v-9.4Z" fill="#ddb94b"/>
        <path d="M1531.7,1687.9v1.4h0l.8,3.3v6.5a.3.3,0,0,0,.3.3h1.6a.3.3,0,0,0,.3-.3v-9.8h1.6v-1.5Z" fill="#ffdc5e"/>
        <path d="M1532.4,1681.3h3.2a.8.8,0,0,1,.8.8v6.1a1.8,1.8,0,0,1-1.8,1.8h-1.3a1.8,1.8,0,0,1-1.8-1.8v-6.1a.8.8,0,0,1,.8-.8Z" transform="translate(3068.1 3371.4) rotate(-180)" fill="#ffe181"/>
        <path d="M1534.5,1690.6h-.1v.3a.3.3,0,0,1-.3.3h-.1a.3.3,0,0,1-.3-.3v-.8a.3.3,0,0,1,.3-.3h.4l.2.6C1534.6,1690.5,1534.6,1690.6,1534.5,1690.6Z" fill="#63472c"/>
        <rect x="1533.6" y="1682.1" width="1" height="7.98" rx="0.5" transform="translate(3068.1 3372.2) rotate(180)" fill="#ddb94b"/>
        <path d="M1532.4,1680.5a1.2,1.2,0,0,0,1,.4h.4v.5a.3.3,0,0,0,.3.3h.2a.3.3,0,0,0,.3-.3v-.5h.2a1.6,1.6,0,0,0,1.6-1.5v-1.8h-1.2l-.3-.5-.3.5v0h-.4v1.3h-.3v-.5c-.4,0-1.1.1-.8,1.2Z" fill="#63472c"/>
        <g>
          <circle cx="1534.1" cy="1679" r="0.1" fill="#49301a"/>
          <circle cx="1536.1" cy="1678.5" r="0.1" fill="#49301a"/>
          <circle cx="1535.9" cy="1678.4" r="0.1" fill="#49301a"/>
          <circle cx="1535.6" cy="1678.5" r="0.1" fill="#49301a"/>
          <circle cx="1535.3" cy="1678.3" r="0.1" fill="#49301a"/>
          <circle cx="1535" cy="1678.5" r="0.1" fill="#49301a"/>
          <circle cx="1534.7" cy="1678.4" r="0.1" fill="#49301a"/>
          <circle cx="1534.4" cy="1678.5" r="0.1" fill="#49301a"/>
          <circle cx="1534" cy="1678.6" r="0.1" fill="#49301a"/>
          <circle cx="1533.8" cy="1678.4" r="0.1" fill="#49301a"/>
          <circle cx="1533.5" cy="1678.6" r="0.1" fill="#49301a"/>
          <circle cx="1533.2" cy="1678.3" r="0.1" fill="#49301a"/>
          <circle cx="1532.9" cy="1678.6" r="0.1" fill="#49301a"/>
          <circle cx="1532.6" cy="1678.4" r="0.1" fill="#49301a"/>
          <circle cx="1532.3" cy="1678.6" r="0.1" fill="#49301a"/>
          <circle cx="1536.1" cy="1679.3" r="0.1" fill="#49301a"/>
          <circle cx="1535.9" cy="1679.1" r="0.1" fill="#49301a"/>
          <circle cx="1534.7" cy="1678.8" r="0.1" fill="#49301a"/>
          <circle cx="1535" cy="1679.3" r="0.1" fill="#49301a"/>
          <circle cx="1534.7" cy="1679.1" r="0.1" fill="#49301a"/>
          <circle cx="1534.4" cy="1679.3" r="0.1" fill="#49301a"/>
          <circle cx="1533.8" cy="1679.4" r="0.1" fill="#49301a"/>
          <circle cx="1533.1" cy="1679.7" r="0.1" fill="#49301a"/>
          <circle cx="1532.7" cy="1679.4" r="0.1" fill="#49301a"/>
          <circle cx="1532.4" cy="1679.2" r="0.1" fill="#49301a"/>
          <circle cx="1532.1" cy="1679.4" r="0.1" fill="#49301a"/>
          <circle cx="1535.2" cy="1680" r="0.1" fill="#49301a"/>
          <circle cx="1534.9" cy="1679.8" r="0.1" fill="#49301a"/>
          <circle cx="1534.6" cy="1680" r="0.1" fill="#49301a"/>
          <circle cx="1534.4" cy="1679.7" r="0.1" fill="#49301a"/>
          <circle cx="1534.1" cy="1680" r="0.1" fill="#49301a"/>
          <circle cx="1533.8" cy="1679.8" r="0.1" fill="#49301a"/>
          <circle cx="1533.5" cy="1680" r="0.1" fill="#49301a"/>
          <circle cx="1535.1" cy="1678.1" r="0.1" fill="#49301a"/>
          <circle cx="1534.8" cy="1677.9" r="0.1" fill="#49301a"/>
          <circle cx="1534.5" cy="1678.1" r="0.1" fill="#49301a"/>
          <circle cx="1534.3" cy="1677.8" r="0.1" fill="#49301a"/>
          <circle cx="1534" cy="1678.1" r="0.1" fill="#49301a"/>
          <circle cx="1533.7" cy="1677.9" r="0.1" fill="#49301a"/>
          <circle cx="1533.4" cy="1678.1" r="0.1" fill="#49301a"/>
        </g>
        <path d="M1534.8,1679c0,.1.1.2.3.2a.2.2,0,0,0,.2-.2c0-.2-.1-.3-.2-.3A.3.3,0,0,0,1534.8,1679Z" fill="#1a1a1a"/>
        <path d="M1532.9,1679h0a.4.4,0,0,0,.4.4h.3v-.8h-.3A.5.5,0,0,0,1532.9,1679Z" fill="#523722"/>
        <path d="M1531.8,1676.9v2.5a1.4,1.4,0,0,0,.6,1.1l.5-.9c-.3-1.1.4-1.2.8-1.2v.5h.3v-1.3h.4v0l.3-.5.3.5h1.2v-.7a1.5,1.5,0,0,0-1.5-1.6h-1.6a1.5,1.5,0,0,0-1.4,1.3A.4.4,0,0,0,1531.8,1676.9Z"/>
      </g>
    </g>
    <g>
      <image width="1200" height="720" transform="translate(1558.7 1670.4) scale(0.01)" xlink:href="memArtboard%2011.png"/>
      <rect x="1558.4" y="1670.4" width="0.6" height="19.95" rx="0.3" fill="#6e493b"/>
    </g>
    <g>
      <rect x="1508.6" y="1674.5" width="19.4" height="17.8" rx="2.9" fill="#54bcb4"/>
      <rect x="1508.6" y="1672.7" width="19.4" height="17.8" rx="2.9" fill="#c6e5e4"/>
      <path d="M1515,1683.2h-2.5a1.6,1.6,0,0,0-1.3.7,1.6,1.6,0,0,0-1.5,1.5v.9a1.5,1.5,0,0,0,1.6,1.5h2.5a1.3,1.3,0,0,0,1.2-.6,1.6,1.6,0,0,0,1.5-1.6v-.8A1.6,1.6,0,0,0,1515,1683.2Z" fill="#54bcb4"/>
      <path d="M1516.1,1684.1h-1.7a1.4,1.4,0,0,1,.9,1.3v.9a1.5,1.5,0,0,1-1.5,1.5h-.8l.6.2h2.5a1.6,1.6,0,0,0,1.6-1.5v-.9A1.5,1.5,0,0,0,1516.1,1684.1Z" fill="#75c5c0"/>
      <rect x="1510.9" y="1684.5" width="5.5" height="3.93" rx="2" fill="#90cfcb"/>
      <path d="M1515,1675.9h-2.5a1.6,1.6,0,0,0-1.3.7,1.5,1.5,0,0,0-1.5,1.5v.9a1.5,1.5,0,0,0,1.6,1.5h2.5a1.3,1.3,0,0,0,1.2-.6,1.6,1.6,0,0,0,1.5-1.6v-.8A1.6,1.6,0,0,0,1515,1675.9Z" fill="#54bcb4"/>
      <path d="M1516.1,1676.8h-1.7a1.4,1.4,0,0,1,.9,1.3v.9a1.5,1.5,0,0,1-1.5,1.5h-.8l.6.2h2.5a1.6,1.6,0,0,0,1.6-1.5v-.9A1.5,1.5,0,0,0,1516.1,1676.8Z" fill="#75c5c0"/>
      <rect x="1510.9" y="1677.2" width="5.5" height="3.93" rx="2" fill="#90cfcb"/>
      <path d="M1524,1683.2h-2.5a1.7,1.7,0,0,0-1.3.7,1.5,1.5,0,0,0-1.4,1.5v.9a1.4,1.4,0,0,0,1.5,1.5h2.5a1.3,1.3,0,0,0,1.2-.6,1.6,1.6,0,0,0,1.5-1.6v-.8A1.6,1.6,0,0,0,1524,1683.2Z" fill="#54bcb4"/>
      <path d="M1525.2,1684.1h-1.8a1.4,1.4,0,0,1,.9,1.3v.9a1.5,1.5,0,0,1-1.5,1.5h-.8l.7.2h2.5a1.5,1.5,0,0,0,1.5-1.5v-.9A1.5,1.5,0,0,0,1525.2,1684.1Z" fill="#75c5c0"/>
      <rect x="1520" y="1684.5" width="5.5" height="3.93" rx="2" fill="#90cfcb"/>
      <path d="M1524,1675.9h-2.5a1.7,1.7,0,0,0-1.3.7,1.5,1.5,0,0,0-1.4,1.5v.9a1.4,1.4,0,0,0,1.5,1.5h2.5a1.3,1.3,0,0,0,1.2-.6,1.6,1.6,0,0,0,1.5-1.6v-.8A1.6,1.6,0,0,0,1524,1675.9Z" fill="#54bcb4"/>
      <path d="M1525.2,1676.8h-1.8a1.4,1.4,0,0,1,.9,1.3v.9a1.5,1.5,0,0,1-1.5,1.5h-.8l.7.2h2.5a1.5,1.5,0,0,0,1.5-1.5v-.9A1.5,1.5,0,0,0,1525.2,1676.8Z" fill="#75c5c0"/>
      <rect x="1520" y="1677.2" width="5.5" height="3.93" rx="2" fill="#90cfcb"/>
    </g>
    <g>
      <path d="M1581.7,1611.4v.4a6.6,6.6,0,0,1-6.6,6.7h-.9a8.6,8.6,0,0,1-7.9,5.1,8.8,8.8,0,0,1-7.2-3.9,6.5,6.5,0,0,1-11.8-3.6,6.8,6.8,0,0,1,.2-1.4,7,7,0,0,1-10.3-6.4,7.1,7.1,0,0,1,7.1-7.1h1.2a6.7,6.7,0,0,1,6.6-5.5,6.8,6.8,0,0,1,5.1,2.3,8.3,8.3,0,0,1,15.5-.5,6.3,6.3,0,0,1,1.9-.3,6.2,6.2,0,0,1,6.1,5.2h.8a4.5,4.5,0,0,1,4.5,4.5A4.6,4.6,0,0,1,1581.7,1611.4Z" fill="#c6e5e4"/>
      <path d="M1552.8,1605.5a9,9,0,0,1-2.4-.2l2,1.8c1.8,1.8,3,3.6,2.6,4.1s-2.2-.6-4-2.4-1.3-1.5-1.8-2.1a14.1,14.1,0,0,1,.1,2.1c0,2.7-.4,4.9-1,4.9s-1.1-2.2-1.1-4.9a21.1,21.1,0,0,1,.2-2.6l-2,2.5c-1.8,1.8-3.6,2.9-4,2.4s.8-2.3,2.6-4.1a12.9,12.9,0,0,1,1.8-1.6h-2.2c-2.5,0-4.5-.5-4.5-1.1s2-1.1,4.5-1.1h2.1a9.6,9.6,0,0,1-1.5-1.4c-1.9-1.8-3-3.6-2.7-4.1s2.2.6,4,2.4a17.4,17.4,0,0,1,1.9,2.2,21.1,21.1,0,0,1-.2-2.6c0-2.7.5-4.9,1.1-4.9s1,2.2,1,4.9a12.7,12.7,0,0,1-.1,2c.4-.6,1-1.2,1.5-1.8s3.6-2.9,4-2.4-.7,2.3-2.5,4.1l-1.9,1.7a9.7,9.7,0,0,1,2.5-.2c2.5,0,4.5.5,4.5,1.1S1555.3,1605.5,1552.8,1605.5Z" fill="#70c4be"/>
      <path d="M1563.7,1617.5h-1.9a8.7,8.7,0,0,1,1.5,1.3c1.4,1.3,2.2,2.6,2,3s-1.6-.5-3-1.8l-1.3-1.5a7.6,7.6,0,0,1,.1,1.5c0,2-.3,3.6-.8,3.6s-.7-1.6-.7-3.6a11.5,11.5,0,0,1,.1-1.9,8,8,0,0,1-1.5,1.8c-1.3,1.4-2.6,2.2-2.9,1.8s.6-1.6,1.9-3l1.3-1.2h-1.6c-1.8,0-3.2-.3-3.2-.8s1.4-.8,3.2-.8h1.6l-1.2-1c-1.3-1.3-2.2-2.7-1.9-3s1.6.4,2.9,1.7a9.4,9.4,0,0,1,1.4,1.6,10.9,10.9,0,0,1-.1-1.9c0-2,.3-3.5.7-3.5s.8,1.5.8,3.5a7.6,7.6,0,0,1-.1,1.5l1.1-1.3c1.3-1.3,2.6-2.1,2.9-1.8s-.5,1.7-1.8,3l-1.4,1.2h1.9c1.8,0,3.2.4,3.2.8S1565.5,1617.5,1563.7,1617.5Z" fill="#a0d5d1"/>
      <path d="M1578.7,1607l-2.5-.2a14,14,0,0,1,2,1.7c1.9,1.8,3,3.6,2.7,4.1s-2.2-.6-4-2.4a8.4,8.4,0,0,1-1.8-2.1c0,.7.1,1.4.1,2.1,0,2.7-.5,4.9-1.1,4.9s-1-2.2-1-4.9a19.3,19.3,0,0,1,.1-2.5,12.6,12.6,0,0,1-2,2.4c-1.8,1.8-3.6,2.9-3.9,2.5s.7-2.3,2.5-4.2l1.8-1.6-2.2.2c-2.4,0-4.4-.5-4.4-1.2s2-1.1,4.4-1.1h2.2a6.7,6.7,0,0,1-1.6-1.4c-1.8-1.8-3-3.6-2.6-4s2.1.6,4,2.4a15.6,15.6,0,0,1,1.8,2.1,20.9,20.9,0,0,1-.1-2.6c0-2.7.4-4.9,1-4.9s1.1,2.2,1.1,4.9c0,.7-.1,1.4-.1,2l1.5-1.7c1.8-1.8,3.6-3,3.9-2.5s-.7,2.3-2.5,4.1a13.7,13.7,0,0,1-1.9,1.7l2.6-.2c2.4,0,4.4.5,4.4,1.1S1581.1,1607,1578.7,1607Z" fill="#70c4be"/>
      <circle cx="1555.1" cy="1600.3" r="8.2" fill="#54bcb4"/>
      <circle cx="1574.7" cy="1617.6" r="5.5" fill="#54bcb4"/>
      <polygon points="1579.1 1614.3 1578.4 1613.4 1574.7 1616.9 1571.3 1613.2 1570.5 1614 1573.9 1617.7 1570.3 1621 1571 1621.8 1574.6 1618.5 1578 1622.1 1578.8 1621.4 1575.4 1617.7 1579.1 1614.3" fill="#a0d5d1"/>
      <path d="M1576.5,1616h-.2v-.3a1.7,1.7,0,1,0-3.3,0v.2h-.2a1.8,1.8,0,0,0,0,3.6h.2a1.7,1.7,0,0,0,1.7,1.7,1.7,1.7,0,0,0,1.6-1.7h.2a1.8,1.8,0,0,0,0-3.6Zm-1.9,2.3a.6.6,0,0,1,0-1.2.6.6,0,1,1,0,1.2Z" fill="#75c5c0"/>
      <polygon points="1561.6 1595.4 1560.5 1594.2 1555.1 1599.2 1550.1 1593.9 1548.9 1595 1553.9 1600.3 1548.6 1605.2 1549.7 1606.4 1555 1601.5 1559.9 1606.8 1561.1 1605.7 1556.1 1600.4 1561.6 1595.4" fill="#a0d5d1"/>
      <path d="M1557.7,1597.9h-.3c0-.2.1-.4.1-.6a2.5,2.5,0,1,0-4.9,0v.4h-.2a2.6,2.6,0,0,0,0,5.2h.2v.2a2.5,2.5,0,1,0,4.9,0h.2a2.6,2.6,0,0,0,0-5.2Zm-2.7,3.3a.9.9,0,0,1-.8-.8.9.9,0,0,1,.8-.9.8.8,0,0,1,.8.9A.8.8,0,0,1,1555,1601.2Z" fill="#75c5c0"/>
    </g>
    <g>
      <g>
        <path d="M1411,1541.5h-9v-4.7h.2a.6.6,0,0,0,.6-.6v-.6a.6.6,0,0,0-.6-.6h-28.7a.6.6,0,0,0-.5.6v.6c0,.4.2.6.5.6h.3v1.4h-8.1l-.2-.8-1.6.3,2,9.6h-1.2a2.1,2.1,0,0,0-1.6,2.4,2.1,2.1,0,0,0,.6,1c1.3,1.5.2,3.6,0,3.8h0a5,5,0,0,0-.6,3.6c.5,2.8,3.6,4.6,6.8,3.9a6.2,6.2,0,0,0,3.9-2.5v1.9h-1.5a.7.7,0,0,0-.7.7v1.8a.7.7,0,0,0,.7.6h1.3v20.3a.6.6,0,0,0,.6.5h1a.6.6,0,0,0,.6-.5h8.9a.6.6,0,0,0,.6.5h1a.6.6,0,0,0,.6-.5h8.1a.6.6,0,0,0,.5.6h1.1a.6.6,0,0,0,.5-.6h11.8a1.7,1.7,0,0,0,1.6-1.7h0v-40h.5a.5.5,0,0,0,.5-.5v-.7A.5.5,0,0,0,1411,1541.5Zm-38,11.6h-.1l-.2-.2c-.7-.6-2.1-2-1.7-3.3h0a1.7,1.7,0,0,0,.1-.7,1.4,1.4,0,0,0-1.7-1.1,1.6,1.6,0,0,0-.8.6h0a.8.8,0,0,1-.8,0l-1.9-9.5h7.9V1554Z" fill="#53bbb3"/>
        <path d="M1363.6,1537.8l2.2-.5c.2,0,.4-.2.3-.4l-.2-1a.3.3,0,0,0-.3-.3v-.5h.4c0,.2.1.3.3.2h.1a.3.3,0,0,0,.3-.3v-.3l-.3-.2h-.2a.5.5,0,0,0-.2.4h-.3l-.2-.8h.3c0,.2.2.3.3.2h.2c.1,0,.2-.2.2-.3v-.3c0-.1-.1-.2-.3-.2h-.1c-.2.1-.3.2-.2.4h-.4v-.8h.3a.3.3,0,0,0,.3.3h.2c.1,0,.2-.1.2-.3v-.3c0-.1-.1-.2-.3-.2h-.1a.3.3,0,0,0-.3.3h-.3v-.5a.3.3,0,0,0-.5-.3h-.4v-.3c0-.2-.1-.3-.3-.2h-.4l-.2.3v.4h-.4a.5.5,0,0,0-.3.5v.5h-.3c0-.2-.2-.3-.3-.2h-.2c-.1,0-.2.2-.2.3v.3c0,.1.1.2.3.2h.1c.2-.1.3-.2.2-.4h.4l.2.9h-.4l-.3-.2h-.2c-.1,0-.2.1-.2.3v.3c0,.1.2.2.3.2h.2c.1,0,.2-.1.2-.3h.3l.2.9h-.4c0-.1-.2-.2-.3-.2h-.1c-.2.1-.3.2-.3.4v.2c0,.2.2.3.3.2h.2c.1,0,.2-.2.2-.3h.3v.5a.5.5,0,0,0-.2.4l.2,1A.5.5,0,0,0,1363.6,1537.8Z" fill="#53bbb3"/>
      </g>
      <path d="M1363.2,1531.5h.4c.2-.1.3,0,.3.2v.3h.4a.3.3,0,0,1,.5.3v.5h0v.2h.1l.2.9h-.1v.2h0l.2.9h-.1v.2h0v.5h-.1l-2.3.5h-.1v-.5h.1v-.2h0l-.2-.9h.1v-.2h0l-.2-.9h0v-.2h-.1v-.5a.5.5,0,0,1,.4-.5h.3v-.4Z" fill="#c6e5e4"/>
      <path d="M1374.6,1555.8a4.7,4.7,0,0,0-1.6-2.7h0l-.3-.2c-.6-.6-2.1-2-1.7-3.3h0a1.7,1.7,0,0,0,.1-.7,1.4,1.4,0,0,0-1.7-1.1,1.6,1.6,0,0,0-.8.6h0c-.2.2-.5.1-.7,0l1.5,7.3a.8.8,0,0,1-.5.7h-.5a.8.8,0,0,1-.7-.5l-1.8-8.7h-1.2a2.1,2.1,0,0,0-1.6,2.4,2.1,2.1,0,0,0,.6,1c1.4,1.5.2,3.6,0,3.8h0a5,5,0,0,0-.6,3.6,5.5,5.5,0,0,0,6.8,3.9C1373.1,1561.4,1375.2,1558.6,1374.6,1555.8Z" fill="#c6e5e4"/>
      <path d="M1366,1552.5c0-.2-.2-.3-.3-.2h0c-1.9.9.4,3.5-.5,4.4-.1-.8-.9.3-.1.2h0c1.8-.9-.5-3.5.4-4.4S1366.1,1552.9,1366,1552.5Z" fill="#75c5c0"/>
      <path d="M1372.3,1555c-.1-.4-.6-.2-.5.2s0-3.8-2.1-3.9h0c-.8.3.5.9.3.2s0,3.7,2.1,3.8h0C1372.3,1555.3,1372.4,1555.2,1372.3,1555Z" fill="#75c5c0"/>
      <path d="M1370.2,1560.3l.3-3.7a.8.8,0,0,0-.9-.9l-2,.5a.8.8,0,0,0-.6,1.1l1.8,3.3A.7.7,0,0,0,1370.2,1560.3Z" fill="#90cfcb"/>
      <rect x="1367.9" y="1552.5" width="0.5" height="3.02" rx="0.2" transform="translate(125 3209.6) rotate(-101.7)" fill="#90cfcb"/>
      <polygon points="1401.9 1543.3 1401.9 1541.6 1401.9 1541.6 1401.9 1536.9 1373.7 1536.9 1373.7 1556 1388.9 1556 1401.9 1556 1410.5 1556 1410.5 1543.3 1401.9 1543.3" fill="#90cfcb"/>
      <circle cx="1397" cy="1547.1" r="5.2" fill="#54bcb4"/>
      <circle cx="1396.9" cy="1547" r="3.3" fill="#75c5c0"/>
      <path d="M1400.7,1545.1c0-.1,0-.2-.1-.1s-.2-.2-.3-.1h-.6c-.4-.1-.4.2-.2.5v-.3l-2,.9v-.2h0c-.3-.8-1.2.5-1.6.1-2.7-.5-1.4,4.6,1.4,1.3h0c.6,0,.2-.5.1-.7l2.3-1c.1.2.4-.1.5-.2h.5c.2,0,.2-.1.1-.2Z" fill="#44b2a2"/>
      <rect x="1376.1" y="1552" width="8.8" height="3.51" rx="0.5" fill="#54bcb4"/>
      <path d="M1375.6,1548.4l-.6,3.4a2.9,2.9,0,0,0,.1,1.5H1386a2.9,2.9,0,0,0,.1-1.5l-.5-3.3c-.1-.2-.1-.3-.2-.3h-9.7A.3.3,0,0,0,1375.6,1548.4Z" fill="#44b2a2"/>
      <rect x="1378.1" y="1541.7" width="4.9" height="1.75" rx="0.9" fill="#44b2a2"/>
      <rect x="1373.8" y="1544.3" width="15.2" height="2.14" fill="#c6e5e4"/>
      <path d="M1396.5,1561.6h-24.1a.7.7,0,0,0-.7.6v1.8a.7.7,0,0,0,.7.7h1.3v20.2a.6.6,0,0,0,.6.6h1a.6.6,0,0,0,.5-.6h9a.6.6,0,0,0,.5.6h1.1a.6.6,0,0,0,.5-.6h8.1a.6.6,0,0,0,.6.5h1a.6.6,0,0,0,.6-.5v-22.8A.7.7,0,0,0,1396.5,1561.6Zm-8.2,22.7a.2.2,0,0,1-.2.2h-.6a.2.2,0,0,1-.2-.2v-.8l.2-.2h.6a.2.2,0,0,1,.2.2Zm0-1.7a.2.2,0,0,1-.2.2h-.6a.2.2,0,0,1-.2-.2v-.7c0-.2.1-.3.2-.3h.6c.1,0,.2.1.2.3Zm0-1.7c0,.2-.1.3-.2.3h-.6c-.1,0-.2-.1-.2-.3v-.7c0-.2.1-.3.2-.3h.6c.1,0,.2.1.2.3Zm0-1.7c0,.2-.1.3-.2.3h-.6c-.1,0-.2-.1-.2-.3v-.7l.2-.2h.6a.2.2,0,0,1,.2.2Zm0-1.6a.2.2,0,0,1-.2.2h-.6a.2.2,0,0,1-.2-.2v-.8l.2-.2h.6a.2.2,0,0,1,.2.2Zm0-1.7c0,.1-.1.3-.2.3h-.6c-.1,0-.2-.2-.2-.3v-.7c0-.2.1-.3.2-.3h.6c.1,0,.2.1.2.3Zm0-1.7c0,.2-.1.3-.2.3h-.6c-.1,0-.2-.1-.2-.3v-.7c0-.1.1-.3.2-.3h.6c.1,0,.2.2.2.3Zm0-1.7c0,.2-.1.3-.2.3h-.6c-.1,0-.2-.1-.2-.3v-.7l.2-.2h.6a.2.2,0,0,1,.2.2Zm0-1.6-.2.2h-.6l-.2-.2v-.8l.2-.2h.6l.2.2Zm0-1.7c0,.1-.1.3-.2.3h-.6c-.1,0-.2-.2-.2-.3v-.7c0-.2.1-.3.2-.3h.6c.1,0,.2.1.2.3Zm0-1.7c0,.2-.1.3-.2.3h-.6c-.1,0-.2-.1-.2-.3v-.7c0-.1.1-.3.2-.3h.6c.1,0,.2.2.2.3Zm0-1.7c0,.2-.1.3-.2.3h-.6c-.1,0-.2-.1-.2-.3v-.7l.2-.2h.6l.2.2Zm1.7,18.5c0,.1-.1.2-.3.2h-.5c-.2,0-.3-.1-.3-.2v-.8c0-.1.1-.2.3-.2h.5c.2,0,.3.1.3.2Zm0-1.7c0,.1-.1.2-.3.2h-.5c-.2,0-.3-.1-.3-.2v-.7a.3.3,0,0,1,.3-.3h.5a.3.3,0,0,1,.3.3Zm0-1.7a.3.3,0,0,1-.3.3h-.5a.3.3,0,0,1-.3-.3v-.7a.3.3,0,0,1,.3-.3h.5a.3.3,0,0,1,.3.3Zm0-1.7a.3.3,0,0,1-.3.3h-.5a.3.3,0,0,1-.3-.3v-.7c0-.1.1-.2.3-.2h.5c.2,0,.3.1.3.2Zm0-1.6c0,.1-.1.2-.3.2h-.5c-.2,0-.3-.1-.3-.2v-.8c0-.1.1-.2.3-.2h.5c.2,0,.3.1.3.2Zm0-1.7a.3.3,0,0,1-.3.3h-.5a.3.3,0,0,1-.3-.3v-.7a.3.3,0,0,1,.3-.3h.5a.3.3,0,0,1,.3.3Zm0-1.7a.3.3,0,0,1-.3.3h-.5a.3.3,0,0,1-.3-.3v-.7a.3.3,0,0,1,.3-.3h.5a.3.3,0,0,1,.3.3Zm0-1.7a.3.3,0,0,1-.3.3h-.5a.3.3,0,0,1-.3-.3v-.7c0-.1.1-.2.3-.2h.5c.2,0,.3.1.3.2Zm0-1.6c0,.1-.1.2-.3.2h-.5c-.2,0-.3-.1-.3-.2v-.8c0-.1.1-.2.3-.2h.5c.2,0,.3.1.3.2Zm0-1.7a.3.3,0,0,1-.3.3h-.5a.3.3,0,0,1-.3-.3v-.7a.3.3,0,0,1,.3-.3h.5a.3.3,0,0,1,.3.3Zm0-1.7a.3.3,0,0,1-.3.3h-.5a.3.3,0,0,1-.3-.3v-.7a.3.3,0,0,1,.3-.3h.5a.3.3,0,0,1,.3.3Zm0-1.7a.3.3,0,0,1-.3.3h-.5a.3.3,0,0,1-.3-.3v-.7c0-.1.1-.2.3-.2h.5c.2,0,.3.1.3.2Zm1.6,18.5a.2.2,0,0,1-.2.2h-.6a.2.2,0,0,1-.2-.2v-.8l.2-.2h.6a.2.2,0,0,1,.2.2Zm0-1.7a.2.2,0,0,1-.2.2h-.6a.2.2,0,0,1-.2-.2v-.7c0-.2.1-.3.2-.3h.6c.1,0,.2.1.2.3Zm0-1.7c0,.2-.1.3-.2.3h-.6c-.1,0-.2-.1-.2-.3v-.7c0-.2.1-.3.2-.3h.6c.1,0,.2.1.2.3Zm0-1.7c0,.2-.1.3-.2.3h-.6c-.1,0-.2-.1-.2-.3v-.7l.2-.2h.6a.2.2,0,0,1,.2.2Zm0-1.6a.2.2,0,0,1-.2.2h-.6a.2.2,0,0,1-.2-.2v-.8l.2-.2h.6l.2.2Zm0-1.7c0,.1-.1.3-.2.3h-.6c-.1,0-.2-.2-.2-.3v-.7c0-.2.1-.3.2-.3h.6c.1,0,.2.1.2.3Zm0-1.7c0,.2-.1.3-.2.3h-.6c-.1,0-.2-.1-.2-.3v-.7c0-.1.1-.3.2-.3h.6c.1,0,.2.2.2.3Zm0-1.7c0,.2-.1.3-.2.3h-.6c-.1,0-.2-.1-.2-.3v-.7l.2-.2h.6l.2.2Zm0-1.6-.2.2h-.6l-.2-.2v-.8l.2-.2h.6l.2.2Zm0-1.7c0,.1-.1.3-.2.3h-.6c-.1,0-.2-.2-.2-.3v-.7c0-.2.1-.3.2-.3h.6c.1,0,.2.1.2.3Zm0-1.7c0,.2-.1.3-.2.3h-.6c-.1,0-.2-.1-.2-.3v-.7c0-.1.1-.3.2-.3h.6c.1,0,.2.2.2.3Zm0-1.7c0,.2-.1.3-.2.3h-.6c-.1,0-.2-.1-.2-.3v-.7l.2-.2h.6l.2.2Zm1.6,18.5a.2.2,0,0,1-.2.2h-.6c-.1,0-.3-.1-.3-.2v-.8l.3-.2h.6l.2.2Zm0-1.7a.2.2,0,0,1-.2.2h-.6c-.1,0-.3-.1-.3-.2v-.7a.3.3,0,0,1,.3-.3h.6c.1,0,.2.1.2.3Zm0-1.7c0,.2-.1.3-.2.3h-.6a.3.3,0,0,1-.3-.3v-.7a.3.3,0,0,1,.3-.3h.6c.1,0,.2.1.2.3Zm0-1.7c0,.2-.1.3-.2.3h-.6a.3.3,0,0,1-.3-.3v-.7l.3-.2h.6l.2.2Zm0-1.6a.2.2,0,0,1-.2.2h-.6c-.1,0-.3-.1-.3-.2v-.8l.3-.2h.6l.2.2Zm0-1.7c0,.1-.1.3-.2.3h-.6a.5.5,0,0,1-.3-.3v-.7a.3.3,0,0,1,.3-.3h.6c.1,0,.2.1.2.3Zm0-1.7c0,.2-.1.3-.2.3h-.6a.3.3,0,0,1-.3-.3v-.7a.5.5,0,0,1,.3-.3h.6c.1,0,.2.2.2.3Zm0-1.7c0,.2-.1.3-.2.3h-.6a.3.3,0,0,1-.3-.3v-.7l.3-.2h.6l.2.2Zm0-1.6-.2.2h-.6l-.3-.2v-.8l.3-.2h.6l.2.2Zm0-1.7c0,.1-.1.3-.2.3h-.6a.5.5,0,0,1-.3-.3v-.7a.3.3,0,0,1,.3-.3h.6c.1,0,.2.1.2.3Zm0-1.7c0,.2-.1.3-.2.3h-.6a.3.3,0,0,1-.3-.3v-.7a.5.5,0,0,1,.3-.3h.6c.1,0,.2.2.2.3Zm0-1.7c0,.2-.1.3-.2.3h-.6a.3.3,0,0,1-.3-.3v-.7l.3-.2h.6l.2.2Zm1.7,18.5c0,.1-.2.2-.3.2h-.6a.2.2,0,0,1-.2-.2v-.8l.2-.2h.6l.3.2Zm0-1.7c0,.1-.2.2-.3.2h-.6a.2.2,0,0,1-.2-.2v-.7c0-.2.1-.3.2-.3h.6a.3.3,0,0,1,.3.3Zm0-1.7a.3.3,0,0,1-.3.3h-.6c-.1,0-.2-.1-.2-.3v-.7c0-.2.1-.3.2-.3h.6a.3.3,0,0,1,.3.3Zm0-1.7a.3.3,0,0,1-.3.3h-.6c-.1,0-.2-.1-.2-.3v-.7l.2-.2h.6l.3.2Zm0-1.6c0,.1-.2.2-.3.2h-.6a.2.2,0,0,1-.2-.2v-.8l.2-.2h.6l.3.2Zm0-1.7a.5.5,0,0,1-.3.3h-.6c-.1,0-.2-.2-.2-.3v-.7c0-.2.1-.3.2-.3h.6a.3.3,0,0,1,.3.3Zm0-1.7a.3.3,0,0,1-.3.3h-.6c-.1,0-.2-.1-.2-.3v-.7c0-.1.1-.3.2-.3h.6a.5.5,0,0,1,.3.3Zm0-1.7a.3.3,0,0,1-.3.3h-.6c-.1,0-.2-.1-.2-.3v-.7l.2-.2h.6l.3.2Zm0-1.6-.3.2h-.6l-.2-.2v-.8l.2-.2h.6l.3.2Zm0-1.7a.5.5,0,0,1-.3.3h-.6c-.1,0-.2-.2-.2-.3v-.7c0-.2.1-.3.2-.3h.6a.3.3,0,0,1,.3.3Zm0-1.7a.3.3,0,0,1-.3.3h-.6c-.1,0-.2-.1-.2-.3v-.7c0-.1.1-.3.2-.3h.6a.5.5,0,0,1,.3.3Zm0-1.7a.3.3,0,0,1-.3.3h-.6c-.1,0-.2-.1-.2-.3v-.7l.2-.2h.6l.3.2Z" fill="#90cecb"/>
      <path d="M1407.6,1566.2v10.7c0,.9-.4,1.7-.9,1.7h-5.1c-.4,0-.8-.8-.8-1.7v-10.7c0-.9.4-1.7.8-1.7h5.1C1407.2,1564.5,1407.6,1565.3,1407.6,1566.2Z" fill="#44b2a2"/>
      <path d="M1407.6,1566.2v5.1h-6.8v-5.1c0-.9.4-1.7.8-1.7h5.1C1407.2,1564.5,1407.6,1565.3,1407.6,1566.2Z" fill="#54bcb4"/>
      <path d="M1383.1,1570.2h-6a3.1,3.1,0,0,1,3-2.9A3,3,0,0,1,1383.1,1570.2Z" fill="#44b2a2"/>
      <rect x="1376.5" y="1571.9" width="7.3" height="13.19" fill="#75c5c0"/>
      <rect x="1376.1" y="1571.6" width="8" height="1.21" rx="0.6" fill="#44b2a2"/>
      <rect x="1377.8" y="1573.5" width="4.5" height="5.84" rx="2.2" fill="#90cfcb"/>
      <circle cx="1382.4" cy="1580.8" r="0.5" fill="#44b2a2"/>
    </g>
  </g>
</svg>
