<svg xmlns="http://www.w3.org/2000/svg" viewBox="0 0 112.68 69.68">
    <rect x="12.37" width="87.92" height="12.07" rx="3.74" fill="#c2c1c1"/>
    <rect x="12.37" y="3.29" width="87.92" height="18.18" rx="1.58" fill="#a9a9aa"/>
    <path d="M99.11,2.35H13.54a1.17,1.17,0,0,0-1.17,1.18V4.87A1.58,1.58,0,0,1,14,3.29h14.4V21.47H18.48V7.94a1.36,1.36,0,0,0-1.36-1.36H15.29a1.36,1.36,0,0,0-1.36,1.36V22.25a1.1,1.1,0,0,0,1.1,1.1H97.62a1.1,1.1,0,0,0,1.1-1.1V7.93a1.35,1.35,0,0,0-1.35-1.35H95.52a1.36,1.36,0,0,0-1.35,1.35V21.47H84.3V3.29H98.71a1.58,1.58,0,0,1,1.58,1.58V3.53A1.18,1.18,0,0,0,99.11,2.35ZM70.2,3.29V21.47H42.46V3.29Zm-34.95,0h.31V21.47h-.31ZM77.09,21.47V3.29h.32V21.47Z" fill="#7f8080"/>
    <rect x="29.29" y="4.39" width="5.02" height="7.52" rx="0.95" fill="#c2c1c1"/>
    <rect x="36.5" y="4.39" width="5.02" height="7.52" rx="0.95" fill="#c2c1c1"/>
    <rect x="71.14" y="4.39" width="5.02" height="7.52" rx="0.95" fill="#c2c1c1"/>
    <rect x="78.35" y="4.39" width="5.02" height="7.52" rx="0.95" fill="#c2c1c1"/>
    <rect x="20.36" y="5.49" width="6.04" height="6.43" rx="0.75" fill="#fff"/>
    <path d="M26.4,6.23V8.57h-6V6.23a.74.74,0,0,1,.75-.74h4.54A.75.75,0,0,1,26.4,6.23Z" fill="#c2c1c1"/>
    <rect x="46.43" y="5.49" width="6.04" height="6.43" rx="0.75" fill="#fff"/>
    <path d="M52.47,6.23V8.57h-6V6.23a.75.75,0,0,1,.75-.74h4.54A.74.74,0,0,1,52.47,6.23Z" fill="#c2c1c1"/>
    <rect x="53.5" y="5.49" width="6.04" height="6.43" rx="0.75" fill="#fff"/>
    <path d="M59.54,6.23V8.57h-6V6.23a.75.75,0,0,1,.75-.74h4.54A.74.74,0,0,1,59.54,6.23Z" fill="#c2c1c1"/>
    <rect x="60.44" y="5.49" width="6.04" height="6.43" rx="0.75" fill="#fff"/>
    <path d="M66.48,6.23V8.57h-6V6.23a.75.75,0,0,1,.75-.74h4.54A.74.74,0,0,1,66.48,6.23Z" fill="#c2c1c1"/>
    <rect x="86.43" y="5.8" width="6.04" height="6.43" rx="0.75" fill="#fff"/>
    <path d="M86.43,6.55V8.88h6V6.55a.75.75,0,0,0-.75-.75H87.18A.74.74,0,0,0,86.43,6.55Z" fill="#c2c1c1"/>
    <path d="M111.11,28.14a1.57,1.57,0,0,0,1.57-1.57V25a1.57,1.57,0,0,0-1.57-1.57H1.57A1.57,1.57,0,0,0,0,25v1.56a1.57,1.57,0,0,0,1.57,1.57h5v10a2.72,2.72,0,0,0-1.09,2.09H1.57A1.57,1.57,0,0,0,0,41.78v1.56a1.57,1.57,0,0,0,1.57,1.57h5V68.48a1.2,1.2,0,0,0,1.2,1.2h.9a1.19,1.19,0,0,0,1.19-1.2V44.91h92.78V68.48a1.2,1.2,0,0,0,1.2,1.2h.9a1.19,1.19,0,0,0,1.19-1.2V44.91h5.17a1.57,1.57,0,0,0,1.57-1.57V41.78a1.57,1.57,0,0,0-1.57-1.57H107a2.72,2.72,0,0,0-1.08-2.07v-10Zm-9.54,12.07H91.35a2.73,2.73,0,0,0-2-2.54V29.39l12.52,9.71A2.6,2.6,0,0,0,101.57,40.21Zm-90.83-.93,12.93-9.89v8.29a2.72,2.72,0,0,0-2,2.53H10.94A2.62,2.62,0,0,0,10.74,39.28Zm31.33-1.13a2.71,2.71,0,0,0-1-.49V28.14H55.73Zm-2.42-.47a2.79,2.79,0,0,0-.91.46l-13.44-10H39.65Zm-14.57,0V29.34L38,39a2.87,2.87,0,0,0-.35,1.24H27.11A2.72,2.72,0,0,0,25.08,37.67ZM42.78,39,56,29.34v8.31a2.72,2.72,0,0,0-2.07,2.56H43.12A2.78,2.78,0,0,0,42.78,39Zm14.58-1.3V29.38l12.73,9.86a2.84,2.84,0,0,0-.2,1H59.32A2.71,2.71,0,0,0,57.36,37.69Zm17.78,1.59,12.78-9.9v8.29a2.73,2.73,0,0,0-2,2.54H75.33A2.62,2.62,0,0,0,75.14,39.28ZM87.73,28.14,74.54,38.36a2.83,2.83,0,0,0-1.19-.68V28.14ZM71.94,37.66a2.72,2.72,0,0,0-1.22.68L57.55,28.14H71.94ZM23.48,28.14,10.14,38.36a1.78,1.78,0,0,0-.27-.21v-10Zm79.17,10-.12.1-13-10.09h13.13Z" fill="#fff"/>
</svg>
