<svg xmlns="http://www.w3.org/2000/svg" viewBox="0 0 2500 2500">
  <rect x="1.7" y="3.2" width="2500" height="2500" fill="#334d7f"/>
  <path d="M2122,1476.5h-5.3a15.6,15.6,0,0,0,.6-4.4V1201.5a16.3,16.3,0,0,0-16.3-16.3H1908V896.6a24.4,24.4,0,0,0-24.4-24.4h-54.4V732.9a25.5,25.5,0,0,0-25.6-25.6H1588.9a25.6,25.6,0,0,0-25.6,25.6v62.3h-48.7a43.2,43.2,0,0,0-41.7,31.7H1315.6V774.6a38.8,38.8,0,0,0-38.8-38.8H740.4a38.8,38.8,0,0,0-38.7,38.8V881.4a38.8,38.8,0,0,0,38.7,38.8h30c0,.7-.1,1.4-.1,2.1v14.9H361.4a47.2,47.2,0,0,0-47.2,47.2v380.1a47.2,47.2,0,0,0,47.2,47.2H512.3v318.6a20.8,20.8,0,0,0,20.8,20.9H752.4a16.8,16.8,0,0,0,16.8,16H941.5a16.8,16.8,0,0,0,16.8-16.9V1618.2h182v128.9c0,15.5,11.6,28.1,25.9,28.1h555.3c14.3,0,25.8-12.6,25.8-28.1V1488.5h56.2v105.3a16.3,16.3,0,0,0,16.3,16.4h57v135.4a12.1,12.1,0,0,0,12,12.1H2122a12.1,12.1,0,0,0,12-12.1V1488.5A12,12,0,0,0,2122,1476.5Z" fill="#c4e2f2"/>
  <g>
    <path d="M889.4,990.2v9a16.4,16.4,0,0,1-16.4,16.4h-7.4v57.8a14.9,14.9,0,0,1-14.9,14.8H830.1v2.8a6.9,6.9,0,0,1-6.8,6.8h-1.8a6.8,6.8,0,0,1-6.8-6.8v-2.8H708.1V1120h21.3a10,10,0,0,1,10,10v20.3a10,10,0,0,1-10,10H633.9v13.4a12.6,12.6,0,0,1-12.6,12.6H573.5v28.6h7.3a15,15,0,0,1,15,15v22.5a15,15,0,0,1-15,15h-10v16.8a10.7,10.7,0,0,1-10.7,10.8h-3.6v6.9h44.8a10.4,10.4,0,0,1,10.4,10.3v13.2a10.5,10.5,0,0,1-10.4,10.4H579.9v19.4a12.4,12.4,0,0,1-12.4,12.4H528.6a12.4,12.4,0,0,1-12.4-12.4v-27.4H450.3a11.4,11.4,0,0,1-11.4-11.5V1295h-6.4v13.2a10.1,10.1,0,0,1-10.1,10.1h-3.3a10.6,10.6,0,0,1,1.2,5v32.9a11.4,11.4,0,0,1-11.4,11.4h-8.7v13.1a9,9,0,0,1-3.5,7.1,6,6,0,0,1-4.7,2H346.3a6.6,6.6,0,0,1-6.6-6.5V1381a6.6,6.6,0,0,1,6.6-6.5h31.6v-6.9H336.3a8.3,8.3,0,0,1-8.2-8.3v-4.1a8.3,8.3,0,0,1,8.2-8.3H371v-23.6a5.7,5.7,0,0,1,.1-1.3h-6.3a8.1,8.1,0,0,1-8.1-8.1V1310a8.1,8.1,0,0,1,8.1-8.1h27.9v-4.3h-7.9a6.9,6.9,0,0,1-6.9-6.9v-1a6.9,6.9,0,0,1,6.9-6.9h5.3V1148.1h-7.7a8.2,8.2,0,0,1-8.2-8.2v-3.2a8.2,8.2,0,0,1,8.2-8.2h87.7v-.4a7.5,7.5,0,0,1,7.6-7.5h5.6a7.5,7.5,0,0,1,7.5,7.5v.4h58.8V1124a10.4,10.4,0,0,1,10.4-10.3h13.5V1109a9.6,9.6,0,0,1,9.6-9.6h8.3a9.6,9.6,0,0,1,9.7,9.6v11h72.1v-51.9a12.6,12.6,0,0,1,12.7-12.7h53.5V989.1a14.9,14.9,0,0,1,14.9-14.8h14.8v-.6a9.5,9.5,0,0,1,9.5-9.5H785v-1.5a7.5,7.5,0,0,1,7.5-7.5h5.7a7.5,7.5,0,0,1,7.5,7.5v1.5h33.4a9.4,9.4,0,0,1,9.5,9.5H873A16.4,16.4,0,0,1,889.4,990.2Z" fill="#7eb5cf"/>
    <path d="M889.4,981.7v9a16.3,16.3,0,0,1-16.4,16.4h-7.4v57.8a14.9,14.9,0,0,1-14.9,14.8H830.1v2.8a6.8,6.8,0,0,1-6.8,6.8h-1.8a6.7,6.7,0,0,1-6.8-6.8v-2.8H708.1v31.8h21.3a10.1,10.1,0,0,1,10,10.1v20.2a10,10,0,0,1-10,10H633.9v13.4a12.5,12.5,0,0,1-12.6,12.6H573.5v28.6h7.3a15,15,0,0,1,15,15V1244a15,15,0,0,1-15,14.9h-10v16.8a10.7,10.7,0,0,1-10.7,10.8h-3.6v6.9h44.8a10.4,10.4,0,0,1,10.4,10.3v13.2a10.4,10.4,0,0,1-10.4,10.4H579.9v19.5a12.4,12.4,0,0,1-12.4,12.3H528.6a12.4,12.4,0,0,1-12.4-12.3v-27.5H450.3a10.7,10.7,0,0,1-5.3-1.3,11.4,11.4,0,0,1-6.1-10.1v-21.4h-6.4v13.2a10.1,10.1,0,0,1-10.1,10.1h-3.3a10.6,10.6,0,0,1,1.2,5v32.9a11.4,11.4,0,0,1-11.4,11.4h-8.7v13.1a9,9,0,0,1-3.5,7.1,6.1,6.1,0,0,1-4.7,2.1H346.3a6.7,6.7,0,0,1-6.6-6.6v-2.2a6.6,6.6,0,0,1,6.6-6.6h31.6v-6.9H336.3a8.3,8.3,0,0,1-8.2-8.3v-4.1a8.3,8.3,0,0,1,8.2-8.3H371v-23.6a5.7,5.7,0,0,1,.1-1.3h-6.3a8.1,8.1,0,0,1-8.1-8.1v-3.9a8.1,8.1,0,0,1,8.1-8.1h27.9v-4.3h-7.9a6.9,6.9,0,0,1-6.9-6.9v-1a6.9,6.9,0,0,1,6.9-6.9h5.3V1139.6h-7.7a8.2,8.2,0,0,1-8.2-8.2v-3.1a8.3,8.3,0,0,1,8.2-8.3h87.7v-.4a7.7,7.7,0,0,1,4.1-6.7,8.2,8.2,0,0,1,3.5-.8h5.6a7.3,7.3,0,0,1,2.5.4,7.5,7.5,0,0,1,5,7.1v.4h58.8v-4.5a10.4,10.4,0,0,1,10.4-10.3h13.5v-4.7a9.6,9.6,0,0,1,9.6-9.6h8.3a9.6,9.6,0,0,1,9.7,9.6v11h72.1v-51.9a12.7,12.7,0,0,1,12.7-12.7h53.5V980.6a14.9,14.9,0,0,1,14.9-14.8h14.8v-.6a9.6,9.6,0,0,1,9.5-9.5H785v-1.5a7.6,7.6,0,0,1,7.5-7.5h5.7a7.6,7.6,0,0,1,7.5,7.5v1.5h33.4a9.5,9.5,0,0,1,9.5,9.5H873A16.4,16.4,0,0,1,889.4,981.7Z" fill="#90c4da"/>
  </g>
  <g>
    <path d="M967.9,1459.3H919.2V1267.4a29,29,0,0,0-29-29H856.8a17,17,0,0,0-16.9-15.4H768.6a17,17,0,0,0-17,17v7.4H708.3a28,28,0,0,0-28,28v14.4a25.9,25.9,0,0,0-22.4,25.6v36.9H646.6a28.3,28.3,0,0,0-28.3,28.3v32.3H607.1a29.6,29.6,0,0,0-29.6,29.5v33.7a30.3,30.3,0,0,0,.2,3.1h-14a21.4,21.4,0,0,0-21.4,21.4v39.9a28.6,28.6,0,0,0-18.4,26.8v142.2a28.8,28.8,0,0,0,28.8,28.8h82.8a28.8,28.8,0,0,0,28.8-28.8v-39.1h57.4V1727a30.3,30.3,0,0,0,30.3,30.3H873.3a30.3,30.3,0,0,0,30.3-30.3V1617.1a29.7,29.7,0,0,0-2.6-12.2h27.3a17,17,0,0,0,17-17v-11.1h22.6a20.8,20.8,0,0,0,20.8-20.8v-75.9A20.8,20.8,0,0,0,967.9,1459.3Z" fill="#7f97b0"/>
    <path d="M971.8,1525.1v28.3a5.5,5.5,0,0,1-5.5,5.5h-2.6a5.5,5.5,0,0,1-5.5-5.5v-7h-6.9a12.6,12.6,0,0,1-12.4,10.8H924.2v16.1a17.4,17.4,0,0,1-17.4,17.4H875.9v138.1a14.3,14.3,0,0,1-14.4,14.4H807a14.4,14.4,0,0,1-14.4-14.4V1695H779.1a25.7,25.7,0,0,1-25.7-25.6v-23.2H646.8v30a13.7,13.7,0,0,1-13.7,13.7h-1.6v23.9a18.1,18.1,0,0,1-18.1,18.1H586.1a18.1,18.1,0,0,1-18.1-18.1v-23.9H557.3a13.7,13.7,0,0,1-13.7-13.7v-36.1a13.8,13.8,0,0,1,13.7-13.7h6.1V1598H538a8,8,0,0,1-8-8v-7.2a8,8,0,0,1,8-8h35.6a8,8,0,0,1,8,8v1.6h5.8a11.8,11.8,0,0,1,11.8,11.8v11.5H619v-43.1H608.8v5.2a9.6,9.6,0,0,1-9.5,9.5h-.2a9.6,9.6,0,0,1-9.6-9.5v-5.2h-6.6a24.6,24.6,0,0,1-24.6-24.6v-16.1a24.6,24.6,0,0,1,24.6-24.5h13.4v-34.8a3.8,3.8,0,0,1,.1-1,28.3,28.3,0,0,1,4.3-14.4l1.8-2.6a28.8,28.8,0,0,1,8.5-7.4,29.1,29.1,0,0,1,14.7-3.9h8.1v-28.1a25.8,25.8,0,0,1,25.8-25.8h37.1V1370h-3.5a15.2,15.2,0,0,1-15.2-15.2v-33.6a15.2,15.2,0,0,1,15.2-15.2h3.5v-5.9a31,31,0,0,1,31-31h44.5v-11.6a11.7,11.7,0,0,1,11.7-11.7h5.5a11.8,11.8,0,0,1,11.7,11.7v11.6h10.8v-12.4a10.8,10.8,0,0,1,10.8-10.9h7.2a10.9,10.9,0,0,1,10.9,10.9v12.4h24.9a8.1,8.1,0,0,1,8.1-7.9h6a8,8,0,0,1,8.1,8v153h9.2a6.6,6.6,0,0,1,6.6,6.7v8.2a6.6,6.6,0,0,1-6.6,6.7h-9.2v29.5h18.9a17.3,17.3,0,0,1,17.4,17.3v9.3h14.7a12.5,12.5,0,0,1,12.5,12.5v3.4h11.1A9.3,9.3,0,0,1,971.8,1525.1Z" fill="#7f97b0"/>
    <rect x="739.3" y="1720.5" width="19.3" height="22.69" rx="7.7" fill="#7f97b0"/>
    <path d="M971.8,1518.3v28.3a5.5,5.5,0,0,1-5.5,5.5h-2.6a5.5,5.5,0,0,1-5.5-5.5v-7h-6.9a12.6,12.6,0,0,1-12.4,10.8H924.2v16.1a17.4,17.4,0,0,1-17.4,17.4H875.9V1722a14.4,14.4,0,0,1-14.4,14.4H807a14.5,14.5,0,0,1-14.4-14.4v-33.8H779.1a25.7,25.7,0,0,1-25.7-25.6v-23.2H646.8v30a13.7,13.7,0,0,1-13.7,13.7h-1.6V1707a18.1,18.1,0,0,1-18.1,18.1H586.1A18.1,18.1,0,0,1,568,1707v-23.9H557.3a13.7,13.7,0,0,1-13.7-13.7v-36.1a13.7,13.7,0,0,1,13.7-13.7h6.1v-28.4H538a8,8,0,0,1-8-8V1576a8,8,0,0,1,8-8h35.6a8,8,0,0,1,8,8v1.6h5.8a11.8,11.8,0,0,1,11.8,11.8v11.5H619v-43.1H608.8v5.2a9.6,9.6,0,0,1-9.5,9.5h-.2a9.6,9.6,0,0,1-9.6-9.5v-5.2h-6.6a24.6,24.6,0,0,1-24.6-24.6v-16.1a24.6,24.6,0,0,1,24.6-24.6h13.4v-34.7a30.3,30.3,0,0,1,1.3-8.6,27.7,27.7,0,0,1,1-2.6,29,29,0,0,1,4.4-7.4,29.4,29.4,0,0,1,22.7-10.7h8.1v-28.1a25.7,25.7,0,0,1,25.8-25.8h37.1v-11.4h-3.5a15.1,15.1,0,0,1-15-12.8,19.4,19.4,0,0,1-.2-2.4v-33.6a15.3,15.3,0,0,1,15.2-15.3h3.5v-5.8a31,31,0,0,1,31-31h44.5v-11.6a11.7,11.7,0,0,1,11.7-11.7h5.5a11.8,11.8,0,0,1,11.7,11.7v11.6h10.8v-12.4a10.8,10.8,0,0,1,10.8-10.9h7.2a10.9,10.9,0,0,1,10.9,10.9v12.4h24.9a8.2,8.2,0,0,1,8.1-8h6a8.1,8.1,0,0,1,8.1,8.1v153h9.2a6.6,6.6,0,0,1,6.6,6.7v8.2a6.6,6.6,0,0,1-6.6,6.7h-9.2v29.5h18.9a17.3,17.3,0,0,1,17.4,17.3v9.3h14.7a12.5,12.5,0,0,1,12.5,12.5v3.4h11.1A9.3,9.3,0,0,1,971.8,1518.3Z" fill="#9ab4da"/>
    <rect x="739.3" y="1713.7" width="19.3" height="22.69" rx="7.7" fill="#9ab4da"/>
  </g>
  <g>
    <path d="M1823,1118.1h-12.3v-19.7a13.6,13.6,0,0,0-13.5-13.5h-24.5v-26.5a19.2,19.2,0,0,0-19.3-19.3h-7.2v-26.5a8.8,8.8,0,0,0-.2-1.7h49.4a20,20,0,0,0,17.7-10.9h3.8a14.5,14.5,0,0,0,14.5-14.6V972.3a14.5,14.5,0,0,0-14.5-14.5h-1.7V928.6a19.9,19.9,0,0,0-14.5-19v-12A11.6,11.6,0,0,0,1789,886h-25.5a13.5,13.5,0,0,0,12.7-13.4V788.9h7.1a15.2,15.2,0,0,0,15.2-15.2V745.8a10,10,0,0,0-10-10h-18.6a10,10,0,0,0-10,10v3.3h-97.1a15.2,15.2,0,0,0-15.1,15.2v9.4a15.2,15.2,0,0,0,15.1,15.2H1676V801h-88.3a8.2,8.2,0,0,0-8.2,8.2v2.9a8.2,8.2,0,0,0,8.2,8.2h34.6V860a15.2,15.2,0,0,0,15.2,15.2h38.8a13.3,13.3,0,0,0,13.1,10.8h29.9a11.7,11.7,0,0,0-10.9,11.6v11.3h-2.6a19.7,19.7,0,0,0-19.7,19.7v62.5a19.8,19.8,0,0,0,19.7,19.8h3.7a9.1,9.1,0,0,0-.1,1.7v26.5h-17.6a19.2,19.2,0,0,0-19.2,19.3v11.4h-20.3a19.6,19.6,0,0,0-19.6,19.6v23a13.5,13.5,0,0,0,13.6,13.5h82.4v41.7h-11.5a13.3,13.3,0,0,0-13.3,13.2v25.4a13.3,13.3,0,0,0,13.3,13.2h39.2a13.2,13.2,0,0,0,13.3-13.2v-20.5H1823a12.4,12.4,0,0,0,12.4-12.4v-42.8A12.4,12.4,0,0,0,1823,1118.1Z" fill="#334d7f"/>
    <path d="M1863.4,1018.1h-32.1v-53a14.6,14.6,0,0,0-14.6-14.6H1815V921.4a20.8,20.8,0,0,0-1.3-7.1,19.5,19.5,0,0,0-2.6-4.7,10.1,10.1,0,0,0-1.3-1.6h0l-.7-.6a11.2,11.2,0,0,0-2-1.8l-.2-.2-1.2-.7-.5-.3a15.2,15.2,0,0,0-4.7-2v-12a11.6,11.6,0,0,0-11.6-11.6h-25.1a15.1,15.1,0,0,0,4.3-1.1,13.5,13.5,0,0,0,6.6-6.3,10.9,10.9,0,0,0,1.4-5.4c0-.2.1-.4.1-.6V781.7h7.1a15.2,15.2,0,0,0,15.2-15.2V738.6a10,10,0,0,0-10-10h-18.6a10,10,0,0,0-10,10v3.3h-97.1a15.2,15.2,0,0,0-15.1,15.1v9.5a15.2,15.2,0,0,0,15.1,15.2H1676v12.1h-88.3a8.3,8.3,0,0,0-8.2,8.3v2.8a8.2,8.2,0,0,0,8.2,8.2h34.6v39.7a15.4,15.4,0,0,0,8.5,13.7,15,15,0,0,0,6.7,1.5h38.8a13.4,13.4,0,0,0,13.1,10.9h29.8a11.5,11.5,0,0,0-10.8,11.6v11.3h-2.6a19.7,19.7,0,0,0-19.7,19.7v62.5a19.7,19.7,0,0,0,19.7,19.7h3.7a10.9,10.9,0,0,0-.1,1.8v26.4h-17.6a19.9,19.9,0,0,0-6,1,23.2,23.2,0,0,0-3.9,1.8,19.2,19.2,0,0,0-9.3,16.5v11.5h-20.3a23,23,0,0,0-4.5.5,19.6,19.6,0,0,0-15,17.8v24.3a13.4,13.4,0,0,0,13.5,13.5h82.4v41.6h-11.5a13.1,13.1,0,0,0-9.7,4.3,12.7,12.7,0,0,0-2.6,3.9,14.5,14.5,0,0,0-1,5.1V1199a13.3,13.3,0,0,0,13.3,13.2h39.2a11.8,11.8,0,0,0,2.7-.3,17,17,0,0,0,3.2-1,14.2,14.2,0,0,0,5.8-5.6,13.8,13.8,0,0,0,1.6-6.1v-20.8H1823a12.8,12.8,0,0,0,7.7-2.6,12.5,12.5,0,0,0,4.5-7.3,19.5,19.5,0,0,0,.2-2.5v-42.7a12.2,12.2,0,0,0-4.2-9.3h.1v-50.7h32.1a13,13,0,0,0,13-13V1031A13,13,0,0,0,1863.4,1018.1Z" fill="#4565aa"/>
  </g>
  <g>
    <path d="M1734.3,1545.1v.3a10.3,10.3,0,0,1-10.3,10.4h-88.2a24.4,24.4,0,0,1,1.7,9v46a23.6,23.6,0,0,1-23.6,23.6h-32.7v45.8h32.9a15.2,15.2,0,0,1,15.2,15.3,15.4,15.4,0,0,1-15.2,15.2h-33.2a25.4,25.4,0,0,1-25,21.1h-1.7v1.1a18.3,18.3,0,0,1-18.3,18.3H1327.2a18.3,18.3,0,0,1-18.2-16.4h-17.1v.2a16.2,16.2,0,0,1-16.2,16.2h-93.1a16.3,16.3,0,0,1-16.3-16.2v-6.3a16.2,16.2,0,0,1,16.3-16.2h81.7v-56.9a21.2,21.2,0,0,1,19.4-21.1v-8.1a11.3,11.3,0,0,1,11.3-11.3h69.7v-74.4a16.6,16.6,0,0,1,16.6-16.6h7.4v-19.7a25,25,0,0,1,24.9-24.9H1500a25,25,0,0,1,24.9,24.9v30.3H1724A10.3,10.3,0,0,1,1734.3,1545.1Z" fill="#60988a"/>
    <path d="M1734.3,1534.5v.4a10.3,10.3,0,0,1-10.3,10.3h-88.2a24.9,24.9,0,0,1,1.7,9.1v45.9a23.7,23.7,0,0,1-23.6,23.7h-32.7v45.7h32.9a15.3,15.3,0,0,1,0,30.6h-33.2a25.5,25.5,0,0,1-25,21.1h-1.7v1.1a18.2,18.2,0,0,1-18.3,18.2H1327.2a18.3,18.3,0,0,1-18.2-16.4h-17.1v.2a16.1,16.1,0,0,1-16.2,16.2h-93.1a16.2,16.2,0,0,1-16.3-16.2v-6.3a16.3,16.3,0,0,1,16.3-16.2h81.7v-56.8a21.2,21.2,0,0,1,19.4-21.1v-8.2a11.4,11.4,0,0,1,11.3-11.3h69.7v-74.4a16.5,16.5,0,0,1,16.6-16.5h7.4v-19.7a24.9,24.9,0,0,1,24.9-24.9H1500a24.9,24.9,0,0,1,24.9,24.9v30.2H1724A10.4,10.4,0,0,1,1734.3,1534.5Z" fill="#74b5a8"/>
  </g>
  <g>
    <path d="M1337.9,877.3c-1.4,4.8-2.9,9.4-4.3,14h1.5v.8h1.9v-.8h.6l.3-.9v5.8c-.1.5-.1.9-.2,1.4a11.4,11.4,0,0,1-.7,3.2,1.4,1.4,0,0,1-.2.6,15.6,15.6,0,0,1-1.7,3.7,16.1,16.1,0,0,1-3.2,4.2,19,19,0,0,1-5.2,3.7,19.5,19.5,0,0,1-9,2.1h-68.4v20.8a12.5,12.5,0,0,1-8.3,11.7,13.4,13.4,0,0,1-4,.7h-9.4v42.2a10.2,10.2,0,0,1-8.2,10.1,7.5,7.5,0,0,1-2.1.2h-33.7v41.9h0a17.3,17.3,0,0,1-17.3,16.3H1018a17.3,17.3,0,0,1-17.3-17.2V999.8a17.3,17.3,0,0,1,17.3-17.2h3.9V959.1H983.1a13.2,13.2,0,0,1-13.2-13.2V864.3H831v6.6a9.4,9.4,0,0,1-9.4,9.4H789.5a9.4,9.4,0,0,1-9.4-9.4V858.5H752.4A10.6,10.6,0,0,1,741.8,848v-9.2a10.6,10.6,0,0,1,10.6-10.5H779V816.7a18.2,18.2,0,0,1,18.1-18.2h222.5v-5.7a13.1,13.1,0,0,1,13.1-13.1h76a13.2,13.2,0,0,1,13.2,13.1v63.5h195.8a20.5,20.5,0,0,1,11.5,3.5l1.7,1.4a19.8,19.8,0,0,1,6.9,13.6,8.6,8.6,0,0,1,.1,1.6Z" fill="#6ea1ce"/>
    <path d="M1337.9,869v8.3c-1.4,4.8-2.9,9.4-4.3,14h1.5v.8h1.9v-.8h.6a6.4,6.4,0,0,1-.2.7h0a9.3,9.3,0,0,1-.4,1.3,5.8,5.8,0,0,1-.6,1.7c-.1.4-.3.7-.4,1.1s-.5,1-.8,1.4,0,.1-.1.1l-1,1.7c-.6.7-1.1,1.4-1.7,2l-2.7,2.4-2.6,1.6a19.8,19.8,0,0,1-9.4,2.3h-68.4v20.8a12.5,12.5,0,0,1-8.3,11.7,13.4,13.4,0,0,1-4,.6h-9.4V983a10.3,10.3,0,0,1-10.1,10.4h-33.9v41a18,18,0,0,1-1.1,6.2,17.3,17.3,0,0,1-16.2,11.1H1018a17.3,17.3,0,0,1-17.3-17.3v-42a17.4,17.4,0,0,1,17.3-17.3h3.9V951.7H983.1a15.3,15.3,0,0,1-3-.3,21.5,21.5,0,0,1-2.7-1,13.1,13.1,0,0,1-7.5-11.9V856.8H831v6.6a9.4,9.4,0,0,1-9.4,9.4H789.5a9.4,9.4,0,0,1-9.4-9.4V851.1H752.4a10.6,10.6,0,0,1-10.6-10.5v-9.3a10.6,10.6,0,0,1,10.6-10.5H779V809.2a18.1,18.1,0,0,1,18.1-18.1h222.5v-5.7a13.2,13.2,0,0,1,13.1-13.2h76a13.2,13.2,0,0,1,13.2,13.2v63.4H1318a20.2,20.2,0,0,1,19.9,20.2Z" fill="#92c2e8"/>
  </g>
  <g>
    <g>
      <path d="M1889.9,1449.9h13.2v-5.1h-13.2a21.3,21.3,0,0,1-21.3-20.7v4.4A21.3,21.3,0,0,0,1889.9,1449.9Z" fill="#70957f"/>
      <path d="M1886.8,1272h0v0Z" fill="#70957f"/>
      <path d="M1957.4,1687.2a14,14,0,0,1-3.6-1.3A14,14,0,0,0,1957.4,1687.2Z" fill="#70957f"/>
      <path d="M1923.1,1619.2h34.8v-5.1h-34.8a23.5,23.5,0,0,1-22.9-22.9v4.5A23.5,23.5,0,0,0,1923.1,1619.2Z" fill="#70957f"/>
      <path d="M1974.9,1687.7a11.4,11.4,0,0,0,1.5,2.3,11.4,11.4,0,0,1-1.5-2.3Z" fill="#70957f"/>
      <path d="M1979.2,1693a26.2,26.2,0,0,0,3.4,2.4l1,.6-1-.6A26.2,26.2,0,0,1,1979.2,1693Z" fill="#70957f"/>
      <path d="M1786.6,1305.3h-12.4v7.1a19.6,19.6,0,0,1-19.6,19.6h-26.4a19.6,19.6,0,0,1-19.6-19v4.5a19.6,19.6,0,0,0,19.6,19.6h26.5a19.6,19.6,0,0,0,19.6-19.6v-7.1h12.3Z" fill="#70957f"/>
      <path d="M1836,1353.1h-35.6a13.8,13.8,0,0,1-13.8-13.4v4.7a13.8,13.8,0,0,0,13.8,13.8H1836Z" fill="#70957f"/>
      <path d="M1900.2,1563.1h-43.1a17.4,17.4,0,0,1-17.3-16.8v4.6a17.4,17.4,0,0,0,17.3,17.3h43.1Z" fill="#70957f"/>
      <path d="M1858.1,1393.3h10.5v-5.1h-10.5a22,22,0,0,1-22.1-21.4v4.4A22.1,22.1,0,0,0,1858.1,1393.3Z" fill="#70957f"/>
    </g>
    <path d="M2113.7,1679.1v-4.6a21.1,21.1,0,0,0-.2-2.6h0v-38a19.8,19.8,0,0,0-6.8-15h0v-14.6a17.3,17.3,0,0,0-17.2-17.3h-.2v-34.4a23.5,23.5,0,0,0-23.5-23.5h-9.9a4.6,4.6,0,0,0-.7-.7h0v-6.8a15.2,15.2,0,0,0-6.4-12.4,17,17,0,0,0-10.4-15.4h0v-40.2a19.9,19.9,0,0,0-1.1-5.5,23.2,23.2,0,0,0-1.8-3.9,14.3,14.3,0,0,0-1.4-2,22.4,22.4,0,0,0-3.4-3.5,21.4,21.4,0,0,0-4.1-2.5h0v-54.3a21.3,21.3,0,0,0-21.4-21.3h-.4v-34.6a18.3,18.3,0,0,0-.2-3.3,6.7,6.7,0,0,0,4.9-6.4v-5.6a6.7,6.7,0,0,0-6.7-6.8h-16v-51.5a14.8,14.8,0,0,0-4.4-10.5,14.6,14.6,0,0,0-21.9,1.1h-16.8a12.3,12.3,0,0,0-12.3,12.3V1272h-44.6v-7.8a19.6,19.6,0,0,0-19.6-19.6h-20.5a12.1,12.1,0,0,0-8.2-3.1h-5.1a12.3,12.3,0,0,0-12.3,12.3v40h-1.9V1291a13.8,13.8,0,0,0-13.8-13.8h-5a13.8,13.8,0,0,0-13.8,13.8v8.9h-12.4v-24.4a19.6,19.6,0,0,0-19.6-19.6h-26.4a19.6,19.6,0,0,0-19.6,19.6V1313a19.6,19.6,0,0,0,19.6,19h26.4a19.6,19.6,0,0,0,19.6-19.6v-7.1h12.4v34.5a13.8,13.8,0,0,0,13.8,13.4H1836v13.7a22,22,0,0,0,22.1,21.4h10.5v35.9a21.3,21.3,0,0,0,21.3,20.7h13.2v50.5a17.3,17.3,0,0,0-7.3,12.1,15.3,15.3,0,0,0-9.5,14.1v2.1h-29.2a17.3,17.3,0,0,0-17.3,17.3v5.4a17.4,17.4,0,0,0,17.3,16.8h43.1v28.1a23.5,23.5,0,0,0,22.9,22.9h34.8v23.7a16.3,16.3,0,0,0-10.3,7.2h-29.7a16.8,16.8,0,0,0-16.2,12.7,25.1,25.1,0,0,0-.4,2.7v8.1a16.7,16.7,0,0,0,16.6,16.1h33.8a16.6,16.6,0,0,0,9.5,3.1h13.7a20.3,20.3,0,0,0,7.7,7.7,20.9,20.9,0,0,0,8.9,2.6v23.4a17.9,17.9,0,0,0,4,11.3,10.7,10.7,0,0,0,1.4,1.6l1.1,1a18.3,18.3,0,0,0,11.6,4.2h86a18.1,18.1,0,0,0,18.1-18.1v-42.3Z" fill="#85ad97"/>
  </g>
  <g>
    <path d="M1438.6,1282.7a10.9,10.9,0,0,1-.1,1.8,7.6,7.6,0,0,1,.1,1.5v55.1a15.2,15.2,0,0,1-15.2,15.2h-25.7v93.5a9.3,9.3,0,0,1-9.3,9.2h-43.9v9.3a10.5,10.5,0,0,1-10.4,10.4h-54.6a10.4,10.4,0,0,1-10.3-10.4v-22.4H1106.7a8.5,8.5,0,0,1-8.6-8.5V1302.7h-46.3a20,20,0,0,1-20-20v-49.6a20,20,0,0,1,20-20h.9v-49a19.4,19.4,0,0,1,19.3-19.4h26.9v-16.4a11,11,0,0,1,11-11h256.8a16.7,16.7,0,0,1,16.7,16.6V1146H1399a23.1,23.1,0,0,1,23.2,23.2v44.2a20.1,20.1,0,0,1,16.4,19.7Z" fill="#5c5a2a"/>
    <path d="M1445.6,1222.8v49.7c0,.6-.1,1.2-.1,1.7a15.3,15.3,0,0,0-15.2-13.6h-87a15.3,15.3,0,0,0-13.3,7.7,16.8,16.8,0,0,0-1.7,4.9,22.8,22.8,0,0,0-.2,2.6v33.9h-8.5a17.6,17.6,0,0,0-17.7,17.6v86.3h-15.4a10.4,10.4,0,0,0-10.4,10.4v11.7H1113.6a8.5,8.5,0,0,1-8.5-8.5V1292.5h-46.3a20,20,0,0,1-20-20v-49.7a19.9,19.9,0,0,1,20-19.9h.9v10.9a19.2,19.2,0,0,0,19.3,19.3h123a19.3,19.3,0,0,0,19.3-19.3v-59.9a19.4,19.4,0,0,0-19.3-19.4h-16.3v-16.4a11,11,0,0,0-11-11h199a16.6,16.6,0,0,1,16.6,16.6v12H1406a23.2,23.2,0,0,1,23.2,23.2v44.3A20,20,0,0,1,1445.6,1222.8Z" fill="#afb568"/>
    <path d="M1221.3,1153.9v59.9a19.3,19.3,0,0,1-19.3,19.3H1079a19.2,19.2,0,0,1-19.3-19.3v-59.9a19.3,19.3,0,0,1,19.3-19.4h26.9v-16.4a11,11,0,0,1,11-11h57.8a11,11,0,0,1,11,11v16.4H1202A19.4,19.4,0,0,1,1221.3,1153.9Z" fill="#828242"/>
    <path d="M1445.5,1274.2a15.3,15.3,0,0,0-15.2-13.6h-87a15.3,15.3,0,0,0-13.3,7.7,16.8,16.8,0,0,0-1.7,4.9,22.8,22.8,0,0,0-.2,2.6v33.9h-8.5a17.6,17.6,0,0,0-17.7,17.6v86.3h-15.4a10.4,10.4,0,0,0-10.4,10.4v34.1a10.4,10.4,0,0,0,10.4,10.3h54.6a10.3,10.3,0,0,0,10.3-10.3v-9.3h44a9.2,9.2,0,0,0,9.2-9.3v-93.4h25.7a15.3,15.3,0,0,0,15.3-15.2v-55.1C1445.6,1275.2,1445.5,1274.7,1445.5,1274.2Z" fill="#828242"/>
  </g>
  <g>
    <path d="M1425.6,1672.9h4.7a.9.9,0,0,0,.9-.9v-1a.9.9,0,0,0-.9-.9h-11.7a11.5,11.5,0,0,0-20.4,7.2,11.5,11.5,0,0,0,23,1Zm-3.7,0-1.1,1.3a11.2,11.2,0,0,0-.5-1.3Z" fill="#d77074"/>
    <path d="M1446.3,1680.8l-4.5-4.5a.9.9,0,0,0-1.3.2H1437v-4.4h12.8a1.1,1.1,0,0,0,1-1v-.8a1.1,1.1,0,0,0-1-1.1h-14.9a.9.9,0,0,0-.8.8v6.5h-5.2a.7.7,0,0,0-1.1-.1l-4.5,4.5a.7.7,0,0,0,0,1.1v11.6a.8.8,0,0,0-.2,1.2l4.5,4.5a.8.8,0,0,0,1.2-.1h11.6a.9.9,0,0,0,1.3.2l4.5-4.5c.4-.4.1-1-.3-1.3v-11.4C1446.3,1681.9,1446.8,1681.3,1446.3,1680.8Zm-3.3.8c.1,0,0,1.7,0,3.8Zm0,12.4v-1a3.1,3.1,0,0,0,.1.9Z" fill="#d77074"/>
    <path d="M1469.5,1677h-18.6a1.2,1.2,0,0,0-1.3,1.2V1698a1.2,1.2,0,0,0,1.3,1.2h7.7v22.3a1.3,1.3,0,0,0,1.3,1.3h.2a1.3,1.3,0,0,0,1.3-1.3v-22.3h8.1a1.2,1.2,0,0,0,1.2-1.2h0v-19.8h0A1.2,1.2,0,0,0,1469.5,1677Z" fill="#d77074"/>
    <path d="M1489.6,1679.7h-3.7v-1a1.2,1.2,0,0,0-1.3-1.2h-.4a1.1,1.1,0,0,0-.9.5c-5.1,1.6-8.7,5.2-9.3,9.5s3.3,10.2,9.5,12.1a1.1,1.1,0,0,0,.7.3h.4a1.3,1.3,0,0,0,1.3-1.2v-16.2h3.7a.6.6,0,0,0,.6-.6v-1.6A.6.6,0,0,0,1489.6,1679.7Z" fill="#d77074"/>
  </g>
  <g>
    <path d="M1423.9,1537.4h1.8a.4.4,0,0,0,.4-.4v-.3a.4.4,0,0,0-.4-.4h-4.5a4.4,4.4,0,0,0-3.4-1.7,4.5,4.5,0,1,0,4.4,4.9Zm-1.4,0-.4.5-.2-.5Z"/>
    <path d="M1432,1540.9c.1-.2.1-.3,0-.4l-1.8-1.8a.3.3,0,0,0-.4,0h-1.5v-1.7h5a.4.4,0,0,0,.4-.4v-.3a.4.4,0,0,0-.4-.4h-5.8a.3.3,0,0,0-.3.3v2.5h-2a.2.2,0,0,0-.4,0l-1.8,1.7a.3.3,0,0,0,0,.4h0v4.5h0a.3.3,0,0,0,0,.4l1.7,1.8h.4l.4-.4a.3.3,0,0,0,0-.4l-.4-.4h4.7l-.4.4a.3.3,0,0,0,0,.4l.3.4h.5l1.7-1.8a.3.3,0,0,0,0-.4h-.1V1541Zm-1.3,4.6h0Z"/>
    <path d="M1441,1539h-7.3a.5.5,0,0,0-.4.5v7.6a.5.5,0,0,0,.4.5h3v8.7a.5.5,0,0,0,.5.5h.1a.5.5,0,0,0,.5-.5v-8.7h3.2a.4.4,0,0,0,.4-.4h0v-7.4h0A.4.4,0,0,0,1441,1539Z"/>
    <path d="M1448.8,1540h-1.5v-.3a.5.5,0,0,0-.5-.5h-.1a.5.5,0,0,0-.4.2,5,5,0,0,0-3.6,3.7c-.2,2,1.3,3.9,3.7,4.7h.4a.5.5,0,0,0,.5-.5v-6.3h1.5l.2-.2v-.6C1449,1540.1,1448.9,1540,1448.8,1540Z"/>
  </g>
</svg>
