<svg xmlns="http://www.w3.org/2000/svg" viewBox="0 0 92 57">
  <g>
    <ellipse cx="11.9" cy="11.5" rx="9.5" ry="9.9" fill="#d77074"/>
    <path d="M32.1,4.3H19.9V7.1h3.8l-3,3.6,2.2,1.8,4.5-5.4h4.7a.9.9,0,0,0,.9-.9v-1A.9.9,0,0,0,32.1,4.3Z" fill="#e18791"/>
    <path d="M11.5,0a11.5,11.5,0,0,0,0,23,11.5,11.5,0,0,0,0-23Zm0,20.6a9.1,9.1,0,0,1-9.1-9.1,9,9,0,0,1,9.1-9.1,9.1,9.1,0,0,1,0,18.2Z" fill="#c2585e"/>
    <rect x="27.3" y="13.5" width="17.5" height="17.03" fill="#c2585e"/>
    <path d="M51.5,3.4H36.7a.8.8,0,0,0-.8.8v8.7h2.9V6.3H51.5a1.1,1.1,0,0,0,1.1-1V4.5A1.1,1.1,0,0,0,51.5,3.4Z" fill="#d77074"/>
    <path d="M47.7,27.8V16.4c.4-.3.9-.9.4-1.4l-4.5-4.5a.9.9,0,0,0-1.3.2H30.7a.8.8,0,0,0-1.2-.1L25,15.1a.8.8,0,0,0,.1,1.1V27.8a.8.8,0,0,0-.2,1.2l4.5,4.5a.8.8,0,0,0,1.2-.1H42.2c.3.4.9.6,1.2.2l4.5-4.5C48.4,28.7,48.1,28.1,47.7,27.8ZM28,28V16.2l2.7-2.7H42.6l2.2,2.3V28.1l-2.4,2.5H30.5Z" fill="#e18791"/>
    <rect x="53.2" y="12.7" width="17" height="19.39" fill="#d77074"/>
    <path d="M49.3,43.1H72.9a1.3,1.3,0,0,1,1.3,1.3v.2A1.3,1.3,0,0,1,72.9,46H49.3a0,0,0,0,1,0,0V43.1A0,0,0,0,1,49.3,43.1Z" transform="translate(106.3 -17.2) rotate(90)" fill="#e18791"/>
    <path d="M71.3,11.2H52.6a1.2,1.2,0,0,0-1.2,1.2V32.2a1.2,1.2,0,0,0,1.2,1.2H71.3a1.2,1.2,0,0,0,1.2-1.2h0V12.4h0A1.2,1.2,0,0,0,71.3,11.2ZM54.3,14H69.6V30.6H54.3Z" fill="#c2585e"/>
    <path d="M85.5,13c-10,4.8-11.9,14.7-.7,19.5C87.5,32.3,85.2,14.5,85.5,13Z" fill="#e18791"/>
    <path d="M85.6,33.9c-6.4-1.8-10.5-6.9-9.8-12.2s4.5-8.2,9.8-9.7l.7,2.4c-4.4,1.2-7.6,4.2-8.1,7.6s2.9,8.1,8.1,9.6Z" fill="#c2585e"/>
    <path d="M91.3,13.9H87.6v-1a1.2,1.2,0,0,0-1.2-1.2H86a1.2,1.2,0,0,0-1.2,1.2v20A1.2,1.2,0,0,0,86,34.1h.4a1.2,1.2,0,0,0,1.2-1.2V16.7h3.7a.7.7,0,0,0,.7-.6V14.6A.7.7,0,0,0,91.3,13.9Z" fill="#d77074"/>
  </g>
</svg>
