<svg xmlns="http://www.w3.org/2000/svg" viewBox="0 0 2500 2500">
  <g>
    <path d="M672.3,1121.3c1-79.4-11.9-62.8,66.3-64.7V990.4l150,1.1v8.9a16.4,16.4,0,0,1-16.4,16.5h-7.4v57.7a14.9,14.9,0,0,1-14.9,14.9H829.3c.4,4.9-1.4,9.4-6.8,9.6s-8.6-2.1-8.6-6.8v-2.8H707.3v31.8h21.3a10,10,0,0,1,10,10v20.3a10,10,0,0,1-10,10H633.1V1175a12.6,12.6,0,0,1-12.6,12.6H572.7v28.6H580a15,15,0,0,1,15,15v22.5a15,15,0,0,1-15,15H570v16.8a10.7,10.7,0,0,1-10.7,10.7h-3.6v6.9h44.8a10.5,10.5,0,0,1,10.4,10.4v13.2a10.5,10.5,0,0,1-10.4,10.4H579.1v19.4a12.5,12.5,0,0,1-12.4,12.4H527.8a12.5,12.5,0,0,1-12.4-12.4v-27.4H449.5a11.5,11.5,0,0,1-11.5-11.5v-21.4h-6.3v13.3c-.3,7.5-6.4,10.8-13.4,10.1,2.4,2.7.7,34.2,1.2,37.9a11.4,11.4,0,0,1-11.4,11.4h-8.8V1382a9,9,0,0,1-3.4,7.1,6.2,6.2,0,0,1-4.7,2H345.5c-4.8-.1-7.2-4.2-6.6-8.8a6.6,6.6,0,0,1,6.6-6.5h31.6v-6.9H335.5a8.3,8.3,0,0,1-8.2-8.3v-4.1a8.3,8.3,0,0,1,8.2-8.3h34.7v-23.6a5.7,5.7,0,0,1,.1-1.3H364a8.1,8.1,0,0,1-8.1-8.1v-4a8.1,8.1,0,0,1,8.1-8.1h27.9v-4.2H384c-9.2-.1-9.3-14.7,0-14.8h5.3V1149.4h-7.7a8.2,8.2,0,0,1-8.2-8.2V1138a8.2,8.2,0,0,1,8.2-8.2Z" fill="#6db7d2"/>
    <path d="M888.6,983v9a16.4,16.4,0,0,1-16.4,16.4h-7.4v57.8a14.9,14.9,0,0,1-14.9,14.8H829.3c.4,4.9-1.4,9.4-6.8,9.6s-8.6-2.1-8.6-6.8V1081H707.3v31.8h21.3a10,10,0,0,1,10,10v20.3a10,10,0,0,1-10,10H633.1v13.4a12.6,12.6,0,0,1-12.6,12.6H572.7v28.6H580a15,15,0,0,1,15,15v22.5a15,15,0,0,1-15,15H570V1277a10.7,10.7,0,0,1-10.7,10.8h-3.6v6.9h44.8a10.4,10.4,0,0,1,10.4,10.3v13.2a10.5,10.5,0,0,1-10.4,10.4H579.1V1348a12.4,12.4,0,0,1-12.4,12.4H527.8a12.4,12.4,0,0,1-12.4-12.4v-27.4H449.5a11.5,11.5,0,0,1-11.5-11.5v-21.3h-6.3V1301a10.1,10.1,0,0,1-10.1,10.1h-3.3a10.6,10.6,0,0,1,1.2,5V1349a11.4,11.4,0,0,1-11.4,11.4h-8.8v13.1a8.9,8.9,0,0,1-3.4,7.1,6.3,6.3,0,0,1-4.7,2.1H345.5c-4.8-.3-7.2-4.1-6.6-8.9a6.6,6.6,0,0,1,6.6-6.5h31.6v-6.9H335.5a8.3,8.3,0,0,1-8.2-8.3V1348a8.3,8.3,0,0,1,8.2-8.3h34.7v-23.6a5.7,5.7,0,0,1,.1-1.3H364a8.1,8.1,0,0,1-8.1-8.1v-3.9a8.1,8.1,0,0,1,8.1-8.1h27.9v-4.3H384a7.1,7.1,0,0,1-6.9-7.9c.6-7.4,6.4-7.1,12.2-6.9V1140.9h-7.7a8.2,8.2,0,0,1-8.2-8.2c-.6-5.8,1.7-11.1,8.2-11.4.1-.3,88.5.8,87.7-.4a7.5,7.5,0,0,1,7.6-7.5h5.6a7.5,7.5,0,0,1,7.5,7.5c-1,1,58.9.2,58.8.4v-4.5a10.4,10.4,0,0,1,10.4-10.3h13.5v-4.7a9.6,9.6,0,0,1,9.6-9.6h8.3a9.7,9.7,0,0,1,9.7,9.6v11h72v-51.9a12.7,12.7,0,0,1,12.8-12.7h53.5V981.9a14.9,14.9,0,0,1,14.9-14.8h14.8a9.5,9.5,0,0,1,9.5-10.1h6.4v-1.5a7.5,7.5,0,0,1,7.5-7.5h5.6a7.8,7.8,0,0,1,7.6,9h33.4a9.5,9.5,0,0,1,9.5,9.5h24.4A16.4,16.4,0,0,1,888.6,983Z" fill="#81c5dd"/>
  </g>
  <g>
    <path d="M599.2,1596.9v11.4H619v-43.1H608.8v5.2a9.7,9.7,0,0,1-19.3,0v-5.2h-6.6a24.6,24.6,0,0,1-24.6-24.5v-16.1a24.6,24.6,0,0,1,24.6-24.6h13.4l37.5-64.1v-28c0-14.3,62.9-25.8,62.9-25.8v-11.4h-3.5a15.2,15.2,0,0,1-15.2-15.2v-33.7c0-8.4,209.9-51.9,209.9-51.9v153l15.8,14.9a6.5,6.5,0,0,1-6.6,6.6h-9.2v29.5l83.9,51.9v28.3c-.3,4.7-4,5.8-8.1,5.5a5.5,5.5,0,0,1-5.5-5.5v-7h-6.9a12.6,12.6,0,0,1-12.4,10.8H924.2V1574a17.3,17.3,0,0,1-17.4,17.3H875.9v138.1a14.4,14.4,0,0,1-14.4,14.5H807a14.5,14.5,0,0,1-14.4-14.5v-33.7H779.1a25.7,25.7,0,0,1-25.7-25.6v-23.2H646.8v29.9a13.9,13.9,0,0,1-15.3,13.8v23.9a18.1,18.1,0,0,1-18.1,18.1H586.1a18.1,18.1,0,0,1-18.1-18.1v-23.9H557.3a13.8,13.8,0,0,1-13.7-13.8v-36a13.7,13.7,0,0,1,13.7-13.7h6.1v-28.4H538a8,8,0,0,1-8-8v-7.2Z" fill="#7998b2"/>
    <rect x="739.3" y="1721.2" width="19.3" height="22.69" rx="7.7" fill="#7998b2"/>
    <path d="M971.8,1519v28.3a5.5,5.5,0,0,1-5.5,5.5h-2.6a5.5,5.5,0,0,1-5.5-5.5v-7h-6.9a12.6,12.6,0,0,1-12.4,10.8H924.2v16.1a17.3,17.3,0,0,1-17.4,17.3H875.9v138.1a14.4,14.4,0,0,1-14.4,14.5H807a14.5,14.5,0,0,1-14.4-14.5v-33.7H779.1a25.7,25.7,0,0,1-25.7-25.7v-23.1H646.8V1670a13.7,13.7,0,0,1-13.7,13.8h-1.6v23.9a18,18,0,0,1-18.1,18H586.1a18,18,0,0,1-18.1-18v-23.9H557.3a13.8,13.8,0,0,1-13.7-13.8v-36a13.7,13.7,0,0,1,13.7-13.7h6.1v-28.4H538a8,8,0,0,1-8-8v-7.2a8,8,0,0,1,8-8.1h35.6a8,8,0,0,1,8,8.1v1.6h5.8a11.8,11.8,0,0,1,11.8,11.8v11.4H619v-43.1H608.8v5.2a9.7,9.7,0,0,1-19.3,0v-5.2h-6.6a24.6,24.6,0,0,1-24.6-24.5v-16.1a24.6,24.6,0,0,1,24.6-24.6h13.4c.4-6.5-1.1-37.7,1.3-43.3a29.6,29.6,0,0,1,28.1-20.8h8.1v-28a25.8,25.8,0,0,1,25.8-25.9h37.1v-11.3h-3.5a15.3,15.3,0,0,1-15.2-15.2V1315a15.2,15.2,0,0,1,15.2-15.2h3.5c-2.1-19.2,11-36.8,31-36.8h44.5v-11.6a11.7,11.7,0,0,1,11.7-11.7h5.5a11.7,11.7,0,0,1,11.7,11.7V1263h10.8v-12.5a10.8,10.8,0,0,1,10.8-10.8h7.2a10.9,10.9,0,0,1,10.9,10.8V1263h24.9a8.2,8.2,0,0,1,8.1-8h6a8.1,8.1,0,0,1,8.1,8.1v153h9.2a6.6,6.6,0,0,1,6.6,6.7v8.2c-.6,8.8-9.9,6.3-15.8,6.6v29.5h18.9a17.4,17.4,0,0,1,17.4,17.3v9.4h14.7c8.7.1,13.4,7.6,12.5,15.9h11.1A9.3,9.3,0,0,1,971.8,1519Z" fill="#94b5dd"/>
    <rect x="739.3" y="1714.4" width="19.3" height="22.69" rx="7.7" fill="#94b5dd"/>
  </g>
  <g>
    <path d="M1703.5,1205.5a13.3,13.3,0,0,0,13.3,13.2c4.1-.5,42.4,1.4,45.1-1.3a13.2,13.2,0,0,0,7.4-11.9V1185h53.3a12.5,12.5,0,0,0,12.4-12.5v-42.7a12.4,12.4,0,0,0-4.1-9.3v-50.7H1863a13,13,0,0,0,13-13V1043l-137.9-.9,37.7-253.9h7.1a15.2,15.2,0,0,0,15.2-15.2V745.1c0-5.5-150.8,18.5-150.8,18.5V773a15.2,15.2,0,0,0,15.2,15.2h13.1v12.1h-88.2c-6.2.2-8.9,5.3-8.3,11a8.3,8.3,0,0,0,8.3,8.3H1622v39.7a15.2,15.2,0,0,0,15.1,15.2h38.8a13.4,13.4,0,0,0,13.1,10.8h29.8a11.7,11.7,0,0,0-10.8,11.6v11.3c-11.7-1.1-22.4,7.7-22.3,19.7v62.5c-.1,12.6,11.3,21.2,23.4,19.7a10.9,10.9,0,0,0-.1,1.8v34.5c-.1,1.2-78.7,39.8-76.6,42.3v23a13.4,13.4,0,0,0,13.5,13.5h82.4v41.7l-24.9,15.5Z" fill="#2b4e83"/>
    <path d="M1863,1018.6h-32.1v-53a14.8,14.8,0,0,0-16.3-14.5V921.9a19.2,19.2,0,0,0-5.2-13.3,20.2,20.2,0,0,0-9.2-5.7v-12a11.6,11.6,0,0,0-11.7-11.6h-25a13.5,13.5,0,0,0,12.3-13.4V782.2h7.1a15.2,15.2,0,0,0,15.2-15.2V739.1a10,10,0,0,0-10-10h-18.6c-7.6.3-10.7,6.3-10,13.3h-97a15.2,15.2,0,0,0-15.2,15.2V767a15.2,15.2,0,0,0,15.2,15.2h13.1v12.1h-88.2c-6.2.2-8.9,5.3-8.3,11a8.3,8.3,0,0,0,8.3,8.3H1622v39.7a15.2,15.2,0,0,0,8.4,13.6c3.2,2.9,40.9,1.1,45.5,1.6a13.4,13.4,0,0,0,13.1,10.8h29.8a11.7,11.7,0,0,0-10.8,11.6v11.3h-2.6a19.7,19.7,0,0,0-19.7,19.7v62.5c-.1,12.6,11.3,21.2,23.4,19.7a10.9,10.9,0,0,0-.1,1.8v26.5c-4.3.2-19.7-.7-23.5.9a19.3,19.3,0,0,0-13.3,18.3v11.5c-2.9.1-22.2-.4-24.8.6a19.5,19.5,0,0,0-15,17.7v24.3a13.4,13.4,0,0,0,13.5,13.5h82.4v41.7c-8.9.1-19.5-2.1-23.8,8.2-2,4.6-.5,25.5-1,30.4a13.3,13.3,0,0,0,13.3,13.2h39.3a13,13,0,0,0,11.6-6.9c2.8-3.2,1.2-22.7,1.6-26.8h53.3a12.5,12.5,0,0,0,12.2-9.9,11.4,11.4,0,0,0,.2-2.6v-42.7a12.6,12.6,0,0,0-4.1-9.3c.1.1,0-50.7,0-50.7H1863a13,13,0,0,0,13-13v-19.2A13,13,0,0,0,1863,1018.6Z" fill="#3b66af"/>
  </g>
  <g>
    <path d="M1724,1535.9a10.4,10.4,0,0,1,10.3,10.8A10.3,10.3,0,0,1,1724,1557h-88.2c3.3,4.8,1.2,48.7,1.7,55a23.7,23.7,0,0,1-23.6,23.7h-32.7v45.7h32.9c20,.6,20.2,29.9,0,30.5h-33.2a25.6,25.6,0,0,1-26.7,21.2v1.1a18.2,18.2,0,0,1-18.3,18.2H1327.2A18.3,18.3,0,0,1,1309,1736c.1.2-17.5-.4-17.1.2a16.1,16.1,0,0,1-16.2,16.2h-93.1a16.2,16.2,0,0,1-16.3-16.2v-6.3a16.3,16.3,0,0,1,16.3-16.2h81.7v-56.9c0-11,326-111,336.8-111.9Z" fill="#4c998a"/>
    <path d="M1734.3,1535.7a10.4,10.4,0,0,1-10.3,10.8h-88.2c3.4,4.9,1.1,48.6,1.7,54.9a23.7,23.7,0,0,1-23.6,23.7h-32.7v45.8h32.9a15.3,15.3,0,0,1,0,30.5h-33.2a25.4,25.4,0,0,1-25,21.1h-1.7v1.1a18.3,18.3,0,0,1-18.3,18.3H1327.2a18.3,18.3,0,0,1-18.2-16.5h-17.1a16.3,16.3,0,0,1-16.2,16.5h-93.1a16.3,16.3,0,0,1-16.3-16.3v-6.2a16.3,16.3,0,0,1,16.3-16.3h81.7v-56.8a21.2,21.2,0,0,1,19.4-21.1v-8.1a11.4,11.4,0,0,1,11.3-11.4h69.7v-74.3a16.6,16.6,0,0,1,16.6-16.6h7.4v-19.7a24.9,24.9,0,0,1,24.9-24.9H1500a24.9,24.9,0,0,1,24.9,24.9v30.3H1724A10.3,10.3,0,0,1,1734.3,1535.7Z" fill="#5db7a8"/>
  </g>
  <g>
    <path d="M1337.9,892.4c.8,9.4-2.4,18.3-11.2,22.6-2.3,4.1-72.4,1.4-77.4,2.1v20.8a12.5,12.5,0,0,1-8.3,11.7c-2.2,1.1-10.8.5-13.4.7v42.2a10.2,10.2,0,0,1-8.2,10.1,7.5,7.5,0,0,1-2.1.2h-33.7v41.1a17.2,17.2,0,0,1-17.3,17.2H1018a17.3,17.3,0,0,1-17.3-17.2v-42.1a17.3,17.3,0,0,1,17.3-17.2h3.9V961.1H983.1a13.2,13.2,0,0,1-13.2-13.2V866.3H831v6.6a9.4,9.4,0,0,1-9.4,9.4H789.5a9.4,9.4,0,0,1-9.4-9.4V860.5H752.4A10.6,10.6,0,0,1,741.8,850v-9.2l546.9,26Z" fill="#5ea3d2"/>
    <path d="M1337.9,871v21.4c-1.2,5.2-3.7,10.2-8.2,13.4a20.3,20.3,0,0,1-12,3.9h-68.4v20.8a12.5,12.5,0,0,1-8.3,11.7c-2.2,1.1-10.8.5-13.4.6V985a10.3,10.3,0,0,1-10.1,10.4c-.1.2-33.7-.1-33.9,0-.4,3.6,1.1,44.7-1.1,47.2a17.3,17.3,0,0,1-16.2,11.1H1018a17.3,17.3,0,0,1-17.3-17.3v-42c.1-11.5,10.2-18.5,21.2-17.3V953.7c-3.5-.5-42.3,1.3-44.5-1.3a13.1,13.1,0,0,1-7.5-11.9V858.8H831v6.6a9.4,9.4,0,0,1-9.4,9.4H789.5a9.4,9.4,0,0,1-9.4-9.4V853.1H752.4a10.6,10.6,0,0,1-10.6-10.5v-9.3a10.6,10.6,0,0,1,10.6-10.5H779V811.2a18.1,18.1,0,0,1,18.1-18.1h222.5v-5.7a13.2,13.2,0,0,1,13.1-13.2h76a13.2,13.2,0,0,1,13.2,13.2v63.4H1318A20.3,20.3,0,0,1,1337.9,871Z" fill="#85c4ec"/>
  </g>
  <g>
    <path d="M2005.1,1330.1c5.7-1.6,5-7.4,4.9-12.2a6.7,6.7,0,0,0-6.7-6.7l-238-9.4-57.8-19.1v37.1a19.7,19.7,0,0,0,19.7,19.7h26.6a19.7,19.7,0,0,0,19.7-19.7v-7.1h12.4V1347a13.8,13.8,0,0,0,13.9,13.8c4.1.1,31-.3,35.8-.1v13.8a22.1,22.1,0,0,0,22.2,21.5h10.5v36.1a21.5,21.5,0,0,0,21.5,20.8h13.3v50.8a17.1,17.1,0,0,0-7.4,12.2c-6.3,2.4-10.1,9.2-9.5,16.2h-29.4a17.4,17.4,0,0,0-17.4,17.4c0,.3.1,5.3.1,5.5a17.3,17.3,0,0,0,17.3,16.8h43.3v28.3a23.6,23.6,0,0,0,23.1,23h35V1647c-4.4.9-57,23.5-57,24v6.8a16.8,16.8,0,0,0,16.7,16.2h34c5.3,4.7,16.9,2.8,23.3,3.1a20.4,20.4,0,0,0,16.8,10.4v19c-.5,6.9.9,14.1,6.5,18.5a17.8,17.8,0,0,0,11.6,4.2h86.5a18.1,18.1,0,0,0,18.2-18.1s-.1-49-.2-49.9-103.7,0-103.7-.1S2005.3,1331.2,2005.1,1330.1Z" fill="#65967d"/>
    <path d="M2114.8,1680.5c-.4-3.6-.1-40.8-.2-45.5a20.1,20.1,0,0,0-6.8-15.2v-14.6a17.4,17.4,0,0,0-17.5-17.4v-34.6a23.7,23.7,0,0,0-23.7-23.6h-9.9a4.6,4.6,0,0,0-.7-.7v-6.8a15.2,15.2,0,0,0-6.5-12.5,17.2,17.2,0,0,0-10.4-15.6v-40.4a20.5,20.5,0,0,0-11.9-17.4v-54.6a21.5,21.5,0,0,0-21.8-21.5c-.6-.8.6-37.2-.3-38,5.7-1.6,5-7.4,4.9-12.2a6.7,6.7,0,0,0-6.7-6.7h-16.1v-51.9a14.8,14.8,0,0,0-4.4-10.5c-5.6-6.2-17.1-5.6-22.1,1.1h-16.8a12.4,12.4,0,0,0-12.4,12.4v16.9h-44.8v-7.9a19.7,19.7,0,0,0-19.7-19.7h-20.7c-3.2-3.4-8.9-3.2-13.3-3.1a12.3,12.3,0,0,0-12.4,12.3v40.3h-1.9c1-8.6-5-16.8-13.9-16.7h-5a13.9,13.9,0,0,0-13.9,13.9v8.9h-12.4v-24.5a19.7,19.7,0,0,0-19.7-19.7h-26.6a19.7,19.7,0,0,0-19.7,19.7v37.1a19.7,19.7,0,0,0,19.7,19.7h26.6a19.7,19.7,0,0,0,19.7-19.7v-7.1h12.4V1339a13.8,13.8,0,0,0,13.9,13.8c3.9-.2,31.1-.1,35.8-.1v13.8a22.1,22.1,0,0,0,22.2,21.5h10.5v36.1a21.5,21.5,0,0,0,21.5,20.8h13.3v50.8a17.1,17.1,0,0,0-7.4,12.2c-6.3,2.4-10.1,9.2-9.5,16.2h-29.4a17.4,17.4,0,0,0-17.4,17.4v5a1.1,1.1,0,0,0,.1.5,17.3,17.3,0,0,0,17.3,16.8h43.3v28.3a23.6,23.6,0,0,0,23.1,23h35V1639a16,16,0,0,0-10.4,7.3h-29.9a16.7,16.7,0,0,0-16.7,16.7v6.8a16.8,16.8,0,0,0,16.7,16.2h34c5.2,4.8,16.9,2.7,23.3,3.1a20.4,20.4,0,0,0,16.8,10.4v23.6a18.1,18.1,0,0,0,18.1,18.1h86.5a18.1,18.1,0,0,0,18.2-18.1Z" fill="#79af95"/>
  </g>
  <g>
    <path d="M1038.8,1233.8v49.7a20,20,0,0,0,20,20h46.3v134.7a8.5,8.5,0,0,0,8.5,8.5h162.5v22.4a10.4,10.4,0,0,0,10.4,10.3h54.6c11-.1,10.8-11.5,10.3-19.6h44a9.2,9.2,0,0,0,9.2-9.3v-93.4" fill="#5c5a20"/>
    <path d="M1116.9,1107.1c-14.3,0-10.6,18.3-11,27.4H1079a19.3,19.3,0,0,0-19.3,19.4v49h-.9a19.9,19.9,0,0,0-20,19.9v49.7a20,20,0,0,0,20,20h46.3v134.7a8.5,8.5,0,0,0,8.5,8.5h162.5v22.4a10.4,10.4,0,0,0,10.4,10.3h54.6c11-.1,10.8-11.5,10.3-19.6h44a9.2,9.2,0,0,0,9.2-9.3v-93.4c13.2-1,40.6,5.7,41-15.2-.1-1.7.1-55.1-.1-56.7s.1-1.1.1-1.7v-49.7a20,20,0,0,0-16.4-19.6v-44.3a23.2,23.2,0,0,0-23.2-23.2h-15.7v-12a16.6,16.6,0,0,0-16.6-16.6" fill="#aeb75c"/>
    <path d="M1221.3,1153.9v59.9a19.3,19.3,0,0,1-19.3,19.3H1079a19.2,19.2,0,0,1-19.3-19.3v-59.9a19.3,19.3,0,0,1,19.3-19.4h26.9c.4-9.1-3.3-27.4,11-27.4h57.8c14.2-.1,10.6,18.3,11,27.4C1201.4,1133.9,1220.2,1133.1,1221.3,1153.9Z" fill="#828236"/>
    <path d="M1445.5,1274.2a15.3,15.3,0,0,0-15.2-13.6h-87c-22.8,0-13.4,35.5-15.2,49.1-12.7-1.4-25.9,2.8-26.2,17.6v86.3h-15.4a10.4,10.4,0,0,0-10.4,10.4v34.1a10.4,10.4,0,0,0,10.4,10.3h54.6c11-.1,10.8-11.5,10.3-19.6h44a9.2,9.2,0,0,0,9.2-9.3v-93.4c13.2-1,40.6,5.7,41-15.2C1445.5,1329.2,1445.7,1275.8,1445.5,1274.2Z" fill="#828236"/>
  </g>
  <g>
    <g>
      <g>
        <polygon points="1741.1 1145.5 1728.3 1137.1 1728.3 1143.7 1738.1 1150.1 1738.4 1150.4 1769.3 1199.1 1769.3 1188.9 1759.1 1172.8 1760.5 1171.7 1769.2 1180.7 1769.2 1179 1775.9 1179 1742.2 1146.3 1741.1 1145.5 1741.1 1145.5" fill="#afb0af"/>
        <path d="M1808.9,1156.9l-99.9-142v9.6l7.1,10.1v1l-22.4,33.9-1.2.2-20.3-13.4v6.5l.4.3,16.9,11.2.3,1.2-15.9,24.1-1.5.6-15.8-11v-6.3h-5.5v9.8h0l40.3,26.5h9.9l-22.8-15v-1.6l15.9-24,1.3-.3,95.6,63.2h.1l12.2,17.3V1179h5.5v-22.1Zm-30-30.2-80.3-53-.3-1.2.3-.5,1.5-2.2,19-28.8h1.5l55.1,78.3,4.3,6v.2l-1.2,1.2Z" fill="#afb0af"/>
        <path d="M1719.4,868.4V846l1.3-.8,53.7,26.5,1-2.6.4-2.8-56.4-28.4V794.5l17.9-52.1h-5.8l-17.5,50.9-.2,63.2-1.6.4-23.2-38.4V742.4h-5.4V820l36.1,59.3h0v124.8h9.9l69.5-34.7,1.4.6,9.6,27.7,1.5-1.9.2-.3,1.3-2.2h1.8l-9-26h0V967l3.9-57.9h0c-2.4-2.9-4.6-4-4.7-3.9l-14.6,11.5h-2.1l-10.4-28.1h-51.3l-1-.8v-8.5m71.9,84.6-70.4,35.2-1.5-.8V895l1-.9h46.8l1,.6,23.6,68.2-.5,1Zm4-24.1v.6l-.5,7v.5h-1.9l-8.2-23.7.3-.9,1.1-.9h.1l2.4-1.8h.1l6.6-5.3,1.6.8-1.6,23.9Z" fill="#afb0af"/>
      </g>
      <g>
        <polygon points="1709 1011.9 1787.3 1122.8 1785.4 1124.7 1700.3 1068.9 1695.7 1065.8 1695.7 1065.8 1695.3 1063.9 1713.9 1036.1 1713.5 1034.2 1713.5 1034.2 1711.7 1034.6 1693 1062.5 1691.2 1062.9 1672.2 1050.7 1672.2 1054 1689.6 1065.1 1690 1067 1690 1067 1686.9 1071.6 1672.6 1093 1670.8 1093.3 1660.7 1086.7 1660.1 1085.6 1660.1 1082 1658.7 1080.7 1658.7 1080.7 1657.4 1082 1657.4 1087.8 1657.4 1087.8 1674 1098.7 1678.6 1101.7 1704 1118.3 1708.9 1118.3 1680.1 1099.4 1675.5 1096.4 1674.1 1095.5 1674.1 1095.5 1689.2 1073.1 1692.2 1068.5 1692.3 1068.4 1694.1 1068.1 1694.2 1068.1 1698.8 1071.1 1795.6 1134.7 1810.3 1155.8 1810.6 1156.6 1810.6 1179 1813.3 1179 1813.3 1155.3 1813.3 1155.3 1709 1005.9 1709 1011.9" fill="#e8dfb8"/>
        <path d="M1810.9,966v-.5l3.2-48.6a16.6,16.6,0,0,0-2.7-5.9l-2.7,43.6H1807v-.3l-.2-.7-3.2-9.4h0l-1.6-4.8-.2-.6-6.6-19.3h0l-.9-2.7-1-3h0l-9.6-28.2-.8-2.4h-50.1l-1.5-1.3v-3.5h.1l-6.9-11.2-.2-.7V840.7l.2-.8,1.7-.4,49.6,24.3v-2.9l-50.9-25-.7-1.2V793.9l17.4-51.5h-2.8l-17.4,51.3h0v63.9l-1.9,1.3-.6-.5-4.9-8L1694,817.6l-.2-.7V742.4h-2.7v75.7h0l23,37.5,5.5,8.9,1.9,3.1h0l6.6,10.8h.2V994.2l2.2,1.2,64.6-32.8.5-1.8h0l-2-.6-60.1,30.5-2.2-1.1V887.3l1.5-1.4h46.9l1.4,1,9.7,28.8h.1l1,3.1.9,2.5h0l8.5,25v.5l1.8,5.1h0l3.1,9.2.2.6,10.3,30.5h.5l2.5-.3-8.8-26.1Z" fill="#e8dfb8"/>
      </g>
      <g>
        <g>
          <line x1="1775.4" y1="869.1" x2="1772.3" y2="867.5" fill="none" stroke="#fff" stroke-linecap="round" stroke-miterlimit="10"/>
          <line x1="1766.4" y1="864.6" x2="1722.6" y2="843" fill="none" stroke="#fff" stroke-linecap="round" stroke-miterlimit="10" stroke-dasharray="6.52 6.52"/>
          <polyline points="1719.6 841.6 1716.5 840 1716.5 843.5" fill="none" stroke="#fff" stroke-linecap="round" stroke-miterlimit="10"/>
          <line x1="1716.5" y1="850.4" x2="1716.5" y2="860.8" fill="none" stroke="#fff" stroke-linecap="round" stroke-miterlimit="10" stroke-dasharray="6.92 6.92"/>
          <polyline points="1716.5 864.3 1716.5 867.8 1716.5 864.3" fill="none" stroke="#fff" stroke-linecap="round" stroke-miterlimit="10"/>
          <polyline points="1716.5 857.1 1716.5 793.1 1732.8 749" fill="none" stroke="#fff" stroke-linecap="round" stroke-miterlimit="10" stroke-dasharray="7.16 7.16"/>
          <line x1="1734" y1="745.7" x2="1735.2" y2="742.4" fill="none" stroke="#fff" stroke-linecap="round" stroke-miterlimit="10"/>
        </g>
        <g>
          <line x1="1805.9" y1="1156.7" x2="1803.9" y2="1153.9" fill="none" stroke="#fff" stroke-linecap="round" stroke-miterlimit="10"/>
          <line x1="1799.9" y1="1148.2" x2="1714.8" y2="1026.3" fill="none" stroke="#fff" stroke-linecap="round" stroke-miterlimit="10" stroke-dasharray="6.91 6.91"/>
          <line x1="1712.8" y1="1023.5" x2="1710.8" y2="1020.6" fill="none" stroke="#fff" stroke-linecap="round" stroke-miterlimit="10"/>
        </g>
        <g>
          <line x1="1806.3" y1="1178.5" x2="1806.2" y2="1175" fill="none" stroke="#fff" stroke-linecap="round" stroke-miterlimit="10"/>
          <line x1="1806.1" y1="1170.1" x2="1806" y2="1162.7" fill="none" stroke="#fff" stroke-linecap="round" stroke-miterlimit="10" stroke-dasharray="4.92 4.92"/>
          <line x1="1805.9" y1="1160.2" x2="1805.9" y2="1156.7" fill="none" stroke="#fff" stroke-linecap="round" stroke-miterlimit="10"/>
        </g>
        <g>
          <line x1="1672.7" y1="1060.1" x2="1675.6" y2="1062" fill="none" stroke="#fff" stroke-linecap="round" stroke-miterlimit="10"/>
          <line x1="1681.6" y1="1065.9" x2="1786.3" y2="1133.4" fill="none" stroke="#fff" stroke-linecap="round" stroke-miterlimit="10" stroke-dasharray="7.12 7.12"/>
          <line x1="1789.3" y1="1135.4" x2="1792.3" y2="1137.3" fill="none" stroke="#fff" stroke-linecap="round" stroke-miterlimit="10"/>
        </g>
        <g>
          <line x1="1674.9" y1="1103.4" x2="1676.8" y2="1100.5" fill="none" stroke="#fff" stroke-linecap="round" stroke-miterlimit="10"/>
          <line x1="1680.6" y1="1094.8" x2="1716.8" y2="1040.4" fill="none" stroke="#fff" stroke-linecap="round" stroke-miterlimit="10" stroke-dasharray="6.87 6.87"/>
          <line x1="1718.7" y1="1037.6" x2="1720.6" y2="1034.7" fill="none" stroke="#fff" stroke-linecap="round" stroke-miterlimit="10"/>
        </g>
        <g>
          <line x1="1653.8" y1="1089.8" x2="1656.7" y2="1091.7" fill="none" stroke="#fff" stroke-linecap="round" stroke-miterlimit="10"/>
          <line x1="1661.7" y1="1095.1" x2="1689" y2="1113.5" fill="none" stroke="#fff" stroke-linecap="round" stroke-miterlimit="10" stroke-dasharray="5.99 5.99"/>
          <line x1="1691.5" y1="1115.1" x2="1694.4" y2="1117.1" fill="none" stroke="#fff" stroke-linecap="round" stroke-miterlimit="10"/>
        </g>
        <g>
          <line x1="1741.9" y1="1150.1" x2="1743.8" y2="1153" fill="none" stroke="#fff" stroke-linecap="round" stroke-miterlimit="10"/>
          <line x1="1748.1" y1="1159.9" x2="1763.4" y2="1183.8" fill="none" stroke="#fff" stroke-linecap="round" stroke-miterlimit="10" stroke-dasharray="8.11 8.11"/>
          <line x1="1765.6" y1="1187.2" x2="1767.5" y2="1190.2" fill="none" stroke="#fff" stroke-linecap="round" stroke-miterlimit="10"/>
        </g>
        <g>
          <line x1="1771" y1="1178.3" x2="1768.4" y2="1175.9" fill="none" stroke="#fff" stroke-linecap="round" stroke-miterlimit="10"/>
          <line x1="1763.1" y1="1170.7" x2="1744.4" y2="1152.7" fill="none" stroke="#fff" stroke-linecap="round" stroke-miterlimit="10" stroke-dasharray="7.44 7.44"/>
          <line x1="1741.7" y1="1150.1" x2="1739.2" y2="1147.6" fill="none" stroke="#fff" stroke-linecap="round" stroke-miterlimit="10"/>
        </g>
        <g>
          <line x1="1722.9" y1="1001.3" x2="1722.9" y2="997.8" fill="none" stroke="#fff" stroke-linecap="round" stroke-miterlimit="10"/>
          <polyline points="1722.9 990.7 1722.9 878.4 1686.2 818.2 1686.2 750.1" fill="none" stroke="#fff" stroke-linecap="round" stroke-miterlimit="10" stroke-dasharray="7.07 7.07"/>
          <line x1="1686.2" y1="746.5" x2="1686.2" y2="743" fill="none" stroke="#fff" stroke-linecap="round" stroke-miterlimit="10"/>
        </g>
        <g>
          <line x1="1729" y1="1001.3" x2="1732.2" y2="999.7" fill="none" stroke="#fff" stroke-linecap="round" stroke-miterlimit="10"/>
          <line x1="1738.3" y1="996.7" x2="1796.5" y2="968" fill="none" stroke="#fff" stroke-linecap="round" stroke-miterlimit="10" stroke-dasharray="6.83 6.83"/>
          <line x1="1799.6" y1="966.5" x2="1802.7" y2="964.9" fill="none" stroke="#fff" stroke-linecap="round" stroke-miterlimit="10"/>
        </g>
        <g>
          <line x1="1788" y1="921.6" x2="1790.9" y2="919.5" fill="none" stroke="#fff" stroke-linecap="round" stroke-miterlimit="10"/>
          <line x1="1795.6" y1="916.2" x2="1802.6" y2="911.2" fill="none" stroke="#fff" stroke-linecap="round" stroke-miterlimit="10" stroke-dasharray="5.73 5.73"/>
          <polyline points="1804.9 909.6 1807.7 907.5 1807.4 911" fill="none" stroke="#fff" stroke-linecap="round" stroke-miterlimit="10"/>
          <line x1="1806.7" y1="917.9" x2="1802.8" y2="956.1" fill="none" stroke="#fff" stroke-linecap="round" stroke-miterlimit="10" stroke-dasharray="6.98 6.98"/>
          <line x1="1802.4" y1="959.6" x2="1802" y2="963.1" fill="none" stroke="#fff" stroke-linecap="round" stroke-miterlimit="10"/>
        </g>
        <g>
          <line x1="1722.9" y1="891.9" x2="1726.4" y2="891.9" fill="none" stroke="#fff" stroke-linecap="round" stroke-miterlimit="10"/>
          <line x1="1733.1" y1="891.9" x2="1769.5" y2="891.9" fill="none" stroke="#fff" stroke-linecap="round" stroke-miterlimit="10" stroke-dasharray="6.62 6.62"/>
          <polyline points="1772.8 891.9 1776.3 891.9 1777.4 895.2" fill="none" stroke="#fff" stroke-linecap="round" stroke-miterlimit="10"/>
          <line x1="1779.6" y1="901.4" x2="1809" y2="984.9" fill="none" stroke="#fff" stroke-linecap="round" stroke-miterlimit="10" stroke-dasharray="6.56 6.56"/>
          <line x1="1810.1" y1="988" x2="1811.3" y2="991.3" fill="none" stroke="#fff" stroke-linecap="round" stroke-miterlimit="10"/>
        </g>
        <g>
          <line x1="1728.3" y1="1141" x2="1731.3" y2="1142.8" fill="none" stroke="#fff" stroke-linecap="round" stroke-miterlimit="10"/>
          <line x1="1736.2" y1="1145.8" x2="1739.2" y2="1147.6" fill="none" stroke="#fff" stroke-linecap="round" stroke-miterlimit="10"/>
        </g>
      </g>
    </g>
    <g>
      <path d="M1649.8,794.3v7.8a3,3,0,0,0,2.7,3.2h10.1a3,3,0,0,1,2.8,3.1,3.6,3.6,0,0,1-.8,2.3,2.9,2.9,0,0,1-2,.9H1647a3,3,0,0,1-2.7-3.2V794.3" fill="#628ac7"/>
      <path d="M1694.8,845v34.3h-5.5V850.8a2.8,2.8,0,0,0-2.8-2.9h-23.9a2.8,2.8,0,0,1-2.7-2.9V816.1a2.8,2.8,0,0,1,2.7-2.9h0a2.9,2.9,0,0,1,2.8,2.9v23.1a2.8,2.8,0,0,0,2.7,2.9H1692A2.9,2.9,0,0,1,1694.8,845Z" fill="#628ac7"/>
      <path d="M1772.7,1137.8v20.3a2.9,2.9,0,0,1-2.9,2.8h-15.6a2.8,2.8,0,0,1-2.8-2.8v-28.2a2.8,2.8,0,0,0-2.9-2.7h-8.8a2.8,2.8,0,0,1-2.9-2.8v-5.2a2.7,2.7,0,0,0-2.8-2.7h-19.5a2.8,2.8,0,0,1-2.8-2.8v-10.5a2.8,2.8,0,0,0-2.8-2.7h-15.5a2.8,2.8,0,0,1-2.8-2.7v-8.6a2.9,2.9,0,0,0-2.8-2.8h-55.4v-5.5h61a2.8,2.8,0,0,1,2.8,2.8v8.6a2.8,2.8,0,0,0,2.9,2.7h15.4a2.7,2.7,0,0,1,2.8,2.7v10.5a2.8,2.8,0,0,0,2.9,2.8h19.5a2.8,2.8,0,0,1,2.8,2.7v5.3a2.7,2.7,0,0,0,2.8,2.7h8.9a2.8,2.8,0,0,1,2.8,2.7v7.9a2.9,2.9,0,0,0,2.8,2.8h10A2.8,2.8,0,0,1,1772.7,1137.8Z" fill="#628ac7"/>
      <rect x="1693.1" y="979.4" width="16.2" height="16.21" rx="5.5" fill="#628ac7"/>
      <rect x="1706.5" y="768.5" width="11.1" height="9.99" rx="5" fill="#628ac7"/>
    </g>
  </g>
</svg>
