<svg xmlns="http://www.w3.org/2000/svg" viewBox="0 0 6.21 8.2">
    <path d="M2.12,5.11a.35.35,0,0,1-.69,0A.35.35,0,0,1,2.12,5.11Z" fill="#1a1a1a"/>
    <path d="M4.74,5.11a.35.35,0,0,1-.7,0A.35.35,0,0,1,4.74,5.11Z" fill="#1a1a1a"/>
    <g fill="#7d6048">
      <path d="M3.5,5c0,.1-.16.1-.15,0S3.5,4.91,3.5,5Z"/>
      <path d="M.87,4.47a.08.08,0,0,1-.15,0A.08.08,0,1,1,.87,4.47Z"/>
      <path d="M1.09,4.3c-.09-.06,0-.19.08-.13S1.17,4.35,1.09,4.3Z"/>
      <path d="M1.61,4.47c0,.1-.16.1-.15,0S1.61,4.37,1.61,4.47Z"/>
      <path d="M2.31,4.47a.08.08,0,1,1-.15,0A.08.08,0,0,1,2.31,4.47Z"/>
      <path d="M2.68,4.23a.08.08,0,0,1-.15,0A.08.08,0,0,1,2.68,4.23Z"/>
      <path d="M3.08,4.47a.07.07,0,1,1-.15,0A.07.07,0,0,1,3.08,4.47Z"/>
      <path d="M3.57,4.5a.08.08,0,0,1-.15,0A.08.08,0,0,1,3.57,4.5Z"/>
      <path d="M3.79,4.33c-.09-.06,0-.19.08-.13S3.87,4.39,3.79,4.33Z"/>
      <path d="M4.31,4.5c0,.1-.16.1-.15,0S4.31,4.4,4.31,4.5Z"/>
      <path d="M4.61,4.13a.08.08,0,1,1-.15,0A.08.08,0,1,1,4.61,4.13Z"/>
      <path d="M5,4.5a.08.08,0,0,1-.15,0A.08.08,0,1,1,5,4.5Z"/>
      <path d="M5.78,4.5a.07.07,0,1,1-.15,0A.07.07,0,1,1,5.78,4.5Z"/>
      <path d="M.87,5.48a.07.07,0,1,1-.15,0A.07.07,0,0,1,.87,5.48Z"/>
      <path d="M1.09,5.31c-.09-.06,0-.19.08-.13S1.17,5.37,1.09,5.31Z"/>
      <path d="M2.69,4.77a.08.08,0,0,1-.16,0A.08.08,0,0,1,2.69,4.77Z"/>
      <path d="M2.31,5.48a.08.08,0,1,1-.15,0A.08.08,0,0,1,2.31,5.48Z"/>
      <path d="M2.68,5.24a.08.08,0,0,1-.15,0A.08.08,0,0,1,2.68,5.24Z"/>
      <path d="M3.08,5.48a.07.07,0,1,1-.15,0A.07.07,0,0,1,3.08,5.48Z"/>
      <path d="M3.84,5.51c0,.1-.16.1-.15,0S3.84,5.41,3.84,5.51Z"/>
      <path d="M4.75,6a.08.08,0,0,1-.16,0A.08.08,0,0,1,4.75,6Z"/>
      <path d="M5.28,5.51a.08.08,0,0,1-.15,0A.08.08,0,0,1,5.28,5.51Z"/>
      <path d="M2.05,6.32a.07.07,0,0,1-.15,0A.07.07,0,0,1,2.05,6.32Z"/>
      <path d="M2.27,6.15c-.08-.05,0-.18.09-.13S2.35,6.21,2.27,6.15Z"/>
      <path d="M3.09,6a.08.08,0,0,1-.15,0A.08.08,0,0,1,3.09,6Z"/>
      <path d="M3.86,6.09a.07.07,0,1,1-.15,0A.07.07,0,0,1,3.86,6.09Z"/>
      <path d="M4.26,6.32c0,.1-.15.1-.15,0S4.27,6.22,4.26,6.32Z"/>
    </g>
    <g>
      <path d="M.13,4.53H.24v0L1.91,3.38V.79c0-1-1.9-1-1.89,0V4.58Z" fill="#d489ab"/>
      <path d="M.38,6H.31A.94.94,0,0,1,0,6V7.71a.47.47,0,0,0,.33.45l.18-.61.17.64c.39,0,1.23.14,1.21-.48V7.28A2,2,0,0,1,.38,6Z" fill="#d489ab"/>
    </g>
    <g>
      <path d="M5.94,4.46v.06H6a.75.75,0,0,1,.2.1c0-1.83-.06-3.08,0-3.84,0-1-1.9-1-1.89,0v2Z" fill="#d489ab"/>
      <path d="M5.84,6h0A2.08,2.08,0,0,1,4.27,7.28v.43c0,.61.8.46,1.19.48l.15-.54.14.53c.33.11.44-.93.46-2.26A.76.76,0,0,1,5.84,6Z" fill="#d489ab"/>
    </g>
    <g>
      <path d="M.38,6H.31A.68.68,0,0,1,0,6V7.71a.48.48,0,0,0,.33.46l.18-.62.16.64h.75a.47.47,0,0,0,.47-.48V7.28A2,2,0,0,1,.38,6Z" fill="#d489ab"/>
      <path d="M.13,4.53H.24v0L1.89,3.4V.77A.77.77,0,0,0,1.13,0H.77A.77.77,0,0,0,0,.77V4.59Z" fill="#d489ab"/>
    </g>
    <g>
      <path d="M5.94,4.46v.06H6a1,1,0,0,1,.15.07V.77A.78.78,0,0,0,5.39,0H5a.78.78,0,0,0-.77.77v2Z" fill="#d489ab"/>
      <path d="M5.84,6h0A2.07,2.07,0,0,1,4.26,7.28v.43a.48.48,0,0,0,.48.48h.71l.15-.54.14.54a.48.48,0,0,0,.42-.48V6A.69.69,0,0,1,5.84,6Z" fill="#d489ab"/>
    </g>
    <path d="M4.81.85c.32.36.86-.09.51-.41S4.45.53,4.81.85Z" fill="#94b5dd"/>
    <path d="M1.34.87C1,1.23.48.78.83.46S1.69.55,1.34.87Z" fill="#94b5dd"/>
    <path d="M5.94,2.4A2.07,2.07,0,0,0,5.05.71a2,2,0,0,0-1-.36H2.3a2.08,2.08,0,0,0-1.78,1,2.09,2.09,0,0,0-.28,1V4.47l.64-.42a.41.41,0,0,0,.34.25h0c.25,0,.47-.27.49-.63,0,0,0-.11,0-.16l.2-.13h0a.31.31,0,0,0,.25.15h0a.3.3,0,0,0,.24-.13.5.5,0,0,0,.11-.32.31.31,0,0,0,0-.1l.18-.11a.32.32,0,0,0,.18.1h0a.33.33,0,0,0,.24-.13.52.52,0,0,0,.11-.33h0l.23-.15a.41.41,0,0,0,0,.16c0,.26.13.48.32.49h0A.33.33,0,0,0,4,2.89a.73.73,0,0,0,.09-.22v0l.14.14a.8.8,0,0,0-.11.35.91.91,0,0,0,.12.47.42.42,0,0,0,.33.21h0A.41.41,0,0,0,5,3.64a.47.47,0,0,0,0-.1l.16.15a.49.49,0,0,0,0,.45.32.32,0,0,0,.24.16h0a.3.3,0,0,0,.21-.1l.26.26ZM5.6,4.13H5.53A.24.24,0,0,1,5.35,4a.52.52,0,0,1-.07-.22ZM4.35,2.87l.58.58a.29.29,0,0,1-.19.08h0a.39.39,0,0,1-.28-.18.76.76,0,0,1-.1-.43S4.35,2.89,4.35,2.87Zm-.3-.2a.25.25,0,0,1-.2.1.25.25,0,0,1-.19-.12.58.58,0,0,1-.07-.3s0,0,0-.06l.1-.06.37.36s0,0,0,.06ZM2.36,3.1a.29.29,0,0,1-.24.19h0Zm-.81.52c-.06.25-.21.43-.4.43h0A.27.27,0,0,1,1,4Zm.11,0c0,.32-.2.57-.42.57h0a.38.38,0,0,1-.29-.19.44.44,0,0,0,.19.07h0c.23,0,.43-.24.47-.55l0,0A.25.25,0,0,1,1.66,3.67Zm.81-.59a.53.53,0,0,1-.1.29.27.27,0,0,1-.2.11A.27.27,0,0,1,2,3.35H2l0,0a.17.17,0,0,0,.1,0h0A.38.38,0,0,0,2.45,3h0S2.47,3.06,2.47,3.08Zm.62-.28a.24.24,0,0,1-.2.11.21.21,0,0,1-.14-.07l.08,0h0a.33.33,0,0,0,.27-.18l.07,0A.43.43,0,0,1,3.09,2.8ZM3.78,3c-.16,0-.27-.19-.26-.42,0,0,0-.06,0-.09a.46.46,0,0,0,.08.24.3.3,0,0,0,.24.16h0a.3.3,0,0,0,.15,0l0,.06A.26.26,0,0,1,3.78,3Zm.85.8h0a.37.37,0,0,1-.28-.18.76.76,0,0,1-.1-.43.78.78,0,0,1,0-.22.79.79,0,0,0,.12.46.4.4,0,0,0,.33.21h0A.34.34,0,0,0,5,3.51a.36.36,0,0,1,0,.09A.36.36,0,0,1,4.63,3.75Zm.83.48a.22.22,0,0,1-.18-.12.5.5,0,0,1-.08-.3s0,0,0,0a.58.58,0,0,0,.08.28.32.32,0,0,0,.24.16h0A.24.24,0,0,1,5.46,4.23Z" fill="#f29dbb"/>
</svg>
