<svg xmlns="http://www.w3.org/2000/svg" viewBox="0 0 139.7 86.6">
  <g>
    <rect x="49.8" y="10.3" width="23" height="9.34" fill="#a0a09f"/>
    <rect x="43.8" y="71.4" width="23" height="9.34" fill="#a0a09f"/>
    <ellipse cx="72.9" cy="14.9" rx="4" ry="4.7" fill="#aeadad"/>
    <ellipse cx="73" cy="15.1" rx="3" ry="3.4" fill="#fff"/>
    <ellipse cx="66.9" cy="76" rx="4" ry="4.7" fill="#aeadad"/>
    <ellipse cx="67" cy="76.2" rx="3" ry="3.4" fill="#fff"/>
    <path d="M22.1,0l28,35.2,43.9.3L48.3,2.6a13.9,13.9,0,0,0-8-2.6Z" fill="#aeadad"/>
    <path d="M139.7,51.4a9,9,0,0,1-9,8.7H34.3a11.3,11.3,0,0,1-2.6,0,15.6,15.6,0,0,1-12.3-8.5l-.2-.2L0,14H11.3a5.6,5.6,0,0,1,1.4.8c4.9,3.5,21.2,17,21.8,17.6h85.3a9.6,9.6,0,0,1,6.3,2.4l3.5,3.2,7.2,6.5a6.5,6.5,0,0,1,1.3,1.6A8.1,8.1,0,0,1,139.7,51.4Z" fill="#fff"/>
    <path d="M139.7,51.4c-.2,4.9-3.7,9.6-9,9.6H34.3a11.3,11.3,0,0,1-2.6,0,15.5,15.5,0,0,1-12.4-9.4v-.2Z" fill="#a0a09f"/>
    <path d="M21,86.6,49.1,51.4h44L47.2,84a13.4,13.4,0,0,1-8,2.6Z" fill="#aeadad"/>
    <path d="M138.1,46.1H120.5a3.7,3.7,0,0,1-3.7-3.7v-.7a3.7,3.7,0,0,1,3.7-3.7h9.1l7.2,6.5A6.5,6.5,0,0,1,138.1,46.1Z" fill="#a0a09f"/>
    <rect x="35.2" y="39.9" width="7.9" height="7.91" rx="2.7" fill="#a0a09f"/>
    <rect x="49" y="39.9" width="7.9" height="7.91" rx="2.7" fill="#a0a09f"/>
    <rect x="63" y="39.9" width="7.9" height="7.91" rx="2.7" fill="#a0a09f"/>
    <rect x="76.8" y="39.9" width="7.9" height="7.91" rx="2.7" fill="#a0a09f"/>
    <rect x="90.5" y="39.9" width="7.9" height="7.91" rx="2.7" fill="#a0a09f"/>
    <rect x="104.3" y="39.9" width="7.9" height="7.91" rx="2.7" fill="#a0a09f"/>
    <path d="M19.7,52.3,32,39.5l-16-.4-4.8,5a5.9,5.9,0,0,0,4.3,10A5.9,5.9,0,0,0,19.7,52.3Z" fill="#aeadad"/>
  </g>
</svg>
