<svg xmlns="http://www.w3.org/2000/svg" viewBox="0 0 4.53 6.045">
  <path d="M.158,3.331V3.294L2.715,1.642,4.362,3.288v.044a.532.532,0,0,1,.168.053V.58A.563.563,0,0,0,3.966.016a.708.708,0,0,0-.752.3A6.784,6.784,0,0,0,1.31.3C1.057-.175-.015-.09,0,.58v2.8A.52.52,0,0,1,.158,3.331Z" fill="#1b1b1b"/>
  <path d="M4.259,4.444a1.518,1.518,0,0,1-1.122.937v.306c-.009.449.586.344.871.352l.114-.4.1.4a.353.353,0,0,0,.306-.35V4.382A.554.554,0,0,1,4.259,4.444Z" fill="#1b1b1b"/>
  <path d="M.261,4.444A.545.545,0,0,1,0,4.4V5.687a.353.353,0,0,0,.243.335l.13-.455L.5,6.039c.289-.013.907.107.9-.352V5.38A1.518,1.518,0,0,1,.261,4.444Z" fill="#1b1b1b"/>
  <path d="M1.548,3.765a.255.255,0,0,1-.51,0A.255.255,0,0,1,1.548,3.765Z" fill="#1a1a1a"/>
  <path d="M3.476,3.765a.255.255,0,0,1-.51,0A.255.255,0,0,1,3.476,3.765Z" fill="#1a1a1a"/>
  <path d="M3.531.625c.224.266.639-.068.373-.3C3.68.057,3.265.391,3.531.625Z" fill="#158c99"/>
  <path d="M.971.639C.747.905.331.572.6.338.821.072,1.237.406.971.639Z" fill="#158c99"/>
</svg>
