<svg xmlns="http://www.w3.org/2000/svg" viewBox="0 0 16.5 64.38">
    <rect x="5.41" y="58.36" width="4.91" height="4.91" rx="0.8" class="fst-color"/>
    <rect x="2.53" y="59.47" width="4.91" height="4.91" rx="0.8" class="fst-color"/>
    <path d="M6.51,35.24V61.17H9.78a.9.9,0,0,0,.9-.9v-25Z" class="scd-color"/>
    <path d="M.1,35.24,2,44V61.28a.94.94,0,0,0,.94.93h4.1A.94.94,0,0,0,8,61.28v-26Z" class="trd-color"/>
    <path d="M16.5,28.21a9.36,9.36,0,0,0-3.12-7.08,4.82,4.82,0,0,0,.33-1.49c.09-1.31-1.2-2.87-2.41-4v-.07a1.91,1.91,0,0,0-1.91-1.91H1.92A1.91,1.91,0,0,0,0,15.54V36a.9.9,0,0,0,.9.9H6.32a7.21,7.21,0,0,0,4.15,0,.89.89,0,0,0,.36-.11A9,9,0,0,0,16.5,28.21Z" class="fst-color"/>
    <path d="M6.05,38.31H6a.24.24,0,0,1-.22-.2l0-.13v.84a.87.87,0,0,1-.87.87H4.62a.86.86,0,0,1-.86-.87V36.76c0-.48,2-.64,2.07-.49L6.2,38A.3.3,0,0,1,6.05,38.31Z" />
    <rect x="3.52" y="15.71" width="2.57" height="21.34" rx="0.96" class="scd-color"/>
    <path d="M1.65,3.62V9.25a3.62,3.62,0,0,0,3.62,3.62h.79v1a.76.76,0,0,0,.75.75h.35a.76.76,0,0,0,.75-.75v-1h.55a3.62,3.62,0,0,0,3.62-3.62V3.62A3.62,3.62,0,0,0,8.46,0H5.27A3.62,3.62,0,0,0,1.65,3.62Z" />
</svg>
