<svg xmlns="http://www.w3.org/2000/svg" viewBox="0 0 125.3 361.5">
    <path class="trd-color" d="M81.4,319.6H48.9a.9.9,0,0,0-.9.8v6.9H18.5a.8.8,0,0,0-.8.9v32.5a.8.8,0,0,0,.8.8H51a.8.8,0,0,0,.8-.8v-6.9H81.4a.9.9,0,0,0,.8-.9V320.4A.9.9,0,0,0,81.4,319.6Z"/>
    <path class="scd-color" d="M55.7,158.6V339.2H78.5a6.3,6.3,0,0,0,6.2-6.3V158.6Z"/>
    <path class="fst-color" d="M0,130v26.2l.6,2.4,13.5,61.2V339.9a6.5,6.5,0,0,0,6.5,6.5H49.2a6.5,6.5,0,0,0,6.5-6.5V158.6H86.2V130Z" />
    <path class="trd-color" d="M125.3,109.6a62.8,62.8,0,0,0-22.3-48c7.8-14.1-1.4-28.4-13.9-39.8V10.2A2.2,2.2,0,0,0,87,8H2.2A2.2,2.2,0,0,0,0,10.2v95.7c.1,2.4-.1,59.1,0,63.3a1,1,0,0,0,1,1H46.5a62.8,62.8,0,0,0,32.2,0h9.4c1.6.1.8-2.9,1-3.8A62.6,62.6,0,0,0,125.3,109.6Z" />
    <rect class="scd-color" x="29.5" y="22.5" width="17.9" height="148.63" rx="1" />
    <path class="scd-color" d="M61.7,6.5A35.9,35.9,0,0,0,61.8,0a4.2,4.2,0,0,1-4.2,4.2H43.1A4.2,4.2,0,0,1,38.9,0c.1,3.4-1.1,10.5,4.2,10.4h6.6V30.3a.5.5,0,0,0,.5.5c.2-.3,12,.5,11.5-.5Z"/>
</svg>
