<svg xmlns="http://www.w3.org/2000/svg" viewBox="0 0 10.74 9.52">
  <g>
    <path d="M.73,0,.87,2.9a1,1,0,0,0,.82.52,1.12,1.12,0,0,0,.91-.65,1.13,1.13,0,0,0,.87.5,1.08,1.08,0,0,0,.8-.42,1.28,1.28,0,0,0,1,.82,1.18,1.18,0,0,0,1-.67,1.11,1.11,0,0,0,.86.51A1.11,1.11,0,0,0,8,3a1.1,1.1,0,0,0,.91.69c.39,0,.73-.31.95-.8h0L9.76.37" fill="#de9652"/>
    <path d="M8,7.25a.55.55,0,1,1-1.1,0,.55.55,0,1,1,1.1,0Z" fill="#1a1a1a"/>
    <circle cx="3.3" cy="7.25" r="0.55" fill="#1a1a1a"/>
    <g>
      <circle cx="5.65" cy="7.26" r="0.12" fill="#ead5c5"/>
      <circle cx="1.56" cy="6.42" r="0.12" fill="#ead5c5"/>
      <circle cx="3.18" cy="5.85" r="0.12" fill="#ead5c5"/>
      <circle cx="4.38" cy="6.06" r="0.12" fill="#ead5c5"/>
      <circle cx="5" cy="6.42" r="0.12" fill="#ead5c5"/>
      <circle cx="6.91" cy="6.48" r="0.12" fill="#ead5c5"/>
      <circle cx="7.38" cy="5.9" r="0.12" fill="#ead5c5"/>
      <circle cx="8.01" cy="6.48" r="0.12" fill="#ead5c5"/>
      <circle cx="8.58" cy="6.11" r="0.12" fill="#ead5c5"/>
      <circle cx="9.21" cy="6.48" r="0.12" fill="#ead5c5"/>
      <circle cx="1.56" cy="8" r="0.12" fill="#ead5c5"/>
      <circle cx="2.08" cy="7.63" r="0.12" fill="#ead5c5"/>
      <circle cx="4.39" cy="6.9" r="0.12" fill="#ead5c5"/>
      <circle cx="3.8" cy="8" r="0.12" fill="#ead5c5"/>
      <circle cx="5" cy="8" r="0.12" fill="#ead5c5"/>
      <circle cx="6.18" cy="8.05" r="0.12" fill="#ead5c5"/>
      <circle cx="7.6" cy="8.73" r="0.12" fill="#ead5c5"/>
      <circle cx="8.43" cy="8.05" r="0.12" fill="#ead5c5"/>
      <circle cx="3.4" cy="9.31" r="0.12" fill="#ead5c5"/>
      <circle cx="3.92" cy="8.95" r="0.12" fill="#ead5c5"/>
      <circle cx="6.22" cy="8.95" r="0.12" fill="#ead5c5"/>
      <circle cx="6.84" cy="9.31" r="0.12" fill="#ead5c5"/>
      <circle cx="3.66" cy="5.42" r="0.12" fill="#ead5c5"/>
      <circle cx="4.19" cy="5.06" r="0.12" fill="#ead5c5"/>
      <circle cx="5.91" cy="5.42" r="0.12" fill="#ead5c5"/>
      <circle cx="6.48" cy="5.06" r="0.12" fill="#ead5c5"/>
      <circle cx="7.1" cy="5.42" r="0.12" fill="#ead5c5"/>
    </g>
    <path d="M9.83,8.6c0,.05,0,.09,0,.14,0,.39.19.72.43.72s.44-.33.44-.72a1.13,1.13,0,0,0-.11-.48.39.39,0,0,1-.1.08" fill="none" stroke="#e7e6e6" stroke-miterlimit="10" stroke-width="0.11"/>
    <path d="M.16,8.27a1.12,1.12,0,0,0-.11.47c0,.4.2.72.44.72s.44-.32.44-.72c0-.05,0-.09,0-.14" fill="none" stroke="#e7e6e6" stroke-miterlimit="10" stroke-width="0.11"/>
  </g>
</svg>
