<svg xmlns="http://www.w3.org/2000/svg" viewBox="0 0 23.7 59.1">
    <path d="M22.2,15.2c.9,0,.8-1.2,0-1.3a1.9,1.9,0,0,0-1.1-3.2,1.9,1.9,0,0,0-.8-3.1,1.9,1.9,0,0,0-1.6-3.2,2.4,2.4,0,0,0-2.2-2.6A1.8,1.8,0,0,0,14.1,1,2,2,0,0,0,10.7.9a1.6,1.6,0,0,0-2.1.7A2.5,2.5,0,0,0,5.3,4,1.9,1.9,0,0,0,3.7,7.2,2,2,0,0,0,3,10.4a1.8,1.8,0,0,0-1.2,3.1.9.9,0,0,0,.1,1.7" fill="#de9652"/>
    <path d="M21.6,40.1c.1,0,.2-.2.2-.3v.7c0,1,1.7,1,1.7,0V38.8c0-.7-1.7-.6-1.7-.4S21.3,40,21.6,40.1Z" fill="#feefe1"/>
    <path d="M20.4,38V18.5c0-.8,3.3-.8,3.3,0V38C23.7,38.8,20.4,38.8,20.4,38Z" fill="#a43737"/>
    <rect x="6.1" y="55.7" width="4.8" height="3.43" rx="0.7" fill="#a43737"/>
    <rect x="12.9" y="55.7" width="4.8" height="3.43" rx="0.7" fill="#a43737"/>
    <path d="M22.1,35.7,18.3,47v9.4c0,.3-.4.6-.9.6H13.1c-.4,0-.8-.3-.8-.6V42.5a.5.5,0,0,0-.5-.4.4.4,0,0,0-.4.4V56.4c0,.3-.4.6-.9.6H6.2c-.4,0-.8-.3-.8-.6V47L2.2,35.7Z" fill="#b1423e"/>
    <path d="M2.2,40.1c-.1,0-.2-.2-.2-.3v.7c0,1-1.7,1-1.7,0S.2,38,1,38l1.1.3C2,38.5,2.6,40,2.2,40.1Z" fill="#feefe1"/>
    <path d="M0,38V18.5c0-.8,3.3-.8,3.3,0V38C3.3,38.8,0,38.8,0,38Z" fill="#a43737"/>
    <path d="M23.7,20.7H21.4a4.2,4.2,0,0,1,1.4,2.6,3.7,3.7,0,0,1-1.6,2.8h-.1c1.4,4.2,2.6,9.8.5,12.6h.2V39h0c0,.1-.1.3-.2.3H2.2a.3.3,0,0,1-.3-.3h0v-.2h.3c-2.2-2.8-.9-8.6.5-12.9H2.6A3.1,3.1,0,0,1,1,23.1a3.3,3.3,0,0,1,1.1-2.4H0V16.9a1.8,1.8,0,0,1,1.7-1.7H22a1.7,1.7,0,0,1,1.7,1.7Z" fill="#c25b5a"/>
    <path d="M17.6,11a1.2,1.2,0,0,1-1.3,1.1,3.3,3.3,0,0,1-3.5,2.1c0,.9.3,1.8-1,1.6s-.5-1.1-.5-1.6a3.4,3.4,0,0,1-3.5-2.1,1.2,1.2,0,0,1-.2-2.3c0-2.7-.6-6.5,3.2-6.6a11.8,11.8,0,0,1,4.1.5h0c2.2,1,1.6,4.2,1.7,6.1A1.3,1.3,0,0,1,17.6,11Z" fill="#feefe1"/>
</svg>
