<svg xmlns="http://www.w3.org/2000/svg" viewBox="0 0 1369.4 768.3">
  <g>
    <path d="M31.9,732.3H30.8l-1.9-6.5h0a.3.3,0,0,0-.1-.2H25.6a.4.4,0,0,0-.4.4h0a.4.4,0,0,0,.4.4h2.5l1.2,4H20.4v-2.6a1,1,0,0,0-.9-1H18.3l.6-3.7.4-2.2.5-2.9v-.9a1.7,1.7,0,0,0-1.2-2l-2.5-.4a1.5,1.5,0,0,0-1.7,1c0,.2-.1.3-.1.4l-1,5.9-.6,4.2a.4.4,0,0,0-.1.3h0a1.7,1.7,0,0,0,.4,1.2,2,2,0,0,0,1.1,1.1h-1a.5.5,0,0,0-.5.5c0,.3.2.4.4.5l-2,3.4a6.6,6.6,0,0,0-3.7-1,7.4,7.4,0,1,0,7.4,8.4h2.5a2,2,0,0,0,.6.7v.2a.5.5,0,0,0,.3.5H18a.4.4,0,0,0-.4.4h0c0,.2.2.3.4.3h2.1c.2,0,.4-.1.4-.3h0a.4.4,0,0,0-.4-.4h-.3a.5.5,0,0,0,.3-.5h0a1.6,1.6,0,0,0,.8-1.5,2.1,2.1,0,0,0-.5-1.3v-7.3h9.1l.4,1.2a7.3,7.3,0,1,0,2-.3Zm-15.7-2.4h.6a.5.5,0,0,0,.2-.9h.9v1.5H16.4Zm-4.4,3.9L14,730h1.3l2.5,8.8a1.8,1.8,0,0,0-.6,1.3H14.8v-.3A7.1,7.1,0,0,0,11.8,733.8Zm6.1,1.9-1.2-4.3h1.2Z"/>
    <path d="M26.6,725l-1.1-.6a2.3,2.3,0,0,1-1.1,1.1c.1.1,1.6,1.4,1.1.5C26.3,726.8,27.5,725.8,26.6,725Z" fill="#e0be9d"/>
    <path d="M17.4,714.9a.3.3,0,0,0,.3.3H18c.2,0,.3-.1.4-.3Z" fill="#b59679" opacity="0.7"/>
    <path d="M18.4,710.7a11,11,0,0,0,.7,3.4,2,2,0,0,0,1.6-1.9v-2.8a2.1,2.1,0,0,0-1.8-2.1c-.1.6-.3,1.3-.4,2.1A5.7,5.7,0,0,0,18.4,710.7Z" fill="#e0be9d"/>
    <path d="M19,711.8c0,.4.7.4.7,0A.4.4,0,1,0,19,711.8Z" fill="#1a1a1a"/>
    <path d="M18.5,709.4h2.2a2.1,2.1,0,0,0-1.8-2.1C18.8,707.9,18.6,708.6,18.5,709.4Z" fill="#23515c"/>
    <path d="M16.9,714.6v.5c0,.1,0,.1.1.2v1.5c0,.1.1.2.3.2h.4c.1,0,.3-.1.3-.2v-1.4h.4a.3.3,0,0,0,.3-.3v-.5C18.7,714.8,16.9,714.8,16.9,714.6Z" fill="#23515c"/>
    <path d="M15,709.4v2.8a2.1,2.1,0,0,0,1.9,2v.4a.3.3,0,0,0,.3.3h1.2a.3.3,0,0,0,.3-.3v-.4h.4a11,11,0,0,1-.7-3.4,5.7,5.7,0,0,1,.1-1.3c.1-.8.3-1.5.4-2.1H17.1A2.1,2.1,0,0,0,15,709.4Z" fill="#2f6171"/>
    <path d="M1363.2,755.8a6.5,6.5,0,0,0-3.1.8l-1.6-2.8c.1,0,.2-.2.2-.4a.4.4,0,0,0-.4-.4h-.4a1,1,0,0,0,.6-.9v-1.6h0v-.6h0v-.2l-.6-3.1-.7-4.4c0-.1-.1-.2-.1-.3a1.2,1.2,0,0,0-1.4-.8l-2,.3a1.3,1.3,0,0,0-1,1.5v.7l.4,2.1.3,1.7.5,3.2a1.6,1.6,0,0,0,.4.7h-1.3a.9.9,0,0,0-.8.8v2.2h-7.5l1-3.4h2.1a.3.3,0,0,0,.3-.3h0c0-.2-.1-.4-.3-.4h-2.8l-1.5,5.5h-1a6.3,6.3,0,1,0,6.2,6.2,6.1,6.1,0,0,0-4.5-5.9l.3-1h7.7v6.1a1.6,1.6,0,0,0-.5,1.1,1.6,1.6,0,0,0,.7,1.3h0a.5.5,0,0,0,.3.4h-.3a.3.3,0,0,0-.3.3h0a.5.5,0,0,0,.3.3h1.8a.3.3,0,0,0,.3-.3h0a.3.3,0,0,0-.3-.3h0a.8.8,0,0,0,.2-.4v-.3l.4-.5h2.1a6.2,6.2,0,1,0,6.2-7.1Zm-8.6-2.7h.5c-.1.1-.2.2-.2.3a.5.5,0,0,0,.4.5h.5l-.2.4h-1Zm.8,2-.8,3v-3Zm1.6,6.9v.3h-2a3,3,0,0,0-.4-1v-.5l1.9-6.9h1.2l1.8,3.2A6.1,6.1,0,0,0,1357,762Z"/>
    <path d="M1348.7,750c-.2-.2-.7-.5-.7-.8s-1.5.5-1.1,1.2.7.4,1.1.1.8-.3.9-.4Z" fill="#63472c"/>
    <path d="M1356.4,740.1a2.2,2.2,0,0,1-1.7.9h-.2v.5a.3.3,0,0,1-.3.3h-.3a.3.3,0,0,1-.3-.3V741h-.1a1.9,1.9,0,0,1-1.9-1.9v-2.4h0c.2-.1,1.9-1.3,2.2-1.2C1358.4,736.9,1356.3,740.1,1356.4,740.1Z" fill="#63472c"/>
    <path d="M1353.2,739.2a.3.3,0,0,1-.6,0A.3.3,0,0,1,1353.2,739.2Z" fill="#1a1a1a"/>
    <path d="M1354.8,738.7h.1a.6.6,0,0,1,.6.6v0a.5.5,0,0,1-.5.5h-.2a.1.1,0,0,1-.1-.1v-.8a.1.1,0,0,1,.1-.1Z" fill="#523722"/>
    <path d="M1359.5,736a3.9,3.9,0,0,1-3,3.9.2.2,0,0,1-.3,0,2.2,2.2,0,0,0,.3-.5,1.1,1.1,0,0,0-2-.8c0,.2,0,1-.3.5s-1.1-3.1-2.6-2.4C1350.7,731.1,1359.5,730.3,1359.5,736Z" fill="#aeadad"/>
    <path d="M1353.6,740.1c0,.1-.1.2-.1.1S1353.5,740.1,1353.6,740.1Z" fill="#52361e"/>
    <path d="M510.8,18.5a5.4,5.4,0,0,0-2.8.8l-1.4-2.6c.1,0,.2-.1.2-.3a.4.4,0,0,0-.4-.4h-.3a1.5,1.5,0,0,0,.9-1.4,1.6,1.6,0,0,0-.5-1.1v-.4h-.1l-.4-2.8-.6-3.8c0-.1-.1-.2-.1-.3a1,1,0,0,0-1.1-.7l-1.6.4a1,1,0,0,0-.8.9c-.1.1-.2.1-.2.2a1.7,1.7,0,0,0-.6,2.5,1.6,1.6,0,0,0,1.3.6l.2.9.4,2.8c0,.2.1.3.2.5v.3h-1.4a.7.7,0,0,0-.7.7v2h-6.7l.9-3.1h1.9l.3-.2h0a.5.5,0,0,0-.3-.3h-2.6l-1.3,4.9h-.9a5.6,5.6,0,1,0,5.6,5.6,5.5,5.5,0,0,0-4.1-5.3l.3-.9H501v5.5a1.8,1.8,0,0,0-.4,1,1.1,1.1,0,0,0,.6,1.1h0c0,.2.1.3.3.4h-.3c-.1,0-.2.1-.2.3h0c0,.2.1.3.2.3h1.6a.3.3,0,0,0,.3-.3h0a.3.3,0,0,0-.3-.3h0a.5.5,0,0,0,.2-.4v-.2c.2-.2.3-.3.3-.5h2a5.5,5.5,0,0,0,5.5,4.8,5.6,5.6,0,0,0,0-11.2ZM503,16.1h.6c-.1,0-.2.2-.2.3a.4.4,0,0,0,.4.4h.3v.4h-1Zm.8,1.8-.8,2.7V17.9Zm-.4,6.4a.9.9,0,0,0-.4-.8V23l1.8-6.2h1l1.7,2.9a5.4,5.4,0,0,0-2.3,4.4v.2Z"/>
    <path d="M497.2,12.6l-.9.4c-.7.6.3,1.4.9.8s.7-.3.8-.4S497.2,12.9,497.2,12.6Z" fill="#8b6f54"/>
    <path d="M505.1.7h-.5a.1.1,0,0,1-.1-.1h-2.7l-.4.2a1.6,1.6,0,0,0-.5,1.1V3.7a1.4,1.4,0,0,0,1.4,1.4h.3v.4a.3.3,0,0,0,.3.3h.1l.3-.2h.3V7.2a.2.2,0,0,0,.2.2l.2-.2V5.6l.2-.2h0V7.2l.2.2h0l.2-.2V4.8h0l.2-.2h0V7.2a.2.2,0,0,0,.4,0V.9C505.2.8,505.2.7,505.1.7Zm-1.5,4.9h-.3V5.1h.3v.5Zm.6-.3c0,.1-.1.1-.2.2V5.1h.2v.3Z" fill="#f0b225"/>
    <g>
      <path d="M846.4,674.8a6.1,6.1,0,0,0-3,.8l-1.6-2.7c.2,0,.3-.2.3-.4h0a.4.4,0,0,0-.4-.4h-.4a1,1,0,0,0,.6-.9v-1.4h-.1a1.1,1.1,0,0,0,.1-.5h0V669l-.5-3-.8-4.2a.4.4,0,0,0-.1-.3,1.2,1.2,0,0,0-1.3-.8l-1.9.4a1.2,1.2,0,0,0-1,1.4v.6l.4,2.1.3,1.6.5,3a1.6,1.6,0,0,0,.4.7h-1.3a.8.8,0,0,0-.7.8v2.1h-7.2l.9-3.3h2.1a.3.3,0,0,0,.3-.3h0a.3.3,0,0,0-.3-.3h-2.6a.3.3,0,0,0-.1.2h0l-1.5,5.2h-.9a6,6,0,0,0-6,6,6,6,0,0,0,12,0,6.1,6.1,0,0,0-4.4-5.8l.3-.9H836V680a1.4,1.4,0,0,0-.5,1,1.6,1.6,0,0,0,.7,1.3h0c0,.2.1.4.2.4h-.2a.3.3,0,0,0-.3.3h0a.3.3,0,0,0,.3.3h1.7a.5.5,0,0,0,.3-.3h0a.5.5,0,0,0-.3-.3h-.1c.2,0,.3-.2.3-.4v-.2l.3-.5h2.1a5.9,5.9,0,0,0,5.9,5.1,5.8,5.8,0,0,0,5.9-5.9A5.9,5.9,0,0,0,846.4,674.8Zm-8.3-2.6h.6c-.2.1-.2.2-.2.3h0c0,.3.1.4.4.4h.4v.5h-1.1Zm.8,1.9-.8,2.9v-2.9Zm-.4,6.9a1.3,1.3,0,0,0-.4-.9v-.5l1.9-6.7h1.1l1.7,3a6.1,6.1,0,0,0-2.4,4.8v.2Z"/>
      <path d="M831.9,668.5l-.9.5c-.8.6.3,1.4.9.7s-.2.2-.1.3h0c.2.1.8-.6.9-.6S831.9,668.8,831.9,668.5Z" fill="#63472c"/>
      <path d="M839.7,656.8v2.3a1.5,1.5,0,0,1-1.5,1.5h-.3v.4c0,.2-.1.4-.3.4h-.2a.4.4,0,0,1-.3-.4v-.4h-.2a1.5,1.5,0,0,1-1.5-1.5v-2.3a1.5,1.5,0,0,1,1.5-1.5h1.3A1.5,1.5,0,0,1,839.7,656.8Z" fill="#63472c"/>
      <path d="M836.9,658.8a.3.3,0,0,1-.5,0A.3.3,0,0,1,836.9,658.8Z" fill="#1a1a1a"/>
      <path d="M838.7,658.8c.1.3-.5.6-.6.3v-.7C838.2,658.1,838.8,658.4,838.7,658.8Z" fill="#523722"/>
      <path d="M839.5,656.7c-.3-1.1-1.3-1.4-2.6-.4s.1,2.2.2,2,.3.9.9-.3C838.6,658.7,839.6,657.7,839.5,656.7Z" fill="#d1b197"/>
      <path d="M837.1,660.4c-.2-.1.1-.2.1-.1Z" fill="#d1b197"/>
      <path d="M836.2,657.4c-.2,0-.1.3,0,.3S836.4,657.5,836.2,657.4Z" fill="#d1b197"/>
      <path d="M840.8,659.7h.1c0-.1.1-.2,0-.3l-.7-1.2V658h0a2.7,2.7,0,0,0-1.5-2.7,4,4,0,0,0-2.4-.1c-.1,0-.2.1-.1.2s.1.2.2.1a3.9,3.9,0,0,1,2.1.1,2.2,2.2,0,0,1,1.2,1.3,2.1,2.1,0,0,0-1.1-1,3,3,0,0,0-2.2-.2c-.1,0-.1.1-.1.2s.1.2.2.1a3,3,0,0,1,2,.2l.4.3a.1.1,0,0,0-.1-.1,3.4,3.4,0,0,0-2.2-.1c-.1,0-.1.1-.1.2s.1.1.2.1a2.8,2.8,0,0,1,2,.1,2.4,2.4,0,0,1,.9,1.1c.1,0,.1,0,.1.1a2.2,2.2,0,0,0-.9-1,3.2,3.2,0,0,0-1.9-.1.3.3,0,0,0-.1.2h.2a1.8,1.8,0,0,1,1.6.1,1,1,0,0,1,.6.5.6.6,0,0,0-.6-.3,2.8,2.8,0,0,0-1.4-.1c-.1,0-.1.1-.1.2a.1.1,0,0,0,.1.1,2.1,2.1,0,0,1,1.4,0,1.3,1.3,0,0,1,.9.9.4.4,0,0,1,.1.3h0l-.9,2c0,.1,0,.2.1.2h.1a.1.1,0,0,0,.1-.1l.4-.7-.2.8c-.1.1,0,.2.1.2h.2l.2-.6v.6a.2.2,0,0,0,.2.2h.2v-.1a.2.2,0,0,0,.2.2h0a.2.2,0,0,0,.2-.2v-.6a.2.2,0,0,0,.2.2h0c.1-.1.2-.2.2-.3l-.3-.9h.2Z" fill="#141414"/>
    </g>
    <path d="M121.2,172.8a5.7,5.7,0,0,0-3.2.9l-1.7-3c.1,0,.2-.2.2-.4h0a.4.4,0,0,0-.4-.4h-.5a1.2,1.2,0,0,0,.7-1v-1.6h0v-.6h0l-.6-3.3-.8-4.6a.4.4,0,0,0-.1-.3,1.1,1.1,0,0,0-1.4-.8l-2.1.3a1.4,1.4,0,0,0-1.1,1.5l.2.7.4,2.3.3,1.7.6,3.4a1,1,0,0,0,.4.7h-1.4a.8.8,0,0,0-.8.9v2.2H102l1-3.5h2.3a.3.3,0,0,0,.3-.3h0a.3.3,0,0,0-.3-.3h-2.8v.2h-.1l-1.6,5.7h-.9a6.3,6.3,0,1,0,1.7.2l.3-1h8.1v6.4a1.7,1.7,0,0,0-.5,1.2,1.5,1.5,0,0,0,.7,1.3h0c0,.2.1.3.3.4h-.3a.3.3,0,0,0-.3.3h0a.3.3,0,0,0,.3.3h1.8c.2,0,.4-.1.4-.3h0a.4.4,0,0,0-.4-.3h0c.2-.1.3-.2.3-.4v-.3l.3-.5h2.3a6.5,6.5,0,1,0,6.4-7.4Zm-9-2.8h.6c-.1,0-.2.2-.2.3h0a.5.5,0,0,0,.4.5h.5l-.2.4h-1.1Zm.9,2-.9,3.2V172Zm-.5,7.5a1.8,1.8,0,0,0-.4-1V178l2.1-7.2h1.1l1.9,3.3a6.5,6.5,0,0,0-2.6,5.2v.2Z" fill="#425aa5"/>
    <path d="M105.4,165.9c-.4.3-1.6.5-1.2,1.2s.8.4,1.2.2-.2.1-.1.2h0c.2.2.9-.6,1-.6S105.4,166.2,105.4,165.9Z" fill="#63472c"/>
    <path d="M114.5,152.4c0-.4-5.3-.8-5.3,0h0v2.9a1.8,1.8,0,0,0,1.8,1.9h.3v.5a.4.4,0,0,0,.4.4h.2a.4.4,0,0,0,.4-.4v-.5h.4a1.8,1.8,0,0,0,1.6-1,1.1,1.1,0,0,0,.2-.8h0v-2.9Z" fill="#63472c"/>
    <path d="M111.1,154.9l-.3.3a.3.3,0,0,1-.3-.3.3.3,0,0,1,.3-.3A.3.3,0,0,1,111.1,154.9Z" fill="#1a1a1a"/>
    <path d="M114.5,152.6h0v2.7h0l-3.2-2.5-1.4-1.1.9-1h2.1l.6.2h.3l.5.6a1.1,1.1,0,0,1,.2.8Z" fill="#4e4d4d"/>
    <path d="M115.9,150.1c-.2-.6-.8-.1-1.1.1s.8-.7.4-1-.8.2-1,.4.6-.9.1-1.1-.7.5-.8.8.4-1-.2-1.1-.5.6-.6.9v-.6c0-.5-.8-.4-.8,0a14.9,14.9,0,0,1,.2,2.1c-1.2-.2-2.9.3-2.8,1.8a11.9,11.9,0,0,0,5.3,0,1.2,1.2,0,0,0-.2-1C114.5,151.2,116.3,150.6,115.9,150.1Z"/>
    <path d="M113.3,154.9c.1.4-.6.8-.8.4s-.1-.9.1-1A.7.7,0,0,1,113.3,154.9Z" fill="#523722"/>
  </g>
</svg>
