<svg xmlns="http://www.w3.org/2000/svg" viewBox="0 0 5.6 6.34">
    <path d="M2,4.49a.31.31,0,0,1-.62,0A.31.31,0,0,1,2,4.49Z" fill="#1a1a1a"/>
    <path d="M5.57,1.94C5.46,3,5.94,5.62,5,6.34L1.44,1.48,4.68.31A2,2,0,0,1,5.57,1.94Z" fill="#715137"/>
    <path d="M4.28,4.48c.13.46-.62.89-.85.49v-.9C3.62,3.69,4.34,4.08,4.28,4.48Z" fill="#8f715b"/>
    <path d="M5.52,1.49a4,4,0,0,1-2.84.94l-.57,0A3.94,3.94,0,0,1,0,1.64,1.94,1.94,0,0,1,1.92,0H3.63a1.88,1.88,0,0,1,1,.31A2,2,0,0,1,5.52,1.49Z" fill="#816142"/>
</svg>
