<svg xmlns="http://www.w3.org/2000/svg" viewBox="0 0 13.29 65.29">
    <path d="M1,60v3.35a.81.81,0,0,0,.81.81H5.16a1,1,0,0,0,.25,0v.37a.8.8,0,0,0,.8.8H9.57a.8.8,0,0,0,.8-.8V61.14C10.37,60.69,1,59.57,1,60Z" class="trd-color"/>
    <path d="M4.85,35.83V62.05H1.54a.91.91,0,0,1-.91-.91V35.83Z" class="fst-color"/>
    <path d="M12.86,35.83l-2,8.89V62.16a1,1,0,0,1-1,1H5.8a1,1,0,0,1-1-1V35.83Z" class="scd-color"/>
    <path d="M2.09,14H11.2a2.09,2.09,0,0,1,2.09,2.09V36.54a1,1,0,0,1-1,1H1a1,1,0,0,1-1-1V16.05A2.09,2.09,0,0,1,2.09,14Z" class="trd-color"/>
    <path d="M5.31,38.93h.07a.24.24,0,0,0,.21-.2l0-.14v.85a.87.87,0,0,0,.88.88h.26a.87.87,0,0,0,.87-.88V37.36c0-.48-2.06-.64-2.09-.49l-.38,1.71A.31.31,0,0,0,5.31,38.93Z" />
    <rect x="5.27" y="16.07" width="2.6" height="21.58" rx="0.97" class="scd-color"/>
    <path d="M11.29,3.6V9.19a3.6,3.6,0,0,1-3.6,3.6H6.91v1a.75.75,0,0,1-.75.74H5.82a.74.74,0,0,1-.75-.74v-1H4.52A3.6,3.6,0,0,1,.93,9.19V3.6A3.6,3.6,0,0,1,4.52,0H7.69A3.6,3.6,0,0,1,11.29,3.6Z"/>
</svg>
