<svg xmlns="http://www.w3.org/2000/svg" viewBox="0 0 9.39 51.64">
    <rect x="3.4" y="34.63" width="1.9" height="15.62"/>
    <rect x="5.77" y="34.36" width="1.9" height="15.89"/>
    <path d="M8.13,48.87l-5.29,0a.49.49,0,0,0-.5.49v1.8a.5.5,0,0,0,.5.5H8.13a.5.5,0,0,0,.5-.5V49.37A.5.5,0,0,0,8.13,48.87Z" class="scd-color"/>
    <rect x="0.79" y="29.24" width="8.4" height="6.44" rx="0.95" class="fst-color"/>
    <path d="M2.12,11.07H7.87A1.53,1.53,0,0,1,9.39,12.6V29.36a.72.72,0,0,1-.72.72H1.31a.72.72,0,0,1-.72-.72V12.6A1.53,1.53,0,0,1,2.12,11.07Z" class="trd-color"/>
    <path d="M4.12,31.32h0a.21.21,0,0,0,.18-.17l0-.1v.68a.71.71,0,0,0,.71.71h.21a.7.7,0,0,0,.7-.71V30.05c0-.39-1.66-.52-1.69-.39L4,31A.24.24,0,0,0,4.12,31.32Z" />
    <rect x="4.09" y="12.88" width="2.1" height="17.41" rx="0.78" class="scd-color"/>
    <path d="M0,3v4.6a3,3,0,0,0,3,3H3.6v.8a.61.61,0,0,0,.61.61h.28a.61.61,0,0,0,.61-.61v-.8h.45a3,3,0,0,0,3-2.95V3A3,3,0,0,0,5.55,0H3A3,3,0,0,0,0,3Z" />
</svg>
