<svg xmlns="http://www.w3.org/2000/svg" viewBox="0 0 210.2 533.9">
    <rect class="trd-color" x="43.9" y="483.2" width="50.7" height="50.73" rx="0.7" />
    <rect class="trd-color" x="115.6" y="483.2" width="50.7" height="50.73" rx="0.7" />
    <path class="fst-color" d="M170.7,182.6V495.9c0,5.6-3.8,10.1-8.6,10.1h-44c-4.8,0-8.7-4.5-8.7-10.1V278.6c0-6.9-9.2-7-9.2,0V495.9c0,5.6-3.9,10.1-8.7,10.1h-44c-4.8,0-8.7-4.5-8.7-10.1V182.6c0-5.6,3.9-10.1,8.7-10.1,17.2-.1,53.8.6,70.6,0h44C166.9,172.5,170.7,177,170.7,182.6Z" />
    <path class="scd-color" d="M210.1,31.6c-.1,3.8,0,197.9,0,202.1.1,9.7-13.3,6.9-19.4,7.3a7.3,7.3,0,0,1-7.3-7.3V59c0-5.7-8.9-5.8-8.9,0V233.2a7.7,7.7,0,0,1-7.7,7.8H43.4a7.7,7.7,0,0,1-7.7-7.8V59c.1-5.7-9-5.8-8.9,0V233.9a7,7,0,0,1-7,7.1C14,240.4,0,243.7.2,233.9c.1-4.4-.1-198,0-202.3C-1.6,15.2,10.5-.1,27.5,0H182.7C199.7-.1,211.8,15.1,210.1,31.6Z" />
</svg>
