<svg xmlns="http://www.w3.org/2000/svg" viewBox="0 0 121 467.6">
    <path class="trd-color" d="M93.7,422.4,9.9,412.1a.9.9,0,0,0-.8.8v43.6a.8.8,0,0,0,.8.8H49.3v9.5a.8.8,0,0,0,.8.8H93.7a.9.9,0,0,0,.8-.8V423.2A.8.8,0,0,0,93.7,422.4Z" />
    <path class="fst-color" d="M44.2,199.2V438H14.1a8.3,8.3,0,0,1-8.3-8.2V199.2Z" />
    <path class="scd-color" d="M117.1,199.2l-17.8,81V439a8.7,8.7,0,0,1-8.7,8.7H52.8a8.7,8.7,0,0,1-8.6-8.7V199.2Z" />
    <path class="trd-color" d="M2.1,0H119A2.1,2.1,0,0,1,121,2.1V213.6a1,1,0,0,1-1,1H1a1,1,0,0,1-1-1V2.1A2.1,2.1,0,0,1,2.1,0Z" />
    <rect class="fst-color" x="48" y="19.2" width="23.7" height="196.61" rx="1" />
</svg>
