<svg xmlns="http://www.w3.org/2000/svg" viewBox="0 0 33.65 102.57">
  <g>
    <path d="M33.07,96l-.38-2.5L32.61,93l-.21-1.43L32.31,91l-.21-1.43L32,89l-.23-1.49-.08-.57L31.5,85.5l-.09-.56-.19-1.28-.08-.56-.2-1.33-.08-.56-.22-1.43-.08-.56-.22-1.49-.09-.56L30,75.74,30,75.18l-.22-1.44-.08-.56-.21-1.43-.09-.56-.21-1.43-.08-.56-.22-1.43-.08-.56-.19-1.28-.09-.57L28.3,64l-.09-.57L28,62l-.08-.56L27.69,60l-.08-.57L27.4,58l-.09-.56L27.1,56,27,55.45,26.8,54l-.08-.57-.24-1.6-.11-.73-.28-1.87L26,48.51l-.28-1.87-.1-.73L25.3,44l-.11-.73-.28-1.87-.1-.74L24.56,39l-.11-.74-.26-1.73-.11-.74-.28-1.86-.11-.74-.29-1.93-.11-.74L23,28.61l-.11-.73L22.63,26l-.11-.73-.28-1.87-.11-.74-.28-1.86-.11-.74-.28-1.86-.11-.74L21.1,15.8l-.1-.73-.26-1.74-.11-.73-.28-1.87L20.24,10,20,8.06l-.11-.73-.28-1.87-.1-.73-.28-1.87-.12-.74L19,1.37a1.59,1.59,0,0,0-.7-1.12,1.67,1.67,0,0,0-1.76,0,1.61,1.61,0,0,0-.71,1.12l-.11.75-.11.74-.28,1.87-.11.73-.28,1.87-.11.73L14.49,10l-.11.73-.27,1.87-.11.73-.26,1.74-.11.73-.25,1.67-.11.74L13,20.07l-.11.74-.28,1.86-.1.74-.28,1.87-.11.73-.28,1.87-.11.73-.28,1.87-.11.74L11,33.15l-.11.74-.28,1.86-.1.74-.26,1.73-.11.74-.25,1.66-.11.74-.28,1.87L9.43,44l-.29,1.95L9,46.64l-.28,1.87-.11.74-.28,1.87-.11.73L8,53.45,7.93,54l-.21,1.43L7.63,56l-.21,1.43L7.34,58l-.22,1.43L7,60l-.22,1.48L6.74,62l-.22,1.43L6.44,64l-.2,1.32-.09.57L6,67.21l-.08.56L5.67,69.2l-.09.56-.21,1.43-.08.56-.22,1.43L5,73.74l-.21,1.44-.09.56-.21,1.43-.08.56-.23,1.49-.08.56-.21,1.43-.09.56L3.6,83.1l-.09.56-.19,1.28-.08.56L3,86.93l-.09.57L2.72,89l-.08.56L2.42,91l-.08.57L2.12,93,2,93.54,1.67,96A1.61,1.61,0,0,0,2,97.32a1.58,1.58,0,0,0,1.21.56H31.48A1.62,1.62,0,0,0,33.07,96ZM17.3,2.86h.13l.28,1.87H17Zm-.38,2.6h.9l.27,1.87H16.64Zm-.39,2.6H18.2L18.49,10H16.24Zm-.4,2.67H18.6l.28,1.87h-3Zm-.39,2.6H19l.26,1.74H15.49Zm-.36,2.47h4l.25,1.67H15.13ZM15,18.21h4.7L20,20.07H14.74Zm-.39,2.6h5.48l.27,1.86h-6Zm-.39,2.6h6.25l.28,1.87H14ZM13.85,26h7l.28,1.87H13.57Zm-.38,2.6h7.8l.28,1.87H13.19Zm-.39,2.61h8.57l.29,1.93H12.79Zm-.4,2.67h9.38l.27,1.86H12.4Zm-.39,2.6H22.44l.26,1.73H12ZM11.93,39H22.81l.25,1.66H11.68Zm-.36,2.4h11.6l.28,1.87H11.29ZM11.18,44H23.56l.29,1.95h-13Zm-.4,2.68H24l.27,1.87H10.5Zm-.39,2.61h14l.28,1.87H10.11ZM10,51.85H24.73l.24,1.6H9.76ZM9.68,54H25.05l.22,1.43H9.47Zm-.3,2h16l.21,1.43H9.17Zm-.29,2H25.65l.21,1.43h-17Zm-.3,2H25.94l.23,1.48H8.57Zm-.3,2H26.25l.21,1.43H8.27Zm-.3,2H26.55l.2,1.32H8ZM7.9,65.93H26.83L27,67.21H7.71Zm-.27,1.84H27.1l.22,1.43H7.42Zm-.3,2H27.4l.21,1.43H7.12Zm-.29,2H27.7l.21,1.43H6.82Zm-.3,2H28l.22,1.44H6.52Zm-.3,2H28.29l.22,1.43H6.23Zm-.3,2H28.59l.22,1.49H5.92Zm-.3,2H28.89l.22,1.43H5.63Zm-.3,2H29.19l.2,1.33h-24Zm-.28,1.89H29.47l.19,1.28H5.07ZM5,85.5H29.75L30,86.93H4.77Zm-.3,2H30L30.27,89H4.47Zm-.31,2h26L30.56,91H4.17Zm-.29,2H30.65L30.86,93h-27Zm-.69,4.6.39-2.61H30.94l.39,2.61Z" fill="#1c5e6a"/>
    <rect y="94.87" width="33.65" height="7.7" rx="2.17" fill="#3f8385"/>
  </g>
</svg>
