<svg xmlns="http://www.w3.org/2000/svg" viewBox="0 0 44.98 108.99">
  <g>
    <rect x="2.14" y="2.99" width="32.91" height="1.92" fill="#a0a09f"/>
    <rect width="4.49" height="67.53" rx="2.13" fill="#a9a9aa"/>
    <path d="M0,59H3.69a1.87,1.87,0,0,1,1.87,1.87v46.27A1.87,1.87,0,0,1,3.69,109H1.87A1.87,1.87,0,0,1,0,107.12V59A0,0,0,0,1,0,59Z" fill="#a0a09f"/>
    <path d="M41.81,3c-.9-.16-22.2-3.71-40.44,22.32a1.07,1.07,0,0,0,.26,1.49,1.08,1.08,0,0,0,.61.2,1.07,1.07,0,0,0,.88-.46C15.93,8.28,30.5,5.27,37.4,5V8.76h2.13V5c1.18,0,1.86.15,1.9.15A1.07,1.07,0,0,0,41.81,3Z" fill="#9a9999"/>
    <rect x="31.74" y="8.01" width="13.24" height="41.78" rx="2.17" fill="#7f8080"/>
    <circle cx="38.36" cy="16.56" r="4.17" fill="#e55555"/>
    <circle cx="38.36" cy="39.64" r="4.17" fill="#94b241"/>
    <circle cx="38.36" cy="28.1" r="4.17" fill="#efa32b"/>
  </g>
</svg>
