<svg xmlns="http://www.w3.org/2000/svg" viewBox="0 0 12.5 26.51">
  <g>
    <rect x="3.43" y="21.34" width="5.48" height="3.62" fill="#bcbcbb"/>
    <path d="M10.66,14.16a.28.28,0,0,0-.07.17.24.24,0,0,0,.24.24H11v1.35a.44.44,0,0,0,.44.44h.08V18.2a.43.43,0,0,1-.43.43H1.4A.43.43,0,0,1,1,18.2V16.36h.08a.44.44,0,0,0,.44-.44V14.57h.18a.24.24,0,0,0,.17-.07.26.26,0,0,0,.07-.17.23.23,0,0,0-.24-.23H1V10.68a.43.43,0,0,1,.43-.43h9.7a.43.43,0,0,1,.43.43V14.1h-.7A.24.24,0,0,0,10.66,14.16Z" fill="#bcbcbb"/>
    <rect x="0.66" y="17.69" width="11.2" height="1.3" fill="#a9a9aa"/>
    <rect x="0.5" y="18.41" width="11.59" height="3.21" fill="#858585"/>
    <rect x="0.03" y="16.81" width="0.94" height="9.71" rx="0.47" fill="#434342"/>
    <rect x="11.53" y="16.81" width="0.94" height="9.71" rx="0.47" fill="#434342"/>
    <rect x="3.15" y="24.55" width="6.08" height="1.13" rx="0.57" fill="#919191"/>
    <path d="M1.91,14.33a.26.26,0,0,1-.07.17.24.24,0,0,1-.17.07H1.49v1.35a.44.44,0,0,1-.44.44H.86a.45.45,0,0,1-.45-.44V14.57H.24A.24.24,0,0,1,0,14.33a.28.28,0,0,1,.07-.17.24.24,0,0,1,.17-.06H1.67A.23.23,0,0,1,1.91,14.33Z" fill="#919191"/>
    <path d="M12.5,14.33a.26.26,0,0,1-.07.17.24.24,0,0,1-.16.07h-.18v1.35a.45.45,0,0,1-.45.44h-.19a.44.44,0,0,1-.44-.44V14.57h-.18a.24.24,0,0,1-.24-.24.28.28,0,0,1,.07-.17.24.24,0,0,1,.17-.06h1.44A.23.23,0,0,1,12.5,14.33Z" fill="#919191"/>
    <rect x="4.05" y="24.21" width="1.86" height="1.86" rx="0.86" fill="#334d94"/>
    <rect x="6.68" y="24.21" width="1.86" height="1.86" rx="0.86" fill="#334d94"/>
    <rect x="3.01" y="15.51" width="6.44" height="3.65" rx="1.83" fill="#526eb3"/>
    <rect x="3.68" y="17.08" width="2.52" height="7.99" rx="1.13" fill="#314a8d"/>
    <rect x="6.31" y="17.08" width="2.46" height="7.99" rx="1.11" fill="#314a8d"/>
    <path d="M2.54,18.84h0a.11.11,0,0,1-.1-.1l0-.06v.4a.41.41,0,0,1-.41.42H1.85a.41.41,0,0,1-.41-.42v-1a.41.41,0,0,1,.08-.25v-1.3a.41.41,0,0,0,.16,0h.59l.14,0v1.25a.08.08,0,0,1,0,.05l.18.82A.14.14,0,0,1,2.54,18.84Z" fill="#63472c"/>
    <path d="M11,18.1v1a.41.41,0,0,1-.41.42h-.13a.42.42,0,0,1-.41-.42v-.34a.13.13,0,0,1-.11.1h0a.16.16,0,0,1-.07-.17l.18-.81s0-.05,0-.06V16.56a.27.27,0,0,0,.13,0h.56a.38.38,0,0,0,.19,0v1.32A.44.44,0,0,1,11,18.1Z" fill="#63472c"/>
    <path d="M11.14,8.68s0,.08,0,.11,0,0,0,.06v7.81a.33.33,0,0,1-.35.29h-.56a.32.32,0,0,1-.34-.29V9.76a.18.18,0,0,0-.2-.17.19.19,0,0,0-.21.17v6.88a.34.34,0,0,1-.36.31H3.36A.34.34,0,0,1,3,16.64V9.76a.2.2,0,0,0-.21-.17.19.19,0,0,0-.21.17v6.91a.3.3,0,0,1-.32.28H1.67a.31.31,0,0,1-.33-.28V8.84a.13.13,0,0,1,0-.06.31.31,0,0,1,0-.1V8.51A1.2,1.2,0,0,1,2.62,7.43H9.86a1.2,1.2,0,0,1,1.28,1.08Z" fill="#425aa5"/>
    <path d="M9.19,4.14v.48s0,.06,0,.06H9a.06.06,0,0,1-.06-.06V2.94H6.08l-.15-.37-.09.36h0l-.26-.59-.34.6H3.81V4.56a.06.06,0,0,1-.06.05H3.57s-.06,0-.06-.05V4.14a.7.7,0,0,0-.44.21.73.73,0,0,0-.22.53.75.75,0,0,0,.75.75h.06a2,2,0,0,0,1.9,1.3h.27V7.6a.34.34,0,0,0,.33.34h.33a.34.34,0,0,0,.33-.34V6.93h.3A2.05,2.05,0,0,0,9,5.63h0a.76.76,0,0,0,.53-.22.73.73,0,0,0,.22-.53A.75.75,0,0,0,9.19,4.14ZM5,5a.34.34,0,0,1-.34-.34.35.35,0,1,1,.69,0A.35.35,0,0,1,5,5ZM7.62,5a.34.34,0,0,1-.34-.34.35.35,0,1,1,.69,0A.35.35,0,0,1,7.62,5Z" fill="#63472c"/>
    <g>
      <circle cx="6.78" cy="4.62" r="0.08" fill="#49301a"/>
      <circle cx="4.2" cy="4.09" r="0.08" fill="#49301a"/>
      <circle cx="4.53" cy="3.86" r="0.08" fill="#49301a"/>
      <circle cx="4.92" cy="4.09" r="0.08" fill="#49301a"/>
      <circle cx="5.22" cy="3.73" r="0.08" fill="#49301a"/>
      <circle cx="5.61" cy="4.09" r="0.08" fill="#49301a"/>
      <circle cx="5.98" cy="3.86" r="0.08" fill="#49301a"/>
      <circle cx="6.37" cy="4.09" r="0.08" fill="#49301a"/>
      <circle cx="6.85" cy="4.12" r="0.08" fill="#49301a"/>
      <circle cx="7.18" cy="3.89" r="0.08" fill="#49301a"/>
      <circle cx="7.58" cy="4.12" r="0.08" fill="#49301a"/>
      <circle cx="7.87" cy="3.76" r="0.08" fill="#49301a"/>
      <circle cx="8.27" cy="4.12" r="0.08" fill="#49301a"/>
      <circle cx="8.63" cy="3.89" r="0.08" fill="#49301a"/>
      <circle cx="9.02" cy="4.12" r="0.08" fill="#49301a"/>
      <circle cx="4.2" cy="5.08" r="0.08" fill="#49301a"/>
      <circle cx="4.53" cy="4.85" r="0.08" fill="#49301a"/>
      <circle cx="5.98" cy="4.39" r="0.08" fill="#49301a"/>
      <circle cx="5.61" cy="5.08" r="0.08" fill="#49301a"/>
      <circle cx="5.98" cy="4.85" r="0.08" fill="#49301a"/>
      <circle cx="6.37" cy="5.08" r="0.08" fill="#49301a"/>
      <circle cx="7.12" cy="5.12" r="0.08" fill="#49301a"/>
      <circle cx="8.01" cy="5.55" r="0.08" fill="#49301a"/>
      <circle cx="8.53" cy="5.12" r="0.08" fill="#49301a"/>
      <circle cx="8.9" cy="4.88" r="0.08" fill="#49301a"/>
      <circle cx="9.29" cy="5.12" r="0.08" fill="#49301a"/>
      <circle cx="5.36" cy="5.91" r="0.08" fill="#49301a"/>
      <circle cx="5.69" cy="5.68" r="0.08" fill="#49301a"/>
      <circle cx="6.08" cy="5.91" r="0.08" fill="#49301a"/>
      <circle cx="6.38" cy="5.55" r="0.08" fill="#49301a"/>
      <circle cx="6.78" cy="5.91" r="0.08" fill="#49301a"/>
      <circle cx="7.14" cy="5.68" r="0.08" fill="#49301a"/>
      <circle cx="7.53" cy="5.91" r="0.08" fill="#49301a"/>
      <circle cx="5.52" cy="3.46" r="0.08" fill="#49301a"/>
      <circle cx="5.86" cy="3.23" r="0.08" fill="#49301a"/>
      <circle cx="6.25" cy="3.46" r="0.08" fill="#49301a"/>
      <circle cx="6.55" cy="3.09" r="0.08" fill="#49301a"/>
      <circle cx="6.94" cy="3.46" r="0.08" fill="#49301a"/>
      <circle cx="7.3" cy="3.23" r="0.08" fill="#49301a"/>
      <circle cx="7.7" cy="3.46" r="0.08" fill="#49301a"/>
    </g>
    <path d="M5.38,4.68a.35.35,0,0,1-.69,0,.35.35,0,1,1,.69,0Z" fill="#1a1a1a"/>
    <path d="M8,4.68a.35.35,0,0,1-.69,0,.35.35,0,1,1,.69,0Z" fill="#1a1a1a"/>
    <path d="M9.19,4.14v.48s0,.06,0,.06H9a.06.06,0,0,1-.06-.06V2.94H6.08l-.15-.37-.09.36-.26-.59-.34.6H3.81V4.56a.06.06,0,0,1-.06.05H3.57s-.06,0-.06-.05V4.14h0V2a1.21,1.21,0,0,1,0-.19A1.9,1.9,0,0,1,3.81,1,2,2,0,0,1,5.56,0H7.12a2,2,0,0,1,2,1.91V4.14Z"/>
  </g>
</svg>
