<svg xmlns="http://www.w3.org/2000/svg" viewBox="0 0 23.701 49.403">
  <g>
    <rect x="6.501" y="39.633" width="10.4" height="6.86" fill="#bcbcbb"/>
    <path d="M1.8,33.633a.8.8,0,0,0,.794.807.745.745,0,0,0,.106-.007H21a.7.7,0,0,0,.8-.583.659.659,0,0,0,0-.217v-14.2a.7.7,0,0,0-.583-.8.718.718,0,0,0-.217,0H2.7a.8.8,0,0,0-.893.694.755.755,0,0,0-.007.106" fill="#bcbcbb"/>
    <rect x="1.301" y="32.733" width="21.2" height="2.46" fill="#a8a9aa"/>
    <rect x="0.901" y="34.033" width="21.9" height="6.07" fill="#868686"/>
    <path d="M1,31.033H1a.9.9,0,0,1,.9.9V48.5a.9.9,0,0,1-.9.9H1a.9.9,0,0,1-.9-.9V31.933A.9.9,0,0,1,1,31.033Z" fill="#444443"/>
    <path d="M22.7,31.033h0a.9.9,0,0,1,.9.9V48.5a.9.9,0,0,1-.9.9h0a.9.9,0,0,1-.9-.9V31.933A.9.9,0,0,1,22.7,31.033Z" fill="#444443"/>
    <rect x="6.001" y="45.633" width="11.5" height="2.15" rx="0.6" fill="#919191"/>
    <path d="M2.8,29.333a.8.8,0,0,1-.8.8H1.6a.8.8,0,0,1-.8-.8v-2.6H.4a.426.426,0,0,1-.3-.7H3.2A19.676,19.676,0,0,1,2.8,29.333Z" fill="#919191"/>
    <path d="M23.7,26.333l-.2.3h-.6v2.6a.8.8,0,0,1-.793.807A.769.769,0,0,1,22,30.033h-.3a.8.8,0,0,1-.893-.693.769.769,0,0,1-.007-.107s-.4-3.4-.3-3.4h2.7A.5.5,0,0,1,23.7,26.333Z" fill="#919191"/>
    <rect x="7.701" y="45.033" width="3.5" height="3.53" rx="0.9" fill="#010101"/>
    <rect x="12.601" y="45.033" width="3.5" height="3.53" rx="0.9" fill="#010101"/>
    <rect x="5.701" y="28.533" width="12.2" height="6.91" rx="2" fill="#010101"/>
    <rect x="7.001" y="31.533" width="4.8" height="15.13" rx="1.1" fill="#010101"/>
    <rect x="11.901" y="31.533" width="4.7" height="15.13" rx="1.1" fill="#010101"/>
    <path d="M4.8,34.833a.1.1,0,0,1-.1.1l-.2-.4v.8a.8.8,0,0,1-.8.8H3.5a.9.9,0,0,1-.8-.8v-1.9c0-.1.2-2.9.2-2.9H4.6v2.5l.3,1.5C5,34.733,4.9,34.833,4.8,34.833Z" fill="#010101"/>
    <path d="M20.9,33.433v1.9a.8.8,0,0,1-.8.8h-.2a.7.7,0,0,1-.8-.583.718.718,0,0,1,0-.217v-.7l-.2.3c-.1,0-.1,0-.1-.1s-.2-.1-.1-.3a9.482,9.482,0,0,1,.4-1.6v-2.4h1.6v2.5A.8.8,0,0,1,20.9,33.433Z" fill="#010101"/>
    <path d="M21.1,15.633v15.1c0,.8-1.3.5-1.7.6a.7.7,0,0,1-.7-.6v-13a.4.4,0,0,0-.8,0v13a.6.6,0,0,1-.6.6H6.4a.7.7,0,0,1-.7-.6v-13a.4.4,0,0,0-.8,0h0v13c0,.8-1.3.5-1.7.6a.7.7,0,0,1-.7-.6v-14.9A2.4,2.4,0,0,1,4.69,13.24,2.489,2.489,0,0,1,5,13.233H18.7A2.4,2.4,0,0,1,21.1,15.633Z" fill="#010101"/>
    <path d="M18.471,8.912A1.369,1.369,0,0,1,17.1,10.281h-.085a3.726,3.726,0,0,1-3.473,2.375H13v1.233a.611.611,0,0,1-.61.611h-.6a.612.612,0,0,1-.611-.611V12.656h-.493a3.727,3.727,0,0,1-3.473-2.375H7.1A1.369,1.369,0,0,1,6.961,7.55V3.726A3.724,3.724,0,0,1,10.686,0h2.858a3.723,3.723,0,0,1,3.725,3.726V7.553A1.37,1.37,0,0,1,18.471,8.912Z" fill="#63472c"/>
  </g>
</svg>
