<svg xmlns="http://www.w3.org/2000/svg" viewBox="0 0 458.6 820.8">
    <path d="M312.5,469.3v63.4a20.8,20.8,0,0,1-20.8,20.7H72.1V755.1H17.2V490a20.7,20.7,0,0,1,20.7-20.7Z" class="trd-color"/>
    <rect x="5.2" y="744.6" width="60.6" height="33.72" rx="0.5" fill="red"/>
    <rect xmlns="http://www.w3.org/2000/svg" x="150" y="186" rx="20" ry="20" width="170" height="305" />
    <path d="M102.9,385.2c-.8,2.5,2.3,3.7,4.4,3.8-11.5-.1-23.5.2-21.7,15.5a11.3,11.3,0,0,0,11.7,10.9l27-.9c11.2-.1,7.9-26.9,5.4-27.3l-22.3-4.1C105.4,382.7,103.4,383.7,102.9,385.2Z" />
    <path d="M249.6,220.3h-32a.9.9,0,0,0-.8.8V380.4H118.7a.7.7,0,0,0-.7.6v32.3a.7.7,0,0,0,.7.7H217a.6.6,0,0,0,.6.3h32a.7.7,0,0,0,.8-.8V221.1A.8.8,0,0,0,249.6,220.3Z" class="fst-color"/>
    <g>
      <rect x="79.8" y="632.4" width="17.2" height="150.24" fill="#bcbcbb"/>
      <rect x="54.9" y="553.4" width="315.1" height="125.34" rx="1.8" fill="#858585"/>
      <rect y="763.7" width="92.7" height="24.9" rx="0.4" fill="#919191"/>
      <path d="M328.8,413.5H120.6c-11,1.1-10.1,17.1,5.6,14.6V470A13.8,13.8,0,0,0,140,483.9c16.3,1.4,21-7.4,19.7-22.4H328.8Z" fill="#919191"/>
      <rect x="328.8" y="271.8" width="33.5" height="384.6" rx="1.3" fill="#bcbcbb"/>
      <circle cx="177.7" cy="654.4" r="151.4" fill="none" stroke="#4e4d4d" stroke-miterlimit="10" stroke-width="30"/>
      <circle cx="178" cy="654.1" r="65.5" fill="#434342"/>
      <rect x="343.2" y="290.6" width="115.3" height="21.46" rx="0.8" fill="#a9a9aa"/>
    </g>
    <path d="M296.7,48.7v75.6A48.7,48.7,0,0,1,248.1,173H237.5v13.1a10.1,10.1,0,0,1-10.1,10.1h-4.7a10.1,10.1,0,0,1-10.1-10.1V173h-7.4a48.6,48.6,0,0,1-48.6-48.7V48.7A48.6,48.6,0,0,1,205.2,0h42.9A48.7,48.7,0,0,1,296.7,48.7Z" />
</svg>
