<svg xmlns="http://www.w3.org/2000/svg" viewBox="0 0 458.6 634.6">
    <path class="fst-color" d="M312.5,283.1v63.4a20.8,20.8,0,0,1-20.8,20.8H72.1V569H17.2V303.9a20.8,20.8,0,0,1,20.7-20.8Z" fill="#327584"/>
    <rect class="trd-color" x="5.2" y="558.5" width="60.6" height="33.72" rx="0.5" fill="#23515c"/>
    <path class="scd-color" d="M150.7,0H318.3a2,2,0,0,1,2,2V303.3a.9.9,0,0,1-.9.9H149.6a.9.9,0,0,1-.9-.9V2a2,2,0,0,1,2-2Z" fill="#2f6171"/>
    <path class="trd-color" d="M249.6,34.2h-32a.8.8,0,0,0-.8.7V194.2H118.7a.7.7,0,0,0-.7.7v32.3c0,.4.3.6.7.6H217a.7.7,0,0,0,.6.4h32a.8.8,0,0,0,.8-.8V34.9A.7.7,0,0,0,249.6,34.2Z" fill="#23515c"/>
    <g>
      <rect x="79.8" y="446.2" width="17.2" height="150.24" fill="#bcbcbb"/>
      <rect x="54.9" y="367.3" width="315.1" height="125.34" rx="1.8" fill="#858585"/>
      <rect y="577.6" width="92.7" height="24.9" rx="0.4" fill="#919191"/>
      <path d="M328.8,227.3H120.6c-11,1.2-10.1,17.1,5.6,14.6v42A13.8,13.8,0,0,0,140,297.7c16.3,1.5,21-7.4,19.7-22.3H328.8Z" fill="#919191"/>
      <rect x="328.8" y="85.7" width="33.5" height="384.6" rx="1.3" fill="#bcbcbb"/>
      <circle cx="177.7" cy="468.2" r="151.4" fill="none" stroke="#4e4d4d" stroke-miterlimit="10" stroke-width="30"/>
      <circle cx="178" cy="468" r="65.5" fill="#434342"/>
      <rect x="343.2" y="104.5" width="115.3" height="21.46" rx="0.8" fill="#a9a9aa"/>
    </g>
</svg>
