<svg xmlns="http://www.w3.org/2000/svg" viewBox="0 0 23.7 49.7">
    <rect x="6.5" y="39.9" width="10.4" height="6.86" fill="#bcbcbb"/>
    <path d="M1.8,33.9a.8.8,0,0,0,.9.8H21a.7.7,0,0,0,.8-.8V19.7a.7.7,0,0,0-.8-.8H2.7a.8.8,0,0,0-.9.8" fill="#bcbcbb"/>
    <rect x="1.3" y="33" width="21.2" height="2.46" fill="#a9a9aa"/>
    <rect x="0.9" y="34.3" width="21.9" height="6.07" fill="#858585"/>
    <rect x="0.1" y="31.3" width="1.8" height="18.37" rx="0.9" fill="#434342"/>
    <rect x="21.8" y="31.3" width="1.8" height="18.37" rx="0.9" fill="#434342"/>
    <rect x="6" y="45.9" width="11.5" height="2.15" rx="0.6" fill="#919191"/>
    <path d="M2.8,29.6a.8.8,0,0,1-.8.8H1.6a.8.8,0,0,1-.8-.8V27H.4a.4.4,0,0,1-.4-.4.4.4,0,0,1,.1-.3H3.2A19.7,19.7,0,0,1,2.8,29.6Z" fill="#919191"/>
    <path d="M23.7,26.6l-.2.3h-.6v2.6a.8.8,0,0,1-.9.8h-.3a.8.8,0,0,1-.9-.8s-.4-3.4-.3-3.4h2.7A.5.5,0,0,1,23.7,26.6Z" fill="#919191"/>
    <rect x="7.7" y="45.3" width="3.5" height="3.53" rx="0.9" class="fst-color"/>
    <rect x="12.6" y="45.3" width="3.5" height="3.53" rx="0.9" class="fst-color"/>
    <rect x="5.7" y="28.8" width="12.2" height="6.91" rx="2" class="scd-color"/>
    <rect x="7" y="31.8" width="4.8" height="15.13" rx="1.1" class="trd-color"/>
    <rect x="11.9" y="31.8" width="4.7" height="15.13" rx="1.1" class="trd-color"/>
    <path d="M4.8,35.1a.1.1,0,0,1-.1.1l-.2-.4v.8a.8.8,0,0,1-.8.8H3.5a.9.9,0,0,1-.8-.8V33.7c0-.1.2-2.9.2-2.9H4.6v2.5l.3,1.5C5,35,4.9,35.1,4.8,35.1Z"/>
    <path d="M20.9,33.7v1.9a.8.8,0,0,1-.8.8h-.2a.7.7,0,0,1-.8-.8v-.7l-.2.3c-.1,0-.1,0-.1-.1s-.2-.1-.1-.3a9.4,9.4,0,0,1,.4-1.6V30.8h1.6v2.5A.8.8,0,0,1,20.9,33.7Z"/>
    <path d="M21.1,15.9V31c0,.8-1.3.5-1.7.6a.7.7,0,0,1-.7-.6V18a.4.4,0,0,0-.8,0V31a.6.6,0,0,1-.6.6H6.4a.7.7,0,0,1-.7-.6V18a.4.4,0,0,0-.8,0V31c0,.8-1.3.5-1.7.6a.7.7,0,0,1-.7-.6V16.1A2.4,2.4,0,0,1,5,13.5H18.7A2.4,2.4,0,0,1,21.1,15.9Z" class="fst-color"/>
    <path d="M17.3,3.6V9.2a3.6,3.6,0,0,1-3.6,3.6h-.8v1a.7.7,0,0,1-.7.7h-.4a.7.7,0,0,1-.7-.7v-1h-.6A3.6,3.6,0,0,1,6.9,9.2V3.6A3.6,3.6,0,0,1,10.5,0h3.2A3.6,3.6,0,0,1,17.3,3.6Z" />
</svg>
