<svg xmlns="http://www.w3.org/2000/svg" viewBox="0 0 213 336">
    <rect x="58.5" y="247.8" width="93.3" height="61.72" fill="#bcbcbb"/>
    <path d="M196.5,194.3a7.4,7.4,0,0,1-7.3,7.4H23.9a7.4,7.4,0,0,1-7.3-7.4V66.3a7.4,7.4,0,0,1,7.3-7.4H189.2a7.4,7.4,0,0,1,7.3,7.4" fill="#bcbcbb"/>
    <rect x="11.4" y="185.7" width="190.8" height="22.14" fill="#a9a9aa"/>
    <rect x="8.5" y="197.9" width="197.4" height="54.65" fill="#858585"/>
    <rect x="0.5" y="170.6" width="16" height="165.38" rx="1.1" fill="#434342"/>
    <rect x="196.5" y="170.6" width="16" height="165.38" rx="1.1" fill="#434342"/>
    <rect x="53.8" y="302.5" width="103.7" height="19.32" rx="0.8" fill="#919191"/>
    <path d="M32.6,128.4c0,3.9-4.2,4.3-7.1,4v23c.1,5.9-5.7,8.4-10.8,7.6a7.6,7.6,0,0,1-7.6-7.6v-23c-7.8,1.5-9.7-6.9-3-8H28.6A4,4,0,0,1,32.6,128.4Z" fill="#919191"/>
    <path d="M213,128.4c.1,3.9-4.1,4.3-7,4v23c0,5.9-5.7,8.4-10.8,7.6a7.6,7.6,0,0,1-7.6-7.6v-23c-7.8,1.5-9.8-6.9-3.1-8H209A4,4,0,0,1,213,128.4Z" fill="#919191"/>
    <rect class="color-trd" x="69" y="296.7" width="31.8" height="31.77" rx="1" />
    <rect class="color-trd" x="113.9" y="296.7" width="31.8" height="31.77" rx="1" />
    <rect class="color-fst" x="57.9" y="148.4" width="98.7" height="62.19" rx="2.2" />
    <rect class="color-scd" x="62.7" y="175.3" width="42.9" height="136.17" rx="1.3" />
    <rect class="color-scd" x="107.5" y="175.3" width="41.9" height="136.17" rx="1.3" />
    <path class="color-trd" d="M169.1,21.9V161.8c0,2.6-1.8,5-4.4,5s-11.9,1.5-11.7-5V40.8a2.8,2.8,0,0,0-2.7-3c-4.2-.1-2.2,8.1-2.7,10.5l4,15.2a5.4,5.4,0,0,1-4,6.8v91.2c.1,2.7-2,5.4-4.6,5.3-2.6-1.6-81.1,3.9-79.1-3.4-.9-1.7,0-91.1-.3-93a5.3,5.3,0,0,1-4.1-6.7L63.6,48V40.8a2.7,2.7,0,1,0-5.4,0V162a4.9,4.9,0,0,1-2.4,4.3c-1.3,1.2-8,.2-9.5.5s-4.2-2.3-4.2-4.8V18.9C42.1,8.5,49.5,0,58.6,0h94C162.9-.2,170.3,10.9,169.1,21.9Z" />
</svg>
