<svg xmlns="http://www.w3.org/2000/svg" viewBox="0 0 252.3 384.9">
    <rect x="69.3" y="280.6" width="110.5" height="73.09" fill="#bcbcbb"/>
    <rect x="19.6" y="56.9" width="213.1" height="169.05" rx="8.7" fill="#bcbcbb"/>
    <rect x="13.5" y="206.9" width="226" height="26.22" fill="#a9a9aa"/>
    <rect x="10.1" y="221.5" width="233.8" height="64.72" fill="#858585"/>
    <rect x="0.6" y="189.1" width="19" height="195.83" rx="1" fill="#434342"/>
    <rect x="232.7" y="189.1" width="19" height="195.83" rx="1" fill="#434342"/>
    <rect x="63.7" y="345.3" width="122.7" height="22.88" rx="0.7" fill="#919191"/>
    <path d="M38.6,139.2c0,4.5-4.9,5-8.4,4.7v27.3c.1,6.9-6.7,9.8-12.8,9a9.1,9.1,0,0,1-9-9V143.9c-9.5,1.7-11.3-8.4-3.6-9.5h29A4.8,4.8,0,0,1,38.6,139.2Z" fill="#919191"/>
    <path d="M252.3,139.2c0,4.5-4.9,5-8.4,4.7v27.3c.1,6.9-6.7,9.8-12.8,9a9.1,9.1,0,0,1-9-9V143.9c-9.5,1.7-11.3-8.4-3.6-9.5h29A4.8,4.8,0,0,1,252.3,139.2Z" fill="#919191"/>
    <rect class="trd-color" x="81.7" y="338.5" width="37.6" height="37.62" rx="1"/>
    <rect class="trd-color" x="134.8" y="338.5" width="37.6" height="37.62" rx="1"/>
    <rect class="trd-color" x="60.9" y="162.9" width="130" height="73.65" rx="2.2"/>
    <rect class="fst-color" x="74.3" y="194.7" width="50.8" height="161.24" rx="1.3" />
    <rect class="fst-color" x="127.3" y="194.7" width="49.7" height="161.24" rx="1.2" />
    <path class="scd-color" d="M224.7,25.2V186.1c.1,8-13.1,5.5-18.2,5.8s-6.8-2.6-6.8-5.8V47c0-4.6-8.4-4.6-8.4,0V185.8c0,3.4-3.3,6.1-7.3,6.1H67.8c-4,0-7.2-2.7-7.2-6.1V47c.1-4.6-8.5-4.6-8.4,0V186.3c0,3.1-3,5.6-6.6,5.6s-18.6,2.5-18.5-5.6V28.3c0-2,.1-4.5,0-6.5C27.1,9.7,38.6,0,52.9,0H199C214.8.1,226.3,11.5,224.7,25.2Z" />
</svg>
