<svg xmlns="http://www.w3.org/2000/svg" viewBox="0 0 4.452 4.95">
    <g>
      <path d="M.892.334a.057.057,0,0,1-.113,0A.057.057,0,0,1,.892.334Z" fill="#c69f74"/>
      <path d="M1.051.208A.056.056,0,0,1,1.115.115.056.056,0,0,1,1.051.208Z" fill="#c69f74"/>
      <path d="M1.434.333a.057.057,0,0,1-.113,0A.057.057,0,0,1,1.434.333Z" fill="#c69f74"/>
      <path d="M1.655.063a.057.057,0,0,1-.113,0A.057.057,0,0,1,1.655.063Z" fill="#c69f74"/>
      <path d="M1.95.333a.057.057,0,0,1-.113,0A.057.057,0,0,1,1.95.333Z" fill="#c69f74"/>
      <path d="M2.22.161a.057.057,0,0,1-.113,0A.057.057,0,0,1,2.22.161Z" fill="#c69f74"/>
      <path d="M2.515.333a.057.057,0,0,1-.113,0A.057.057,0,0,1,2.515.333Z" fill="#c69f74"/>
      <path d="M2.791.055a.057.057,0,0,1-.113,0A.057.057,0,0,1,2.791.055Z" fill="#c69f74"/>
      <path d="M3.086.325a.057.057,0,0,1-.113,0A.057.057,0,0,1,3.086.325Z" fill="#c69f74"/>
      <path d="M3.356.153a.057.057,0,0,1-.113,0A.057.057,0,0,1,3.356.153Z" fill="#c69f74"/>
      <path d="M3.651.325a.057.057,0,0,1-.113,0A.057.057,0,0,1,3.651.325Z" fill="#c69f74"/>
    </g>
    <path d="M1.434,4.872l-.03,0h0a.121.121,0,0,1-.23,0,.121.121,0,0,1-.2-.072.122.122,0,0,1-.225-.069.126.126,0,0,1-.2-.134c-.1.052-.2-.058-.171-.161a.135.135,0,0,1-.122-.182.144.144,0,0,1-.027-.241.143.143,0,0,1-.07-.23.143.143,0,0,1-.011-.253.144.144,0,0,1-.018-.237.142.142,0,0,1-.043-.253.143.143,0,0,1-.012-.255A.049.049,0,0,1,.13,2.7V2.516C.522,4.23,1.41,3.581,1.434,4.872Z" fill="#1a1a1a"/>
    <path d="M4.414,3.163a.134.134,0,0,1-.1.135.144.144,0,0,1-.018.237.144.144,0,0,1,0,.25.14.14,0,0,1-.073.236.14.14,0,0,1-.086.2.129.129,0,0,1-.124.127.129.129,0,0,1-.149.146.127.127,0,0,1-.173.14.124.124,0,0,1-.2.108.123.123,0,0,1-.207.091.12.12,0,0,1-.214.031L3,4.871c.034-1.277.908-.634,1.3-2.327V2.7a.056.056,0,0,1,.062.09.141.141,0,0,1-.006.263A.136.136,0,0,1,4.414,3.163Z" fill="#1b1b1b"/>
    <circle cx="1.26" cy="3.247" r="0.255" fill="#1a1a1a"/>
    <circle cx="3.183" cy="3.247" r="0.255" fill="#1a1a1a"/>
</svg>
