<svg xmlns="http://www.w3.org/2000/svg" viewBox="0 0 4.45 4.95">
  <g>
    <g>
      <path d="M.89.33a.06.06,0,1,1-.11,0A.06.06,0,0,1,.89.33Z" fill="#c69f74"/>
      <path d="M1.05.21c-.06,0,0-.14.06-.1A.06.06,0,1,1,1.05.21Z" fill="#c69f74"/>
      <path d="M1.43.33c0,.08-.11.08-.11,0S1.44.26,1.43.33Z" fill="#c69f74"/>
      <path d="M1.66.06a.06.06,0,1,1-.12,0C1.54,0,1.66,0,1.66.06Z" fill="#c69f74"/>
      <path d="M2,.33a.06.06,0,1,1-.11,0A.06.06,0,0,1,2,.33Z" fill="#c69f74"/>
      <path d="M2.22.16a.06.06,0,0,1-.11,0A.06.06,0,0,1,2.22.16Z" fill="#c69f74"/>
      <path d="M2.52.33a.06.06,0,0,1-.12,0C2.4.26,2.52.26,2.52.33Z" fill="#c69f74"/>
      <path d="M2.79.06a.06.06,0,0,1-.11,0A.06.06,0,1,1,2.79.06Z" fill="#c69f74"/>
      <path d="M3.09.33C3.09.4,3,.4,3,.33A.06.06,0,1,1,3.09.33Z" fill="#c69f74"/>
      <path d="M3.36.15a.06.06,0,0,1-.12,0C3.24.08,3.36.08,3.36.15Z" fill="#c69f74"/>
      <path d="M3.65.33a.06.06,0,0,1-.11,0A.06.06,0,1,1,3.65.33Z" fill="#c69f74"/>
    </g>
    <path d="M1.43,4.87h0a.12.12,0,0,1-.23,0A.12.12,0,0,1,1,4.79a.12.12,0,0,1-.23-.07.12.12,0,0,1-.19-.13.13.13,0,0,1-.17-.16.14.14,0,0,1-.13-.18A.14.14,0,0,1,.23,4a.14.14,0,0,1-.07-.23.15.15,0,0,1,0-.26.14.14,0,0,1,0-.23A.15.15,0,0,1,.09,3a.14.14,0,0,1,0-.25s0-.09.06-.08V2.52C.52,4.23,1.41,3.58,1.43,4.87Z" fill="#1a1a1a"/>
    <path d="M4.41,3.16a.13.13,0,0,1-.1.14.15.15,0,0,1,0,.24.13.13,0,0,1,0,.24A.15.15,0,0,1,4.22,4a.15.15,0,0,1-.09.2A.12.12,0,0,1,4,4.34a.13.13,0,0,1-.15.15.13.13,0,0,1-.18.14.12.12,0,0,1-.2.11.12.12,0,0,1-.2.09.12.12,0,0,1-.22,0H3c0-1.28.91-.63,1.3-2.33V2.7c.06,0,.1,0,.06.09a.14.14,0,0,1,0,.26A.14.14,0,0,1,4.41,3.16Z" fill="#1b1b1b"/>
    <circle cx="1.26" cy="3.25" r="0.25" fill="#1a1a1a"/>
    <circle cx="3.18" cy="3.25" r="0.25" fill="#1a1a1a"/>
  </g>
</svg>
