<svg xmlns="http://www.w3.org/2000/svg" viewBox="0 0 2.355 2.373">
    <path d="M1.862.447A.247.247,0,1,0,2.109.2.246.246,0,0,0,1.862.447Z" fill="#1a1a1a"/>
    <path d="M.207,1a.14.14,0,0,0,0,.257A.141.141,0,0,0,.3,1.5c-.055.137.126.3.246.332a.144.144,0,0,0,.174.151.144.144,0,0,0,.2.144.147.147,0,0,0,.233.111.147.147,0,0,0,.242.094C3.716,2.438.67,1.277.68.073" fill="#1b1b1b"/>
    <path d="M0,.438v.1a.4.4,0,0,0,.4.4H.572A.109.109,0,0,0,.682.83V.109A.109.109,0,0,0,.572,0H.438A.438.438,0,0,0,0,.438Z" fill="#cda880"/>
</svg>
