<svg xmlns="http://www.w3.org/2000/svg" id="ship-symbol" viewBox="0 0 62.4 36.5">
    <path d="M37.1,22.3V2.8A2.8,2.8,0,0,1,39.9,0H52a2.9,2.9,0,0,1,2.8,2.8V22.7" fill="#b36673"/>
    <path d="M.9,28.9l32.2.3H1.6A.9.9,0,0,1,.9,28.9Z" fill="#8f2b33"/>
    <path d="M56.2,28.1h0a.9.9,0,0,1-.9,1H50.8Z" fill="#8f2b33"/>
    <path d="M38.5,17.3V5.3a2.7,2.7,0,0,1,2.7-2.7,2.7,2.7,0,0,1,2.7,2.7v12" fill="#9a424e"/>
    <rect x="36.8" width="18.1" height="1.58" rx="0.8" fill="#8f2b33"/>
    <path d="M57.4,27.9,60.7,25v8.4c-3.3,2.5-9.6,2.7-9.6,2.7l-48.3.4C.1,33.5.7,28.9.7,28.9" fill="#a05360"/>
    <path d="M54.8,12.7a3.2,3.2,0,0,0-1.4-.3h-4a2.8,2.8,0,0,0-2.9,2.8v.7H41.7V14.5h4.2l.2-.2a.2.2,0,0,0,.2-.2.4.4,0,0,0-.4-.4H41.7v-.6h4.4c.1,0,.2-.1.2-.3s-.2-.3-.4-.3H41.7V11.3h-.3a.3.3,0,0,0-.3.3v.9H36.7V11.3h-.3a.3.3,0,0,0-.3.3v.9H31.8v-.9c0-.1,0-.2-.1-.2h-.2c-.2,0-.4.1-.4.3v.9H26.9v-.9c0-.1,0-.2-.1-.2s-.1-.1-.2-.1a.3.3,0,0,0-.3.3v.9H21.9v-.9c0-.1,0-.2-.1-.2s-.1-.1-.2-.1a.3.3,0,0,0-.3.3v.9H17.1V11.3h-.2c-.2,0-.4.1-.4.3v.9h-4V11.3H12a.3.3,0,0,0-.3.3v.9H7.4V11.3H7a.3.3,0,0,0-.3.3v.9H2.5v-.9c0-.1,0-.2-.1-.2H2.2c-.2,0-.4.1-.4.3v.9H.4c-.1,0-.1.1-.1.2s.1.4.4.4H1.8v.6H.7c-.2,0-.3,0-.3.1a.4.4,0,0,0,.3.7H1.8v1.3H1.6a.9.9,0,0,0-.9.9V28.2a1.4,1.4,0,0,0,.2.7l32.2.3H50.8l5.4-1.1V15.2A2.7,2.7,0,0,0,54.8,12.7Zm-18.1.4H41v.6H36.7Zm-4.9,0H36v.6H31.8Zm-4.9,0h4.2v.6H26.9Zm-5,0h4.4v.6H21.9Zm-4.8,0h4.2v.6H17.1Zm-4.7,0h4v.6h-4Zm-5,0h4.3v.6H7.4Zm-4.9,0H6.7v.6H2.5Zm0,2.8h0V14.5H6.7v1.3H2.5Zm4.9,0h0V14.5h4.3v1.3H7.4Zm4.9,0h.1V14.5h4v1.3H12.3Zm4.8,0h0V14.5h4.2v1.3H17.1Zm4.8,0h0V14.5h4.4v1.3H21.9Zm5,0h0V14.5h4.2v1.3H26.9Zm4.9,0h0V14.5H36v1.3H31.8Zm4.9,0h0V14.5H41v1.3H36.7Z" fill="#8f2b33"/>
    <rect x="46.7" y="3.1" width="5.8" height="5.83" rx="2.9" fill="#9a424e"/>
    <rect x="4.5" y="20" width="4.3" height="4.34" rx="2.2" fill="#9a424e"/>
    <rect x="11.3" y="20" width="4.3" height="4.34" rx="2.2" fill="#9a424e"/>
    <rect x="18.4" y="20" width="4.3" height="4.34" rx="2.2" fill="#9a424e"/>
    <rect x="25.5" y="20" width="4.3" height="4.34" rx="2.2" fill="#9a424e"/>
    <rect x="32.4" y="20" width="4.3" height="4.34" rx="2.2" fill="#9a424e"/>
    <rect x="39.2" y="20" width="4.3" height="4.34" rx="2.2" fill="#9a424e"/>
    <rect x="46.3" y="20" width="4.3" height="4.34" rx="2.2" fill="#9a424e"/>
    <path d="M0,29.1a.5.5,0,0,0,.5.5H48.1s9.9.4,14.2-4.8c.1,0,.1-.2.1-.3h0c0-.4-.2-1-.8-.4s-6.2,4.4-13.5,4.3H.5a.5.5,0,0,0-.5.5Z" fill="#9a424e"/>
</svg>