<svg  version="1.1" xmlns="http://www.w3.org/2000/svg" xmlns:xlink="http://www.w3.org/1999/xlink" id="crane-symbol" viewBox="0 0 118.4 118.4">
<path fill="#8f2a32" d="M118.4,15.4H39.9V86.3L38.2,86H32.5V15.4H8V9.7H32.6a2.2,2.2,0,0,1,1-1.3V3.7a.8.8,0,0,1,.6-.8h3.4a.8.8,0,0,1,.5.8V8.1a2.2,2.2,0,0,1,1.6,1.6h73A5.6,5.6,0,0,1,118.4,15.4Z"/>
<g fill="none" stroke="#8f2a32" stroke-linecap="round" stroke-linejoin="round" stroke-width="0.5">
    <line x1="105.6" y1="58.6" x2="105.6" y2="56.9"/>
    <path d="M105.3,58.6c.8.2,1.3.8,1.2,1.4a1.5,1.5,0,0,1-1.2.9"/>
</g>
<g fill="none" stroke="#a45352" stroke-linecap="round" stroke-width="0.15">
    <path d="M32.5,15.4l7,7a.6.6,0,0,1,0,.8l-6.8,8c-.2.1-.2.3,0,.5l6.9,8.2c.2.1.2.3,0,.5l-6.9,8.5a.2.2,0,0,0,0,.4l6.9,8.2c.2.2.2.4.1.5l-7,8.8c-.2.2-.2.4,0,.5l6.9,7.6a.3.3,0,0,1,0,.5l-7.1,8.4"/>
    <path d="M39.9,15.4l-6.9,7a.6.6,0,0,0-.1.8l6.7,8c.2.1.2.3,0,.5l-6.8,8.2a.3.3,0,0,0,0,.4l6.9,8.5a.3.3,0,0,1-.1.5l-6.8,8.2a.4.4,0,0,0,0,.5l6.9,8.8c.1.1.1.3-.1.5l-6.8,7.5a.4.4,0,0,0,0,.5l7.1,8.4"/>
    <path d="M113.8,10l-5.4,5H108l-6.3-5h-.4l-5.9,5h-.3L89,10h-.4l-5.9,5h-.4l-5.7-4.9H76L70.1,15h-.3l-6.1-5h-.4s-6.1,5.1-6.3,5l-5.5-5h-.4l-5.5,5h-.3L38.9,9.9h-.3l-6,5.1h-.3L26.2,9.9h-.4L19.9,15h-.3L13.8,10h-.6L8.1,15.1"/>
    <path d="M113.8,14.9,108.3,10H108l-6.4,4.9h-.3L95.4,10H95l-6.1,4.9h-.4L83.1,10h-.4l-6.3,5H76L70.1,10h-.3l-6.1,5h-.4L57.4,10H57l-5.6,4.8H51L45.6,9.9h-.4l-6.3,5h-.4l-5.9-5h-.3l-6.1,5h-.4l-5.9-5h-.4l-5.7,4.9a.5.5,0,0,1-.6-.1L8.1,9.8"/>
</g>
<g fill="#9a424e">
    <path d="M37.6,1.3V2.9H34.2V1.3A1.3,1.3,0,0,1,35.5,0h.7A1.3,1.3,0,0,1,37.6,1.3Z"/>
    <path d="M8,10v5.6a2.6,2.6,0,0,1-2.6,2.6H2.6A2.6,2.6,0,0,1,0,15.6V10A2.6,2.6,0,0,1,2.6,7.4H5.4A2.7,2.7,0,0,1,8,9.7Z"/>
    <path d="M46.1,113.5V117a1.4,1.4,0,0,1-1.4,1.4H27a1.4,1.4,0,0,1-1.4-1.4v-3.5a1.3,1.3,0,0,1,1.4-1.3h1.5V90.8a4.8,4.8,0,0,1,4-4.8h5.7l1.7.3a5.2,5.2,0,0,1,3.4,4.8v21.1h1.4A1.3,1.3,0,0,1,46.1,113.5Z"/>
    <path d="M107.6,54v3a.5.5,0,0,1-.5.5h-2.4a.5.5,0,0,1-.5-.5V54a.5.5,0,0,1,.5-.5h.6V15.4h1.2V53.5h.6A.5.5,0,0,1,107.6,54Z"/>
    <rect x="31.9" y="16.5" width="8.5" height="2.85" rx="0.9"/>
    <rect x="66.9" y="9.1" width="8.5" height="6.83" rx="0.8"/>
</g>
</svg>