<?xml version="1.0" encoding="utf-8"?>
<!-- Generator: Adobe Illustrator 26.3.1, SVG Export Plug-In . SVG Version: 6.00 Build 0)  -->
<svg version="1.1" id="crane-symbol" xmlns="http://www.w3.org/2000/svg" xmlns:xlink="http://www.w3.org/1999/xlink" x="0px"
	 y="0px" viewBox="0 0 118.4 118.4" style="enable-background:new 0 0 118.4 118.4;" xml:space="preserve">
<style type="text/css">
	.st0{fill:#8F2A32;}
	.st1{fill:#9A424E;}
</style>
<path class="st0" d="M78.5,86.3l7.4-0.3L85.8,9.7c-0.2-0.5-0.5-1-1-1.3V3.7c0-0.4-0.2-0.7-0.6-0.8h-3.4c-0.3,0.1-0.5,0.5-0.5,0.8
	v4.4c-0.8,0.2-1.4,0.8-1.6,1.6L78.5,86.3z"/>
<path class="st1" d="M80.8,1.3v1.6h3.4V1.3c0-0.7-0.6-1.3-1.3-1.3h-0.7c-0.7-0.1-1.3,0.5-1.4,1.2C80.8,1.2,80.8,1.3,80.8,1.3z"/>
<path class="st1" d="M72.3,113.5v3.5c0,0.8,0.6,1.4,1.4,1.4h0h17.7c0.8,0,1.4-0.6,1.4-1.4l0,0v-3.5c0-0.7-0.6-1.3-1.3-1.3
	c0,0-0.1,0-0.1,0h-1.5V90.8c0-2.4-1.7-4.4-4-4.8h-5.7l-1.7,0.3c-2,0.7-3.4,2.7-3.4,4.8v21.1h-1.4c-0.7-0.1-1.3,0.5-1.4,1.2
	C72.3,113.4,72.3,113.5,72.3,113.5z"/>
<path class="st1" d="M85.6,16.5h-6.7c-0.5,0-0.9,0.4-0.9,0.9v1.1c0,0.5,0.4,0.9,0.9,0.9h6.7c0.5,0,0.9-0.4,0.9-0.9v-1.1
	C86.5,16.9,86.1,16.5,85.6,16.5z"/>
<path class="st0" d="M0,15.4h110.4V9.7L5.7,9.7C2.6,9.6,0.1,12.1,0,15.2C0,15.3,0,15.3,0,15.4z"/>
<path class="st1" d="M110.4,10v5.6c0,1.4,1.2,2.6,2.6,2.6l0,0h2.8c1.4,0,2.6-1.2,2.6-2.6c0,0,0,0,0,0V10c0-1.4-1.2-2.6-2.6-2.6l0,0
	H113c-1.3,0-2.4,1-2.6,2.3V10z"/>
<path class="st1" d="M50.7,9.1h-6.9c-0.4,0-0.8,0.4-0.8,0.8v5.2c0,0.4,0.4,0.8,0.8,0.8h6.9c0.4,0,0.8-0.4,0.8-0.8V9.9
	C51.5,9.5,51.1,9.1,50.7,9.1z"/>
<path class="st1" d="M11.3,53.5h2.4c0.3,0,0.5,0.2,0.5,0.5v3c0,0.3-0.2,0.5-0.5,0.5h-0.6v0.9c0.1,0,0.3,0.1,0.3,0.2
	c0,0.1,0,0.3-0.2,0.3c-0.7,0.2-1.1,0.6-1,1.1c0.2,0.4,0.6,0.7,1,0.8c0.1,0,0.2,0.1,0.2,0.3c0,0.1-0.1,0.2-0.2,0.2c0,0,0,0,0,0
	c-0.6-0.1-1.2-0.5-1.4-1.1c-0.1-0.6,0.3-1.2,0.9-1.5v-1h-1.3c-0.3,0-0.5-0.2-0.5-0.5v-3C10.8,53.7,11,53.5,11.3,53.5z"/>
<path class="st1" d="M13.1,53.5V15.4h-1.2v38.1"/>
</svg>
