<svg xmlns="http://www.w3.org/2000/svg" viewBox="0 0 1819.8 1067.9">
  <g>
    <path d="M1807.8,769.2h-5.3a14.9,14.9,0,0,0,.6-4.3V494.3a16.4,16.4,0,0,0-16.3-16.4h-193V189.4a24.5,24.5,0,0,0-24.4-24.5H1515V25.6A25.6,25.6,0,0,0,1489.4,0H1274.7a25.6,25.6,0,0,0-25.6,25.6V87.9h-48.8a43.3,43.3,0,0,0-41.6,31.8H1001.3V67.3a38.7,38.7,0,0,0-38.7-38.7H426.2a38.8,38.8,0,0,0-38.8,38.7V174.2a38.8,38.8,0,0,0,38.8,38.7h30a16.2,16.2,0,0,0-.1,2.2v14.8H47.2A47.2,47.2,0,0,0,0,277.2V657.3a47.2,47.2,0,0,0,47.2,47.2H198v318.6a20.9,20.9,0,0,0,20.9,20.8H438.2a16.7,16.7,0,0,0,16.8,16H627.3a16.8,16.8,0,0,0,16.8-16.8V910.9h182v129c0,15.5,11.6,28,25.9,28h555.3c14.3,0,25.8-12.5,25.8-28V781.2h56.2V886.6a16.3,16.3,0,0,0,16.3,16.3h57v135.5a12,12,0,0,0,12,12h233.2a12,12,0,0,0,12-12V781.3A12.1,12.1,0,0,0,1807.8,769.2Z" fill="#bde3f4"/>
    <g>
      <path d="M575.2,282.9v9a16.3,16.3,0,0,1-16.4,16.4h-7.4v57.8A14.9,14.9,0,0,1,536.5,381H515.9v2.7a6.8,6.8,0,0,1-6.8,6.8h-1.9a6.7,6.7,0,0,1-6.7-6.8V381H393.9v31.8h21.3a10,10,0,0,1,10,10v20.3a10,10,0,0,1-10,10H319.7v13.3A12.5,12.5,0,0,1,307.1,479H259.3v28.7h7.3a14.9,14.9,0,0,1,14.9,14.9v22.6a14.9,14.9,0,0,1-14.9,14.9h-10V577a10.7,10.7,0,0,1-10.7,10.7h-3.6v6.9h44.8A10.4,10.4,0,0,1,297.5,605v13.2a10.4,10.4,0,0,1-10.4,10.3H265.6V648a12.3,12.3,0,0,1-12.3,12.3H214.4A12.4,12.4,0,0,1,202,648V620.6H136.1a11.6,11.6,0,0,1-11.5-11.5V587.7h-6.3v13.2A10.1,10.1,0,0,1,108.2,611h-3.3a11,11,0,0,1,1.2,5.1v32.8a11.4,11.4,0,0,1-11.4,11.4H85.9v13.2a9.2,9.2,0,0,1-3.4,7.1,6.6,6.6,0,0,1-4.7,2H32.1a6.5,6.5,0,0,1-6.6-6.6v-2.2a6.6,6.6,0,0,1,6.6-6.6H63.7v-6.9H22.1a8.3,8.3,0,0,1-8.3-8.2v-4.2a8.3,8.3,0,0,1,8.3-8.2H56.8V616.1a6.6,6.6,0,0,1,.1-1.4H50.6a8.1,8.1,0,0,1-8.1-8.1v-3.9a8.1,8.1,0,0,1,8.1-8.1H78.5v-4.2H70.6a7,7,0,0,1-6.9-7v-.9a6.9,6.9,0,0,1,6.9-7h5.3V440.9H68.2a8.3,8.3,0,0,1-8.2-8.3v-3.1a8.2,8.2,0,0,1,8.2-8.2h87.7v-.5a7.6,7.6,0,0,1,7.5-7.5h5.7a7.6,7.6,0,0,1,7.5,7.5v.5h58.8v-4.6a10.4,10.4,0,0,1,10.4-10.3h13.5v-4.7a9.6,9.6,0,0,1,9.6-9.6h8.3a9.6,9.6,0,0,1,9.6,9.6v11.1h72.1v-52a12.7,12.7,0,0,1,12.7-12.7h53.6V281.9A14.9,14.9,0,0,1,440.1,267h14.8v-.6a9.5,9.5,0,0,1,9.5-9.5h6.4v-1.5a7.6,7.6,0,0,1,7.5-7.5h5.6a7.6,7.6,0,0,1,7.6,7.5v1.5h33.4a9.5,9.5,0,0,1,9.5,9.5h24.4A16.3,16.3,0,0,1,575.2,282.9Z" fill="#6db7d2"/>
      <path d="M575.2,274.4v9a16.4,16.4,0,0,1-16.4,16.5h-7.4v57.7a14.9,14.9,0,0,1-14.9,14.9H515.9v2.8a6.8,6.8,0,0,1-6.8,6.7h-1.9a6.7,6.7,0,0,1-6.7-6.7v-2.8H393.9v31.8h21.3a10,10,0,0,1,10,10v20.3a10,10,0,0,1-10,10H319.7v13.3a12.6,12.6,0,0,1-12.6,12.7H259.3v28.6h7.3a14.9,14.9,0,0,1,14.9,14.9v22.6a14.9,14.9,0,0,1-14.9,15h-10v16.8a10.7,10.7,0,0,1-10.7,10.7h-3.6v6.9h44.8a10.5,10.5,0,0,1,10.4,10.4v13.2A10.4,10.4,0,0,1,287.1,620H265.6v19.5a12.3,12.3,0,0,1-12.3,12.3H214.4A12.4,12.4,0,0,1,202,639.5V612.1H136.1a11.1,11.1,0,0,1-5.4-1.4,11.4,11.4,0,0,1-6.1-10.1V579.2h-6.3v13.2a10.1,10.1,0,0,1-10.1,10.1h-3.3a11.3,11.3,0,0,1,1.2,5.1v32.8a11.4,11.4,0,0,1-11.4,11.4H85.9V665a9,9,0,0,1-3.4,7.1,6.6,6.6,0,0,1-4.7,2H32.1a6.5,6.5,0,0,1-6.6-6.5v-2.3a6.6,6.6,0,0,1,6.6-6.6H63.7v-6.9H22.1a8.3,8.3,0,0,1-8.3-8.2v-4.2a8.3,8.3,0,0,1,8.3-8.2H56.8V607.6a5.3,5.3,0,0,1,.1-1.3H50.6a8.2,8.2,0,0,1-8.1-8.2v-3.9a8.1,8.1,0,0,1,8.1-8.1H78.5v-4.2H70.6a6.9,6.9,0,0,1-6.9-7V574a6.9,6.9,0,0,1,6.9-7h5.3V432.4H68.2a8.2,8.2,0,0,1-8.2-8.2V421a8.2,8.2,0,0,1,8.2-8.2h87.7v-.4a7.4,7.4,0,0,1,4.1-6.7,6.7,6.7,0,0,1,3.4-.9h5.7a10.9,10.9,0,0,1,2.5.4,7.7,7.7,0,0,1,5,7.2v.4h58.8v-4.5a10.4,10.4,0,0,1,10.4-10.4h13.5v-4.7a9.6,9.6,0,0,1,9.6-9.6h8.3a9.6,9.6,0,0,1,9.6,9.6v11.1h72.1v-52a12.7,12.7,0,0,1,12.7-12.7h53.6V273.4a14.9,14.9,0,0,1,14.9-14.9h14.8v-.6a9.5,9.5,0,0,1,9.5-9.5h6.4V247a7.6,7.6,0,0,1,7.5-7.6h5.6a7.6,7.6,0,0,1,7.6,7.6v1.4h33.4a9.5,9.5,0,0,1,9.5,9.5h24.4A16.3,16.3,0,0,1,575.2,274.4Z" fill="#81c5dd"/>
    </g>
    <g>
      <path d="M657.6,817.9v28.3a5.5,5.5,0,0,1-5.5,5.4h-2.6a5.4,5.4,0,0,1-5.5-5.4v-7h-6.9a12.5,12.5,0,0,1-12.4,10.7H609.9v16.2a17.2,17.2,0,0,1-17.3,17.3H561.7v138.1a14.4,14.4,0,0,1-14.4,14.5H492.8a14.4,14.4,0,0,1-14.4-14.5V987.8H464.9a25.7,25.7,0,0,1-25.7-25.7V939H332.6v29.9a13.8,13.8,0,0,1-13.7,13.8h-1.6v23.9a18.1,18.1,0,0,1-18.1,18H271.8a18.1,18.1,0,0,1-18-18V982.7H243.1a13.7,13.7,0,0,1-13.7-13.8v-36a13.7,13.7,0,0,1,13.7-13.8h6.1V890.8H223.8a8,8,0,0,1-8-8v-7.3a8,8,0,0,1,8-8h35.6a8,8,0,0,1,8,8v1.7h5.8A11.8,11.8,0,0,1,285,889v11.4h19.8V857.3H294.6v5.2a9.6,9.6,0,0,1-9.5,9.6h-.2a9.6,9.6,0,0,1-9.6-9.6v-5.2h-6.6a24.6,24.6,0,0,1-24.6-24.5V816.7a24.6,24.6,0,0,1,24.6-24.6h13.4V756.4a29.4,29.4,0,0,1,4.4-14.4l1.8-2.6a28.8,28.8,0,0,1,8.5-7.4,29.1,29.1,0,0,1,14.7-4h8.1V700a25.8,25.8,0,0,1,25.8-25.9h37.1V662.8H379a15.2,15.2,0,0,1-15.2-15.2V613.9A15.2,15.2,0,0,1,379,598.7h3.5v-5.9a31,31,0,0,1,31-31h44.4V550.3a11.7,11.7,0,0,1,11.7-11.7h5.6a11.7,11.7,0,0,1,11.7,11.7v11.5h10.7V549.4a10.8,10.8,0,0,1,10.9-10.8h7.2a10.8,10.8,0,0,1,10.9,10.8v12.4h24.9a8.1,8.1,0,0,1,8.1-7.9h6a8,8,0,0,1,8,8.1V715h9.2a6.7,6.7,0,0,1,6.7,6.6v8.2a6.7,6.7,0,0,1-6.7,6.7h-9.2V766h19a17.3,17.3,0,0,1,17.3,17.3v9.4h14.8a12.4,12.4,0,0,1,12.5,12.4v3.4h11.1A9.4,9.4,0,0,1,657.6,817.9Z" fill="#7998b2"/>
      <rect x="425" y="1013.3" width="19.3" height="22.69" rx="7.7" fill="#7998b2"/>
      <path d="M657.6,811v28.4a5.5,5.5,0,0,1-5.5,5.4h-2.6a5.4,5.4,0,0,1-5.5-5.4v-7h-6.9a12.5,12.5,0,0,1-12.4,10.7H609.9v16.2a17.3,17.3,0,0,1-17.3,17.3H561.7v138.1a14.4,14.4,0,0,1-14.4,14.5H492.8a14.4,14.4,0,0,1-14.4-14.5V981H464.9a25.7,25.7,0,0,1-25.7-25.7V932.2H332.6v29.9a13.8,13.8,0,0,1-13.7,13.8h-1.6v23.9a18.1,18.1,0,0,1-18.1,18H271.8a18.1,18.1,0,0,1-18-18V975.9H243.1a13.7,13.7,0,0,1-13.7-13.8v-36a13.7,13.7,0,0,1,13.7-13.8h6.1V884H223.8a8,8,0,0,1-8-8v-7.3a8,8,0,0,1,8-8h35.6a8,8,0,0,1,8,8v1.7h5.8A11.8,11.8,0,0,1,285,882.2v11.4h19.8V850.5H294.6v5.2a9.6,9.6,0,0,1-9.5,9.6h-.2a9.6,9.6,0,0,1-9.6-9.6v-5.2h-6.6a24.6,24.6,0,0,1-24.6-24.6v-16a24.6,24.6,0,0,1,24.6-24.6h13.4V750.6a30.3,30.3,0,0,1,1.3-8.6,20,20,0,0,1,1-2.6,29.3,29.3,0,0,1,27.1-18.2h8.1V693.1a25.8,25.8,0,0,1,25.8-25.8h37.1V656H379a15.2,15.2,0,0,1-15-12.9,16.4,16.4,0,0,1-.2-2.3V607.1A15.2,15.2,0,0,1,379,591.9h3.5V586a31,31,0,0,1,31-31h44.4V543.5a11.7,11.7,0,0,1,11.7-11.7h5.6a11.7,11.7,0,0,1,11.7,11.7V555h10.7V542.6a10.8,10.8,0,0,1,10.9-10.8h7.2a10.8,10.8,0,0,1,10.9,10.8V555h24.9a8.1,8.1,0,0,1,8.1-7.9h6a8,8,0,0,1,8,8V708.2h9.2a6.6,6.6,0,0,1,6.7,6.6V723a6.7,6.7,0,0,1-6.7,6.7h-9.2v29.5h19a17.3,17.3,0,0,1,17.3,17.3v9.4h14.8a12.4,12.4,0,0,1,12.5,12.4v3.4h11.1A9.3,9.3,0,0,1,657.6,811Z" fill="#94b5dd"/>
      <rect x="425" y="1006.5" width="19.3" height="22.69" rx="7.7" fill="#94b5dd"/>
    </g>
    <g>
      <path d="M1508.8,410.8h-12.3V391.2a13.5,13.5,0,0,0-13.5-13.5h-24.5V351.1a19.3,19.3,0,0,0-19.3-19.3h-7.3V305.4a10.9,10.9,0,0,0-.1-1.8h49.4a19.6,19.6,0,0,0,17.6-10.9h3.9a14.5,14.5,0,0,0,14.5-14.5V265.1a14.5,14.5,0,0,0-14.5-14.6h-1.8V221.4a19.7,19.7,0,0,0-14.4-19v-12a11.7,11.7,0,0,0-11.7-11.7h-25.5a13.3,13.3,0,0,0,12.6-13.3V81.7h7.2a15.2,15.2,0,0,0,15.2-15.2V38.6a10,10,0,0,0-10-10h-18.6a9.9,9.9,0,0,0-10,10v3.2h-97.1A15.1,15.1,0,0,0,1333.5,57v9.5a15.1,15.1,0,0,0,15.1,15.2h13.2v12h-88.3a8.2,8.2,0,0,0-8.2,8.2v2.9a8.2,8.2,0,0,0,8.2,8.2h34.6v39.7a15.2,15.2,0,0,0,15.2,15.2H1362a13.5,13.5,0,0,0,13.2,10.9h29.9a11.6,11.6,0,0,0-10.9,11.6v11.3h-2.6a19.7,19.7,0,0,0-19.7,19.7v62.5a19.7,19.7,0,0,0,19.7,19.7h3.7a11,11,0,0,0-.2,1.8v26.4h-17.5a19.4,19.4,0,0,0-19.3,19.3v11.5h-20.2a19.5,19.5,0,0,0-19.6,19.5v23.1a13.6,13.6,0,0,0,13.5,13.5h82.4v41.6h-11.5a13.2,13.2,0,0,0-13.2,13.2V499a13.2,13.2,0,0,0,13.2,13.2h39.3a13.3,13.3,0,0,0,13.3-13.2V478.4h53.3a12.3,12.3,0,0,0,12.4-12.4V423.3A12.4,12.4,0,0,0,1508.8,410.8Z" fill="#2b4e83"/>
      <path d="M1549.2,310.8h-32.1v-53a14.5,14.5,0,0,0-14.6-14.5h-1.7V214.1a20.2,20.2,0,0,0-1.3-7,21.9,21.9,0,0,0-2.6-4.8l-1.3-1.5h0a2.3,2.3,0,0,0-.7-.7l-2-1.8h-.2l-1.2-.8-.5-.3a22.2,22.2,0,0,0-4.7-2v-12a11.6,11.6,0,0,0-11.6-11.6h-25.1a12.4,12.4,0,0,0,4.3-1.1,13.3,13.3,0,0,0,6.6-6.2,14.4,14.4,0,0,0,1.4-5.4V74.4h7.2a15.2,15.2,0,0,0,15.2-15.2V31.3a10,10,0,0,0-10-10h-18.6a10,10,0,0,0-10,10v3.3h-97.1a15.1,15.1,0,0,0-15.1,15.2v9.4a15.1,15.1,0,0,0,15.1,15.2h13.2V86.5h-88.3a8.2,8.2,0,0,0-8.2,8.2v2.9a8.2,8.2,0,0,0,8.2,8.2h34.6v39.7a15.2,15.2,0,0,0,8.5,13.6,15,15,0,0,0,6.7,1.6H1362a13.4,13.4,0,0,0,13.2,10.8H1405a11.7,11.7,0,0,0-10.9,11.6v11.3h-2.6a19.7,19.7,0,0,0-19.6,19.7v62.5a19.7,19.7,0,0,0,19.6,19.8h3.8a8.8,8.8,0,0,0-.2,1.7v26.5h-17.5a19.8,19.8,0,0,0-6,.9,17.6,17.6,0,0,0-3.9,1.9,19.2,19.2,0,0,0-9.4,16.5v11.4h-20.2a16.8,16.8,0,0,0-4.5.6,19.4,19.4,0,0,0-15,17.7c0,.4-.1.9-.1,1.3v23a13.6,13.6,0,0,0,13.5,13.6h82.4v41.6h-11.5a13.4,13.4,0,0,0-9.7,4.2,15,15,0,0,0-2.5,4,13.5,13.5,0,0,0-1,5v25.4a13.2,13.2,0,0,0,13.2,13.2h39.3a12.3,12.3,0,0,0,2.7-.2,12.1,12.1,0,0,0,3.2-1.1,13.6,13.6,0,0,0,5.8-5.6,14.8,14.8,0,0,0,1.6-6V471.2h53.3a12.2,12.2,0,0,0,7.7-2.7,12.8,12.8,0,0,0,4.5-7.2,21.1,21.1,0,0,0,.2-2.5V416a12.3,12.3,0,0,0-4.2-9.3h.1V356h32.1a13,13,0,0,0,13-13V323.8A13,13,0,0,0,1549.2,310.8Z" fill="#3b66af"/>
    </g>
    <g>
      <path d="M1420.1,837.8v.4a10.4,10.4,0,0,1-10.4,10.4h-88.2a22.3,22.3,0,0,1,1.8,9v45.9a23.7,23.7,0,0,1-23.7,23.7H1267v45.7h32.8a15.3,15.3,0,0,1,10.8,26.1,14.9,14.9,0,0,1-10.8,4.5h-33.2a25.4,25.4,0,0,1-24.9,21.1H1240v1.1a18.2,18.2,0,0,1-18.3,18.2H1013a18.2,18.2,0,0,1-18.2-16.4H977.7v.2a16.2,16.2,0,0,1-16.2,16.2H868.4a16.2,16.2,0,0,1-16.3-16.2v-6.3a16.3,16.3,0,0,1,16.3-16.2h81.7V948.4a21.1,21.1,0,0,1,19.4-21.1v-8.1a11.4,11.4,0,0,1,11.3-11.4h69.7V833.4a16.5,16.5,0,0,1,16.5-16.5h7.5V797.2a24.9,24.9,0,0,1,24.9-24.9h86.4a24.9,24.9,0,0,1,24.9,24.9v30.2h199A10.4,10.4,0,0,1,1420.1,837.8Z" fill="#4c998a"/>
      <path d="M1420.1,827.3v.3a10.4,10.4,0,0,1-10.4,10.4h-88.2a22.6,22.6,0,0,1,1.8,9v45.9a23.7,23.7,0,0,1-23.7,23.7H1267v45.8h32.8a15.2,15.2,0,0,1,15.3,15.2,15.4,15.4,0,0,1-15.3,15.3h-33.2a25.3,25.3,0,0,1-24.9,21.1H1240v1.1a18.3,18.3,0,0,1-18.3,18.3H1013a18.2,18.2,0,0,1-18.2-16.4H977.7v.2a16.3,16.3,0,0,1-16.2,16.2H868.4a16.3,16.3,0,0,1-16.3-16.2v-6.3a16.2,16.2,0,0,1,16.3-16.2h81.7V937.8a21.1,21.1,0,0,1,19.4-21.1v-8.1a11.3,11.3,0,0,1,11.3-11.3h69.7V822.9a16.5,16.5,0,0,1,16.5-16.6h7.5V786.6a25,25,0,0,1,24.9-24.9h86.4a25,25,0,0,1,24.9,24.9v30.3h199A10.3,10.3,0,0,1,1420.1,827.3Z" fill="#5db7a8"/>
    </g>
    <g>
      <path d="M1023.7,170c-1.4,4.8-2.9,9.5-4.3,14.1h1.5v.7h1.9v-.7h.6l.3-1v5.8c-.1.5-.1,1-.2,1.5a18.3,18.3,0,0,1-.7,3.2,1.4,1.4,0,0,1-.2.6,17.6,17.6,0,0,1-1.7,3.7,18.1,18.1,0,0,1-3.2,4.1,20.4,20.4,0,0,1-5.3,3.8,20.1,20.1,0,0,1-8.9,2.1H935.1v20.8a12.2,12.2,0,0,1-8.3,11.6,10.9,10.9,0,0,1-4,.7h-9.4v42.2a10.4,10.4,0,0,1-8.3,10.2l-2.1.2H869.4v41.9h0a17.3,17.3,0,0,1-17.3,16.4H703.8a17.4,17.4,0,0,1-17.3-17.3v-42a17.3,17.3,0,0,1,17.3-17.3h3.9V251.9H668.9a13.3,13.3,0,0,1-13.2-13.2V157H516.8v6.6a9.4,9.4,0,0,1-9.4,9.4H475.3a9.4,9.4,0,0,1-9.4-9.4V151.3H438.2a10.5,10.5,0,0,1-10.6-10.6v-9.2A10.5,10.5,0,0,1,438.2,121h26.6V109.4a18.1,18.1,0,0,1,18.1-18.1H705.4V85.6a13.2,13.2,0,0,1,13.1-13.2h76a13.2,13.2,0,0,1,13.2,13.2V149h195.8a19.3,19.3,0,0,1,11.4,3.6,8.3,8.3,0,0,1,1.8,1.3,20,20,0,0,1,6.9,13.6,9.7,9.7,0,0,1,.1,1.7Z" fill="#5ea3d2"/>
      <path d="M1023.7,161.8V170c-1.4,4.8-2.9,9.5-4.3,14.1h1.5v.7h1.9v-.7h.5a2,2,0,0,1-.1.7h0a38.8,38.8,0,0,1-1,3,3.7,3.7,0,0,1-.5,1.1,10.1,10.1,0,0,1-.7,1.5h-.1l-1.1,1.6a15.7,15.7,0,0,1-1.7,2.1l-2.6,2.3a14.8,14.8,0,0,1-2.7,1.6,19.1,19.1,0,0,1-9.3,2.3H935.1v20.8a12.3,12.3,0,0,1-8.3,11.7,10.9,10.9,0,0,1-4,.7h-9.4v42.2a10.3,10.3,0,0,1-10.1,10.3H869.4v41a17.8,17.8,0,0,1-1.1,6.1,17.4,17.4,0,0,1-16.2,11.2H703.8a17.4,17.4,0,0,1-17.3-17.3V285.1a17.3,17.3,0,0,1,17.3-17.2h3.9V244.4H668.9a15.3,15.3,0,0,1-3-.3,9.4,9.4,0,0,1-2.8-1,13.1,13.1,0,0,1-7.4-11.9V149.6H516.8v6.6a9.4,9.4,0,0,1-9.4,9.4H475.3a9.4,9.4,0,0,1-9.4-9.4V143.9H438.2a10.6,10.6,0,0,1-10.6-10.6v-9.2a10.5,10.5,0,0,1,10.6-10.5h26.6V102a18.2,18.2,0,0,1,18.1-18.2H705.4V78.1A13.1,13.1,0,0,1,718.5,65h76a13.2,13.2,0,0,1,13.2,13.1v63.5h196.1a20.1,20.1,0,0,1,17.7,11A19.8,19.8,0,0,1,1023.7,161.8Z" fill="#85c4ec"/>
    </g>
    <g>
      <g>
        <path d="M1575.7,742.6h13.2v-5h-13.2a21.3,21.3,0,0,1-21.3-20.8v4.5A21.3,21.3,0,0,0,1575.7,742.6Z" fill="#65967e"/>
        <path d="M1572.6,564.7h0v0Z" fill="#65967e"/>
        <path d="M1643.1,980a15.1,15.1,0,0,1-3.5-1.4A15.1,15.1,0,0,0,1643.1,980Z" fill="#65967e"/>
        <path d="M1608.9,911.9h34.8v-5h-34.8A23.3,23.3,0,0,1,1586,884v4.5A23.5,23.5,0,0,0,1608.9,911.9Z" fill="#65967e"/>
        <path d="M1660.6,980.4a20,20,0,0,0,1.6,2.4,20,20,0,0,1-1.6-2.4Z" fill="#65967e"/>
        <path d="M1665,985.8a26.2,26.2,0,0,0,3.4,2.4l1,.5-1-.5A26.2,26.2,0,0,1,1665,985.8Z" fill="#65967e"/>
        <path d="M1472.4,598.1H1460v7a19.6,19.6,0,0,1-19.6,19.6H1414a19.5,19.5,0,0,1-19.6-18.9v4.4a19.6,19.6,0,0,0,19.6,19.6h26.4a19.6,19.6,0,0,0,19.6-19.6v-7.1h12.4Z" fill="#65967e"/>
        <path d="M1521.8,645.8H1493l-1.8.2h-5a13.8,13.8,0,0,1-13.8-13.5v4.7a13.8,13.8,0,0,0,13.8,13.8h35.6Z" fill="#65967e"/>
        <path d="M1585.9,855.8h-43a17.3,17.3,0,0,1-17.3-16.7v4.5a17.3,17.3,0,0,0,17.3,17.3h43Z" fill="#65967e"/>
        <path d="M1543.9,686h10.4v-5.1h-10.4a22,22,0,0,1-22.1-21.4v4.4A22.1,22.1,0,0,0,1543.9,686Z" fill="#65967e"/>
      </g>
      <path d="M1799.5,971.9v-4.7a22.8,22.8,0,0,0-.2-2.6h0V926.6a20,20,0,0,0-6.8-15.1h0V896.9a17.2,17.2,0,0,0-17.2-17.2h-.2V845.2a23.5,23.5,0,0,0-23.5-23.5h-9.9l-.7-.7h0v-6.7a15.3,15.3,0,0,0-6.4-12.5,17.1,17.1,0,0,0-10.4-15.4h0V746.2a19.2,19.2,0,0,0-1.1-5.4,20.9,20.9,0,0,0-1.9-4l-1.3-2a27.3,27.3,0,0,0-3.4-3.4,25.7,25.7,0,0,0-4.1-2.6h0V674.6a21.4,21.4,0,0,0-21.4-21.4h-.4V618.7c0-1.1-.1-2.2-.2-3.3a6.8,6.8,0,0,0,4.9-6.5v-5.6a6.7,6.7,0,0,0-6.8-6.7h-15.9V545a14.8,14.8,0,0,0-26.3-9.4h-16.8a12.3,12.3,0,0,0-12.3,12.3v16.8h-44.6v-7.8a19.6,19.6,0,0,0-19.6-19.6h-20.6a12.2,12.2,0,0,0-8.1-3.1h-5.1a12.3,12.3,0,0,0-12.3,12.3v40H1505v-2.8a13.8,13.8,0,0,0-13.8-13.8h-5a13.8,13.8,0,0,0-13.8,13.8v8.9H1460V568.3a19.6,19.6,0,0,0-19.6-19.6H1414a19.6,19.6,0,0,0-19.6,19.6v37.5a19.5,19.5,0,0,0,19.6,18.9h26.4a19.6,19.6,0,0,0,19.6-19.6v-7h12.4v34.4a13.8,13.8,0,0,0,13.8,13.5h5l1.8-.2h28.8v13.7a22,22,0,0,0,22.1,21.4h10.4v35.3a1.3,1.3,0,0,0,.1.6,21.3,21.3,0,0,0,21.3,20.8h13.2V788a17.2,17.2,0,0,0-7.3,12.2,15.1,15.1,0,0,0-9.5,14.1v2h-29.2a17.4,17.4,0,0,0-17.3,17.3v5.5a17.3,17.3,0,0,0,17.3,16.7h43v27.6c0,.2.1.4.1.6a23.3,23.3,0,0,0,22.9,22.8h34.8v23.6a16.4,16.4,0,0,0-10.3,7.3h-29.7a16.6,16.6,0,0,0-16.2,12.7,20.2,20.2,0,0,0-.4,2.6c0,.4-.1.9-.1,1.3v6.3a1.3,1.3,0,0,0,.1.6,16.6,16.6,0,0,0,16.6,16h33.8a15.7,15.7,0,0,0,9.5,3.1h13.6a20.9,20.9,0,0,0,7.8,7.8,22.3,22.3,0,0,0,8.9,2.5v23.5a18.3,18.3,0,0,0,3.9,11.2l1.5,1.7,1.1,1a18.2,18.2,0,0,0,11.6,4.1h86a18,18,0,0,0,18.1-18V971.9Z" fill="#79af95"/>
    </g>
    <g>
      <path d="M1124.4,575.5a10.3,10.3,0,0,1-.1,1.7,7.6,7.6,0,0,1,.1,1.5v55.1a15.3,15.3,0,0,1-15.2,15.3h-25.7v93.4a9.3,9.3,0,0,1-9.3,9.3h-43.9v9.3a10.4,10.4,0,0,1-10.4,10.3H965.3A10.3,10.3,0,0,1,955,761.1V738.7H792.5a8.6,8.6,0,0,1-8.6-8.6V595.4H737.6a20,20,0,0,1-20-19.9V525.8a20.1,20.1,0,0,1,20-20h.9v-49a19.2,19.2,0,0,1,19.3-19.3h26.9V421.1a11,11,0,0,1,11-11h256.8a16.6,16.6,0,0,1,16.6,16.6v12h15.7a23.2,23.2,0,0,1,23.2,23.2v44.3a20,20,0,0,1,16.4,19.6Z" fill="#5c5a20"/>
      <path d="M1131.3,515.6V567a15.3,15.3,0,0,0-15.2-13.7h-87a15.1,15.1,0,0,0-13.3,7.8,15.8,15.8,0,0,0-1.7,4.9,19.5,19.5,0,0,0-.2,2.5v33.9h-8.6A17.6,17.6,0,0,0,987.7,620v86.3H972.3a10.5,10.5,0,0,0-10.4,10.4v11.7H799.4a8.5,8.5,0,0,1-8.5-8.5V585.2H744.6a19.9,19.9,0,0,1-20-20V515.6a19.9,19.9,0,0,1,20-20h.8v10.9a19.4,19.4,0,0,0,19.4,19.4H887.7a19.4,19.4,0,0,0,19.4-19.4V446.6a19.3,19.3,0,0,0-19.4-19.3H871.5V410.8a11,11,0,0,0-11-11h199a16.7,16.7,0,0,1,16.6,16.7v12h15.7a23.2,23.2,0,0,1,23.2,23.2v44.2A20,20,0,0,1,1131.3,515.6Z" fill="#adb65c"/>
      <path d="M907.1,446.6v59.9a19.4,19.4,0,0,1-19.4,19.4H764.8a19.4,19.4,0,0,1-19.4-19.4V446.6a19.3,19.3,0,0,1,19.4-19.3h26.9V410.8a11,11,0,0,1,11-11h57.8a11,11,0,0,1,11,11v16.5h16.2A19.3,19.3,0,0,1,907.1,446.6Z" fill="#828236"/>
      <path d="M1131.3,567a15.3,15.3,0,0,0-15.2-13.7h-87a15.1,15.1,0,0,0-13.3,7.8,15.8,15.8,0,0,0-1.7,4.9,19.5,19.5,0,0,0-.2,2.5v33.9h-8.6A17.6,17.6,0,0,0,987.7,620v86.3H972.3a10.5,10.5,0,0,0-10.4,10.4v34.1a10.5,10.5,0,0,0,10.4,10.4h54.6a10.4,10.4,0,0,0,10.3-10.4v-9.3h44a9.2,9.2,0,0,0,9.2-9.2V638.8h25.7a15.2,15.2,0,0,0,15.2-15.2V567Z" fill="#828236"/>
    </g>
    <path d="M975.3,532.7l-1.7-1.2a2.9,2.9,0,0,0-4,.8l-30.2,45.6V450.5a6.2,6.2,0,0,0-6.2-6.2h-.9a6.2,6.2,0,0,0-6.2,6.2V577.6l-31-46.9a2.9,2.9,0,0,0-3.9-.8l-1.8,1.2a2.9,2.9,0,0,0-.8,4l37.5,56.7v46.6a6.2,6.2,0,0,0,6.2,6.2h.9a6.1,6.1,0,0,0,6.2-6.2V592.2l36.7-55.6A2.7,2.7,0,0,0,975.3,532.7Z" fill="#6e493b"/>
    <circle cx="933" cy="436.9" r="116.7" fill="#f0b225"/>
    <circle cx="841.8" cy="449.8" r="7.8" fill="#fcec61"/>
    <circle cx="870.7" cy="372.7" r="7.8" fill="#fcec61"/>
    <circle cx="957.9" cy="481.3" r="7.8" fill="#efa32b"/>
    <circle cx="953.3" cy="527.6" r="7.8" fill="#fcec61"/>
    <circle cx="1001.2" cy="384.8" r="7.8" fill="#fcec61"/>
    <circle cx="986.3" cy="433.2" r="7.8" fill="#fcec61"/>
    <circle cx="882.8" cy="417.5" r="7.8" fill="#efa32b"/>
    <circle cx="893.6" cy="521.7" r="7.8" fill="#efa32b"/>
    <circle cx="892.5" cy="473.4" r="7.8" fill="#fcec61"/>
    <circle cx="939.3" cy="341.8" r="7.8" fill="#fcec61"/>
    <circle cx="940.6" cy="386.1" r="7.8" fill="#efa32b"/>
    <circle cx="1011.2" cy="482.8" r="7.8" fill="#efa32b"/>
    <circle cx="931.5" cy="436.6" r="7.8" fill="#fcec61"/>
  </g>
</svg>
