<svg xmlns="http://www.w3.org/2000/svg" viewBox="0 0 1819.8 1067.9">
    <path d="M1807.8,769.2h-5.3a14.9,14.9,0,0,0,.6-4.3V494.3a16.4,16.4,0,0,0-16.3-16.4h-193V189.4a24.5,24.5,0,0,0-24.4-24.5H1515V25.6A25.6,25.6,0,0,0,1489.4,0H1274.7a25.6,25.6,0,0,0-25.6,25.6V87.9h-48.8a43.3,43.3,0,0,0-41.6,31.8H1001.3V67.3a38.7,38.7,0,0,0-38.7-38.7H426.2a38.8,38.8,0,0,0-38.8,38.7V174.2a38.8,38.8,0,0,0,38.8,38.7h30a16.2,16.2,0,0,0-.1,2.2v14.8H47.2A47.2,47.2,0,0,0,0,277.2V657.3a47.2,47.2,0,0,0,47.2,47.2H198v318.6a20.9,20.9,0,0,0,20.9,20.8H438.2a16.7,16.7,0,0,0,16.8,16H627.3a16.8,16.8,0,0,0,16.8-16.8V910.9h182v129c0,15.5,11.6,28,25.9,28h555.3c14.3,0,25.8-12.5,25.8-28V781.2h56.2V886.6a16.3,16.3,0,0,0,16.3,16.3h57v135.5a12,12,0,0,0,12,12h233.2a12,12,0,0,0,12-12V781.3A12.1,12.1,0,0,0,1807.8,769.2Z" fill="#ffffff"/>
</svg>