<svg version="1.1" xmlns="http://www.w3.org/2000/svg" xmlns:xlink="http://www.w3.org/1999/xlink" x="0px" y="0px"
	 viewBox="0 0 96 96" xml:space="preserve">
	<path d="M78,3H24v39H3v39h21v12h69V18L78,3z M9,75V48h63v27H9z M87,87H30v-6h48V42H30V9h39v18h18V87z M75,21V9l12,12H75z"/>
	<path d="M24.9,54.1h-7.5v15.8h5.1v-4.3h2.4c3.7,0,6.1-2.5,6.1-5.8S28.7,54.1,24.9,54.1z M24.6,61.1h-2v-2.5h2
		c0.8,0,1.4,0.6,1.4,1.2S25.4,61.1,24.6,61.1z"/>
	<path d="M39.8,54.1h-6.3v15.8h6.3c5,0,8.6-3.6,8.6-7.9S44.7,54.1,39.8,54.1z M39.8,65.4h-1.2v-6.8h1.2c2,0,3.5,1.5,3.5,3.4
		C43.3,63.9,41.8,65.4,39.8,65.4z"/>
	<polygon points="50.9,69.9 56,69.9 56,64.9 61.7,64.9 61.7,60.5 56,60.5 56,58.5 63.5,58.5 63.5,54.1 50.9,54.1 	"/>
</svg>
