<!-- Generator: Adobe Illustrator 19.0.0, SVG Export Plug-In  -->
<svg version="1.1"
	 xmlns="http://www.w3.org/2000/svg" xmlns:xlink="http://www.w3.org/1999/xlink" xmlns:a="http://ns.adobe.com/AdobeSVGViewerExtensions/3.0/"
	 x="0px" y="0px" width="616.8px" height="193.4px" viewBox="0 0 616.8 193.4" style="enable-background:new 0 0 616.8 193.4;"
	 xml:space="preserve">
<style type="text/css">
	.st0{fill:#BFC0C1;}
	.st1{clip-path:url(#SVGID_2_);fill:#FF3FB4;}
	.st2{clip-path:url(#SVGID_2_);fill:#C4D600;}
	.st3{clip-path:url(#SVGID_2_);fill:#1CCFC9;}
	.st4{clip-path:url(#SVGID_2_);fill:#818285;}
	.st5{clip-path:url(#SVGID_4_);fill:#FF3FB4;}
	.st6{clip-path:url(#SVGID_4_);fill:#C4D600;}
	.st7{clip-path:url(#SVGID_4_);fill:#1CCFC9;}
	.st8{clip-path:url(#SVGID_4_);fill:#818285;}
</style>
<defs>
</defs>
<polygon class="st0" points="0.4,95.6 5.7,97 45.4,107.6 50.6,109 56,110.5 66.7,113.3 107.8,124.3 113,125.7 114.4,120.4 
	109.2,119 68.1,108 57.4,105.1 52,103.7 46.8,102.3 7.2,91.6 1.8,90.2 "/>
<polygon class="st0" points="56.7,64.7 62.1,66.1 67.5,67.6 73,69 113.9,80 115.4,74.6 74.3,63.6 68.9,62.2 63.5,60.8 58.7,59.5 
	18.7,48.7 17.2,54.1 "/>
<polygon class="st0" points="0.8,72.7 29.5,80.4 34.9,81.8 40.2,83.2 77.3,93.2 83.2,94.8 88.5,96.2 113.6,102.9 115,97.5 90,90.8 
	84.6,89.4 79.6,88 41.5,77.8 36.3,76.5 31,75 2.2,67.3 "/>
<polygon class="st0" points="0,118.4 18,123.3 23.4,124.7 34,127.6 61,134.8 71.7,137.6 77,139.1 96.5,144.3 98,138.9 78.5,133.7 
	73.1,132.3 62.5,129.5 35.5,122.2 24.8,119.4 19.5,117.9 1.4,113.1 "/>
<g>
	<defs>
		<rect id="SVGID_1_" width="616.8" height="193.4"/>
	</defs>
	<clipPath id="SVGID_2_">
		<use xlink:href="#SVGID_1_"  style="overflow:visible;"/>
	</clipPath>
	<path class="st1" d="M41.2,36.9l-3,11.3l5.4,1.4l3-11.3c2.6-0.4,4.8-2.3,5.5-4.9c1-3.6-1.2-7.3-4.8-8.3s-7.3,1.2-8.3,4.8
		C38.2,32.6,39.2,35.3,41.2,36.9"/>
	<path class="st1" d="M15.9,152.7l8.9-33.4l1.6-5.9l1.3-4.8l-5.4-1.4l-1.3,4.8l-1.6,5.9l-8.9,33.4c-2.6,0.4-4.8,2.3-5.5,4.9
		c-1,3.6,1.2,7.3,4.8,8.3c3.6,1,7.3-1.2,8.3-4.8C18.9,157.1,17.9,154.4,15.9,152.7"/>
	<polygon class="st1" points="32.6,69.1 31,75 26.7,91.1 32,92.5 36.3,76.5 37.9,70.6 39.2,65.7 33.8,64.3 	"/>
	<path class="st2" d="M76.6,12L65,55.4l-1.4,5.4l-4.3,16.1l5.4,1.4l4.3-16.1l1.4-5.4l11.6-43.4c2.6-0.4,4.8-2.3,5.5-4.9
		c1-3.6-1.2-7.3-4.8-8.3c-3.6-1-7.3,1.2-8.3,4.8C73.6,7.7,74.6,10.4,76.6,12"/>
	<path class="st2" d="M37,181.4l11.8-44.1l-5.4-1.4l-11.8,44.1c-2.6,0.4-4.8,2.3-5.5,4.9c-1,3.6,1.2,7.3,4.8,8.3
		c3.6,1,7.3-1.2,8.3-4.8C39.9,185.7,39,183,37,181.4"/>
	
		<rect x="51.2" y="93.2" transform="matrix(-0.9659 -0.2589 0.2589 -0.9659 78.4445 224.4356)" class="st2" width="5.6" height="27.8"/>
	<path class="st3" d="M97.8,40.3l-6,22.3l5.4,1.4l6-22.3c2.6-0.4,4.8-2.3,5.5-4.9c1-3.6-1.2-7.3-4.8-8.3c-3.6-1-7.3,1.2-8.3,4.8
		C94.8,35.9,95.7,38.6,97.8,40.3"/>
	<path class="st3" d="M72.6,155.5l8.9-33.1l-5.4-1.4l-8.9,33.1c-2.6,0.4-4.8,2.3-5.5,4.9c-1,3.6,1.2,7.3,4.8,8.3
		c3.6,1,7.3-1.2,8.3-4.8C75.6,159.9,74.6,157.2,72.6,155.5"/>
	
		<rect x="83.8" y="78.9" transform="matrix(-0.9659 -0.2589 0.2589 -0.9659 146.1456 204.82)" class="st3" width="5.6" height="27.8"/>
	<path class="st4" d="M185.9,146c-14.2,0-23.4-3.6-32.3-12.4l6.9-6.9c7.8,7.8,15.1,10.3,25.7,10.3c13.8,0,22.2-6.5,22.2-17.5
		c0-4.9-1.5-9.1-4.5-11.8c-3-2.6-5.4-3.4-12.3-4.5l-11-1.7c-7.4-1.2-13.2-3.6-17.3-7.2c-4.8-4.2-7.2-10.1-7.2-17.6
		c0-16,11.5-26.6,30.2-26.6c12,0,20,3,28.1,10.3l-6.5,6.5c-5.8-5.3-12.1-8.1-22-8.1c-12.6,0-19.9,7-19.9,17.5
		c0,4.6,1.3,8.3,4.2,10.9c2.9,2.5,7.8,4.4,12.7,5.2l10.3,1.6c8.9,1.3,13.2,3.2,17.2,6.6c5.2,4.4,7.9,10.9,7.9,18.7
		C218.5,135.8,205.5,146,185.9,146"/>
	<path class="st4" d="M363.4,145.2l-7.5-21.3h-41.2l-7.5,21.3h-10.7l34.7-94.3h8.5l34.6,94.3H363.4z M335.5,65.4l-17.7,49.8h35.2
		L335.5,65.4z"/>
	<path class="st4" d="M504.1,146c-9.3,0-17.7-3.4-24.1-9.8c-8.9-8.9-8.9-18.1-8.9-38.1c0-20,0-29.3,8.9-38.1
		c6.4-6.4,14.8-9.8,24.1-9.8c16.9,0,29.5,10.3,32.7,28.1h-10.3c-2.5-11.5-10.6-19.1-22.4-19.1c-6.2,0-12.2,2.4-16.3,6.6
		c-6,6.1-6.6,12.6-6.6,32.3c0,19.7,0.7,26.2,6.6,32.3c4.1,4.2,10.1,6.6,16.3,6.6c11.8,0,20.1-7.6,22.6-19.1h10.1
		C533.7,135.7,520.9,146,504.1,146"/>
	<path class="st4" d="M270.6,50.9h-35.1v94.3h10.1V59.9h24.1c11.8,0,20,6.2,20,18.7c0,12.4-8.2,18.8-20,18.8h-14v9h15
		c17.2,0,29.1-10.9,29.1-27.8C299.7,61.6,287.8,50.9,270.6,50.9"/>
	<path class="st4" d="M434.6,102.4c12.2-2.5,20.5-11.5,20.5-25.3c0-16.3-11.5-26.2-27.9-26.2H391v94.3H401l0-29.5V59.9h25.2
		c11,0,18.8,5.8,18.8,17.3c0,11.5-7.8,17.2-18.8,17.2h-15.1v8.9h12.6l21.5,41.8h11.8L434.6,102.4z"/>
	<path class="st4" d="M584.1,146c-9.3,0-17.7-3.4-24.1-9.8c-8.9-8.9-8.9-18.1-8.9-38.1c0-20,0-29.3,8.9-38.1
		c6.4-6.4,14.8-9.8,24.1-9.8c16.9,0,29.5,10.3,32.7,28.1h-10.3c-2.5-11.5-10.6-19.1-22.4-19.1c-6.2,0-12.2,2.4-16.3,6.6
		c-6,6.1-6.6,12.6-6.6,32.3c0,19.7,0.7,26.2,6.6,32.3c4.1,4.2,10.1,6.6,16.3,6.6c11.8,0,20.1-7.6,22.6-19.1h10.1
		C613.8,135.7,600.9,146,584.1,146"/>
</g>
</svg>
